<?xml version="1.0" encoding="UTF-8"?><svg id="Capa_1" xmlns="http://www.w3.org/2000/svg" width="111.75mm" height="69.7mm" viewBox="0 0 316.76 197.57"><defs><style>.cls-1{fill:#181513;}.cls-1,.cls-2,.cls-3,.cls-4,.cls-5,.cls-6,.cls-7,.cls-8,.cls-9,.cls-10,.cls-11,.cls-12{stroke-width:0px;}.cls-2{fill:#534e3f;}.cls-3{fill:#f2df9e;}.cls-4{fill:#f7df96;}.cls-5{fill:#524d3c;}.cls-6{fill:#efdc9c;}.cls-7{fill:#171616;}.cls-8{fill:#524e3f;}.cls-9{fill:#f3e19f;}.cls-10{fill:#161514;}.cls-11{fill:#f3e09f;}.cls-12{fill:#f7e096;}</style></defs><path class="cls-10" d="M139.46,116.61c1.13.88,2.3,1.61,3.35,2.5.82.7,1.6,1.44,2.35,2.22,1.05,1.12,1.03,2.46.71,3.78-.46,1.9-1.47,3.46-3.27,4.41-2.25,1.18-4.6,2.06-7.1,2.54-2.94.57-5.91.88-8.91,1.01-.96.04-1.9.14-2.85-.11-.37-.1-.56-.29-.7-.67-1.65-4.51-3.31-9.02-6.18-12.94-.38-.52-.83-1.01-1.19-1.54-.34-.5-.75-.51-1.27-.36-1.25.38-2.34,1.06-3.37,1.81-1.95,1.41-4.06,2.38-6.53,2.56.08.32.3.51.46.73,1.64,2.21,2.94,4.62,3.7,7.24.64,2.22.68,4.53.18,6.83-.24,1.12-.63,2.19-1.05,3.24-.33.82-1.14,1.09-1.85,1.07-2.65-.04-5.13.85-7.69,1.29-2.16.37-4.36.58-6.48,1.19-2.19.63-4.38,1.25-6.57,1.88-.15.04-.33.05-.46.26.66.58,1.37,1.11,2.03,1.7,2.45,2.16,3.8,4.83,3.89,8.11.01.49.09.97.13,1.46.1,1.05-.18,2-.72,2.91-1.71,2.83-4.34,4.48-7.22,5.87-4.05,1.95-8.36,2.91-12.78,3.48-1.29.17-2.59.31-3.89.39-.95.05-1.86-.14-2.78-.35-.26-.06-.41-.26-.56-.44-1.56-1.87-2.73-3.99-3.79-6.17-.58-1.19-.48-2.51-.64-3.77-.15-1.15-.16-2.32-.14-3.48,0-.47-.14-.53-.56-.43-1.85.45-3.58,1.21-5.36,1.85-4.24,1.51-8.07,3.81-11.85,6.21-2.04,1.29-4.03,2.68-6.23,3.71-.83.39-1.02.36-1.62-.33-.47-.54-.94-1.08-1.45-1.56-2.26-2.1-4.03-4.58-5.51-7.25-1.2-2.15-1.79-4.53-2.33-6.92-.21-.95-.41-1.9-.55-2.87-.24-1.62-.12-3.21.11-4.8.14-.94.64-1.75,1.04-2.59.15-.33.47-.5.8-.63.86-.35,1.75-.48,2.69-.42,2.76.17,5.52.52,8.28-.06.86-.18,1.69-.45,2.52-.73,1.32-.45,2.12-1.42,2.61-2.65.87-2.19,1.42-4.46,1.4-6.83,0-.61-.03-1.22-.46-1.79-1.05-1.4-2.51-1.88-4.09-1.63-2.95.47-5.73,1.51-8.31,3.05-.59.35-1.19.71-1.79,1.04-1.52.84-2.59.63-3.6-.78-.71-.99-1.28-2.08-1.8-3.18-1.45-3.1-1.27-6.31-.62-9.56.41-2.04,1.02-4.01,1.77-5.95.61-1.59,1.65-2.54,3.61-2.23,1.39.23,2.81-.03,4.2-.22,4.05-.55,8.1-1.16,12.11-1.98.52-.11.56-.28.42-.72-.49-1.57-1.04-3.13-1.34-4.75-.23-1.23.07-2.27,1.03-3.14,1.25-1.13,2.79-1.61,4.32-2.18,3.77-1.43,7.71-1.99,11.69-2.32,1.05-.09,2.1-.19,3.16-.05,1.76.24,2.76,1.69,2.96,3.11.19,1.33.47,2.64.67,3.97.08.54.34.59.79.47,1.54-.4,3.07-.78,4.61-1.17,4-1,7.78-2.64,11.51-4.34,1.04-.48,1.72-.45,2.65.08,3.77,2.17,6.32,5.36,8.1,9.25.05.11.1.22.15.33.13.02.14-.08.16-.14.46-1.86,1.83-2.48,3.53-2.61,1.64-.13,3.28-.15,5.08-.14-.38-.41-.64-.75-.96-1.04-.87-.76-1.75-1.52-2.7-2.18-.85-.59-1.69-1.2-2.26-2.1-.49-.77-.7-1.6-.64-2.5.07-1.15.06-2.32.44-3.44.11-.31.23-.55.5-.72,4.02-2.64,8.36-4.43,13.13-5.14.83-.12,1.65-.23,2.49-.19,1.46.07,2.12.75,2.11,2.2,0,.65-.08,1.3-.14,1.95-.1,1.1.25,1.69,1.31,2.04,1.55.52,3.14.63,4.76.35,2.42-.41,4.74-1.16,7.04-1.97.03-.01.05-.06.1-.13-.69-.49-1.37-1-2.08-1.45-.73-.46-.94-1.11-.77-1.89.22-1.01.63-2,.71-3.02.11-1.47,1.05-1.94,2.22-2.27,3.2-.9,6.47-1.45,9.8-1.61,1.36-.07,2.73-.08,4.09,0,.43.02.7.22.92.59,1.68,2.86,3.69,5.45,6.09,7.74.67.64,1.39,1.17,2.25,1.53.71.3,1.3.17,1.89-.24.63-.44,1.07-1.06,1.56-1.63,1.48-1.73,3.28-2.33,5.52-1.74,2.07.54,3.89,1.54,5.55,2.84,1.7,1.33,3.51,2.52,5.06,4.03.73.71,1.36,1.51,1.87,2.4.31.54.37,1.08.09,1.68-.54,1.16-1.01,2.35-1.53,3.52-.62,1.41-1.56,2.38-3.23,2.33-.08,0-.16.02-.24.04-.01,0-.02.03-.05.09.58.48,1.19.94,1.84,1.34,2.65,1.63,5.3,3.25,7.94,4.89.4.25.76.54,1.12.84.54.44.77,1.02.51,1.68-.8,2-1.52,4.04-3.26,5.49-.55.46-1.15.84-1.72,1.26-3.23,2.35-6.96,3.66-10.61,5.14-3.03,1.23-5.24-.09-6.29-3.09-.42-1.2-1.04-2.29-1.49-3.47-.54-1.4-1.74-1.84-3.07-2.08-1.38-.24-2.73.01-4.05.33-2.39.57-4.76,1.24-7.14,1.88-.69.19-1.32.52-1.99.9ZM170.83,96.99c-.96.14-1.93.23-2.9.26-1.58.05-3.16-.31-4.74,0-.13.02-.32-.05-.36.13-.01.08.1.21.18.29.52.55,1.1,1.03,1.67,1.52.83.71,1.64,1.39,2.84.88.12-.05.28,0,.42-.01.67-.05,1.29-.19,1.69-.8.47-.71.94-1.42,1.22-2.24.01-.02.03-.05.04-.07-.02.01-.05.03-.07.04ZM62.1,165.53s-.05-.03-.08-.04c.01.03.03.05.04.08.49.94,1.22,1.71,1.82,2.58.14.21.36.23.6.23.87-.02,1.74-.02,2.62-.11,2.12-.22,4.23-.53,6.31-.94,3.62-.72,7.12-1.84,10.34-3.69,1.93-1.11,3.67-2.47,5-4.29.74-1.01,1.02-2.1.76-3.42-.33.65-.77,1.1-1.21,1.56-1.29,1.32-2.74,2.41-4.33,3.34-1.63.96-3.34,1.81-5.1,2.44-2.61.94-5.27,1.77-8.03,2.2-2.51.39-5.01.68-7.55.32-.4-.06-.79-.17-1.19-.26ZM60.13,155.03c.02,1.9.19,3.78.41,5.66.22,1.84,1.36,2.88,3.14,3.27,1.86.42,3.73.08,5.59-.09,2.31-.21,4.56-.81,6.78-1.51,4.07-1.28,7.92-2.95,11.1-5.93,1.68-1.57,2.02-4,.62-5.83-1.3-1.71-2.78-3.24-4.69-4.3-.77-.43-1.44-1-2-1.68-.74-.91-.72-2.02.04-2.9.73-.83,1.68-1.36,2.71-1.7,2.14-.72,4.36-1.15,6.55-1.73,1.83-.48,3.64-1.08,5.49-1.42,2.08-.38,4.2-.51,6.3-.77,1.26-.16,2.52-.1,3.78-.23.52-.05,1.1-.15,1.2-.75.19-1.1.39-2.2.31-3.33-.14-2.12-1.1-3.95-2.06-5.75-1.17-2.19-2.58-4.23-4.51-5.86-.62-.53-1.22-.63-1.96-.32-.98.4-1.8,1.03-2.59,1.7-.83.7-1.74,1.29-2.8,1.57-1.54.4-3.12.54-4.72.56-2.22.03-4-.91-5.45-2.46-1.92-2.04-3.3-4.41-4.03-7.16-.82-3.07.83-6.33,3.83-7.38,1.4-.49,2.83-.72,4.31-.77,1.86-.05,3.7.11,5.55.2.45.02.57-.07.34-.48-.17-.3-.32-.61-.47-.93-1.92-4.14-4.75-7.45-8.73-9.75-.14-.08-.25-.12-.39-.02-.9.61-1.96.89-2.92,1.38-2.92,1.5-5.87,2.9-9.05,3.77-2.33.64-4.63,1.44-7.09,1.46-1.45.01-2.05-.81-1.56-2.18.31-.86.6-1.73.85-2.61.18-.67.07-1.25-.32-1.85-.55-.85-1.39-.87-2.22-.85-2.14.05-4.26.29-6.38.58-3.03.41-5.89,1.42-8.73,2.48-.83.31-1.52.85-2.16,1.45-.22.21-.3.47-.34.76-.12.81.34,1.37.85,1.87.78.76,1.45,1.59,2.02,2.51.63,1.01.48,1.71-.5,2.39-.88.6-1.9.82-2.91,1.06-3.53.83-7.12,1.35-10.71,1.85-1.99.27-3.99.6-6.02.43-.97-.08-1.37.12-1.75,1.04-.23.56-.46,1.13-.66,1.71-1.02,2.85-1.69,5.78-1.64,8.83.01.71.08,1.42.19,2.13.08.51.55.8.89.61,1.82-1.02,3.74-1.79,5.67-2.54,2.12-.82,4.27-1.49,6.57-1.45.86.02,1.72.13,2.47.57,3.53,2.04,5.63,5.74,5.2,9.96-.19,1.93-.61,3.82-1.25,5.65-.55,1.58-1.39,2.95-3,3.67-2.6,1.16-5.34,1.53-8.17,1.36-1.34-.08-2.69-.31-4.02-.24-2,.11-2.73.59-2.93,2.68-.22,2.31,0,4.54.62,6.76.63,2.26,1.26,4.5,2.34,6.6.82,1.58,1.95,2.95,2.9,4.45.67,1.06.66,1.07,1.61.3.11-.09.22-.18.34-.26,3.24-2.14,6.49-4.29,9.95-6.06,3.19-1.63,6.38-3.25,9.82-4.32,1.74-.54,3.48-1,5.29-1.17,2.12-.2,3.02.69,3.09,2.77,0,.06,0,.12,0,.18,0,.79,0,1.59,0,2.38ZM127.72,81.45c.77.43,1.45.8,2.11,1.19.69.41,1.28.94,1.89,1.45,1.2.99,1.29,2.6.18,3.57-.88.77-1.83,1.45-2.94,1.83-2.31.79-4.62,1.56-7.01,2.11-2.17.5-4.35.63-6.42-.23-1.68-.7-2.37-1.59-2.08-3.2.11-.61.07-1.26.07-1.89,0-.5-.24-.8-.8-.76-.43.03-.86,0-1.28.04-4.59.54-8.86,2.06-12.84,4.4-1.12.66-1.08.65-.04,1.43,1.86,1.41,3.92,2.56,5.57,4.26,1.28,1.32,2.49,2.68,3.15,4.44.45,1.2.1,1.94-1.15,2.33-.79.24-1.6.3-2.42.28-2.06-.04-4.11.01-6.16.19-1.73.15-2.52,1.37-1.9,2.99.08.21.18.41.27.61.72,1.68,1.83,3.12,2.83,4.63.61.93,1.38,1.7,2.22,2.42,1.97,1.69,4.19,2.29,6.7,1.54,1.22-.36,2.25-1.13,3.31-1.81.67-.43,1.3-.91,2.05-1.19.97-.36,2-.62,2.96-.21.85.36,1.6.95,2.24,1.65,1.57,1.7,2.9,3.56,3.92,5.64,1.26,2.59,2.21,5.28,2.85,8.09.07.32.18.46.51.43,1.09-.12,2.18-.29,3.27-.36,4.14-.27,8.19-1.03,12.17-2.21,1.31-.39,2.61-.78,3.7-1.67.27-.22.31-.38.08-.63-.48-.5-.93-1.03-1.42-1.51-1.53-1.5-3.3-2.71-5-4-1.92-1.47-1.99-3.46-.21-5.07.65-.59,1.33-1.14,2.09-1.58,1.44-.83,2.99-1.38,4.54-1.94,4.36-1.57,8.68-1.63,12.94.37.2.09.38.24.55.38,1.04.9,1.68,2.08,2.24,3.31.65,1.45,1.33,2.87,2.45,4.05.28.3.5.37.89.24,3.72-1.25,7.27-2.86,10.61-4.92,1.14-.71,2.3-1.39,3.15-2.47.18-.23.26-.36-.03-.57-.47-.32-.89-.7-1.4-.98-1.51-.84-3.03-1.66-4.5-2.57-3.44-2.14-6.79-4.42-9.68-7.29-.33-.33-.64-.65-.48-1.16.17-.56.58-.87,1.15-.97.84-.14,1.69-.22,2.55-.19,1.42.05,2.85.09,4.27.13.8.02,1.52-.25,2.2-.64.45-.26.57-.6.2-1.04-.47-.56-.9-1.16-1.43-1.67-1.94-1.87-4.13-3.42-6.32-4.98-1.45-1.04-3.06-1.67-4.79-2.04-1.33-.28-2.46.05-3.41,1-.27.27-.52.57-.77.86-.66.75-1.31,1.5-2.35,1.76-1.46.36-2.69-.26-3.74-1.09-2.08-1.64-3.93-3.54-5.33-5.83-.61-1.01-1.17-2.04-1.75-3.07-.12-.22-.26-.31-.53-.28-3.14.33-6.28.59-9.37,1.28-1.43.32-2.89.49-4.33,1.12ZM89.41,122.32c2.33-.1,4.57-.44,6.38-2.14.64-.6,1.4-1.08,2.22-1.38.57-.21.58-.35.19-.78-1.64-1.83-2.95-3.88-3.82-6.19-.04-.11-.09-.23-.13-.34-.05-.15-.12-.28-.29-.11-.25.25-.57.18-.87.19-2.01.05-4.03,0-6.04.23-1.96.23-3.68.98-5.15,2.3-.79.71-.78.8-.41,1.77.56,1.45,1.54,2.62,2.5,3.81,1.4,1.74,3.15,2.72,5.43,2.65ZM177.08,112.01c-.23-.04-.34.1-.47.18-2.49,1.61-5.06,3.09-7.77,4.32-1.53.69-3.07,1.41-4.75,1.7-.77.13-1.43-.04-2.02-.58-1.29-1.2-1.96-2.77-2.61-4.35-.84-2.03-1.93-3.68-4.41-4.03-2.3-.32-4.57-.38-6.85-.07-1.87.25-3.57,1.05-5.31,1.72-1.63.62-3.13,1.45-4.37,2.71-.34.34-.6.73-.56,1.24.05.73.65,1.03,1.26.69.44-.25.89-.5,1.37-.67,2.99-1.04,6.02-1.94,9.16-2.43,1.1-.17,2.21-.24,3.33-.03,1.34.26,2.57.75,3.3,1.96.74,1.23,1.34,2.55,1.87,3.89.27.7.58,1.39.99,2.02.65,1,1.98,1.45,3.31.96,3.71-1.37,7.46-2.66,10.75-4.96,1.06-.74,2.06-1.5,2.86-2.53.41-.53.75-1.08.91-1.75ZM94.76,107.39c.06,1.2.07,2.42.56,3.53.76,1.75,1.56,3.48,2.77,4.99.75.94,1.43,1.96,2.5,2.54,1,.54,1.92,1.15,2.68,1.98.44.48.94.53,1.54.38,2.22-.57,4.17-1.69,6.04-2.98,1.05-.72,2.19-1.24,3.42-1.56.61-.16,1.2-.17,1.71.33.88.87,1.76,1.73,2.45,2.78,1.02,1.55,1.87,3.19,2.74,4.82.88,1.66,1.67,3.34,2.22,5.14.12.38.12.81.36,1.18.15-.88.27-1.72.45-2.55.06-.27.06-.51-.03-.77-1-2.77-2-5.53-3.38-8.15-1.26-2.38-2.75-4.54-5.01-6.09-.39-.27-.77-.38-1.2-.29-.62.13-1.23.33-1.72.74-1.01.83-2.09,1.54-3.21,2.2-2.2,1.31-4.51,1.6-6.89.62-1.97-.82-3.57-2.19-4.78-3.93-1.11-1.6-2.35-3.11-3.2-4.9ZM31.14,163.24c.85.63,1.39,1.42,2.15,1.98.28.21.47.21.76.07,1-.45,1.91-1.08,2.86-1.62,3.13-1.77,6.03-3.91,9.27-5.5,1.64-.8,3.18-1.82,4.95-2.35,2.25-.67,4.42-1.61,6.74-2.08.17-.03.4-.01.41-.27.03-.67.22-1.33.12-2-.03-.21-.05-.46-.4-.39-1.27.25-2.57.32-3.84.61-3.06.71-5.87,2.02-8.67,3.38-2.98,1.45-5.84,3.11-8.67,4.84-1.85,1.14-3.74,2.19-5.69,3.32ZM81.99,143.12c0,.08,0,.15.03.2.37.74.98,1.23,1.71,1.58.13.06.28,0,.41-.08,1.27-.66,2.64-1.03,4-1.45,1.9-.59,3.79-1.22,5.75-1.57,2.05-.37,4.12-.67,6.17-1.05,1.85-.34,3.66-.93,5.57-.88.38.01.85-.12,1.04-.53.28-.63.5-1.29.72-1.94.09-.25-.03-.36-.28-.28-1.31.44-2.7.26-4.04.44-1.46.2-2.93.37-4.4.54-1.67.2-3.34.38-5.01.57-.86.1-1.73.16-2.58.4-1.74.49-3.4,1.21-5.16,1.66-1.18.31-2.33.72-3.32,1.48-.32.24-.59.5-.61.91ZM40.67,124.5c-.01-.12,0-.2-.03-.24-.19-.26-.37-.53-.58-.78-1.22-1.45-2.64-2.54-4.68-2.39-1.32.09-2.6.36-3.86.78-2.8.92-5.47,2.16-8.13,3.4-.23.1-.26.18-.11.39.67.96,1.31,1.95,2,2.9.31.42.8.46,1.27.26.3-.13.57-.31.85-.47,1.14-.66,2.18-1.49,3.41-2,1.39-.58,2.76-1.18,4.2-1.61,1.33-.4,2.68-.81,4.1-.59.51.08,1.01.23,1.54.35ZM127.34,131.84s0,.05,0,.07c1.69-.18,3.38-.38,5.07-.54,3.22-.3,6.29-1.14,9.2-2.56,1.48-.72,2.43-1.85,3.01-3.34.04-.09.1-.2,0-.28-.1-.09-.18.01-.27.06-.56.29-1.14.52-1.74.73-1.71.61-3.48.94-5.24,1.34-1.8.41-3.6.77-5.45.86-1.31.06-2.62.28-3.94.32-.88.03-1.77.33-2.66.05-.29-.09-.32.16-.36.36-.14.82-.31,1.64-.65,2.4-.26.56.02.65.46.64.85-.03,1.7-.07,2.55-.11ZM80.72,113.46c.1-.07.15-.1.19-.14,2.25-2.27,5.08-2.95,8.13-2.9,1.23.02,2.48-.08,3.71.16.37.07.58-.1.61-.48.08-.81.15-1.61.25-2.42.06-.5-.1-.68-.62-.66-1.56.07-3.13.1-4.69.12-1.66.02-3.26.29-4.83.87-1.59.58-3.6,3.14-2.75,5.45ZM97.19,92.03c-.02.15-.04.19-.04.23,0,.12,0,.24,0,.37-.14,1.89.58,3.34,2.18,4.38,1.6,1.05,3.08,2.25,4.3,3.73.46.56.97.63,1.62.48.95-.23,1-.32.59-1.26-.75-1.72-2.13-2.95-3.39-4.26-1.13-1.18-2.62-1.91-3.96-2.82-.41-.28-.84-.55-1.31-.86ZM126.63,82.41c-.17.73-.33,1.44-.49,2.15-.05.24-.1.48-.13.72-.05.3.04.56.29.75.44.33.85.69,1.32.98.53.32.92,1.05,1.52.99.58-.07,1.06-.63,1.56-1.01.97-.72.94-1.3-.02-2.06-1.23-.98-2.56-1.78-4.05-2.51ZM44.15,102.75s-.1.06-.14.1c.26.69.52,1.39.77,2.08.1.27.28.33.52.17.17-.11.54-.17.36-.44-.46-.67-.87-1.39-1.51-1.91ZM65.11,98.08c-.28.69-.5,1.24-.73,1.79-.05.13-.16.29,0,.38.24.14.51.06.77.05.24-.01.13-.2.12-.32-.04-.58-.1-1.16-.16-1.9Z"/><path class="cls-7" d="M252.1,69.04c1.24,1.94,1.9,4.09,2.26,6.33.83,5.18-.2,9.95-3.3,14.23-.62.86-1.34,1.64-2.14,2.34-.42.37-.43.74-.19,1.18.29.52.74.85,1.24,1.14,1.55.9,3.09,1.81,4.63,2.73.48.28.88.66,1.24,1.08,1.14,1.35.8,3.25-.73,4.14-.94.54-1.97.87-2.99,1.22-1.46.5-2.49,1.46-3.12,2.83-1.62,3.5-2.12,7.15-1.3,10.95.8,3.69,2.01,7.25,3.69,10.64,1.14,2.28,2.72,4.25,4.53,6.02.64.63,1.48.99,2.32,1.31.84.31,1.54.82,2.15,1.46.52.55.72,1.17.47,1.9-.25.73-.49,1.47-.78,2.18-.36.9-.25,1.74.19,2.58.56,1.06,1.39,1.9,2.25,2.71,2.61,2.44,5.03,5.05,7.33,7.77,1.04,1.24,1.29,2.74,1.19,4.3-.04.66-.35,1.26-.81,1.75-.65.7-1.3,1.4-1.98,2.08-.22.22-.25.33-.06.58.56.75,1.27,1.31,2.06,1.8.8.49,1.61.96,2.4,1.46,1.42.9,1.72,2.49.63,3.76-1.74,2.04-3.38,4.19-5.71,5.64-1.4.87-2.91,1.54-4.33,2.38-4.52,2.68-9.53,3.8-14.62,4.62-4.76.77-9.57.77-14.37.37-5.02-.42-9.98-1.18-14.78-2.79-2.23-.75-4.35-1.72-6.26-3.12-.42-.31-.83-.42-1.38-.45-2.28-.13-4.56,0-6.83-.11-2.64-.13-5.29-.15-7.93-.33-1.79-.12-3.56-.38-5.33-.65-2.68-.41-5.33-.92-7.93-1.68-2.49-.73-4.57-2.11-6.3-4.01-1.77-1.94-3.74-3.68-5.44-5.69-.83-.98-1.62-1.99-2.28-3.09-.51-.86-.53-1.7.02-2.59.79-1.28,1.82-2.27,3.15-2.99,1.13-.61,2.28-1.17,3.45-1.69.53-.23.99-.54,1.38-.99.55-.63.69-2.04.2-2.71-.2-.27-.55-.34-.84-.46-1.04-.42-1.92-1.08-2.67-1.89-1.17-1.25-1.49-2.74-.89-4.36.64-1.71,1.73-3.13,3.03-4.38,2.18-2.08,4.36-4.16,6.32-6.46,1.59-1.86,3.2-3.7,4.5-5.78.73-1.16,1.34-2.36,1.29-3.81-.02-.66-.05-1.3-.39-1.88-.88-1.5-.66-3.01-.02-4.51.36-.84,1.12-1.25,1.88-1.66,1.54-.82,3.06-1.69,4.42-2.81.88-.72,1.62-1.54,2.25-2.47,3.43-5.02,6.1-10.4,7.43-16.35.67-2.99,1.22-6.01,1.52-9.08.26-2.65.18-5.23-.36-7.83-.34-1.66-1.31-2.75-2.79-3.46-1.33-.63-2.72-1.09-4.1-1.58-1.93-.69-3.65-1.73-4.93-3.36-1.2-1.53-1.19-3.31-.09-4.92.73-1.07,1.78-1.77,2.8-2.51,2.12-1.55,4.54-2.53,6.87-3.69.47-.24.93-.5,1.39-.76.35-.2.48-.37.06-.7-4.84-3.8-7.68-8.78-8.61-14.83-1.6-10.44,3.15-21.17,12.39-26.62,11.99-7.08,26.85-1.95,31.53,11.79,2.19,6.43,1.78,12.78-1.09,18.95-.1.22-.24.42-.36.62-.19-.08-.39-.16-.58-.24.31-.86.63-1.71.93-2.57,1.38-4,1.82-8.08,1.17-12.28-.76-4.89-2.81-9.12-6.37-12.6-3.39-3.31-7.46-5.18-12.14-5.63-3.79-.36-7.45.36-10.9,2-4.38,2.09-7.8,5.24-10.3,9.38-2.05,3.39-3.26,7.08-3.56,11.03-.27,3.56.18,7.06,1.47,10.41.13.34.16.77.51,1,.09.4.21.78.39,1.15,1.26,2.55,2.96,4.74,5.12,6.58.16.14.3.34.56.32.12.25.33.4.56.52,1.08.54,1.26.91,1.02,2.09-.42.46-.84.93-1.43,1.19-.35.15-.67.34-.96.59-.69.09-1.15.65-1.78.89-2.57.97-4.76,2.53-6.66,4.5-.95.99-1.38,2.18-.33,3.43.3.35.62.7,1.01.96.97.82,2.09,1.38,3.27,1.83,1.25.47,2.54.86,3.67,1.6.16.1.32.16.52.12.17.53.75.6,1.06.97.33.43.82.71,1.12,1.19.7,1.14.98,2.41,1.23,3.68.43,2.26.29,4.53.02,6.81-.63,5.24-1.48,10.45-3.52,15.35-2.06,4.96-4.31,9.84-8.29,13.66-.81.65-1.6,1.32-2.5,1.85-.96.47-1.89,1.02-2.79,1.6-.28.18-.44.46-.56.78-.38,1.04-.41,2.04.14,3.05.49.9.71,1.88.42,2.89-.45,1.59-1.04,3.12-1.96,4.51-1.23,1.87-2.65,3.6-4.09,5.32-2.02,2.4-4.31,4.55-6.48,6.8-1.07,1.11-1.94,2.35-2.53,3.78-.5,1.24-.19,2.5.78,3.4.94.87,2.06,1.44,3.22,1.94,1.7.73,3.48,1.27,5.25,1.79,1.87.55,3.72,1.17,5.67,1.43.55.11,1.1.26,1.66.34,2.15.3,4.25.88,6.41,1.11.17.02.44.05.41.27-.04.27-.3.18-.5.16-.75-.07-1.49-.2-2.24-.18-1.82.04-3.59-.32-5.38-.58-1.72-.25-3.43-.64-5.12-1.02-.05-.04-.09-.1-.14-.11-1.98-.57-3.98-1.07-5.99-1.88.19.77.21,1.45.1,2.14-.04.25.12.36.29.49,1.68,1.23,3.63,1.87,5.58,2.51,1.61.67,3.28,1.14,4.98,1.5.57.12,1.15.24,1.72.35.24.04.39.17.36.4-.04.23-.26.23-.44.22-.28-.01-.56-.05-.84-.07-1.13-.07-2.22-.41-3.34-.55-.08-.15-.24-.14-.37-.18-1.5-.43-3.01-.85-4.51-1.28-1.36-.39-2.62-.99-3.71-1.9-.33-.27-.51-.41-.82.03-.28.39-.72.65-1.15.89-1.1.61-2.2,1.22-3.3,1.84-1.07.61-1.9,1.45-2.47,2.54-.11.21-.27.43-.01.65-.03.24.11.43.22.62.64,1.06,1.37,2.05,2.2,2.98,2.12,2.39,4.3,4.72,6.68,6.84.97.87,2.11,1.59,3.38,1.98,2.74.84,5.53,1.43,8.36,1.9,3.11.51,6.24.76,9.37.89,3.13.13,6.26.25,9.4.16.09,0,.21.04.27-.09-.1-.25-.33-.4-.51-.58-1.58-1.44-3.01-3.02-4.32-4.7-1.19-1.52-.94-2.74.72-3.72,1.5-.89,3.02-1.75,4.04-3.26.24-.36.35-.58-.04-.91-.65-.55-1.29-1.12-1.87-1.75-1.38-1.49-1.71-2.75-.8-4.66.18-.38.19-.54-.3-.53-1.16.04-2.31-.06-3.45-.26-.49-.09-1.07.04-1.62-.46,1.9,0,3.64-.02,5.39.01.45,0,.77-.12,1.06-.46.53-.59,1.05-1.19,1.64-1.72,1.91-1.7,4.01-3.19,5.63-5.2.98-1.21,1.8-2.51,2.35-3.96.38-1,.4-1.97-.3-2.89-.28-.37-.47-.8-.46-1.3.03-1.32.74-2.24,1.69-3.04.33-.27.7-.48.98-.81.96-1.13,1.91-2.26,2.91-3.36,1.63-1.8,2.82-3.87,3.77-6.08.15-.34.11-.55-.33-.53-.22.01-.5.05-.54-.25-.05-.36.29-.35.51-.37.74-.06,1.09-.5,1.28-1.16.18-.65.4-1.28.6-1.92,1.04-3.32,1.92-6.68,1.74-10.21-.08-1.74-.4-3.39-1.61-4.79-1.24-1.44-2.8-2.07-4.61-2.3-.47-.24-.87-.58-1.24-.94-1.09-1.05-1.74-2.25-1.2-3.81.11,0,.18-.06.25-.15.91-1.26,2.13-2.16,3.46-2.93,1.11-.64,2.18-1.34,3.24-2.05.67-.44.69-.68.08-1.21-.33-.3-.72-.53-1.05-.83-3.58-3.18-5.19-7.29-5.48-11.96-.16-2.48.24-4.9,1.07-7.24.14-.4.04-.57-.35-.61-1.51-.13-3.02-.35-4.54-.39-.41-.04-.82-.09-1.23-.13-.16-.02-.27-.09-.29-.25-.02-.17.1-.26.24-.3.13-.04.27-.05.41-.08.69-.19,1.4-.28,2.11-.2,1.17.13,2.34.29,3.47.61.52.15.76.02.9-.46.04-.14.09-.27.16-.4.22-.4.09-.54-.34-.66-1.61-.45-3.28-.56-4.93-.68-2.13-.15-4.27.05-6.38.26-2.21.22-4.41.64-6.57,1.2-.27.07-.51.09-.76-.03-.02-.68.54-.81.99-1,2.05-.86,4.22-1.21,6.4-1.45,1.33-.15,2.68-.15,4.02-.23,2.54.04,5.07.26,7.5,1.01.65.2.89.03,1.24-.47.72-1.04,1.4-2.15,2.49-2.88-.06.63.22.97.86,1-.37.43-.76.85-1.11,1.29-3.15,3.87-4.3,8.31-3.63,13.22.4,2.95,1.5,5.64,3.26,8.05.4.54.71,1.18,1.34,1.53.27.27.28.77.76.85-.06.26.11.42.27.58.25.24.49.49.61.83.12.32.33.36.63.24.39-.16.8-.3,1.21-.41.17-.04.43-.11.54.14.11.26-.13.36-.29.46-.33.2-.68.37-1.02.55-.52.27-1.07.49-1.55.85-1.11.83-2.26,1.58-3.46,2.28-1.16.68-2.22,1.5-3.04,2.59-.28.38-.32.76-.14,1.2.44,1.1,1.21,1.8,2.37,2.08,2.2.54,3.92,1.72,4.98,3.77.22.43.48.83.62,1.31.73,2.5.56,5.03.17,7.54-.41,2.67-1.2,5.25-2.02,7.82-1.33,4.2-3.39,7.95-6.69,10.94-.9.82-1.86,1.58-2.69,2.47-.93.99-1.18,1.87-.61,2.67.85,1.21.84,2.46.35,3.76-.53,1.4-1.3,2.66-2.13,3.89-1.43,2.12-3.47,3.62-5.35,5.3-1.27,1.13-2.55,2.28-3.28,3.88-.35.77-.41,1.56.05,2.28.81,1.26,1.92,2.24,3.13,3.11.76.55,1.75.65,2.55,1.15.14.08.44.04.34.32-.06.19-.27.18-.47.17-.73-.05-1.46-.15-2.13-.44-.36-.15-.52-.04-.75.25-.41.53-.71,1.14-1.23,1.58-1.01.86-2.13,1.55-3.25,2.25-.96.6-1.04,1.04-.36,1.96,1.54,2.09,3.45,3.84,5.36,5.57,1.13,1.02,2.4,1.86,3.79,2.52,2.58,1.23,5.29,2.07,8.06,2.73,3.42.82,6.89,1.29,10.39,1.64.06.02.11.05.17.06,4.48.27,8.95.39,13.41-.24,5.56-.79,10.86-2.33,15.86-4.98,3.35-1.78,6.1-4.16,8.43-7.09.8-1,.62-1.85-.51-2.45-.77-.41-1.55-.8-2.32-1.22-1-.54-1.87-1.25-2.44-2.25-.21-.37-.4-.62-.87-.54-.19.03-.44.05-.5-.22-.06-.27.18-.32.37-.4,1.47-.6,2.43-1.81,3.44-2.95.3-.34.41-.81.4-1.26-.02-1.22-.25-2.4-1.08-3.35-2.27-2.62-4.62-5.15-7.18-7.49-1.01-.92-1.98-1.88-2.6-3.13-.6-1.2-.7-2.4-.11-3.64.3-.62.54-1.27.83-1.9.18-.39.09-.68-.19-.99-.49-.54-1.11-.86-1.78-1.13-1.33-.53-2.61-1.18-3.63-2.19-2.03-2.01-3.6-4.34-4.77-6.96-1.41-3.16-2.43-6.43-3.15-9.8-.8-3.74-.39-7.37,1.11-10.88.55-1.28,1.33-2.37,2.49-3.18.78-.55,1.69-.79,2.57-1.09.71-.24,1.43-.47,2.08-.86.84-.49,1.03-1.49.43-2.08.04-.24-.14-.38-.3-.5-.99-.73-1.96-1.51-3.14-1.95-.6-.37-1.17-.79-1.8-1.08-1.25-.57-2.22-1.36-2.5-2.79.09-.24.21-.48.17-.75.37-.07.43-.46.66-.67,4.34-4.14,6-9.24,5.33-15.14-.27-2.43-1.22-4.62-2.43-6.71.39,0,.83.11,1.07-.36Z"/><path class="cls-1" d="M229.01,66.46c-.64-.03-.92-.37-.86-1,.08-.12.15-.24.23-.36.61-.9.48-1.25-.54-1.48-.3-.07-.59-.16-.88-.23-2.69-.66-5.42-1.18-8.06-2.05-.86-.28-1.03-.84-.48-1.57.59-.8,1.26-1.53,1.9-2.29.35-.41.81-.74,1-1.27.33-.07.49-.31.64-.63-.22-.04-.4-.08-.58-.09-1.26-.05-2.52-.14-3.78-.13-2.68.02-5.35.09-8.02.38,0-.34.15-.49.51-.53.58-.06,1.17-.15,1.73-.31,1.56-.46,3.17-.53,4.76-.49,1.11.03,2.23.06,3.35.1.63.02,1.26.06,1.87.19.67.14,1.1-.08,1.53-.57,1.75-2.03,3.53-4.03,5.31-6.03,1.35-1.52,2.71-3.02,4.04-4.55.53-.61.72-.67,1.44-.36,1.08.47,2.17.92,3.25,1.39.19.08.37.18.56.02l.58.24c-.1.41.27.4.47.49,4.15,1.79,8.3,3.56,12.44,5.36,3.71,1.61,7.41,3.25,11.12,4.88.43.19.85.39,1.26.61.62.34.64.53.18,1.03-.09.1-.22.2-.11.36,1.04,1.61.46,3.23-.03,4.82-.42,1.38-1.01,2.7-1.33,4.12-.33,1.5-.13,2.86.76,4.12.16.23.29.4.64.27.36-.13.78-.01,1.03.23.33.32.69.39,1.11.45.73.09,1.19.58,1.52,1.2.21.39.42.8.55,1.22.31,1.03,1.04,1.62,1.96,2.03.15.07.38.08.34.35-.68.18-1.23-.24-1.83-.41-.02-.23-.2-.22-.36-.22h0c0-.18,0-.36-.24-.37,0,0,0,0,0,0-.08-.29-.12-.6-.46-.73-.22-.52-.42-1.05-.68-1.56-.32-.64-1.12-1.13-1.51-.86-.6.42-1.38.7-1.66,1.45-.21.55-.47,1.17,0,1.73.35.41.75.79,1.17,1.23.13-.34.19-.89.52-.58.42.39.71.49,1.16.16.02-.02.08,0,.12.01.27.37.53.75.82,1.11.3.37.37.88.71,1.22.03.09.07.18.1.27-.04.15-.04.29.15.34.03.06.05.13.08.19.02.35.11.65.54.68l.03-.02.02.03c0,.14,0,.28,0,.42-.29.29-.56.14-.82-.04-.39-.27-.66-.65-.95-1.02-.16-.31-.32-.62-.54-1.04-.12.79-.21,1.45-.31,2.11-.34.27-.54.16-.63-.23-.04-.19-.06-.39-.09-.59.02-.74.02-1.47-.38-2.1.02.68.1,1.39-.06,2.09-.46.02-.48-.39-.48-.64,0-1.17-.68-1.93-1.53-2.57-.64-.48-.86-1.11-.78-1.86.02-.17,0-.3-.1-.45-.5-.73-.47-1.48.1-2.13.36-.42.25-.63-.03-1.03-1.01-1.45-1.34-3.07-.95-4.8.24-1.09.56-2.16,1.04-3.18.46-.96.76-1.97.91-3.02.05-.34.07-.69.03-1.03-.11-1-.35-1.1-1.15-.52-2.85,2.06-5.65,4.19-8.57,6.15-.23.16-.44.36-.73.42-.19-.16-.21-.01-.24.13-.25,1.13-.49,2.27-.75,3.39-.04.19-.05.36,0,.53-.24.47-.67.36-1.07.36-.17-.18-.32-.37-.4-.61.24-.42.29-.9.38-1.37.44-.1.15-.56.38-.77.4-1.95.89-3.89,1.49-5.78.36-1.13.06-2.05-.7-2.84-1.14-1.19-2.49-2.07-4.08-2.57-2.65-.83-5.35-1.02-8.08-.68-1.22.15-2.45.38-3.59.92-1.41.44-2.83.79-4.08,1.66-.83.57-1.35,1.27-1.51,2.24-.16.98-.32,1.95-.64,2.89-.16.46-.23.94-.34,1.41.09.73-.19,1.39-.36,2.08-.13.2-.29.36-.5.48ZM219.09,60.36c.13.05.2.07.27.1,3.05.97,6.25,1.33,9.27,2.37.33.11.42,0,.51-.29.32-1.03.58-2.07.84-3.12.14-.57.12-1.23.52-1.67.77-.84,1.61-1.63,2.69-2.06,3.21-1.28,6.48-2.31,10.01-2.07,2.19.15,4.38.31,6.44,1.2,1.34.58,2.47,1.43,3.43,2.49.87.96,1.03,2.12.71,3.37-.26,1.02-.55,2.03-.65,3.26,3.26-2.49,6.57-4.65,9.85-7.01-.19-.09-.28-.13-.36-.17-9.53-3.93-18.99-8.05-28.47-12.1-.51-.22-.77-.14-1.12.26-3.98,4.45-7.97,8.87-11.96,13.3-.64.7-1.29,1.39-1.98,2.12ZM262.94,73.53c.48-.56.87-1.17,1.57-1.49.24-.11.21-.33-.06-.43-.21-.07-.51-.13-.64.02-.47.53-1.03,1.04-.87,1.89Z"/><path class="cls-1" d="M268.72,77.7c0,.13,0,.26-.01.38-.21.29-.3.15-.45-.08-.46-.71-.73-1.57-1.54-2.01-.16-.14-.3-.29-.06-.49.12-.04.42.09.23-.24-.08-.22-.42-.45-.1-.68.27-.2.42.12.6.25.03.02.07.03.11.05.04.29.19.47.49.5,0,0,0,0,0,0,0,.18,0,.35.24.36,0,0,0,0,0,0,0,.16.09.24.25.24.5.45,1.12.69,1.7,1v.31c-.08,0-.17-.02-.25-.03l-.12-.06c-.49,0-.93-.19-1.35-.42-.07-.07-.15-.08-.18.02-.04.1.05.13.13.15.1.24.2.48.31.73Z"/><path class="cls-6" d="M268.47,76.81c.43.22.86.41,1.35.42.04.02.08.04.12.06.08,0,.17.02.25.03.07,0,.14,0,.21,0,.07.51-.18.65-.66.66-.38,0-.68-.21-1.03-.26-.1-.24-.2-.48-.31-.73l.05-.17Z"/><path class="cls-7" d="M266.72,75.99c.81.44,1.08,1.3,1.54,2.01.15.23.24.37.45.08.08.16.2.33.01.49-.19.15-.27-.07-.4-.14-.12-.06-.1.07-.13.13-.34-.34-.41-.85-.71-1.22-.29-.36-.55-.74-.82-1.11.08-.06.08-.15.06-.24Z"/><path class="cls-6" d="M266.49,80.47c.1-.66.19-1.32.31-2.11.22.42.38.73.54,1.04-.35.17-.15.5-.2.75-.08.4-.24.6-.65.31Z"/><path class="cls-6" d="M270.2,77c-.58-.31-1.21-.54-1.7-1,.04,0,.08-.02.11-.03.6.17,1.15.59,1.83.41.11.25.08.49-.03.73-.07-.04-.15-.08-.22-.11Z"/><path class="cls-6" d="M265.33,79.64c.16-.7.08-1.41.06-2.09.4.63.4,1.36.38,2.1-.15,0-.29,0-.44-.01Z"/><path class="cls-7" d="M269.05,80.04c-.42-.03-.52-.33-.54-.68.21.2.26.53.54.68Z"/><path class="cls-7" d="M269.1,80.47c0-.14,0-.28,0-.42.28.14.28.2,0,.42Z"/><path class="cls-7" d="M270.2,77c.07.04.15.08.22.11,0,.07,0,.13-.01.2-.07,0-.14,0-.21,0v-.31Z"/><path class="cls-7" d="M268.43,79.17c-.19-.05-.19-.19-.15-.34.05.11.1.23.15.34Z"/><path class="cls-7" d="M252.85,65.11c.02-.14.05-.29.24-.13-.08.04-.16.09-.24.13Z"/><path class="cls-12" d="M60.13,155.03c0-.79,0-1.59,0-2.38,0-.06,0-.12,0-.18-.07-2.08-.97-2.97-3.09-2.77-1.81.17-3.56.63-5.29,1.17-3.44,1.07-6.63,2.69-9.82,4.32-3.46,1.77-6.71,3.91-9.95,6.06-.12.08-.23.17-.34.26-.95.77-.94.76-1.61-.3-.94-1.5-2.08-2.86-2.9-4.45-1.08-2.1-1.71-4.34-2.34-6.6-.62-2.22-.83-4.46-.62-6.76.2-2.09.93-2.57,2.93-2.68,1.33-.07,2.68.16,4.02.24,2.83.18,5.57-.2,8.17-1.36,1.61-.72,2.45-2.09,3-3.67.63-1.83,1.05-3.72,1.25-5.65.42-4.22-1.67-7.92-5.2-9.96-.76-.44-1.61-.55-2.47-.57-2.31-.04-4.46.63-6.57,1.45-1.93.75-3.86,1.52-5.67,2.54-.34.19-.81-.1-.89-.61-.11-.7-.18-1.42-.19-2.13-.05-3.05.62-5.97,1.64-8.83.21-.57.43-1.14.66-1.71.38-.91.77-1.12,1.75-1.04,2.03.17,4.02-.15,6.02-.43,3.59-.49,7.17-1.02,10.71-1.85,1.01-.24,2.03-.45,2.91-1.06.99-.68,1.13-1.38.5-2.39-.57-.92-1.24-1.75-2.02-2.51-.51-.49-.98-1.05-.85-1.87.04-.29.12-.55.34-.76.64-.6,1.34-1.15,2.16-1.45,2.84-1.06,5.7-2.07,8.73-2.48,2.12-.29,4.24-.53,6.38-.58.83-.02,1.66,0,2.22.85.39.6.5,1.18.32,1.85-.24.88-.53,1.75-.85,2.61-.5,1.37.1,2.19,1.56,2.18,2.46-.02,4.76-.82,7.09-1.46,3.18-.87,6.14-2.26,9.05-3.77.96-.49,2.02-.77,2.92-1.38.14-.09.25-.06.39.02,3.98,2.3,6.81,5.61,8.73,9.75.15.31.3.62.47.93.23.41.12.51-.34.48-1.85-.09-3.7-.25-5.55-.2-1.48.04-2.91.28-4.31.77-3,1.05-4.65,4.31-3.83,7.38.73,2.75,2.11,5.11,4.03,7.16,1.45,1.55,3.23,2.49,5.45,2.46,1.6-.02,3.17-.16,4.72-.56,1.06-.27,1.97-.87,2.8-1.57.8-.67,1.62-1.29,2.59-1.7.74-.31,1.34-.21,1.96.32,1.93,1.63,3.34,3.67,4.51,5.86.97,1.8,1.92,3.64,2.06,5.75.08,1.13-.12,2.23-.31,3.33-.1.6-.68.69-1.2.75-1.26.13-2.52.07-3.78.23-2.1.27-4.22.4-6.3.77-1.86.34-3.66.94-5.49,1.42-2.18.58-4.4,1.01-6.55,1.73-1.03.34-1.98.87-2.71,1.7-.77.88-.78,1.99-.04,2.9.56.68,1.23,1.25,2,1.68,1.9,1.07,3.38,2.6,4.69,4.3,1.4,1.83,1.06,4.26-.62,5.83-3.18,2.97-7.03,4.64-11.1,5.93-2.22.7-4.47,1.3-6.78,1.51-1.85.17-3.72.51-5.59.09-1.77-.4-2.92-1.43-3.14-3.27-.22-1.88-.39-3.77-.41-5.66Z"/><path class="cls-4" d="M127.72,81.45c1.45-.62,2.9-.8,4.33-1.12,3.09-.68,6.23-.95,9.37-1.28.27-.03.41.06.53.28.58,1.03,1.14,2.07,1.75,3.07,1.39,2.29,3.24,4.19,5.33,5.83,1.05.82,2.28,1.45,3.74,1.09,1.04-.26,1.69-1.01,2.35-1.76.26-.29.5-.59.77-.86.95-.94,2.09-1.28,3.41-1,1.73.37,3.34,1,4.79,2.04,2.19,1.56,4.38,3.11,6.32,4.98.53.51.96,1.1,1.43,1.67.37.44.26.78-.2,1.04-.68.39-1.4.66-2.2.64-1.42-.04-2.85-.08-4.27-.13-.86-.03-1.71.04-2.55.19-.57.1-.98.41-1.15.97-.16.51.15.83.48,1.16,2.89,2.87,6.24,5.15,9.68,7.29,1.47.91,2.99,1.73,4.5,2.57.5.28.93.66,1.4.98.3.2.21.34.03.57-.85,1.08-2.01,1.77-3.15,2.47-3.34,2.06-6.89,3.68-10.61,4.92-.39.13-.6.06-.89-.24-1.11-1.18-1.8-2.6-2.45-4.05-.55-1.23-1.2-2.41-2.24-3.31-.17-.15-.35-.29-.55-.38-4.26-2-8.58-1.94-12.94-.37-1.55.56-3.1,1.11-4.54,1.94-.76.44-1.44.99-2.09,1.58-1.78,1.61-1.7,3.6.21,5.07,1.7,1.3,3.47,2.5,5,4,.49.48.94,1.01,1.42,1.51.24.25.2.41-.08.63-1.09.89-2.4,1.28-3.7,1.67-3.97,1.18-8.03,1.94-12.17,2.21-1.09.07-2.18.23-3.27.36-.33.04-.44-.1-.51-.43-.64-2.81-1.59-5.5-2.85-8.09-1.02-2.08-2.35-3.94-3.92-5.64-.65-.7-1.4-1.29-2.24-1.65-.97-.41-2-.15-2.96.21-.75.28-1.38.76-2.05,1.19-1.06.68-2.09,1.44-3.31,1.81-2.51.75-4.73.14-6.7-1.54-.84-.72-1.61-1.49-2.22-2.42-1-1.51-2.11-2.94-2.83-4.63-.09-.21-.19-.41-.27-.61-.63-1.62.16-2.84,1.9-2.99,2.05-.18,4.11-.23,6.16-.19.82.02,1.63-.04,2.42-.28,1.25-.38,1.61-1.12,1.15-2.33-.66-1.76-1.87-3.12-3.15-4.44-1.64-1.7-3.7-2.85-5.57-4.26-1.05-.79-1.08-.78.04-1.43,3.98-2.34,8.24-3.86,12.84-4.4.42-.05.85-.01,1.28-.04.55-.03.8.26.8.76,0,.63.04,1.27-.07,1.89-.29,1.62.4,2.5,2.08,3.2,2.08.87,4.25.73,6.42.23,2.38-.55,4.7-1.31,7.01-2.11,1.11-.38,2.06-1.07,2.94-1.83,1.11-.97,1.02-2.58-.18-3.57-.61-.51-1.2-1.04-1.89-1.45-.66-.39-1.34-.76-2.11-1.19Z"/><path class="cls-5" d="M177.08,112.01c-.16.67-.5,1.22-.91,1.75-.79,1.03-1.8,1.79-2.86,2.53-3.29,2.29-7.04,3.59-10.75,4.96-1.32.49-2.66.04-3.31-.96-.41-.63-.72-1.32-.99-2.02-.53-1.35-1.13-2.66-1.87-3.89-.73-1.21-1.96-1.7-3.3-1.96-1.12-.22-2.23-.14-3.33.03-3.14.48-6.17,1.38-9.16,2.43-.48.17-.93.42-1.37.67-.62.34-1.21.04-1.26-.69-.04-.51.22-.89.56-1.24,1.24-1.26,2.73-2.08,4.37-2.71,1.74-.67,3.44-1.47,5.31-1.72,2.28-.31,4.55-.25,6.85.07,2.47.35,3.57,2,4.41,4.03.65,1.58,1.32,3.15,2.61,4.35.59.55,1.25.72,2.02.58,1.68-.3,3.21-1.01,4.75-1.7,2.71-1.22,5.28-2.7,7.77-4.32.13-.08.24-.22.47-.18Z"/><path class="cls-5" d="M94.76,107.39c.85,1.79,2.09,3.3,3.2,4.9,1.21,1.75,2.81,3.11,4.78,3.93,2.38.99,4.69.69,6.89-.62,1.12-.67,2.2-1.38,3.21-2.2.5-.41,1.11-.61,1.72-.74.43-.09.81.02,1.2.29,2.26,1.55,3.76,3.71,5.01,6.09,1.38,2.61,2.38,5.38,3.38,8.15.09.26.09.49.03.77-.18.83-.3,1.67-.45,2.55-.24-.37-.24-.79-.36-1.18-.55-1.79-1.34-3.48-2.22-5.14-.87-1.63-1.72-3.27-2.74-4.82-.69-1.04-1.57-1.91-2.45-2.78-.51-.5-1.1-.49-1.71-.33-1.23.32-2.37.84-3.42,1.56-1.86,1.29-3.81,2.41-6.04,2.98-.6.15-1.09.1-1.54-.38-.76-.83-1.68-1.44-2.68-1.98-1.07-.58-1.75-1.6-2.5-2.54-1.21-1.51-2.01-3.24-2.77-4.99-.48-1.11-.49-2.33-.56-3.53ZM115.38,114.72s0,0-.01,0c0-.16,0-.33,0-.49,0-.18,0-.4-.23-.43-.24-.03-.31.2-.33.37-.04.42-.04.85-.05,1.28,0,.17.11.26.28.25.16,0,.28-.1.3-.25.03-.24.03-.49.05-.73Z"/><path class="cls-5" d="M31.14,163.24c1.95-1.13,3.84-2.19,5.69-3.32,2.82-1.74,5.69-3.39,8.67-4.84,2.8-1.36,5.61-2.67,8.67-3.38,1.27-.29,2.57-.36,3.84-.61.35-.07.37.18.4.39.09.67-.09,1.33-.12,2-.01.26-.24.24-.41.27-2.32.47-4.48,1.41-6.74,2.08-1.77.53-3.31,1.54-4.95,2.35-3.24,1.59-6.14,3.73-9.27,5.5-.95.54-1.85,1.16-2.86,1.62-.29.13-.48.13-.76-.07-.76-.56-1.29-1.35-2.15-1.98Z"/><path class="cls-5" d="M81.99,143.12c.02-.41.3-.67.61-.91.99-.76,2.14-1.17,3.32-1.48,1.75-.45,3.42-1.17,5.16-1.66.85-.24,1.71-.3,2.58-.4,1.67-.19,3.34-.38,5.01-.57,1.47-.17,2.94-.34,4.4-.54,1.34-.18,2.72,0,4.04-.44.25-.08.37.03.28.28-.23.65-.44,1.31-.72,1.94-.18.42-.65.54-1.04.53-1.92-.06-3.72.54-5.57.88-2.05.38-4.12.67-6.17,1.05-1.96.36-3.85.99-5.75,1.57-1.36.42-2.73.8-4,1.45-.13.07-.28.14-.41.08-.73-.35-1.34-.83-1.71-1.58-.03-.05-.02-.12-.03-.2Z"/><path class="cls-5" d="M62.1,165.53c.39.09.79.2,1.19.26,2.54.37,5.04.07,7.55-.32,2.77-.43,5.42-1.26,8.03-2.2,1.77-.64,3.47-1.48,5.1-2.44,1.59-.94,3.04-2.02,4.33-3.34.44-.45.88-.9,1.21-1.56.25,1.32-.02,2.41-.76,3.42-1.34,1.82-3.07,3.18-5,4.29-3.22,1.85-6.72,2.97-10.34,3.69-2.08.41-4.19.73-6.31.94-.87.09-1.74.09-2.62.11-.24,0-.45-.02-.6-.23-.6-.86-1.34-1.63-1.82-2.58l.04-.04Z"/><path class="cls-5" d="M40.67,124.5c-.53-.12-1.03-.27-1.54-.35-1.42-.23-2.77.19-4.1.59-1.44.43-2.82,1.04-4.2,1.61-1.23.51-2.27,1.34-3.41,2-.28.16-.56.34-.85.47-.47.21-.96.17-1.27-.26-.7-.95-1.33-1.94-2-2.9-.15-.21-.12-.29.11-.39,2.67-1.23,5.33-2.48,8.13-3.4,1.26-.41,2.54-.68,3.86-.78,2.04-.14,3.45.94,4.68,2.39.21.25.39.52.58.78.03.04.02.11.03.24Z"/><path class="cls-5" d="M127.34,131.84c-.85.04-1.7.09-2.55.11-.44.01-.71-.08-.46-.64.35-.76.52-1.58.65-2.4.03-.21.06-.45.36-.36.89.28,1.78-.02,2.66-.05,1.31-.04,2.62-.26,3.94-.32,1.85-.09,3.66-.45,5.45-.86,1.76-.41,3.53-.73,5.24-1.34.59-.21,1.18-.45,1.74-.73.09-.04.17-.14.27-.06.09.08.03.18,0,.28-.58,1.5-1.53,2.62-3.01,3.34-2.92,1.42-5.98,2.25-9.2,2.56-1.69.16-3.38.36-5.07.54,0-.02,0-.05,0-.07Z"/><path class="cls-5" d="M80.72,113.46c-.85-2.31,1.17-4.87,2.75-5.45,1.56-.57,3.17-.84,4.83-.87,1.56-.02,3.13-.06,4.69-.12.53-.02.68.16.62.66-.1.8-.17,1.61-.25,2.42-.04.38-.24.55-.61.48-1.23-.23-2.48-.14-3.71-.16-3.05-.04-5.89.64-8.13,2.9-.04.04-.1.07-.19.14Z"/><path class="cls-5" d="M97.19,92.03c.47.31.89.58,1.31.86,1.34.91,2.82,1.64,3.96,2.82,1.26,1.31,2.64,2.54,3.39,4.26.41.94.36,1.03-.59,1.26-.65.15-1.16.08-1.62-.48-1.22-1.49-2.7-2.69-4.3-3.73-1.6-1.05-2.32-2.49-2.18-4.38,0-.12,0-.24,0-.37,0-.04.01-.08.04-.23Z"/><path class="cls-5" d="M126.63,82.41c1.49.72,2.82,1.52,4.05,2.51.96.76.98,1.33.02,2.06-.5.38-.98.95-1.56,1.01-.61.07-1-.66-1.52-.99-.46-.29-.88-.65-1.32-.98-.26-.19-.34-.45-.29-.75.04-.24.08-.48.13-.72.16-.71.32-1.42.49-2.15Z"/><path class="cls-5" d="M170.86,97.02c-.29.81-.75,1.53-1.22,2.24-.4.61-1.03.75-1.69.8-.14.01-.3-.04-.42.01-1.2.51-2.01-.17-2.84-.88-.57-.49-1.15-.97-1.67-1.52-.08-.08-.2-.21-.18-.29.03-.19.23-.11.36-.13,1.58-.3,3.16.05,4.74,0,.98-.03,1.94-.12,2.9-.26l.03.03Z"/><path class="cls-5" d="M44.15,102.75c.64.52,1.04,1.25,1.51,1.91.18.26-.19.33-.36.44-.24.15-.42.1-.52-.17-.26-.69-.51-1.39-.77-2.08.05-.03.1-.06.14-.1Z"/><path class="cls-5" d="M65.11,98.08c.06.74.12,1.32.16,1.9,0,.12.13.31-.12.32-.26.01-.54.09-.77-.05-.16-.09-.05-.25,0-.38.22-.55.45-1.11.73-1.79Z"/><path class="cls-5" d="M170.83,96.99l.07-.04s-.03.05-.04.07c0,0-.03-.03-.03-.03Z"/><path class="cls-5" d="M62.06,165.57s-.03-.05-.04-.08c.03.01.05.03.08.04,0,0-.04.04-.04.04Z"/><path class="cls-11" d="M255.04,98.98c.6.6.41,1.59-.43,2.08-.65.38-1.37.61-2.08.86-.88.3-1.79.55-2.57,1.09-1.15.81-1.94,1.9-2.49,3.18-1.5,3.51-1.91,7.14-1.11,10.88.72,3.37,1.75,6.65,3.15,9.8,1.17,2.62,2.74,4.95,4.77,6.96,1.02,1.01,2.3,1.66,3.63,2.19.67.27,1.29.59,1.78,1.13.28.31.37.6.19.99-.29.63-.54,1.28-.83,1.9-.59,1.24-.48,2.44.11,3.64.62,1.25,1.59,2.2,2.6,3.13,2.56,2.34,4.91,4.87,7.18,7.49.83.96,1.05,2.13,1.08,3.35,0,.45-.1.92-.4,1.26-1.01,1.14-1.97,2.35-3.44,2.95-.19.08-.43.13-.37.4.06.27.31.25.5.22.47-.08.66.17.87.54.57,1,1.43,1.71,2.44,2.25.77.42,1.55.81,2.32,1.22,1.13.6,1.31,1.44.51,2.45-2.34,2.93-5.08,5.31-8.43,7.09-5,2.65-10.31,4.2-15.86,4.98-4.46.63-8.93.51-13.41.24-.06,0-.12-.04-.17-.06.15-.64-.09-1.3.09-1.93.71-2.5,1.93-4.66,4.2-6.09,2.32.12,4.63.07,6.95-.08.25-.02.65.09.65-.25,0-.33-.42-.2-.65-.21-2.21-.08-4.43-.03-6.65-.15-2.98-.16-5.97-.29-8.94-.65-4.17-.52-8.32-1.23-12.51-1.63.06-.23,0-.45-.08-.65-.39-.99-.25-1.97.07-2.92.2-.61.43-1.28,1.23-1.45,1.37-.29,2.77-.39,4.16-.47,1.84-.1,3.69-.08,5.53-.15.66-.03,1.31-.16,1.97-.25,2.1-.07,4.22.2,6.31-.25.15-.03.37.01.37-.21,0-.2-.21-.15-.33-.16-2.7-.13-5.39-.27-8.09-.39-2.27-.1-4.55-.14-6.82-.27-.68-.04-1.38,0-2.05-.2-.13-.15-.26-.31-.41-.45-.99-1-1.95-2.03-2.53-3.34-.48-1.1-.64-2.29-.19-3.39.7-1.74,1.72-3.33,2.97-4.73,1.71-1.93,3.23-3.98,4.15-6.42.11-.3.29-.43.56-.47.99-.15,1.98-.17,2.98-.07.7.07,1.4.27,2.12.14.25.08.49-.05.76,0,1.91.3,3.81.65,5.73.76,3.44.19,6.87.05,10.26-.61,2.6-.51,5.19-1.05,7.36-2.73.15-.11.47-.17.35-.42-.15-.31-.4-.06-.57.02-5.2,2.49-10.76,3.03-16.42,2.9-2.81-.07-5.58-.62-8.35-1.07-1.4-.23-2.81-.41-4.16-.89.25-.41.14-.83,0-1.23-.17-.46-.21-.92-.01-1.37.79-1.78,2.05-2.67,3.97-2.49,1.3.12,2.59.32,3.83.72.28.09.56.11.68-.19.14-.36-.18-.44-.43-.53-1-.35-1.97-.78-2.89-1.3-1.13-.64-1.56-1.54-1.28-2.83.47-2.2,1.25-4.3,1.95-6.42.75-2.28,1.59-4.53,2.29-6.82.6-1.95.83-3.98,1.18-5.98.41-2.37-.05-4.54-1.24-6.57-1.19-2.03-2.7-3.82-4.35-5.49-.51-.52-.83-1.15-1.18-1.77-.07-.13-.12-.28-.04-.41.3-.5.58-1.08,1.18-1.27,2.76-.87,5.56-1.61,8.47-1.72,4.53-.18,8.97.49,13.37,1.52,1.64.38,3.28.78,4.95,1.03ZM255.45,172.17c.22-.05.43-.12.65-.14,4.35-.49,8.5-1.76,12.58-3.27.23-.08.45-.2.66-.32.14-.08.28-.21.2-.4-.08-.2-.24-.15-.41-.1-.39.12-.78.21-1.17.33-3.31,1.04-6.64,2.03-10.02,2.82-.83.19-1.64.46-2.46.69-.13.04-.29.1-.26.28.02.12.13.13.24.1ZM251.17,162.18c.66.28,1.28.11,1.9.06,2.6-.18,5.11-.86,7.62-1.51.13-.03.32-.08.28-.26-.05-.22-.24-.16-.4-.13-.84.15-1.67.35-2.51.43-1.9.2-3.75.67-5.63,1.01-.43.08-.84.26-1.26.4Z"/><path class="cls-8" d="M224.51,103.72c1.8.23,3.37.86,4.61,2.3,1.21,1.41,1.53,3.06,1.61,4.79.17,3.53-.7,6.88-1.74,10.21-.2.64-.42,1.27-.6,1.92-.19.66-.54,1.11-1.28,1.16-.22.02-.56.01-.51.37.04.3.33.26.54.25.45-.02.48.19.33.53-.95,2.22-2.14,4.28-3.77,6.08-.99,1.1-1.95,2.23-2.91,3.36-.28.33-.66.54-.98.81-.95.8-1.66,1.72-1.69,3.04-.01.5.18.93.46,1.3.69.92.68,1.89.3,2.89-.55,1.46-1.38,2.76-2.35,3.96-1.62,2.01-3.72,3.5-5.63,5.2-.59.53-1.11,1.13-1.64,1.72-.29.33-.61.46-1.06.46-1.75-.03-3.5-.01-5.39-.01.55.5,1.13.37,1.62.46,1.14.2,2.29.29,3.45.26.49-.02.48.15.3.53-.91,1.9-.58,3.17.8,4.66.58.62,1.22,1.19,1.87,1.75.38.33.28.55.04.91-1.02,1.5-2.54,2.37-4.04,3.26-1.66.98-1.91,2.19-.72,3.72,1.32,1.68,2.75,3.26,4.32,4.7.19.17.41.33.51.58-.06.14-.18.09-.27.09-3.13.09-6.27-.04-9.4-.16-3.13-.13-6.26-.38-9.37-.89-2.83-.46-5.62-1.05-8.36-1.9-1.28-.39-2.41-1.12-3.38-1.98-2.38-2.12-4.56-4.45-6.68-6.84-.83-.94-1.56-1.92-2.2-2.98-.12-.19-.25-.38-.22-.62.22-.08.43-.05.64.05.06.65.65.73,1.08.94,3.61,1.73,7.52,2.42,11.41,3.13,2.09.38,4.19.69,6.31.91,1.94.2,3.86.54,5.81.44.41-.02.81-.1,1.2-.25-.43-.11-.86-.21-1.29-.22-2.06,0-4.05-.55-6.08-.83-1.95-.27-3.88-.65-5.8-1.05-.72-.15-1.47-.21-2.16-.49,0-.19.13-.29.23-.41,1.41-1.87,3.23-3.3,4.99-4.81,1.12.13,2.21.48,3.34.55.28.02.56.05.84.07.18,0,.41,0,.44-.22.04-.23-.12-.36-.36-.4-.58-.11-1.15-.23-1.72-.35-1.7-.36-3.37-.84-4.98-1.5.05-1.05.11-2.1.16-3.15,1.7.39,3.4.77,5.12,1.02,1.78.26,3.56.62,5.38.58.74-.02,1.49.11,2.24.18.2.02.46.11.5-.16.03-.22-.24-.25-.41-.27-2.16-.23-4.26-.81-6.41-1.11-.56-.08-1.11-.22-1.66-.34.22-1.39.94-2.55,1.73-3.66,1.67-2.34,3.72-4.24,6.42-5.38.47-.2,1.04-.35,1.36-.78,1.86-2.5,3.57-5.1,5.02-7.86.79-1.51,1.68-2.99,1.89-4.73.05-.42.34-.67.78-.75.56-.1,1.13-.18,1.66-.35,1.3-.43,2.48-1.11,3.67-1.79.49-.28.73-.53.21-1-.08-.08-.11-.21-.16-.32.75-.12,1.5.07,2.25.09,2.12.05,4.21-.32,6.32-.28.51,0,1.05-.12,1.54-.31.13-.05.28-.11.26-.29-.03-.17-.17-.22-.32-.21-.57.02-1.12-.14-1.7-.14-1.95-.01-3.88.24-5.84.06-1.96-.18-3.94-.11-5.91-.17-.41-.01-.84,0-1.21-.24.08-.12.21-.11.33-.13,4.81-.8,9.38-2.34,13.76-4.47.41-.2.52-.48.57-.9.08-.71-.27-1.35-.27-2.05,1.53-.13,3.07-.25,4.6-.4.58-.06,1.17-.14,1.71-.39.13-.06.25-.16.25-.32,0-.1-.09-.13-.17-.14-.6-.06-1.18-.32-1.8-.22-1.95.32-3.92.38-5.88.44-3.03.1-6.06.04-9.09-.09-.95-.04-1.91-.06-2.86-.09-3.27-.09-6.53-.34-9.79-.5-1.67-.08-3.34-.02-5.01-.03-.32,0-.61.05-.83.29-.19-.02-.39,0-.55-.15.9-.52,1.69-1.2,2.5-1.85,1.93-.05,3.86-.11,5.8-.13,2.26-.02,4.51.18,6.76.32,3.04.19,6.1.26,9.15.26,2.38,0,4.76-.05,7.13-.24.54-.04,1.12-.03,1.13-.84.04-2.05.17-4.11-.03-6.16-.08-.8,0-1.69-.77-2.26Z"/><path class="cls-9" d="M204.82,53.4c-.26.02-.4-.18-.56-.32-2.16-1.84-3.87-4.04-5.12-6.58-.18-.37-.3-.75-.39-1.15.01-.08.04-.16.04-.23-.2-1.81-.12-3.63.23-5.41,1.36-6.82,5.09-12.02,11.05-15.52,6.01-3.53,12.36-4.3,18.91-1.56,3.79,1.58,6.57,4.3,8.43,7.97.23.45.24.68-.34.76-.9.13-1.65.59-2.28,1.21-2.27,2.22-4.43,4.55-6.41,7.05-2.32,2.94-4.47,6.01-6.64,9.06-.24.34-.49.47-.91.41-2.15-.27-4.3-.27-6.45,0-2.4.3-4.74.81-6.87,1.99-1.05.58-1.98,1.32-2.68,2.32Z"/><path class="cls-11" d="M192.84,114.62c.16.15.36.13.55.15.09.26.29.37.54.44.63.16,1.27.25,1.93.26,1.5.03,3.01.04,4.51.14,4.89.34,9.79.5,14.69.61,2.4.05,4.8-.03,7.2,0,0,.69.35,1.33.27,2.05-.05.42-.15.7-.57.9-4.38,2.12-8.95,3.67-13.76,4.47-.12.02-.25,0-.33.13-.57.03-1.13.09-1.7.09-1.69,0-3.37-.23-5.05-.37-2.55-.21-5.12-.03-7.67-.33-.19-.02-.44-.09-.5.2-.05.25.15.35.34.43.63.26,1.31.27,1.97.35,1.76.22,3.53.19,5.29.34,1.5.13,2.99.31,4.49.4,2.47.16,4.95.27,7.43.4.05.11.08.25.16.32.51.47.28.72-.21,1-1.19.67-2.37,1.36-3.67,1.79-.54.18-1.11.25-1.66.35-.43.08-.73.34-.78.75-.21,1.75-1.1,3.23-1.89,4.73-1.44,2.76-3.16,5.36-5.02,7.86-.32.43-.88.58-1.36.78-2.69,1.15-4.74,3.04-6.42,5.38-.79,1.11-1.52,2.27-1.73,3.66-1.94-.26-3.8-.88-5.67-1.43-1.77-.53-3.55-1.06-5.25-1.79-1.16-.5-2.28-1.07-3.22-1.94-.96-.9-1.28-2.16-.78-3.4.58-1.43,1.46-2.67,2.53-3.78,2.18-2.25,4.47-4.4,6.48-6.8,1.44-1.71,2.86-3.44,4.09-5.32.92-1.39,1.51-2.92,1.96-4.51.28-1.01.07-1.99-.42-2.89-.55-1.01-.52-2.01-.14-3.05.12-.32.28-.59.56-.78.9-.58,1.83-1.12,2.79-1.6Z"/><path class="cls-8" d="M204.82,53.4c.7-1,1.63-1.74,2.68-2.32,2.13-1.19,4.47-1.7,6.87-1.99,2.15-.27,4.3-.26,6.45,0,.42.05.67-.07.91-.41,2.16-3.06,4.32-6.12,6.64-9.06,1.97-2.5,4.14-4.82,6.41-7.05.63-.62,1.38-1.09,2.28-1.21.58-.08.57-.32.34-.76-1.85-3.67-4.64-6.39-8.43-7.97-6.55-2.74-12.9-1.96-18.91,1.56-5.96,3.5-9.69,8.71-11.05,15.52-.36,1.78-.43,3.59-.23,5.41,0,.08-.02.16-.04.23-.35-.24-.38-.66-.51-1-1.29-3.36-1.74-6.85-1.47-10.41.3-3.95,1.51-7.63,3.56-11.03,2.5-4.15,5.92-7.29,10.3-9.38,3.45-1.65,7.11-2.37,10.9-2,4.68.44,8.75,2.32,12.14,5.63,3.56,3.48,5.61,7.7,6.37,12.6.65,4.2.21,8.28-1.17,12.28-.3.86-.62,1.72-.93,2.57-.19.16-.37.07-.56-.02-1.08-.47-2.17-.92-3.25-1.39-.72-.32-.91-.25-1.44.36-1.34,1.53-2.7,3.03-4.04,4.55-1.78,2.01-3.56,4.01-5.31,6.03-.43.5-.86.71-1.53.57-.61-.13-1.25-.16-1.87-.19-1.12-.04-2.23-.07-3.35-.1-1.6-.04-3.2.03-4.76.49-.56.17-1.15.25-1.73.31-.36.04-.51.19-.51.53-.77.15-1.54.33-2.32.45-.29.05-.62.07-.86-.18.24-1.18.06-1.55-1.02-2.09-.23-.12-.44-.27-.56-.52Z"/><path class="cls-11" d="M224.51,103.72c.77.58.7,1.46.77,2.26.2,2.05.08,4.11.03,6.16-.02.81-.59.8-1.13.84-2.37.2-4.75.25-7.13.24-3.05,0-6.1-.07-9.15-.26-2.25-.14-4.5-.34-6.76-.32-1.93.02-3.86.08-5.8.13,3.98-3.81,6.23-8.7,8.29-13.66,2.04-4.9,2.89-10.11,3.52-15.35.27-2.27.41-4.54-.02-6.81-.24-1.28-.53-2.54-1.23-3.68-.3-.48-.78-.76-1.12-1.19,1.5-.58,3.09-.83,4.62-1.29,2.52-.76,5.11-1.08,7.74-1.13.86-.02.88.02.79.89-.01.1-.05.2-.07.29-.14.02-.28.04-.41.08-.14.04-.26.13-.24.3.02.16.13.23.29.25.41.04.82.09,1.23.13-.62,1.26-1.03,2.6-1.31,3.98-.59,2.86-.62,5.73-.12,8.6.06.33-.06.5-.26.67-.93.78-1.65,1.74-2.23,2.8-.65,1.18-.33,2.29.82,2.97.16.09.31.19.48.26,2.9,1.14,4.71,3.44,6.38,5.91.25.36.31.63-.02,1.01-.27.31-.44.72-.42,1.17-.54,1.57.11,2.76,1.2,3.81.37.36.77.7,1.24.94ZM215.19,71.27c-.19-.15-.26-.24-.34-.26-1.29-.33-2.48.12-3.67.53-.12.04-.19.16-.13.3.08.17.24.13.37.11,1.21-.21,2.42-.43,3.76-.68Z"/><path class="cls-2" d="M229.64,144.13c-.72.14-1.42-.07-2.12-.14-1-.1-1.99-.08-2.98.07-.28.04-.45.17-.56.47-.92,2.43-2.43,4.48-4.15,6.42-1.25,1.41-2.27,2.99-2.97,4.73-.45,1.1-.29,2.29.19,3.39.57,1.31,1.53,2.34,2.53,3.34.14.14.27.3.41.45-.67,0-1.34,0-2.01.01-.19,0-.48-.05-.5.2-.02.25.27.25.46.28,1.51.3,3.04.44,4.57.59,1.96.18,3.93.14,5.9.17.73.01,1.48.02,2.21.21-.66.09-1.31.22-1.97.25-1.84.07-3.69.05-5.53.15-1.39.08-2.79.18-4.16.47-.8.17-1.02.84-1.23,1.45-.32.95-.46,1.93-.07,2.92.08.2.14.43.08.65-.83-.08-1.66-.14-2.48-.24-1.21-.14-2.39-.46-3.57-.73-.17-.04-.4-.12-.46.14-.05.2.13.26.3.31,2.58.8,5.22,1.28,7.92,1.47,2.81.2,5.57.76,8.36,1.14,3.34.45,6.67.83,10.05.83.34,0,.69-.06,1.03.06-2.27,1.43-3.49,3.59-4.2,6.09-.18.63.07,1.29-.09,1.93-3.49-.35-6.96-.81-10.39-1.64-2.77-.67-5.48-1.5-8.06-2.73-1.39-.66-2.66-1.5-3.79-2.52-1.92-1.73-3.82-3.47-5.36-5.57-.68-.92-.6-1.36.36-1.96,1.12-.69,2.24-1.39,3.25-2.25.52-.44.82-1.05,1.23-1.58.23-.29.39-.41.75-.25.68.29,1.4.39,2.13.44.2.01.4.01.47-.17.1-.28-.21-.23-.34-.32-.8-.5-1.78-.6-2.55-1.15-1.21-.87-2.32-1.85-3.13-3.11-.46-.72-.4-1.51-.05-2.28.73-1.6,2.01-2.75,3.28-3.88,1.88-1.67,3.92-3.18,5.35-5.3.83-1.23,1.61-2.5,2.13-3.89.49-1.3.5-2.55-.35-3.76-.57-.8-.31-1.68.61-2.67.84-.89,1.79-1.66,2.69-2.47,3.31-2.99,5.36-6.74,6.69-10.94.82-2.57,1.61-5.15,2.02-7.82.39-2.52.56-5.04-.17-7.54-.14-.48-.4-.88-.62-1.31-1.06-2.05-2.78-3.23-4.98-3.77-1.16-.28-1.92-.98-2.37-2.08-.18-.44-.14-.82.14-1.2.82-1.09,1.88-1.91,3.04-2.59,1.19-.7,2.35-1.45,3.46-2.28.48-.35,1.03-.58,1.55-.85.34-.18.69-.35,1.02-.55.16-.1.4-.2.29-.46-.1-.25-.36-.18-.54-.14-.41.11-.82.25-1.21.41-.3.12-.51.09-.63-.24-.12-.33-.36-.58-.61-.83-.16-.16-.33-.31-.27-.58,1.07-.41,2.1-.96,3.25-1.13,3.1-.46,6.19-.32,9.28.19,1.83.3,3.61.75,5.32,1.46.04.27-.09.51-.17.75-.78-.1-1.56-.25-2.34-.27-.67-.01-1.34-.32-2.02-.03-.1-.03-.19-.06-.29-.09-1.94-.73-3.92-.94-5.95-.45-.32.08-.72.11-.71.6-2.32.81-4.42,1.99-6.41,3.53.28.09.43.02.58-.02,1.66-.41,3.33-.79,5.02-1.01,3.85-.51,7.67-.09,11.48.56,1.58.27,3.11.73,4.64,1.21.17.05.33.15.3-.15,1.18.44,2.15,1.21,3.14,1.95.15.11.33.25.3.5-1.67-.25-3.31-.65-4.95-1.03-4.4-1.03-8.84-1.71-13.37-1.52-2.91.12-5.71.86-8.47,1.72-.6.19-.87.77-1.18,1.27-.08.13-.03.28.04.41.35.62.66,1.26,1.18,1.77,1.65,1.67,3.16,3.45,4.35,5.49,1.19,2.04,1.65,4.2,1.24,6.57-.35,2-.58,4.03-1.18,5.98-.7,2.29-1.54,4.54-2.29,6.82-.7,2.12-1.48,4.22-1.95,6.42-.27,1.29.15,2.19,1.28,2.83.92.52,1.89.95,2.89,1.3.24.09.57.17.43.53-.12.3-.4.28-.68.19-1.24-.41-2.53-.6-3.83-.72-1.92-.18-3.18.71-3.97,2.49-.2.45-.16.91.01,1.37.15.41.26.82,0,1.23-1.04-.24-2.15-.21-3.08-.83-.08-.05-.16-.16-.26-.06-.11.11-.03.23.05.32.33.38.73.66,1.21.78,2.06.53,4.08,1.22,6.2,1.53.3.04.71-.09.92.29Z"/><path class="cls-11" d="M247.48,91.92c-1.71-.71-3.5-1.16-5.32-1.46-3.08-.51-6.17-.65-9.28-.19-1.15.17-2.18.72-3.25,1.13-.48-.08-.49-.58-.76-.85,0-.36-.25-.63-.34-.97-.97-3.67-.9-7.34.21-10.95,1.47-4.79,4.53-8.42,8.69-11.11,2.36-1.52,4.97-2.4,7.83-2.4.63,0,1.23.28,1.86.21.32.09.58.28.83.49,1.02.88,1.87,1.91,2.69,2.97.08.24.23.43.4.61,1.21,2.09,2.16,4.28,2.43,6.71.66,5.9-.99,11-5.33,15.14-.23.22-.29.6-.66.67Z"/><path class="cls-8" d="M221.32,56.22c-.19.53-.65.86-1,1.27-.64.76-1.3,1.5-1.9,2.29-.55.74-.38,1.29.48,1.57,2.64.87,5.37,1.39,8.06,2.05.29.07.58.16.88.23,1.02.23,1.15.58.54,1.48-.08.12-.15.24-.23.36-1.09.73-1.76,1.84-2.49,2.88-.35.5-.59.67-1.24.47-2.44-.75-4.96-.97-7.5-1.01-.15-.98-.12-1.95.21-2.88.19-.51.04-.69-.47-.67-.03-.24-.16-.38-.41-.35-1.25.14-2.45-.26-3.69-.26-1.98.01-3.92.28-5.84.67-1.29.26-2.59.5-3.79,1.07-.25.12-.49.23-.43.57-.15.05-.31.11-.46.14-1.92.49-3.85.97-5.77,1.45-.39-.26-.71-.61-1.01-.96-1.05-1.24-.62-2.44.33-3.43,1.89-1.97,4.09-3.53,6.66-4.5.63-.24,1.09-.79,1.78-.89.2-.04.4-.07.6-.11,3.05-.57,6.06-1.39,9.19-1.57,1.97-.11,3.94-.24,5.91-.18.54.02,1.09.06,1.61.27Z"/><path class="cls-8" d="M222.07,98.97c-.02-.45.15-.86.42-1.17.33-.38.26-.64.02-1.01-1.67-2.46-3.48-4.77-6.38-5.91-.17-.07-.32-.17-.48-.26-1.16-.68-1.47-1.8-.82-2.97.58-1.06,1.3-2.02,2.23-2.8.21-.17.32-.34.26-.67-.5-2.87-.46-5.74.12-8.6.28-1.38.69-2.71,1.31-3.98,1.52.03,3.03.25,4.54.39.38.03.49.21.35.61-.83,2.34-1.23,4.76-1.07,7.24.3,4.68,1.9,8.78,5.48,11.96.33.3.72.53,1.05.83.6.53.58.77-.08,1.21-1.06.71-2.13,1.41-3.24,2.05-1.32.77-2.55,1.66-3.46,2.93-.06.09-.13.15-.25.15Z"/><path class="cls-2" d="M247.12,65.33c-.64.07-1.23-.21-1.86-.21-2.86,0-5.47.89-7.83,2.4-4.16,2.68-7.22,6.32-8.69,11.11-1.1,3.61-1.18,7.28-.21,10.95.09.33.33.61.34.97-.63-.35-.94-.98-1.34-1.53-1.76-2.41-2.85-5.1-3.26-8.05-.67-4.91.48-9.35,3.63-13.22.36-.44.74-.86,1.11-1.29.21-.11.37-.28.5-.48.49-.35.97-.72,1.47-1.06,2.19-1.51,4.6-2.35,7.25-2.5,2.26-.13,4.4.36,6.43,1.3.89.41,1.8.82,2.46,1.6Z"/><path class="cls-3" d="M187.42,157c-1.75,1.51-3.58,2.95-4.99,4.81-.1.13-.24.23-.23.41-.25.09-.48,0-.71-.05-2.95-.65-5.87-1.4-8.72-2.41-.33-.12-.67-.33-1.05-.12-.21-.1-.42-.13-.64-.05-.25-.22-.1-.44.01-.65.57-1.09,1.4-1.94,2.47-2.54,1.09-.62,2.2-1.23,3.3-1.84.43-.24.87-.5,1.15-.89.31-.44.5-.3.82-.03,1.09.91,2.35,1.51,3.71,1.9,1.5.43,3.01.85,4.51,1.28.13.04.29.03.37.18Z"/><path class="cls-3" d="M196.27,67.57c1.93-.48,3.85-.97,5.77-1.45.16-.04.31-.1.46-.14.26.03.52.02.78-.05,3.77-1.02,7.6-1.59,11.53-1.49.61.02,1.26.05,1.86-.17.51-.02.65.16.47.67-.34.93-.36,1.91-.21,2.88-1.34.07-2.69.08-4.02.23-2.18.24-4.36.59-6.4,1.45-.45.19-1.01.32-.99,1-.62.16-1.27.22-1.8.62-.19.05-.36-.01-.52-.12-1.13-.74-2.42-1.12-3.67-1.6-1.19-.45-2.3-1.01-3.27-1.83Z"/><path class="cls-6" d="M251.61,96.54c.03.3-.13.2-.3.15-1.53-.47-3.06-.94-4.64-1.21-3.8-.64-7.62-1.07-11.48-.56-1.69.22-3.36.61-5.02,1.01-.16.04-.3.12-.58.02,1.99-1.53,4.1-2.72,6.41-3.53.2.49.61.46,1.02.42,1.85-.2,3.7-.33,5.55.06.41.09.66-.08.37-.54.67-.29,1.35.02,2.02.03.78.02,1.56.17,2.34.27.28,1.43,1.25,2.21,2.5,2.79.63.29,1.2.72,1.8,1.08Z"/><path class="cls-8" d="M203.72,71.11c.53-.4,1.19-.46,1.8-.62.25.13.49.11.76.03,2.16-.56,4.35-.98,6.57-1.2,2.11-.21,4.25-.41,6.38-.26,1.65.12,3.31.23,4.93.68.43.12.56.26.34.66-.07.12-.12.26-.16.4-.14.47-.39.61-.9.46-1.13-.32-2.3-.48-3.47-.61-.71-.08-1.42,0-2.11.2.02-.1.06-.19.07-.29.09-.87.07-.91-.79-.89-2.63.05-5.22.37-7.74,1.13-1.53.46-3.12.71-4.62,1.29-.31-.37-.9-.44-1.06-.97Z"/><path class="cls-6" d="M185.15,151.99c-.05,1.05-.11,2.1-.16,3.15-1.95-.64-3.89-1.28-5.58-2.51-.17-.12-.33-.24-.29-.49.1-.69.08-1.37-.1-2.14,2.01.81,4.01,1.31,5.99,1.88.05.02.09.07.14.11Z"/><path class="cls-6" d="M221.32,56.22c-.51-.22-1.06-.26-1.61-.27-1.97-.07-3.94.06-5.91.18-3.12.18-6.13,1.01-9.19,1.57-.2.04-.4.07-.6.11.29-.25.61-.45.96-.59.6-.25,1.01-.73,1.43-1.19.25.25.57.23.86.18.78-.13,1.55-.3,2.32-.45,2.66-.29,5.34-.36,8.02-.38,1.26,0,2.52.08,3.78.13.18,0,.36.05.58.09-.15.31-.31.55-.64.63Z"/><path class="cls-3" d="M219.09,60.36c.68-.73,1.34-1.42,1.98-2.12,3.99-4.43,7.99-8.86,11.96-13.3.35-.4.61-.48,1.12-.26,9.48,4.05,18.94,8.17,28.47,12.1.09.04.17.08.36.17-3.28,2.35-6.58,4.52-9.85,7.01.1-1.23.4-2.25.65-3.26.32-1.26.16-2.41-.71-3.37-.96-1.06-2.09-1.92-3.43-2.49-2.06-.89-4.25-1.05-6.44-1.2-3.53-.25-6.8.79-10.01,2.07-1.09.43-1.93,1.22-2.69,2.06-.4.44-.39,1.1-.52,1.67-.26,1.05-.52,2.09-.84,3.12-.09.29-.18.4-.51.29-3.03-1.04-6.23-1.4-9.27-2.37-.07-.02-.14-.05-.27-.1Z"/><path class="cls-3" d="M236.44,55.7c1.14-.54,2.36-.77,3.59-.92,2.73-.34,5.43-.16,8.08.68,1.6.5,2.94,1.39,4.08,2.57.76.79,1.06,1.7.7,2.84-.6,1.9-1.09,3.83-1.49,5.78-1.22-1.36-2.83-2.32-3.94-3.8-.23-.31-.48-.61-.76-.87-2.99-2.79-6.28-5.09-10.25-6.28Z"/><path class="cls-8" d="M236.44,55.7c3.97,1.19,7.26,3.5,10.25,6.28.28.26.53.56.76.87,1.11,1.48,2.72,2.44,3.94,3.8-.23.21.06.67-.38.77-.06-.11-.09-.22-.17-.32-1.75-2.17-3.84-3.89-6.43-4.96-2.41-.99-4.92-1.35-7.5-1.03-2.58.32-4.93,1.28-7.05,2.79.11-.47.18-.96.34-1.41.32-.94.48-1.91.64-2.89.16-.97.68-1.66,1.51-2.24,1.25-.87,2.68-1.22,4.08-1.66Z"/><path class="cls-7" d="M229.87,63.91c2.12-1.52,4.47-2.47,7.05-2.79,2.58-.32,5.09.04,7.5,1.03,2.59,1.07,4.68,2.8,6.43,4.96.07.09.11.21.17.32-.09.47-.14.94-.38,1.37-.83-1.05-1.67-2.09-2.69-2.97-.25-.21-.51-.41-.83-.49-.66-.78-1.57-1.19-2.46-1.6-2.03-.94-4.17-1.43-6.43-1.3-2.66.15-5.07.99-7.25,2.5-.5.34-.98.71-1.47,1.06.17-.68.45-1.35.36-2.08Z"/><path class="cls-6" d="M266.72,75.99c.02.09.02.18-.06.24-.04,0-.09-.03-.12-.01-.44.33-.74.23-1.16-.16-.34-.31-.39.23-.52.58-.42-.43-.81-.81-1.17-1.23-.47-.56-.22-1.18,0-1.73.28-.75,1.06-1.03,1.66-1.45.39-.27,1.19.22,1.51.86.25.5.45,1.04.68,1.56-.01.08-.02.15-.03.23-.04-.02-.08-.02-.11-.05-.18-.13-.34-.45-.6-.25-.32.24.01.46.1.68-.08.08-.16.16-.23.24-.24.19-.1.34.06.49Z"/><path class="cls-6" d="M262.94,73.53c-.16-.85.4-1.36.87-1.89.13-.15.43-.1.64-.02.27.09.3.32.06.43-.69.32-1.09.92-1.57,1.49Z"/><path class="cls-7" d="M267.51,74.88c.01-.08.02-.15.03-.23.34.13.38.44.46.73-.3-.03-.45-.21-.49-.5Z"/><path class="cls-7" d="M268.61,75.97s-.08.02-.11.03c-.16,0-.25-.08-.25-.24.17,0,.34-.02.36.22Z"/><path class="cls-7" d="M268.24,75.75c-.25,0-.24-.18-.24-.36.25,0,.24.18.24.36Z"/><path class="cls-7" d="M266.66,75.51c.08-.08.16-.16.23-.24.18.33-.11.21-.23.24Z"/><path class="cls-7" d="M268.47,76.81l-.05.17c-.08-.02-.16-.06-.13-.15.04-.1.11-.08.18-.02Z"/><path class="cls-7" d="M269.95,77.28s-.08-.04-.12-.06c.04.02.08.04.12.06Z"/><path class="cls-10" d="M115.38,114.72c-.01.24-.01.49-.05.73-.02.15-.14.25-.3.25-.17,0-.28-.08-.28-.25,0-.43,0-.85.05-1.28.02-.16.09-.4.33-.37.24.03.23.25.23.43,0,.16,0,.33,0,.49,0,0,0,0,.01,0Z"/><path class="cls-7" d="M229.64,144.13c-.21-.38-.62-.25-.92-.29-2.12-.3-4.14-1-6.2-1.53-.48-.12-.88-.4-1.21-.78-.08-.09-.16-.21-.05-.32.1-.1.18,0,.26.06.93.63,2.04.6,3.08.83,1.35.48,2.76.67,4.16.89,2.77.45,5.54,1,8.35,1.07,5.66.13,11.22-.41,16.42-2.9.17-.08.43-.33.57-.02.12.25-.2.3-.35.42-2.16,1.69-4.75,2.23-7.36,2.73-3.39.66-6.83.8-10.26.61-1.92-.11-3.83-.46-5.73-.76-.28-.04-.51.08-.76,0Z"/><path class="cls-10" d="M238.86,173.2c-.34-.12-.69-.06-1.03-.06-3.37,0-6.71-.38-10.05-.83-2.79-.38-5.55-.94-8.36-1.14-2.7-.19-5.34-.67-7.92-1.47-.17-.05-.35-.11-.3-.31.06-.25.29-.18.46-.14,1.18.27,2.36.59,3.57.73.82.1,1.65.16,2.48.24,4.19.39,8.34,1.11,12.51,1.63,2.97.37,5.95.49,8.94.65,2.22.12,4.43.07,6.65.15.22,0,.64-.12.65.21,0,.34-.4.24-.65.25-2.31.16-4.63.21-6.95.08Z"/><path class="cls-10" d="M230.61,164.33c-.72-.2-1.47-.2-2.21-.21-1.97-.03-3.94.02-5.9-.17-1.53-.14-3.06-.29-4.57-.59-.19-.04-.48-.04-.46-.28.02-.25.31-.2.5-.2.67,0,1.34,0,2.01-.01.67.19,1.37.16,2.05.2,2.27.13,4.55.17,6.82.27,2.7.12,5.39.25,8.09.39.13,0,.33-.04.33.16,0,.22-.22.18-.37.21-2.09.45-4.21.17-6.31.25Z"/><path class="cls-7" d="M255.45,172.17c-.11.03-.22.03-.24-.1-.03-.18.13-.24.26-.28.82-.24,1.63-.5,2.46-.69,3.38-.79,6.71-1.78,10.02-2.82.39-.12.78-.21,1.17-.33.17-.05.33-.1.41.1.08.19-.06.31-.2.4-.21.12-.43.23-.66.32-4.08,1.52-8.23,2.79-12.58,3.27-.22.02-.43.09-.65.14Z"/><path class="cls-7" d="M251.17,162.18c.42-.14.83-.32,1.26-.4,1.88-.34,3.72-.81,5.63-1.01.84-.09,1.68-.28,2.51-.43.16-.03.35-.08.4.13.04.18-.16.23-.28.26-2.51.66-5.02,1.34-7.62,1.51-.62.04-1.23.22-1.9-.06Z"/><path class="cls-10" d="M222.26,116.22c-2.4-.02-4.8.06-7.2,0-4.9-.11-9.8-.27-14.69-.61-1.5-.1-3.01-.11-4.51-.14-.66-.01-1.3-.1-1.93-.26-.25-.07-.45-.18-.54-.44.23-.24.51-.3.83-.29,1.67.01,3.34-.05,5.01.03,3.26.16,6.52.41,9.79.5.95.03,1.91.05,2.86.09,3.03.13,6.06.19,9.09.09,1.96-.06,3.93-.12,5.88-.44.62-.1,1.2.16,1.8.22.08,0,.18.04.17.14,0,.16-.13.26-.25.32-.54.26-1.13.34-1.71.39-1.53.15-3.07.27-4.6.4Z"/><path class="cls-10" d="M212.48,125.27c-2.48-.13-4.95-.24-7.43-.4-1.5-.1-2.99-.27-4.49-.4-1.76-.15-3.53-.12-5.29-.34-.66-.08-1.34-.09-1.97-.35-.2-.08-.39-.18-.34-.43.06-.29.31-.22.5-.2,2.55.3,5.12.12,7.67.33,1.68.14,3.36.36,5.05.37.57,0,1.13-.06,1.7-.09.37.24.8.23,1.21.24,1.97.06,3.95,0,5.91.17,1.96.18,3.89-.07,5.84-.06.57,0,1.12.17,1.7.14.15,0,.3.04.32.21.03.18-.12.24-.26.29-.49.2-1.03.32-1.54.31-2.12-.04-4.21.33-6.32.28-.75-.02-1.49-.21-2.25-.09Z"/><path class="cls-10" d="M171.72,159.64c.38-.21.72,0,1.05.12,2.85,1.01,5.77,1.76,8.72,2.41.24.05.47.14.71.05.69.29,1.44.35,2.16.49,1.92.4,3.86.78,5.8,1.05,2.03.28,4.02.82,6.08.83.43,0,.86.1,1.29.22-.39.15-.79.23-1.2.25-1.96.1-3.88-.24-5.81-.44-2.12-.22-4.22-.53-6.31-.91-3.89-.71-7.8-1.39-11.41-3.13-.43-.21-1.01-.29-1.08-.94Z"/><path class="cls-7" d="M215.19,71.27c-1.34.24-2.55.46-3.76.68-.13.02-.29.07-.37-.11-.06-.14.01-.26.13-.3,1.19-.41,2.37-.87,3.67-.53.09.02.15.11.34.26Z"/><path class="cls-7" d="M242.95,92.37c.28.46.04.63-.37.54-1.85-.39-3.7-.26-5.55-.06-.41.04-.83.07-1.02-.42,0-.49.39-.52.71-.6,2.03-.49,4.01-.28,5.95.45.09.04.19.06.29.09Z"/><path class="cls-7" d="M216.67,64.26c-.6.23-1.25.19-1.86.17-3.92-.1-7.75.47-11.53,1.49-.26.07-.52.08-.78.05-.06-.34.18-.46.43-.57,1.2-.57,2.51-.81,3.79-1.07,1.93-.38,3.87-.66,5.84-.67,1.24,0,2.45.39,3.69.26.24-.03.38.11.41.35Z"/></svg>