<svg width="41" height="23" viewBox="0 0 41 23" fill="none" xmlns="http://www.w3.org/2000/svg">
<path d="M20.4728 11.5717L2.82208 6.47471C2.20509 6.29654 2.20509 5.42233 2.82208 5.24416L20.4728 0.147148C20.5892 0.113541 20.7127 0.11363 20.8291 0.147403L38.3854 5.24441C39.0013 5.4232 39.0013 6.29567 38.3854 6.47445L20.8291 11.5715C20.7127 11.6052 20.5892 11.6053 20.4728 11.5717Z" fill="#F5E2A0"/>
<path d="M34.5276 18.0858V11.6069C34.5276 11.1849 34.1267 10.8783 33.7195 10.9888L20.9297 14.4589C20.8178 14.4892 20.6997 14.4886 20.5881 14.4571L8.33782 10.9994C7.92916 10.884 7.52344 11.1911 7.52344 11.6157V18.2606C7.52344 18.387 7.55717 18.5116 7.64691 18.6007C8.98373 19.9273 16.88 22.4037 20.7587 22.4037C24.8305 22.4037 30.8272 20.5013 34.2067 18.6361C34.4066 18.5258 34.5276 18.314 34.5276 18.0858Z" fill="#F5E2A0"/>
<rect x="37.9414" y="5.75195" width="0.640415" height="5.76373" fill="#F5E2A0"/>
<path d="M36.8203 11.7627L38.2778 10.791L39.7353 11.7627L38.2778 14.9206L36.8203 11.7627Z" fill="#F5E2A0"/>
</svg>
