<svg width="39" height="40" viewBox="0 0 39 40" fill="none" xmlns="http://www.w3.org/2000/svg">
<path d="M19.7247 35.0378L11.6268 35.0768L11.6312 32.769L10.4184 31.7216L10.2843 29.5847C15.4541 26.0399 17.0348 23.3515 16.7629 18.0609C13.4811 18.0768 13.9541 17.9395 12.6238 17.0276C14.563 15.5934 15.3386 15.304 16.4705 15.2123C11.877 13.0505 11.6198 4.62574 19.5161 4.58776C27.4124 4.54966 27.3138 12.9916 22.7414 15.1975C23.8741 15.2783 24.6524 15.5602 26.6054 16.9756C25.284 17.9003 25.7582 18.033 22.4764 18.0488C22.2556 23.3417 23.862 26.0148 29.0658 29.5097L28.9522 31.6477L27.7496 32.7067L27.7762 35.0145L19.7247 35.0378Z" fill="#F5E2A0"/>
</svg>
