<svg width="39" height="32" viewBox="0 0 39 32" fill="none" xmlns="http://www.w3.org/2000/svg">
<path d="M9.77549 31.1179L1.67763 31.1569L1.68199 28.849L0.469207 27.8016L0.335043 25.6648C5.50493 22.12 7.08555 19.4315 6.81371 14.1409C3.53189 14.1568 4.00487 14.0196 2.67455 13.1076C4.61381 11.6735 5.38937 11.3841 6.52128 11.2924C1.9278 9.13059 1.67058 0.705818 9.56687 0.66784C17.4632 0.629741 17.3646 9.07165 12.7922 11.2776C13.9249 11.3584 14.7032 11.6403 16.6562 13.0557C15.3347 13.9804 15.809 14.1131 12.5272 14.1288C12.3063 19.4218 13.9128 22.0949 19.1166 25.5898L19.003 27.7278L17.8004 28.7868L17.827 31.0945L9.77549 31.1179Z" fill="#F5E2A0"/>
<path d="M28.7052 31.2976L20.6073 31.3366L20.6117 29.0287L19.3989 27.9813L19.2647 25.8445C24.4346 22.2997 26.0152 19.6112 25.7434 14.3206C22.4616 14.3365 22.9346 14.1993 21.6042 13.2873C23.5435 11.8532 24.3191 11.5638 25.451 11.4721C20.8575 9.31027 20.6003 0.885505 28.4966 0.847527C36.3928 0.809429 36.2943 9.25134 31.7219 11.4573C32.8546 11.5381 33.6329 11.82 35.5859 13.2354C34.2644 14.1601 34.7387 14.2928 31.4569 14.3085C31.236 19.6015 32.8425 22.2746 38.0463 25.7695L37.9327 27.9075L36.7301 28.9665L36.7567 31.2742L28.7052 31.2976Z" fill="#F5E2A0"/>
</svg>
