<svg width="69" height="77" viewBox="0 0 69 77" fill="none" xmlns="http://www.w3.org/2000/svg">
<path d="M3.32422 42.3399V5.42804C3.32422 3.89938 4.56344 2.66016 6.09209 2.66016H62.8336C64.3623 2.66016 65.6015 3.89938 65.6015 5.42804V42.3399C65.6015 43.074 65.3099 43.778 64.7908 44.2971L36.42 72.6678C35.3391 73.7487 33.5866 73.7487 32.5057 72.6678L4.13491 44.2971C3.61583 43.778 3.32422 43.074 3.32422 42.3399Z" stroke="#282828" stroke-width="5.25897"/>
<path fill-rule="evenodd" clip-rule="evenodd" d="M9.97266 8.74609V40.3184L34.0532 64.3989L58.1338 40.3184V8.74609H9.97266ZM33.7221 50.5113C33.7303 50.5211 33.7385 50.5309 33.7471 50.5406C33.761 50.5406 33.7749 50.5406 33.788 50.5423C33.7965 50.5326 33.8047 50.5228 33.8129 50.513C33.829 50.4939 33.845 50.4749 33.8628 50.457C34.4757 49.844 35.0885 49.231 35.7013 48.6181C36.9266 47.3923 38.1518 46.1667 39.3774 44.9415C39.3972 44.9211 39.4195 44.9028 39.4417 44.8845C39.4517 44.8763 39.4617 44.8681 39.4714 44.8597C37.6495 43.0113 37.8619 40.3611 39.2703 38.7809C40.9704 36.8742 43.903 36.7654 45.7293 38.5981C45.7386 38.5877 45.7477 38.577 45.7568 38.5664C45.775 38.5451 45.7932 38.5238 45.8129 38.5041C47.7689 36.5469 49.7248 34.5906 51.6817 32.6343C51.7 32.6154 51.7204 32.5982 51.7405 32.5812C51.7492 32.574 51.7578 32.5667 51.7661 32.5594V32.5176C51.7566 32.5092 51.7468 32.501 51.737 32.4927C51.7175 32.4763 51.698 32.4598 51.68 32.4418C49.8415 30.6039 48.003 28.7652 46.1654 26.9264C46.1446 26.9055 46.1267 26.8825 46.1089 26.8594C46.1014 26.8498 46.0939 26.8401 46.0862 26.8306C44.2521 28.6398 41.611 28.4535 40.0137 27.0396C38.1439 25.3836 37.9524 22.4487 39.797 20.5995C39.124 19.9264 38.451 19.2534 37.7783 18.5807C36.4357 17.2381 35.0945 15.8969 33.7584 14.5599L28.0819 20.2373C29.7977 21.9699 29.7576 24.5844 28.2865 26.2682C27.4587 27.2163 26.3967 27.7387 25.1406 27.79C23.8523 27.8432 22.7345 27.3965 21.8258 26.5006L15.7837 32.5437L21.4662 38.2272C23.303 36.4154 25.9606 36.6374 27.5353 38.0487C29.4469 39.7621 29.5278 42.6953 27.7102 44.5019C27.7217 44.5121 27.7333 44.5221 27.7448 44.5321C27.7674 44.5516 27.7899 44.5711 27.8112 44.5924C28.7879 45.5697 29.7648 46.5468 30.7417 47.5238C31.7186 48.5009 32.6955 49.478 33.6722 50.4553C33.6901 50.4731 33.706 50.4921 33.7221 50.5113Z" fill="#282828"/>
</svg>
