<svg width="55" height="89" viewBox="0 0 55 89" fill="none" xmlns="http://www.w3.org/2000/svg">
<path fill-rule="evenodd" clip-rule="evenodd" d="M50.8321 88.1477L27.5609 88.1031V81.4328L50.7873 81.4774L50.8321 88.1477ZM4.20025 81.4328H27.5609L27.3819 0.0917969C4.5591 0.091622 5.18524 24.4449 18.4315 30.757C15.1587 31.0063 12.9131 31.8319 7.28816 35.95C7.92137 36.3885 8.41258 36.7653 8.83421 37.0887C10.9644 38.7225 11.3188 38.9944 19.237 38.9941C19.949 54.2891 15.3432 62.0374 0.351562 72.2109L0.70958 78.3887L4.20025 81.4328Z" fill="#F5E2A0"/>
<path d="M27.5609 81.4328L50.7873 81.4774L54.278 78.4333L54.636 72.2555C39.6444 62.082 35.0385 54.3337 35.7506 39.0387C45.2361 39.039 43.8671 38.6488 47.6994 35.9946C42.0745 31.8765 39.8289 31.0509 36.5561 30.8016C49.8023 24.4895 50.2047 0.091622 27.3819 0.0917969L27.5609 81.4328Z" fill="#F5E2A0"/>
<path d="M27.5609 81.4328L50.7873 81.4774L54.278 78.4333L54.636 72.2555C39.6444 62.082 35.0385 54.3337 35.7506 39.0387C45.2361 39.039 43.8671 38.6488 47.6994 35.9946C42.0745 31.8765 39.8289 31.0509 36.5561 30.8016C49.8023 24.4895 50.2047 0.091622 27.3819 0.0917969L27.5609 81.4328Z" fill="#282828"/>
<path d="M4.1555 88.1031H27.5609V81.4328H4.20025L4.1555 88.1031Z" fill="#F5E2A0"/>
<path d="M4.1555 88.1031H27.5609V81.4328H4.20025L4.1555 88.1031Z" fill="#282828"/>
</svg>
