<svg width="56" height="89" viewBox="0 0 56 89" fill="none" xmlns="http://www.w3.org/2000/svg">
<path d="M28.0883 88.3355H4.68285L4.7276 81.6653L1.23692 78.6211L0.878906 72.4433C15.8705 62.2698 20.4764 54.5215 19.7643 39.2265C10.2788 39.2268 11.6478 38.8367 7.8155 36.1824C13.4404 32.0643 15.686 31.2388 18.9588 30.9895C5.71258 24.6773 5.08644 0.324044 27.9092 0.324219C50.7321 0.324044 50.3297 24.7219 37.0835 31.034C40.3562 31.2833 42.6018 32.1089 48.2268 36.227C44.3945 38.8813 45.7634 39.2714 36.2779 39.2711C35.5659 54.5661 40.1717 62.3144 55.1633 72.4879L54.8053 78.6657L51.3147 81.7098L51.3594 88.3801L28.0883 88.3355Z" fill="#F5E2A0"/>
</svg>
