<svg width="55" height="89" viewBox="0 0 55 89" fill="none" xmlns="http://www.w3.org/2000/svg">
<path d="M27.7836 88.3355H4.37816L4.42291 81.6653L0.932237 78.6211L0.574219 72.4433C15.5658 62.2698 20.1717 54.5215 19.4597 39.2265C9.97415 39.2268 11.3431 38.8367 7.51081 36.1824C13.1357 32.0643 15.3813 31.2388 18.6541 30.9895C5.40789 24.6773 4.78176 0.324044 27.6046 0.324219C50.4274 0.324044 50.025 24.7219 36.7788 31.034C40.0515 31.2833 42.2971 32.1089 47.9221 36.227C44.0898 38.8813 45.4587 39.2714 35.9732 39.2711C35.2612 54.5661 39.867 62.3144 54.8587 72.4879L54.5006 78.6657L51.01 81.7098L51.0547 88.3801L27.7836 88.3355Z" fill="#282828"/>
</svg>
