<svg width="50" height="57" viewBox="0 0 50 57" fill="none" xmlns="http://www.w3.org/2000/svg">
<path fill-rule="evenodd" clip-rule="evenodd" d="M0.882812 0.744141V32.3164L24.9634 56.397L49.0439 32.3164V0.744141H0.882812ZM24.6323 42.5093C24.6405 42.5191 24.6487 42.5289 24.6572 42.5386C24.6712 42.5386 24.6851 42.5386 24.6981 42.5404C24.7067 42.5307 24.7149 42.5209 24.7231 42.5111C24.7392 42.4919 24.7551 42.4729 24.773 42.4551C25.3859 41.8421 25.9987 41.2291 26.6114 40.6161C27.8368 39.3904 29.062 38.1648 30.2875 36.9396C30.3073 36.9192 30.3296 36.9008 30.3519 36.8825C30.3618 36.8743 30.3718 36.8661 30.3815 36.8577C28.5596 35.0094 28.772 32.3592 30.1805 30.779C31.8805 28.8723 34.8132 28.7635 36.6395 30.5961C36.6488 30.5857 36.6578 30.5751 36.6669 30.5644C36.6851 30.5431 36.7033 30.5218 36.723 30.5021C38.679 28.5449 40.635 26.5886 42.5919 24.6323C42.6101 24.6134 42.6305 24.5963 42.6507 24.5793C42.6593 24.572 42.6679 24.5648 42.6763 24.5574V24.5156C42.6667 24.5072 42.657 24.499 42.6472 24.4908C42.6277 24.4743 42.6081 24.4579 42.5901 24.4399C40.7516 22.602 38.9132 20.7632 37.0756 18.9244C37.0547 18.9036 37.0369 18.8805 37.019 18.8575C37.0115 18.8478 37.0041 18.8382 36.9964 18.8287C35.1623 20.6378 32.5212 20.4515 30.9239 19.0376C29.0541 17.3817 28.8626 14.4468 30.7071 12.5975C30.0342 11.9245 29.3611 11.2514 28.6885 10.5787C27.3459 9.23611 26.0047 7.8949 24.6685 6.55794L18.9921 12.2353C20.7078 13.9679 20.6678 16.5824 19.1967 18.2662C18.3688 19.2143 17.3068 19.7367 16.0507 19.7881C14.7624 19.8412 13.6447 19.3946 12.7359 18.4987L6.69387 24.5418L12.3764 30.2253C14.2131 28.4135 16.8707 28.6355 18.4454 30.0468C20.357 31.7602 20.438 34.6934 18.6204 36.4999C18.6319 36.5102 18.6434 36.5202 18.6549 36.5301C18.6775 36.5497 18.7 36.5691 18.7214 36.5905C19.6981 37.5677 20.675 38.5448 21.6519 39.5219C22.6288 40.499 23.6057 41.476 24.5824 42.4533C24.6002 42.4712 24.6162 42.4902 24.6323 42.5093Z" fill="#282828"/>
</svg>
