<svg width="69" height="92" viewBox="0 0 69 92" fill="none" xmlns="http://www.w3.org/2000/svg">
<path d="M3.73828 54.3399V17.428C3.73828 15.8994 4.9775 14.6602 6.50616 14.6602H63.2477C64.7763 14.6602 66.0156 15.8994 66.0156 17.428V54.3399C66.0156 55.074 65.724 55.778 65.2049 56.2971L36.8341 84.6678C35.7532 85.7487 34.0007 85.7487 32.9197 84.6678L4.54897 56.2971C4.0299 55.778 3.73828 55.074 3.73828 54.3399Z" stroke="#282828" stroke-width="5.25897"/>
<rect x="6.23047" y="0.818359" width="57.0183" height="7.47327" fill="#282828"/>
<rect x="0.695312" y="0.818359" width="3.87503" height="7.47327" fill="#282828"/>
<rect x="64.9062" y="0.818359" width="3.87503" height="7.47327" fill="#282828"/>
<rect x="2.63281" y="56.7285" width="3.87503" height="7.47327" rx="1.93752" fill="#282828"/>
<rect x="8.44531" y="63.373" width="3.87503" height="7.47327" rx="1.93752" fill="#282828"/>
<rect x="14.2578" y="68.9082" width="3.87503" height="7.47327" rx="1.93752" fill="#282828"/>
<rect x="20.3477" y="74.7207" width="3.87503" height="7.47327" rx="1.93752" fill="#282828"/>
<rect x="26.1602" y="80.5332" width="3.87503" height="7.47327" rx="1.93752" fill="#282828"/>
<rect x="32.8047" y="84.1309" width="3.87503" height="7.47327" rx="1.93752" fill="#282828"/>
<rect x="39.4453" y="80.5332" width="3.87503" height="7.47327" rx="1.93752" fill="#282828"/>
<rect x="45.2578" y="74.7207" width="3.87503" height="7.47327" rx="1.93752" fill="#282828"/>
<rect x="50.7969" y="68.9082" width="3.87503" height="7.47327" rx="1.93752" fill="#282828"/>
<rect x="56.6094" y="63.373" width="3.87503" height="7.47327" rx="1.93752" fill="#282828"/>
<rect x="63.25" y="56.7285" width="3.87503" height="7.47327" rx="1.93752" fill="#282828"/>
<path fill-rule="evenodd" clip-rule="evenodd" d="M10.3867 20.7461V52.3184L34.4673 76.3989L58.5478 52.3184V20.7461H10.3867ZM34.1362 62.5113C34.1444 62.5211 34.1526 62.5309 34.1611 62.5406C34.1689 62.5406 34.1767 62.5406 34.1843 62.5409C34.1904 62.5411 34.1963 62.5416 34.202 62.5423C34.2106 62.5326 34.2188 62.5228 34.227 62.5131C34.2431 62.4939 34.259 62.4749 34.2769 62.457C34.8898 61.844 35.5026 61.231 36.1154 60.6181C37.3407 59.3923 38.5659 58.1667 39.7914 56.9415C39.8113 56.9211 39.8336 56.9028 39.8558 56.8845C39.8658 56.8763 39.8757 56.8681 39.8855 56.8597C38.0635 55.0113 38.2759 52.3611 39.6844 50.7809C41.3844 48.8742 44.3171 48.7654 46.1434 50.5981C46.1527 50.5877 46.1617 50.577 46.1708 50.5664C46.189 50.5451 46.2072 50.5238 46.2269 50.5041C48.1829 48.5469 50.1389 46.5906 52.0958 44.6343C52.114 44.6154 52.1344 44.5982 52.1546 44.5812C52.1632 44.574 52.1718 44.5667 52.1802 44.5594V44.5176C52.1706 44.5092 52.1609 44.5009 52.1511 44.4927C52.1315 44.4763 52.112 44.4598 52.094 44.4418C50.2556 42.6039 48.4171 40.7652 46.5795 38.9264C46.5586 38.9055 46.5408 38.8825 46.5229 38.8594C46.5154 38.8497 46.508 38.8401 46.5003 38.8306C44.6662 40.6398 42.0251 40.4535 40.4278 39.0396C38.558 37.3836 38.3665 34.4487 40.211 32.5995C39.5377 31.9261 38.8643 31.2526 38.1913 30.5796C36.849 29.2373 35.5082 27.8965 34.1725 26.5599L28.496 32.2373C30.2117 33.9699 30.1717 36.5844 28.7006 38.2682C27.8727 39.2163 26.8107 39.7387 25.5546 39.79C24.2663 39.8432 23.1486 39.3965 22.2398 38.5006L16.1978 44.5437L21.8803 50.2272C23.717 48.4154 26.3746 48.6374 27.9493 50.0487C29.8609 51.7621 29.9419 54.6953 28.1243 56.5019C28.1358 56.5121 28.1473 56.5221 28.1588 56.5321C28.1815 56.5516 28.2039 56.5711 28.2253 56.5924C29.2025 57.5702 30.1799 58.5478 31.1574 59.5254C32.1337 60.502 33.1101 61.4785 34.0863 62.4553C34.1041 62.4731 34.1201 62.4921 34.1362 62.5113Z" fill="#282828"/>
</svg>
