<svg width="29" height="45" viewBox="0 0 29 45" fill="none" xmlns="http://www.w3.org/2000/svg">
<path d="M14.4796 44.169H2.75679L2.77921 40.8281L1.03088 39.3035L0.851562 36.2093C8.36023 31.1138 10.6671 27.233 10.3105 19.5724C5.55959 19.5725 6.24523 19.3771 4.32581 18.0477C7.1431 15.9851 8.26782 15.5717 9.90701 15.4468C3.27254 12.2853 2.95894 0.087803 14.3899 0.0878906C25.8209 0.087803 25.6193 12.3077 18.9849 15.4691C20.6241 15.594 21.7488 16.0075 24.5661 18.0701C22.6467 19.3995 23.3323 19.5949 18.5814 19.5947C18.2248 27.2553 20.5317 31.1361 28.0403 36.2316L27.861 39.3258L26.1127 40.8505L26.1351 44.1913L14.4796 44.169Z" fill="#E64734"/>
</svg>
