<?xml version="1.0" encoding="UTF-8"?><svg id="Capa_1" xmlns="http://www.w3.org/2000/svg" width="985.66mm" height="985.66mm" viewBox="0 0 2794 2794"><defs><style>.cls-1{fill:#f1da92;}.cls-1,.cls-2,.cls-3,.cls-4,.cls-5,.cls-6,.cls-7,.cls-8,.cls-9,.cls-10,.cls-11,.cls-12{stroke-width:0px;}.cls-2{fill:#f8e096;}.cls-3{fill:#1a1917;}.cls-4{fill:#e9d38e;}.cls-5{fill:#121211;}.cls-6{fill:#dbc686;}.cls-7{fill:#f5de95;}.cls-8{fill:#f6de95;}.cls-9{fill:#534e3d;}.cls-10{fill:#524d3c;}.cls-11{fill:#514c3b;}.cls-12{fill:#eed790;}</style></defs><path class="cls-3" d="M747.8,1376.94c.67-165.64,1.41-331.27,2-496.91.66-183.97,1.16-367.95,1.77-551.92.16-48.33.45-96.65.71-144.98.08-15.39,5.11-20.69,20.89-21.54,40.29-2.15,80.63-1.56,120.95-2.1,188.63-2.53,377.28-.25,565.92-1.28,134.65-.74,269.29-1.79,403.94-1.37,50.32.16,100.64-1.35,150.97-.83,6.99.07,13.99.42,20.95,1,14.14,1.17,21.03,8.46,21.83,22.87.37,6.65.59,13.32.69,19.98,2.31,154.96,1.82,309.95,2.95,464.92.71,98.32,1.1,196.63,1.67,294.95.53,90.65,1.11,181.3,1.65,271.95.59,98.31,1.12,196.63,1.76,294.94.52,81.32,1.11,162.63,1.76,243.95.52,64.32,1.14,128.64,1.79,192.96,1.06,103.98,2.3,207.95,3.25,311.93.87,95.65,2.84,191.28,2.52,286.94-.02,5.66.45,11.33.39,16.99-.08,7.69-3.35,11.55-10.98,13.02-7.23,1.39-14.59,1.31-21.92,1.44-119.97,2.11-239.96,1.88-359.94,1.15-304.95-1.86-609.9-3.8-914.86-4.68-1.33,0-2.67,0-4-.03-15.87-.23-18.74-2.78-18.78-18.55-.22-97.98-.28-195.96-.45-293.94-.51-300.29,1.17-600.58,2.59-900.87ZM961.88,1338.33c.1,6.35,3.85,11.07,7.09,16.03,3.25,4.99,6.4,10,6.96,16.21,1.02,11.48,1.09,11.51,12.29,11.31,2.96-.05,6.02,0,8.86-.69,4.65-1.12,7.75-4.05,6.96-9.28-1.5-9.9-4.47-19.17-12.44-26-.1-.98.12-2.17-.35-2.9-6.8-10.56-13.7-21.06-20.55-31.59-1.92-2.95-4.9-3.02-7.92-3.03-6.15-.02-12.25,1.12-20.1-.51,5.23,9.47,9.52,17.14,13.71,24.85,1.32,2.42,3.25,4.13,5.49,5.59ZM1391.29,1362.55c-23.96-.28-47.89-.24-71.86-1.51-29.55-1.57-59.16-1.86-88.82-1.04-44.9,1.24-89.88,1.65-134.74-1.59-17.93-1.29-35.9.01-53.84-2.24-10.32-1.3-21-.96-31.52.24-.42,3.92.92,6.4,3.31,8.45.14,12.93.77,12.06,11.71,10.88,14.93-1.61,29.84-2.11,44.77-1.61,9.54.32,18.94,1,28.6.37,18.57-1.22,37.3-1.1,55.91-.35,18.89.77,37.7-.79,56.57-.67,40.91.28,81.77,2.71,122.67,2.4,29.49-.23,58.93,1.96,88.38,1.73,38.95-.31,77.77,3.37,116.71,2.55,6.99-.15,13.98-.23,20.97-.43,2.9-.08,5.57-1.17,5.5-4.48-.07-3.44-1.35-6.58-5.49-7.18-.98-.14-2.01,0-2.99-.14-14.74-2.09-29.61-.88-44.41-1.48-25.56-1.04-51.16-1.29-76.74-2.22-14.9-.54-29.74-3.65-44.72-1.68ZM1266.94,1390.84c-1.66-2.01-3.91-2.21-6.32-2.26-23.98-.43-47.96-1.53-71.93-1.2-30.63.41-61.28.43-91.87,2.79-9.94.77-19.93-.19-29.92-.77-19.57-1.13-39.24-2.72-58.8.66-10.04-1.05-19.81,2.33-29.81,1.81-2.54-2.15-5.62-1.44-8.54-1.6-12.82-.72-23-5.4-27.71-18.36-2.73-7.54-2.26-15.32-.9-22.83-13.25-4.36-26.44-2.48-39.05-5.15-3.74-2-4.37-5.15-4.29-9.21.52-25.29,1.21-50.6.97-75.89-.34-36.26-1.43-72.52-2.18-108.77-.19-9.28.99-10.88,9.93-13.22,2.56-.67,5.2-1.28,7.84-1.45,16.24-1.03,32.45-2.76,48.68.7,15.76,3.36,16.32-.57,18.05,19.98,1.93,22.88,1.51,45.88,2.87,68.82,1.28,21.57,2.22,43.18,3.37,64.77.3,5.64,2.06,12.36-.29,16.73-4.15,7.69-.49,12.32,3.19,17.68,3.77,5.49,7.95,10.73,11.3,16.46,2.72,4.66,6.1,6.17,11.39,6,45.63-1.44,91.18,1.92,136.77,2.85,35.98.73,71.88-.37,107.8-1.71,24.59.75,49.19,1.24,73.78,1.95,51.55,1.47,103.17-.04,154.72,2.61,2.32.12,4.64.27,6.94.59,16.9,2.38,33.9.82,50.85,1.14,2.11.04,4.21-.73,3.64-3.43-.57-2.68-2.86-2.34-4.79-1.82-7.21,1.97-14.57,1.15-21.86,1.25-9.6.13-12.71-2.67-12.66-12.4.13-21.29-3.19-42.43-3.46-63.58-.39-30.61-3.42-61.13-2.44-91.76.36-11.34,3.57-15.76,14.62-17.83,6.5-1.22,13.02-2.35,19.74-2.41,10.61-.11,11.51-1.34,11.64-11.45,1.02-78.24.36-156.48,1.22-234.73,1.78-160.92.68-321.87.76-482.8,0-2,.06-4-.02-6-.28-6.59-1.39-8.02-8.1-8.93-21.06-2.85-41.7-7.84-62.43-12.32-44.41-9.58-88.79-19.26-133.33-28.24-37.38-7.53-74.58-15.93-111.97-23.41-46.82-9.36-93.39-19.89-140.11-29.71-12.94-2.72-25.54-7.16-38.87-8-2.54-2.59-6.04-2.59-9.24-3.34-28.84-6.85-57.95-12.7-86.44-20.78-21.41-6.07-42.93-4.14-64.46-5.13-3.48-.16-4.75,1.61-4.63,4.83.06,1.66.04,3.33.04,5,.11,103.63.47,207.26.26,310.89-.31,152.96-.98,305.92-1.57,458.87-.51,129.96-1.19,259.93-1.69,389.89-.65,172.62-1.1,345.24-1.81,517.86-.71,173.95-1.63,347.9-2.46,521.85-.04,8.99.08,18-.27,26.98-.23,5.79,2.98,6.76,7.74,5.78,3.54-.73,6.83-2.58,10.36-3.45,20.03-4.98,40.09-9.87,60.16-14.7,72.21-17.39,144.4-34.91,216.67-52.08,79.08-18.79,158.26-37.1,237.32-55.96,16.11-3.84,32.65-6.21,48.14-12.51,7.43-.06,14.29-2.93,21.43-4.39,18.2-3.73,36.28-7.99,54.47-11.74,4.28-.88,7.63-2.83,6.36-7.05-3.13-10.37.8-20.4.46-30.63-1.22-36.25-.22-72.52-1.56-108.81-1.38-37.53.36-75.2.83-112.79,1.29-102.63.1-205.29.7-307.94.65-111.25-1.87-222.52,1.62-333.77.72-22.97.21-45.99.21-68.98,0-10.16-.06-10.06-10.61-10.25-27.94-.48-55.86-.11-83.83-1.64-43.19-2.37-86.53.79-129.77-2.26-13.93-.98-27.98-.33-41.98-.29-4.97.02-10.01-.74-14.88.97ZM949.86,2526.28c.14.64.29,1.28.43,1.93,3.65,0,7.29.02,10.94,0,120.93-.88,241.87-.39,362.81-1.48,202.98-1.83,405.98-.67,608.98-.77,2.33,0,4.67.01,7-.05,3.53-.1,5.62-1.86,5.81-5.47.14-2.66.15-5.33.13-8-.22-25.61-.91-51.23-1.29-76.82-.62-42.24-2.49-84.58,1.32-126.8.7-7.76-1.8-15.13-1.82-22.82-.85-244.49.07-488.98-1.41-733.48-2.01-331.64-.51-663.31-.45-994.96,0-11.28-.75-22.58,1.36-33.86.9-4.78.46-10.05-.47-14.89-1.61-8.32-1.57-16.73-.58-24.87.97-7.99,1.24-15.9,1.26-23.86.11-52.33.15-104.66.27-156.99.04-17.06,1.58-15.37-14.62-15.22-115.6,1.04-231.2-.38-346.82,1.37-98.23,1.49-196.53,1.88-294.82-.91-78.25-2.22-156.53,2.58-234.81,1.46-13.33-.19-26.67-.07-40,0-2.37.01-4.91-.56-8.21,1.33,9.35,3.85,18.29,3.96,26.99,5.57,34.88,6.45,69.67,13.47,104.42,20.61,32.5,6.68,64.91,13.75,97.35,20.68,39.9,8.53,79.78,17.1,119.67,25.66,34.38,7.38,68.68,15.19,103.17,22.01,30.27,5.99,60.51,12.06,90.52,19.22,21.14,5.04,19.15,4.07,19.04,24.31-.99,177.27,1.51,354.55-1.81,531.81-.95,50.65-.15,101.33-.17,151.99,0,14.33-.04,28.67-.12,43-.02,3.75-.16,7.34,4.19,9.16,5.58,2.33,6.99,7.14,8.15,12.71,2.24,10.8,2.9,21.87,3.16,32.64.61,24.61,3.54,49.14,2.45,73.8-.21,4.66.19,9.34,0,14-.16,4.05,3.03,7.85,1.46,11.73-2.3,5.72.02,10.45,2.29,15.2,4.58,9.6,9.42,19.07,14.14,28.6,2.22,4.48,4.68,8.86,6.58,13.47,5.77,14.04-2.91,26.58-16.56,24.84-5.84-.74-11.87-.39-17.83,1.19-7.97,2.11-8.09,1.74-8.17,10.15-1.08,108.6.44,217.19-1.36,325.8-2.73,164.9,1.43,329.86-2.26,494.79-.92,41.26.25,82.57-2.18,123.82-.37,6.31,0,12.67-.2,19-.34,11.61-1.76,13.87-12.78,16.94-19.5,5.43-39.06,10.65-58.82,15.16-35.92,8.19-71.68,17.09-107.5,25.72-48.08,11.58-96.12,23.29-144.22,34.75-35.52,8.46-71.11,16.6-106.67,24.88-48.48,11.3-96.97,22.57-145.45,33.92-10.86,2.54-21.65,5.37-32.48,8.06ZM1986.11,1374.19c.26,0,.52,0,.77,0,0,216.32-.34,432.65.11,648.97.36,170.32.2,340.65-.78,510.97-.06,10.33.36,20.66.41,30.99.02,4.26,1.05,6.77,6.15,6.82,19,.2,37.99.87,56.98,1.15,5.61.08,6.9-1.27,5.82-6.41-2-9.59-1.42-19.26-1.48-28.88-.38-65.33-.65-130.66-.89-195.99-.61-170.66-1.09-341.31-1.79-511.97-.4-97.66-1.03-195.32-1.72-292.98-1.13-159.65-2.36-319.3-3.6-478.95-1.13-144.98-2.26-289.97-3.53-434.95-.61-69.32-.66-138.65-1.54-207.97-.95-74.66-.56-149.33-.75-223.99,0-2.33-.17-4.68.05-7,.49-5.18-2.08-6.22-6.65-5.68-13.61,1.61-27.3.96-40.96,1.19-8.56.14-8.71.14-8.52,8.78,1.22,55.32,1.12,110.64,1.13,165.97.04,206.65.55,413.31.75,619.96.13,133.33.02,266.65.02,399.98ZM772.27,1373.64c-.62,0-1.24,0-1.87,0,0,107.66.01,215.31,0,322.97-.03,243.31-1.27,486.61-3.05,729.92-.33,44.66-1.01,89.32-1.5,133.97-.08,6.87-.03,7.09,6.19,7.15,19,.18,38,.26,56.99.21,6.29-.02,6.35-.33,6.17-7.11-.27-10.66-.74-21.32-.76-31.98-.29-166.31-1.28-332.62-2.2-498.93-1.19-213.64-1.41-427.29-1.69-640.93-.47-364.63-.91-729.26.05-1093.9.05-18.99.07-37.98.85-56.98.68-16.3.23-32.66.08-48.99-.07-8.19-.5-8.52-8.46-8.65-12.33-.2-24.66-.3-36.99-.34-15.93-.05-13.77-1.94-13.77,13.7-.04,393.29-.03,786.59-.03,1179.88ZM1409.43,179.99c-28,0-55.99-.14-83.99.02-153.32.87-306.63,2.1-459.95.99-5.33-.04-10.67-.06-16-.25-4.44-.16-6.64,1.22-6.55,6.26.28,16.33.04,32.67.2,49,.07,7.13.41,7.44,7.44,7.01,23.97-1.45,47.99-1.12,71.97-1.19,212.64-.6,425.29-1.07,637.93-1.32,135.32-.16,270.63.87,405.95-.38,5.24-.05,6.17-1.87,6.22-6.25.16-15.33.57-30.65.77-45.98.11-8.13,0-8.22-8.06-8.28-29.66-.23-59.33-.7-88.99-.52-155.65.96-311.3,1.39-466.95.88ZM843.86,261.63c0,5.54-.04,9.07,0,12.6.81,57.6,1.19,115.22,1.45,172.8,1.19,262.97.72,525.94.71,788.92-.02,425.29-.16,850.58-.17,1275.87,0,18.15-3.5,16.27,17.52,16.44,4.44.03,6.86-1.28,6.83-6.2-.1-15.29,1.21-30.58,1.37-45.82.29-28.26,1.95-56.58-1.26-84.82-1.4-12.3,1.65-24.48,1.69-36.82.92-266.24-1.63-532.49,1.82-798.73,1.87-144.25-1.73-288.54,2.12-432.78.33-12.35-2.12-24.46-1.84-36.83,1.16-52.26.54-104.53,1.35-156.81,2.44-157.9-1.2-315.85,2.32-473.77,1.14-51.3.16-102.65.57-153.98.07-8.55-1.79-14.79-9.73-18.89-2.85-1.47-4.84-4.53-7.37-6.69-5.2-4.44-10.49-8.77-17.37-14.49ZM1409.96,2538.49c-98.64,0-197.29-.12-295.93.05-46.32.08-92.65-1-138.95.95-18.65.78-37.26.8-55.95.14-22.63-.8-45.31.25-67.97.18-5.45-.02-6.93,2.2-6.64,7.14.27,4.65-.05,9.33.05,13.99.15,6.87.21,6.88,7.47,7.09,2.33.07,4.67.03,7,.04,107.64.35,215.28.88,322.93,1,157.3.18,314.6-.39,471.89.23,102.97.41,205.96-.46,308.91,2.35,1.67.05,3.35-.11,5,.06,5.01.53,7.36-1.31,7.17-6.68-.28-8.32.05-16.66-.11-24.99-.12-6.21-.29-6.2-7.11-6.03-15.98.38-31.95.9-47.93,1.11-54.97.74-109.94,1.56-164.92,1.98-43.65.33-87.31.29-130.97.1-71.31-.3-142.63-.99-213.94,1.28ZM1970.5,263.79c-3.62,4.64-6.73,8.9-10.14,12.91-3.45,4.04-4.51,8.47-4.4,13.79.86,43.98,1.93,87.97,2.08,131.95.48,146.65.69,293.31,1.5,439.96,1.12,203.31.93,406.64-.1,609.96-.6,118.99-1.41,237.98-1.61,356.97-.37,224.32-.37,448.64-.52,672.96,0,6,.32,12.01.11,18-.17,4.85,1.92,6.67,6.55,6.21,1.32-.13,2.66.05,4,.07q6.86.08,7.1-7.14c.06-2,.03-4,.02-6-.22-40.66-.55-81.32-.63-121.99-.36-171.32-.86-342.64-.93-513.96-.16-413.31-.07-826.62-.19-1239.93-.02-71.33-1.3-142.66-.55-213.98.53-51.01-.43-101.98-.53-152.97,0-1.89.58-3.95-1.75-6.8ZM853.91,253.92c-.32.79-.64,1.59-.96,2.38,5.6,4.59,11.4,8.95,16.73,13.83,4.97,4.56,10.35,6.36,17.16,6.08,41.29-1.66,82.61-2.03,123.94-1.95,268.97.55,537.95-.93,806.92.99,40.33.29,80.65.23,120.98.27,2.94,0,6.69,1.3,8.66-1,4.98-5.84,10.79-11.33,13.1-20.18-369.5-.19-738.02,1.81-1106.53-.42ZM925.12,1144.68c-1.65,3.57-.89,6.93-1.12,10.17-1.35,18.97,2.2,37.76,1.97,56.71-.14,10.92-.93,21.91,1.66,32.78.74,3.12.54,6.79-.35,9.89-1.42,4.94-1.02,9.88-1.36,14.84-.55,8.04,1.79,15.88,1.75,23.76-.05,12,3.35,23.73,2.19,35.74-.4,4.19,2.05,6.21,5.59,6.97,3.15.68,6.49,1.43,10.2-1.02-3.77-7.27-7.69-14.47-11.25-21.85-3.34-6.92,1.21-14.91,8.36-13.57,10.28,1.94,20.67-.81,30.76,1.77,4.06,1.04,4.62-1.14,4.61-4.16-.08-14.31.53-28.68-.46-42.93-1.5-21.5-3.66-42.97-3.59-64.54.04-11.98-.75-23.86-1.88-35.77-.32-3.42-1.38-6.23-4.76-6.59-9.53-1.03-18.96-4.42-28.59-2.51-4.61.91-9.02,1.38-13.72.32ZM1536.61,1181.87c-2.26,10.03,1.36,19.77,1.5,29.71.17,11.36-1.72,22.47-2.15,33.74-.83,21.63,2.87,43.07,2.04,64.68-.23,5.98-.05,11.98-.03,17.96,0,2,.03,3.99.13,5.99.11,2.27,1.21,3.75,3.61,3.9,1.96.12,4.15.52,5.48-1.35,1.07-1.5.42-3.2-.37-4.71-1.54-2.93-3.49-5.7-4.6-8.78-1.41-3.92-4.23-8.33-.6-12.16,3.25-3.44,7.79-3.35,12.13-1.78,3.89,1.41,7.9,1.01,11.86.9,5.88-.16,7.15-1.27,6.19-7.27-1-6.25-1.97-12.44-1.69-18.77,1.13-25.93-1.65-51.75-2.21-77.64-.15-6.88-2.02-13.74-2.09-20.73-.02-1.84-.99-2.64-3.19-2.7-8.43-.2-8.43-.33-6.36-8.68-6.53-.05-13.07-1.83-19.81,1.54,2.91,3.14,4.96-.07,7.15.67,2.08.7,3.8,1.71,3.52,4.06-.27,2.23-2.02,3.22-4.22,3.46-2.42.26-3.65-3.06-6.28-2.05ZM908.37,1273.57c0,18.31.02,36.61-.02,54.92,0,3.55.03,6.82,4.99,6.69,4.38-.12,4.4-3.12,4.47-6.24.23-10.59,1.94-21.07.99-31.79-1.29-14.56-1.37-29.2-.55-43.88,1-17.94.31-35.96-1.29-53.84-1.25-13.9-3.42-27.71-2.76-41.73.11-2.32.15-4.66.1-6.98-.1-4.35-3.28-4.25-6.36-4.32-3.19-.07-3.9,1.81-3.73,4.51.15,2.33.24,4.65.37,6.98,2.02,38.54,4.04,77.09,3.8,115.71ZM1528.25,1216.29c-2.76-11.14-1.82-23.16-2.34-35.09-.01-.33-.04-.66-.06-1-.19-3.46-2.29-4.46-5.4-4.27-4.91.3-6.33,2.12-6.43,9.05-.43,29.92.92,59.81,1.56,89.71.43,19.94,3.24,39.77,2.33,59.74-.2,4.41,2.04,5.94,6.18,5.49,4.02-.44,6.01-2.34,5.38-6.61-2.96-20.09-.94-40.4-2.94-60.62-1.82-18.44-1.38-37.2,1.72-56.42ZM1551.84,1321.31c5.78,9.02,9.59,18.08,14.92,26.41,3.57,5.58,7.99,7.1,14.07,6.51,3.8-.37,5.87-1.34,3.65-5.42-4.41-8.11-8.82-16.22-13.33-24.28-1.54-2.76-3.97-4.46-7.24-4.45-3.59.01-7.24-.8-12.07,1.23ZM950.07,1363.37c1.06,5.29,2.07,11.01,7.87,13.83,2.7,1.31,5.86,1.87,8.37-.6,2.41-2.39,2.67-5.42.9-8.22-2.12-3.35-4.5-6.58-7.05-9.62-1.73-2.06-4.19-3.9-6.97-2.63-2.69,1.23-2.74,4.29-3.13,7.25ZM1584.39,1377.87c2.24,0,3.23.04,4.21,0,2.31-.11,4.87-.07,5.17-3.2.32-3.36-1.12-5.82-4.61-6.4-2.24-.38-4.57-.43-6.85-.32-2.1.1-5.37-.81-5.38,2.47-.01,2.67.32,6.12,3.85,7.15,1.53.45,3.24.28,3.61.3Z"/><path class="cls-9" d="M949.86,2526.28c10.82-2.69,21.62-5.52,32.48-8.06,48.47-11.35,96.96-22.62,145.45-33.92,35.56-8.28,71.15-16.42,106.67-24.88,48.1-11.46,96.15-23.17,144.22-34.75,35.82-8.63,71.58-17.52,107.5-25.72,19.76-4.51,39.32-9.72,58.82-15.16,11.03-3.07,12.44-5.33,12.78-16.94.19-6.33-.18-12.68.2-19,2.43-41.25,1.26-82.55,2.18-123.82,3.69-164.92-.47-329.89,2.26-494.79,1.8-108.62.28-217.21,1.36-325.8.08-8.41.2-8.04,8.17-10.15,5.96-1.58,11.99-1.93,17.83-1.19,13.65,1.74,22.32-10.79,16.56-24.84-1.89-4.61-4.36-8.99-6.58-13.47-4.72-9.53-9.55-19.01-14.14-28.6-2.27-4.76-4.59-9.48-2.29-15.2,1.56-3.88-1.62-7.68-1.46-11.73.18-4.66-.21-9.34,0-14,1.1-24.65-1.84-49.19-2.45-73.8-.27-10.77-.92-21.84-3.16-32.64-1.16-5.57-2.57-10.38-8.15-12.71-4.35-1.82-4.21-5.41-4.19-9.16.08-14.33.12-28.67.12-43,.02-50.67-.78-101.35.17-151.99,3.32-177.27.82-354.54,1.81-531.81.11-20.25,2.1-19.27-19.04-24.31-30.01-7.16-60.25-13.24-90.52-19.22-34.49-6.82-68.79-14.64-103.17-22.01-39.89-8.56-79.78-17.13-119.67-25.66-32.44-6.94-64.86-14.01-97.35-20.68-34.75-7.14-69.53-14.16-104.42-20.61-8.69-1.61-17.63-1.72-26.99-5.57,3.3-1.88,5.84-1.32,8.21-1.33,13.33-.06,26.67-.19,40,0,78.29,1.12,156.56-3.68,234.81-1.46,98.28,2.78,196.58,2.4,294.82.91,115.62-1.75,231.22-.33,346.82-1.37,16.19-.15,14.66-1.84,14.62,15.22-.12,52.33-.15,104.66-.27,156.99-.02,7.97-.29,15.88-1.26,23.86-.99,8.14-1.03,16.55.58,24.87.93,4.84,1.37,10.11.47,14.89-2.11,11.28-1.36,22.58-1.36,33.86-.06,331.66-1.56,663.32.45,994.96,1.48,244.5.55,488.99,1.41,733.48.03,7.68,2.52,15.06,1.82,22.82-3.81,42.22-1.94,84.56-1.32,126.8.38,25.59,1.07,51.21,1.29,76.82.02,2.67.01,5.33-.13,8-.19,3.62-2.27,5.37-5.81,5.47-2.33.07-4.67.05-7,.05-202.99.1-406-1.06-608.98.77-120.94,1.09-241.87.6-362.81,1.48-3.65.03-7.29,0-10.94,0-.14-.64-.29-1.28-.43-1.93ZM1931.26,2259.88c.31-3.02,2.16-6.53-1.84-9.32q-.74,5.16,1.84,9.32Z"/><path class="cls-2" d="M1257.51,1347.67c-35.92,1.34-71.82,2.44-107.8,1.71-45.59-.93-91.14-4.29-136.77-2.85-5.29.17-8.67-1.35-11.39-6-3.35-5.73-7.53-10.97-11.3-16.46-3.68-5.36-7.34-9.99-3.19-17.68,2.35-4.37.59-11.09.29-16.73-1.15-21.59-2.08-43.2-3.37-64.77-1.37-22.94-.95-45.94-2.87-68.82-1.73-20.55-2.29-16.62-18.05-19.98-16.23-3.46-32.44-1.73-48.68-.7-2.63.17-5.27.78-7.84,1.45-8.94,2.35-10.12,3.95-9.93,13.22.75,36.26,1.84,72.51,2.18,108.77.24,25.29-.46,50.6-.97,75.89-.08,4.06.54,7.21,4.29,9.21,2.62,7.57,6.87,14.34,10.56,21.39,2.07,3.96,4.93,5.91,9.47,5.92,6.64.03,13.28.43,19.92.67,4.71,12.96,14.9,17.63,27.71,18.36,2.91.16,5.99-.55,8.54,1.6,1.68,8.61,7.26,15.61,9.82,23.84,3.64,11.73,12.79,16.28,23.76,16.11,25.68-.38,51.27,1.05,76.89,1.94,20.96.73,41.93.55,62.91,1.47,31.93,1.41,63.88,3.51,95.9,2.77,7.32-.17,14.65.42,21.98.47,3.89.03,6.36,1.33,6.88,5.49.25,1.97.95,3.88,1.33,5.84,18.13,92.12,36.17,184.25,54.4,276.35,17.13,86.55,34.6,173.03,51.67,259.58,15.07,76.44,29.77,152.94,44.68,229.41,7.46,38.23,14.89,76.47,22.57,114.66,4.07,20.21,7.05,40.65,12.41,60.59-15.49,6.3-32.03,8.66-48.14,12.51-79.06,18.86-158.25,37.17-237.32,55.96-72.27,17.17-144.45,34.69-216.67,52.08-20.07,4.83-40.12,9.72-60.16,14.7-3.52.88-6.82,2.72-10.36,3.45-4.75.98-7.97.01-7.74-5.78.35-8.98.23-17.99.27-26.98.83-173.95,1.75-347.9,2.46-521.85.71-172.62,1.15-345.24,1.81-517.86.49-129.96,1.18-259.93,1.69-389.89.6-152.96,1.27-305.92,1.57-458.87.21-103.63-.15-207.26-.26-310.89,0-1.67.02-3.33-.04-5-.11-3.22,1.15-4.99,4.63-4.83,21.53.98,43.05-.94,64.46,5.13,28.49,8.07,57.61,13.93,86.44,20.78,3.19.76,6.69.75,9.24,3.34,1.01,16,5.02,31.53,7.51,47.29,2.75,17.41,7.21,34.54,8.88,52.14-1.53.42-2.65,2.61-4.39,1.62-2.76-1.57-4.98-2.31-8.11-.28-3.46,2.24-3.6,5.27-3.7,8.61-.22,7.32-.56,14.65-.63,21.97-.4,39.65-.72,79.31-1.11,118.96-.58,59.31-1.21,118.63-1.78,177.94-.29,29.99-.03,59.99-.85,89.97-.97,35.65-1.21,71.3-1.21,106.96,0,3.65-.08,7.3,1.47,10.8,1.5,3.38,3.68,5.42,7.55,5.37,14.66-.17,29.29.19,43.85,2.08,4.53.59,8.51-.62,11.86-3.93,7.1-7.03,14.35-13.9,21.43-20.94,2.69-2.67,3.72-6.09,4.15-9.9,2.47-21.85.91-43.9,3.35-65.77,1.13-10.17-.81-11.59-10.94-11.82-8.32-.19-16.66.76-24.94-.72-9.6-1.71-11.64-4.13-11.4-13.97.23-9.22,3.9-17.4,7.44-25.71,5.02-11.8,13.51-18.81,26.19-20.39,8.32-1.04,11.79-3.46,10.3-12.2,4.4,6.29,5.2,13.42,4.85,20.83-5.65-.41-11.27-.36-16.84.81-13.86,2.92-24.98,16.64-24.96,30.81.02,8.77,1.89,10.92,10.86,12.08,2.95.38,5.95.38,8.93.61,11.18.85,22.35,1.71,33.32,4.19.15,1.64.16,3.31.48,4.92,8.26,41.44,16.46,82.88,24.85,124.29,15.14,74.66,30.47,149.29,45.59,223.96,10.16,50.21,20.1,100.46,30.14,150.7Z"/><path class="cls-9" d="M1071.77,415.83c-1.67-17.6-6.13-34.72-8.88-52.14-2.49-15.77-6.51-31.29-7.51-47.29,13.33.84,25.93,5.28,38.87,8,46.72,9.82,93.29,20.34,140.11,29.71,37.39,7.48,74.6,15.87,111.97,23.41,44.54,8.98,88.92,18.65,133.33,28.24,20.73,4.47,41.37,9.47,62.43,12.32,6.7.91,7.82,2.34,8.1,8.93.09,2,.02,4,.02,6-.08,160.94,1.03,321.89-.76,482.8-.87,78.25-.2,156.49-1.22,234.73-.13,10.1-1.03,11.34-11.64,11.45-6.73.07-13.24,1.2-19.74,2.41-11.05,2.07-14.26,6.49-14.62,17.83-.98,30.63,2.06,61.15,2.44,91.76.27,21.15,3.58,42.28,3.46,63.58-.06,9.72,3.06,12.53,12.66,12.4,7.29-.1,14.66.71,21.86-1.25,1.94-.53,4.23-.87,4.79,1.82.57,2.7-1.54,3.47-3.64,3.43-16.95-.31-33.94,1.24-50.85-1.14-2.3-.32-4.62-.47-6.94-.59-51.55-2.65-103.17-1.13-154.72-2.61-24.59-.7-49.19-1.19-73.78-1.95-10.04-50.23-19.97-100.49-30.14-150.7-15.12-74.67-30.45-149.29-45.59-223.96-8.4-41.41-16.6-82.85-24.85-124.29-.32-1.61-.32-3.28-.48-4.92,1.33,0,2.67.04,3.99-.04,19.33-1.18,38.45,2.82,57.76,2.23,12.2-.37,17.41-5.56,17.7-17.86.1-4.33-.26-8.73.39-12.97,2.12-13.81,3.16-27.69,3.53-41.63.12-4.48.02-8.96.02-15.17,6.41,7.2,7.18,14.71,9.99,21.27,10.34,24.15,19.92,48.58,28.5,73.45,5.73,16.62,11.61,33.26,19.53,49.1,5.92,11.83,15.4,16.94,27.89,17.64,12.29.69,17.25-5.32,14.38-17.09-.47-1.93-.96-3.88-1.74-5.69-9.21-21.38-17.78-43.01-26.44-64.61-12.88-32.1-26.31-63.95-34.71-97.64-1-4-1.76-7.55.03-11.57,5.13-11.54,9.9-23.25,14.95-34.83,2.25-5.17,4.25-5.4,7.54-.82,5.05,7.01,9.82,14.22,14.78,21.3,6.12,8.74,14.03,13.92,25.24,13.07,5.3-.4,10.66-.15,15.99-.08,7.76.11,8.03.32,8.29,7.65.67,18.82,1.66,37.65,1.77,56.48.27,48.93-2.86,97.83-1.7,146.77.12,4.87-.82,8.94-4.27,12.76-5.33,5.91-10.16,12.29-15.01,18.61-3.06,4-2.08,7.43,2.45,9.32,1.19.5,2.58.61,3.9.68,12.49.59,24.98,1.39,37.48,1.6,11.79.2,13.08-1.42,13.22-13.28,1.32-105.89-1.62-211.81,1.77-317.7.99-30.95-.21-61.97.26-92.95.36-23.65-1.43-47.2-1.73-70.8-.07-5.01-2.2-7.76-6.17-10.38-5.03-3.33-10.78-3.24-16.19-4.29-28.64-5.56-57.36-10.65-86.05-15.95-31.3-5.78-62.61-11.5-94.09-16.26-23.6-3.57-47.25-6.82-70.76-10.94-18.97-3.32-38.13-4.86-57.18-7.34Z"/><path class="cls-9" d="M1463.49,2390.42c-5.36-19.95-8.35-40.38-12.41-60.59-7.68-38.19-15.12-76.43-22.57-114.66-14.91-76.47-29.61-152.98-44.68-229.41-17.07-86.56-34.54-173.04-51.67-259.58-18.23-92.1-36.27-184.23-54.4-276.35-.39-1.96-1.09-3.87-1.33-5.84-.52-4.16-2.99-5.47-6.88-5.49-7.33-.05-14.66-.63-21.98-.47-32.02.74-63.96-1.36-95.9-2.77-20.98-.93-41.95-.74-62.91-1.47-25.63-.89-51.22-2.32-76.89-1.94-10.97.16-20.12-4.38-23.76-16.11-2.55-8.24-8.14-15.24-9.82-23.84,10.01.52,19.77-2.87,29.81-1.81,4.18,10.75,5.42,11.82,16.58,11.86,26.93.11,53.86.04,80.78,0,2.32,0,4.65-.17,6.96-.42,24.87-2.72,49.83-2.04,74.67-.61,22.54,1.3,45.13.74,67.66,2.83,13.51,1.25,13.6.26,12.18-12.89,4.87-1.71,9.91-.95,14.88-.97,14-.05,28.05-.69,41.98.29,43.24,3.05,86.59-.11,129.77,2.26,27.97,1.53,55.89,1.15,83.83,1.64,10.55.18,10.61.08,10.61,10.25,0,23,.51,46.01-.21,68.98-3.48,111.24-.97,222.51-1.62,333.77-.6,102.64.59,205.3-.7,307.94-.47,37.6-2.21,75.26-.83,112.79,1.33,36.29.34,72.56,1.56,108.81.34,10.23-3.58,20.26-.46,30.63,1.27,4.22-2.08,6.17-6.36,7.05-18.19,3.76-36.28,8.01-54.47,11.74-7.14,1.46-14.01,4.33-21.43,4.39Z"/><path class="cls-8" d="M1986.11,1374.19c0-133.33.1-266.65-.02-399.98-.2-206.65-.71-413.31-.75-619.96-.01-55.33.09-110.65-1.13-165.97-.19-8.64-.04-8.64,8.52-8.78,13.66-.22,27.35.43,40.96-1.19,4.57-.54,7.13.5,6.65,5.68-.22,2.31-.06,4.66-.05,7,.19,74.67-.2,149.34.75,223.99.89,69.33.94,138.65,1.54,207.97,1.27,144.98,2.4,289.97,3.53,434.95,1.24,159.65,2.47,319.3,3.6,478.95.69,97.66,1.32,195.32,1.72,292.98.7,170.66,1.18,341.31,1.79,511.97.23,65.33.5,130.66.89,195.99.06,9.63-.52,19.3,1.48,28.88,1.07,5.14-.22,6.49-5.82,6.41-19-.28-37.99-.94-56.98-1.15-5.1-.05-6.12-2.57-6.15-6.82-.05-10.33-.47-20.66-.41-30.99.98-170.32,1.14-340.64.78-510.97-.45-216.32-.11-432.64-.11-648.97-.26,0-.52,0-.77,0Z"/><path class="cls-7" d="M772.27,1373.64c0-393.29,0-786.59.03-1179.88,0-15.64-2.15-13.75,13.77-13.7,12.33.04,24.66.14,36.99.34,7.97.13,8.39.46,8.46,8.65.14,16.33.59,32.68-.08,48.99-.79,19-.8,37.98-.85,56.98-.96,364.63-.51,729.26-.05,1093.9.27,213.64.5,427.29,1.69,640.93.92,166.31,1.91,332.62,2.2,498.93.02,10.66.49,21.32.76,31.98.17,6.78.12,7.09-6.17,7.11-19,.05-38-.03-56.99-.21-6.22-.06-6.26-.27-6.19-7.15.5-44.66,1.18-89.31,1.5-133.97,1.78-243.3,3.02-486.61,3.05-729.92.01-107.66,0-215.31,0-322.97.62,0,1.24,0,1.87,0Z"/><path class="cls-8" d="M1409.43,179.99c155.65.51,311.3.08,466.95-.88,29.66-.18,59.33.29,88.99.52,8.06.06,8.17.15,8.06,8.28-.2,15.33-.61,30.65-.77,45.98-.05,4.38-.98,6.2-6.22,6.25-135.32,1.24-270.63.21-405.95.38-212.65.26-425.29.72-637.93,1.32-23.98.07-47.99-.26-71.97,1.19-7.03.42-7.37.12-7.44-7.01-.16-16.33.07-32.67-.2-49-.09-5.04,2.11-6.42,6.55-6.26,5.33.19,10.66.21,16,.25,153.32,1.11,306.64-.12,459.95-.99,28-.16,55.99-.02,83.99-.02Z"/><path class="cls-11" d="M843.86,261.63c6.88,5.72,12.17,10.05,17.37,14.49,2.53,2.16,4.52,5.22,7.37,6.69,7.94,4.1,9.8,10.34,9.73,18.89-.41,51.33.57,102.67-.57,153.98-3.52,157.92.12,315.87-2.32,473.77-.81,52.28-.19,104.55-1.35,156.81-.27,12.37,2.17,24.48,1.84,36.83-3.85,144.24-.25,288.53-2.12,432.78-3.45,266.24-.9,532.49-1.82,798.73-.04,12.33-3.09,24.51-1.69,36.82,3.21,28.24,1.55,56.57,1.26,84.82-.15,15.24-1.46,30.53-1.37,45.82.03,4.92-2.4,6.23-6.83,6.2-21.02-.16-17.52,1.71-17.52-16.44.01-425.29.15-850.58.17-1275.87.01-262.97.48-525.95-.71-788.92-.26-57.58-.64-115.2-1.45-172.8-.05-3.53,0-7.06,0-12.6Z"/><path class="cls-1" d="M1409.96,2538.49c71.31-2.27,142.63-1.58,213.94-1.28,43.66.18,87.32.23,130.97-.1,54.97-.42,109.94-1.24,164.92-1.98,15.98-.21,31.95-.73,47.93-1.11,6.83-.16,6.99-.18,7.11,6.03.16,8.33-.17,16.67.11,24.99.18,5.38-2.16,7.21-7.17,6.68-1.65-.17-3.33-.01-5-.06-102.95-2.82-205.94-1.94-308.91-2.35-157.3-.63-314.59-.06-471.89-.23-107.64-.12-215.28-.65-322.93-1-2.33,0-4.67.03-7-.04-7.26-.21-7.32-.23-7.47-7.09-.1-4.66.22-9.34-.05-13.99-.29-4.94,1.19-7.16,6.64-7.14,22.66.07,45.35-.97,67.97-.18,18.68.66,37.3.64,55.95-.14,46.3-1.94,92.63-.86,138.95-.95,98.64-.18,197.29-.05,295.93-.05Z"/><path class="cls-4" d="M1970.5,263.79c2.34,2.85,1.75,4.91,1.75,6.8.1,50.99,1.07,101.96.53,152.97-.75,71.32.53,142.65.55,213.98.11,413.31.02,826.62.19,1239.93.07,171.32.57,342.64.93,513.96.09,40.66.42,81.32.63,121.99.01,2,.04,4-.02,6q-.22,7.22-7.1,7.14c-1.33-.02-2.68-.2-4-.07-4.63.46-6.72-1.36-6.55-6.21.21-5.99-.12-12-.11-18,.14-224.32.15-448.64.52-672.96.2-118.99,1.01-237.98,1.61-356.97,1.03-203.32,1.22-406.64.1-609.96-.81-146.66-1.02-293.31-1.5-439.96-.14-43.99-1.22-87.97-2.08-131.95-.1-5.31.95-9.74,4.4-13.79,3.41-4,6.52-8.27,10.14-12.91Z"/><path class="cls-12" d="M853.91,253.92c368.52,2.23,737.04.23,1106.53.42-2.31,8.85-8.13,14.34-13.1,20.18-1.97,2.31-5.73,1.01-8.66,1-40.33-.04-80.66.02-120.98-.27-268.97-1.92-537.95-.45-806.92-.99-41.33-.08-82.65.28-123.94,1.95-6.81.27-12.19-1.53-17.16-6.08-5.33-4.88-11.13-9.24-16.73-13.83.32-.79.64-1.59.96-2.38Z"/><path class="cls-11" d="M925.12,1144.68c4.7,1.07,9.11.6,13.72-.32,9.63-1.91,19.07,1.48,28.59,2.51,3.38.37,4.44,3.18,4.76,6.59,1.13,11.9,1.92,23.79,1.88,35.77-.07,21.58,2.09,43.04,3.59,64.54.99,14.25.38,28.61.46,42.93.02,3.02-.55,5.2-4.61,4.16-10.09-2.58-20.48.17-30.76-1.77-7.14-1.35-11.7,6.65-8.36,13.57,3.56,7.37,7.49,14.57,11.25,21.85-3.71,2.45-7.05,1.7-10.2,1.02-3.54-.76-6-2.79-5.59-6.97,1.16-12.01-2.25-23.74-2.19-35.74.04-7.88-2.3-15.72-1.75-23.76.34-4.95-.06-9.9,1.36-14.84.89-3.1,1.1-6.77.35-9.89-2.59-10.86-1.79-21.86-1.66-32.78.24-18.95-3.32-37.74-1.97-56.71.23-3.24-.53-6.6,1.12-10.17ZM966.02,1155.38c-.4-2.33-1.53-5.12-5.38-4.86-3.22.22-4.47,2.62-4.39,5.61.09,3.55,2.02,5.58,5.61,5.62,3.68.04,4.17-2.58,4.17-6.37ZM933,1159.78c3.54-.44,5.11-2.59,5.03-6-.07-2.91-1.32-5.21-4.45-5.47-3.65-.3-5.35,1.98-5.52,5.36-.17,3.38,1.37,5.61,4.94,6.1Z"/><path class="cls-9" d="M1391.29,1362.55c14.99-1.97,29.82,1.14,44.72,1.68,25.58.93,51.18,1.18,76.74,2.22,14.8.6,29.67-.61,44.41,1.48.98.14,2.01,0,2.99.14,4.13.6,5.42,3.73,5.49,7.18.07,3.31-2.6,4.4-5.5,4.48-6.99.2-13.98.28-20.97.43-38.93.82-77.76-2.86-116.71-2.55-29.44.23-58.89-1.96-88.38-1.73-40.9.31-81.76-2.13-122.67-2.4-18.87-.13-37.69,1.44-56.57.67-18.61-.76-37.34-.88-55.91.35-9.67.64-19.06-.05-28.6-.37-14.93-.5-29.84,0-44.77,1.61-10.95,1.18-11.58,2.06-11.71-10.88,2.31-.24,4.62-.68,6.93-.7,44.91-.54,89.81-.04,134.7,1.48,5.99.2,11.98.36,17.94.87,24.53,2.13,49.15,1.97,73.72,3.1,19.61.91,39.11-2.55,58.8-1.82,22.6.84,45.25.49,67.87.48,6.35,0,12.62-.88,17.49-5.71Z"/><path class="cls-11" d="M1536.61,1181.87c2.64-1.01,3.86,2.31,6.28,2.05,2.21-.24,3.95-1.23,4.22-3.46.29-2.35-1.44-3.37-3.52-4.06-2.19-.73-4.24,2.47-7.15-.67,6.74-3.37,13.28-1.59,19.81-1.54-2.06,8.35-2.07,8.48,6.36,8.68,2.2.05,3.17.86,3.19,2.7.08,6.99,1.95,13.85,2.09,20.73.56,25.88,3.34,51.71,2.21,77.64-.28,6.33.7,12.52,1.69,18.77.96,5.99-.31,7.11-6.19,7.27-3.96.1-7.97.51-11.86-.9-4.34-1.58-8.88-1.66-12.13,1.78-3.63,3.84-.81,8.24.6,12.16,1.11,3.08,3.06,5.85,4.6,8.78.79,1.5,1.44,3.21.37,4.71-1.34,1.87-3.52,1.48-5.48,1.35-2.4-.15-3.5-1.63-3.61-3.9-.1-1.99-.13-3.99-.13-5.99-.01-5.99-.19-11.98.03-17.96.82-21.6-2.87-43.05-2.04-64.68.43-11.27,2.32-22.38,2.15-33.74-.15-9.94-3.77-19.67-1.5-29.71Z"/><path class="cls-12" d="M1266.94,1390.84c1.42,13.15,1.33,14.14-12.18,12.89-22.53-2.09-45.12-1.53-67.66-2.83-24.84-1.43-49.8-2.11-74.67.61-2.31.25-4.64.42-6.96.42-26.93.03-53.86.1-80.78,0-11.16-.04-12.4-1.11-16.58-11.86,19.56-3.38,39.22-1.79,58.8-.66,9.99.58,19.98,1.54,29.92.77,30.59-2.37,61.24-2.38,91.87-2.79,23.97-.32,47.95.78,71.93,1.2,2.41.04,4.66.25,6.32,2.26Z"/><path class="cls-6" d="M1391.29,1362.55c-4.87,4.83-11.14,5.71-17.49,5.71-22.63.01-45.27.36-67.87-.48-19.69-.73-39.19,2.73-58.8,1.82-24.57-1.13-49.19-.97-73.72-3.1-5.96-.52-11.96-.67-17.94-.87-44.89-1.52-89.79-2.02-134.7-1.48-2.31.03-4.62.46-6.93.7-2.4-2.05-3.74-4.53-3.31-8.45,10.52-1.2,21.2-1.53,31.52-.24,17.94,2.25,35.91.95,53.84,2.24,44.86,3.24,89.83,2.82,134.74,1.59,29.66-.82,59.27-.52,88.82,1.04,23.97,1.27,47.9,1.23,71.86,1.51Z"/><path class="cls-6" d="M908.37,1273.57c.24-38.62-1.78-77.16-3.8-115.71-.12-2.33-.22-4.66-.37-6.98-.17-2.69.54-4.58,3.73-4.51,3.08.07,6.26-.03,6.36,4.32.05,2.33,0,4.66-.1,6.98-.66,14.02,1.52,27.83,2.76,41.73,1.6,17.88,2.29,35.9,1.29,53.84-.82,14.68-.74,29.32.55,43.88.95,10.73-.75,21.2-.99,31.79-.07,3.12-.09,6.12-4.47,6.24-4.96.13-5-3.14-4.99-6.69.04-18.31.02-36.61.02-54.92Z"/><path class="cls-11" d="M1528.25,1216.29c-3.1,19.21-3.54,37.97-1.72,56.42,2,20.22-.02,40.53,2.94,60.62.63,4.27-1.36,6.17-5.38,6.61-4.14.45-6.38-1.08-6.18-5.49.92-19.97-1.9-39.8-2.33-59.74-.64-29.9-1.99-59.79-1.56-89.71.1-6.93,1.52-8.76,6.43-9.05,3.11-.19,5.21.8,5.4,4.27.02.33.05.66.06,1,.52,11.93-.42,23.95,2.34,35.09Z"/><path class="cls-9" d="M991.6,1345.92c7.97,6.83,10.95,16.1,12.44,26,.79,5.23-2.3,8.16-6.96,9.28-2.85.69-5.9.64-8.86.69-11.2.19-11.27.16-12.29-11.31-.55-6.21-3.7-11.22-6.96-16.21-3.24-4.97-6.99-9.68-7.09-16.03,3.51-1.06,6.48.94,9.63,1.78,6.73,1.81,13.11,4.83,20.09,5.8Z"/><path class="cls-4" d="M991.6,1345.92c-6.98-.97-13.36-3.99-20.09-5.8-3.15-.85-6.12-2.84-9.63-1.78-2.24-1.46-4.17-3.17-5.49-5.59-4.19-7.72-8.48-15.39-13.71-24.85,7.85,1.63,13.95.48,20.1.51,3.02.01,6,.08,7.92,3.03,6.85,10.53,13.75,21.03,20.55,31.59.47.74.25,1.93.35,2.9Z"/><path class="cls-9" d="M942.04,1371.92c-6.64-.24-13.28-.64-19.92-.67-4.54-.02-7.4-1.96-9.47-5.92-3.68-7.05-7.93-13.81-10.56-21.39,12.61,2.66,25.79.79,39.05,5.15-1.36,7.51-1.84,15.29.9,22.83Z"/><path class="cls-11" d="M1551.84,1321.31c4.83-2.02,8.49-1.21,12.07-1.23,3.27-.01,5.7,1.69,7.24,4.45,4.51,8.06,8.92,16.17,13.33,24.28,2.22,4.08.15,5.06-3.65,5.42-6.08.58-10.5-.93-14.07-6.51-5.33-8.33-9.14-17.39-14.92-26.41Z"/><path class="cls-4" d="M950.07,1363.37c.39-2.96.44-6.02,3.13-7.25,2.78-1.27,5.24.57,6.97,2.63,2.55,3.04,4.93,6.27,7.05,9.62,1.77,2.8,1.51,5.83-.9,8.22-2.5,2.48-5.67,1.91-8.37.6-5.81-2.82-6.82-8.53-7.87-13.83Z"/><path class="cls-11" d="M1584.39,1377.87c-.37-.03-2.09.15-3.61-.3-3.53-1.04-3.86-4.48-3.85-7.15.01-3.28,3.29-2.38,5.38-2.47,2.28-.11,4.61-.06,6.85.32,3.49.59,4.93,3.05,4.61,6.4-.3,3.13-2.86,3.09-5.17,3.2-.98.05-1.96,0-4.21,0Z"/><path class="cls-9" d="M1931.26,2259.88q-2.58-4.17-1.84-9.32c4,2.79,2.15,6.3,1.84,9.32Z"/><path class="cls-5" d="M1071.77,415.83c19.05,2.48,38.21,4.01,57.18,7.34,23.5,4.12,47.16,7.37,70.76,10.94,31.48,4.76,62.79,10.48,94.09,16.26,28.69,5.3,57.41,10.39,86.05,15.95,5.41,1.05,11.16.97,16.19,4.29,3.96,2.62,6.1,5.37,6.17,10.38.31,23.6,2.09,47.16,1.73,70.8-.47,30.98.73,62-.26,92.95-3.39,105.89-.45,211.81-1.77,317.7-.15,11.86-1.44,13.48-13.22,13.28-12.5-.21-24.99-1.01-37.48-1.6-1.31-.06-2.71-.18-3.9-.68-4.53-1.89-5.51-5.32-2.45-9.32,4.85-6.32,9.68-12.7,15.01-18.61,3.44-3.82,4.38-7.88,4.27-12.76-1.16-48.94,1.97-97.84,1.7-146.77-.11-18.83-1.1-37.65-1.77-56.48-.26-7.34-.53-7.54-8.29-7.65-5.33-.08-10.69-.32-15.99.08-11.21.85-19.12-4.33-25.24-13.07-4.96-7.08-9.73-14.28-14.78-21.3-3.29-4.57-5.29-4.34-7.54.82-5.05,11.58-9.82,23.29-14.95,34.83-1.79,4.02-1.03,7.57-.03,11.57,8.41,33.68,21.84,65.54,34.71,97.64,8.67,21.6,17.24,43.23,26.44,64.61.78,1.81,1.27,3.77,1.74,5.69,2.87,11.77-2.08,17.78-14.38,17.09-12.49-.7-21.97-5.82-27.89-17.64-7.93-15.84-13.8-32.48-19.53-49.1-8.58-24.86-18.17-49.29-28.5-73.45-2.81-6.55-3.58-14.07-9.99-21.27,0,6.21.1,10.69-.02,15.17-.36,13.94-1.41,27.82-3.53,41.63-.65,4.24-.28,8.64-.39,12.97-.29,12.3-5.51,17.49-17.7,17.86-19.31.58-38.43-3.41-57.76-2.23-1.33.08-2.66.03-3.99.04-10.97-2.49-22.15-3.34-33.32-4.19-2.97-.23-5.97-.22-8.93-.61-8.97-1.16-10.84-3.31-10.86-12.08-.03-14.17,11.09-27.89,24.96-30.81,5.57-1.17,11.2-1.23,16.84-.81,14.58.84,29.17,1.64,43.75,2.56,5.45.34,8.87-1.22,9.55-7.37.83-7.56,3.14-15.02,3.36-22.56.54-18.94.67-37.87,1.95-56.8.52-7.77,1.36-15.15,4.73-22.2,2.44-5.1,4.82-10.24,6.89-15.49,3.53-8.97,7.01-17.97,10.1-27.1,1.99-5.86.37-7.44-5.74-8.34-7.88-1.17-13.59,1.04-16.9,8.63-2.12,4.87-4.67,9.56-6.84,14.42-2.85,6.37-5.02,13.1-8.38,19.17-4.78,8.62-12.18,10.72-21.17,6.98-8.77-3.64-12.55-9.48-12.51-19.34.02-3.32.52-6.58,1-9.88,2.58-17.55,10.8-32.88,19.41-47.82,5.69-9.88,13.94-18.34,26.28-19.62,8.23-.85,16.71-.87,24.94.03,21.5,2.36,42.26,8.46,63.21,13.55,3.99.97,7.36,2.66,9.53,6.54,9.07,16.26,18.58,32.29,27.39,48.69,9.26,17.23,9,17.37,28.3,16.8.33,0,.67,0,1,0,6.66-.32,8.07-1.45,6.5-7.73-1.9-7.6-1.58-15.2-1.59-22.83-.02-46.31.09-92.62.07-138.93,0-12-.2-12.07-11.7-14.17-.65-.12-1.32-.21-1.98-.29-22.37-2.83-44.23-8.65-66.64-11.36-15.79-1.91-31.48-4.56-47.22-6.87-16.39-2.41-32.78-4.88-49.18-7.21-11.81-1.68-23.61-3.51-35.47-4.65-7.01-.67-7.15.07-7.63,7-.64,9.36,1.46,18.54,1.6,27.81.31,19.99.14,39.98.15,59.97.04,63.97-.09,127.94.33,191.91.06,8.72-3.34,17-1.93,25.7,1.49,8.74-1.97,11.16-10.3,12.2-12.68,1.58-21.16,8.6-26.19,20.39-3.54,8.31-7.21,16.49-7.44,25.71-.24,9.84,1.8,12.26,11.4,13.97,8.29,1.48,16.63.53,24.94.72,10.12.23,12.07,1.66,10.94,11.82-2.44,21.87-.89,43.92-3.35,65.77-.43,3.82-1.46,7.23-4.15,9.9-7.08,7.04-14.33,13.92-21.43,20.94-3.35,3.31-7.33,4.52-11.86,3.93-14.56-1.89-29.2-2.25-43.85-2.08-3.87.04-6.05-1.99-7.55-5.37-1.55-3.5-1.48-7.15-1.47-10.8,0-35.66.24-71.31,1.21-106.96.82-29.97.56-59.98.85-89.97.57-59.31,1.2-118.63,1.78-177.94.39-39.65.71-79.31,1.11-118.96.07-7.33.41-14.65.63-21.97.1-3.35.24-6.37,3.7-8.61,3.13-2.03,5.36-1.28,8.11.28,1.74.99,2.86-1.2,4.39-1.62Z"/><path class="cls-10" d="M1140.29,774.48c-1.41-8.7,1.98-16.98,1.93-25.7-.42-63.97-.28-127.94-.33-191.91-.01-19.99.16-39.98-.15-59.97-.15-9.27-2.24-18.46-1.6-27.81.47-6.94.62-7.68,7.63-7,11.86,1.14,23.67,2.97,35.47,4.65,16.4,2.34,32.79,4.8,49.18,7.21,15.74,2.32,31.43,4.96,47.22,6.87,22.41,2.71,44.26,8.53,66.64,11.36.66.08,1.32.17,1.98.29,11.5,2.11,11.69,2.17,11.7,14.17.02,46.31-.09,92.62-.07,138.93,0,7.63-.31,15.23,1.59,22.83,1.57,6.28.16,7.41-6.5,7.73-.33.02-.67,0-1,0-19.3.57-19.04.43-28.3-16.8-8.82-16.4-18.32-32.43-27.39-48.69-2.16-3.88-5.54-5.57-9.53-6.54-20.95-5.08-41.71-11.19-63.21-13.55-8.23-.9-16.71-.88-24.94-.03-12.34,1.28-20.59,9.74-26.28,19.62-8.61,14.94-16.83,30.27-19.41,47.82-.48,3.3-.98,6.56-1,9.88-.05,9.86,3.74,15.7,12.51,19.34,8.99,3.74,16.39,1.64,21.17-6.98,3.37-6.07,5.53-12.8,8.38-19.17,2.17-4.85,4.72-9.54,6.84-14.42,3.31-7.59,9.03-9.8,16.9-8.63,6.11.91,7.73,2.48,5.74,8.34-3.1,9.13-6.57,18.13-10.1,27.1-2.07,5.25-4.45,10.4-6.89,15.49-3.38,7.05-4.21,14.43-4.73,22.2-1.27,18.93-1.41,37.86-1.95,56.8-.21,7.54-2.53,15.01-3.36,22.56-.68,6.15-4.09,7.71-9.55,7.37-14.58-.92-29.17-1.71-43.75-2.56.35-7.4-.45-14.53-4.85-20.83ZM1257.87,556.29c0,3.33-.21,6.67.03,9.99,1.32,17.97,14.41,29.94,32,30.04,7.89.05,13.41-3.43,17.52-9.55,7.62-11.32,11.7-23.6,10.79-37.56-.95-14.46-18.15-30.25-32.55-29.07-1.3.11-2.59.54-3.86.9-16.24,4.58-24,15.99-23.94,35.25Z"/><path class="cls-3" d="M966.02,1155.38c0,3.79-.49,6.41-4.17,6.37-3.59-.04-5.52-2.07-5.61-5.62-.07-2.98,1.17-5.39,4.39-5.61,3.85-.26,4.98,2.53,5.38,4.86Z"/><path class="cls-3" d="M933,1159.78c-3.57-.49-5.11-2.73-4.94-6.1.17-3.38,1.87-5.67,5.52-5.36,3.13.26,4.38,2.56,4.45,5.47.08,3.41-1.5,5.56-5.03,6Z"/><path class="cls-5" d="M1257.87,556.29c-.06-19.27,7.7-30.67,23.94-35.25,1.27-.36,2.56-.8,3.86-.9,14.4-1.18,31.59,14.62,32.55,29.07.92,13.96-3.17,26.24-10.79,37.56-4.11,6.12-9.63,9.6-17.52,9.55-17.59-.11-30.69-12.08-32-30.04-.24-3.31-.03-6.66-.03-9.99Z"/></svg>