<svg width="64" height="64" viewBox="0 0 64 64" fill="none" xmlns="http://www.w3.org/2000/svg">
<rect x="0.574219" y="0.256348" width="63" height="63" fill="#F5E2A0"/>
<circle cx="31.5652" cy="31.7302" r="15.543" stroke="#101010" stroke-width="8.16158"/>
<rect x="37.2773" y="47.7373" width="8.15137" height="7.6482" rx="1.61016" transform="rotate(-32 37.2773 47.7373)" fill="#101010"/>
<rect x="46.3398" y="40.665" width="8.15137" height="7.6482" rx="1.61016" transform="rotate(-72 46.3398 40.665)" fill="#101010"/>
<rect x="48.7383" y="29.4238" width="8.15137" height="7.6482" rx="1.61016" transform="rotate(-112 48.7383 29.4238)" fill="#101010"/>
<rect x="43.3477" y="19.271" width="8.15137" height="7.6482" rx="1.61016" transform="rotate(-152 43.3477 19.271)" fill="#101010"/>
<rect x="32.6875" y="14.957" width="8.15137" height="7.6482" rx="1.61016" transform="rotate(168 32.6875 14.957)" fill="#101010"/>
<rect x="21.7578" y="18.5024" width="8.15137" height="7.6482" rx="1.61016" transform="rotate(128 21.7578 18.5024)" fill="#101010"/>
<rect x="15.6602" y="28.2466" width="8.15137" height="7.6482" rx="1.61016" transform="rotate(88 15.6602 28.2466)" fill="#101010"/>
<rect x="17.25" y="39.6323" width="8.15137" height="7.6482" rx="1.61016" transform="rotate(48 17.25 39.6323)" fill="#101010"/>
<rect x="25.7891" y="47.3286" width="8.15137" height="7.6482" rx="1.61016" transform="rotate(8 25.7891 47.3286)" fill="#101010"/>
</svg>
