<svg width="63" height="63" viewBox="0 0 63 63" fill="none" xmlns="http://www.w3.org/2000/svg">
<rect width="63" height="63" fill="#F5E2A0"/>
<path d="M31.6985 56.933H18.1644L18.1903 53.076L16.1719 51.3158L15.9648 47.7435C24.6337 41.8607 27.297 37.3803 26.8852 28.5361C21.4003 28.5362 22.1919 28.3106 19.9759 26.7758C23.2285 24.3945 24.527 23.9172 26.4194 23.773C18.7599 20.1231 18.3978 6.04091 31.595 6.04102C44.7921 6.04091 44.5595 20.1489 36.8999 23.7988C38.7924 23.943 40.0909 24.4203 43.3435 26.8016C41.1275 28.3364 41.9191 28.562 36.4341 28.5618C36.0224 37.4061 38.6857 41.8865 47.3545 47.7692L47.1475 51.3415L45.129 53.1018L45.1549 56.9588L31.6985 56.933Z" fill="#101010"/>
</svg>
