<svg width="249" height="136" viewBox="0 0 249 136" fill="none" xmlns="http://www.w3.org/2000/svg">
<path d="M40.2505 106.111H37.8513L33.4625 94.5834C33.5795 95.1452 33.638 95.586 33.638 95.9059V106.111H30.9696V87.7954H33.3688L37.7576 99.0892C37.6406 98.5275 37.5821 98.0867 37.5821 97.7668V87.7954H40.2505V106.111ZM51.6965 104.438C51.6965 105.553 51.1425 106.111 50.0346 106.111H44.0892C43.0047 106.111 42.4624 105.553 42.4624 104.438V89.4807C42.4624 88.3572 43.0047 87.7954 44.0892 87.7954H50.0346C51.1425 87.7954 51.6965 88.3572 51.6965 89.4807V104.438ZM48.9579 103.759V90.1478H45.201V103.759H48.9579ZM67.859 104.438C67.859 105.553 67.3011 106.111 66.1854 106.111H60.4741C59.3895 106.111 58.8473 105.553 58.8473 104.438V89.4807C58.8473 88.3572 59.3895 87.7954 60.4741 87.7954H66.1854C67.3011 87.7954 67.859 88.3572 67.859 89.4807V93.7642H65.132V90.1478H61.5859V103.759H65.132V99.9085H67.859V104.438ZM79.223 106.111H76.461V97.8955H72.751V106.111H70.0124V87.7954H72.751V95.3441H76.461V87.7954H79.223V106.111ZM90.6456 104.438C90.6456 105.553 90.0916 106.111 88.9837 106.111H83.0384C81.9538 106.111 81.4116 105.553 81.4116 104.438V89.4807C81.4116 88.3572 81.9538 87.7954 83.0384 87.7954H88.9837C90.0916 87.7954 90.6456 88.3572 90.6456 89.4807V104.438ZM87.907 103.759V90.1478H84.1502V103.759H87.907ZM102.092 104.438C102.092 105.553 101.538 106.111 100.43 106.111H94.4844C93.3998 106.111 92.8576 105.553 92.8576 104.438V89.4807C92.8576 88.3572 93.3998 87.7954 94.4844 87.7954H100.43C101.538 87.7954 102.092 88.3572 102.092 89.4807V104.438ZM99.353 103.759V90.1478H95.5962V103.759H99.353ZM113.081 104.438C113.081 105.553 112.527 106.111 111.419 106.111H105.907C104.807 106.111 104.257 105.553 104.257 104.438V100.072H106.995V103.806H110.343V100.213L104.854 95.0164C104.456 94.6341 104.257 94.1465 104.257 93.5535V89.4807C104.257 88.3572 104.807 87.7954 105.907 87.7954H111.419C112.527 87.7954 113.081 88.3494 113.081 89.4573V93.5535H110.343V90.101H106.995V93.4131L112.484 98.586C112.882 98.9605 113.081 99.456 113.081 100.072V104.438ZM122.854 106.111H115.258V87.7954H122.783V90.218H117.997V95.5665H122.116V97.9423H117.997V103.689H122.854V106.111ZM134.019 106.111H131.619L127.231 94.5834C127.348 95.1452 127.406 95.586 127.406 95.9059V106.111H124.738V87.7954H127.137L131.526 99.0892C131.409 98.5275 131.35 98.0867 131.35 97.7668V87.7954H134.019V106.111ZM50.7485 135.111H47.9865V126.895H44.2765V135.111H41.5379V116.795H44.2765V124.344H47.9865V116.795H50.7485V135.111ZM62.1711 133.438C62.1711 134.553 61.6171 135.111 60.5092 135.111H54.5638C53.4793 135.111 52.937 134.553 52.937 133.438V118.481C52.937 117.357 53.4793 116.795 54.5638 116.795H60.5092C61.6171 116.795 62.1711 117.357 62.1711 118.481V133.438ZM59.4325 132.759V119.148H55.6757V132.759H59.4325ZM73.5469 133.438C73.5469 134.553 72.9851 135.111 71.8616 135.111H66.0449C64.937 135.111 64.383 134.553 64.383 133.438V116.795H67.1217V132.759H70.8082V116.795H73.5469V133.438ZM84.5364 133.438C84.5364 134.553 83.9824 135.111 82.8745 135.111H77.3622C76.2621 135.111 75.712 134.553 75.712 133.438V129.072H78.4506V132.806H81.7978V129.213L76.3089 124.016C75.9109 123.634 75.712 123.146 75.712 122.554V118.481C75.712 117.357 76.2621 116.795 77.3622 116.795H82.8745C83.9824 116.795 84.5364 117.349 84.5364 118.457V122.554H81.7978V119.101H78.4506V122.413L83.9395 127.586C84.3374 127.961 84.5364 128.456 84.5364 129.072V133.438ZM94.3088 135.111H86.7133V116.795H94.2386V119.218H89.4519V124.567H93.5715V126.942H89.4519V132.689H94.3088V135.111ZM110.343 116.901L107.92 124.555C107.623 125.312 107.222 126.587 106.714 128.382V135.111H103.964V128.382C103.839 127.773 103.66 127.13 103.426 126.451C103.012 125.288 102.79 124.656 102.759 124.555L100.348 116.901C100.34 116.893 100.34 116.858 100.348 116.795H103.168L105.357 124.754L107.534 116.795H110.343C110.343 116.85 110.343 116.885 110.343 116.901ZM119.354 135.111H111.759V116.795H119.284V119.218H114.497V124.567H118.617V126.942H114.497V132.689H119.354V135.111ZM129.197 119.218H126.177V135.111H123.45V119.218H120.431V116.795H129.197V119.218Z" fill="#4B4533"/>
<path d="M82.2153 73.9651C82.1644 73.9061 82.1188 73.8452 82.0644 73.7898C78.1263 69.7718 74.1864 65.7555 70.2483 61.7375C70.1833 61.6713 70.1131 61.6141 70.0447 61.5514C73.709 57.8377 73.5458 51.808 69.6919 48.2858C66.5172 45.3846 61.1593 44.9282 57.4564 48.6527C53.6323 44.7528 49.8083 40.8529 46 36.9692C50.0522 32.8366 54.1132 28.6951 58.1812 24.5465C60.0133 26.3881 62.2667 27.3063 64.8641 27.1971C67.3965 27.0915 69.5375 26.0176 71.2065 24.0686C74.1723 20.6072 74.2531 15.2326 70.7941 11.671C74.6164 7.7729 78.4387 3.87482 82.2381 0C86.2816 4.12538 90.3478 8.27045 94.4123 12.4155C90.6935 16.217 91.0796 22.2502 94.8493 25.6543C98.0696 28.5609 103.394 28.9439 107.092 25.2248C107.145 25.291 107.192 25.3608 107.252 25.4217C110.956 29.2016 114.663 32.9816 118.369 36.7597C118.424 36.8152 118.485 36.8636 118.543 36.9155C118.543 36.9441 118.543 36.9727 118.543 37.0014C118.487 37.0515 118.425 37.0998 118.373 37.1553C114.428 41.1769 110.484 45.1984 106.541 49.2218C106.481 49.2827 106.428 49.3507 106.372 49.4151C102.69 45.6477 96.778 45.8714 93.3505 49.7909C90.511 53.0393 90.0828 58.4874 93.7559 62.287C93.6928 62.3425 93.6243 62.3944 93.5664 62.4552C89.8599 66.2334 86.1552 70.0134 82.4487 73.7933C82.3943 73.8488 82.3487 73.9097 82.2978 73.9687C82.2715 73.9651 82.2434 73.9651 82.2153 73.9651Z" fill="#4B4533"/>
</svg>
