<svg width="40" height="41" viewBox="0 0 40 41" fill="none" xmlns="http://www.w3.org/2000/svg">
<rect x="0.59375" y="0.976562" width="39.107" height="39.107" fill="#282828"/>
<path d="M30.238 11.7561H26.8717V10.6593C26.8717 10.3684 26.8717 9.56252 26.8717 9.56252C26.8717 9.56252 26.0472 9.5625 25.7496 9.5625H14.5285C14.2309 9.5625 13.4064 9.56252 13.4064 9.56252C13.4064 9.56252 13.4064 10.3684 13.4064 10.6593V11.7561H10.0401C9.74247 11.7561 8.9181 11.7561 8.9181 11.7561C8.9181 11.7561 8.91797 12.5619 8.91797 12.8528V16.1432C8.91797 20.8703 10.9378 23.7219 14.3265 23.8206C14.821 24.6563 15.4975 25.3754 16.3081 25.927C17.1187 26.4786 18.0435 26.8491 19.0169 27.0122V29.3045H16.0171C15.2615 30.1611 15.2615 30.1317 15.2615 31.4981H25.0166C25.0166 30.1686 25.0166 30.1611 24.261 29.3045H21.2612V27.0122C22.2346 26.8491 23.1594 26.4786 23.97 25.927C24.7806 25.3754 25.4571 24.6563 25.9516 23.8206C29.3179 23.7109 31.3601 20.8593 31.3601 16.1432V12.8528C31.3601 12.5619 31.3601 11.7561 31.3601 11.7561C31.3601 11.7561 30.5356 11.7561 30.238 11.7561ZM11.1622 16.1432V13.9496H13.4064V21.4406C11.409 20.618 11.1622 17.569 11.1622 16.1432ZM26.8717 21.4406V13.9496H29.1159V16.1432C29.1159 17.569 28.869 20.618 26.8717 21.4406Z" fill="#F5E2A0"/>
</svg>
