<svg width="601" height="286" viewBox="0 0 601 286" fill="none" xmlns="http://www.w3.org/2000/svg">
<path d="M100.785 40.4742C100.962 46.837 101.094 52.6253 101.183 57.8393C101.271 63.0532 101.315 68.1788 101.315 73.216C101.315 78.1648 101.271 83.2904 101.183 88.5927C101.094 93.8067 100.962 99.6393 100.785 106.09C100.785 108.3 100.21 110.288 99.0616 112.056C97.9128 113.735 96.4546 115.149 94.6872 116.297C92.9198 117.358 90.9314 118.197 88.7221 118.816C86.5128 119.346 84.2593 119.611 81.9616 119.611H7.06633V26.8207H81.9616C84.2593 26.8207 86.5128 27.13 88.7221 27.7486C90.9314 28.2788 92.9198 29.1184 94.6872 30.2672C96.4546 31.4161 97.8686 32.83 98.929 34.5091C100.078 36.1881 100.696 38.1765 100.785 40.4742ZM58.1012 87.3997C59.6035 87.3997 60.8407 86.8253 61.8128 85.6765C62.8733 84.5276 63.6686 83.0695 64.1988 81.3021C64.7291 79.5346 64.9942 77.6788 64.9942 75.7346C64.9942 73.7021 64.7291 71.8021 64.1988 70.0346C63.6686 68.2672 62.8733 66.809 61.8128 65.6602C60.8407 64.5114 59.6035 63.937 58.1012 63.937H44.5803V87.3997H58.1012ZM199.975 87.0021V119.611H112.751V26.8207H199.975V58.7672H150.265V87.0021H199.975ZM304.461 26.8207V119.611H266.947V92.702H248.257V119.611H210.743V26.8207H248.257V55.3207H266.947V26.8207H304.461ZM399.887 87.6648V119.611H315.58V26.6881H399.887V59.43H353.094V64.2021H376.556V82.8928H353.094V87.6648H399.887ZM496.087 63.4067V119.611H411.78V86.7369H458.706V82.0974H411.78V26.8207H496.087V58.6346H444.655V63.4067H496.087ZM591.881 63.4067V119.611H507.574V86.7369H554.5V82.0974H507.574V26.8207H591.881V58.6346H540.449V63.4067H591.881Z" fill="#F5E2A0"/>
<path d="M84.9443 125.408V203.748H53.2727V180.022V164.131L45.4387 172.076L37.4929 164.131V180.022V203.748H5.82128V125.408H37.4929L45.4387 132.571L53.2727 125.408H84.9443ZM173.571 125.297V203.748H141.9V180.358H126.008V203.748H94.4482V125.408L173.571 125.297ZM141.9 164.466V152.603H126.008V164.466H141.9ZM254.383 156.297V203.748H183.205V175.993H222.823V172.076H183.205V125.408H254.383V152.268H210.96V156.297H254.383ZM337.496 125.408V152.38H316.456V203.748H284.785V152.38H262.626V125.408H337.496ZM417.757 176.777V203.748H346.579V125.297H417.757V152.939H378.251V156.968H398.06V172.748H378.251V176.777H417.757ZM507.705 125.408V179.799H495.842L507.705 203.748H472.116L460.253 179.799V203.748H428.582V125.408H507.705ZM476.033 164.019V152.044H460.253V164.019H476.033ZM589.687 156.297V203.748H518.51V175.993H558.127V172.076H518.51V125.408H589.687V152.268H546.264V156.297H589.687Z" fill="#F5E2A0"/>
</svg>
