<svg width="40" height="40" viewBox="0 0 40 40" fill="none" xmlns="http://www.w3.org/2000/svg">
<rect x="0.113281" y="0.285156" width="39.107" height="39.107" fill="#282828"/>
<path d="M28.8937 15.555C28.2363 16.2124 27.3287 16.6004 26.399 16.6004C25.4693 16.6004 24.5989 16.2178 23.9415 15.5604C23.2841 14.9029 22.9148 14.0113 22.9148 13.0816C22.9148 12.1518 23.2841 11.2602 23.9415 10.6028L19.663 6.32422L15.3847 10.6028C16.0421 11.2602 16.4115 12.1518 16.4115 13.0815C16.4115 14.0113 16.0421 14.9029 15.3847 15.5603C14.7273 16.2177 13.8356 16.5871 12.9059 16.5871C11.9762 16.5871 11.0846 16.2177 10.4271 15.5603L6.14844 19.8386L10.4268 24.117C11.0843 23.4596 11.9759 23.0903 12.9056 23.0903C13.8354 23.0903 14.727 23.4596 15.3844 24.117C16.0418 24.7744 16.4112 25.6661 16.4112 26.5958C16.4112 27.5255 16.0418 28.4172 15.3844 29.0746L19.663 33.3532L23.9415 29.075C23.284 28.4176 22.9147 27.5259 22.9147 26.5962C22.9147 25.6665 23.2841 24.7749 23.9415 24.1174C24.5989 23.46 25.4905 23.0907 26.4203 23.0907C27.35 23.0907 28.2416 23.46 28.899 24.1174L33.1775 19.8388L28.8937 15.555Z" fill="#F5E2A0"/>
</svg>
