<svg width="74" height="75" viewBox="0 0 74 75" fill="none" xmlns="http://www.w3.org/2000/svg">
<path d="M36.7388 74.6273C36.6879 74.5682 36.6422 74.5073 36.5878 74.4519C32.6497 70.4339 28.7098 66.4176 24.7717 62.3997C24.7068 62.3334 24.6366 62.2762 24.5681 62.2135C28.2325 58.4998 28.0693 52.4701 24.2154 48.9479C21.0407 46.0467 15.6828 45.5903 11.9798 49.3148C8.15575 45.4149 4.3317 41.515 0.523438 37.6313C4.57564 33.4987 8.63662 29.3572 12.7046 25.2086C14.5368 27.0502 16.7901 27.9684 19.3875 27.8592C21.9199 27.7536 24.0609 26.6798 25.7299 24.7307C28.6958 21.2693 28.7765 15.8947 25.3175 12.3331C29.1398 8.43501 32.9621 4.53693 36.7616 0.662109C40.805 4.78749 44.8713 8.93256 48.9357 13.0776C45.217 16.8791 45.6031 22.9123 49.3727 26.3164C52.5931 29.223 57.9176 29.606 61.6153 25.8869C61.6679 25.9531 61.7153 26.0229 61.775 26.0838C65.4797 29.8637 69.1862 33.6437 72.8927 37.4219C72.9471 37.4773 73.0085 37.5257 73.0664 37.5776C73.0664 37.6062 73.0664 37.6348 73.0664 37.6635C73.0102 37.7136 72.9488 37.7619 72.8962 37.8174C68.951 41.839 65.0076 45.8605 61.0642 49.8839C61.0046 49.9448 60.9519 50.0128 60.8958 50.0772C57.2139 46.3098 51.3014 46.5335 47.874 50.453C45.0345 53.7015 44.6062 59.1495 48.2794 62.9491C48.2162 63.0046 48.1477 63.0565 48.0898 63.1174C44.3834 66.8955 40.6786 70.6755 36.9722 74.4554C36.9178 74.5109 36.8721 74.5718 36.8212 74.6308C36.7949 74.6273 36.7668 74.6273 36.7388 74.6273Z" fill="#F5E2A0"/>
</svg>
