<?xml version="1.0" encoding="UTF-8"?><svg id="Capa_1" xmlns="http://www.w3.org/2000/svg" width="269.52mm" height="269.17mm" viewBox="0 0 764 763"><defs><style>.cls-1{fill:#514c3c;}.cls-1,.cls-2,.cls-3,.cls-4,.cls-5,.cls-6,.cls-7,.cls-8,.cls-9,.cls-10,.cls-11,.cls-12,.cls-13{stroke-width:0px;}.cls-2{fill:#efd891;}.cls-3{fill:#f5de95;}.cls-4{fill:#f6de95;}.cls-5{fill:#2b2922;}.cls-6{fill:#f7df96;}.cls-7{fill:#534e3d;}.cls-8{fill:#514c3b;}.cls-9{fill:#f3dc93;}.cls-10{fill:#f2da93;}.cls-11{fill:#161514;}.cls-12{fill:#4f4b3b;}.cls-13{fill:#1a1916;}</style></defs><path class="cls-11" d="M338.99,306.58c16.47-4.12,31.6-7.91,46.73-11.69,9.52-2.38,19.04-4.72,28.55-7.14,2-.51,4.09-.67,4.71-3.55,5.74-26.42,23.35-42.62,46.83-53.45,13.58-6.26,27.76-10.26,43-9.08,15.04,1.17,26.87,9.07,38.22,18,4.2,3.3,7.89,7.2,11.16,11.41,1.98,2.56,4.29,3.75,7.29,2.61,3.96-1.5,5.5.24,6.13,3.87.57,3.28,1.47,6.5,1.91,9.79.42,3.11,1.59,4.17,4.92,3.6,6.82-1.18,7.58-.77,8.71,5.91,3.3,19.36,6.3,38.77,9.42,58.17.71,4.4-3.01,5.57-5.69,6.37-4.82,1.43-5.76,3.66-4.13,8.23,1.39,3.88,2.03,8.06,2.76,12.15.51,2.83,1.43,3.93,4.61,3.06,6.77-1.83,7.2-1.59,8.06,5.1,1.74,13.53,3.12,27.11,4.77,40.65.62,5.12,1.35,10.24,2.46,15.27.95,4.27-.03,7.02-4.39,8.32-2.51.75-2.73,2.25-2.36,4.92,3.79,27.71,9.52,55.08,14.24,82.62,2.19,12.79,4.71,25.53,7.58,38.18,1.08,4.74-.14,6.85-4.47,8.75-6.62,2.9-12.66,4.3-19.2-.39-2.86-2.06-4.42-4.25-4.88-7.54-1.29-9.23-2.68-18.45-3.88-27.69-.26-2.04-.99-3.24-2.88-4.15-16.6-7.98-34.19-13.78-50.57-23.64.02,4.89,1.17,8.84,1.91,12.84.47,2.58,2.58,3.22,4.64,3.97,10.72,3.92,22.16,19.72,20.75,31.49-.49,4.06-1.23,7.86-3.59,11.24-.85,1.22-1.75,2.2.04,3.7,13.18,11.06,15.15,25.6,12.04,41.32-.95,4.78-.34,7.71,3.25,11.51,15.18,16.07,18.11,45.13-4.16,65.73-15.11,13.98-33.57,21.27-53.27,25.86-34.42,8.02-66.16,1.32-95.17-18.29-12.73-8.6-24.11-18.89-26.35-35.35-1.84-13.56-1.08-26.76,9.97-36.96,1.97-1.82,2.35-3.41,1.42-6.05-6.91-19.5-3.27-36.39,13.11-49.75,1.8-1.47,1.42-2.43.71-4.09-1.44-3.35-3.02-6.72-3.86-10.24-2.41-10.14,2.97-21.39,12.26-26.75,2.97-1.71,7.22-2.01,8.8-5.09,2.62-5.12,4.06-10.8,5.27-17.41-11.04,4.59-21.39,8.9-31.75,13.18-22.91,9.47-45.82,18.93-68.74,28.37-2.37.98-4.46,1.53-3.45,5.17,6.25,22.62,9.31,45.99,15.71,68.55,5.19,18.3,8.53,36.92,12.14,55.54,1.2,6.17,3.46,12.15,5.48,18.13,1.3,3.86.86,6.61-3.03,8.71-3.34,1.8-6.33,4.19-9.73,6-3.74,1.99-6.43,1.02-9.65-.85-6.73-3.9-10.53-9.21-11.79-17.19-1.78-11.31-4.78-22.43-7.24-33.64-.38-1.74-.5-3.21-2.61-4.28-27.37-13.89-52.25-31.84-78.21-48.04-3.62-2.26-7.3-4.42-11.59-7.01,0,2.28,0,3.86,0,5.45q0,8.78-8.47,11.7c-2.68.91-5.4,1.69-8.1,2.52-7.14,2.19-12.88-1.74-12.13-8.98,1.84-17.87,4.16-35.7,6.29-53.54.24-1.98.34-3.99.72-5.95,1.41-7.35,1.05-13.76-4.52-20.05-5.65-6.37-5.35-14.73-2.96-22.81.46-1.56,2.01-3.18-.86-4.64-1.27-.65-.58-3.4-.4-5.23,1.72-18.21,5.07-36.28,5.54-54.57.18-6.87,3.67-9.87,9.22-10.94,6.62-1.28,8.64-4.99,7.83-11.1-.06-.49-.06-1.02.07-1.49,1.19-4.5.19-5.95-4.94-5-6.49,1.21-7.52-.79-7.6-7.15-.25-21.25,4.39-42.04,5.51-63.14.26-4.83,2.19-7.43,7.17-7.42.83,0,1.66-.15,2.48-.28,7.91-1.26,9.57-3.3,10-11.46.12-2.22-1.2-2.33-2.56-2.9-4.3-1.79-8.58-3.47-11.6-7.42-5.2-6.8-6.03-14.63-1.44-21.8,1.56-2.44,1.26-3.84-.3-6.03-19.13-26.76-16.96-69.16,8.39-92.95,9.96-9.35,22.26-12.64,35.77-12.83,28.52-.39,49.14,12.93,64.27,36.14,2.96,4.54,4.92,9.74,5.15,14.98.79,18.21,3.18,36.74-7.07,53.52-.77,1.26-.96,2.23.02,3.57,4.46,6.11,5.43,12.72,1.58,20.82ZM429.02,644.97c.04.13.05.28.11.39.04.07.18.07.27.11-.14-.15-.29-.3-.43-.46-.13-.07-.27-.15-.4-.22.15.06.3.12.45.18ZM310.02,540.98c.12.72.25,1.44.37,2.16.13-.08.34-.14.37-.25.24-.82-.02-1.46-.79-1.88-.09-1.39.49-2.95-1-3.99-.05-1.08-.11-2.15-.16-3.23-.84,1.17-1.12,2.29.2,3.2.1,1.39-.47,2.94,1.01,3.99ZM392.04,314l-.05.04c7.15-.19,13.71-3.09,20.62-4.42,1.87-.36,2.75-1.67,2.4-3.64-.02-.34-.04-.68-.06-1.02.27-.61.67-1.19.79-1.82,1.12-6.05-.03-7.05-5.7-5-2.5.9-4.93,2.03-7.47,2.8-19.87,6.02-40.12,10.59-60.4,14.95-14.42,3.1-28.68,6.98-43.29,9.16-1.65.25-2.85.9-2.93,2.78-.09,2.19.24,4.08,3.05,4.14,0,.33-.02.66-.05.99-1.08.28-3.23-.33-2.32,1.85.7,1.68,1.59,3.8,4.35,3.09,13.35-3.42,26.71-6.78,40.06-10.16-.03-.18-.05-.36-.08-.54-1.57-.17-3.14-.33-4.7-.5,16.7-5.33,34.73-4.04,50.7-11.82.94,1.43,1.95,1.47,3.02.14.82-.05,1.63-.13,2.04-1ZM588,514c.14.07.28.14.41.22-.14-.07-.28-.14-.42-.21.45-2.39-.86-3.64-2.88-4.43-3.77-1.49-7.54-2.98-11.3-4.48-12.86-4.9-25.23-10.86-37.35-17.56-1.02,2.47-.49,3.6,1.7,4.57,5.3,2.34,10.37,5.23,15.69,7.53,6.18,2.66,11.95,6.62,19.06,6.66,3.96,4.67,9.95,5.34,15.09,7.7ZM307.01,527.99c.06,1.06.12,2.12.21,3.57,1.14-1.6.9-2.64-.22-3.56-.6-12.84-5-24.77-8.57-36.92.52,5.43,1.33,10.82,2.74,16.04,1.89,6.97,2.89,14.19,5.84,20.87ZM576.15,352.05c-.43,4.91,1.98,9.3,2.54,14.04.14,1.22-.06,3.64,2.38,2.47,1.89-.91,5.76.22,5.11-3.78-.82-5.01-2.06-9.95-3.12-14.92-.18-1.54.75-3.8-.99-4.41-2.25-.79-4.48.89-6.26,2.05-1.59,1.04-1.31,3.13.35,4.56ZM349.61,308.41c-13.02,1.7-25.73,4.87-38.42,8.13-5.67,1.46-11.55,2.3-17.32,4.94.79.36,1.09.63,1.34.59,18.69-3.1,36.96-8.09,55.39-12.35,21.85-4.65,43.63-9.57,64.95-18.39-2.05-.5-3.31-.19-4.61.16-8.64,2.36-17.29,4.65-25.93,6.99-11.83,3.2-23.83,5.82-35.41,9.91ZM232.17,371c-.98,7.22-2.01,14.43-2.92,21.66-.21,1.68-1.12,3.94,1.75,4.3,2.39.29,4.38.2,5.08-3.16,1.4-6.67,1.57-13.48,2.8-20.15.66-3.56-1.4-3.9-4.09-3.54.63-1.48,2.42-.67,3.46-1.81-1.2-.23-2.26-.43-3.38-.64,8.89-2.36,4.35-10.43,6.72-15.43,1.35-2.86-2.49-1.64-3.95-2.92,1.41-.24,2.55-.12,3.31-.6,2.72-1.75,2.06-4.61,1.97-7.19-.05-1.31-1.11-1.55-2.17-1.26-3.05.83-6.42,1.51-6.48,5.63-.13,8.43-2.36,16.67-2.09,25.12ZM589.98,524.03c.16.06.31.13.47.19-.14-.08-.28-.16-.42-.25.58-2.84-.96-4.13-3.36-5.22-12.69-5.75-25.31-11.64-37.98-17.43-3.84-1.75-7.01-4.89-11.51-5.76-.53,3.51-.09,5.63,3.65,7.14,7.83,3.16,15.21,7.41,23.01,10.64,8.7,3.6,17.05,8.04,26.14,10.69ZM301.5,443.5c.56,5.97,2.91,11.49,4.29,17.25.39,1.64.98,2.23,2.72,1.56,3.09-1.2,6.23-2.28,9.38-3.29,1.73-.55,2.4-1.42,1.94-3.29-1.31-5.3-2.49-10.63-3.72-15.95-.77-6.22-.97-6.36-6.61-4.47-1.89.64-3.76,1.39-5.69,1.86-4.04.99-4.81,3.03-2.3,6.34ZM436.93,529.92c-6.96,3.15-10.08,9.41-10.61,16.19-.81,10.39,7.95,21.3,18.54,24.95,2.02,3.11,5.29,4.5,8.46,5.88,21.18,9.23,43.18,10.1,65.52,5.84,13.12-2.5,25.1-7.83,34.75-17.33,10.76-10.6,5.88-30.67-8.38-35.73.71,4.01,1.23,8.13,2.2,12.13,1.34,5.58-.65,9.71-4.87,13.15-2.47,2.01-5.06,3.78-7.99,5.02-19.5,8.25-39.73,10.36-60.6,7.2-9.14-1.38-17.39-5.4-25.98-8.44-2.94-2.35-6.12-4.37-8.84-7.04-3.77-3.71-5.92-7.63-4.13-13.08.91-2.78,2.39-5.47,2.12-8.57.13-.18.25-.37.38-.55-.18.13-.37.25-.55.38ZM229.02,450.02l-.04-.04c-2.11,1.98-6.79.56-6.89,5.17-.16,7.13-.04,14.28-1.06,21.37-.33,2.33.41,3.85,4.11,3.55-7.51,3.77-5.14,9.92-6.29,15.51,3.32-.85,6.5-.79,7.07-4.45.53-3.43.88-6.9,1.03-10.37.16-3.62,2.39-7.27-.03-10.88,4.12-4.25,2.63-9.98,3.74-14.98,1.39-6.23,1.66-12.71,2.42-19.1-2.65-.26-4.36.87-6.15,1.68-2.05.93-4.7,8.07-3.86,10.69,1.07,3.32,3.95,1.26,5.95,1.85ZM334.68,303.6c2.42-4.07,2-8.16.19-12.33-1-2.3-1.82-2.42-3.86-.74-4.44,3.67-9.1,7-14.37,9.61-11.98,5.92-24.57,7.56-37.67,6.75-2.44-1.98-4.91.44-7.56-.15-11.88-2.65-23.68-5.25-32.66-14.42-.82-.83-1.75-1.75-2.81-.19-2.64,3.88-4.22,7.8-1.74,12.49,2.83,5.36,7.37,8.34,12.93,10.11.24.08.65-.14.89-.34,4.85-3.9,10.92-3.34,16.5-4.58,2.19-.49,3.56.15,5.37,1.3,3.1,1.96,5.12,6.78,8.47,6.44,6.17-.64,12.33-.7,18.47-1.15,4.71-.34,9.33-2.16,13.91-3.57,1.56-.48,3.87-.14,4.32-2.6l1.92-.23c1.44,1.57,2.46,1.25,3.11-.69.63-.13,1.25-.26,1.88-.38,3.76,1.34,7.14-.63,10.6-1.42,1.65-.37,2.55-1.97,2.09-3.89ZM572.99,339.99c5.06.05,9.47-2.67,14.32-3.41,3.52-.54,4.02-2.34,3.48-5.5-1.65-9.64-3.29-19.3-4.45-29.01-.49-4.11-2.47-6.4-6.18-8.5,0,2.3-.11,4.07.02,5.83.63,8.49.58,16.92-2.12,25.12-1.69,5.16-3.38,10.32-5.07,15.47-.19.15-.38.3-.57.45.13.05.26.1.39.16.06-.21.11-.41.17-.62ZM298.92,612.22c2.43,4.04,6.8,5.53,10.55,7.67,6.31,3.59,12.08,8.28,19.62,10.69-.46-3.8.07-7.53-3.1-9.47-5.9-3.62-12.08-6.79-18.14-10.14-.44-1.46-1.86-1.85-2.95-2.5-19.19-11.34-39.54-20.66-58.08-33.11-4.46-2.99-8.22-1.65-13.28.51,21.73,10.51,40.48,24.45,61.1,35.22,1.28.67,2.85.77,4.28,1.13ZM592.58,445.19c-1.06,1.59-.37,3.22-.11,4.83.84,5.08,1.8,10.15,2.52,15.25,4.65,32.58,10.23,65,16.62,97.28.3,1.51-.46,5.13,2.62,4.09,2.44-.82,6.56-1.29,5.53-6.15-4.14-19.51-6.98-39.26-10.74-58.84-3.32-17.31-7.13-34.5-8.44-52.13-.16-2.17.16-4.69-1.58-6.58-.21-1.66.95-4.24-1.32-4.64-2.2-.39-4.54,1.07-6.05,2.8-1.18,1.35-1,3.1.95,4.08ZM287.97,454.97c-.61-2.73-1.26-5.45-1.81-8.19-.39-1.96-.51-4.73-2.37-5.17-6.24-1.46-6.85-6.32-7.91-11.24-.52-2.39-1.33-4.91-2.73-6.85-.99-1.36-9.75,3.34-10.36,5.39-1.72,5.73-1.96,11.7-2.74,17.57-.28,2.09-2.35,4.34-.06,6.5,0,.31,0,.62,0,.93-.56.59-1.54,1.12-1.63,1.77-1.23,9.15-2.34,18.31-3.59,28.29,11.83-5.59,23.45-9.48,34.74-14.18,3.59-1.5,3.31-4.36-.43-8-.02-.58-.04-1.16-.06-1.74.05-1.47.4-3.01-.97-4.16-.03-.31-.06-.61-.09-.92ZM463.11,406.92c2.24,1.89,4.96,2.53,7.76,3.11,22.71,4.67,44.69,1.71,66.09-6.48,7.5-2.87,13.21-8.25,17.27-15.21,2.62-4.49,2.66-9.19.39-13.84-.79-1.63-1.68-2.55-3.72-.83-13.65,11.54-29.91,15.68-47.35,17.44-17.52,1.76-33.79-.59-48.69-10.32-.9-.59-1.75-.91-2.78-.49-.21-1.34-1.24-1.95-2.32-2.37-5.54-2.17-9.93-6.04-14.15-9.97-2.9-2.71-3.9-.93-5.08,1.22-3.83,6.98-3.14,13.9,1.36,20.14,7.63,10.59,19.14,14.69,31.22,17.62ZM325.94,556.99c2.13,10.76,3.98,21.59,6.46,32.28,8.38,36.14,16.99,72.23,25.49,108.34,1.48,6.31,1.89,6.67,7.53,3.02,2.96-1.91,8.03-2.65,6.18-8.5-4.93-15.59-6.49-31.93-10.38-47.74-5.05-20.5-11.11-40.76-15.73-61.38-2.25-10.05-3.36-20.35-6.39-30.23.08-4.07-1.28-5.58-5.31-3.3-1.99,1.13-4.27,1.74-6.43,2.57-2.66,1.02-3.07,2.68-1.42,4.94ZM323.97,449.96c-1.99,1.88-.87,3.79.3,5.32,1.18,1.55,2.77.22,4.1-.21,7.25-2.37,14.52-4.71,21.7-7.28,2.52-.9,4.71-2.19,6.82-4.33,5.14-5.22,11.41-9.06,19.11-9.6-.02.36-.03.73-.05,1.09-4.86,1.82-10.02,3.1-14.32,7.55,2.77.79,4.52-.37,6.28-.94,26.23-8.55,52.12-18.04,78.05-27.44,1.76-.64,4.87-.75,4.35-3.07-.53-2.34-3.42-.63-5.25-.92-.34-.36-.68-.71-1.03-1.07-.32-2.85-2.06-3.83-7.06-3.96l.04-1.05c-6.33-7.5-7.2-7.75-15.84-4.98-14.21,4.56-28.47,8.97-42.63,13.66-8.64,2.86-17.52,5.03-25.76,9.04-1.05.15-2.18.09-2.94,1.06-10.3,2.04-19.92,6.35-30.01,9.1-1.06.29-2.13.92-1.61,2.02,1.3,2.72.54,6.37,3.68,8.24.03.61.06,1.23.09,1.84.29,1.77-1.38,4.35,2,4.86-.01.36-.02.72-.03,1.08ZM370.97,406.98c13.64-4.78,27.29-9.57,41.42-14.52-1.06-1-1.35-1.43-1.75-1.63-17.66-8.6-33.29-20.63-50.62-29.77-6.71-3.54-12.4-8.85-19.8-11.15-3.55-4.95-9.19-6.93-14.16-9.82-.73-.43-1.98-.24-2.92-.01-16.33,3.92-32.64,7.9-48.96,11.86-1.12.27-2.62.35-2.25,1.98,1.58,6.8,3.28,13.57,4.99,20.34.1.38.66.76,1.09.91,6.16,2.16,11.17,6.35,17.17,10.19-.02-3.08-1.19-6.61,2.3-7.2,3.18-.54,6.14,1.61,7.87,4.03,2.49,3.5,0,6.25-3.38,8.5,14.4,7.58,28.26,14.79,42.02,22.19,2.61,1.4,4.83,1.45,7.54.48,6.42-2.28,12.94-4.27,19.43-6.37ZM429.05,658.29c.13-2.15-1.64-3.12-2.76-4.51-4.52-5.6-8.79-11.47-9.09-18.93-.15-3.78-1.33-6.68-3.8-9.39-.46.31-.92.51-1.25.86-.68.72-1.3,1.51-1.94,2.27-7.66,9.24-5.86,20.11-4.53,30.5,1.46,11.33,10.05,18.2,18.36,24.91,11.23,9.51,24.36,15.79,38.21,19.82,32.04,9.33,62.61,3.88,91.69-11.56,11.26-5.98,20.6-14.03,26.21-25.85,5.43-11.44,2.19-31.45-6.74-40.25-.85-.84-2.02-3.31-3.33-1.32-1.67,2.52-4.35,4.99-3.68,8.43.82,4.19-.27,7.98-1.94,11.61-5.74,12.49-16.51,19.1-28.59,24.18-18.11,7.6-37.06,9.06-56.38,7.87-17.87-1.1-34.41-5.82-48.19-17.92-.67-.59-1.38-.88-2.26-.72ZM276.01,186.12c-.51-1.12-1.52-1.13-2.53-1.15-14.91-.34-27.32,4.88-36.4,16.93-10.46,13.88-13.99,29.68-13.21,46.91,1,22.23,11.17,38.33,31.35,47.29,16.37,7.27,33.75,7.17,50.59,1.88,10.9-3.42,21.31-8.75,26.23-20.44,3.9-3.95,4.71-9.14,5.68-14.26.1-3.74.2-7.48.3-11.22,1.43-8.94,2.26-18.05-.67-26.68-7.25-21.36-23.5-33.19-44.31-39.24-5.35-1.56-11.37-2.91-17.04,0ZM458.79,554.07c.9,1.41,2.47,1.54,3.86,2.01,12.03,4.07,24.45,4.75,36.98,4.03,11.2-.64,22.11-2.79,32.45-7.25,8.57-3.69,9.85-5.71,7.65-14.45-1.7-6.74-4.83-13.11-6.54-19.85-4.39-17.34-5.73-35.1-6.04-52.92-.28-16.14-.18-32.29-.12-48.43.01-2.72-.33-3.92-3.48-3.09-18.31,4.84-36.8,5.24-55.41,1.98-2.69-.85-5.41-1.62-8.06-2.59-2.79-1.02-3.39.39-2.98,2.63,1.18,6.54,1.61,13.14,2.13,19.75,1.43,18.09,1.67,36.13-1.76,54.03-3.36,17.52-9.66,34.12-16.33,50.59-.75,1.84-2.08,3.64.33,5.24,5.39,3.57,10.61,7.47,17.31,8.31ZM445.98,581.86c-5.12-3.63-10.28-7.21-15.35-10.91-1.37-1-2.37-.93-3.43.26-6.34,7.16-12.05,14.5-12.36,24.82-.27,9.1,1.76,17.6,6.04,25.38,4.89,8.89,10.75,17.19,20.38,21.8.72,1.45,2.13,2.06,3.44,2.75,13.61,7.11,27.93,11.24,43.47,11.12,11.72-.09,23.14-1.83,34.55-4.21,1.85-.38,4.87-1.76,5.7,1.08.86,2.95-2.02,4.29-4.27,5.24-4.92,2.07-10.13,3.1-15.43,3.79-21.64,2.81-42.8,1.8-62.93-7.68l-14.28-7.94c3.4,6.01,7.9,10.56,14.45,12.65.92,1.84,2.82,2.27,4.47,2.95,24.94,10.28,50.28,9.74,75.78,2.51,10.02-2.84,19.38-7.13,27.02-14.47,3.21-3.08,6.12-6.39,6.92-12.05-2.28,2.08-3.83,3.54-5.44,4.95-4.26,3.74-8.54,7.47-13.8,9.78-1.38.6-3.25,2.06-4.42,0-1-1.76,1.01-2.54,2.05-3.45,1.5-1.31,3.17-2.44,4.71-3.71,13.69-11.29,23.58-24.81,25.37-43.11,1.08-11.1-.75-21.21-9.4-29.21-2.01-1.86-3.29-2.25-5.78-.33-16.31,12.6-35.25,17.49-55.51,17.95-18.01.41-35.44-2.47-51.96-9.95ZM454.84,372.07c1.8,3.38,5.66,2.81,8.46,4.29,12.92,6.81,26.76,10.04,41.39,8.54,19.32-1.98,36.5-8.22,48.3-25.02,15.76-22.45,23.19-46.84,18.19-74.33-.36-2-1.03-3.81-1.88-5.63-7.95-17.11-21.9-28.56-36.88-38.98-5.5-3.82-11.49-6.7-18.41-6.9-5.03-3.21-10.73-3.73-16.27-2.83-14.85,2.42-28.87,7.04-41.62,15.55-14.63,9.77-24.11,22.43-28.75,39.66-3.8,14.13-4.35,27.97-2.44,42.21,2.01,14.95,6.91,28.3,19.95,37.29,3.21,2.21,5.56,5.85,9.96,6.15ZM300.59,475.22c2.44,9.32,4.86,18.64,7.33,27.95.39,1.46,1.87,1.81,2.98,2.47,13.02,7.72,27.06,13.36,40.52,20.18,5.57,2.83,10.33,3.23,16.28.43,13.21-6.23,26.87-11.52,40.34-17.21,1.19-.5,2.87-.61,3.09-2.16.3-2.08-1.81-2.07-2.99-2.73-3.62-2.03-7.33-3.9-10.99-5.87-14.76-7.95-30.3-14.42-44.57-23.31-5.92-3.69-11.86-7.34-17.81-10.99-1.43-.88-2.88-1.67-4.68-1.06-9.12,3.11-18.24,6.21-27.36,9.31-1.41.48-2.39,1.19-2.15,2.98ZM326.3,616.25c-5.13-19.77-10.52-38.76-14.2-58.15-.51-2.7-1.84-2-3.56-1.58-11.59,2.84-23.25,3.81-35.08,1.41-8.97-1.82-17.53-4.93-26.18-8.12-1.88,6.41-.84,12.85-2.07,19.05-.34,1.74.82,2.26,2.02,2.92,15.51,8.67,31,17.35,46.49,26.06,10.64,5.99,21.26,12.02,32.58,18.42ZM261.42,333.82c-2.15,12.32-4.15,24.67-6.48,36.96-3.12,16.47-4.18,33.21-6.84,49.74-2.06,12.78-3.33,25.67-3.98,38.56-.84,16.77-2.98,33.4-5.54,49.92-2.87,18.51-4.93,37.12-7.49,55.66-1.06,7.66.09,8.31,7.16,5.83,2.11-.74,2.9-1.84,2.8-3.98-.1-2.16-.14-4.35.1-6.49,2.96-26.02,5.91-52.04,8.99-78.04,3.08-26.02,8.82-51.61,12.51-77.53,1.02-7.19,3.46-14.33,2.09-21.7-1.69-9.14-1.57-18.5-3.66-27.59-.32-1.4-.47-3.13.75-4.28,6.16-5.77.44-11.36-.43-17.07ZM577,447.24c-.69.08-1.05.05-1.34.17-9.27,4.07-18.54,8.13-27.79,12.23-4.53,2.01-10.66,2.95-13.08,6.45-2.65,3.83.43,9.92.36,15.06,0,.5.07,1,.09,1.49.05,1.34.79,1.93,2.01,2.46,9.11,4,18.1,8.3,27.28,12.13,7.07,2.95,14.36,5.34,22.04,8.16-3.23-19.99-7.47-38.9-9.57-58.17ZM217.7,602.44c.2,2.9.09,4.94.56,6.84.36,1.47,1.7,2.64,3.35,2.5,1.59-.13,1.27-1.67,1.38-2.77,1.62-16.82,3.02-33.67,4.84-50.48,2.04-18.95,4.86-37.79,7.54-56.64,2.28-16.08,4.6-32.2,5.4-48.36,1.1-21.93,5.03-43.46,7.66-65.14,2.35-19.35,5.95-38.62,10.19-57.71.8-3.59-2.95-9.15-6.47-9.89-1.55-.32-1.68.94-1.83,1.73-.84,4.39-1.81,8.78-2.25,13.22-1.74,17.81-4.93,35.43-6.52,53.28-1.46,16.32-3.33,32.63-4.46,48.98-1.13,16.39-3.64,32.61-5.79,48.85-2.04,15.44-3.69,30.91-5.32,46.39-1.47,14-2.99,28-4.65,41.98-1.11,9.37-2.49,18.72-3.64,27.21ZM288.5,552.92c5.01.75,9.91-.51,14.85-1.05,6.47-.71,6.4-.87,3.72-6.81-.88-1.95-1.48-4.05-2.06-6.12-1.63-5.91-3.39-11.8-4.69-17.79-.6-2.75-1.47-3.11-3.97-2.23-3.75,1.32-7.67,1.98-11.7,2.05-10.47.19-19.92-3.3-28.9-8.18-3.78-2.06-4.48-.59-4.81,2.82-.25,2.65,1.25,3.29,3.27,4.09,13.69,5.44,28.02,7.84,42.57,9.28,1.41.14,3.92-.95,3.83,1.69-.07,1.94-2.32,2.03-3.94,2.25-.82.11-1.66.05-2.49.07-14.02.46-27.41-2.18-39.97-8.51-3.09-1.56-4.29-1.48-4.35,2.47-.06,4.28-.53,8.62-1.45,12.8-.72,3.29.28,4.66,3.33,5.24,1.62.31,3.18.95,4.8,1.29,10.64,2.26,20.58,7.86,31.96,6.62ZM283.55,514.98c2.16,0,4.34.2,6.47-.04,7.18-.79,7.67-1.64,6.26-8.87-1.83-9.4-3.62-18.8-5.28-28.23-.48-2.7-1.35-3.73-4.24-2.72-10.18,3.56-20.1,7.77-29.97,12.08-1.64.72-2.58,1.94-2.74,3.81-.28,3.29-.58,6.59-1.07,9.86-.49,3.2.44,5.54,3.5,6.83,8.7,3.67,17.29,7.75,27.09,7.28ZM604.12,422.83c-4.25-18.59-4.84-36.29-7.32-53.92-11.13,4.15-21.69,8.09-32.26,12.03-1.39.52-2.66.92-3.27,2.66-3.63,10.3-3.68,10.28,5.62,16.28,1.68,1.08,3.31,2.23,5.01,3.27,10.29,6.3,20.6,12.59,32.21,19.68ZM231.44,578.31c-1.54.05-1.74,1.16-2.08,2.04-.55,1.42-.19,2.65,1.17,3.42,2.02,1.16,4.1,2.2,6.1,3.39,30.3,17.94,58.39,39.46,89.87,55.49,1.57.8,3.66,3.37,5.05,1.37,1.35-1.94-.18-4.74-1.52-6.84-.4-.63-1.37-.9-2.09-1.31-3.05-1.69-6.18-3.26-9.16-5.06-28.16-16.97-56.3-33.98-84.44-50.97-.99-.6-2.03-1.09-2.89-1.55ZM316.54,557.98c.3,1.63.54,3.27.9,4.89,3.2,14.41,7.03,28.66,10.35,43.03,6.46,27.92,12.12,56.02,18.11,84.05.42,1.94.53,4.01,1.29,5.81.82,1.95,2.93,3.06,4.84,2.78,1.67-.24.84-2.13.57-3.35-4.18-18.93-8.02-37.94-12.65-56.76-4.47-18.19-8.7-36.42-12.52-54.76-1.82-8.76-3.6-17.52-5.3-26.3-.36-1.87-1.2-2.76-3.02-2.2-1.31.41-3.13.62-2.57,2.81ZM607.12,566.3c-1.23-6.98-2.46-13.61-3.57-20.27-2.95-17.63-6.33-35.18-8.65-52.92-2.01-15.42-4.41-30.78-6.73-46.16-.25-1.63.55-4.85-2.98-3.47-2.49.98-6.16,1.18-5.03,5.8,1.61,6.59,2.96,13.24,4.13,19.94,5.23,29.83,13.3,59.14,15.89,89.45.32,3.69,1.37,7.31,6.93,7.64ZM414.49,433.55c12.59,6.09,24.14,11.54,35.56,17.28,3.08,1.55,3.04.01,2.96-2.09-.37-8.95-.77-17.89-1.19-27.48-12.4,4.09-24.45,8.05-37.32,12.29ZM280.9,343.02c3.86-1,7.72-2.01,11.58-3.01,1.33-.35,1.22-1.22.99-2.31-1.05-5.04-2.04-10.1-3.01-15.16-.37-1.92-1.08-3.16-3.33-2.22-3.46,1.45-7.1,1.66-10.79,1.6-1.49-.02-2.73.19-2.2,2.18,1.48,5.63,2.94,11.26,4.46,16.88.3,1.1.62,2.36,2.29,2.04ZM419.04,339.38c-2-6.7-4.24-12.24-4.07-18.29.04-1.42-.79-2.32-2.19-2-7.1,1.64-14.17,3.39-22.35,5.36,9.69,5.87,18.59,10.21,28.61,14.92ZM266.19,356.91c2.52,27.02,8.46,53.27,17.58,78.79-5.06-26.45-9.99-52.92-17.58-78.79ZM238.06,598.86c1.35-4.82-1.33-7.98-6.22-10.05-1.89-.8-2.88-.57-3.09,1.48-.63,6.09-1.22,12.19-1.76,18.3-.16,1.75.57,2.17,2.43,1.83,7.13-1.3,8.45-2.84,8.64-11.55ZM293.41,440.58c-2.9-.01-4.18,1.87-3.25,5.42,1.54,5.93,3.03,11.87,4.59,17.8.37,1.42.23,4.18,2.71,2.63,1.55-.96,5.2-.49,4.17-4.33-1.71-6.4-3.19-12.87-4.86-19.28-.31-1.18-.61-2.76-3.36-2.24ZM549.03,450.44c-4.32-2.61-8.54-5.18-12.79-7.7-1.25-.74-3-1.99-2.97.89.04,4.29-.79,9.28,1.14,12.56,1.03,1.76,6.24-1.98,9.62-3.09,1.67-.54,3.55-.91,5-2.67ZM565.37,355.62c.95,4.86,1.86,8.9,2.5,12.99.3,1.92.24,3.99,3,3.2,2.03-.58,4.64-.55,3.59-4.39-1.3-4.76-1.71-9.77-2.45-14.69-.2-1.32-.04-2.95-1.59-3.33-1.78-.44-2.62,1.14-3.33,2.45-.77,1.44-1.37,2.97-1.74,3.77ZM274.44,342.32c-.94-5.37-1.73-10.77-2.96-16.07-.25-1.08.78-4.11-2.08-3.34-2.02.55-4.99,1.26-4.32,4.48,1.11,5.34,2.54,10.6,3.82,15.9.5,2.07,2.07,1.85,3.56,1.63,1.45-.21,2.53-.86,1.98-2.6ZM220.67,524.25c.46.01.92.02,1.39.03.68-7.53,1.4-15.06,2-22.6.09-1.12,1.71-2.76-.31-3.37-1.71-.51-3.38.58-3.94,2.27-2.66,8.03-3.26,16,.86,23.67ZM272.4,317.63c-6.33-5.05-12.36-5.4-19.23-1.32q9.69,7.08,19.23,1.32ZM225.03,407.28c1.8-22.09,5.88-43.97,5.84-66.17-3.06,21.98-5.18,44.03-5.84,66.17ZM216.4,486.77c3.29-16.35,2.74-33.12,4.33-49.71-2.58,16.44-3.93,32.98-4.33,49.71ZM562.47,360.72c-2.28,2.58-3.64,4.25-5.14,5.79-.94.96-1.6,1.98-.24,2.82,2.25,1.38,1.72,5.26,4.96,5.5,1.33.1,1.93-.98,1.75-2.41-.43-3.4-.78-6.82-1.33-11.68ZM228.16,407.37c5.79.26,7.46-2.89,7.74-7.32.09-1.5-.69-1.88-2.16-1.85-6.69.16-4.12,5.6-5.58,9.17ZM264.83,412.94c-.11,2.81.89,2.97,3.33,2.11,3.4-1.2,2.6-3.6,1.68-5.51-.99-2.06.57-6.03-2.56-5.99-2.31.04-.85,3.66-1.5,5.58-.42,1.24-.64,2.54-.95,3.82ZM264.46,421.13c2.7-.45,5.42-.85,8.67-3.31-3.98.49-6.66,1-8.67,3.31ZM296.81,484.62c.43-3.91-.66-6.67-1.51-10.81-.46,4.43-.57,7.47,1.51,10.81ZM297.51,488.34c.14-.3.37-.57.36-.84,0-.27-.24-.54-.37-.8-.13.27-.36.53-.36.8,0,.27.23.54.37.85ZM265.48,354.38c.1-.06.26-.11.29-.19.04-.11-.02-.26-.04-.39-.15.09-.3.17-.45.26l.2.33ZM360.03,443.23c-.12.08-.24.16-.36.24.21.09.43.18.64.27.03-.12.13-.29.09-.33-.08-.09-.24-.12-.37-.18Z"/><path class="cls-6" d="M514.01,234.03c6.92.2,12.91,3.08,18.41,6.9,14.99,10.42,28.93,21.87,36.88,38.98.85,1.82,1.52,3.64,1.88,5.63,5.01,27.5-2.43,51.88-18.19,74.33-11.8,16.81-28.98,23.04-48.3,25.02-14.63,1.5-28.47-1.73-41.39-8.54-2.8-1.48-6.66-.91-8.46-4.29.21-2.12-1.01-3.81-1.71-5.64-11.97-31.07-10.77-61.35,4.78-91.06,9.67-18.48,24.09-31.06,43.76-37.77,4.06-1.39,8.45-1.61,12.35-3.56Z"/><path class="cls-3" d="M445.79,655.29c20.13,9.48,41.29,10.49,62.93,7.68,5.3-.69,10.51-1.71,15.43-3.79,2.25-.95,5.13-2.29,4.27-5.24-.83-2.84-3.86-1.46-5.7-1.08-11.41,2.37-22.83,4.12-34.55,4.21-15.54.12-29.85-4-43.47-11.12-1.31-.69-2.72-1.29-3.44-2.75,1.16-3.08-.24-5.86-1.2-8.61-2.3-6.58-4.22-13.22-4.58-20.24-.63-12.17-.04-23.94,10.51-32.5,16.52,7.48,33.95,10.36,51.96,9.95,20.26-.46,39.19-5.35,55.51-17.95,2.48-1.92,3.77-1.53,5.78.33,8.65,8,10.48,18.11,9.4,29.21-1.79,18.3-11.68,31.83-25.37,43.11-1.54,1.27-3.21,2.39-4.71,3.71-1.04.91-3.06,1.7-2.05,3.45,1.17,2.05,3.04.6,4.42,0,5.25-2.3,9.54-6.04,13.8-9.78,1.61-1.41,3.16-2.87,5.44-4.95-.8,5.66-3.71,8.97-6.92,12.05-7.65,7.34-17,11.62-27.02,14.47-25.5,7.24-50.84,7.77-75.78-2.51-1.65-.68-3.55-1.11-4.47-2.95,1.57-1.63,0-3.14-.17-4.71Z"/><path class="cls-6" d="M468.14,416.1c18.61,3.25,37.11,2.85,55.41-1.98,3.15-.83,3.49.37,3.48,3.09-.06,16.14-.16,32.29.12,48.43.31,17.82,1.65,35.58,6.04,52.92,1.7,6.74,4.84,13.11,6.54,19.85,2.21,8.74.92,10.76-7.65,14.45-10.35,4.46-21.26,6.6-32.45,7.25-12.54.72-24.95.04-36.98-4.03-1.39-.47-2.96-.6-3.86-2.01,4.11-6.51,6.26-13.89,9.29-20.88,5.78-13.33,8.1-27.28,7.95-41.8-.27-25.36-3.88-50.34-7.89-75.29Z"/><path class="cls-7" d="M332.05,277.53c-4.92,11.7-15.33,17.02-26.23,20.44-16.84,5.29-34.22,5.39-50.59-1.88-20.17-8.96-30.35-25.06-31.35-47.29-.78-17.23,2.75-33.03,13.21-46.91,9.08-12.05,21.48-17.26,36.4-16.93,1.01.02,2.02.03,2.53,1.15-5.34,8.54-5.24,17.57-2.43,26.84,1.62,5.35,5.79,8.83,9.5,12.62,2.41,2.46,5.35.72,8.08.68,2.04-.03,4.04.5,5.57,1.85,3.08,2.72,4.66,6.16,3.34,10.23-1.11,3.41-4.04,3.96-7.29,3.83-1.46-.06-3.25-2.39-4.32-.04-.76,1.67.42,3.56,1.39,5.1.7,1.1,1.66,2.08,2.65,2.96,12.42,11.04,32.34,11.85,45.53,1.87-.1,3.74-.2,7.48-.3,11.22-3.12-2.57-6.33-2.36-9.58-.28-2.66,1.7-3.67,4.2-3.1,7.23.73,3.91,2.88,6.58,6.99,7.31ZM249.96,232.85c-.08,6.76,7.97,14.09,15.55,14.16,5.84.05,10.54-4.59,10.53-10.4-.02-6.78-7.31-13.6-14.7-13.76-6.48-.14-11.31,4.1-11.37,9.99ZM261.69,198.19c-.43-1.45-1.07-2.85-2.84-2.92-1.18-.04-1.74.94-1.64,2.03.14,1.53.6,3.11,2.41,3.26,1.34.11,1.93-1.03,2.07-2.36Z"/><path class="cls-10" d="M429.05,658.29c.88-.15,1.58.13,2.26.72,13.78,12.1,30.32,16.82,48.19,17.92,19.32,1.19,38.27-.27,56.38-7.87,12.09-5.07,22.85-11.69,28.59-24.18,1.67-3.63,2.76-7.42,1.94-11.61-.68-3.45,2-5.92,3.68-8.43,1.32-1.98,2.48.48,3.33,1.32,8.92,8.81,12.16,28.81,6.74,40.25-5.61,11.82-14.95,19.86-26.21,25.85-29.08,15.44-59.65,20.9-91.69,11.56-13.85-4.03-26.98-10.32-38.21-19.82,4.09-2.64.49-6.79,1.96-9.94,1.64-.41,2.36.98,3.34,1.78,4.42,3.58,9.2,6.55,14.34,9,21.5,10.22,43.91,11.44,66.85,6.61,21.11-4.45,38.73-15.6,54.77-29.52,5.58-4.84,8.53-10.99,8.01-18.54-.07-1.07.1-2.55-1.91-2.14.59,3.25-.36,6.12-2.05,8.89-2.81,4.63-6.42,8.49-10.73,11.71-19.05,14.23-40.06,23.5-63.99,25.73-21.5,2.01-41.43-1.95-59.28-14.52-2.29-1.61-4.74-3.15-5.89-5.94.45-2.97-2.35-5.79-.41-8.83Z"/><path class="cls-4" d="M370.97,406.98c-6.48,2.11-13.01,4.09-19.43,6.37-2.71.96-4.93.92-7.54-.48-13.76-7.4-27.62-14.61-42.02-22.19,3.38-2.25,5.87-5,3.38-8.5-1.72-2.42-4.69-4.57-7.87-4.03-3.49.59-2.32,4.12-2.3,7.2-6-3.85-11.01-8.03-17.17-10.19-.43-.15-1-.53-1.09-.91-1.71-6.77-3.41-13.54-4.99-20.34-.38-1.63,1.12-1.71,2.25-1.98,16.32-3.96,32.63-7.93,48.96-11.86.93-.22,2.18-.42,2.92.01,4.97,2.9,10.61,4.88,14.16,9.82-.49,3.21,1.33,5.74,2.61,8.37,4.53,9.34,10.3,18.11,18.16,24.69,7.91,6.62,8.55,15.25,9.98,24.01Z"/><path class="cls-3" d="M300.59,475.22c-.24-1.78.75-2.5,2.15-2.98,9.12-3.1,18.24-6.2,27.36-9.31,1.79-.61,3.25.18,4.68,1.06,5.94,3.65,11.89,7.3,17.81,10.99,14.27,8.89,29.81,15.35,44.57,23.31,3.66,1.97,7.36,3.85,10.99,5.87,1.18.66,3.29.65,2.99,2.73-.23,1.54-1.9,1.65-3.09,2.16-13.47,5.68-27.12,10.98-40.34,17.21-5.95,2.8-10.71,2.4-16.28-.43-13.46-6.82-27.51-12.46-40.52-20.18-1.11-.66-2.6-1.01-2.98-2.47-2.47-9.31-4.89-18.63-7.33-27.95ZM332.29,506.08c.65-2.81-3.27-3.31-4.03-5.69-.46-1.44-.31-3.19-2.38-2.99-1.82.18-2.84,1.63-3.31,3.3-1,3.58-.72,6.82,2.6,9.28,1.41,1.05,2.74,1.82,4.52,1.12,2.03-.8,2.36-2.57,2.61-5.04Z"/><path class="cls-4" d="M338.03,252.05c-13.19,9.98-33.11,9.18-45.53-1.87-.99-.88-1.95-1.85-2.65-2.96-.98-1.53-2.15-3.43-1.39-5.1,1.07-2.35,2.85-.02,4.32.04,3.25.13,6.19-.41,7.29-3.83,1.32-4.07-.26-7.51-3.34-10.23-1.53-1.35-3.53-1.89-5.57-1.85-2.73.05-5.67,1.78-8.08-.68-3.7-3.78-7.88-7.27-9.5-12.62-2.81-9.27-2.91-18.3,2.43-26.84,5.67-2.9,11.68-1.55,17.04,0,20.81,6.05,37.06,17.89,44.31,39.24,2.93,8.64,2.1,17.74.67,26.68Z"/><path class="cls-7" d="M514.01,234.03c-3.89,1.96-8.29,2.18-12.35,3.56-19.67,6.71-34.09,19.29-43.76,37.77-15.55,29.72-16.75,59.99-4.78,91.06.71,1.83,1.92,3.53,1.71,5.64-4.39-.31-6.75-3.94-9.96-6.15-13.04-8.99-17.94-22.34-19.95-37.29-1.91-14.25-1.36-28.08,2.44-42.21,4.64-17.24,14.12-29.89,28.75-39.66,12.75-8.52,26.77-13.14,41.62-15.55,5.54-.9,11.24-.38,16.27,2.83Z"/><path class="cls-8" d="M352.79,421.75c8.24-4,17.13-6.17,25.77-9.03,14.17-4.69,28.42-9.11,42.63-13.66,8.64-2.77,9.5-2.51,15.84,4.98-12.28,3.17-25.14,3.88-37.08,8.55,4.89-.54,9.64-1.81,14.45-2.7,7.57-1.39,15.38-1.76,22.59-4.8,5,.14,6.74,1.12,7.06,3.96-3.65.82-7.14,2.3-12.29,2.13,5.69,2.56,9.5.72,13.32-1.06,1.82.29,4.72-1.42,5.25.92.52,2.32-2.6,2.43-4.35,3.07-25.93,9.4-51.82,18.89-78.05,27.44-1.76.57-3.51,1.73-6.28.94,4.3-4.46,9.46-5.73,14.32-7.55,2.94-.73,5.93-1.33,9.61-4.04-4.29.61-6.99,1.56-9.57,2.95-7.7.54-13.97,4.38-19.11,9.6-2.11,2.15-4.3,3.43-6.82,4.33-7.18,2.57-14.45,4.91-21.7,7.28-1.33.43-2.92,1.76-4.1.21-1.17-1.53-2.29-3.44-.3-5.32,4.02-1.53,8.4-2.14,12.06-4.63-4.2.57-8.49.78-12.03,3.55-3.37-.51-1.71-3.09-2-4.86,10.63-2.83,20.22-8.15,30.22-12.5-10.57,2.28-20.12,7.38-30.31,10.66-3.15-1.87-2.38-5.52-3.68-8.24-.52-1.09.55-1.73,1.61-2.02,10.09-2.75,19.7-7.06,30.01-9.1l.18.23c-.12.58-.87,1.39-.09,1.69,1.54.59,2.43-.48,3.08-1.75l-.04.03,2.24-.2v-.59c-.72-.06-1.45-.12-2.18-.18l-.26-.29ZM382.99,426.99c.37-.24,1.4.49,1.11-.74-.36.25-.73.51-1.09.76-.34.24-1.33-.43-1.03.73l1.02-.74ZM418.86,414.27c-6.44.87-12.31,3.5-18.15,6.2,6.39-1,12.37-3.28,18.15-6.2ZM389.61,423.69c.12.43.23.85.35,1.28,2.86-.89,5.95-1.16,8.06-4.11-2.8.95-5.61,1.89-8.41,2.84ZM336.72,428.5c.28.15.54.38.79.38.25,0,.5-.24.75-.38-.25-.14-.5-.37-.75-.38-.25,0-.51.23-.79.38ZM388.29,430.54c-.27-.16-.52-.43-.78-.44-.27,0-.54.24-.81.37.25.15.5.42.76.43.27.01.54-.23.83-.37ZM397.32,413.37c-.12-.05-.26-.15-.37-.12-.43.11-.46.32-.05.51.1.05.28-.01.38-.08.06-.04.03-.2.04-.31ZM341.07,427.76c.11-.07.21-.15.32-.22-.09-.09-.24-.28-.26-.26-.15.1-.28.23-.41.36.12.04.23.09.35.13ZM387.3,425.36c-.13-.04-.27-.15-.37-.12-.44.12-.46.33-.05.52.1.05.28-.01.38-.08.06-.04.03-.21.04-.31ZM354.64,430.37c.03.12.01.29.09.34.11.07.28.06.43.09-.04-.2-.08-.39-.12-.59-.13.05-.27.1-.4.16ZM343.69,426.38c.02.11.01.26.08.31.1.07.25.06.38.08-.03-.17-.07-.35-.1-.52-.12.05-.24.09-.36.14ZM347.31,425.62c-.02-.11-.01-.27-.08-.31-.1-.07-.26-.06-.39-.08.04.18.07.35.11.53.12-.05.24-.09.36-.14Z"/><path class="cls-7" d="M468.14,416.1c4.01,24.95,7.62,49.93,7.89,75.29.15,14.52-2.17,28.47-7.95,41.8-3.03,6.99-5.18,14.37-9.29,20.88-6.7-.84-11.92-4.75-17.31-8.31-2.41-1.59-1.08-3.39-.33-5.24,6.67-16.47,12.97-33.07,16.33-50.59,3.43-17.9,3.19-35.95,1.76-54.03-.52-6.61-.95-13.21-2.13-19.75-.4-2.24.19-3.65,2.98-2.63,2.65.97,5.37,1.73,8.06,2.59Z"/><path class="cls-9" d="M339.09,552.78c3.03,9.89,4.14,20.18,6.39,30.23,4.62,20.62,10.67,40.87,15.73,61.38,3.89,15.81,5.46,32.15,10.38,47.74,1.85,5.85-3.23,6.58-6.18,8.5-5.64,3.65-6.05,3.28-7.53-3.02-8.5-36.11-17.11-72.2-25.49-108.34-2.48-10.68-4.32-21.51-6.46-32.28,4.46-1.18,8.46-3.76,13.15-4.2Z"/><path class="cls-8" d="M261.42,333.82c.86,5.71,6.58,11.3.43,17.07-1.22,1.15-1.08,2.87-.75,4.28,2.09,9.08,1.96,18.45,3.66,27.59,1.37,7.37-1.07,14.51-2.09,21.7-3.69,25.92-9.42,51.51-12.51,77.53-3.08,26-6.04,52.02-8.99,78.04-.24,2.14-.2,4.33-.1,6.49.1,2.14-.7,3.24-2.8,3.98-7.07,2.48-8.22,1.83-7.16-5.83,2.57-18.54,4.62-37.15,7.49-55.66,2.56-16.52,4.7-33.15,5.54-49.92.64-12.89,1.92-25.78,3.98-38.56,2.66-16.53,3.72-33.27,6.84-49.74,2.33-12.29,4.33-24.64,6.48-36.96Z"/><path class="cls-9" d="M452.08,380.29c1.03-.42,1.88-.1,2.78.49,14.89,9.73,31.17,12.09,48.69,10.32,17.44-1.75,33.7-5.9,47.35-17.44,2.04-1.73,2.93-.8,3.72.83,2.27,4.65,2.22,9.35-.39,13.84-4.06,6.96-9.76,12.34-17.27,15.21-21.4,8.19-43.38,11.16-66.09,6.48-2.79-.58-5.51-1.22-7.76-3.11-.53-1.9-2.11-2.96-3.5-4.09-7.27-5.95-10.21-13.29-7.54-22.54Z"/><path class="cls-9" d="M447.96,558.78c8.58,3.04,16.84,7.05,25.98,8.44,20.87,3.16,41.1,1.06,60.6-7.2,2.93-1.24,5.53-3.02,7.99-5.02,4.23-3.44,6.21-7.57,4.87-13.15-.96-4.01-1.49-8.12-2.2-12.13,14.26,5.06,19.14,25.14,8.38,35.73-9.65,9.5-21.63,14.83-34.75,17.33-22.34,4.26-44.35,3.39-65.52-5.84-3.17-1.38-6.44-2.78-8.46-5.88.55-4.21-.02-8.71,3.1-12.27Z"/><path class="cls-12" d="M217.7,602.44c1.15-8.49,2.53-17.84,3.64-27.21,1.66-13.98,3.18-27.98,4.65-41.98,1.62-15.48,3.27-30.95,5.32-46.39,2.15-16.24,4.65-32.46,5.79-48.85,1.13-16.36,3.01-32.66,4.46-48.98,1.59-17.85,4.78-35.47,6.52-53.28.43-4.44,1.4-8.83,2.25-13.22.15-.79.28-2.06,1.83-1.73,3.52.74,7.27,6.29,6.47,9.89-4.24,19.09-7.84,38.36-10.19,57.71-2.63,21.69-6.57,43.21-7.66,65.14-.81,16.16-3.12,32.28-5.4,48.36-2.67,18.85-5.49,37.69-7.54,56.64-1.81,16.81-3.22,33.65-4.84,50.48-.11,1.11.21,2.64-1.38,2.77-1.65.13-2.99-1.04-3.35-2.5-.46-1.9-.36-3.95-.56-6.84Z"/><path class="cls-1" d="M288.5,552.92c-11.37,1.24-21.31-4.36-31.96-6.62-1.62-.34-3.18-.98-4.8-1.29-3.05-.58-4.05-1.95-3.33-5.24.92-4.18,1.39-8.52,1.45-12.8.05-3.95,1.25-4.03,4.35-2.47,12.56,6.32,25.94,8.96,39.97,8.51.83-.03,1.67.04,2.49-.07,1.63-.22,3.87-.31,3.94-2.25.1-2.64-2.42-1.55-3.83-1.69-14.56-1.44-28.89-3.84-42.57-9.28-2.01-.8-3.52-1.44-3.27-4.09.33-3.41,1.02-4.87,4.81-2.82,8.98,4.88,18.43,8.36,28.9,8.18,4.03-.07,7.95-.73,11.7-2.05,2.5-.88,3.37-.53,3.97,2.23,1.3,5.99,3.05,11.88,4.69,17.79.57,2.07,1.18,4.17,2.06,6.12,2.67,5.94,2.75,6.09-3.72,6.81-4.93.54-9.83,1.81-14.85,1.05Z"/><path class="cls-7" d="M370.97,406.98c-1.43-8.77-2.07-17.39-9.98-24.01-7.86-6.57-13.63-15.34-18.16-24.69-1.28-2.63-3.1-5.16-2.61-8.37,7.4,2.3,13.09,7.61,19.8,11.15,17.33,9.14,32.97,21.17,50.62,29.77.4.2.69.63,1.75,1.63-14.14,4.96-27.78,9.74-41.42,14.52Z"/><path class="cls-1" d="M283.55,514.98c-9.8.47-18.39-3.61-27.09-7.28-3.05-1.29-3.98-3.62-3.5-6.83.5-3.27.79-6.57,1.07-9.86.16-1.88,1.1-3.1,2.74-3.81,9.88-4.31,19.79-8.52,29.97-12.08,2.89-1.01,3.76.01,4.24,2.72,1.66,9.43,3.45,18.83,5.28,28.23,1.41,7.23.92,8.08-6.26,8.87-2.13.24-4.32.04-6.47.04Z"/><path class="cls-9" d="M604.12,422.83c-11.61-7.09-21.92-13.37-32.21-19.68-1.7-1.04-3.33-2.19-5.01-3.27-9.31-5.99-9.26-5.97-5.62-16.28.61-1.74,1.88-2.15,3.27-2.66,10.56-3.94,21.13-7.88,32.26-12.03,2.48,17.63,3.06,35.33,7.32,53.92ZM596.8,407.6c.09-2.79-3.37-6.56-5.7-6.38-2.35.19-2.84,2.11-2.93,3.96-.18,3.54,2.52,5.02,5.23,5.57,1.78.36,3.27-1.33,3.4-3.15Z"/><path class="cls-7" d="M445.98,581.86c-10.55,8.55-11.13,20.33-10.51,32.5.36,7.02,2.28,13.66,4.58,20.24.96,2.75,2.37,5.52,1.2,8.61-9.63-4.61-15.49-12.9-20.38-21.8-4.28-7.78-6.31-16.28-6.04-25.38.3-10.32,6.02-17.66,12.36-24.82,1.06-1.2,2.06-1.27,3.43-.26,5.07,3.7,10.23,7.28,15.35,10.91Z"/><path class="cls-8" d="M288.06,455.88c1.37,1.14,1.02,2.68.97,4.16-.97.65-3.03.66-2.39,2.31.42,1.07,1.61-.25,2.44-.57,3.74,3.64,4.02,6.5.43,8-11.29,4.7-22.9,8.6-34.74,14.18,1.24-9.98,2.35-19.14,3.59-28.29.09-.65,1.07-1.18,1.63-1.77,2.58-1.03,5.06-1.41,8-1.02,5.34.72,10.78.41,14.99-3.89.43-.35,1.32-.58.35-1.31-.11.44-.22.89-.33,1.33-6.33,1.09-12.59,2.72-19.13,2.07-1.46-.15-2.88.66-3.89,1.89-2.3-2.16-.22-4.4.06-6.5.78-5.87,1.02-11.84,2.74-17.57.62-2.05,9.37-6.76,10.36-5.39,1.4,1.94,2.21,4.46,2.73,6.85,1.06,4.92,1.67,9.78,7.91,11.24,1.86.44,1.98,3.21,2.37,5.17.54,2.74,1.2,5.46,1.81,8.19-8.18.8-14.83,5.62-22.37,8.13,3.96-.51,7.67-1.75,11.34-3.07,3.72-1.34,7.42-2.76,11.12-4.15ZM273.94,468.92c-1.92.04-3.68.48-4.95,2.07-.11.05-.25.08-.34.16-.06.05-.05.17-.07.26.14-.13.29-.27.43-.4,1.96.07,3.95.21,5.08-1.92.45-.17.9-.33,1.35-.5-.1-.13-.27-.38-.29-.37-.41.21-.81.46-1.21.7ZM279.55,466.31c2.14-.05,4.02-.56,5.56-3.04-2.77.2-4.39,1.2-5.56,3.04ZM270.98,427.74c.14-.07.28-.14.42-.2-.12-.09-.24-.25-.37-.26-.13-.01-.28.12-.42.19.12.09.24.18.37.27Z"/><path class="cls-12" d="M386.98,314.86c-15.98,7.78-34,6.49-50.7,11.82,1.56.16,3.13.33,4.7.5.03.18.05.36.08.54-13.36,3.38-26.72,6.75-40.06,10.16-2.77.71-3.65-1.42-4.35-3.09-.91-2.18,1.25-1.57,2.32-1.85,3.54-.64,7.13-1.09,10.61-1.97,10.2-2.58,19.87-6.65,29.44-10.95,1.1-.04,2.28.18,2.99-1.01.72-.14,1.45-.28,2.17-.41-.09-.13-.14-.34-.26-.37-.84-.27-1.48.02-1.92.78-1.11.01-2.29-.2-3,.99-13.83,2.31-26.22,9.42-39.98,11.96-2.81-.06-3.14-1.95-3.05-4.14.07-1.87,1.27-2.53,2.93-2.78,14.61-2.18,28.87-6.06,43.29-9.16,20.28-4.36,40.52-8.93,60.4-14.95,2.54-.77,4.97-1.89,7.47-2.8,5.67-2.05,6.82-1.04,5.7,5-.12.64-.52,1.22-.79,1.82-6.95,1.05-13.85,2.27-19.97,6.05h.01c-.84-.02-1.6.13-2,.99h-.01c-2.19.57-4.59.7-6.02,2.87ZM382,313c-3.28-.02-6.61-.2-8.93,3.1,2.98-1.04,5.95-2.07,8.93-3.11.73-.13,1.47-.26,2.2-.39-.08-.13-.14-.34-.26-.38-.85-.28-1.49.01-1.93.77ZM351.99,317.99c3.92.17,7.54-.88,10.97-2.7-3.77.41-7.77-.1-10.96,2.71-.11.05-.24.08-.34.15-.06.05-.05.16-.07.25l.4-.41Z"/><path class="cls-2" d="M599,442.95c1.73,1.89,1.41,4.41,1.58,6.58,1.31,17.63,5.12,34.82,8.44,52.13,3.76,19.57,6.6,39.33,10.74,58.84,1.03,4.86-3.09,5.33-5.53,6.15-3.07,1.03-2.32-2.58-2.62-4.09-6.39-32.28-11.97-64.7-16.62-97.28-.73-5.1-1.68-10.17-2.52-15.25-.27-1.61-.95-3.24.11-4.83,2.4,0,4.62-.53,6.42-2.24Z"/><path class="cls-12" d="M231.44,578.31c.85.45,1.9.95,2.89,1.55,28.15,16.99,56.28,34,84.44,50.97,2.99,1.8,6.11,3.37,9.16,5.06.73.4,1.69.68,2.09,1.31,1.34,2.1,2.87,4.89,1.52,6.84-1.39,2-3.47-.57-5.05-1.37-31.48-16.02-59.57-37.54-89.87-55.49-2-1.18-4.08-2.23-6.1-3.39-1.36-.78-1.71-2-1.17-3.42.34-.88.54-1.99,2.08-2.04Z"/><path class="cls-12" d="M316.54,557.98c-.55-2.19,1.26-2.4,2.57-2.81,1.82-.57,2.66.32,3.02,2.2,1.7,8.78,3.48,17.54,5.3,26.3,3.82,18.33,8.05,36.57,12.52,54.76,4.63,18.82,8.47,37.83,12.65,56.76.27,1.22,1.1,3.11-.57,3.35-1.91.28-4.02-.82-4.84-2.78-.75-1.8-.87-3.87-1.29-5.81-5.99-28.03-11.65-56.13-18.11-84.05-3.33-14.36-7.16-28.62-10.35-43.03-.36-1.62-.6-3.26-.9-4.89Z"/><path class="cls-12" d="M607.12,566.3c-5.56-.33-6.62-3.95-6.93-7.64-2.59-30.3-10.66-59.62-15.89-89.45-1.17-6.7-2.52-13.35-4.13-19.94-1.13-4.62,2.54-4.82,5.03-5.8,3.53-1.38,2.73,1.84,2.98,3.47,2.31,15.38,4.72,30.74,6.73,46.16,2.31,17.74,5.69,35.29,8.65,52.92,1.12,6.66,2.34,13.29,3.57,20.27Z"/><path class="cls-7" d="M315.08,310.22c-.46,2.47-2.76,2.12-4.32,2.6-4.59,1.41-9.21,3.23-13.91,3.57-6.15.45-12.3.51-18.47,1.15-3.35.35-5.37-4.47-8.47-6.44-1.81-1.15-3.18-1.79-5.37-1.3-5.59,1.24-11.65.68-16.5,4.58-.24.19-.65.42-.89.34-5.56-1.76-10.1-4.75-12.93-10.11-2.48-4.69-.9-8.61,1.74-12.49,1.06-1.56,2-.64,2.81.19,8.98,9.17,20.78,11.76,32.66,14.42,2.65.59,5.12-1.83,7.56.15,1.75,1.84,4.13,1.74,6.37,2.15,9.86,1.8,19.78,1.74,29.73,1.18Z"/><path class="cls-1" d="M429.05,658.29c-1.95,3.04.85,5.86.41,8.83-2.44-.96-3.74-3.15-5.43-4.95-6.4-6.82-9.52-15.46-13.35-23.71-.38-.81-.58-2.26-1.85-1.91-1.22.33-1.68,1.67-1.43,2.84,1.69,7.78,3.66,15.38,8.46,22.06,3.17,4.41,8.09,7.35,10.15,12.6-1.47,3.15,2.12,7.31-1.96,9.94-8.3-6.72-16.9-13.58-18.36-24.91-1.34-10.39-3.13-21.27,4.53-30.5.64-.77,1.25-1.55,1.94-2.27.33-.34.79-.55,1.25-.86,2.47,2.71,3.64,5.61,3.8,9.39.31,7.46,4.57,13.33,9.09,18.93,1.12,1.39,2.89,2.36,2.76,4.51Z"/><path class="cls-7" d="M452.08,380.29c-2.67,9.25.27,16.59,7.54,22.54,1.38,1.13,2.97,2.19,3.5,4.09-12.07-2.93-23.58-7.03-31.22-17.62-4.5-6.24-5.19-13.16-1.36-20.14,1.18-2.15,2.18-3.93,5.08-1.22,4.21,3.94,8.61,7.81,14.15,9.97,1.08.42,2.11,1.04,2.32,2.37Z"/><path class="cls-1" d="M414.49,433.55c12.87-4.24,24.92-8.21,37.32-12.29.42,9.59.83,18.53,1.19,27.48.09,2.1.13,3.64-2.96,2.09-11.41-5.74-22.97-11.19-35.56-17.28Z"/><path class="cls-2" d="M298.92,612.22c-1.44-.36-3.01-.47-4.28-1.13-20.62-10.77-39.38-24.71-61.1-35.22,5.06-2.16,8.82-3.51,13.28-.51,18.54,12.45,38.89,21.77,58.08,33.11,1.09.65,2.51,1.03,2.95,2.5-3.03.05-6.06.08-8.93,1.26Z"/><path class="cls-2" d="M573,340c1.69-5.16,3.38-10.32,5.07-15.47,2.7-8.21,2.75-16.63,2.12-25.12-.13-1.75-.02-3.53-.02-5.83,3.71,2.09,5.69,4.38,6.18,8.5,1.16,9.71,2.79,19.37,4.45,29.01.54,3.16.03,4.96-3.48,5.5-4.85.74-9.26,3.47-14.32,3.41,0,0,.01,0,.01,0Z"/><path class="cls-2" d="M315.08,310.22c-9.95.56-19.87.62-29.73-1.18-2.24-.41-4.63-.31-6.37-2.15,13.1.81,25.69-.83,37.67-6.75,5.27-2.61,9.93-5.94,14.37-9.61,2.04-1.68,2.86-1.57,3.86.74,1.8,4.17,2.23,8.26-.19,12.33-4.23,1.77-8.46,3.54-12.7,5.31-.63.13-1.25.26-1.88.38-1.14-.25-2.29-.5-3.11.69l-1.92.23Z"/><path class="cls-12" d="M229.02,450.02c-2-.59-4.88,1.47-5.95-1.85-.85-2.62,1.8-9.76,3.86-10.69,1.79-.81,3.51-1.93,6.15-1.68-.76,6.4-1.03,12.87-2.42,19.1-1.11,5,.37,10.73-3.74,14.98,2.42,3.61.19,7.26.03,10.88-.15,3.47-.5,6.94-1.03,10.37-.57,3.66-3.75,3.6-7.07,4.45,1.15-5.59-1.22-11.74,6.29-15.51-3.7.31-4.45-1.22-4.11-3.55,1.01-7.09.9-14.24,1.06-21.37.1-4.61,4.79-3.19,6.89-5.17.07-.11.15-.22.22-.34-.06.13-.12.25-.18.38Z"/><path class="cls-1" d="M447.96,558.78c-3.12,3.56-2.55,8.06-3.1,12.27-10.59-3.64-19.35-14.56-18.54-24.95.53-6.78,3.65-13.04,10.61-16.19l.18.17c.27,3.09-1.21,5.78-2.12,8.56-1.78,5.46.36,9.37,4.13,13.08,2.72,2.68,5.9,4.7,8.84,7.04Z"/><path class="cls-10" d="M280.9,343.02c-1.67.32-1.99-.94-2.29-2.04-1.52-5.62-2.98-11.25-4.46-16.88-.52-1.99.71-2.2,2.2-2.18,3.68.06,7.33-.15,10.79-1.6,2.25-.94,2.96.3,3.33,2.22.97,5.06,1.97,10.11,3.01,15.16.23,1.09.33,1.97-.99,2.31-3.86,1.01-7.72,2.01-11.58,3.01Z"/><path class="cls-10" d="M316.1,439.77c1.23,5.32,2.42,10.65,3.72,15.95.46,1.87-.21,2.74-1.94,3.29-3.15,1.01-6.29,2.09-9.38,3.29-1.74.68-2.33.08-2.72-1.56-1.37-5.76-3.73-11.28-4.29-17.25,4.87-1.24,9.73-2.49,14.6-3.73Z"/><path class="cls-8" d="M419.04,339.38c-10.02-4.71-18.92-9.06-28.61-14.92,8.18-1.97,15.25-3.72,22.35-5.36,1.39-.32,2.23.57,2.19,2-.17,6.04,2.07,11.59,4.07,18.29Z"/><path class="cls-12" d="M589.98,524.03c-9.09-2.65-17.44-7.09-26.14-10.69-7.8-3.23-15.18-7.48-23.01-10.64-3.74-1.51-4.18-3.63-3.65-7.14,4.51.87,7.68,4,11.51,5.76,12.67,5.79,25.29,11.69,37.98,17.43,2.4,1.09,3.94,2.38,3.36,5.22l-.05.05Z"/><path class="cls-12" d="M266.19,356.91c7.59,25.87,12.53,52.35,17.58,78.79-9.12-25.52-15.07-51.77-17.58-78.79Z"/><path class="cls-8" d="M298.92,612.22c2.87-1.18,5.9-1.21,8.93-1.26,6.06,3.36,12.24,6.52,18.14,10.14,3.17,1.95,2.64,5.67,3.1,9.47-7.54-2.41-13.31-7.1-19.62-10.69-3.75-2.14-8.12-3.63-10.55-7.67Z"/><path class="cls-12" d="M232.17,371c-.27-8.45,1.96-16.7,2.09-25.12.06-4.12,3.43-4.8,6.48-5.63,1.06-.29,2.13-.04,2.17,1.26.09,2.58.75,5.44-1.97,7.19-.75.49-1.89.37-3.31.6,1.46,1.28,5.3.06,3.95,2.92-2.37,5,2.17,13.07-6.72,15.43,1.11.21,2.18.41,3.38.64-1.04,1.14-2.83.33-3.46,1.81-.87.3-1.74.6-2.62.9Z"/><path class="cls-8" d="M238.06,598.86c-.19,8.71-1.52,10.25-8.64,11.55-1.86.34-2.58-.08-2.43-1.83.54-6.1,1.13-12.2,1.76-18.3.21-2.04,1.2-2.28,3.09-1.48,4.9,2.07,7.58,5.24,6.22,10.05Z"/><path class="cls-1" d="M232.17,371c.87-.3,1.75-.6,2.62-.9,2.69-.36,4.75-.02,4.09,3.54-1.23,6.67-1.4,13.48-2.8,20.15-.7,3.35-2.69,3.45-5.08,3.16-2.87-.35-1.97-2.62-1.75-4.3.92-7.23,1.94-14.44,2.92-21.66Z"/><path class="cls-12" d="M293.41,440.58c2.74-.51,3.05,1.07,3.36,2.24,1.68,6.41,3.15,12.88,4.86,19.28,1.03,3.84-2.62,3.37-4.17,4.33-2.49,1.55-2.34-1.21-2.71-2.63-1.56-5.92-3.05-11.87-4.59-17.8-.92-3.55.35-5.43,3.25-5.42Z"/><path class="cls-12" d="M349.61,308.41c11.58-4.1,23.58-6.72,35.41-9.91,8.64-2.34,17.3-4.63,25.93-6.99,1.3-.36,2.56-.66,4.61-.16-21.32,8.82-43.1,13.74-64.95,18.39l-1-1.32Z"/><path class="cls-2" d="M349.61,308.41l1,1.32c-18.43,4.26-36.7,9.25-55.39,12.35-.25.04-.55-.23-1.34-.59,5.77-2.63,11.64-3.48,17.32-4.94,12.68-3.27,25.4-6.43,38.42-8.13Z"/><path class="cls-2" d="M332.05,277.53c-4.12-.73-6.26-3.4-6.99-7.31-.57-3.04.44-5.53,3.1-7.23,3.25-2.08,6.46-2.29,9.58.28-.97,5.12-1.78,10.31-5.68,14.26Z"/><path class="cls-2" d="M549.03,450.44c-1.45,1.76-3.33,2.12-5,2.67-3.38,1.1-8.59,4.84-9.62,3.09-1.93-3.29-1.1-8.28-1.14-12.56-.03-2.88,1.72-1.63,2.97-.89,4.25,2.52,8.47,5.09,12.79,7.7Z"/><path class="cls-12" d="M565.37,355.62c.36-.8.96-2.33,1.74-3.77.7-1.31,1.55-2.88,3.33-2.45,1.55.38,1.39,2.01,1.59,3.33.74,4.91,1.15,9.92,2.45,14.69,1.05,3.84-1.56,3.81-3.59,4.39-2.77.79-2.7-1.28-3-3.2-.64-4.09-1.55-8.14-2.5-12.99Z"/><path class="cls-2" d="M583.06,349.85c1.06,4.97,2.3,9.91,3.12,14.92.65,4-3.22,2.87-5.11,3.78-2.44,1.17-2.23-1.24-2.38-2.47-.56-4.74-2.97-9.13-2.54-14.04,2.56.08,4.74-1.05,6.91-2.19Z"/><path class="cls-12" d="M274.44,342.32c.55,1.74-.53,2.39-1.98,2.6-1.49.22-3.06.44-3.56-1.63-1.28-5.3-2.71-10.57-3.82-15.9-.67-3.21,2.3-3.93,4.32-4.48,2.86-.77,1.83,2.26,2.08,3.34,1.23,5.3,2.02,10.7,2.96,16.07Z"/><path class="cls-2" d="M572.91,506.3c-7.11-.04-12.88-3.99-19.06-6.66-5.32-2.29-10.39-5.18-15.69-7.53-2.2-.97-2.72-2.1-1.7-4.57,12.12,6.69,24.49,12.65,37.35,17.56-.3.4-.6.8-.9,1.2Z"/><path class="cls-12" d="M220.67,524.25c-4.12-7.66-3.53-15.63-.86-23.67.56-1.69,2.23-2.78,3.94-2.27,2.02.6.4,2.25.31,3.37-.6,7.54-1.32,15.07-2,22.6-.46-.01-.92-.02-1.39-.03Z"/><path class="cls-2" d="M272.4,317.63q-9.54,5.77-19.23-1.32c6.87-4.09,12.91-3.74,19.23,1.32Z"/><path class="cls-12" d="M225.03,407.28c.66-22.14,2.78-44.19,5.84-66.17.04,22.2-4.04,44.07-5.84,66.17Z"/><path class="cls-7" d="M316.1,439.77c-4.87,1.24-9.73,2.49-14.6,3.73-2.51-3.3-1.73-5.35,2.3-6.34,1.93-.47,3.8-1.23,5.69-1.86,5.64-1.89,5.84-1.76,6.61,4.47Z"/><path class="cls-12" d="M216.4,486.77c.4-16.73,1.75-33.27,4.33-49.71-1.59,16.59-1.03,33.36-4.33,49.71Z"/><path class="cls-5" d="M339.02,320.02c-9.57,4.3-19.24,8.37-29.44,10.95-3.48.88-7.07,1.32-10.61,1.97.02-.33.04-.66.05-.99,13.76-2.54,26.15-9.65,39.98-11.96l.03.03Z"/><path class="cls-12" d="M307.01,527.99c-2.94-6.67-3.95-13.9-5.84-20.87-1.42-5.22-2.22-10.6-2.74-16.04,3.57,12.14,7.97,24.08,8.57,36.92h.02Z"/><path class="cls-12" d="M445.79,655.29c.17,1.57,1.74,3.08.17,4.71-6.55-2.1-11.05-6.64-14.45-12.65l14.28,7.94Z"/><path class="cls-7" d="M339.09,552.78c-4.69.44-8.7,3.03-13.15,4.2-1.66-2.26-1.25-3.91,1.42-4.94,2.15-.83,4.44-1.44,6.43-2.57,4.03-2.28,5.39-.77,5.31,3.3Z"/><path class="cls-12" d="M415.02,305.97c.34,1.97-.53,3.28-2.4,3.64-6.91,1.33-13.47,4.23-20.62,4.42.33-.68.67-1.35,1-2.03,0,0,.01,0,.01,0,.86.06,1.64-.06,2-1,0,0-.01,0-.01,0,6.94-.6,13.21-3.9,20.02-5.03Z"/><path class="cls-5" d="M321.92,442.17c10.19-3.28,19.74-8.38,30.31-10.66-10,4.35-19.59,9.67-30.22,12.5-.03-.61-.06-1.23-.09-1.84Z"/><path class="cls-5" d="M436.99,405.09c-7.22,3.05-15.03,3.41-22.59,4.8-4.82.89-9.56,2.16-14.45,2.7,11.95-4.67,24.8-5.38,37.08-8.55-.01.35-.02.7-.04,1.05Z"/><path class="cls-12" d="M228.16,407.37c1.46-3.57-1.12-9.01,5.58-9.17,1.47-.03,2.25.35,2.16,1.85-.27,4.43-1.94,7.58-7.74,7.32Z"/><path class="cls-12" d="M264.83,412.94c.31-1.27.53-2.58.95-3.82.65-1.92-.82-5.54,1.5-5.58,3.13-.05,1.57,3.93,2.56,5.99.92,1.91,1.73,4.31-1.68,5.51-2.44.87-3.45.7-3.33-2.11Z"/><path class="cls-12" d="M572.91,506.3c.3-.4.6-.8.9-1.2,3.77,1.49,7.53,2.99,11.3,4.48,2.02.8,3.33,2.04,2.88,4.43h0c-5.14-2.37-11.13-3.04-15.09-7.71Z"/><path class="cls-7" d="M599,442.95c-1.81,1.71-4.02,2.25-6.42,2.24-1.95-.98-2.13-2.73-.95-4.08,1.51-1.73,3.86-3.19,6.05-2.8,2.27.4,1.12,2.98,1.32,4.64Z"/><path class="cls-13" d="M282.99,448.99c-4.21,4.3-9.65,4.6-14.99,3.89-2.94-.39-5.42,0-8,1.02,0-.31,0-.62,0-.93,1.01-1.23,2.43-2.04,3.89-1.89,6.54.66,12.8-.97,19.13-2.07l-.02-.02Z"/><path class="cls-7" d="M583.06,349.85c-2.17,1.15-4.35,2.27-6.91,2.19-1.66-1.42-1.94-3.52-.35-4.56,1.78-1.16,4.02-2.84,6.26-2.05,1.75.62.81,2.87.99,4.41Z"/><path class="cls-5" d="M288.06,455.88c-3.71,1.39-7.4,2.81-11.12,4.15-3.67,1.32-7.37,2.56-11.34,3.07,7.54-2.51,14.19-7.32,22.37-8.13.03.3.06.61.09.92Z"/><path class="cls-7" d="M321.99,308.91c4.23-1.77,8.46-3.54,12.7-5.31.45,1.92-.45,3.52-2.09,3.89-3.47.79-6.84,2.76-10.6,1.42Z"/><path class="cls-5" d="M415.02,305.97c-6.81,1.13-13.08,4.43-20.02,5.03,6.12-3.78,13.02-5,19.97-6.05.02.34.04.68.06,1.02Z"/><path class="cls-5" d="M324.01,448.88c3.54-2.76,7.83-2.98,12.03-3.55-3.67,2.49-8.04,3.1-12.06,4.63.01-.36.02-.72.03-1.08Z"/><path class="cls-5" d="M445.08,410.13c-3.82,1.78-7.63,3.62-13.32,1.06,5.15.16,8.64-1.31,12.29-2.13.34.36.68.71,1.03,1.07Z"/><path class="cls-5" d="M376.01,433.85c2.57-1.39,5.27-2.34,9.57-2.95-3.68,2.71-6.67,3.31-9.61,4.04.02-.36.03-.73.05-1.09Z"/><path class="cls-12" d="M264.46,421.13c2.01-2.31,4.69-2.81,8.67-3.31-3.26,2.46-5.97,2.86-8.67,3.31Z"/><path class="cls-12" d="M296.81,484.62c-2.08-3.34-1.97-6.38-1.51-10.81.85,4.14,1.94,6.9,1.51,10.81Z"/><path class="cls-5" d="M392.99,312.01c-.33.68-.67,1.35-1,2.03,0,0,.05-.04.05-.04-.82.05-1.6.19-2.04,1-1.07,1.32-2.08,1.28-3.02-.14,1.43-2.17,3.82-2.3,6.02-2.86Z"/><path class="cls-7" d="M317,309.99c.82-1.2,1.97-.94,3.11-.69-.66,1.94-1.67,2.27-3.11.69Z"/><path class="cls-5" d="M289.08,461.78c-.83.32-2.03,1.64-2.44.57-.64-1.65,1.41-1.67,2.39-2.31.02.58.04,1.16.06,1.75Z"/><path class="cls-12" d="M308.98,537.02c1.49,1.04.91,2.6,1,3.99l.04-.04c-1.47-1.04-.91-2.6-1.01-3.99l-.04.03Z"/><path class="cls-12" d="M309.02,536.99c-1.31-.91-1.04-2.03-.2-3.2.05,1.08.11,2.15.16,3.23,0,0,.04-.03.04-.03Z"/><path class="cls-12" d="M306.99,528c1.12.92,1.37,1.96.22,3.56-.09-1.45-.15-2.51-.21-3.57,0,0-.02.01-.02.01Z"/><path class="cls-8" d="M349.86,422.82c.76-.96,1.89-.9,2.94-1.06,0,0,.25.29.25.29-.01.32-.03.65-.06.97,0,0,.04-.03.04-.03-1,.02-1.99.04-2.99.06l-.18-.23Z"/><path class="cls-12" d="M297.51,488.34c-.14-.3-.37-.58-.37-.85,0-.27.23-.53.36-.8.13.27.37.53.37.8,0,.27-.22.54-.36.84Z"/><path class="cls-12" d="M309.98,541.01c.77.41,1.02,1.05.79,1.88-.03.11-.24.17-.37.25-.12-.72-.25-1.44-.37-2.16,0,0-.04.04-.04.04Z"/><path class="cls-12" d="M265.48,354.38l-.2-.33c.15-.09.3-.17.45-.26.02.13.08.28.04.39-.03.09-.19.13-.29.19Z"/><path class="cls-12" d="M390,315c.44-.82,1.22-.96,2.04-1-.42.87-1.22.95-2.04,1Z"/><path class="cls-8" d="M360.03,443.23c.13.05.29.08.37.18.04.05-.06.22-.09.33-.21-.09-.43-.18-.64-.27.12-.08.24-.16.36-.24Z"/><path class="cls-12" d="M590.03,523.98c.14.08.28.16.42.25-.16-.06-.31-.13-.47-.19,0,0,.05-.05.05-.05Z"/><path class="cls-1" d="M436.93,529.92c.18-.13.37-.25.55-.38-.13.18-.25.37-.38.55,0,0-.17-.17-.17-.17Z"/><path class="cls-2" d="M572.99,339.99c-.06.21-.11.41-.17.62-.13-.05-.26-.1-.39-.16.19-.15.38-.3.57-.45h-.01Z"/><path class="cls-12" d="M429.02,644.97c-.15-.06-.3-.12-.45-.17.13.07.27.15.4.22l.04-.04Z"/><path class="cls-12" d="M428.98,645.02c.14.15.29.3.43.46-.09-.03-.23-.04-.27-.11-.07-.11-.08-.26-.11-.39,0,0-.04.04-.04.04Z"/><path class="cls-12" d="M588,514c.14.07.28.14.42.21-.14-.07-.28-.14-.41-.22,0,0,0,0,0,0Z"/><path class="cls-9" d="M249.96,232.85c.07-5.89,4.89-10.13,11.37-9.99,7.39.16,14.68,6.98,14.7,13.76.02,5.8-4.69,10.45-10.53,10.4-7.58-.07-15.62-7.4-15.55-14.16Z"/><path class="cls-2" d="M261.69,198.19c-.14,1.33-.73,2.47-2.07,2.36-1.8-.15-2.27-1.73-2.41-3.26-.1-1.09.46-2.07,1.64-2.03,1.77.07,2.41,1.47,2.84,2.92Z"/><path class="cls-13" d="M426.01,674.06c-2.06-5.25-6.98-8.19-10.15-12.6-4.8-6.69-6.78-14.28-8.46-22.06-.26-1.18.21-2.51,1.43-2.84,1.28-.35,1.48,1.1,1.85,1.91,3.84,8.25,6.96,16.89,13.35,23.71,1.69,1.8,2.98,3.99,5.43,4.95,1.15,2.79,3.6,4.33,5.89,5.94,17.86,12.57,37.78,16.52,59.28,14.52,23.93-2.23,44.94-11.5,63.99-25.73,4.31-3.22,7.92-7.08,10.73-11.71,1.69-2.77,2.64-5.64,2.05-8.89,2.01-.41,1.84,1.07,1.91,2.14.52,7.55-2.43,13.7-8.01,18.54-16.04,13.92-33.66,25.08-54.77,29.52-22.93,4.83-45.35,3.6-66.85-6.61-5.14-2.44-9.93-5.42-14.34-9-.98-.8-1.7-2.18-3.34-1.78Z"/><path class="cls-5" d="M332.29,506.08c-.25,2.47-.58,4.24-2.61,5.04-1.78.7-3.1-.07-4.52-1.12-3.31-2.46-3.59-5.7-2.6-9.28.46-1.67,1.49-3.12,3.31-3.3,2.07-.21,1.92,1.54,2.38,2.99.76,2.37,4.69,2.87,4.03,5.69Z"/><path class="cls-5" d="M418.86,414.27c-5.79,2.91-11.76,5.19-18.15,6.2,5.85-2.7,11.71-5.32,18.15-6.2Z"/><path class="cls-5" d="M389.61,423.69c2.8-.95,5.61-1.89,8.41-2.84-2.11,2.95-5.2,3.22-8.06,4.11-.12-.43-.23-.85-.35-1.28Z"/><path class="cls-5" d="M350.03,423.04c1-.02,1.99-.04,2.99-.06-.65,1.27-1.54,2.33-3.08,1.75-.78-.3-.03-1.11.09-1.69Z"/><path class="cls-5" d="M352.98,423.02c.03-.32.05-.65.06-.97.73.06,1.46.12,2.18.18v.59c-.75.07-1.5.13-2.25.2Z"/><path class="cls-5" d="M336.72,428.5c.28-.15.54-.38.79-.38.25,0,.5.24.75.38-.25.14-.5.38-.75.38-.25,0-.5-.23-.79-.38Z"/><path class="cls-5" d="M388.29,430.54c-.28.14-.56.38-.83.37-.26-.01-.51-.28-.76-.43.27-.14.54-.38.81-.37.26,0,.51.27.78.44Z"/><path class="cls-5" d="M397.32,413.37c-.01.11.02.27-.04.31-.1.07-.28.13-.38.08-.4-.19-.38-.4.05-.51.1-.03.24.08.37.12Z"/><path class="cls-5" d="M383.01,427.01c.36-.25.73-.51,1.09-.76.29,1.23-.74.5-1.11.74,0,0,.02.02.02.02Z"/><path class="cls-5" d="M341.07,427.76c-.12-.04-.23-.09-.35-.13.13-.12.26-.26.41-.36.02-.01.17.17.26.26-.11.07-.21.15-.32.22Z"/><path class="cls-5" d="M382.99,426.99l-1.02.74c-.29-1.15.69-.48,1.03-.73,0,0-.02-.02-.02-.02Z"/><path class="cls-5" d="M387.3,425.36c-.01.11.02.27-.04.31-.1.07-.29.13-.38.08-.41-.19-.39-.4.05-.52.11-.03.25.08.37.12Z"/><path class="cls-5" d="M354.64,430.37c.13-.05.27-.1.4-.16.04.2.08.39.12.59-.15-.02-.32-.01-.43-.09-.07-.05-.06-.22-.09-.34Z"/><path class="cls-5" d="M343.69,426.38c.12-.05.24-.09.36-.14.03.17.07.35.1.52-.13-.02-.28-.01-.38-.08-.07-.04-.06-.2-.08-.31Z"/><path class="cls-5" d="M347.31,425.62c-.12.05-.24.09-.36.14-.04-.18-.07-.35-.11-.53.13.02.29.01.39.08.07.04.06.2.08.31Z"/><path class="cls-5" d="M596.8,407.6c-.13,1.82-1.62,3.51-3.4,3.15-2.71-.54-5.41-2.03-5.23-5.57.09-1.85.59-3.77,2.93-3.96,2.33-.19,5.79,3.58,5.7,6.38Z"/><path class="cls-5" d="M279.55,466.31c1.17-1.83,2.79-2.84,5.56-3.04-1.53,2.48-3.41,2.98-5.56,3.04Z"/><path class="cls-5" d="M268.99,470.99c1.27-1.59,3.03-2.02,4.95-2.07l.15.18c-1.13,2.13-3.12,1.98-5.08,1.91l-.02-.02Z"/><path class="cls-5" d="M273.94,468.92c.4-.24.79-.49,1.21-.7.03-.01.19.24.29.37-.45.17-.9.33-1.35.5,0,0-.15-.17-.15-.17Z"/><path class="cls-13" d="M283.01,449.01c.11-.44.22-.89.33-1.33.96.73.07.96-.35,1.31,0,0,.02.02.02.02Z"/><path class="cls-11" d="M270.98,427.74c-.12-.09-.24-.18-.37-.27.14-.07.28-.2.42-.19.13.01.25.16.37.26-.14.07-.28.14-.42.2Z"/><path class="cls-5" d="M269.01,471.01c-.14.13-.29.27-.43.4.02-.09.01-.21.07-.26.09-.08.22-.11.34-.16,0,0,.02.02.02.02Z"/><path class="cls-5" d="M352.01,318.01c3.19-2.82,7.18-2.3,10.96-2.71-3.43,1.82-7.05,2.87-10.97,2.7h.01Z"/><path class="cls-5" d="M382,313c-2.98,1.04-5.95,2.07-8.93,3.11,2.33-3.31,5.65-3.13,8.93-3.1h0Z"/><path class="cls-5" d="M341.99,318.99c.44-.75,1.08-1.05,1.92-.78.11.04.17.24.26.37-.72.14-1.45.28-2.17.41,0,0,0-.01,0-.01Z"/><path class="cls-5" d="M338.99,319.98c.72-1.19,1.9-.98,3-.99,0,0,0,.01,0,.01-.71,1.19-1.89.97-2.99,1.01,0,0-.03-.03-.03-.03Z"/><path class="cls-5" d="M382,313c.44-.76,1.09-1.05,1.93-.77.12.04.17.25.26.38-.73.13-1.47.26-2.2.39,0,0,0,0,0,0Z"/><path class="cls-5" d="M395.01,311c-.36.94-1.13,1.06-2,1,.4-.86,1.16-1.01,2-1Z"/><path class="cls-5" d="M351.99,317.99l-.4.41c.02-.09.02-.2.07-.25.09-.08.22-.1.34-.15,0,0-.01-.01-.01-.01Z"/><path class="cls-11" d="M229.02,450.02c.06-.13.12-.25.18-.38-.07.11-.15.22-.22.34,0,0,.04.04.04.04Z"/></svg>