<svg width="494" height="494" viewBox="0 0 494 494" fill="none" xmlns="http://www.w3.org/2000/svg">
<path d="M246.898 493.633C246.552 493.239 246.241 492.833 245.872 492.463C219.096 465.672 192.309 438.892 165.534 412.101C165.093 411.659 164.616 411.277 164.15 410.859C189.064 386.097 187.954 345.891 161.752 322.405C140.167 303.061 103.739 300.018 78.5631 324.852C52.5635 298.848 26.564 272.844 0.671875 246.948C28.2225 219.392 55.8329 191.777 83.4909 164.115C95.9478 176.395 111.268 182.517 128.927 181.789C146.145 181.085 160.702 173.924 172.049 160.928C192.214 137.848 192.763 102.011 169.245 78.2622C195.233 52.2703 221.22 26.2783 247.053 0.441406C274.544 27.949 302.19 55.5879 329.824 83.2267C304.541 108.574 307.166 148.803 332.795 171.502C354.69 190.882 390.891 193.436 416.032 168.638C416.39 169.079 416.712 169.544 417.118 169.95C442.306 195.155 467.506 220.359 492.706 245.551C493.076 245.921 493.493 246.244 493.887 246.59C493.887 246.781 493.887 246.971 493.887 247.162C493.505 247.497 493.088 247.819 492.73 248.189C465.907 275.004 439.096 301.82 412.285 328.647C411.879 329.053 411.522 329.506 411.14 329.936C386.107 304.815 345.908 306.307 322.605 332.442C303.3 354.102 300.388 390.429 325.362 415.764C324.932 416.134 324.467 416.48 324.073 416.886C298.873 442.078 273.685 467.283 248.485 492.487C248.115 492.857 247.804 493.263 247.458 493.657C247.279 493.633 247.089 493.633 246.898 493.633Z" fill="#E64734"/>
</svg>
