<?xml version="1.0" encoding="UTF-8"?><svg id="Capa_1" xmlns="http://www.w3.org/2000/svg" width="570.44mm" height="570.09mm" viewBox="0 0 1617 1616"><defs><style>.cls-1{fill:#f1de97;}.cls-1,.cls-2,.cls-3,.cls-4,.cls-5,.cls-6,.cls-7,.cls-8,.cls-9,.cls-10,.cls-11{stroke-width:0px;}.cls-2{fill:#524d3a;}.cls-3{fill:#191a17;}.cls-4{fill:#55503c;}.cls-5{fill:#534e3b;}.cls-6{fill:#ead793;}.cls-7{fill:#f1dd97;}.cls-8{fill:#f0dc96;}.cls-9{fill:#26251f;}.cls-10{fill:#1c1c1a;}.cls-11{fill:#58523e;}</style></defs><path class="cls-7" d="M1617,233v342c-.34.3-.69.6-1.03.89-7.98,1.78-15.37,5.28-22.99,8.07-62.23,22.78-125,43.78-189.76,58.29-15.21,3.41-30.27,7.64-46.25,6.51-23.23-1.64-46.48-2.85-68.92-9.86-1.3-1.37-1.86-3.12-2.52-4.83-4.92-12.73-10.01-25.4-14.75-38.19-5.66-15.28-15.42-28.35-22.73-42.74-12.75-25.08-24.8-50.54-39.92-74.35-1.75-2.75-3.37-5.58-5.29-8.77,8.58-1.17,16.07-3.97,23.56-6.76,15.61-5.81,31.25-11.57,46.8-17.55,27.83-10.69,55.98-20.52,83.21-32.8,11.65-5.26,24.05-8.09,37.28-8.14,17.96-.07,35.92-1.69,53.86-2.95,13.84-.98,27.11-5.34,40.74-7.63,5.42-.91,10.82-1.95,16.22-2.96,1.91-.36,3.74-1.01,3.41-3.44-.28-2.07-2.03-2.41-3.78-2.48-.83-.03-1.67-.05-2.5,0-12.47.68-24.9,1.81-37.29,3.38-17.99,2.28-36.1,1.45-54.87,2.15,1.8-2.25,3.82-2.61,5.59-3.32,13.8-5.49,28.01-9.68,42.27-13.75,14.13-4.04,27.94-8.81,38.86-19.5,3.01-2.95,6.4-5.92,10.93-6.7.83-.14,1.69-.43,1.76-1.45.08-1.23-.86-1.72-1.82-2.06-2.89-1.02-5.62-.25-8.22.96-3.32,1.55-6.48,3.45-9.86,4.87-6.16,2.58-12.34,5.17-20.3,6.85,1.56-1.7,2.03-2.37,2.64-2.86,20.65-16.32,41.07-32.93,63.54-46.81,12.18-7.52,24.19-15.36,35.82-23.71,17.45-12.53,29.65-30.02,42.64-46.71,1.04-1.34,1.48-3.43,3.67-3.67Z"/><path class="cls-10" d="M1617,233c-2.19.24-2.63,2.33-3.67,3.67-12.99,16.69-25.19,34.18-42.64,46.71-11.62,8.35-23.64,16.19-35.82,23.71-22.47,13.88-42.89,30.48-63.54,46.81-.61.49-1.08,1.16-2.64,2.86,7.96-1.68,14.15-4.27,20.3-6.85,3.37-1.42,6.54-3.32,9.86-4.87,2.6-1.21,5.33-1.99,8.22-.96.96.34,1.9.82,1.82,2.06-.07,1.03-.93,1.31-1.76,1.45-4.53.78-7.92,3.76-10.93,6.7-10.92,10.69-24.73,15.47-38.86,19.5-14.27,4.07-28.48,8.26-42.27,13.75-1.77.7-3.79,1.07-5.59,3.32,18.78-.7,36.88.13,54.87-2.15,12.39-1.57,24.82-2.7,37.29-3.38.83-.05,1.67-.03,2.5,0,1.76.07,3.5.41,3.78,2.48.33,2.43-1.51,3.08-3.41,3.44-5.4,1.01-10.8,2.05-16.22,2.96-13.63,2.29-26.89,6.65-40.74,7.63-17.94,1.26-35.9,2.88-53.86,2.95-13.23.05-25.62,2.88-37.28,8.14-27.23,12.28-55.38,22.11-83.21,32.8-15.55,5.97-31.19,11.73-46.8,17.55-7.49,2.79-14.98,5.59-23.56,6.76,1.92,3.19,3.54,6.02,5.29,8.77,15.11,23.81,27.17,49.27,39.92,74.35,7.31,14.39,17.07,27.45,22.73,42.74,4.74,12.8,9.84,25.46,14.75,38.19.66,1.71,1.22,3.46,2.52,4.83.32,1.28.54,2.59.96,3.84,3.87,11.33,8.46,22.47,11.53,34.01,7.93,29.81,17.58,58.72,33.68,85.41,10.24,16.98,19.3,34.77,27.49,52.9,1.24,2.74,2.28,3.09,4.79,1.81,33.35-17.05,67.8-31.78,101.43-48.25,27.07-13.26,53.35-27.95,79.75-42.45,16.76-9.21,33.47-18.53,50.35-27.5,6.12-3.26,12.01-7.17,18.96-8.68v13c-9.78,5.62-19.46,11.43-29.36,16.84-71.07,38.89-143.03,75.96-218.1,106.69-3.35,1.37-6.8,1.44-10.2,2.06-1.81.33-2.6-.63-3.61-2.4-5.94-10.39-8.88-22.21-15.36-32.29-6.76-10.52-11.61-22.11-18.7-32.45-1.72-2.51-2.76-2.78-5.44-1.45-17.22,8.56-35.18,14.16-54.75,12.88-7.15-.47-13.65-2.97-19.95-6.06-4.36-2.14-8.82-2.88-13.58-2.04-10.82,1.92-21.28,4.11-30.52,11.11-10.54,7.97-19.22,6.89-29.24-1.94-1.7-1.5-2.45-1.03-4.11-.05-8.33,4.91-13.82,12.3-19.75,19.73-5.86,7.35-13.33,14.47-21.63,18.57-12.45,6.16-22.82,14.87-34,22.62-2.56,1.77-2.73,2.9-.99,5.41,12.26,17.64,12.38,36.79,5.79,56.26-3.56,10.52-12.11,16.83-21.97,21.34-2.12.97-4.27,1.89-6.4,2.82-11.62,5.05-22.41,3.53-32.43-4.12-1.19-.91-2.39-1.8-3.6-2.68-.1-.07-.31,0-1.12.06.17,2.65-.1,5.47.61,8.01,3.92,14.05,1.24,27.03-5.9,39.35-3.34,5.76-6.75,11.49-10.25,17.16-4.43,7.18-10.88,10.9-19.38,11.42-7.03.43-13.98.34-20.88-1.16-2.01-.44-3.52-.44-2.33,2.27,2.3,5.23,1.25,10.55.16,15.73-4.8,22.69-30.69,41.98-54.02,33.45-4.65-1.7-8.9-4.49-13.35-6.74-1.15-.58-2.15-1.64-3.92-1.3-.54,5.18-1.34,10.36-3.4,15.36-7.46,18.14-21.88,23.76-39.36,21.83-9.48-1.04-18.53-4.12-27.51-7.22-2.72-.94-4.54-.48-6.64,1.5-7.68,7.23-17.3,11.78-25.73,18.02-3.11,2.3-7.16,2.43-11.1,2-6.45-.71-12.93-1.24-19.38-1.92-2.84-.3-5.61-.43-8.37.61-1.9.71-4.11.95-5.89.08-11.21-5.44-22.03-11.37-26.11-24.45-.5-1.59-.15-4.08-3.23-2.14-11.59,7.31-23.19,4.67-34.67-.36-3.19-1.4-6.13-3.36-9.23-4.98-9.92-5.16-13.5-14.35-15.14-24.51-.61-3.79-1.82-4.42-5.44-3.75-7.03,1.31-14.15,2.09-21.17,3.63-6.39,1.4-12.59.63-18.33-2.79-6.76-4.02-13.22-8.4-18.09-14.74-2.34-3.05-3.27-6.36-2.91-10.26.59-6.29.62-12.64,1.19-18.94.25-2.71-.54-3.14-2.97-2.69-4.09.75-8.2,1.53-12.4,1.3-15.3-.83-27.5-7.88-37.87-18.73-7.74-8.09-7.53-18.92-10.08-28.77-.98-3.8-1.65-7.89-.18-11.84.7-1.88-.34-2.66-1.72-3.54-20.91-13.39-39.94-29.45-61.12-42.48-8.11-4.99-16.94-8.77-24.74-14.02-7.67-5.16-16.44-6.47-24.5-9.99-2.49-1.09-3.43-.32-4.46,1.92-2.51,5.43-4.76,10.97-7.68,16.23-1.44,2.6-3.24,3.43-5.84,3.83-10.48,1.61-20.56-1.07-30.68-2.95-18.58-3.44-36.35-9.75-54.11-15.97-4.1-1.44-4.84-.16-6.63,3.13-5.81,10.67-12.8,20.64-19.82,30.56-7.02,9.92-14.38,19.61-21.22,29.66-6.32,9.28-14.09,13.86-25.73,11.34-7.24-1.57-14.24-3.45-20.73-6.98-6.59-3.58-13.15-7.21-19.58-11.06-37.35-22.37-77.94-37.66-118.14-53.72-28.77-11.49-57.94-22-85.97-35.29l.08-15.96c11.46,3.63,21.92,9.56,32.86,14.37,33.61,14.79,68.48,26.49,102.03,41.46,27.62,12.33,55.62,23.82,80.67,41.22,7.76,5.39,15.74,10.62,24.72,13.92,3.23,1.19,7.46,3.82,6.06-3.49-.25-1.33.53-2.92,1.02-4.32,2.77-8,5.84-15.91,8.34-23.99,7.8-25.26,18.72-48.83,34.15-70.52,11.16-15.69,19.43-33.28,28.82-50.11.82-1.47,1.5-2.98,1.42-4.72,2.06-.82,2.82-2.73,3.7-4.49,8.08-16.26,16.19-32.5,24.16-48.8,17.04-34.86,31.47-70.91,48.5-105.78,8.49-17.39,18.1-33.74,32.51-46.88,2.51-2.28,1.34-3.02-.95-4-6.59-2.81-13.15-5.69-19.7-8.59-45.12-19.92-90.36-39.55-136.51-57-20.43-7.72-40.94-15.22-60.12-25.79-16.08-8.85-32.4-17.09-49.72-23.33-6.39-2.3-12.68-3.88-19.49-3.29-4.65.41-9.29.03-13.95-.54-17.51-2.14-34.87-5.55-52.36-7.49-21.41-2.37-41.49-7.77-60.04-18.76-1.87-1.11-3.85-2.02-5.17-3.84-1.39-1.92-1.79-4-.26-6,1.44-1.88,3.3-1.76,5.39-.96,5.29,2.02,10.67,3.78,15.95,5.83,21,8.14,43.51,9.79,65.17,15.06,2.03.49,4.11,1.43,6.35.61-.47-1.77-2.15-2.04-3.38-2.74-15.26-8.66-29.51-18.73-43.14-29.78-18.9-15.31-38.04-30.31-57.08-45.44,0-7.44,0-14.89,0-22.44,1.94.06,2.72,1.5,3.76,2.42,25.85,22.59,53.05,43.58,78.7,66.43,12.94,11.53,27.57,20.98,41.85,30.81,1.52,1.05,3.04,2.03,5.01,1.97,28.3-.83,52.98,10.47,76.93,23.58,18.01,9.86,35.98,19.72,55.36,26.59,40.72,14.44,80.15,32.03,119.89,48.85,19.63,8.31,38.8,17.71,58.21,26.56,5.31,2.42,8.16,6.33,7.43,12.22-.38,3.04.71,4.18,3.56,4.61,5.43.82,10.8,2.02,16.24,2.79,14.18,2.02,27.07,8.22,40.46,12.7,11.39,3.81,16.64,14.76,14.15,26.62-.37,1.79-.5,2.85,1.61,3.21,19.16,3.26,36.98,10.85,55.22,17.1,7.88,2.7,16.21,3.78,24.44,5.08,4.12.65,7.99-.78,11.57-2.54,18.22-8.97,37.75-11.64,57.72-12.23,2.07-.06,3.93-.57,5.71-1.56,8.78-4.84,18.13-8.4,27.4-12.14,6.52-2.63,12.72-5.75,18.48-9.82,6.53-4.62,13.26-8.94,20.56-12.31,4.31-1.99,7.72-5.13,10.84-8.68,13.21-15.05,29.83-21.06,49.6-18.34,2.61.36,5.42.89,7.63,2.19,11.69,6.93,24.04,9.36,37.43,6.66,14.82-2.99,29.89-.74,44.81-1.94,12.61-1.02,25.42.07,37.87-1.08,14.15-1.3,27.76-1.6,41.49,1.97,3.09.8,6.3.1,9.26-1.28,7.75-3.61,15.92-6.1,24.3-7.47,14.43-2.35,27.95-7.48,41.54-12.54,7.96-2.96,16.06-5.54,24.16-8.09,2.31-.73,3.53-1.39,3.56-4.24.08-7.46,1.51-8.35,8.38-10.89,8.3-3.07,16.67-5.64,25.27-7.7,22.49-5.38,45.05-10.63,66.48-19.66,4.45-1.88,8.98-3.58,13.54-5.16,2.12-.73,2.97-1.31,1.86-3.82-3.26-7.39-2.59-9.24,5.28-12.75,9.58-4.27,19.3-8.27,29.09-12.06,33.72-13.05,67.49-25.99,101.27-38.9,12.13-4.64,23.82-10.41,36.46-13.72,4.19-1.1,8.3-3.17,12.59-2.98,8.21.37,14.26-3.36,20.73-7.86,12.53-8.71,27.03-13.59,41.44-18.36,2.61-.86,4.77-2.06,6.72-4.03,20.89-21.17,43.6-40.21,67.9-57.34,13.34-9.41,27.03-18.32,40.59-27.42,14.74-9.89,26.3-22.96,37.05-36.86,6.53-8.43,13.1-16.84,19.7-25.21,1.11-1.41,1.91-3.17,3.79-3.83v21ZM831.04,659.08l.06-.08c2.94-1.75,4.33-4.75,6.07-7.47,7.37-9.63,13.63-20.07,21.54-29.31,1.84-2.15,3.57-4.39,5.94-6,1.17-.8,2.5-1.14,3.73-.26,1.31.93,1.1,2.33.63,3.62-1.32,3.61-3.14,6.98-5.34,10.11-7.7,10.94-14.08,22.85-23.82,32.28-3.64,3.98-8.89,6.21-11.37,11.57-1.96,4.24-1.95,5.21,2.66,6.35,13.67,3.38,27.34,6.77,41,10.18,3.11.78,5.03,2.82,3.13,5.78-1.94,3.03-.14,3.58,1.84,4.75,23.27,13.78,47.5,26.01,68.9,42.8,1.99,1.56,3.46,1.46,5.6-.29,5.13-4.19,10.77-7.73,15.68-12.22,8.83-8.07,17.7-16.08,22.67-27.34,11.55-14.81,14.72-32.21,15.39-50.33.08-2.08-.37-4.13,1.98-5.04,2.27-.87,3.83.46,5,2.25,2.09,3.2,2.74,6.64,2.11,10.47-1.11,6.72-3.22,13.26-3.58,20.12-6.18,23.53-21.68,40.86-38.63,57.31,1.01.25,1.66.22,2.18-.05,11.79-6.12,23.48-12.45,35.38-18.37,11.12-5.53,20.75-12.9,29.21-21.9,1.96.6,5.61-.41,3.67,3.88-1.84.3-2.65,1.81-3.73,3.07-3.44,4.01-6.42,8.35-10.79,11.64-8.14,6.13-17.33,10.53-25.7,16.21-10.05,6.82-20.7,11.81-32.63,14.22-4.21.85-8.25,2.54-12.36,3.84,6.86,2.9,11.83,8.67,19.68,8.57,7.92-.1,15.86.97,23.77,1.74,1.79.17,4.71.01,4.73,2.52.02,2.84-2.81,2.19-4.69,2.21-5.39.07-10.78.02-17.42.02,5.29,4.36,10.43,6.3,15.01,9.15,13.4,8.35,26.74,16.67,42.07,21.43,17.09,5.3,28.84,17.05,36.45,33.06,1.43,3,3.98,3.64,5.94,1.54,6.83-7.3,14.54-13.54,22.87-19.05,6.05-4,13.58-5.94,17.9-12.37,2.68-4,5.93-6.87,10.62-8.53,4.64-1.64,10.62-10.31,9.43-13.69-1.65-4.69-2.22-9.66-4.52-14.19-3.54-6.96-6.39-14.27-9.85-21.28-2.9-5.87-5.06-12.22-9.88-16.99-.11-3.87-3.55-6.91-2.76-11.01,3.4-.9,4.7,1.78,6.3,3.78,11.13,13.93,17.88,30.32,25.6,46.14,1.25,2.56.52,7.26,2.21,8.17,2.54,1.36,5.39-2.7,8.5-2.89,4.82-.28,3.75-2.57,2.03-5.08-11.61-16.94-21.15-34.79-27.36-54.56-8.86-28.18-20.43-55.47-28.15-84.05-.56-2.06-1.05-3.21-3.99-2.93-4.49.42-8.37,1.79-12.1,4.08-2.73,1.68-5.53,3.19-8.81,1.33-.51-3.87,3.27-4.7,4.96-7.01,5.13-1.75,9.64-5,15.03-6.17,1.78-.39,1.99-1.83,1.64-3.55-3.12-15.41-6.91-30.64-12.5-45.37-.37-.97-.64-1.89-1.87-1.99-.16-9.84-5.42-18.47-6.67-28.06-.27-2.06-1.67-2.12-3.34-1.46-8.06,3.17-16.74,4.48-24.58,8.32-12.27,6.01-24.47,11.98-38.39,13.6-8.55.99-17.26,1.94-25.3,5.49-7.33,3.23-14.75,3.4-22.48,1.68-5.5-1.23-11.09-3.06-16.74-2.5-17.91,1.78-35.92-.65-53.83,1.79-16.16,2.2-32.6.27-48.81,2.86-10.75,1.72-21.29.34-30.82-5.56-11.9-7.36-24.8-4.57-37.5-3.65-2.01.15-3.89,1.13-5.33,2.57-3.62,3.63-7.13,7.36-10.69,11.06-.92.29-.95,1.01-.88,1.78-2.46,3.66-5.64,6.67-9.42,8.78-19.11,10.68-37.3,23.03-58.89,28.97-14.44,3.97-26.54,11.94-33.87,26.01-2.58,4.95-3.54,10.34-5.91,15.25-1.54,3.18-1.52,6.19-.67,9.6,2.53,10.18.08,19.07-7.71,26.34-.88.82-2.53,1.19-2.12,3.15,1.11.11,2.26.15,3.37.35,8.29,1.48,15.71,4.45,20.23,12.19,3.09,5.3,2.5,7.21-2.91,10.2-.61.34-.97,1.27-1.27,1.99-1.24,2.99-3.29,5.35-5.6,7.56-9.5,9.09-21.08,14.72-32.91,19.95-2.28.17-4.56.35-7.01.54,4.3,5.67,8.96,9.5,16.01,10.46,8.24,1.12,15.88-1.58,22.35-5.01,9.91-5.26,19.62-11.09,29.48-16.55,6.27-3.47,11.88-7.86,17.31-12.51,10.03-8.58,15.3-20.39,21.13-31.72,2.29-4.45,3.34-9.75,1.85-15.01.29-2.46.49-4.93.9-7.37.39-2.38,1.17-4.67,4.12-4.81,2.78-.14,4.19,1.58,4.79,4.11.23.97.48,1.93.72,2.89.35,2.77.83,5.53,1.02,8.31.15,2.18.91,2.22,2.84,1.69,8.48-2.37,9.07-9.47,10.14-16.34.03-.65-.07-1.33.11-1.93.56-1.88-2.73-4.72.23-5.4,3.03-.7,2.48,2.94,3.07,4.95.08.27.42.46.64.68,1.73,6.05,1.75,6.09,7.29,3.22,2.5-1.3,4.96-2.69,7.37-4.15,5.08-3.07,10.38-5.34,16.48-4.13,5.45,1.08,11.17,1.06,15.86,5.05,1.86,1.58,5.23,2.4,7.36,1.12,2.1-1.27.01-3.93-.21-5.99-.12-1.15-.16-2.31-.24-3.46-.3-2.11-.7-4.21-.88-6.33-1.04-12.31,2.05-24.58.33-36.9-.11-.78.24-1.64.43-2.44.34-1.41,1.13-2.49,2.67-2.55,1.59-.05,2.31.97,2.62,2.46,1.61,7.81,3.8,15.57,2.19,23.68-.93,13.62.99,27.21.22,42.46,3.84-5.79,10.41-5.19,13.67-9.94.74-.53,1.2-1.18.94-2.15ZM555.02,953.97c-.16-.13-.31-.26-.47-.39.14.15.28.3.42.45.11.81,0,1.75.36,2.42,3.33,6.06,17.13,10.93,23.58,8.38.79-.31,1.59-.69,1.63-1.64.05-1.32-1.2-1.77-2.02-1.78-8.59-.13-15.87-4.33-23.5-7.43ZM596.81,951.76c1.34-3.2,3.78-6.49,3.02-9.75-.4-1.7-4.26-2.56-6.52-3.88-1-.59-2-1.25-2.8-2.08-6.62-6.76-14.87-11.19-22.85-15.98-6.56-3.94-13.48-5.5-21-2.67-2.4.91-5.49,1.6-5.25,4.48.31,3.78-.87,8.12,2.59,11.24-.25,4.7,1.18,7.76,5.79,10.45,8.93,5.22,17.68,10.35,28.04,12.28,10.25,1.91,11.67,6.12,5.11,13.96-.15.18-.02.61-.02.96,4.74,1,9.14-.61,13.65-1.61,2.15-.48,1.97-1.32,1.72-3.1-.69-4.74-1-9.54-1.47-14.31ZM740.8,1026.89c-2.12,5.74-3.98,11.57-6.14,17.3-1.71,4.53-2.11,9.7,1.04,14.28,2.44,3.55,4.25,7.69,7.24,10.66,4.54,4.51,9.83,9.75,16.86,7.22,7.71-2.78,15.53-3.11,23.08-1.94,7.53,1.17,13.31-.26,18.59-5.36,1.66-1.61,3.7-2.82,5.38-4.42,2.41-2.28,7.52-3.21,7.35-6.04-.18-3.1-5.45-3.14-8.11-5.18-1.02-.78-2.23-2.07-3.48-.91-1.19,1.1-.96,2.92-.23,4.21,1.46,2.57,1.71,4.48-1.43,5.99-.88.42-1.31,1.86-1.84,2.89-2.01,3.91-4.1,3.99-6.3.17.27-9.46-.68-18.95.51-28.36.55-4.39-.27-8.22-2.49-11.88-6.92-11.42-16.56-18.61-30.12-20.59-7.96-1.16-7.92-1.66-12.2,4.88-5.54,4.35-7.63,10.25-7.72,17.06ZM675.2,991.26c.07.28.02.53-.16.75-2.5-.07-2.23,2.17-2.74,3.54-2.62,6.99-2.4,14.3-2.35,21.62.1,15.26,6.7,26.23,20.68,32.76,6.41,2.99,13.04,3.73,19.91,2.99,4.15-.45,5.72-4.13,8.04-6.9,1.07-1.28,2.77-3.44,3.48.45.34,1.86,1.51,1.26,2.63.74,2.68-1.24,3.74-3.5,4.32-6.27,2.27-10.84,3.6-21.98,9.41-31.77.62-1.04.8-2.17.46-3.36,1.31-1.31,2.62-2.63,3.93-3.94,1.58.31,3.05.44,3.22-1.79,4.13-2.06,1.79-6,2.17-8.89,1-7.54,1.98-16.07-3.13-22.04-7.78-9.09-17.61-16.18-28.96-20.67-3.35-1.33-6.96-1.77-9.88.95-8.63,8.05-17.37,16.01-24.1,25.83-1.8,2.63-3.4,5.33-3.55,8.63-2.74,1.72-3.77,4.23-3.38,7.38ZM669.91,976.84c3.89-2.42,4.91-6.99,7.65-10.28.6-.72.28-1.54-.16-2.31-1.28-2.23-1.25-4.76-1.68-7.21-1.55-8.98-5.26-17.09-12.82-22.35-11.43-7.95-24.25-12.3-38.39-11.99-4.05.09-7.52,1.39-10.09,4.57-5.19,6.43-8.15,13.96-10.54,21.76-3.4,5.82-3.61,8.76-1.06,15.24,1.91-1.28,1.77-5.11,5.3-4.32.02,1.67.05,3.35.07,5.02-1.77,7.02-5.01,13.72-3.49,21.4.73,3.68.68,7.74-.05,11.42-.59,2.99-.12,5.44,1.56,7.45,5.71,6.83,12.4,12.43,21.23,14.89,2.26.63,4.56,1.38,6.85.6,6.32-2.13,12.86-3.06,19.39-4.25,2.35-.43,6.71,1.1,6.84-1.95.14-3.12-4.2-.73-6.22-1.97-1.23-.75-3.22-1.03-2.79-2.95.4-1.78,1.98-2.62,3.87-2.42.81.09,1.6.42,2.41.62,2.92.73,4.06-.21,4.36-3.42.61-6.45,2.15-12.71,4.9-18.69,1.27-2.78,3.31-5.46,2.88-8.85ZM673.93,934.07c3.17,7.94,7.52,15.51,7.29,24.49-.03,1.37,1.26,1.33,2.18.57,4.5-3.68,8.96-7.41,13.45-11.1,1.21-.99.69-1.72-.35-2.24-7.55-3.81-14.31-9.12-22.44-11.85-.02-1.3-.04-2.59-.06-3.89,10.04,1.85,18.58,7.15,27.34,11.92,1.76.96,3.25,2.13,5.48.83,5.42-3.16,10.93-2.15,16.31.21,3.65,1.61,7.21,3.43,10.82,5.16,1.86,2.99,4.83,4.81,7.37,7.09,4.85,4.36,11.59,7.25,12.96,14.53,1.44,7.65,2.77,15.47,1.34,23.2-.63,3.41.41,3.89,3.07,4.48,8.94,2,17.73,4.52,25.65,9.31,11.44,6.92,18.31,16.91,18.32,30.48,0,3.42.87,4.53,3.47,5.89,11.11,5.78,22.73,10.3,34.86,13.2,9.08,2.17,18.24,4.91,27.87,2.57,12.33-3,16.35-13.22,20.31-23.29,2.51-6.39,1.38-8.93-4.05-13.09-1.58-1.21-3.23-2.33-4.87-3.46-14.46-9.97-30.91-16.12-46.34-24.23-3.44-1.81-6.82-2.43-10.52-1.25-5.49-1.99-11.1-3.2-17-2.91-2.21.11-4.63-.44-4.84-3.21-.21-2.77,2.13-3.38,4.29-3.98.98-.27,2.25.05,3.16-1.44-2.54-1.24-4.92-2.35-7.23-3.57-1.29-.68-3-1.38-2.54-3.22.57-2.29,2.58-1.63,4.15-1.43,6.7.83,12.84,3.4,18.73,6.51,16.47,8.7,33.39,16.38,50.8,22.99,2.46,3.83,6.95,4.85,10.34,7.41,9.94,7.52,20.27,14.5,31.45,20.08,5.67,2.83,11.93,5.39,18.08,3.21,8-2.83,15.76-6.01,21.51-13.45,8.53-11.05,11.13-21.95,5.33-35.08-2.15-4.87-5.12-7.88-9.54-10.03-10.62-5.17-21.18-10.48-31.94-15.33-3.56-1.61-6.95-4-11.09-4.16-1.02-.82-2.05-1.64-3.07-2.47-8.15-6.6-15.26-14.79-26.7-16.16-3.75-.45-7.36-2.07-11.01-3.25-1.84-.59-3.49-1.61-3.02-3.91.44-2.13,2.19-2.94,4.15-2.84,2.45.11,4.89.55,8.27.95-1.8-2.1-3.13-3.51-4.29-5.04-.82-1.09-1.36-2.39-.28-3.65,1.09-1.28,2.48-.95,3.62-.2,3.2,2.11,6.38,4.25,9.43,6.55,10.08,7.6,19.58,15.79,31.04,21.66,15.54,7.97,30.52,17.04,46.7,23.78.31,1.84,1.74,2.72,3.13,3.65,10.07,6.71,21.12,5.58,32.22,4.04,1.96-.27,3.14-1.81,4.39-3.12,5.3-5.57,9.1-12.25,13.32-18.58,6.55-9.82,9.85-20.47,6.34-32.5-1.69-5.81-1.32-5.97-6.47-2.27-1.3.93-2.47,1.93-3.91.52-1.44-1.4-.35-2.62.35-3.99,1.84-3.61,5.34-5.4,8.24-7.82,2.13-1.78,2.06-3.18-.11-4.72-3.12-2.2-6.15-4.53-9.34-6.61-8.65-5.63-18.15-9.67-27.29-14.38-16.23-8.37-31.46-18.49-47.02-28.03-4.66-2.86-9.12-6.89-15.24-6.74-6.13-7.03-13.02-13.23-20.37-18.97-2.52-1.97-4.09-4.8-5.14-7.83-.51-1.46-1.88-3.23.34-4.33,1.84-.91,2.59.83,3.44,2.02,2.27,3.17,5.03,5.66,9,6.47.19.22.37.44.58.64.02.02.24-.19.37-.29-.21-.2-.43-.4-.64-.59-.42-3.09-2.76-5.23-3.97-7.93-.59-1.33-1.99-2.95-.6-4.06,1.59-1.27,2.62.82,3.53,1.76,6.75,6.96,12.24,14.88,17.32,23.1.97,1.58,1.8,2.97,3.61,3.87,28.71,14.36,54.94,33.21,84.27,46.45,3.88,1.75,6.71,5.24,10.77,6.73,4.3,3.34,8.67,6.55,12.78,10.18,8.1,7.14,17.25,9.31,27.67,4.89,15.37-6.53,24.25-17.25,25.79-34.49,1.19-13.38-2.16-24.71-10.19-35.14-7.93-10.3-17.47-18.81-27.59-26.89-7.33-5.85-15.22-9.83-24.38-11.45-6.87-4.92-13.1-10.82-20.69-14.67-18.08-9.16-36.18-18.26-52.36-30.68-2.61-2.01-5.71-3.39-8.59-5.05-17.94-10.36-37.38-18.33-52.41-33.31-1.84-1.84-4.25-3.26-6.64-4.38-19.25-9.04-39.16-16.43-59.2-23.48-.9-2.06-3.1-2.4-4.72-3.44-10.48-6.75-19.57-15.31-29.58-22.66-6.25-4.59-10.46-4.8-16.79-.38-3.7,2.58-7.67,4.66-11.93,6.12-4.98,1.69-10.2,2.79-13.44,7.66-1.01,1.52-3,2.2-4.82,2.39-6.24.65-9.15,4.19-11.64,9.96-7.37,17.11-21.08,29.15-35.04,40.79-11.07,9.23-24.41,14.75-36.84,21.68-6.87,3.83-15.16,4.52-22.88,6.34-1.37.32-2.97-.09-4.41-.41-4.98-1.11-9.94-2.34-14.9-3.52-2.1-3.21-4.76-5.99-7.02-9.05-4.95-6.69-7.37-13.63-4.41-22.49,4.42-13.23,13.07-23.46,21.52-33.89,2.37-2.92,2.34-6.85,5.32-9.36,5.94-4.99,7.45-11.55,7.48-19.22.04-9.43,1.31-18.88,7.63-26.75,4.25-5.28,8.25-10.77,12.35-16.16.23-.18.46-.36.69-.55-.13-.09-.33-.29-.39-.26-.23.15-.42.36-.62.55-11.36.96-22.12,4.34-32.64,8.45-12.11,4.74-24.17,6.67-37.03,2.81-10.64-3.19-21.77-4.33-32.15-8.92-12.49-5.51-25.72-8.98-39.2-11.44-3.19-.58-4.88.28-6.33,3.05-5.57,10.61-11.63,20.96-16.36,32-4.18,9.76-4.76,7.02,3.12,13.67,14.13,11.93,28.32,23.78,41.71,36.55,1.29,1.23,4.16,2.62,2.28,4.71-2.16,2.4-3.71-.6-5.26-1.81-2.99-2.35-5.3-5.54-8.9-7.15-9.82-9.98-21.44-17.75-32.4-26.32-7.09-5.54-7.23-5.37-10.72,2.98-5.99,13.95-13.85,27.18-16.2,42.52-1.67.22-1.94,1.69-2.4,2.87-13.4,33.92-27.35,67.63-38.2,102.5-1.92,6.18-4.09,12.22-8.09,17.53-1.91,2.53-2.05,5.38,2.21,6.3,5.17,1.11,10.21,2.86,15.56,3.03,5.9,2.33,12.51,2.08,18.23,5.06.65,2.89-1.15,4.74-3.18,6.3,3.83,1.87,7.33,3.4,10.66,5.22,25.67,14.07,48.67,32.25,73.4,47.78,1.86,1.17,3.5,2,5.5,1.25,10.63-4.03,19.8-.44,28.64,5.26,7.98,5.14,15.46,10.85,22.23,17.56,4.64,4.6,5.23,4.28,7.73-1.23,3.08-6.79,7.7-11.72,15.01-14.3,4.94-1.74,9.58.59,14.25-.08,7.67-1.1,14.25,1.57,20.96,4.62,6.98,3.17,13.05,7.56,18.79,12.51ZM437.02,775.06c1.15-.52,1.66-1.48,2.08-2.64,10.32-28.47,22.44-56.24,33.08-84.6,8.41-22.41,17.08-44.75,28.1-66.12,4.58-8.88,10.26-17.13,14.27-26.32,2.19-5.03.8-8.65-3.22-11.74-2.66-2.04-5.52-3.62-8.8-4.58-4.47-1.3-8.97-2.65-13.21-4.53-16.7-7.39-34.81-8.36-52.36-11.85-2.93-.58-4.51.62-6.2,2.85-5.85,7.72-11.08,15.9-15.62,24.37-4.32,8.06-9.65,15.77-11.59,24.97-1.83.18-2.35,1.69-2.96,3.03-5.62,12.42-11.42,24.75-16.98,37.19-14.85,33.24-29.82,66.42-47.04,98.52-6.36,11.86-13.23,23.44-19.83,35.16-7.57,13.46-14.95,27.04-24.3,39.41-2.03,2.68-1.06,3.94,1.95,4.84,6.99,2.08,13.89,4.44,20.85,6.65,27.82,8.83,55.66,17.48,84.68,21.75,4.59.68,5.45-.8,6.15-4.37,1.69-8.57,4.81-16.78,9.73-23.87,4.98-7.17,7.37-15.17,10.05-23.17,1.47-4.4,2.85-8.83,4.12-13.29,2.08-7.31,6.61-13.83,7.07-21.67ZM1153.89,730.49c-.12,2.97,1.12,5.43,2.68,7.85,5.57,8.66,11.04,17.39,16.6,26.05,3.41,5.31,11.01,9.75,18.91,5.37,9.36-5.19,19.53-8.9,29.79-12.11,8.58-2.69,16.97-2.46,25.12,1.86,4.12,2.19,8.59,3.96,13.19,4.39,18.09,1.7,34.88-3.19,50.97-10.98,1.58-.77,3.37-1.78,2.29-4.22-1.34-3.02-1.84-6.98-4.1-8.86-1.96-1.63-4.85,1.82-7.49,2.59-.16.05-.3.15-.47.18-12.86,2.28-25.13,7.41-38.38,7.91-1.65.06-3.02.29-3.71-1.44-.63-1.59-.01-2.98,1.27-3.99,1.84-1.47,3.95-2.44,6.24-3.02,6.75-1.71,13.61-3.1,20.2-5.3,5.22-1.75,10.7-2.32,15.85-4.2,1.93-.71,3.52-1.49,2.38-4.36-6.28-15.76-10.71-32.13-15.66-48.32-1.17-3.81-2.56-4.45-5.89-2.18-10.59,7.24-21.75,13.47-33.27,19.15-19.23,9.47-37.65,20.6-57.94,27.88-9.34,3.35-18.16,8.28-28.5,8.3-3.64,0-5.35-1.25-4.94-4.96,4.14-2.36,8.08-5.23,12.47-7,11.38-4.58,23.03-8.49,34.44-13.03,5.78-2.3,11.89-4.24,16.42-8.94,1.41.14,2.61-.49,3.76-1.16,17.12-9.96,35.64-17.23,52.55-27.62,6.04-3.71,6.36-3.36,3.91-10.27-6.23-17.52-12.45-35.06-18.89-52.5-2.35-6.37-4.42-12.9-8.09-18.71-8.08-12.78-16.67-25.31-22.62-39.28-6.98-16.41-15.24-32.18-23.31-48.04-1.93-3.8-3.22-8.4-7.63-10.54-.48-6.84-1.36-7.43-7.45-4.87-3.22,1.36-6.4,2.81-9.63,4.15-14.92,6.18-29.81,12.58-45.55,16.27-14.55,3.41-29.36,5.7-43.57,10.55-1.7.58-3.76,1.18-5.36.73-5.69-1.58-4.56,1.75-3.83,4.9.26,1.13.61,2.25.93,3.36,6.13,21.25,12.34,42.47,18.37,63.74,7.35,25.9,13.65,52.08,23.04,77.4,7.22,19.48,13.3,39.38,21.17,58.63.73,1.79.7,4.55,3.74,4.61ZM255.94,912.72c.33,1.58-.77,4.06,1.72,4.99,2.43.91,3.47-1.41,4.78-2.8.79-.84,1.35-1.89,1.99-2.86,4.5-6.78,8.95-13.6,13.5-20.35,8.54-12.68,16.7-25.62,26.08-37.72,3.63-4.68,2.94-6.83-2.67-8.71-4.08-1.37-8.44-1.95-12.47-3.42-3.47-1.27-4.88-.1-6.43,2.94-8.84,17.39-15.53,35.66-22.46,53.84-1.71,4.47-3.86,8.87-4.04,14.1ZM615.94,732.62c2.43.23,4.39.02,6.02.64,5.7,2.18,10.38.2,14.82-3.15,2.91-2.2,6.08-4.16,8.62-6.73,4.4-4.44,9.27-8.59,11.77-14.59.55-1.33,1.71-2.86.19-4.09-4.85-3.95-10.71-4.94-16.72-5.66-4.13-.5-3.96,3.34-5.76,5.17-2.09,2.13-3.93,4.49-5.93,6.72-5.6,6.26-9.14,13.73-13.02,21.7Z"/><path class="cls-5" d="M1617,690c-6.95,1.51-12.84,5.42-18.96,8.68-16.88,8.98-33.59,18.3-50.35,27.5-26.4,14.5-52.69,29.19-79.75,42.45-33.63,16.47-68.08,31.21-101.43,48.25-2.51,1.28-3.55.93-4.79-1.81-8.19-18.13-17.25-35.92-27.49-52.9-16.11-26.69-25.75-55.6-33.68-85.41-3.07-11.54-7.66-22.68-11.53-34.01-.42-1.24-.65-2.56-.96-3.84,22.44,7.01,45.69,8.23,68.92,9.86,15.98,1.12,31.04-3.11,46.25-6.51,64.75-14.52,127.53-35.51,189.76-58.29,7.63-2.79,15.01-6.3,22.99-8.07,0,35.81,0,71.62.06,107.43,0,1.9-.77,4.03.97,5.68v1ZM1402.04,780.35c.18-5.67-4.3-9.1-8.65-6.43-6.55,4.02-13.63,6.95-20.37,10.59-2.65,1.43-5.25,3.1-3.4,6.54,1.7,3.16,4.44,6.09,8.37,4.29,7.25-3.31,14.71-6.25,21.44-10.62,1.63-1.06,2.79-2.38,2.6-4.37Z"/><path class="cls-11" d="M1617,689c-1.74-1.64-.97-3.77-.97-5.68-.06-35.81-.05-71.62-.06-107.43.34-.3.69-.6,1.03-.9v114Z"/><path class="cls-1" d="M2.1,334.87c19.04,15.13,38.18,30.13,57.08,45.44,13.63,11.04,27.88,21.12,43.14,29.78,1.23.7,2.9.97,3.38,2.74-2.24.82-4.32-.12-6.35-.61-21.67-5.27-44.17-6.91-65.17-15.06-5.28-2.05-10.66-3.81-15.95-5.83-2.09-.8-3.95-.92-5.39.96-1.53,2-1.13,4.08.26,6,1.31,1.81,3.3,2.73,5.17,3.84,18.54,10.99,38.62,16.39,60.04,18.76,17.49,1.94,34.85,5.36,52.36,7.49,4.66.57,9.3.95,13.95.54,6.81-.6,13.1.98,19.49,3.29,17.32,6.24,33.64,14.48,49.72,23.33,19.18,10.56,39.69,18.07,60.12,25.79,46.15,17.45,91.39,37.08,136.51,57,6.55,2.89,13.11,5.78,19.7,8.59,2.28.97,3.45,1.71.95,4-14.41,13.13-24.02,29.49-32.51,46.88-17.03,34.88-31.46,70.93-48.5,105.78-7.97,16.31-16.08,32.55-24.16,48.8-.88,1.76-1.64,3.67-3.7,4.49-1.67-1.35-3.76-1.29-5.7-1.51-23.32-2.69-46.47-6.38-69.64-10.14-49.62-8.07-99.33-15.57-149.03-23.12-16.3-2.48-32.82-2.69-49.24-3.82-6.27-.43-12.37-2.79-18.76-1.64-.9-1.38-1.79-2.76-2.7-4.13-6.14-9.18-13.53-16.68-25.1-18.5-.03-43.95-.07-87.91-.07-131.86-.01-74.26,0-148.51,0-222.77,0-1.5.08-2.99.13-4.49Z"/><path class="cls-5" d="M29.85,716.61c6.4-1.15,12.49,1.21,18.76,1.64,16.42,1.13,32.94,1.34,49.24,3.82,49.7,7.55,99.41,15.05,149.03,23.12,23.17,3.77,46.33,7.45,69.64,10.14,1.93.22,4.03.16,5.7,1.51.08,1.74-.61,3.25-1.42,4.72-9.4,16.83-17.66,34.42-28.82,50.11-15.43,21.69-26.35,45.26-34.15,70.52-2.5,8.08-5.57,15.99-8.34,23.99-.49,1.41-1.27,2.99-1.02,4.32,1.4,7.31-2.83,4.68-6.06,3.49-8.98-3.3-16.96-8.53-24.72-13.92-25.05-17.4-53.05-28.89-80.67-41.22-33.55-14.97-68.42-26.67-102.03-41.46-10.94-4.81-21.4-10.74-32.86-14.37,0-14.03,0-28.05.01-42.08,5.55-1.42,10.52-4.24,15.17-7.33,10.99-7.31,17.52-16.18,13.66-31.67-.44-1.76-.74-3.56-1.11-5.34ZM243.82,818.83c-4.1-.39-7.74-1.5-9.3-5.25-1.45-3.47-.25-6.88,2.12-9.72,1.49-1.78,3.68-3.38,3.07-5.94-1.69-7.08-2.87-14.34-6.66-20.79-1.51-2.57-3.1-3.15-6.12-2.4-5.05,1.25-9.14,5.09-14.44,5.25-3.74.11-5.37,1.79-5.82,5.36-.29,2.29-1.13,4.5-1.68,6.76-.86,3.53-3.37,5.28-6.69,5.86-3.91.68-7.21-.63-9.72-3.78-1.74-2.2-3.82-4.05-6.81-2.86-5.4,2.15-10.76,4.43-16.02,6.92-3.05,1.44-4.17,3.75-2.82,7.37,1.74,4.65,3.17,9.47,4.11,14.34,1,5.16,3.5,7.38,8.84,7.1,3.58-.19,7.33.91,8.66,4.64,1.35,3.76.77,7.53-2.9,10.22-2.38,1.74-3.27,4.11-2.17,7.03,2.46,6.53,4.85,13.09,7.34,19.6,1.12,2.93,3.54,4.49,6.35,3.17,9.04-4.24,19.49-6.18,23.57-17.76,2.83-8.03,8.72-8.65,14.96-2.74,2.33,2.2,4.43,3.05,7.49,1.27,5.17-3.01,10.51-5.74,15.8-8.53,2.85-1.5,3.69-3.76,2.54-6.66-1.72-4.32-3.55-8.6-5.4-12.86-1.62-3.74-3.06-7.88-8.32-5.59ZM93.82,801.97c16.15.05,38.39-16.88,31.8-40.04-3.04-10.68-8.64-19.72-21.04-22.29-8.17-1.7-14.87.36-21.41,5.2-11.22,8.29-18.69,17.84-16.39,33.07,1.93,12.78,13.79,24.02,27.04,24.07Z"/><path class="cls-2" d="M2.17,752.06c-.06-14.42-.13-28.84-.19-43.26,3.47-.95,6.94-2.09,10.42-.06,8.85,3.06,15.7,20.23,10.5,28.11-4.89,7.42-11.77,12.94-20.73,15.21Z"/><path class="cls-3" d="M2.17,752.06c8.96-2.27,15.84-7.79,20.73-15.21,5.2-7.88-1.65-25.06-10.5-28.11-1.64-4.96-6.07-6.32-10.27-7.99-.03-2.25-.06-4.51-.09-6.77,11.57,1.82,18.96,9.32,25.1,18.5.91,1.37,1.8,2.75,2.7,4.13.37,1.78.67,3.58,1.11,5.34,3.86,15.49-2.67,24.36-13.66,31.67-4.65,3.1-9.62,5.91-15.17,7.33.01-2.97.03-5.93.04-8.9Z"/><path class="cls-6" d="M2.14,700.75c4.2,1.66,8.63,3.03,10.27,7.99-3.49-2.03-6.96-.89-10.42.06.05-2.68.1-5.36.16-8.04Z"/><path class="cls-8" d="M961.87,971.41c-16.18-6.74-31.16-15.81-46.7-23.78-11.46-5.88-20.96-14.07-31.04-21.66-3.06-2.3-6.24-4.45-9.43-6.55-1.14-.75-2.53-1.08-3.62.2-1.08,1.26-.54,2.56.28,3.65,1.16,1.53,2.49,2.94,4.29,5.04-3.38-.41-5.82-.84-8.27-.95-1.96-.09-3.71.71-4.15,2.84-.47,2.3,1.18,3.31,3.02,3.91,3.65,1.18,7.26,2.8,11.01,3.25,11.44,1.37,18.55,9.56,26.7,16.16,1.02.83,2.05,1.65,3.07,2.47,6.01,8.24,12.76,15.67,21.79,20.77,5.7,3.22,10.66,7.32,14.6,12.64,1.14,1.54,1.39,2.7.68,4.5-4.7,11.88-13.61,17.85-26.31,17.21-13.28-.67-26.57-1.3-39.13-6.5-1.78-.74-3.68-1.6-5.76-1.26-17.41-6.61-34.33-14.29-50.8-22.99-5.89-3.11-12.03-5.68-18.73-6.51-1.57-.2-3.58-.86-4.15,1.43-.46,1.84,1.25,2.54,2.54,3.22,2.31,1.22,4.69,2.32,7.23,3.57-.91,1.48-2.18,1.17-3.16,1.44-2.15.6-4.5,1.21-4.29,3.98.21,2.77,2.62,3.32,4.84,3.21,5.91-.3,11.51.92,17,2.9,1.82,2.02,4.26,3.15,6.59,4.37,2.96,1.56,4.73,4.01,6.17,6.92,1.22,2.45,1.02,3.87-1.82,4.86-8.87,3.1-18,3.16-27.02,1.71-5.79-.93-11.26-3.09-15.75-7.76-4.2-4.36-9.39-7.85-15.18-10.25-6.96-2.89-8.13-4.85-7.74-12.4.27-5.32-.4-10.26-3.98-14.5-.59-.7-1.41-1.51-.66-2.62,3.54,1.38,7.06,2.81,10.62,4.13,1.58.58,3.57,2.56,4.82.39,1.2-2.08-1.32-3.05-2.71-4.05-1.75-1.25-3.69-2.24-5.54-3.36-5.29-3.21-11.65-3.97-16.86-7.36-4.88.88-8.63-2.23-12.87-3.61-2.45-.8-4.73-2.36-7.5-1.91-3.6-1.73-7.16-3.55-10.82-5.16-5.38-2.36-10.89-3.37-16.31-.21-2.23,1.3-3.72.13-5.48-.83-8.76-4.77-17.3-10.07-27.34-11.92-10.4-7.64-20.63-15.27-33.43-19.01-13.39-3.9-25.21-4.22-34.35,8.27-1.62,2.21-3.77,2.23-6.23,1.31-2.66-.99-5.51-1.67-7.58-3.65-11.25-10.73-25.17-15.65-39.93-19.13-5.08-1.2-9.27-4.59-12.48-8.91.66.08,1.33.12,1.98.23,1.58.28,3.4,1.31,4.47-.66,1.15-2.12-.58-3.41-1.92-4.58-2.91-2.55-6.45-4.08-9.91-5.69-21.15-9.84-42.3-19.66-64.51-26.97-3.21-1.57-6.55-2.45-10.16-2.09-5.71-2.99-12.33-2.74-18.23-5.06.95-4.03,2.08-8.03,2.82-12.1,5.27-28.99,15.85-56.62,21.79-85.43,2.37-11.51,5.7-22.85,6.32-34.69,2.34-15.34,10.21-28.57,16.2-42.52,8.19,5.63,15.91,12.04,25.54,15.27,4.76,1.6,9.13,3.9,13.01,7.15,1.25,1.04,2.58,3.03,4.58.91,3.59,1.61,5.91,4.8,8.9,7.15,1.55,1.21,3.1,4.21,5.26,1.81,1.88-2.09-.99-3.48-2.28-4.71-13.39-12.77-27.58-24.62-41.71-36.55-7.87-6.65-7.3-3.91-3.12-13.67,4.73-11.04,10.78-21.39,16.36-32,1.45-2.77,3.14-3.63,6.33-3.05,13.48,2.47,26.71,5.93,39.2,11.44,10.38,4.58,21.51,5.73,32.15,8.92,12.87,3.86,24.93,1.93,37.03-2.81,10.52-4.12,21.28-7.49,32.64-8.45l.32.25c-4.11,5.39-8.11,10.88-12.35,16.16-6.33,7.87-7.59,17.32-7.63,26.75-.03,7.67-1.54,14.22-7.48,19.22-2.99,2.51-2.95,6.44-5.32,9.36-8.45,10.43-17.1,20.66-21.52,33.89-2.96,8.86-.54,15.8,4.41,22.49,2.26,3.06,4.92,5.84,7.02,9.05.88,3.9,4.03,6.49,6.91,8.08,12.17,6.72,24.73,12.53,39.32,8.24,16.87-4.96,29.88-15.2,39.72-29.48,10.11-14.67,19.83-29.6,29.67-44.46,3.53-5.33,7.75-8.93,14.77-7.74,2.23.38,4.67-.03,6.94-.48,16.79-3.28,33.56-4.8,50.57-1.2,6.26,1.33,12.5,3.62,19.12,2.5,20.04,7.05,39.95,14.44,59.2,23.48,2.38,1.12,4.79,2.54,6.64,4.38,15.03,14.98,34.47,22.95,52.41,33.31,2.88,1.66,5.97,3.05,8.59,5.05,16.18,12.42,34.28,21.51,52.36,30.68,7.59,3.85,13.82,9.74,20.69,14.67,8.42,6.3,14.59,14.43,18.84,23.94,3.4,7.61,8.13,15.35.95,23.47-.21.24-.4.61-.39.91.27,6-4.24,7.64-8.57,9.52-8.87,3.84-13.55,10.68-15.13,20.17-.85,5.07.39,9.93.23,14.89-4.06-1.49-6.89-4.98-10.77-6.73-29.33-13.24-55.56-32.09-84.27-46.45-1.81-.9-2.63-2.29-3.61-3.87-5.07-8.22-10.57-16.14-17.32-23.1-.91-.94-1.93-3.02-3.53-1.76-1.39,1.11,0,2.73.6,4.06,1.2,2.7,3.54,4.84,3.97,7.93l-.32.26c-3.96-.82-6.72-3.31-8.99-6.48-.85-1.19-1.6-2.93-3.44-2.02-2.22,1.1-.85,2.87-.34,4.33,1.05,3.03,2.62,5.86,5.14,7.83,7.35,5.74,14.24,11.94,20.37,18.97-.6,2.48-.02,4.97,1.83,6.4,7.19,5.57,13.25,12.69,21.75,16.47,3.39,1.51,6.29,3.6,9.2,5.84,10.94,8.37,21.86,16.8,33.08,24.77,4.4,3.12,8.88,5.75,10.64,11.27.61,1.92,2.05,3.74,3.86,4.41,6.39,2.37,5.76,6.77,3.82,11.71-2.49,1.92-4.86,4.03-7.49,5.73-5.06,3.25-8.98,7.19-9.72,13.49-1.2.9-1.39,2.34-1.9,3.6-3.77,1.01-5.13,3.93-5.5,7.38-.28,2.6-.16,5.25-.21,7.88-5.15,4.27-10.54,5.87-16.52,1.59-.31-.22-.95,0-1.44.02ZM836.28,843.76c-1.83-1.72-3.94-2.65-7.06-2.6,1.32,2.82,3.63,3.21,5.63,4.03.34.35.63.79,1.04,1.04q6.26,3.93,6.37,11.35c0,.3.18.68.41.87,1.84,1.6,3.57,4.06,6.39,2.55,2.8-1.5,1.88-3.97.6-6.05-3.2-5.2-7.47-9.2-13.37-11.21ZM817.98,819.87c1.09-.12,2.32.06,2.8-1.38-1.47-1.03-3.16-.38-4.72-1.21-12.95-6.86-26.61-12.03-40.47-16.72-3.68-1.24-7.14-1.34-10.59.49-3.43-1.14-6.88-.63-10.32-.08-2,.32-4.38.64-4.07,3.33.26,2.22,2.39,2.47,4.32,2.44,5.2-.09,9.57,1.96,13.96,4.61,12.17,7.34,25.41,12.36,38.91,16.59,7.21,2.25,9.28.19,8.16-6.95.67-.37,1.35-.75,2.02-1.12ZM784.97,948.84c6.43,3.14,12.97,5.98,20.03,7.43,4.72.98,8.98.01,12.43-3.38,1.26-1.24,2.43-4.27-.26-4.08-5.92.42-9.71-3.78-14.66-5.31-13.09-4.02-23.05-13.17-32.85-22.09-3.1-2.82-4.77-2.94-7.65-1.05-3.76-3.61-8.2-6.13-13.03-8.01-1.47-.57-3.23-1.75-4.51.07-1.3,1.85.27,3.12,1.54,4.15,2.51,2.04,3.96,4.82,5.76,7.41,4.43,6.39,9.05,12.67,13.89,18.76,2.83,3.56,6.79,5.84,11.09,7.35,2.92,1.02,5.85,1.42,8.24-1.27ZM864.79,786.23c1.58.6,3.41,2.75,4.76.61,1.23-1.94-1.35-2.7-2.57-3.52-4.13-2.78-6.48-7.08-9.62-10.71-7.45-8.59-14.08-18.52-27.44-18.27-1.61-1.78-3.63-.99-5.47-.73-3.56.5-7.09.98-10.68.43,1.48-3.75-1.49-4.61-3.84-5.67-18.78-8.47-38.41-14.55-58.05-20.58-2.95-.91-6.24-1.44-8.88,1.22-1.46-.29-2.92-.53-4.37-.87-1.15-.27-2.46-1.94-3.37-.04-.74,1.55.78,2.49,1.89,3.05,6.96,3.47,13.4,7.87,21.04,10.11,12.12,3.54,24.5,6.75,35.6,12.81,8,4.37,16.04,8.05,25,9.42,5.73.88,10.2,3.56,14.23,7.54,7.61,7.5,16.04,13.98,25.23,19.43,1.82,1.08,3.97,2.38,6.09,1.22,2.5-1.37-.17-3.64.45-5.43ZM711.91,879.96c1.87-1.85.45-2.7-.99-3.78-17.68-13.21-33.89-28.3-52.14-40.76-2.96-2.02-6.42-3.3-9.65-4.93-1.74-.88-2.88-.69-2.96,1.56-2.06,1.04-3.48-.56-5-1.35-6.19-3.2-12.29-6.6-18.5-9.76-1.49-.76-3.52-2.12-4.87.07-1.13,1.83.65,3.07,1.76,4.18,18.77,18.66,38.18,36.51,62.08,48.64,7.49,3.8,14.43,9.11,23.59,8.19.89-.09,1.91.53,2.78.99,3.6,1.89,4.56.49,3.9-3.04ZM683.03,800.98c-2.47.74-4.56-.55-6.72-1.33-10.18-3.68-20.32-7.47-30.52-11.09-2.81-1-5.74-1.77-8.69-2.23-1.83-.29-4.3-.74-5.07,1.87-.66,2.25,1.21,3.23,2.82,4.14,7.82,4.44,15.52,9.1,23.83,12.62,42.68,18.09,84.21,38.53,123.88,62.49,10.77,6.51,22.04,13.11,29.77,23.79,1.48,2.04,3.73,3.34,6.01,4.38,10.41,4.75,21.18,5.5,32.17,2.5,3.11-.85,5.99-2.28,6.06-6.26.57-.34,1.11-.74,1.71-1,2.49-1.06,4.81-3.01,4.14-5.54-.88-3.32-3.24.36-4.96-.17-1.11-.34-2.28-.48-3.41-.73-3.42-.75-6.83-1.77-10.36-1.41-11.77,1.22-21.76-3.65-31.51-9.19-1.27-.72-1.96-.74-3.02-.24-6.72-4.98-13.44-9.95-20.15-14.94-1.55-1.15-3.38-2.16-2.9-4.61.03-1.39-1.07-2.01-1.94-2.73-12.31-10.28-25.16-19.73-39.99-26.17-10.24-4.45-20.19-9.49-30.08-14.67-9.31-4.88-19.04-8.8-28.94-12.3-1.05-.37-2.27-1.3-3.19-.08-.93,1.24.15,2.11,1.05,2.88ZM826.06,735.9c5.61.39,9.56,1.87,13.08,4.35,4.6,3.24,9.87,4.48,15.31,5.56,12.49,2.48,25.36,3.55,37.02,9.37,2.66,1.33,2.44-.59,2.08-2.09-1.26-5.17-5.08-8.1-9.61-10.09-7.67-3.37-15.9-5.86-24.12-5.45-8.05.4-15.44-1.12-23.01-2.99-3.09-.76-6.36-1.44-10.75,1.34ZM785.01,897.93c.11-.61.23-1.21.34-1.82-3.8-1.54-7.48-3.75-11.43-4.49-13.99-2.63-27.04-7.9-40.05-13.35-1.24-.52-3.03-2.01-3.79.09-.67,1.83,1.56,2.22,2.79,2.84,5.06,2.53,10.14,5.09,14.14,9.18,11.16,11.42,24.86,7.77,38,7.55ZM891.93,870.54c-3.39.26-3.54,2.25-2.72,4.28,1.08,2.67,3.27,4.59,5.54,6.3,11.84,8.91,24.18,17.06,37.05,24.39,1.31.74,3.1,2.51,4.32.48,1.16-1.93-1.13-2.81-2.38-3.7-13.11-9.4-25.77-19.4-38.4-29.44-1.15-.91-2.44-1.65-3.43-2.31ZM945.46,818.17c-2.31.21-4.65-.35-5.09,2.04-.41,2.22,1.76,2.91,3.37,3.73.3.15.62.24.91.4,12.32,6.53,26.62,9.86,35.55,21.91.4.54,1.05.83,1.76.47.9-.46,1.03-1.36.82-2.14-.79-2.93-1.98-5.87-4.32-7.73-8.98-7.13-18.15-14.04-29.15-17.9-1.39-.49-2.91-.59-3.85-.77ZM901.59,758.48c-1.51.07-1.67,1.1-1.42,2.06.52,1.99,1.94,3.42,3.36,4.85,10.61,10.62,24.02,16.43,37.59,21.97.86.35,2.02,1.02,2.48-.38.38-1.17-.79-1.71-1.59-2.23-10.42-6.8-20.84-13.62-31.31-20.35-3.05-1.96-6.71-2.95-9.1-5.92ZM807.85,909.66c1.71,2.61,4.72,1.63,5.82,3.66,3.94,7.22,10.63,12.24,15.17,18.99.83,1.24,1.34,3.75,3.42,2.72,1.85-.91,1.5-3.14.89-4.93-2.32-6.87-5.82-13.14-11.56-17.61-3.74-2.91-8.41-3.91-13.76-2.83ZM875.55,850.44c-2.69-6.38-7.41-11.56-13.39-15.66-1.21-.83-2.67-1.81-4.07-.54-1.78,1.61-.23,2.98.65,4.3,1.75,2.61,3.49,5.23,5.31,7.8,1.82,2.56,3.69,5.11,6.27,7,1.12.82,2.4,1.19,3.72.49,1.14-.61,1.54-1.67,1.51-3.38ZM838.33,929.97c-.53.23-1.11.29-1.36.61-.62.81-.23,1.64.44,2.17,6.14,4.86,11.51,10.51,17.07,15.99,1.07,1.06,2.47,1.04,3.51-.22,1.07-1.3.59-2.4-.6-3.41-5.43-4.61-10.6-9.54-16.57-13.48-.82-.54-1.64-1.09-2.49-1.66ZM851.75,968.45c-.52-.55-1.12-1.32-1.86-1.93-3.18-2.61-6.38-5.19-9.61-7.74-1.32-1.05-2.9-2.21-4.31-.46-1.53,1.9-.23,3.52,1.4,4.5,4.08,2.46,8.27,4.75,12.45,7.05,1.1.61,1.93.37,1.93-1.42ZM805.23,925.25c-.86.11-1.63,1.02-1.3,2.28.95,3.61,3.67,6.15,5.9,8.96.6.76,1.51.37,1.92-.55.91-2.02-3.86-10.55-6.52-10.69Z"/><path class="cls-8" d="M625.25,742.18c11.83-5.23,23.41-10.86,32.91-19.95,2.31-2.21,4.35-4.57,5.6-7.56.3-.73.66-1.66,1.27-1.99,5.41-2.98,6-4.9,2.91-10.2-4.52-7.74-11.94-10.71-20.23-12.19-1.12-.2-2.26-.24-3.37-.35-.41-1.96,1.24-2.33,2.12-3.15,7.79-7.27,10.25-16.16,7.71-26.34-.85-3.42-.87-6.42.67-9.6,2.37-4.91,3.33-10.3,5.91-15.25,7.33-14.07,19.43-22.04,33.87-26.01,21.59-5.94,39.78-18.29,58.89-28.97,3.78-2.11,6.96-5.12,9.42-8.78.64.04,1.27.07,1.91.11-1.33,2.07-.76,3.94,1.07,5.16,2.73,1.82,5.82,2.12,8.98,1.11.79.39,1.48.25,2.08-.39,6.91-1.14,12.98-5.2,20.06-5.77,2.61-1.34,2.24-2.61-.08-3.84-4.29-1.25-8.6-1.02-12.93-.24-.74-.56-1.39-.43-1.96.26-2.01-.08-4.02-.2-5.92.64-.78-.39-1.47-.27-2.08.35-2.73-.01-5.5-.23-7.94,1.39-.77-.18-1.54-.36-2.31-.55,3.56-3.69,7.07-7.43,10.69-11.06,1.43-1.44,3.32-2.42,5.33-2.57,12.7-.92,25.59-3.71,37.5,3.65,9.54,5.9,20.08,7.28,30.82,5.56,16.21-2.59,32.65-.66,48.81-2.86,17.91-2.44,35.92-.02,53.83-1.79,5.66-.56,11.24,1.27,16.74,2.5,7.73,1.72,15.15,1.55,22.48-1.68,8.04-3.55,16.75-4.49,25.3-5.49,13.92-1.62,26.12-7.59,38.39-13.6,7.84-3.84,16.52-5.15,24.58-8.32,1.67-.66,3.07-.6,3.34,1.46,1.25,9.59,6.51,18.22,6.67,28.06-.79,14.23.62,28.54-1.46,42.72-.7,4.76-1.4,9.52-.84,14.36-1.69,2.31-5.47,3.14-4.96,7.01-1.95,4.48.48,6.69,4.37,7.49,2.55.52,5.52.76,7.9-.05,5.67-1.93,8.54.57,10.3,5.4,3.08,8.42,5.83,16.97,9.17,25.28,1.4,3.47.89,5.28-2.15,7.37-4.45,3.07-9.44,5.65-11.73,11.17-2.74,6.62-.79,9.9,6.27,8.94,4.64-.63,6.36,1.19,7.31,5.2,1.21,5.13,1.9,10.42,4.32,15.21-.79,4.1,2.66,7.14,2.76,11.01-2.51,1.11-5.06,1.19-7.73.61-3.48-.74-6.92-.76-9.92,1.63-2.59-1.39-3.99-3.96-5.87-6.05-3.82-4.22-7.8-8.23-12.95-10.83-1.65-.83-3.56-1.72-4.99.14-1.34,1.75-.41,3.53.86,4.97,1.43,1.62,3.04,3.08,4.51,4.67,6.51,7.09,13.33,13.96,17.58,22.8.28.93.32,2.05.89,2.76,3.41,4.28,1.47,6.56-2.36,9.48-14.16,10.8-30.89,15.33-47.46,20.32-1.37.41-3.1.51-4.42.05-11.78-4.09-23.51-8.33-35.23-12.55-.17-.06-.19-.54-.35-1.04,7.08-3.6,13.94-7.62,20.36-12.34,2.87-2.11,4.93-4.84,2.89-8.53-2.17-3.92-4.3-7.99-7.19-11.36-2.56-2.98-2.05-4.65.59-6.87,4.62-3.89,7.83-9.04,11.61-13.67,1.71-2.09,3.08-4.4,2.29-7.32,1.94-4.28-1.71-3.28-3.67-3.88-2.4-1.7-5.18-1.11-7.69-.84-5.91.64-9.78-1.61-12.57-6.8-1.93-3.59-3.76-7.5-7.88-9.34.36-6.85,2.47-13.4,3.58-20.12.63-3.84-.01-7.28-2.11-10.47-1.17-1.78-2.73-3.12-5-2.25-2.35.9-1.9,2.96-1.98,5.04-.67,18.12-3.84,35.52-15.39,50.33-.4-4.18-1.65-8.16-3.27-11.97-4.34-10.25-13.93-15.16-24.79-12.8-2.75.6-5.48,1.46-8.09,2.5-31.7,12.67-62.07,9.8-91.23-7.68-1.15-.69-2.13-1.3-2.5-2.84-1.78-7.56-3.85-8.9-11.62-8.96-2.89-.02-5.75,1.99-8.64.17,9.74-9.43,16.12-21.34,23.82-32.28,2.2-3.13,4.02-6.5,5.34-10.11.47-1.29.68-2.69-.63-3.62-1.23-.88-2.56-.54-3.73.26-2.37,1.61-4.1,3.86-5.94,6-7.9,9.24-14.17,19.68-21.54,29.31-.94.02-1.64-.44-2.22-1.13,2.2-3.89,1.01-8.15,1.05-12.19.08-9.1-9.12-14.37-17.05-10.06-.9.49-1.67,1.08-2.73.56,1.61-8.11-.58-15.87-2.19-23.68-.31-1.49-1.03-2.51-2.62-2.46-1.55.05-2.33,1.14-2.67,2.55-.2.81-.54,1.66-.43,2.44,1.72,12.32-1.36,24.6-.33,36.9.18,2.12.58,4.22.88,6.33-.95.61-1.83.32-2.82-.02-13.4-4.67-26.68-4.05-39.62,1.52-4.05,1.74-7.66,4.53-11.47,6.85-.22-.23-.56-.41-.64-.68-.59-2.01-.04-5.65-3.07-4.95-2.96.68.33,3.53-.23,5.4-.18.6-.08,1.29-.11,1.93-4.79,1.85-8.86,5.28-14.01,6.34-.24-.96-.49-1.93-.72-2.89-.6-2.53-2.01-4.25-4.79-4.11-2.95.14-3.73,2.43-4.12,4.81-.4,2.44-.61,4.92-.89,7.38-2.51,1.81-3.97,4.46-5.34,7.1-3.36,6.48-6.61,13.02-9.84,19.57-1.33,2.7-2.65,5.32-5.12,7.23-15.14,11.73-30.96,22.4-48.35,30.5-7.36,3.43-15.02,6.25-22.63,9.12-4.79,1.81-8.23.34-9.85-3.72ZM1061.51,639.32c-11.66,1.8-20.98,7.73-26.88,18.6-1.21,2.22-2.24,4.96.39,6.75,2.83,1.92,4.56-.58,6.15-2.49,6.23-7.49,15.13-11.83,21.94-18.65.89-.89,2.7-1.16,2.23-2.82-.45-1.59-2.07-1.35-3.83-1.39ZM695.56,650.33c-1.19-1.7.84-4.73-1.41-6.1-1.97-1.2-4.04.75-5.15,2.12-4.63,5.7-9.61,11.01-15.36,15.6-1.24.99-1.61,2.54-.73,4.07.96,1.67,2.43,1.46,3.94.94,6.75-2.32,12.65-5.89,17.04-11.66,1.04-1.37,1.57-2.92,1.67-4.97ZM1097.9,676.99c-.77-1.29-1.48-2.6-2.3-3.84-6.37-9.54-12.52-19.21-17.53-29.57-.62-1.28-1.13-3.41-2.92-2.74-2.28.86-1.45,3.16-.79,4.73,5.01,11.94,13.11,21.91,20.77,32.15.52.7,1.24,1.2,2.1.63.33-.22.42-.82.67-1.36ZM1078.66,685.54c-.47-2.49-.64-4.46-1.78-6.23-2.43-3.77-4.71-7.63-7.08-11.44-.84-1.35-1.45-3.36-3.65-2.43-1.74.74-1.49,2.58-1.22,3.96,1.08,5.6,3.8,10.59,6.26,15.66.81,1.66,2.73,1.68,4.23,2.33,2.65,1.14,3.31-.04,3.24-1.86ZM730.72,601.73c.14-1-.04-1.62-.79-1.85-.94-.3-1.56.31-2.13.93-3.97,4.32-8.38,7.84-14.12,9.78-2.53.85-4.81,3.08-4.73,6.42.04,1.51.89,2.64,2.34,2.81,3.06.37,5.9-.95,7.29-3.38,2.7-4.71,6.97-7.97,10.17-12.17.7-.92,1.41-1.82,1.96-2.54ZM1037.94,565.62c.75,6.62,2.25,13.35,5.03,19.77.34.78.76,1.52,1.76,1.36.8-.13,1.12-.91.94-1.5-2.09-6.84-2.08-13.99-3.29-20.96-.22-1.26-.89-2.73-2.58-2.48-2,.3-1.81,2.02-1.85,3.82ZM695.71,629.39c0,.79-.03,1.45,0,2.1.1,2.28-.24,5.27,3.21,4.83,2.94-.37,2.91-3.12,2.69-5.5-.06-.65-.2-1.33-.48-1.91-.97-2.07-.3-6.04-3.34-5.71-3.16.34-1.42,4.11-2.09,6.19Z"/><path class="cls-7" d="M1222.35,699.11c-4.53,4.7-10.63,6.64-16.42,8.94-11.4,4.54-23.05,8.45-34.44,13.03-4.38,1.76-8.32,4.63-12.47,7-2.08.03-3.85.71-5.14,2.41-3.04-.06-3.01-2.82-3.74-4.61-7.87-19.25-13.95-39.15-21.17-58.63-9.38-25.32-15.69-51.5-23.04-77.4-6.04-21.27-12.24-42.5-18.37-63.74-.32-1.12-.68-2.23-.93-3.36-.72-3.16-1.86-6.48,3.83-4.9,1.61.44,3.67-.15,5.36-.73,14.21-4.86,29.02-7.14,43.57-10.55,15.74-3.69,30.63-10.1,45.55-16.27,3.23-1.34,6.41-2.79,9.63-4.15,6.09-2.56,6.97-1.97,7.45,4.87-1.67,4.68-.1,9.17,1.28,13.47,7.39,23,10.68,46.5,10.91,70.67.17,18.43,2.32,36.74,6.23,54.9,3.03,14.08,6.1,28.31,5.44,42.95-.4,8.82-2.96,17.33-3.52,26.12Z"/><path class="cls-7" d="M403.54,614.87c1.94-9.2,7.28-16.92,11.59-24.97,4.54-8.47,9.77-16.64,15.62-24.37,1.69-2.23,3.28-3.43,6.2-2.85,17.56,3.5,35.67,4.46,52.36,11.85,4.24,1.88,8.75,3.23,13.21,4.53,3.28.96,6.14,2.54,8.8,4.58,4.02,3.09,5.41,6.71,3.22,11.74-4.01,9.19-9.68,17.45-14.27,26.32-11.03,21.36-19.69,43.7-28.1,66.12-10.64,28.36-22.75,56.13-33.08,84.6-.42,1.16-.93,2.12-2.08,2.64-13.25-5.03-27.31-7.07-40.83-11.1-7.63-2.27-15-5.54-23.1-6.09-2.95-.2-3.34-1.78-2.49-4.49,2.64-8.4,5.03-16.88,7.5-25.34,7.94-27.13,14.21-54.67,19.56-82.41,1.98-10.25,3.92-20.51,5.87-30.76Z"/><path class="cls-5" d="M403.54,614.87c-1.96,10.26-3.89,20.51-5.87,30.76-5.36,27.75-11.63,55.28-19.56,82.41-2.47,8.45-4.86,16.94-7.5,25.34-.85,2.71-.45,4.29,2.49,4.49,8.1.55,15.47,3.82,23.1,6.09,13.52,4.03,27.58,6.07,40.83,11.1-.46,7.84-4.99,14.35-7.07,21.67-1.27,4.46-2.65,8.89-4.12,13.29-2.67,8-5.07,16-10.05,23.17-4.92,7.08-8.04,15.29-9.73,23.87-.7,3.57-1.56,5.05-6.15,4.37-29.02-4.28-56.86-12.92-84.68-21.75-6.95-2.21-13.86-4.57-20.85-6.65-3-.89-3.97-2.16-1.95-4.84,9.35-12.36,16.72-25.95,24.3-39.41,6.6-11.73,13.47-23.31,19.83-35.16,17.22-32.1,32.19-65.28,47.04-98.52,5.56-12.44,11.37-24.77,16.98-37.19.61-1.34,1.13-2.85,2.96-3.03Z"/><path class="cls-5" d="M1101.91,727.26c3-2.39,6.44-2.37,9.92-1.63,2.68.57,5.23.49,7.73-.61,4.82,4.77,6.98,11.12,9.88,16.99,3.46,7.01,6.31,14.32,9.85,21.28,2.31,4.53,2.87,9.51,4.52,14.19,1.19,3.39-4.79,12.05-9.43,13.69-4.68,1.66-7.93,4.53-10.62,8.53-4.31,6.43-11.84,8.36-17.9,12.37-8.33,5.51-16.04,11.76-22.87,19.05-1.96,2.09-4.51,1.46-5.94-1.54-7.62-16.02-19.36-27.77-36.45-33.06-15.33-4.75-28.67-13.08-42.07-21.43-4.57-2.85-9.71-4.79-15.01-9.15,6.64,0,12.03.05,17.42-.02,1.88-.02,4.72.63,4.69-2.21-.02-2.51-2.94-2.35-4.73-2.52-7.91-.76-15.86-1.84-23.77-1.74-7.85.1-12.82-5.66-19.68-8.57,4.12-1.3,8.15-2.99,12.36-3.84,11.93-2.41,22.58-7.4,32.63-14.22,8.37-5.67,17.55-10.08,25.7-16.21,4.37-3.29,7.35-7.63,10.79-11.64,1.08-1.26,1.88-2.77,3.73-3.07.79,2.92-.59,5.23-2.29,7.32-3.79,4.63-6.99,9.78-11.61,13.67-2.64,2.22-3.14,3.9-.59,6.87,2.89,3.37,5.02,7.43,7.19,11.36,2.04,3.69-.02,6.42-2.89,8.53-6.42,4.72-13.28,8.74-20.36,12.34.16.5.18.98.35,1.04,11.73,4.23,23.46,8.47,35.23,12.55,1.32.46,3.05.36,4.42-.05,16.57-4.99,33.3-9.52,47.46-20.32,3.84-2.92,5.77-5.2,2.36-9.48-.56-.71-.6-1.83-.89-2.76,2.71.55,3.3,3.07,4.41,4.98,2.34,4.02,3.92,8.61,6.79,12.17,5.54,6.85,8.32,14.59,9.89,23.07.55,2.99,1.07,6.36,4.9,8.83-.78-4.73-1.62-8.57-2.02-12.46-1.01-9.81-3.18-19.23-7.33-28.27-4.07-8.86-10.25-16.2-15.79-24.03Z"/><path class="cls-2" d="M1153.89,730.49c1.29-1.7,3.07-2.38,5.14-2.41-.41,3.71,1.3,4.96,4.94,4.96,10.34-.02,19.16-4.95,28.5-8.3,20.3-7.28,38.71-18.41,57.94-27.88,11.52-5.67,22.68-11.91,33.27-19.15,3.32-2.27,4.72-1.63,5.89,2.18,4.95,16.19,9.39,32.56,15.66,48.32,1.15,2.88-.44,3.66-2.38,4.36-5.14,1.88-10.62,2.45-15.85,4.2-6.59,2.2-13.45,3.59-20.2,5.3-2.29.58-4.4,1.55-6.24,3.02-1.28,1.01-1.89,2.4-1.27,3.99.68,1.73,2.05,1.5,3.71,1.44,13.25-.5,25.52-5.63,38.38-7.91.16-.03.31-.13.47-.18,2.64-.78,5.53-4.22,7.49-2.59,2.26,1.87,2.77,5.83,4.1,8.86,1.08,2.45-.71,3.46-2.29,4.22-16.09,7.79-32.87,12.68-50.97,10.98-4.61-.43-9.08-2.2-13.19-4.39-8.15-4.33-16.54-4.55-25.12-1.86-10.26,3.21-20.43,6.93-29.79,12.11-7.91,4.38-15.5-.06-18.91-5.37-5.57-8.66-11.03-17.4-16.6-26.05-1.56-2.42-2.8-4.89-2.68-7.85Z"/><path class="cls-5" d="M1222.35,699.11c.56-8.79,3.12-17.29,3.52-26.12.66-14.64-2.41-28.88-5.44-42.95-3.91-18.16-6.06-36.47-6.23-54.9-.22-24.17-3.52-47.68-10.91-70.67-1.38-4.3-2.95-8.78-1.28-13.47,4.41,2.14,5.7,6.74,7.63,10.54,8.07,15.86,16.33,31.63,23.31,48.04,5.94,13.97,14.53,26.5,22.62,39.28,3.67,5.81,5.74,12.34,8.09,18.71,6.44,17.45,12.66,34.98,18.89,52.5,2.45,6.9,2.13,6.56-3.91,10.27-16.91,10.38-35.43,17.66-52.55,27.62-1.15.67-2.34,1.29-3.76,1.16Z"/><path class="cls-5" d="M839.83,661.97c2.9,1.82,5.75-.19,8.64-.17,7.77.07,9.83,1.41,11.62,8.96.37,1.55,1.35,2.16,2.5,2.84,29.15,17.47,59.52,20.35,91.23,7.68,2.62-1.05,5.34-1.9,8.09-2.5,10.86-2.37,20.45,2.55,24.79,12.8,1.61,3.81,2.87,7.79,3.27,11.97-4.97,11.26-13.85,19.27-22.67,27.34-4.91,4.49-10.56,8.03-15.68,12.22-2.14,1.75-3.61,1.85-5.6.29-21.4-16.79-45.63-29.02-68.9-42.8-1.97-1.17-3.78-1.72-1.84-4.75,1.9-2.96-.02-5-3.13-5.78-13.66-3.41-27.33-6.8-41-10.18-4.61-1.14-4.62-2.12-2.66-6.35,2.48-5.36,7.73-7.59,11.37-11.57Z"/><path class="cls-5" d="M733.94,948.17c2.77-.45,5.05,1.11,7.5,1.91,4.24,1.39,7.99,4.49,12.87,3.61-2.48,2.13.19,3,1.12,4.12,1.7,2.04,4.73,2.57,6,5.16.85.41,1.38,1.66,2.63,1.02l-.09-.05c-.74,1.11.07,1.92.66,2.62,3.58,4.23,4.25,9.18,3.98,14.5-.38,7.55.78,9.51,7.74,12.4,5.79,2.41,10.98,5.89,15.18,10.25,4.5,4.67,9.96,6.83,15.75,7.76,9.01,1.45,18.15,1.39,27.02-1.71,2.84-.99,3.04-2.41,1.82-4.86-1.44-2.91-3.21-5.36-6.17-6.92-2.33-1.23-4.77-2.36-6.59-4.37,3.7-1.17,7.08-.55,10.52,1.26,15.43,8.11,31.88,14.26,46.34,24.23,1.64,1.13,3.29,2.25,4.87,3.46,5.43,4.17,6.56,6.71,4.05,13.09-3.96,10.07-7.98,20.3-20.31,23.29-9.63,2.34-18.79-.39-27.87-2.57-12.12-2.9-23.75-7.42-34.86-13.2-2.61-1.36-3.47-2.47-3.47-5.89,0-13.58-6.87-23.56-18.32-30.48-7.92-4.79-16.71-7.31-25.65-9.31-2.66-.6-3.7-1.08-3.07-4.48,1.43-7.73.1-15.55-1.34-23.2-1.37-7.28-8.11-10.17-12.96-14.53-2.54-2.29-5.51-4.1-7.37-7.09ZM862.5,1053.71c.71-.35,1.57-.57,2.17-1.09,4.51-3.94,8.81-8.07,11.39-13.63.58-1.25,1.19-2.53-.31-3.51-1.21-.8-2.64-.82-3.73.13-4.76,4.16-9.38,8.46-11.65,14.61-.72,1.94-.2,3.23,2.12,3.5ZM848.62,1047.61c2.08-3.87,4.66-5.27,7.87-5.71,1.76-.24,2.75-1.32,2.22-3.12-.44-1.5-1.78-1.8-3.22-1.68-4.32.35-7.68,4.71-6.87,10.51Z"/><path class="cls-5" d="M1022.97,897.88c.16-4.96-1.07-9.82-.23-14.89,1.58-9.5,6.26-16.34,15.13-20.17,4.34-1.88,8.84-3.52,8.57-9.52-.01-.3.18-.67.39-.91,7.18-8.12,2.46-15.86-.95-23.47-4.26-9.52-10.42-17.65-18.84-23.94,9.16,1.62,17.05,5.6,24.38,11.45,10.12,8.08,19.66,16.59,27.59,26.89,8.03,10.44,11.38,21.76,10.19,35.14-1.53,17.24-10.41,27.96-25.79,34.49-10.42,4.43-19.58,2.25-27.67-4.89-4.11-3.62-8.48-6.84-12.78-10.18ZM1062.91,864.36c.27,1.29-.42,2.9,1.18,3.12,1.44.2,1.74-1.24,1.99-2.37,1.18-5.47,4.43-9.06,9.66-11.02,1.03-.38,1.86-1.33,2.73-2.09,1.36-1.2,2-2.7,1.21-4.43-.84-1.83-2.39-2.64-4.43-2.52-2.29.13-4.21,1.12-5.59,2.83-3.91,4.88-6.04,10.52-6.74,16.48ZM1044.56,883.41c3.43,6.11,2.22,12.64,2.37,19,.07,2.89,2,4.84,3.38,7.07.64,1.04,1.54,1.8,2.89,1.35,1.27-.43,1.78-1.5,1.78-2.72-.01-9.57-2.9-18.01-10.41-24.69ZM1039.08,893.27c-.08-.68-.03-1.54-.28-2.32-1.86-5.82-4.5-11.45-3.88-17.82.1-1.05-.34-2.03-1.65-1.97-1.4.06-1.95,1.11-2.26,2.28-2.07,7.81.05,15.01,3.28,22.02.62,1.34,1.96,1.82,3.39,1.34,1.68-.56,1.27-2.1,1.4-3.53Z"/><path class="cls-4" d="M827.15,693.41c-6.62,1.13-12.86-1.17-19.12-2.5-17.01-3.6-33.78-2.08-50.57,1.2-2.27.44-4.71.85-6.94.48-7.02-1.19-11.24,2.41-14.77,7.74-9.84,14.85-19.56,29.79-29.67,44.46-9.84,14.28-22.85,24.52-39.72,29.48-14.59,4.29-27.15-1.53-39.32-8.24-2.88-1.59-6.03-4.18-6.91-8.08,4.96,1.18,9.92,2.41,14.9,3.52,1.44.32,3.05.73,4.41.41,7.72-1.82,16.02-2.52,22.88-6.34,12.43-6.93,25.77-12.46,36.84-21.68,13.96-11.64,27.67-23.68,35.04-40.79,2.49-5.77,5.4-9.31,11.64-9.96,1.82-.19,3.81-.87,4.82-2.39,3.24-4.87,8.47-5.97,13.44-7.66,4.27-1.45,8.24-3.53,11.93-6.12,6.33-4.42,10.54-4.21,16.79.38,10.01,7.35,19.1,15.91,29.58,22.66,1.62,1.04,3.82,1.38,4.72,3.44Z"/><path class="cls-5" d="M1004.65,931.73c1.94-4.94,2.57-9.34-3.82-11.71-1.81-.67-3.25-2.49-3.86-4.41-1.76-5.52-6.24-8.15-10.64-11.27-11.23-7.98-22.14-16.4-33.08-24.77-2.92-2.23-5.81-4.33-9.2-5.84-8.5-3.78-14.56-10.89-21.75-16.47-1.86-1.44-2.43-3.92-1.83-6.4,6.12-.15,10.59,3.88,15.24,6.74,15.56,9.55,30.79,19.66,47.02,28.03,9.14,4.71,18.64,8.75,27.29,14.38,3.19,2.08,6.23,4.41,9.34,6.61,2.17,1.53,2.24,2.94.11,4.72-2.9,2.43-6.4,4.22-8.24,7.82-.7,1.37-1.78,2.59-.35,3.99,1.44,1.4,2.61.41,3.91-.52,5.15-3.69,4.77-3.54,6.47,2.27,3.51,12.03.21,22.69-6.34,32.5-4.22,6.33-8.02,13.01-13.32,18.58-1.25,1.31-2.43,2.85-4.39,3.12-11.1,1.54-22.15,2.67-32.22-4.04-1.39-.93-2.82-1.8-3.13-3.65.49-.02,1.12-.24,1.44-.02,5.99,4.28,11.37,2.68,16.52-1.59,3.27,3.81,4.22,3.58,6.11-.91,1.65-3.93.46-8.18,1.78-12.14.46-1.38-1.15-1.75-2.18-2.2.51-1.27.7-2.7,1.9-3.6,1.32.03,2.55-.16,3.86-.53,6.88-1.93,10.88-7.83,16.3-11.74,2.05-1.47,6.21-2.48,4.94-5.89-1.49-4-5.23-.48-7.89-1.06ZM1017.71,944.49c-.18-1.54-1.36-1.95-2.09-1.21-3.93,3.99-9.24,6.53-12.3,11.35-.96,1.5-.87,3.69,1.06,4.83,1.89,1.11,3.11-.31,4.11-1.66,2.66-3.57,5.26-7.18,7.84-10.81.57-.8.96-1.73,1.38-2.5Z"/><path class="cls-5" d="M738.88,1005.8c.33,1.19.16,2.32-.46,3.36-5.81,9.8-7.14,20.93-9.41,31.77-.58,2.77-1.64,5.02-4.32,6.27-1.11.52-2.29,1.12-2.63-.74-.71-3.89-2.41-1.72-3.48-.45-2.31,2.77-3.88,6.46-8.04,6.9-6.87.74-13.5,0-19.91-2.99-13.98-6.53-20.58-17.5-20.68-32.76-.05-7.32-.27-14.63,2.35-21.62.51-1.36.24-3.61,2.74-3.54,5.08,1.19,10,2.84,14.81,4.84,4.93,9.63,11.54,16.35,23.61,13.57,3.83,3.82,7.79,4.5,12.29,2.2,4.39-2.24,8.36-5.29,13.12-6.82ZM681.75,1020.98c-1.11,0-2.89.93-1.16,2.83,3.54,3.89,7.72,7.21,12.77,9.03,1.71.61,2.97-.34,2.22-2.46-1.01-2.88-9.94-9.34-13.84-9.4Z"/><path class="cls-5" d="M872.89,1003.35c2.08-.33,3.98.53,5.76,1.26,12.55,5.2,25.85,5.83,39.13,6.5,12.7.64,21.61-5.33,26.31-17.21.71-1.79.46-2.96-.68-4.5-3.94-5.33-8.91-9.43-14.6-12.64-9.03-5.1-15.78-12.54-21.79-20.77,4.15.16,7.53,2.56,11.09,4.16,10.76,4.85,21.32,10.16,31.94,15.33,4.41,2.15,7.39,5.16,9.54,10.03,5.8,13.13,3.21,24.03-5.33,35.08-5.75,7.45-13.51,10.62-21.51,13.45-6.15,2.18-12.41-.38-18.08-3.21-11.18-5.58-21.5-12.56-31.45-20.08-3.39-2.56-7.87-3.58-10.34-7.41ZM948.67,1005.86c-.94-2.38-2.65-1.9-4.37-.94-4.4,2.46-8.24,5.58-10.76,10.03-2.23,3.93-4.71,7.61-8.59,10.11-1.36.88-2.58,1.8-1.54,3.55.95,1.61,2.44,1.36,3.95.78,5.81-2.24,10.33-5.9,12.64-11.82,1.41-3.62,2.98-7.01,6.67-8.92,1.02-.53,1.93-1.32,2.01-2.78ZM955.57,1008.23c3.7-4.7,2.08-8.9,1.43-13.04-.16-1.03-.36-2.09-1.72-1.88-1.28.2-1.38,1.38-1.27,2.34.42,3.89.95,7.77,1.56,12.58Z"/><path class="cls-5" d="M539.99,888.94c3.2,4.32,7.4,7.71,12.48,8.91,14.76,3.48,28.68,8.4,39.93,19.13,2.07,1.97,4.93,2.66,7.58,3.65,2.46.92,4.61.9,6.23-1.31,9.14-12.49,20.97-12.17,34.35-8.27,12.8,3.73,23.03,11.37,33.43,19.01.02,1.3.04,2.59.06,3.89l-.13.13c-5.74-4.95-11.82-9.34-18.79-12.52-6.7-3.05-13.29-5.72-20.96-4.62-4.67.67-9.31-1.66-14.25.08-7.31,2.58-11.93,7.51-15.01,14.3-2.5,5.51-3.1,5.82-7.73,1.23-6.77-6.71-14.25-12.42-22.23-17.56-8.84-5.7-18.01-9.29-28.64-5.26-2,.76-3.64-.08-5.5-1.25-24.73-15.53-47.73-33.71-73.4-47.78-3.33-1.83-6.83-3.36-10.66-5.22,2.04-1.56,3.83-3.41,3.18-6.3,3.6-.36,6.95.52,10.16,2.09-.56,2.93,1.01,4.5,3.32,6,13.3,8.6,27.56,15.28,41.98,21.7,7.37,3.28,14.92,5.98,22.58,8.47.25,1.13.74,1.94,2.1,1.57l-.08-.06Z"/><path class="cls-5" d="M1116.8,714.01c-2.42-4.79-3.11-10.08-4.32-15.21-.95-4.01-2.67-5.83-7.31-5.2-7.07.96-9.02-2.31-6.27-8.94,2.29-5.53,7.28-8.11,11.73-11.17,3.04-2.09,3.55-3.91,2.15-7.37-3.34-8.31-6.09-16.86-9.17-25.28-1.77-4.83-4.64-7.33-10.3-5.4-2.38.81-5.35.57-7.9.05-3.9-.79-6.33-3-4.37-7.49,3.28,1.87,6.08.36,8.81-1.33,3.73-2.29,7.61-3.66,12.1-4.08,2.94-.28,3.44.87,3.99,2.93,7.72,28.58,19.29,55.87,28.15,84.05,6.22,19.78,15.75,37.62,27.36,54.56,1.72,2.51,2.8,4.8-2.03,5.08-3.11.18-5.96,4.25-8.5,2.89-1.69-.91-.96-5.6-2.21-8.17-7.73-15.82-14.47-32.21-25.6-46.14-1.6-2-2.91-4.69-6.3-3.78Z"/><path class="cls-6" d="M608.18,964.96c-.02-1.67-.05-3.35-.07-5.02-.77-3.89.26-8.48-4.24-10.91,2.39-7.8,5.35-15.33,10.54-21.76,2.57-3.18,6.05-4.48,10.09-4.57,14.15-.3,26.96,4.04,38.39,11.99,7.57,5.26,11.27,13.37,12.82,22.35.42,2.45.4,4.98,1.68,7.21.44.77.76,1.58.16,2.31-2.74,3.29-3.76,7.85-7.65,10.28-3.5.56-4.31,3.83-6.04,6.12-4.45,5.87-18.27,10.14-25.32,1.56,11.55,1.77,15.79-.3,21.61-10.39.91-1.57,2.09-3,3.25-4.39,4.77-5.7,4.36-8.27-2.28-11.37-9.51-4.44-18.7-9.44-27.48-15.2-2.78-1.83-5.5-3.76-8.36-5.45-1.57-.93-4.01-1.87-4.14,1.04-.15,3.33-2.22,5.49-3.56,8.07-2.76,5.28-3.36,10.58-1.8,16.38,1.74,6.48,5.95,11.4,9.6,16.7-6.75-.2-11.23-3.4-13.64-9.8-.72-1.9-2.37-3.46-3.59-5.17Z"/><path class="cls-5" d="M638.55,984.52c7.05,8.58,20.87,4.31,25.32-1.56,1.73-2.29,2.54-5.55,6.04-6.12.43,3.39-1.61,6.08-2.88,8.85-2.75,5.98-4.29,12.24-4.9,18.69-.3,3.21-1.44,4.15-4.36,3.42-.8-.2-1.59-.53-2.41-.62-1.89-.2-3.47.64-3.87,2.42-.43,1.92,1.56,2.2,2.79,2.95,2.03,1.24,6.36-1.15,6.22,1.97-.13,3.06-4.5,1.52-6.84,1.95-6.52,1.19-13.07,2.13-19.39,4.25-2.29.77-4.6.03-6.85-.6-8.83-2.47-15.51-8.06-21.23-14.89-1.68-2.01-2.15-4.46-1.56-7.45.73-3.68.78-7.74.05-11.42-1.52-7.69,1.71-14.38,3.49-21.4,1.22,1.71,2.87,3.27,3.59,5.17,2.41,6.39,6.89,9.6,13.64,9.8,4.04,2.52,8.38,4.15,13.14,4.6Z"/><path class="cls-4" d="M472.64,711.89c-.62,11.83-3.95,23.18-6.32,34.69-5.94,28.81-16.52,56.44-21.79,85.43-.74,4.07-1.87,8.07-2.82,12.1-5.35-.17-10.39-1.92-15.56-3.03-4.26-.92-4.12-3.76-2.21-6.3,4-5.3,6.17-11.34,8.09-17.53,10.85-34.87,24.8-68.58,38.2-102.5.47-1.18.73-2.65,2.4-2.87Z"/><path class="cls-6" d="M689.85,996.85c-4.81-2-9.74-3.65-14.81-4.84.17-.22.23-.48.16-.75,2.42-1.87,3.78-4.22,3.38-7.38.15-3.3,1.75-6,3.55-8.63,6.74-9.82,15.47-17.78,24.1-25.83,2.92-2.72,6.53-2.28,9.88-.95,11.35,4.49,21.17,11.58,28.96,20.67,5.11,5.97,4.13,14.5,3.13,22.04-.38,2.89,1.95,6.83-2.17,8.89-1.7-.54-2.66.26-3.22,1.79-1.31,1.31-2.62,2.63-3.93,3.94-4.76,1.53-8.73,4.58-13.12,6.82-4.5,2.29-8.46,1.61-12.29-2.2,7.67-1.25,15.43-2.9,20.1-9.73,7.49-10.94,7.9-15.77-2.92-23.76-4.55-3.36-9.6-5.97-13.94-9.66-10.16-8.63-10.21-8.58-19.72.22-7.48,6.91-10.61,19.81-7.13,29.37Z"/><path class="cls-6" d="M748.52,1009.83c4.28-6.54,4.24-6.04,12.2-4.88,13.56,1.97,23.2,9.16,30.12,20.59,2.22,3.66,3.04,7.49,2.49,11.88-1.19,9.41-.24,18.91-.51,28.36-13.73,3.07-14.96,2.52-21.8-9.79-.4-.72-.89-1.39-1.34-2.08,1.76-3.37,3.13-7.02,5.36-10.05,3.04-4.12,1.77-7.49-1.58-9.85-7.16-5.03-12.57-11.71-18.51-17.93-1.78-1.87-3.96-3.77-6.96-1.96-.88-1.56.68-2.82.53-4.3Z"/><path class="cls-2" d="M255.94,912.72c.18-5.23,2.33-9.62,4.04-14.1,6.93-18.17,13.63-36.45,22.46-53.84,1.54-3.04,2.95-4.21,6.43-2.94,4.04,1.47,8.39,2.05,12.47,3.42,5.61,1.89,6.3,4.03,2.67,8.71-9.38,12.11-17.54,25.05-26.08,37.72-4.55,6.75-9,13.57-13.5,20.35-.64.97-1.2,2.03-1.99,2.86-1.31,1.39-2.35,3.71-4.78,2.8-2.49-.93-1.39-3.42-1.72-4.99Z"/><path class="cls-2" d="M769.67,1053.9c.45.69.94,1.36,1.34,2.08,6.85,12.31,8.07,12.86,21.8,9.79,2.21,3.82,4.29,3.74,6.3-.17.53-1.03.96-2.47,1.84-2.89,3.14-1.51,2.89-3.42,1.43-5.99-.73-1.29-.96-3.11.23-4.21,1.25-1.15,2.47.13,3.48.91,2.66,2.03,7.93,2.07,8.11,5.18.17,2.83-4.95,3.76-7.35,6.04-1.68,1.59-3.72,2.81-5.38,4.42-5.28,5.1-11.07,6.53-18.59,5.36-7.55-1.17-15.37-.84-23.08,1.94-7.03,2.53-12.32-2.7-16.86-7.22-2.99-2.97-4.81-7.11-7.24-10.66-3.14-4.58-2.74-9.76-1.04-14.28,2.16-5.73,4.02-11.56,6.14-17.3.72,1.03,1.44,2.07,2.16,3.1,0,4.47-.13,8.95.02,13.42.2,5.8,3.89,10.37,9.26,11.41,5.85,1.13,11.75,2.05,17.42-.92ZM754.04,1066.17c-2.03-.05-2.17,1.4-2.01,2.69.23,1.85-1.34,4.7,2.1,5.05,2.03.21,2.81-1.32,2.86-3.21.06-2.23-.93-3.74-2.94-4.54Z"/><path class="cls-4" d="M625.25,742.18c1.63,4.06,5.07,5.53,9.85,3.72,7.61-2.88,15.26-5.69,22.63-9.12,17.39-8.1,33.21-18.77,48.35-30.5,2.47-1.92,3.8-4.54,5.12-7.23,3.23-6.55,6.48-13.09,9.84-19.57,1.37-2.64,2.83-5.28,5.34-7.1,1.49,5.26.44,10.56-1.86,15.01-5.83,11.32-11.09,23.14-21.13,31.72-5.43,4.64-11.04,9.03-17.31,12.51-9.86,5.46-19.57,11.29-29.48,16.55-6.47,3.44-14.11,6.14-22.35,5.01-7.05-.96-11.7-4.79-16.01-10.46,2.45-.19,4.73-.36,7.01-.54Z"/><path class="cls-6" d="M544,933.11c-3.46-3.12-2.27-7.46-2.59-11.24-.24-2.88,2.85-3.57,5.25-4.48,7.51-2.83,14.44-1.27,21,2.67,7.98,4.79,16.23,9.22,22.85,15.98.81.82,1.81,1.49,2.8,2.08,2.25,1.32,6.12,2.18,6.52,3.88.76,3.26-1.68,6.55-3.02,9.75-2,2.08-4.01,2.48-7.06,1.68-7.34-1.92-13.4-5.68-18.88-10.72-6.2-5.71-14.02-8.22-21.85-10.57-1.67-.5-3.65-.88-5.02.97Z"/><path class="cls-2" d="M1010.85,681.03c4.13,1.84,5.95,5.76,7.88,9.34,2.79,5.19,6.66,7.44,12.57,6.8,2.51-.27,5.29-.86,7.69.84-8.46,9-18.09,16.37-29.21,21.9-11.9,5.92-23.59,12.25-35.38,18.37-.53.27-1.17.31-2.18.05,16.95-16.46,32.45-33.78,38.63-57.31Z"/><path class="cls-6" d="M615.94,732.62c3.88-7.97,7.42-15.44,13.02-21.7,1.99-2.23,3.83-4.59,5.93-6.72,1.79-1.83,1.63-5.67,5.76-5.17,6,.72,11.87,1.71,16.72,5.66,1.52,1.24.37,2.77-.19,4.09-2.51,5.99-7.37,10.15-11.77,14.59-2.55,2.57-5.71,4.53-8.62,6.73-4.44,3.35-9.11,5.33-14.82,3.15-1.63-.62-3.58-.41-6.02-.64Z"/><path class="cls-4" d="M816.21,628.72c1.06.52,1.83-.07,2.73-.56,7.93-4.3,17.13.97,17.05,10.06-.04,4.04,1.15,8.3-1.05,12.19-1.14,2.93-4.06,5.07-3.85,8.6,0,0-.06.08-.06.08-.97.43-1.02,1.26-.94,2.15-3.26,4.75-9.82,4.15-13.67,9.94.77-15.25-1.15-28.84-.22-42.46Z"/><path class="cls-4" d="M544,933.11c1.37-1.85,3.35-1.47,5.02-.97,7.84,2.35,15.66,4.87,21.85,10.57,5.48,5.05,11.54,8.81,18.88,10.72,3.05.8,5.06.4,7.06-1.68.46,4.77.78,9.57,1.47,14.31.26,1.77.43,2.62-1.72,3.1-4.51,1-8.91,2.61-13.65,1.61,0-.36-.13-.78.02-.96,6.56-7.84,5.14-12.05-5.11-13.96-10.36-1.93-19.11-7.06-28.04-12.28-4.6-2.69-6.04-5.75-5.79-10.45Z"/><path class="cls-5" d="M1085.98,620.99c-.56-4.84.15-9.6.84-14.36,2.08-14.19.67-28.49,1.46-42.72,1.23.1,1.5,1.02,1.87,1.99,5.59,14.73,9.38,29.96,12.5,45.37.35,1.72.14,3.17-1.64,3.55-5.39,1.17-9.9,4.42-15.03,6.17Z"/><path class="cls-11" d="M754.95,659.14c3.81-2.31,7.41-5.1,11.47-6.85,12.94-5.57,26.22-6.18,39.62-1.52.99.34,1.87.63,2.82.02.08,1.15.12,2.31.24,3.46.22,2.05,2.31,4.72.21,5.99-2.12,1.28-5.49.46-7.36-1.12-4.69-3.98-10.41-3.97-15.86-5.05-6.1-1.21-11.4,1.06-16.48,4.13-2.41,1.46-4.87,2.85-7.37,4.15-5.54,2.87-5.55,2.83-7.29-3.22Z"/><path class="cls-11" d="M531.96,692.7c-1.99,2.12-3.33.13-4.58-.91-3.88-3.25-8.25-5.55-13.01-7.15-9.63-3.23-17.34-9.65-25.54-15.27,3.49-8.35,3.63-8.52,10.72-2.98,10.96,8.57,22.59,16.33,32.4,26.32Z"/><path class="cls-5" d="M674.06,933.94c8.13,2.72,14.89,8.04,22.44,11.85,1.04.52,1.56,1.25.35,2.24-4.49,3.69-8.95,7.41-13.45,11.1-.93.76-2.22.8-2.18-.57.23-8.98-4.11-16.55-7.29-24.49,0,0,.13-.13.13-.13Z"/><path class="cls-4" d="M736.89,667.2c5.14-1.07,9.22-4.49,14.01-6.34-1.07,6.87-1.66,13.97-10.14,16.34-1.93.54-2.69.49-2.84-1.69-.2-2.78-.67-5.54-1.02-8.31Z"/><path class="cls-2" d="M555.02,953.97c7.63,3.1,14.9,7.3,23.49,7.43.82.01,2.06.46,2.02,1.78-.04.96-.84,1.33-1.63,1.64-6.45,2.54-20.25-2.32-23.58-8.38-.37-.67-.25-1.61-.36-2.42l.06-.06Z"/><path class="cls-4" d="M603.88,949.02c4.5,2.44,3.47,7.03,4.24,10.91-3.53-.78-3.38,3.04-5.3,4.32-2.56-6.47-2.35-9.42,1.06-15.24Z"/><path class="cls-11" d="M742.96,1029.99c-.72-1.03-1.44-2.07-2.16-3.1.08-6.81,2.17-12.72,7.71-17.07.14,1.47-1.42,2.73-.53,4.3-5.12,4.2-3.81,10.43-5.02,15.87Z"/><path class="cls-11" d="M831.09,659.01c-.21-3.54,2.71-5.67,3.85-8.6.58.7,1.28,1.15,2.22,1.13-1.73,2.72-3.13,5.72-6.07,7.47Z"/><path class="cls-5" d="M678.58,983.88c.4,3.16-.96,5.51-3.38,7.38-.38-3.15.65-5.66,3.38-7.38Z"/><path class="cls-2" d="M764.83,571.94c-.64-.04-1.27-.07-1.91-.11-.08-.78-.04-1.5.88-1.78.77.18,1.54.36,2.31.55-.09.77-.42,1.31-1.28,1.34Z"/><path class="cls-5" d="M742.81,1001.86c.56-1.53,1.52-2.33,3.22-1.79-.17,2.23-1.64,2.1-3.22,1.79Z"/><path class="cls-11" d="M830.1,661.23c-.08-.89-.03-1.72.94-2.15.26.97-.2,1.62-.94,2.15Z"/><path class="cls-8" d="M908.04,827.97c.21.2.43.4.64.59-.13.1-.35.31-.37.29-.21-.19-.39-.42-.59-.63,0,0,.32-.25.32-.25Z"/><path class="cls-8" d="M662.71,620.77c.2-.19.39-.4.62-.55.05-.03.25.17.39.26-.23.18-.46.36-.69.55,0,0-.32-.25-.32-.25Z"/><path class="cls-2" d="M554.97,954.03c-.14-.15-.28-.3-.42-.45.16.13.31.26.47.39,0,0-.05.06-.05.06Z"/><path class="cls-3" d="M1402.04,780.35c.19,1.99-.97,3.31-2.6,4.37-6.73,4.38-14.2,7.31-21.44,10.62-3.93,1.8-6.67-1.13-8.37-4.29-1.85-3.43.75-5.11,3.4-6.54,6.73-3.63,13.82-6.56,20.37-10.59,4.35-2.67,8.83.76,8.65,6.43ZM1378.07,790.58c5.13-2.84,11.09-6.12,17.01-9.46.59-.33.74-1.09.37-1.76-.45-.82-1.2-1.31-2.05-.92-6.19,2.85-12.16,6.09-17.53,10.34-.3.24-.47.93-.36,1.31.21.74.91.82,2.56.49Z"/><path class="cls-3" d="M243.82,818.83c5.26-2.29,6.69,1.85,8.32,5.59,1.85,4.27,3.68,8.54,5.4,12.86,1.15,2.9.31,5.16-2.54,6.66-5.3,2.79-10.64,5.52-15.8,8.53-3.05,1.78-5.16.93-7.49-1.27-6.24-5.91-12.13-5.29-14.96,2.74-4.08,11.58-14.54,13.52-23.57,17.76-2.81,1.32-5.23-.23-6.35-3.17-2.49-6.52-4.88-13.07-7.34-19.6-1.1-2.93-.21-5.29,2.17-7.03,3.68-2.69,4.25-6.46,2.9-10.22-1.33-3.73-5.09-4.83-8.66-4.64-5.33.29-7.84-1.93-8.84-7.1-.94-4.87-2.37-9.7-4.11-14.34-1.36-3.62-.23-5.92,2.82-7.37,5.25-2.49,10.62-4.76,16.02-6.92,2.99-1.19,5.07.66,6.81,2.86,2.51,3.16,5.8,4.47,9.72,3.78,3.31-.58,5.83-2.33,6.69-5.86.55-2.26,1.39-4.47,1.68-6.76.45-3.57,2.08-5.25,5.82-5.36,5.3-.16,9.39-4,14.44-5.25,3.02-.75,4.61-.17,6.12,2.4,3.79,6.45,4.97,13.7,6.66,20.79.61,2.56-1.58,4.16-3.07,5.94-2.38,2.84-3.58,6.25-2.12,9.72,1.57,3.74,5.2,4.86,9.3,5.25ZM189.27,802.83c-2.23-2.23-3.87-6.73-6.87-6.12-4.9.99-10.54,2.53-13.79,6.27-2.22,2.55,1.59,6.67,2.3,10.18.2.97.77,1.89.85,2.86.23,2.8,1.62,3.64,4.41,4.23,4.58.96,9.83,1.45,12.21,6.59,2.78,6.01,2.66,11.94-1.37,17.4-1.15,1.55-2.13,2.63-1.11,4.79,1.91,4.05,3.46,8.27,5.05,12.47.6,1.57,1.38,2.55,3.22,2.48,4.43-.17,14.25-7.25,15.77-11.43,3.86-10.66,14.7-13.96,23.74-7.2,1.06.79,1.97,2.09,3.45,1.46,5.04-2.16,10.53-4.29,13.99-8.26,1.92-2.2-2.36-6.02-3.45-9.26-.11-.31-.34-.6-.4-.91-.59-3.33-2.46-4.5-5.92-4.5-5.5,0-10.35-2.23-12.52-7.51-2.2-5.36-1.64-11.16,2.23-15.51,2.72-3.06,3.11-5.62,1.38-8.83-1.62-3.01-.62-7.39-4.76-9.07.77-2.55-.59-2.53-2.31-1.84-2.77,1.12-5.4,2.88-8.26,3.4-4.04.73-5.58,2.65-6.48,6.65-2.21,9.88-7.62,13.07-17.95,11.58-1.12-.16-2.29.04-3.44.08Z"/><path class="cls-3" d="M93.82,801.97c-13.25-.05-25.11-11.3-27.04-24.07-2.3-15.23,5.17-24.77,16.39-33.07,6.55-4.84,13.24-6.89,21.41-5.2,12.4,2.57,18,11.61,21.04,22.29,6.59,23.16-15.65,40.09-31.8,40.04ZM77.07,763.97c-.72-.11-.61.45-.7.85-6.52,7.69.79,26.53,13.4,29.07,10.02,2.02,21.15-3.91,26.49-13.89,4.57-8.54,2.62-17.28-4.2-26.35-2.02-2.69-4.37-5.55-8.39-5.51-11.64-3.91-25.38,4.27-26.71,15.91l.11-.08Z"/><path class="cls-11" d="M786.11,854.05c-.49,2.45,1.35,3.46,2.9,4.61,6.71,4.99,13.43,9.96,20.15,14.94-.26,1.83-.19,3.56.75,5.28,4,7.32,21.27,15.94,29.51,14.83,5.7-.77,11.44-1.24,17.16-1.84-.06,3.97-2.95,5.41-6.06,6.26-10.99,3-21.76,2.25-32.17-2.5-2.28-1.04-4.53-2.34-6.01-4.38-7.73-10.68-19-17.29-29.77-23.79-39.67-23.96-81.2-44.4-123.88-62.49-8.31-3.52-16.01-8.18-23.83-12.62-1.6-.91-3.48-1.89-2.82-4.14.77-2.61,3.23-2.16,5.07-1.87,2.94.46,5.88,1.23,8.69,2.23,10.2,3.62,20.34,7.41,30.52,11.09,2.16.78,4.24,2.08,6.72,1.33,9.1,3.32,16.84,9.14,25.16,13.87,23.81,13.53,48.38,25.62,72.31,38.91,1.88,1.04,3.68,1.42,5.62.29Z"/><path class="cls-11" d="M711.91,879.96c.66,3.53-.3,4.93-3.9,3.04-.87-.46-1.89-1.08-2.78-.99-9.16.93-16.09-4.39-23.59-8.19-23.9-12.12-43.31-29.97-62.08-48.64-1.12-1.11-2.9-2.35-1.76-4.18,1.35-2.19,3.38-.82,4.87-.07,6.21,3.16,12.31,6.56,18.5,9.76,1.52.79,2.94,2.39,5,1.35,1.33,1.47,2.47,3.17,4.01,4.36,15.48,11.94,30.84,24.06,46.67,35.52,4.51,3.26,8.75,7.82,15.06,8.03Z"/><path class="cls-11" d="M813.77,754.03c3.59.56,7.13.07,10.68-.43,1.84-.26,3.86-1.05,5.47.73-1.4,2.2.19,3.23,1.66,4.39,1.55,1.22,3.24,2.38,4.45,3.9,7.93,9.9,17.33,17.98,28.76,23.6-.62,1.8,2.05,4.06-.45,5.43-2.12,1.16-4.26-.14-6.09-1.22-9.19-5.45-17.62-11.93-25.23-19.43-4.03-3.98-8.5-6.66-14.23-7.54-8.96-1.37-16.99-5.05-25-9.42-11.1-6.06-23.48-9.27-35.6-12.81-7.64-2.23-14.08-6.64-21.04-10.11-1.12-.56-2.64-1.5-1.89-3.05.91-1.9,2.22-.23,3.37.04,1.44.34,2.91.58,4.37.87.17,1.77,1.36,2.12,2.82,1.96,2.23-.24,4.29.45,6.28,1.22,17.11,6.63,34.18,13.35,51.3,19.96,3.3,1.27,6.54,3.33,10.36,1.89Z"/><path class="cls-10" d="M786.11,854.05c-1.94,1.13-3.74.75-5.62-.29-23.93-13.3-48.5-25.38-72.31-38.91-8.32-4.73-16.06-10.54-25.16-13.87-.9-.77-1.99-1.64-1.05-2.88.92-1.22,2.14-.29,3.19.08,9.9,3.5,19.64,7.43,28.94,12.3,9.89,5.18,19.84,10.22,30.08,14.67,14.83,6.44,27.68,15.89,39.99,26.17.86.72,1.97,1.34,1.94,2.73Z"/><path class="cls-10" d="M762,920.38c2.88-1.9,4.55-1.77,7.65,1.05,9.8,8.92,19.76,18.06,32.85,22.09,4.96,1.52,8.75,5.73,14.66,5.31,2.7-.19,1.52,2.84.26,4.08-3.45,3.39-7.7,4.35-12.43,3.38-7.06-1.46-13.6-4.3-20.03-7.43-5.87-4.09-11.09-8.94-15.79-14.28-3.56-4.05-7.63-8.03-7.18-14.18Z"/><path class="cls-10" d="M537.97,887.43c-7.65-2.48-15.21-5.19-22.58-8.47-14.42-6.42-28.68-13.11-41.98-21.7-2.32-1.5-3.88-3.07-3.32-6,22.21,7.31,43.36,17.13,64.51,26.97,3.46,1.61,7,3.14,9.91,5.69,1.34,1.18,3.07,2.46,1.92,4.58-1.07,1.98-2.89.94-4.47.66-.65-.12-1.32-.16-1.98-.23,0,0,.08.06.08.06-.7-.52-1.4-1.05-2.1-1.57Z"/><path class="cls-9" d="M826.06,735.9c4.39-2.78,7.67-2.1,10.75-1.34,7.57,1.87,14.97,3.39,23.01,2.99,8.22-.41,16.44,2.09,24.12,5.45,4.52,1.98,8.35,4.92,9.61,10.09.36,1.5.58,3.41-2.08,2.09-11.66-5.82-24.53-6.89-37.02-9.37-5.44-1.08-10.7-2.32-15.31-5.56-3.52-2.48-7.47-3.96-13.08-4.35Z"/><path class="cls-11" d="M815.96,820.98c1.12,7.14-.95,9.21-8.16,6.95-13.5-4.22-26.75-9.24-38.91-16.59-4.39-2.65-8.77-4.7-13.96-4.61-1.92.03-4.06-.22-4.32-2.44-.31-2.68,2.07-3.01,4.07-3.33,3.44-.55,6.89-1.06,10.32.08-.14,2.02.66,2.89,2.83,3.07,1.92.16,3.95.76,5.64,1.69,12.68,7.05,26.23,11.47,40.49,13.81.34.99.81,1.78,2.08,1.4l-.08-.05Z"/><path class="cls-10" d="M856.58,891.87c-5.72.6-11.46,1.07-17.16,1.84-8.24,1.11-25.51-7.51-29.51-14.83-.94-1.72-1.01-3.45-.75-5.28,1.06-.49,1.75-.48,3.02.24,9.74,5.53,19.74,10.41,31.51,9.19,3.53-.37,6.94.66,10.36,1.41,1.14.25,2.31.39,3.41.73,1.72.53,4.08-3.15,4.96.17.67,2.53-1.65,4.47-4.14,5.54-.6.26-1.14.66-1.71,1Z"/><path class="cls-10" d="M711.91,879.96c-6.31-.21-10.56-4.76-15.06-8.03-15.83-11.46-31.19-23.58-46.67-35.52-1.54-1.19-2.68-2.9-4.01-4.36.08-2.24,1.22-2.44,2.96-1.56,3.22,1.64,6.69,2.91,9.65,4.93,18.25,12.46,34.47,27.55,52.14,40.76,1.45,1.08,2.87,1.93.99,3.78Z"/><path class="cls-9" d="M813.77,754.03c-3.83,1.44-7.06-.62-10.36-1.89-17.12-6.61-34.19-13.33-51.3-19.96-1.99-.77-4.05-1.46-6.28-1.22-1.46.16-2.66-.2-2.82-1.96,2.65-2.65,5.93-2.12,8.88-1.22,19.64,6.03,39.27,12.12,58.05,20.58,2.34,1.06,5.32,1.91,3.84,5.67Z"/><path class="cls-11" d="M762,920.38c-.45,6.16,3.62,10.14,7.18,14.18,4.7,5.34,9.93,10.19,15.79,14.28-2.4,2.69-5.32,2.29-8.24,1.27-4.3-1.51-8.26-3.79-11.09-7.35-4.84-6.09-9.46-12.37-13.89-18.76-1.8-2.59-3.24-5.37-5.76-7.41-1.27-1.03-2.84-2.3-1.54-4.15,1.28-1.82,3.04-.64,4.51-.07,4.82,1.87,9.26,4.4,13.03,8.01Z"/><path class="cls-9" d="M785.01,897.93c-13.14.22-26.84,3.87-38-7.55-4-4.09-9.08-6.65-14.14-9.18-1.23-.62-3.46-1.01-2.79-2.84.77-2.1,2.56-.61,3.79-.09,13.02,5.45,26.06,10.72,40.05,13.35,3.95.74,7.63,2.96,11.43,4.49-.11.61-.23,1.21-.34,1.82Z"/><path class="cls-10" d="M864.79,786.23c-11.43-5.62-20.83-13.7-28.76-23.6-1.22-1.52-2.9-2.67-4.45-3.9-1.47-1.16-3.05-2.19-1.66-4.39,13.36-.25,19.99,9.68,27.44,18.27,3.14,3.63,5.49,7.93,9.62,10.71,1.22.82,3.8,1.58,2.57,3.52-1.35,2.13-3.18-.01-4.76-.61Z"/><path class="cls-9" d="M891.93,870.54c.98.66,2.27,1.4,3.43,2.31,12.63,10.04,25.29,20.03,38.4,29.44,1.24.89,3.54,1.77,2.38,3.7-1.22,2.03-3.02.26-4.32-.48-12.88-7.33-25.22-15.48-37.05-24.39-2.27-1.71-4.45-3.62-5.54-6.3-.82-2.03-.67-4.02,2.72-4.28Z"/><path class="cls-10" d="M813.96,819.63c-14.27-2.35-27.82-6.77-40.49-13.81-1.69-.94-3.72-1.53-5.64-1.69-2.17-.18-2.97-1.05-2.83-3.07,3.45-1.84,6.92-1.74,10.59-.49,13.86,4.69,27.52,9.86,40.47,16.72,1.56.83,3.24.18,4.72,1.21-.48,1.44-1.71,1.27-2.8,1.38-.65-.94-1.3-.92-1.96,0-.69-.07-1.37-.15-2.06-.22Z"/><path class="cls-9" d="M945.46,818.17c.94.18,2.46.28,3.85.77,11,3.86,20.16,10.77,29.15,17.9,2.35,1.86,3.54,4.8,4.32,7.73.21.78.07,1.68-.82,2.14-.7.36-1.36.07-1.76-.47-8.93-12.05-23.23-15.37-35.55-21.91-.29-.16-.62-.25-.91-.4-1.61-.83-3.78-1.51-3.37-3.73.44-2.39,2.78-1.83,5.09-2.04Z"/><path class="cls-9" d="M901.59,758.48c2.4,2.97,6.06,3.96,9.1,5.92,10.47,6.73,20.89,13.54,31.31,20.35.8.52,1.97,1.06,1.59,2.23-.46,1.4-1.61.73-2.48.38-13.57-5.55-26.98-11.35-37.59-21.97-1.42-1.42-2.84-2.85-3.36-4.85-.25-.96-.08-1.98,1.42-2.06Z"/><path class="cls-9" d="M807.85,909.66c5.34-1.09,10.01-.09,13.76,2.83,5.74,4.47,9.24,10.73,11.56,17.61.61,1.8.96,4.03-.89,4.93-2.08,1.02-2.59-1.49-3.42-2.72-4.54-6.74-11.23-11.76-15.17-18.99-1.1-2.02-4.11-1.04-5.82-3.66Z"/><path class="cls-10" d="M1004.65,931.73c2.66.58,6.39-2.94,7.89,1.06,1.27,3.42-2.89,4.42-4.94,5.89-5.43,3.91-9.42,9.81-16.3,11.74-1.31.37-2.54.56-3.86.53.73-6.3,4.66-10.24,9.72-13.49,2.64-1.69,5-3.81,7.49-5.73Z"/><path class="cls-9" d="M875.55,850.44c.03,1.71-.37,2.77-1.51,3.38-1.33.71-2.61.33-3.72-.49-2.58-1.88-4.45-4.43-6.27-7-1.82-2.56-3.56-5.18-5.31-7.8-.89-1.33-2.43-2.69-.65-4.3,1.4-1.27,2.86-.29,4.07.54,5.99,4.1,10.71,9.28,13.39,15.66Z"/><path class="cls-9" d="M761.43,962.97c-1.27-2.59-4.3-3.12-6-5.16-.93-1.12-3.6-1.99-1.12-4.12,5.21,3.39,11.57,4.15,16.86,7.36,1.85,1.12,3.79,2.1,5.54,3.36,1.39.99,3.91,1.96,2.71,4.05-1.25,2.17-3.24.19-4.82-.39-3.56-1.32-7.08-2.75-10.62-4.13,0,0,.09.05.09.05-.56-1.15-1.44-1.5-2.63-1.02Z"/><path class="cls-2" d="M838.33,929.97c.86.57,1.67,1.11,2.49,1.66,5.97,3.95,11.14,8.87,16.57,13.48,1.19,1.01,1.67,2.11.6,3.41-1.04,1.26-2.44,1.27-3.51.22-5.56-5.47-10.94-11.13-17.07-15.99-.67-.53-1.06-1.36-.44-2.17.25-.32.83-.39,1.36-.61Z"/><path class="cls-9" d="M836.28,843.76c5.91,2.01,10.17,6.01,13.37,11.21,1.28,2.08,2.19,4.55-.6,6.05-2.82,1.51-4.55-.96-6.39-2.55-.22-.19-.4-.58-.41-.87q-.11-7.43-6.37-11.35c-.4-.25-.69-.69-1.04-1.04.48-.48.96-.96,1.43-1.43Z"/><path class="cls-10" d="M985.54,954.55c1.04.45,2.64.82,2.18,2.2-1.32,3.96-.13,8.21-1.78,12.14-1.89,4.49-2.84,4.72-6.11.91.06-2.63-.07-5.28.21-7.88.37-3.45,1.73-6.37,5.5-7.38Z"/><path class="cls-9" d="M851.75,968.45c0,1.78-.83,2.02-1.93,1.42-4.18-2.3-8.36-4.59-12.45-7.05-1.63-.98-2.92-2.61-1.4-4.5,1.41-1.75,2.99-.58,4.31.46,3.22,2.55,6.43,5.13,9.61,7.74.74.61,1.34,1.38,1.86,1.93Z"/><path class="cls-2" d="M805.23,925.25c2.66.14,7.43,8.66,6.52,10.69-.42.92-1.32,1.31-1.92.55-2.23-2.81-4.95-5.35-5.9-8.96-.33-1.25.44-2.17,1.3-2.28Z"/><path class="cls-11" d="M836.28,843.76c-.48.48-.96.96-1.43,1.43-2-.82-4.31-1.22-5.63-4.03,3.12-.05,5.23.88,7.06,2.6Z"/><path class="cls-11" d="M816.01,819.86c.66-.91,1.31-.94,1.96,0-.67.37-1.35.75-2.02,1.12,0,0,.08.05.08.05,0-.39-.01-.78-.02-1.17Z"/><path class="cls-3" d="M1101.91,727.26c5.54,7.82,11.72,15.17,15.79,24.03,4.15,9.04,6.32,18.46,7.33,28.27.4,3.89,1.24,7.73,2.02,12.46-3.83-2.48-4.35-5.84-4.9-8.83-1.56-8.47-4.35-16.22-9.89-23.07-2.88-3.56-4.45-8.15-6.79-12.17-1.11-1.91-1.7-4.43-4.41-4.98-4.25-8.84-11.06-15.71-17.58-22.8-1.46-1.59-3.07-3.05-4.51-4.67-1.27-1.44-2.2-3.22-.86-4.97,1.43-1.86,3.34-.98,4.99-.14,5.15,2.6,9.13,6.6,12.95,10.83,1.88,2.08,3.27,4.65,5.87,6.05Z"/><path class="cls-9" d="M1061.51,639.32c1.76.05,3.39-.2,3.83,1.39.47,1.66-1.34,1.93-2.23,2.82-6.81,6.82-15.71,11.16-21.94,18.65-1.59,1.91-3.32,4.41-6.15,2.49-2.63-1.79-1.6-4.52-.39-6.75,5.89-10.88,15.22-16.8,26.88-18.6Z"/><path class="cls-9" d="M695.56,650.33c-.1,2.05-.63,3.6-1.67,4.97-4.39,5.77-10.29,9.34-17.04,11.66-1.51.52-2.98.73-3.94-.94-.88-1.53-.51-3.08.73-4.07,5.75-4.59,10.72-9.9,15.36-15.6,1.11-1.37,3.18-3.32,5.15-2.12,2.25,1.37.22,4.4,1.41,6.1Z"/><path class="cls-9" d="M764.83,571.94c.86-.03,1.19-.57,1.28-1.34,2.45-1.61,5.21-1.4,7.94-1.39.9,1.1,1.53.59,2.08-.35,1.91-.85,3.92-.73,5.92-.64.78.91,1.42.67,1.96-.26,4.32-.78,8.64-1.02,12.93.24.03,1.28.05,2.56.08,3.84-7.08.57-13.15,4.63-20.06,5.77-.93-1.12-1.54-.56-2.08.39-3.16,1.01-6.25.71-8.98-1.11-1.83-1.22-2.39-3.09-1.07-5.16Z"/><path class="cls-9" d="M1097.9,676.99c-.25.54-.34,1.14-.67,1.36-.85.57-1.58.07-2.1-.63-7.66-10.24-15.76-20.21-20.77-32.15-.66-1.57-1.49-3.88.79-4.73,1.8-.67,2.3,1.46,2.92,2.74,5.01,10.35,11.15,20.03,17.53,29.57.82,1.23,1.53,2.55,2.3,3.84Z"/><path class="cls-9" d="M1078.66,685.54c.07,1.81-.59,3-3.24,1.86-1.5-.65-3.43-.67-4.23-2.33-2.46-5.07-5.19-10.05-6.26-15.66-.27-1.38-.52-3.22,1.22-3.96,2.2-.93,2.81,1.08,3.65,2.43,2.38,3.8,4.65,7.67,7.08,11.44,1.14,1.76,1.31,3.73,1.78,6.23Z"/><path class="cls-9" d="M730.72,601.73c-.56.72-1.27,1.62-1.96,2.54-3.2,4.2-7.47,7.46-10.17,12.17-1.39,2.42-4.23,3.75-7.29,3.38-1.45-.18-2.31-1.3-2.34-2.81-.08-3.34,2.2-5.57,4.73-6.42,5.74-1.94,10.15-5.46,14.12-9.78.57-.62,1.19-1.22,2.13-.93.74.23.93.85.79,1.85Z"/><path class="cls-9" d="M1037.94,565.62c.04-1.79-.14-3.51,1.85-3.82,1.7-.26,2.37,1.22,2.58,2.48,1.21,6.97,1.2,14.12,3.29,20.96.18.59-.13,1.37-.94,1.5-1,.16-1.42-.57-1.76-1.36-2.78-6.41-4.27-13.15-5.03-19.77Z"/><path class="cls-9" d="M695.71,629.39c.67-2.08-1.07-5.85,2.09-6.19,3.05-.33,2.37,3.64,3.34,5.71.27.58.42,1.26.48,1.91.22,2.39.25,5.13-2.69,5.5-3.45.43-3.11-2.56-3.21-4.83-.03-.66,0-1.32,0-2.1Z"/><path class="cls-2" d="M797.02,572.04c-.03-1.28-.05-2.56-.08-3.84,2.32,1.23,2.69,2.51.08,3.84Z"/><path class="cls-2" d="M784.01,567.96c-.54.93-1.18,1.17-1.96.26.57-.69,1.22-.82,1.96-.26Z"/><path class="cls-2" d="M774.87,578.21c.54-.95,1.15-1.51,2.08-.39-.6.64-1.29.79-2.08.39Z"/><path class="cls-2" d="M776.13,568.86c-.55.95-1.18,1.45-2.08.35.61-.62,1.3-.74,2.08-.35Z"/><path class="cls-3" d="M862.5,1053.71c-2.32-.27-2.84-1.56-2.12-3.5,2.27-6.15,6.89-10.45,11.65-14.61,1.08-.95,2.52-.92,3.73-.13,1.49.98.89,2.26.31,3.51-2.58,5.56-6.88,9.69-11.39,13.63-.6.52-1.47.75-2.17,1.09Z"/><path class="cls-10" d="M848.62,1047.61c-.82-5.8,2.55-10.16,6.87-10.51,1.44-.12,2.78.18,3.22,1.68.53,1.8-.47,2.88-2.22,3.12-3.2.44-5.79,1.84-7.87,5.71Z"/><path class="cls-8" d="M761.43,962.97c1.19-.48,2.07-.13,2.63,1.02-1.26.64-1.78-.61-2.63-1.02Z"/><path class="cls-3" d="M1062.91,864.36c.7-5.96,2.83-11.6,6.74-16.48,1.38-1.72,3.3-2.7,5.59-2.83,2.04-.12,3.59.69,4.43,2.52.79,1.73.15,3.23-1.21,4.43-.86.76-1.7,1.7-2.73,2.09-5.23,1.96-8.48,5.55-9.66,11.02-.24,1.13-.55,2.57-1.99,2.37-1.6-.22-.91-1.82-1.18-3.12Z"/><path class="cls-3" d="M1044.56,883.41c7.51,6.68,10.4,15.12,10.41,24.69,0,1.22-.51,2.3-1.78,2.72-1.35.45-2.25-.31-2.89-1.35-1.38-2.23-3.31-4.17-3.38-7.07-.15-6.36,1.07-12.89-2.37-19Z"/><path class="cls-3" d="M1039.08,893.27c-.13,1.43.28,2.97-1.4,3.53-1.43.48-2.77,0-3.39-1.34-3.23-7.01-5.35-14.21-3.28-22.02.31-1.17.87-2.22,2.26-2.28,1.31-.05,1.75.92,1.65,1.97-.62,6.37,2.02,12.01,3.88,17.82.25.77.21,1.64.28,2.32Z"/><path class="cls-10" d="M1017.71,944.49c-.42.78-.81,1.7-1.38,2.5-2.58,3.63-5.18,7.24-7.84,10.81-1,1.35-2.23,2.77-4.11,1.66-1.93-1.14-2.01-3.32-1.06-4.83,3.07-4.82,8.37-7.37,12.3-11.35.72-.73,1.91-.33,2.09,1.21Z"/><path class="cls-9" d="M689.85,996.85c-3.48-9.56-.35-22.46,7.13-29.37,9.52-8.79,9.56-8.85,19.72-.22,4.34,3.69,9.4,6.31,13.94,9.66,10.82,7.99,10.41,12.82,2.92,23.76-4.67,6.83-12.43,8.47-20.1,9.73-12.07,2.78-18.68-3.93-23.61-13.57ZM707.95,1005.27c10.3-.25,17.75-5.66,24.16-13.14,1.44-1.68.04-2.29-.71-3.25-7.01-9.1-16.97-14.3-26.61-19.84-2.31-1.32-5.71-1.94-6.75,2.12-1.41,5.47-2.9,10.94-3.75,16.51-1.29,8.44,6.05,17.6,13.67,17.6Z"/><path class="cls-10" d="M681.75,1020.98c3.9.06,12.82,6.51,13.84,9.4.75,2.12-.51,3.07-2.22,2.46-5.05-1.81-9.23-5.14-12.77-9.03-1.74-1.91.05-2.83,1.16-2.83Z"/><path class="cls-3" d="M948.67,1005.86c-.09,1.46-.99,2.25-2.01,2.78-3.69,1.91-5.26,5.3-6.67,8.92-2.31,5.92-6.82,9.59-12.64,11.82-1.51.58-3,.84-3.95-.78-1.04-1.75.18-2.68,1.54-3.55,3.88-2.49,6.36-6.18,8.59-10.11,2.53-4.44,6.36-7.57,10.76-10.03,1.72-.96,3.43-1.44,4.37.94Z"/><path class="cls-9" d="M955.57,1008.23c-.61-4.81-1.14-8.68-1.56-12.58-.1-.96,0-2.14,1.27-2.34,1.35-.22,1.56.85,1.72,1.88.65,4.14,2.27,8.34-1.43,13.04Z"/><path class="cls-8" d="M537.97,887.43c.7.52,1.4,1.05,2.1,1.57-1.37.37-1.86-.44-2.1-1.57Z"/><path class="cls-9" d="M638.55,984.52c-4.76-.44-9.1-2.07-13.14-4.6-3.65-5.3-7.87-10.22-9.61-16.7-1.56-5.79-.96-11.1,1.8-16.38,1.35-2.57,3.42-4.74,3.56-8.07.13-2.91,2.57-1.98,4.14-1.04,2.86,1.69,5.58,3.62,8.36,5.45,8.77,5.76,17.96,10.76,27.48,15.2,6.63,3.09,7.04,5.67,2.28,11.37-1.17,1.4-2.35,2.82-3.25,4.39-5.82,10.09-10.07,12.16-21.61,10.39ZM624.22,943.45c-.78,2.99-1.41,5.38-2.04,7.77-3.77,14.17,5.95,27.19,20.52,27.42,3.87.06,7.27-1.13,9.31-4.67,1.98-3.44,4.14-6.72,7.46-9.88-12.31-5.95-24.07-12.03-35.25-20.64Z"/><path class="cls-10" d="M742.96,1029.99c1.21-5.44-.1-11.67,5.02-15.87,3-1.81,5.18.09,6.96,1.96,5.94,6.22,11.35,12.9,18.51,17.93,3.35,2.35,4.62,5.72,1.58,9.85-2.23,3.02-3.61,6.67-5.36,10.05-5.66,2.96-11.56,2.05-17.42.92-5.38-1.04-9.07-5.61-9.26-11.41-.15-4.47-.03-8.94-.02-13.42ZM750.27,1040.65c-.55,2.94-.24,6.12,2.75,6.98,2.38.68,5.65,3.49,7.98-.54.33.03.67,0,.99.08,3.93.93,6.4-1.89,7.49-4.46,1.07-2.53-2.79-2.41-4.35-3.57-2.41-1.79-4.96-3.37-6.83-5.77-2.93-3.76-5.81-7.55-9.45-12.27.09,7.28-.89,13.49,1.43,19.55Z"/><path class="cls-3" d="M754.04,1066.17c2.01.8,3,2.31,2.94,4.54-.05,1.89-.83,3.42-2.86,3.21-3.44-.35-1.88-3.2-2.1-5.05-.16-1.29-.02-2.74,2.01-2.69Z"/><path class="cls-2" d="M1378.07,790.58c-1.65.33-2.35.25-2.56-.49-.11-.38.07-1.08.36-1.31,5.37-4.24,11.34-7.48,17.53-10.34.85-.39,1.61.1,2.05.92.37.68.22,1.43-.37,1.76-5.92,3.34-11.88,6.61-17.01,9.46Z"/><path class="cls-5" d="M227.71,782.96c4.14,1.67,3.15,6.06,4.76,9.07,1.73,3.21,1.34,5.77-1.38,8.83-3.86,4.35-4.43,10.15-2.23,15.51,2.17,5.27,7.02,7.51,12.52,7.51,3.46,0,5.32,1.17,5.92,4.5.06.32.29.6.4.91,1.09,3.25,5.37,7.06,3.45,9.26-3.47,3.97-8.95,6.1-13.99,8.26-1.48.63-2.39-.66-3.45-1.46-9.04-6.76-19.88-3.46-23.74,7.2-1.52,4.19-11.34,11.26-15.77,11.43-1.84.07-2.62-.91-3.22-2.48-1.59-4.19-3.14-8.41-5.05-12.47-1.02-2.17-.03-3.24,1.11-4.79,4.03-5.46,4.15-11.39,1.37-17.4-2.38-5.14-7.63-5.63-12.21-6.59-2.79-.59-4.18-1.43-4.41-4.23-.08-.97-.65-1.89-.85-2.86-.72-3.52-4.52-7.64-2.3-10.18,3.25-3.74,8.89-5.28,13.79-6.27,3-.61,4.64,3.89,6.87,6.12.13,1.81.95,3.19,2.71,3.78,4.27,1.44,8.51,2.55,13.01.53,6.3-2.82,9.49-7.97,11.47-14.21.53-1.69.48-4.03,2.54-4.55,3.55-.89,5.82-3.6,8.72-5.41Z"/><path class="cls-6" d="M227.71,782.96c-2.89,1.81-5.17,4.52-8.72,5.41-2.06.52-2,2.86-2.54,4.55-1.98,6.24-5.17,11.39-11.47,14.21-4.51,2.02-8.74.91-13.01-.53-1.75-.59-2.57-1.97-2.71-3.78,1.15-.03,2.32-.24,3.44-.08,10.33,1.49,15.74-1.69,17.95-11.58.89-4,2.43-5.91,6.48-6.65,2.86-.52,5.49-2.28,8.26-3.4,1.72-.7,3.08-.72,2.31,1.84Z"/><path class="cls-5" d="M103.67,748.15c4.02-.04,6.38,2.83,8.39,5.51,6.81,9.08,8.77,17.82,4.2,26.35-5.34,9.97-16.48,15.9-26.49,13.89-12.61-2.54-19.91-21.38-13.4-29.07.23-.28.46-.57.7-.85,0,0-.11.08-.11.08,7.93-6.94,16.48-12.83,26.71-15.91Z"/><path class="cls-6" d="M103.67,748.15c-10.23,3.08-18.78,8.97-26.71,15.91,1.33-11.64,15.07-19.82,26.71-15.91Z"/><path class="cls-6" d="M77.07,763.97c-.23.28-.46.57-.7.85.08-.4-.03-.97.7-.85Z"/><path class="cls-8" d="M816.01,819.86c0,.39.01.78.02,1.17-1.27.38-1.74-.41-2.08-1.4.69.07,1.37.15,2.06.22Z"/><path class="cls-6" d="M707.95,1005.27c-7.62,0-14.96-9.15-13.67-17.59.85-5.57,2.34-11.04,3.75-16.51,1.05-4.05,4.45-3.44,6.75-2.12,9.64,5.53,19.6,10.74,26.61,19.84.75.97,2.15,1.57.71,3.25-6.4,7.47-13.86,12.88-24.16,13.13Z"/><path class="cls-6" d="M624.22,943.45c11.17,8.62,22.93,14.69,35.25,20.64-3.32,3.16-5.48,6.44-7.46,9.88-2.04,3.54-5.44,4.73-9.31,4.67-14.57-.23-24.28-13.25-20.52-27.42.63-2.39,1.26-4.78,2.04-7.77Z"/><path class="cls-6" d="M750.27,1040.65c-2.32-6.06-1.34-12.27-1.43-19.55,3.63,4.73,6.52,8.51,9.45,12.27,1.87,2.4,4.43,3.98,6.83,5.77,1.56,1.16,5.42,1.04,4.35,3.57-1.09,2.57-3.56,5.4-7.49,4.46-.32-.08-.66-.06-.99-.08-3.57-2.15-7.15-4.29-10.72-6.44Z"/><path class="cls-11" d="M750.27,1040.65c3.57,2.15,7.15,4.29,10.72,6.44-2.33,4.03-5.6,1.22-7.98.54-2.98-.85-3.3-4.04-2.75-6.98Z"/></svg>