<svg width="46" height="45" viewBox="0 0 46 45" fill="none" xmlns="http://www.w3.org/2000/svg">
<rect x="0.382812" y="0.113281" width="44.891" height="44.891" fill="#F5E2A0"/>
<path d="M39.5853 16.3815C41.6152 14.3103 40.6686 11.9206 39.5644 10.7441L34.6927 5.77318C32.6466 3.70195 30.292 4.64643 29.139 5.77318L26.3784 8.60662H22.1725C19.0871 8.60662 17.3009 10.2636 16.3915 12.1691L9.18141 19.5261V26.1541L5.21484 29.9817L8.02845 32.9808L12.9001 37.9518C12.8063 37.856 15.795 40.5958 15.795 40.5958L18.4538 37.9518L22.8383 33.4614H28.6681C31.4287 33.4614 32.8252 31.705 33.3286 29.9817C35.1636 29.4846 36.1705 28.0596 36.5764 26.6677C39.0935 26.0049 40.0353 23.5692 40.0353 21.8625V15.7613L39.0772 16.8915L39.5853 16.3815ZM36.7875 21.8625C36.7875 22.6081 36.479 23.5195 35.1637 23.5195H33.5398V25.1765C33.5398 25.9221 33.2312 26.8334 31.9159 26.8334H30.292V28.4904C30.292 29.2361 29.9834 30.1474 28.6681 30.1474H21.5067L15.6755 36.0823C15.6755 36.0823 15.3847 35.7811 15.206 35.5989L10.3506 30.6611L9.81753 30.105L12.4292 27.5128V20.8849L15.677 17.5709V20.2055C15.612 24.0786 15.612 24.0786 20.5486 24.0786C25.4203 24.0786 25.4203 24.0786 25.4203 20.2055H36.7875V21.8625ZM37.2585 14.0581L34.4979 16.8915H22.1725V20.2055C22.1725 20.9511 21.864 20.7646 20.5486 20.7646C19.2333 20.7646 18.9247 20.9511 18.9247 20.2055V15.2346C18.9247 14.4723 19.2008 11.9206 22.1725 11.9206H27.71L31.4125 8.14266C31.9159 7.66214 32.2082 7.94383 32.3868 8.12609L37.2422 13.0639C37.7132 13.5776 37.4371 13.8758 37.2585 14.0581Z" fill="black"/>
</svg>
