<?xml version="1.0" encoding="UTF-8"?><svg id="Capa_1" xmlns="http://www.w3.org/2000/svg" width="298.45mm" height="298.45mm" viewBox="0 0 846 846"><defs><style>.cls-1{fill:#ebd893;}.cls-1,.cls-2,.cls-3,.cls-4,.cls-5,.cls-6,.cls-7,.cls-8,.cls-9,.cls-10,.cls-11,.cls-12,.cls-13{stroke-width:0px;}.cls-2{fill:#edda94;}.cls-3{fill:#e3d08e;}.cls-4{fill:#524d3a;}.cls-5{fill:#1e1e1b;}.cls-6{fill:#181917;}.cls-7{fill:#f0dc96;}.cls-8{fill:#514c3a;}.cls-9{fill:#323027;}.cls-10{fill:#56503c;}.cls-11{fill:#e9d692;}.cls-12{fill:#eedb95;}.cls-13{fill:#282720;}</style></defs><path class="cls-5" d="M125.53,389.06c-1.89,0-2.56-.95-2.58-2.81-.09-7.82-.34-15.63-.43-23.44-.04-3.17,2.59-3.41,4.83-3.97,11.93-2.98,23.84-6.03,35.79-8.91,3.14-.76,4.1-1.95,2.09-4.8-8.11-11.49-6.38-24.3-4.94-37.08.37-3.28,2.16-3.92,5.09-3.91,14.49.05,28.99-.06,43.48-.11,54.64-.17,109.29-.85,163.93-.23,21.34.24,41.53-4.51,61.88-9.25,13.92-3.24,28.24-4.39,41.98-8.42,2.92-.86,4.67,1.01,6.42,2.85-.65,2.13-1.97,1.39-3,.54-1.63-1.34-3.25-1.27-5.11-.63-11.22,3.85-23.05,4.76-34.56,7.18-9.29,1.96-18.5,4.26-27.75,6.42,1.92.82,3.73.83,5.54.82,17.41-.02,34.9.69,51.73-5.19.02.57.04,1.14.05,1.7-2.91.87-5.83,1.73-8.74,2.6,5.57.12,11.1,1.75,16.47-.34.83-.06,1.66-.11,2.48-.17,5.22,1.67,10.47,1.41,15.74.22.49-.44.99-.88,1.48-1.32,1.35,2.18,3.49,2.07,5.68,2.11,15.82.28,31.65-.65,47.47.52,2.26.17,3.44,1.09,4.83,2.76,13.53,16.23,26.75,32.71,40.16,49.03,12.58,15.3,25.93,29.95,38.13,45.56,2.33,2.98,4.97,4.9,8.69,4.8,4.47-.12,5.34,2.4,4.9,6.03-.31,2.53.54,4.02,2.68,5.72,20.47,16.25,42.03,31.01,62.84,46.79,9.02,6.84,17.93,13.81,26.92,20.69,1.31,1,1.92,2.24,1.93,3.83.06,7.33.14,14.65.16,21.98,0,2.75-.98,4.32-4.04,5.22-11.51,3.41-11.71,3.58-11.63,15.53.03,4.77-1.08,6.84-6.16,7.49-13.63,1.74-27.28.94-40.93,1.21-4.09.08-8.25-.69-12.14,1.78-1.78,1.13-2.42,1.84-2.24,4.11,1.88,22.91,6.44,45.49,8.38,68.37.47,5.54-.59,11.25-1.28,16.83-.55,4.47-1.29,8.97-.87,13.43.46,4.87-1.58,6.01-5.99,5.9-21.32-.53-42.64-.76-63.96-1.3-42.14-1.07-84.27-2.21-126.4-3.42-66.28-1.91-132.55-3.92-198.83-5.87-30.64-.9-61.28-1.79-91.92-2.63-2.61-.07-4.59-.24-4.51-3.65.2-7.98.51-15.97.24-23.94-.36-10.5,3.94-19.76,7.06-29.35,1.23-3.78,4.55-8.41,2.88-11.15-1.79-2.93-7.3-.98-11.16-1.03-16-.21-31.88-2.67-47.9-2.37-2.24.04-3.31-.5-3.27-3.04.08-6-.12-11.99-.21-17.99-.06-4.3,2.92-7.3,4.82-10.67,15.48-27.37,31.06-54.67,46.78-81.9,1.95-3.37,1.6-5.38-1.15-8.09-16.38-16.13-32.67-32.34-47.98-49.51-1.49-1.67-3.41-3.11-3.84-5.55,1.95-.19,2.93,1.16,4.1,2.39,14.88,15.48,29.4,31.33,44.81,46.25,20.91,20.25,42.25,40.05,61.64,61.8,2.93,3.29,6.35,6.02,10.27,8.58.66-2.52-.79-3.94-1.55-5.46-2.38-4.76-5.08-9.36-7.44-14.13-5.1-10.27-10.05-20.61-15.14-30.88-.65-1.31-1.61-2.58-2.72-3.53-9.56-8.26-18.41-17.24-27.51-25.98-12.5-12-23.98-24.95-36.26-37.13-9.17-9.1-18.77-17.64-29.57-25.71-.8,8.32.49,16.11-.66,23.8ZM174.94,376.97c.37.52.74,1.03,1.11,1.55,3.16,3.84,7.13,6.58,11.58,8.86-3.33-7.2-7.03-14.02-10.82-20.8-1.81-3.23-4.35-3.15-7.14-1.28-1.89-.41-3.47.53-5.59,1.24,3.71,3.69,6.77,7.66,10.94,10.54l-.06-.1ZM343,540c-10.04-2.03-20.11-.66-30.9-.89,2.46,2.76,5.6,3.66,5.92,6.91-3-.47-4.62-3.05-6.94-4.55-1.67-1.08-3.16-2.76-5.33-2.18-4.77,1.27-9.61.56-14.41.71-4.19.13-8.38.03-13.07.03,34.5,30.91,68.3,61.18,102.73,92.03,0-7.61-.03-14.24.02-20.87.01-1.63-.72-2.62-1.78-3.83-7.04-8.01-15.63-14.37-23.14-21.86-11.75-11.73-23.17-23.8-35.67-34.76-1.37-1.2-2.45-2.73-2.45-4.74.35,0,.7,0,1.06,0,9.92,9.11,20.27,17.81,29.63,27.46,10.1,10.41,21.18,19.73,31.65,29.7,1.44,1.37,2.99,2.43,5.34,1.37,14.6-6.58,30.28-9.98,45.29-15.34,31.63-11.28,63.42-21.97,95.96-30.39,12.53-3.24,24.66-7.76,36.58-12.81,5.82-2.1,11.65-4.2,17.47-6.3-2.56-.63-4.88-.74-7.2-.61-14.39.77-28.73,1.2-43.18.44-6.37-.34-13.4,1.18-18.72,6.03-4.5-.26-8.56,1.48-12.74,2.72.8-4.25,4.56-4.41,7.61-5.15,2.52-.61,5.01-1.04,8.44-2.96-7.81,0-14.41-.67-20.79.21-5.33.73-10.98,1.61-15.53,5.18-6.1.12-11.62,2.55-17.25,4.43-21.39,7.11-42.74,14.35-64.09,21.57-3.98,1.35-7.33,1.08-10.25-2.44-2-2.4-4.47-4.45-6.89-6.45-7.41-6.13-13.35-13.84-21.19-19.5-4.44-5.62-12.16-7.12-16.18-3.13ZM175.89,494.97c-.32-.34-.64-.69-.96-1.03-.08-1.57.58-2.92,1.3-4.24,4.12-7.61,8.27-15.19,12.34-22.82q4.36-8.16-2.63-14.35c-.12-.11-.24-.23-.36-.35-1.94-1.89-3.22-2.1-4.73.79-5.05,9.72-10.03,19.51-16.06,28.69-.68,1.04-1,2.08-.79,3.29-1.51-.29-1.99.82-2.57,1.85-9.73,17.23-19.44,34.47-29.25,51.66-1.64,2.87-1.16,3.67,2.14,3.55,12.97-.48,25.94-.75,38.93-.24,7.32.29,14.68-.17,21.97.38,4.28.32,5.5-1.95,5.53-5.06.04-3.65-3.22-1.84-4.84-1.85-11.3-.06-22.61.63-33.9-.35.02-.6.04-1.19.07-1.79,5.83.15,11.65.48,17.47.42,6.65-.08,13.29-.61,19.94-.74,2.46-.05,4-.94,3.88-3.34-.14-2.71-2.48-1.36-3.77-1.37-9.33-.13-18.65-.36-27.96-1.1-2.98-.24-3.41-1.1-2.21-3.63,3.83-8.11,7.56-16.27,11.34-24.41,5.21-10.2,10.3-20.47,15.69-30.57,1.71-3.21,1.39-5.21-2.09-6.86-.78,1.45-1.54,2.89-2.34,4.31-5.42,9.7-10.14,19.79-16.14,29.16ZM271.83,588.82h-.02c18.79.4,37.59-.21,57,1.57-1.81-3.65-3.86-4.43-6.62-4.43-3.47,0-6.98-.36-10.43-.41-13.76-.2-27.47-2.42-41.27-1.21-1.3-1.42-3.06-1.11-4.69-1.17-12.3-.44-24.6-.96-36.9-1.17-3.38-.06-4.31-.92-3.66-4.33,1.46-7.69,3.06-15.31,5.73-22.69.61.35,1.23.69,1.84,1.04.79,1.66,2.32.96,3.52,1.01,7.48.33,14.97.56,22.46.83,2.15.03,4.3.06,6.45.08,10.54.08,10.48.07,13.32-10,.72-2.55.12-4.07-1.8-6.02-2.91-2.96-6.84-.95-9.75-2.82-4.84-3.11-10.12-2.25-15.35-1.89-2.12-.16-4.27-.14-6.34-.52-5.42-1-8.8.38-8.93,6.6-.03,1.57-.95,3.11-1.45,4.67-.63.01-1.26.03-1.89.04,2.04-7.11,3.44-14.39,5.72-21.46,1.3-4.02,2.87-8.14,2.25-12.57,1.44-1.12,1.37-2.8.8-4.07-1.02-2.29-2.88-4.23-5.13-5.13-1-.4-1.55,1.73-1.75,3.02-.33.39-.66.78-.98,1.17-.61-.03-1.23-.06-1.84-.09.23-1.22.47-2.45.7-3.67,1.33-2.59.73-4.57-1.48-6.51-2.74-2.41-5.29-5.07-7.7-7.82-3.58-4.08-3.5-4.16-5.52,1.3-4.34,13.77-8.5,27.59-13.05,41.29-7.07,21.27-14.39,42.47-21.66,63.67-.94,2.74-1.03,3.87,2.66,4.09,30.55,1.87,61.11,3.39,91.72,3.6,23.13.47,46.26.95,69.45,1.42-.61-1.98-2.81-2.51-4.06-3.92-5.88-6.67-12.71-9.59-22.01-9.9-15.89-.54-31.8-.02-47.67-1.09-.48-.19-.95-.38-1.43-.57-.08-.66-.15-1.32-.23-1.98ZM419.45,543.99c2.74,4.04,6.76,6.77,10.2,10.1,2.03,1.96,3.87,2.45,6.64,1.51,9.08-3.09,18.27-5.88,27.41-8.79.49,0,1.22.19,1.44-.06,1.43-1.64,5.47-.99,4.88-3.72-.6-2.76-3.74-3.29-6.63-3.1-2.31.15-4.67.12-6.97-.12-13.78-1.4-27.57-1.51-41.75-.67,1.82,1.84,3.3,3.34,4.79,4.84ZM204.92,437c.37.5.73,1.01,1.1,1.51,3.28,3.19,6.56,6.38,10.11,9.84.88-2.3-.09-3.2-.56-4.18-6.62-13.7-13.54-27.28-19.83-41.13-2.76-6.08-7.47-9.68-12.67-13.08-2-3.25-4.53-5.96-7.53-8.37-3.97-3.19-7.78-6.62-11.43-10.19-5.69-5.57-5.62-5.67,1.54-8.11.91-.31,2-.17,2.46-1.3,1.6.02,3.89.52,4.28-1.3.61-2.84-1.56-5.17-3.01-7.39-1.39-2.14-3.55-1.84-5.41-.16-3.29-.43-6.13,1.32-9.18,2.02-9.18,2.09-18.29,4.5-27.86,6.9.82.94,1.18,1.51,1.68,1.89,17.49,13.19,32.62,28.9,47.83,44.55,9.38,9.65,18.28,19.79,28.52,28.59l-.03-.09ZM194.05,510.02c3.15.12,6.31.12,9.44.4,1.93.18,4.29,1.52,5.43-.68,1.9-3.64,3.42-7.55,3.7-11.72.08-1.17-1.51-1.05-2.45-1.04-6.97.09-13.85-1.37-20.85-1.15-3.89.12-5.54,1.53-5.33,5.31-3.66.98-4.62,4.67-4.55,7.11.08,2.59,3.73,1.19,5.79,1.42,2.91.33,5.88.25,8.82.34ZM728,517c3.35-1.38,6.69-2.78,10.05-4.13,1.24-.5,1.85-1.4,1.84-2.66-.02-5.46.06-10.93-.2-16.38-.11-2.26-.81-3.87-4.05-2.39-5.83,2.66-11.97,4.64-18.29,7.02,2.41,3.22,4.41,6.47,6.98,9.19,2.57,2.73,3.92,5.65,3.66,9.35-.08.14-.16.28-.24.42l.24-.42ZM663.81,566.93c-.37-6.62-.96-13.22-2.81-19.63-.01-2.78-1.61-2.3-3.38-1.7-3.78,1.28-7.55,2.59-11.38,3.69-2.49.72-3.61,2.07-3.2,4.67,1.29,8.25.32,16.64,1.23,24.85.71,6.48.04,12.99,1.03,19.39,1.15,7.43.21,8.84-7.27,7.59-8.08-1.34-16.23-1.11-24.31-1.56-12.7-.7-25.46-.87-38.19-1.05-18.79-.27-37.55-1.8-56.36-1.28-1.49.04-3.01,0-4.47-.25-17.33-2.94-33.61,1-49.53,7.43-.09.04-.01.51-.01.47,12.53,2.16,25.2,1.72,37.77,2.15,15.39.52,30.76,1.53,46.28.67,29.4-1.63,58.87.51,88.32.73,1.15,0,2.29.35,3.45.42,8.94.52,17.88,1,26.83,1.5,2.89.16,3.03-1.06,2.61-3.69-1.38-8.66-1.95-17.46-3.57-26.07-1.15-6.1-.81-12.43-3.02-18.33ZM165.29,307.05c-.04.8-.18,1.17-.06,1.41,16.17,33.01,32.15,66.11,48.62,98.97,9.83,19.61,18.87,39.61,30.12,58.53,7.37,12.4,13.57,25.5,20.14,38.37,1.63,3.19,3.5,4.48,7.33,4.31,11.13-.51,22.29-.47,33.44-.56,16.14-.12,32.24,1.11,48.41.53,23.79-.86,47.61-1.32,71.41-1.14,22.94.18,45.78,3.33,68.84,1.7,18.23-1.29,36.55-1.43,54.87-.28,21.94,1.38,43.9.96,65.89.3,15.43-.46,30.94.27,46.38,1.57,18.82,1.57,37.54-2.25,56.36-1.37,1.07.05,2.32.2,3.47-1.01-.33-.48-.64-1.01-1.04-1.47-27.92-33.08-55.58-66.38-84-99.04-28.07-32.26-55.1-65.41-81.81-98.81-1.68-2.1-3.31-3.04-6.2-3.02-35.16.29-70.31.43-105.47.51-84.98.2-169.96.34-254.94.5-7.26.01-14.52,0-21.75,0ZM182.14,618.13c-.78,3.74,1.11,7.45.75,11.25-.37,3.96,1.4,4.69,4.93,4.67,21.12-.11,42.2,1.16,63.3,1.76,22.77.65,45.53,1.36,68.3,1.99,24.27.66,48.53,1.27,72.8,1.99,24.43.73,48.87,1.01,73.29,2.15,10.79.5,21.6.45,32.4.79,24.76.8,49.53,1.25,74.29,2.18,19.12.72,38.26.81,57.39,1.19.83.02,1.67.05,2.49.18,10.88,1.74,21.95-.25,32.82,1.7,1.54.28,3.15-.08,3.12-2.2-.1-8.16,1.55-16.18,2.01-24.29.15-2.62-.91-3.48-3.48-3.47-19.95.07-39.86-1.4-59.79-1.89-34.45-.86-68.94,1.17-103.37-1.22-10.64-.74-21.46.38-31.85-1.31-14.06-2.28-26.7,1.3-39.35,5.89-15.93,5.77-32.62,9.21-48.21,15.99-2.61,1.14-4.6.25-6.74-1.61-7.03-6.14-13.74-12.61-20.14-19.37-2.88-3.04-6.2-4.31-10.13-4.41-12.8-.35-25.6-.29-38.41-.85-22.1-.97-44.25-.86-66.38-1.32-5.64-.12-11.28-.58-16.89-1.09-13.69-1.26-27.51-1.02-41.08-3.57-1.98-.37-2.48,1.09-2.09,2.43,1.2,4.16-.68,8.23.02,12.48ZM687.59,536.02c10.48.13,20.95-.04,31.41-.92,2.91-.25,4.23-.91,4.07-4.04-.2-3.99-.29-8.02.08-11.99.4-4.34-1.36-5.1-5.38-5.22-19.49-.58-38.92,1.92-58.37,1-18.93-.9-37.85-1.68-56.79-1.85-6.65-.06-13.23,1.73-19.89.89-15.39-1.93-30.88-.87-46.32-1.66-16.24-.83-32.57-.52-48.9.52-16.58,1.06-33.2-.66-49.8-1.4-19.24-.86-38.57-.95-57.89.41-14.58,1.03-29.26.08-43.89,1.09-8.93.62-17.99-.78-26.89-.54-12.4.33-24.82-.49-37.22.51-3.13.25-3.99,1.33-3.89,4.23.16,4.66.29,9.35-.04,13.99-.28,3.96,1.03,5.18,5.02,5.12,13.3-.2,26.6-.67,39.9-.98,24.65-.58,49.33-.03,73.99-.19,14.63-.09,29.3-.47,43.9-.45,12.69.02,25.53.12,38.31,1.15,12.61,1.02,25.38,1.01,38.11.57,10.18-.36,20.35-.94,30.61-.63,10.16.31,20.46-.14,30.68-.35,20.11-.42,40.24-.53,60.39.51,19.56,1.01,39.21.22,58.82.22ZM661.14,541.3l-.21-1.3c-10.49,0-20.98.01-31.47-.01-1.83,0-3.67-.04-5.48-.23-18.37-1.91-36.26-1.55-53.55,6.73-11.95,5.73-24.64,9.94-37.42,13.63-20.57,5.94-41.28,11.38-61.64,18.11-17.96,5.94-35.54,13.01-53.8,18.12-10.2,2.85-20.08,6.87-30.08,10.42-1.89.67-3.63,1.45-3.58,4.11.14,6.16.05,12.33.03,18.49,0,2.02.64,2.59,2.74,1.86,7.37-2.55,14.83-4.88,22.23-7.34,22.38-7.43,44.62-15.29,67.15-22.22,26.37-8.11,52.65-16.46,78.71-25.49,24.79-8.6,49.58-17.19,74.68-24.86,10.59-3.23,21.12-6.67,31.68-10.02ZM263.17,530.19c.6-7.08,2.91-14.56.14-20.7-7.07-15.71-15.57-30.8-23.9-45.88-5.21-9.43-10.35-18.91-15.14-28.52-10.29-20.65-19.88-41.63-30.6-62.09-9.18-17.51-17.53-35.46-26.21-53.23-1.02-2.08-1.82-4.28-2.85-6.36-.24-.48-1.02-.96-1.55-.96-.72,0-1.02.79-.97,1.48.56,7.82-1.53,15.66,2.42,23.44,13.08,25.78,27.75,50.71,39.93,76.99,14.05,30.31,29.6,59.92,44.65,89.76,4.44,8.81,9.38,17.38,14.09,26.06ZM505.4,596.68c9.49,2.7,18.77,1.66,27.79,1.95,15.94.51,31.89,1.67,47.86,1.39,12.3-.22,24.57.94,36.86,1.33,6.91.22,14.01-.31,20.82,1.2,4.23.94,4.65-.79,4.19-4.05-1.76-12.65-3.18-25.32-2.97-38.14.14-8.63-.05-8.63-8.18-6.52-.8.21-1.62.43-2.44.48-4.54.27-5.02,3.27-4.09,6.62,2.55,9.25,1,18.86,2.7,28.17.78,4.3-.58,6.24-5.52,5.98-9.28-.48-18.58-.55-27.88-.94-19.6-.83-39.23-.87-58.85-1.25-.83-.02-1.66-.1-2.49-.12-9.23-.19-18.51-.77-27.78,3.89ZM175.08,565.03c4.49,0,8.99.02,13.48-.01,1.28-.01,2.75.23,3.32-1.48,1.71-5.18,3.47-10.36,5.14-15.56.57-1.77.62-3.05-2.07-3.1-6.79-.1-13.58-.52-20.36-.84-13.6-.63-27.25.95-40.82-.98-2.24-.32-3.93.09-3.85,3.02.12,4.66.08,9.32.03,13.98-.02,2.07.78,3.01,2.93,3.03,14.1.12,28.1,2.29,42.22,1.94ZM658.6,428.1c17.6,22.4,37.39,42.91,54.51,65.66.78,1.03,1.53,2.53,3.13,2,7.31-2.43,14.66-4.78,21.55-8.6-25.57-21.52-52.76-39.69-79.19-59.05ZM614.13,592.01c2.5,0,5-.12,7.49.03,2.65.16,3.69-1,3.37-3.53-.62-4.92-1.31-9.84-1.85-14.77-.19-1.76-.72-2.84-2.68-2.77-12.3.43-24.53-1.84-36.83-.98-8.05.56-9.59,2.35-9.59,10.33,0,2.33.14,4.67-.03,6.99-.21,2.87,1.03,3.72,3.79,3.7,12.12-.09,24.25-.16,36.35,1.01ZM288.78,560c-3.67,0-6.16-.02-8.65.01-1.13.02-2.54-.21-2.91,1.27-1.45,5.76-3.5,11.39-4.15,17.34-.18,1.64.78,2.33,2.41,2.41,12.88.62,25.77,1.29,38.65,1.93,1.34.07,2.76.1,3.47-1.36.84-1.71-.28-2.82-1.4-3.86-3.88-3.61-8.01-6.98-11.6-10.86-4.68-5.05-9.73-8.54-15.82-6.89ZM200.2,467.9c-1.37,2.43-2.98,5.25-4.56,8.1-.95,1.71-.6,2.62,1.52,3.06,5,1.04,9.99,1.09,15.05.78-4.1-4.07-8-7.96-12.01-11.94ZM372.27,539.3c-5.05-.46-8.74-.8-12.77-1.17,3.75,7.69,7.65,2.7,12.77,1.17Z"/><path class="cls-11" d="M495.92,302.13c-5.26,1.19-10.51,1.45-15.74-.22-2.69-3.26-5.36-6.56-10.27-3.79-16.83,5.88-34.31,5.17-51.73,5.19-1.81,0-3.62,0-5.54-.82,9.25-2.15,18.46-4.46,27.75-6.42,11.51-2.42,23.35-3.33,34.56-7.18,1.86-.64,3.48-.71,5.11.63,1.04.85,2.36,1.59,3-.54,0,0-.01-.01-.01-.01-2.05.76-1.24,1.84-.18,2.71.94.77,2.04,1.2,2.14-.76,0,0,.08.05.08.05-1.78.83-.99,1.83.05,2.39.99.53,1.93,2.84,3.41.52,0,0,.07.07.07.07-1.64,1.2-.26,2,.48,2.64,2.22,1.92,4.54,3.71,6.83,5.55Z"/><path class="cls-9" d="M495.92,302.13c-2.28-1.84-4.61-3.63-6.83-5.55-.74-.64-2.13-1.44-.48-2.64,3.53,1.52,6.27,4.05,8.79,6.87-.49.44-.99.88-1.48,1.32Z"/><path class="cls-9" d="M488.55,293.87c-1.48,2.32-2.42.01-3.41-.52-1.04-.56-1.83-1.56-.05-2.39,1.64.39,3.07,1.04,3.46,2.92Z"/><path class="cls-9" d="M485.01,290.9c-.1,1.97-1.21,1.53-2.14.76-1.05-.86-1.86-1.95.18-2.71.81.49,1.8.8,1.96,1.95Z"/><path class="cls-1" d="M165.29,307.05c7.23,0,14.49.01,21.75,0,84.98-.16,169.96-.31,254.94-.5,35.16-.08,70.31-.22,105.47-.51,2.89-.02,4.52.91,6.2,3.02,26.71,33.4,53.74,66.55,81.81,98.81,28.42,32.66,56.08,65.96,84,99.04.39.46.7.99,1.04,1.47-1.15,1.21-2.4,1.06-3.47,1.01-18.82-.88-37.54,2.94-56.36,1.37-15.44-1.29-30.95-2.03-46.38-1.57-21.99.66-43.95,1.07-65.89-.3-18.32-1.15-36.64-1.01-54.87.28-23.06,1.63-45.9-1.52-68.84-1.7-23.8-.18-47.62.27-71.41,1.14-16.17.59-32.28-.65-48.41-.53-11.15.08-22.31.05-33.44.56-3.83.17-5.7-1.12-7.33-4.31-6.57-12.87-12.77-25.97-20.14-38.37-11.24-18.92-20.29-38.92-30.12-58.53-16.46-32.86-32.45-65.96-48.62-98.97-.12-.25.01-.62.06-1.41ZM488.8,500.53c0-.19,0-.39,0-.58,65.66,0,131.31,0,196.97-.04,1.56,0,3.73.92,4.59-.85.85-1.76-1.23-2.88-2.19-4.08-18.51-23.15-36.91-46.39-55.69-69.32-29.54-36.08-57.44-73.47-88.01-108.72-2.51-2.9-5.1-4.17-8.96-4.16-28.49.04-56.99-.31-85.48-.19-81.82.36-163.63.88-245.45,1.36-3.33.02-6.66.22-9.99.38-5.57.28-5.68.47-3.21,5.25,2.9,5.62,5.81,11.24,8.77,16.82,28.09,52.91,56.23,105.79,84.2,158.77,2,3.79,4.3,5.27,8.5,5.14,6.99-.21,13.99.18,20.99.19,58.32.02,116.64.01,174.96.01Z"/><path class="cls-4" d="M182.14,618.13c-.7-4.25,1.18-8.32-.02-12.48-.39-1.34.11-2.8,2.09-2.43,13.58,2.55,27.39,2.31,41.08,3.57,5.62.52,11.26.97,16.89,1.09,22.13.47,44.27.36,66.38,1.32,12.81.56,25.61.5,38.41.85,3.93.11,7.25,1.37,10.13,4.41,6.4,6.76,13.11,13.23,20.14,19.37,2.14,1.87,4.12,2.75,6.74,1.61,15.59-6.78,32.28-10.21,48.21-15.99,12.65-4.58,25.29-8.16,39.35-5.89,10.39,1.68,21.21.57,31.85,1.31,34.43,2.38,68.92.36,103.37,1.22,19.93.5,39.84,1.96,59.79,1.89,2.57,0,3.62.85,3.48,3.47-.46,8.12-2.11,16.13-2.01,24.29.03,2.12-1.58,2.48-3.12,2.2-10.87-1.95-21.94.04-32.82-1.7-.82-.13-1.66-.16-2.49-.18-19.13-.38-38.27-.47-57.39-1.19-24.76-.93-49.53-1.38-74.29-2.18-10.8-.35-21.61-.29-32.4-.79-24.42-1.14-48.86-1.42-73.29-2.15-24.27-.72-48.53-1.33-72.8-1.99-22.77-.62-45.53-1.34-68.3-1.99-21.1-.6-42.18-1.87-63.3-1.76-3.53.02-5.3-.72-4.93-4.67.36-3.8-1.53-7.51-.75-11.25Z"/><path class="cls-4" d="M687.59,536.02c-19.61,0-39.26.79-58.82-.22-20.15-1.04-40.28-.93-60.39-.51-10.22.21-20.53.65-30.68.35-10.26-.31-20.43.27-30.61.63-12.73.44-25.51.45-38.11-.57-12.78-1.03-25.62-1.14-38.31-1.15-14.6-.02-29.26.36-43.9.45-24.66.16-49.34-.39-73.99.19-13.3.31-26.59.78-39.9.98-3.99.06-5.3-1.17-5.02-5.12.33-4.64.2-9.33.04-13.99-.1-2.9.77-3.97,3.89-4.23,12.4-1.01,24.82-.18,37.22-.51,8.9-.24,17.95,1.16,26.89.54,14.64-1.01,29.31-.06,43.89-1.09,19.32-1.36,38.65-1.27,57.89-.41,16.61.74,33.22,2.47,49.8,1.4,16.32-1.05,32.66-1.36,48.9-.52,15.44.79,30.93-.27,46.32,1.66,6.66.83,13.24-.95,19.89-.89,18.95.17,37.87.95,56.79,1.85,19.45.92,38.89-1.58,58.37-1,4.02.12,5.79.88,5.38,5.22-.37,3.97-.28,8-.08,11.99.16,3.13-1.15,3.79-4.07,4.04-10.46.88-20.92,1.05-31.41.92Z"/><path class="cls-4" d="M661.14,541.3c-10.56,3.35-21.09,6.78-31.68,10.02-25.1,7.66-49.89,16.26-74.68,24.86-26.06,9.04-52.34,17.38-78.71,25.49-22.53,6.93-44.77,14.79-67.15,22.22-7.41,2.46-14.86,4.79-22.23,7.34-2.11.73-2.75.16-2.74-1.86.02-6.16.11-12.33-.03-18.49-.06-2.66,1.69-3.44,3.58-4.11,10-3.55,19.88-7.57,30.08-10.42,18.26-5.11,35.83-12.18,53.8-18.12,20.35-6.73,41.06-12.17,61.64-18.11,12.78-3.69,25.47-7.9,37.42-13.63,17.29-8.29,35.18-8.64,53.55-6.73,1.82.19,3.66.23,5.48.23,10.49.02,20.98.01,31.47.01l.21,1.3Z"/><path class="cls-12" d="M499.13,548.26c4.17-1.24,8.24-2.98,12.74-2.72,5.47.7,10.93.23,16.4.07,11.74-.34,23.49-.7,35.22.36-11.92,5.04-24.06,9.56-36.58,12.81-32.53,8.42-64.33,19.11-95.96,30.39-15.01,5.35-30.69,8.76-45.29,15.34-2.35,1.06-3.89,0-5.34-1.37-10.48-9.97-21.55-19.29-31.65-29.7-9.36-9.65-19.72-18.34-29.63-27.46,1.12-1.87,2.96-1.01,4.47-1.05,6.91-.19,13.79-.52,20.61-1.72.63.26,1.25.52,1.88.78,12.15,13.95,26.04,26.18,38.85,39.47,2.01,2.08,3.6.87,5.35.24,11.1-4.01,22.17-8.12,33.6-11.1,12.7-3.31,25.22-7.17,37.53-11.71,3.34-.58,6.59-1.49,9.66-2.95,1.12-.42,3.46.18,2.03-2.4,2.7-.19,4.5-3.07,7.45-2.51,2.95,1.69,7.24.06,8.07-3.06l.47.1.48-.03c.28,2.14,1.62.93,2.45.66,1.01-.34,1.02-1.07.11-1.7,0,0-.07.04-.07.04,1.68,2.41,3.37.19,5.05,0,.84.11,1.65.14,2.12-.76Z"/><path class="cls-12" d="M232.82,505.23c-.23,1.22-.47,2.45-.7,3.67-5.1,14.22-8.64,28.9-13.03,43.33-3.08,10.15-5.92,20.38-8.71,30.62-.55,2.03-1.66,4.62,2.47,4.87,16.06,1,32.04,3.15,48.17,3.04,3.68.47,7.36.74,11.05.03.48.19.95.38,1.43.57.95,4.65,4.58,8.45,4.3,13.49-30.61-.21-61.17-1.73-91.72-3.6-3.69-.23-3.6-1.36-2.66-4.09,7.28-21.21,14.59-42.4,21.66-63.67,4.55-13.7,8.72-27.52,13.05-41.29,1.96-.97,2.62.84,3.57,1.78,3.75,3.7,7.42,7.49,11.13,11.24Z"/><path class="cls-8" d="M663.81,566.93c2.22,5.9,1.88,12.24,3.02,18.33,1.62,8.61,2.19,17.41,3.57,26.07.42,2.62.28,3.85-2.61,3.69-8.94-.5-17.89-.99-26.83-1.5-1.15-.07-2.3-.41-3.45-.42-29.45-.23-58.92-2.37-88.32-.73-15.52.86-30.89-.15-46.28-.67-12.57-.43-25.24.01-37.77-2.15,0,.04-.08-.43.01-.47,15.91-6.43,32.2-10.37,49.53-7.43,1.46.25,2.98.29,4.47.25,18.81-.52,37.57,1.01,56.36,1.28,12.73.18,25.49.35,38.19,1.05,8.08.45,16.24.22,24.31,1.56,7.47,1.24,8.41-.17,7.27-7.59-.99-6.4-.31-12.9-1.03-19.39-.9-8.22.06-16.6-1.23-24.85-.41-2.6.71-3.96,3.2-4.67,3.83-1.1,7.6-2.42,11.38-3.69,1.76-.6,3.37-1.08,3.38,1.7-.58.26-1.15.68-1.75.76-4.34.6-4.23,2.49-2.21,5.8,2.56,4.17,4.54,8.69,6.77,13.06Z"/><path class="cls-8" d="M125.53,389.06c1.14-7.69-.15-15.48.66-23.8,10.8,8.07,20.4,16.61,29.57,25.71,12.28,12.19,23.75,25.13,36.26,37.13,9.1,8.74,17.95,17.72,27.51,25.98,1.1.95,2.07,2.22,2.72,3.53,5.09,10.27,10.04,20.62,15.14,30.88,2.37,4.76,5.06,9.37,7.44,14.13.76,1.52,2.21,2.94,1.55,5.46-3.92-2.56-7.33-5.29-10.27-8.58-19.39-21.76-40.73-41.55-61.64-61.8-15.41-14.93-29.93-30.78-44.81-46.25-1.18-1.22-2.16-2.57-4.1-2.39,0,0-.03.01-.03.01Z"/><path class="cls-4" d="M317.98,545.98c0,2,1.08,3.54,2.45,4.74,12.5,10.96,23.92,23.03,35.67,34.76,7.51,7.49,16.1,13.85,23.14,21.86,1.06,1.21,1.8,2.19,1.78,3.83-.06,6.63-.02,13.26-.02,20.87-34.43-30.84-68.23-61.12-102.73-92.03,4.69,0,8.88.11,13.07-.03,4.8-.15,9.64.56,14.41-.71,2.17-.58,3.66,1.1,5.33,2.18,2.32,1.5,3.94,4.09,6.94,4.55,0,0-.04-.04-.04-.04Z"/><path class="cls-8" d="M263.17,530.19c-4.71-8.68-9.64-17.25-14.09-26.06-15.05-29.84-30.6-59.45-44.65-89.76-12.19-26.29-26.86-51.21-39.93-76.99-3.95-7.79-1.86-15.62-2.42-23.44-.05-.7.25-1.48.97-1.48.53,0,1.31.48,1.55.96,1.03,2.08,1.83,4.27,2.85,6.36,8.69,17.77,17.03,35.72,26.21,53.23,10.72,20.45,20.32,41.44,30.6,62.09,4.79,9.61,9.93,19.1,15.14,28.52,8.33,15.08,16.83,30.17,23.9,45.88,2.77,6.15.46,13.62-.14,20.7Z"/><path class="cls-12" d="M168.11,361.99c-.45,1.13-1.55.99-2.46,1.3-7.15,2.44-7.23,2.54-1.54,8.11,3.64,3.57,7.45,6.99,11.43,10.19,3,2.41,5.53,5.12,7.53,8.37-.25,1.43.52,2.6,1.17,3.71,6.2,10.56,11.55,21.57,16.93,32.55,1.69,3.44,4.35,6.61,3.79,10.86-10.24-8.8-19.13-18.94-28.52-28.59-15.21-15.65-30.35-31.35-47.83-44.55-.5-.38-.86-.95-1.68-1.89,9.57-2.4,18.68-4.81,27.86-6.9,3.05-.69,5.88-2.44,9.18-2.02.53,3.35,2.07,6.23,4.15,8.86Z"/><path class="cls-8" d="M505.4,596.68c9.27-4.66,18.55-4.08,27.78-3.89.83.02,1.66.1,2.49.12,19.62.37,39.25.42,58.85,1.25,9.3.39,18.6.46,27.88.94,4.94.25,6.31-1.68,5.52-5.98-1.69-9.31-.15-18.92-2.7-28.17-.93-3.36-.44-6.36,4.09-6.62.82-.05,1.64-.27,2.44-.48,8.13-2.11,8.32-2.11,8.18,6.52-.21,12.82,1.21,25.49,2.97,38.14.45,3.27.03,4.99-4.19,4.05-6.81-1.51-13.91-.98-20.82-1.2-12.29-.39-24.56-1.54-36.86-1.33-15.97.28-31.92-.87-47.86-1.39-9.02-.29-18.3.75-27.79-1.95Z"/><path class="cls-8" d="M175.08,565.03c-14.12.35-28.13-1.82-42.22-1.94-2.15-.02-2.95-.96-2.93-3.03.05-4.66.1-9.32-.03-13.98-.08-2.93,1.61-3.34,3.85-3.02,13.57,1.93,27.22.35,40.82.98,6.79.32,13.57.74,20.36.84,2.69.04,2.63,1.33,2.07,3.1-1.67,5.2-3.42,10.37-5.14,15.56-.57,1.71-2.03,1.47-3.32,1.48-4.49.04-8.98.01-13.48,0Z"/><path class="cls-1" d="M162.02,534.89c11.29.98,22.6.29,33.9.35,1.62,0,4.88-1.8,4.84,1.85-.03,3.1-1.25,5.38-5.53,5.06-7.29-.55-14.65-.09-21.97-.38-12.98-.51-25.96-.23-38.93.24-3.3.12-3.78-.68-2.14-3.55,9.81-17.19,19.52-34.43,29.25-51.66.58-1.02,1.06-2.13,2.57-1.85,2.79,3.68,7.5,5.22,10.14,9.07-5.72,10.8-11.45,21.6-17.15,32.41q-4.56,8.63,5.03,8.46Z"/><path class="cls-11" d="M480.47,553.02c-2.96-.57-4.75,2.31-7.45,2.51-.78-.53-1.41-.17-2,.36-3.34,1.05-6.67,2.1-10.01,3.15-21.44,7.12-43.64,11.88-64.66,20.18-7.24,2.86-11.38,2.04-16.28-3.77-9.55-11.32-21.5-20.35-31.27-31.51,3.42-.83,7.02.68,10.39-.81,7.84,5.66,13.78,13.37,21.19,19.5,2.42,2.01,4.9,4.05,6.89,6.45,2.93,3.52,6.27,3.79,10.25,2.44,21.35-7.23,42.7-14.46,64.09-21.57,5.63-1.87,11.16-4.31,17.25-4.43,1.81.12,3.62.2,5.42.35,4.22.37,8.56-.84,12.68.92-1.75.56-3.76.51-5,2.22,0,0,.07-.04.07-.04-1.11-.28-2.19-.51-2.55,1.04l-.48.03s-.47-.1-.47-.1c-2.85.58-5.82.87-8.07,3.06Z"/><path class="cls-1" d="M658.6,428.1c26.43,19.36,53.62,37.54,79.19,59.05-6.89,3.82-14.24,6.17-21.55,8.6-1.59.53-2.35-.97-3.13-2-17.12-22.75-36.91-43.26-54.51-65.66Z"/><path class="cls-8" d="M614.13,592.01c-12.09-1.17-24.22-1.09-36.35-1.01-2.76.02-4-.83-3.79-3.7.17-2.32.03-4.66.03-6.99,0-7.99,1.55-9.77,9.59-10.33,12.3-.86,24.54,1.41,36.83.98,1.96-.07,2.49,1.02,2.68,2.77.53,4.93,1.23,9.85,1.85,14.77.32,2.53-.72,3.69-3.37,3.53-2.49-.15-4.99-.03-7.49-.03Z"/><path class="cls-1" d="M230.98,554.99c-2.66,7.37-4.27,15-5.73,22.69-.64,3.4.28,4.27,3.66,4.33,12.3.21,24.6.73,36.9,1.17,1.62.06,3.38-.25,4.69,1.17.44,1.5.88,3,1.31,4.49,0,0,.02-.01.02-.01-3.62.11-7.25.22-10.87.33-15.26-1.03-30.5-2.24-45.78-2.98-3.73-.18-3.61-1.56-2.83-4.15,3.31-10.97,6.65-21.93,9.89-32.92,3.94-13.36,8.5-26.54,11.71-40.12.33-.39.66-.78.98-1.17,2.02,2.06,4.05,4.12,6.07,6.18.61,4.43-.96,8.55-2.25,12.57-2.28,7.07-3.68,14.34-5.72,21.46-1.22,2.17-1.8,4.52-2.06,6.97Z"/><path class="cls-8" d="M277.79,604.86c.28-5.04-3.35-8.84-4.3-13.49,15.87,1.08,31.78.55,47.67,1.09,9.3.32,16.13,3.24,22.01,9.9,1.25,1.41,3.45,1.94,4.06,3.92-23.18-.48-46.31-.95-69.45-1.42Z"/><path class="cls-4" d="M288.78,560c6.09-1.65,11.14,1.84,15.82,6.89,3.59,3.87,7.72,7.25,11.6,10.86,1.11,1.04,2.23,2.14,1.4,3.86-.71,1.46-2.13,1.43-3.47,1.36-12.88-.64-25.76-1.31-38.65-1.93-1.63-.08-2.59-.76-2.41-2.41.65-5.95,2.7-11.57,4.15-17.34.37-1.48,1.78-1.25,2.91-1.27,2.49-.04,4.98-.01,8.65-.01Z"/><path class="cls-4" d="M174.14,494.03c-2.64-3.85-7.35-5.39-10.14-9.07-.2-1.21.11-2.25.79-3.29,6.03-9.18,11-18.96,16.06-28.69,1.5-2.9,2.79-2.69,4.73-.79.12.12.24.24.36.35q6.97,6.17,2.63,14.35c-4.08,7.63-8.23,15.22-12.34,22.82-.72,1.33-1.37,2.67-1.3,4.24-.26.05-.53.08-.79.09Z"/><path class="cls-11" d="M180.77,498.93c-3.77,8.14-7.5,16.3-11.34,24.41-1.2,2.53-.77,3.39,2.21,3.63,9.31.74,18.63.96,27.96,1.1,1.29.02,3.63-1.34,3.77,1.37.12,2.4-1.42,3.29-3.88,3.34-6.65.12-13.29.66-19.94.74-5.82.07-11.65-.26-17.47-.42-1.42-1.2-3.64.14-5.09-1.6,3.03-5.71,5.99-11.44,9.1-17.07,3.5-6.34,6.26-13.11,10.7-18.91,1.33,1.14,2.66,2.28,3.98,3.42Z"/><path class="cls-2" d="M258.81,557.87c-7.49-.27-14.97-.51-22.46-.83-1.21-.05-2.74.65-3.52-1.01.7-2.68,1.41-5.37,2.11-8.05.51-1.56,1.42-3.1,1.45-4.67.13-6.22,3.52-7.6,8.93-6.6,2.08.38,4.23.36,6.34.52,2,4.71,4.05,9.39,5.98,14.12.84,2.06,2.46,4.05,1.16,6.52Z"/><path class="cls-4" d="M258.81,557.87c1.3-2.47-.32-4.46-1.16-6.52-1.92-4.74-3.98-9.42-5.98-14.12,5.24-.35,10.51-1.22,15.35,1.89,2.91,1.87,6.84-.14,9.75,2.82,1.92,1.95,2.52,3.47,1.8,6.02-2.84,10.06-2.78,10.08-13.32,10-2.15-.02-4.3-.05-6.45-.08Z"/><path class="cls-8" d="M728,517c.27-3.7-1.08-6.62-3.66-9.35-2.57-2.72-4.58-5.97-6.98-9.19,6.32-2.38,12.46-4.36,18.29-7.02,3.24-1.48,3.94.13,4.05,2.39.26,5.45.18,10.92.2,16.38,0,1.26-.6,2.16-1.84,2.66-3.36,1.35-6.7,2.75-10.05,4.13h0Z"/><path class="cls-8" d="M183.98,501.14c-.21-3.77,1.45-5.18,5.33-5.31,7.01-.22,13.88,1.24,20.85,1.15.95-.01,2.53-.13,2.45,1.04-.28,4.17-1.8,8.08-3.7,11.72-1.15,2.2-3.51.85-5.43.68-3.13-.29-6.29-.28-9.44-.4-2.75-3.64-7.83-4.65-10.06-8.88Z"/><path class="cls-10" d="M563.49,545.97c-11.73-1.06-23.48-.7-35.22-.36-5.47.16-10.94.63-16.4-.07,5.32-4.85,12.35-6.37,18.72-6.03,14.44.76,28.79.33,43.18-.44,2.31-.12,4.64-.02,7.2.61-5.82,2.1-11.65,4.2-17.47,6.3Z"/><path class="cls-10" d="M204.96,437.08c.56-4.25-2.1-7.42-3.79-10.86-5.39-10.98-10.74-21.99-16.93-32.55-.65-1.1-1.42-2.27-1.17-3.71,5.21,3.4,9.91,7,12.67,13.08,6.29,13.85,13.21,27.42,19.83,41.13.47.98,1.44,1.88.56,4.18-3.56-3.46-6.84-6.65-10.11-9.84-.01-.76.12-1.62-1.1-1.51l.03.09Z"/><path class="cls-10" d="M419.45,543.99c-1.49-1.5-2.97-3-4.79-4.84,14.18-.84,27.97-.74,41.75.67,2.31.23,4.66.27,6.97.12,2.89-.19,6.03.34,6.63,3.1.6,2.73-3.45,2.08-4.88,3.72-.22.25-.95.05-1.44.06-14.68-2.11-29.5-1.93-44.25-2.82Z"/><path class="cls-11" d="M419.45,543.99c14.75.89,29.58.71,44.25,2.82-9.15,2.91-18.33,5.7-27.41,8.79-2.76.94-4.61.46-6.64-1.51-3.44-3.33-7.46-6.06-10.2-10.1Z"/><path class="cls-9" d="M233.96,508.99c-3.21,13.58-7.77,26.76-11.71,40.12-3.24,10.99-6.58,21.95-9.89,32.92-.78,2.59-.9,3.97,2.83,4.15,15.27.74,30.52,1.94,45.78,2.98.02.54.03,1.08.05,1.61-16.13.1-32.11-2.04-48.17-3.04-4.13-.26-3.02-2.84-2.47-4.87,2.79-10.24,5.63-20.47,8.71-30.62,4.38-14.43,7.93-29.12,13.03-43.33.61.03,1.23.06,1.84.09Z"/><path class="cls-8" d="M271.82,588.83c-.44-1.5-.87-3-1.31-4.49,13.8-1.21,27.5,1.01,41.26,1.21,3.44.05,6.95.41,10.43.41,2.76,0,4.81.78,6.62,4.43-19.41-1.78-38.21-1.17-57-1.56Z"/><path class="cls-8" d="M180.77,498.93c-1.33-1.14-2.66-2.28-3.98-3.42-.3-.18-.6-.36-.89-.54,6-9.38,10.72-19.46,16.14-29.16.8-1.42,1.56-2.87,2.34-4.31,3.48,1.65,3.8,3.65,2.09,6.86-5.39,10.1-10.48,20.37-15.69,30.57Z"/><path class="cls-10" d="M344.13,543.2c-6.82,1.2-13.71,1.53-20.61,1.72-1.51.04-3.35-.82-4.47,1.05-.35,0-.7,0-1.06,0,0,0,.04.04.04.04-.32-3.25-3.46-4.15-5.92-6.91,10.79.23,20.86-1.13,30.9.89,0,0,0,0,0,0,.38,1.07.75,2.14,1.13,3.21Z"/><path class="cls-10" d="M496.96,546.8c-4.12-1.76-8.45-.55-12.68-.92-1.8-.16-3.61-.24-5.42-.35,4.55-3.56,10.21-4.45,15.53-5.18,6.38-.87,12.98-.21,20.79-.21-3.43,1.92-5.93,2.35-8.44,2.96-3.05.74-6.81.91-7.61,5.16-.48.9-1.28.88-2.12.76-.02-.74-.03-1.48-.05-2.22Z"/><path class="cls-4" d="M169.65,365.3c2.79-1.87,5.34-1.95,7.14,1.28,3.79,6.78,7.5,13.6,10.82,20.8-4.44-2.28-8.42-5.02-11.58-8.86-.37-.52-.74-1.03-1.11-1.55,0,0,.06.1.06.1-.44-4.53-4.11-7.6-5.35-11.77Z"/><path class="cls-9" d="M175.89,494.97c.3.18.6.36.89.54-4.44,5.81-7.19,12.58-10.7,18.91-3.12,5.64-6.07,11.37-9.1,17.07,1.45,1.74,3.67.4,5.09,1.6-.02.6-.04,1.19-.07,1.79q-9.57.18-5.03-8.46c5.71-10.81,11.43-21.6,17.15-32.41.27-.01.53-.04.79-.09.32.34.64.69.96,1.03Z"/><path class="cls-8" d="M200.2,467.9c4.01,3.98,7.91,7.86,12.01,11.94-5.06.3-10.05.26-15.05-.78-2.11-.44-2.47-1.34-1.52-3.06,1.58-2.84,3.19-5.67,4.56-8.1Z"/><path class="cls-3" d="M183.98,501.14c2.23,4.23,7.31,5.24,10.06,8.88-2.94-.09-5.9-.02-8.82-.34-2.06-.23-5.72,1.16-5.79-1.42-.07-2.44.88-6.13,4.55-7.11Z"/><path class="cls-3" d="M663.81,566.93c-2.23-4.37-4.22-8.89-6.77-13.06-2.03-3.31-2.13-5.2,2.21-5.8.61-.08,1.17-.5,1.75-.76,1.86,6.41,2.45,13.01,2.81,19.63Z"/><path class="cls-10" d="M232.82,505.23c-3.7-3.76-7.37-7.54-11.13-11.24-.95-.94-1.61-2.75-3.57-1.78,2.02-5.45,1.94-5.38,5.52-1.3,2.41,2.75,4.96,5.4,7.7,7.82,2.2,1.94,2.8,3.92,1.48,6.51Z"/><path class="cls-10" d="M359.18,543.13c-3.37,1.48-6.97-.02-10.39.81-.86-.37-1.72-.74-2.58-1.11-.4-1.71-1.26-2.89-3.22-2.84,0,0,0,0,0,0,4.02-3.99,11.74-2.49,16.18,3.13Z"/><path class="cls-10" d="M168.11,361.99c-2.08-2.63-3.61-5.51-4.15-8.86,1.87-1.68,4.02-1.98,5.41.16,1.45,2.22,3.62,4.55,3.01,7.39-.39,1.82-2.68,1.32-4.28,1.3Z"/><path class="cls-3" d="M169.65,365.3c1.24,4.17,4.9,7.24,5.35,11.77-4.17-2.88-7.23-6.85-10.94-10.54,2.11-.7,3.7-1.64,5.59-1.24Z"/><path class="cls-3" d="M477.7,302.08c-5.37,2.1-10.9.46-16.47.34,2.91-.87,5.83-1.73,8.74-2.6,3.34-1.86,5.46.46,7.73,2.26Z"/><path class="cls-10" d="M241.02,514c-2.02-2.06-4.05-4.12-6.07-6.18.2-1.29.74-3.42,1.75-3.02,2.25.9,4.11,2.84,5.13,5.13.57,1.27.64,2.95-.8,4.07Z"/><path class="cls-8" d="M372.27,539.3c-5.12,1.54-9.02,6.52-12.77-1.17,4.03.37,7.72.7,12.77,1.17Z"/><path class="cls-9" d="M477.7,302.08c-2.27-1.8-4.39-4.12-7.73-2.26-.02-.57-.04-1.14-.05-1.7,4.91-2.76,7.58.54,10.27,3.79-.83.06-1.66.11-2.48.17Z"/><path class="cls-8" d="M261.01,590.77c-.02-.54-.03-1.08-.05-1.61,3.62-.11,7.25-.22,10.87-.33.08.66.15,1.32.23,1.98-3.69.71-7.37.44-11.05-.03Z"/><path class="cls-8" d="M234.94,547.98c-.7,2.68-1.41,5.37-2.11,8.05-.61-.35-1.23-.69-1.84-1.04.26-2.45.84-4.8,2.06-6.97.63-.01,1.26-.03,1.89-.04Z"/><path class="cls-3" d="M174.94,376.97c.37.52.74,1.03,1.11,1.55-.37-.52-.74-1.03-1.11-1.55Z"/><path class="cls-8" d="M728,517l-.24.42c.08-.14.16-.28.24-.42h0Z"/><path class="cls-12" d="M204.92,437c1.21-.11,1.08.75,1.1,1.51-.37-.5-.73-1.01-1.1-1.51Z"/><path class="cls-13" d="M488.8,500.53c-58.32,0-116.64,0-174.96-.01-7,0-14-.39-20.99-.19-4.2.12-6.5-1.36-8.5-5.14-27.97-52.98-56.11-105.86-84.2-158.77-2.97-5.59-5.87-11.2-8.77-16.82-2.47-4.79-2.36-4.97,3.21-5.25,3.33-.17,6.66-.36,9.99-.38,81.82-.48,163.63-1,245.45-1.36,28.49-.13,56.99.22,85.48.19,3.86,0,6.45,1.27,8.96,4.16,30.57,35.24,58.47,72.64,88.01,108.72,18.78,22.93,37.18,46.17,55.69,69.32.96,1.2,3.04,2.33,2.19,4.08-.85,1.77-3.03.85-4.59.85-65.66.04-131.31.04-196.97.04,0,.19,0,.39,0,.58ZM192.83,316.65c.72,1.66.94,2.26,1.23,2.82,31.21,58.6,62.45,117.19,93.6,175.81,1.12,2.12,2.43,2.59,4.69,2.58,53.98-.1,107.96-.15,161.94-.12,75.81.04,151.61-.85,227.42-.17,1.54.01,3.28.67,4.85-.73-.5-.72-.92-1.43-1.43-2.06-16.08-19.76-32.35-39.37-48.2-59.31-31.39-39.5-64.63-77.5-94.89-117.91-1.64-2.2-3.42-2.61-5.92-2.57-44.64.6-89.29,1.42-133.93,1.59-69.47.26-138.95.07-209.37.07Z"/><path class="cls-9" d="M346.22,542.83c.86.37,1.72.74,2.58,1.11,9.78,11.16,21.73,20.19,31.27,31.51,4.9,5.81,9.03,6.64,16.28,3.77,21.01-8.3,43.22-13.07,64.66-20.18.11.61.21,1.23.32,1.84-12.31,4.54-24.83,8.4-37.53,11.71-11.43,2.98-22.5,7.09-33.6,11.1-1.74.63-3.34,1.85-5.35-.24-12.81-13.3-26.7-25.52-38.85-39.47.07-.38.14-.77.21-1.15Z"/><path class="cls-5" d="M461.33,560.88c-.11-.61-.21-1.23-.32-1.84,3.34-1.05,6.67-2.1,10.01-3.15,0,.68-.02,1.36-.03,2.04-3.07,1.47-6.32,2.37-9.66,2.95Z"/><path class="cls-5" d="M480.47,553.02c2.25-2.19,5.21-2.48,8.07-3.06-.83,3.12-5.12,4.75-8.07,3.06Z"/><path class="cls-5" d="M346.22,542.83c-.07.38-.14.77-.21,1.15-.63-.26-1.25-.52-1.88-.78-.38-1.07-.75-2.14-1.13-3.21,1.96-.06,2.82,1.12,3.22,2.84Z"/><path class="cls-5" d="M496.96,546.8c.02.74.03,1.48.05,2.22-1.68.19-3.37,2.41-5.05,0,1.24-1.71,3.25-1.66,5-2.22Z"/><path class="cls-5" d="M489.48,550.03c.36-1.55,1.45-1.32,2.55-1.04.91.63.9,1.37-.11,1.7-.82.27-2.17,1.48-2.45-.66Z"/><path class="cls-9" d="M470.99,557.93c0-.68.02-1.36.03-2.04.59-.53,1.22-.89,2-.36,1.43,2.58-.9,1.98-2.03,2.4Z"/><path class="cls-3" d="M192.83,316.65c70.42,0,139.89.19,209.37-.07,44.64-.17,89.29-.99,133.93-1.59,2.5-.03,4.28.38,5.92,2.57,30.25,40.41,63.5,78.41,94.89,117.91,15.85,19.95,32.13,39.55,48.2,59.31.51.63.93,1.33,1.43,2.06-1.57,1.4-3.3.74-4.85.73-75.81-.67-151.61.22-227.42.17-53.98-.03-107.96.02-161.94.12-2.26,0-3.57-.47-4.69-2.58-31.16-58.63-62.39-117.21-93.6-175.81-.3-.55-.51-1.15-1.23-2.82ZM232.8,378.05c5.4,9.98,10.8,19.97,16.21,29.95,1.88,4.32,3.98,8.52,6.8,12.32,6.05,11.23,12.1,22.46,18.15,33.7,2.14,5.04,4.83,9.79,7.8,14.38,3.8,7.2,7.66,14.37,11.36,21.63,1.08,2.11,2.7,1.96,4.59,1.96,63.14-.02,126.27-.03,189.41.01,60.3.04,120.61.15,180.91.2,1.42,0,3.23.66,4.16-.86.94-1.53-.82-2.32-1.57-3.26-43.2-54.77-87.42-108.73-131.16-163.08-2.56-3.18-5.25-4.27-9.29-4.26-70.8.13-141.6.08-212.4.1-36.82,0-73.63.11-110.45.06-3.83,0-5.37.65-3.18,4.63,7.62,13.83,15.13,27.72,22.68,41.59,1.53,3.9,3.62,7.49,5.98,10.94Z"/><path class="cls-6" d="M226.81,367.11c-7.55-13.87-15.06-27.76-22.68-41.59-2.19-3.98-.64-4.63,3.18-4.63,36.82.05,73.63-.05,110.45-.06,70.8-.02,141.6.03,212.4-.1,4.05,0,6.73,1.08,9.29,4.26,43.74,54.34,87.96,108.3,131.16,163.08.74.94,2.51,1.73,1.57,3.26-.93,1.51-2.74.86-4.16.86-60.3-.05-120.61-.16-180.91-.2-63.14-.04-126.27-.04-189.41-.01-1.89,0-3.51.16-4.59-1.96-3.7-7.25-7.56-14.42-11.36-21.63.43-.47.85-.94,1.28-1.41.6.26,1.21.75,1.81.75,13.13-.08,26.27-.21,39.4-.33,3.17-.03,2.02-1.7,1.18-3.17-3.12-5.49-6.28-10.95-9.4-16.43-.76-1.33-1.46-2.49-3.33-2.48-13.41.05-26.83.03-40.46.03.45,3.34,2.7,5.55,3.64,8.32-.64.12-1.28.23-1.92.35-6.05-11.23-12.1-22.46-18.15-33.7.4-.44.8-.88,1.19-1.32,1.26,2.56,3.32,3.09,6.09,3.03,9.97-.2,19.95-.13,29.93-.15,2.54,0,5.08,0,8.31,0-3.61-6.41-6.79-11.84-9.74-17.39-1.15-2.15-2.74-2.47-4.89-2.44-10.81.14-21.61.14-32.42.24-5.77.06-5.77.11-3.36,5.36-.64.12-1.27.23-1.91.35-5.4-9.98-10.8-19.97-16.21-29.95.51-.07,1.03-.14,1.54-.21.54.36,1.07,1.03,1.61,1.03,12.79.05,25.57.06,38.36.02,2.96,0,1.66-1.7.97-2.93-2.26-4.06-4.8-7.97-6.82-12.14-1.24-2.55-2.92-3.1-5.49-3.1-10.46.03-20.92-.12-31.38-.17-5.5-.03-5.5.01-3.39,5.15-.46.47-.91.94-1.37,1.41ZM512.98,466.78c-5.29-7.52-9.5-13.5-13.69-19.47-.77-1.1-1.5-2.12-3.11-2.11-13.93.04-27.85.02-42.83.02,4.84,7.25,9.14,13.67,13.42,20.12.73,1.1,1.7,1.46,2.96,1.46,13.95-.01,27.89,0,43.26,0ZM418.9,467.13c-4.77-7.6-8.9-14.15-13.01-20.7-.86-1.37-2.22-1.24-3.55-1.24-12.15,0-24.3.04-36.44-.04-2.83-.02-3.76.56-2.02,3.31,3.45,5.48,6.77,11.06,10.08,16.63.73,1.23,1.5,2.06,3.08,2.06,13.57-.03,27.14-.02,41.87-.02ZM607.68,467.74c5.09,6.77,9.55,12.49,13.75,18.39,1.63,2.29,3.45,3.13,6.24,3.1,12.81-.13,25.62-.07,38.43-.07.68,0,1.32-.08,1.54-1.2-4.09-4.99-8.59-9.92-12.43-15.32-2.91-4.1-6.19-5.27-11.18-5.06-11.73.49-23.49.16-36.35.16ZM603.6,466.02c-5.55-7.29-10.37-13.57-15.12-19.89-.97-1.29-2.22-1.24-3.55-1.23-12.13.07-24.26.16-36.39.19-2.39,0-3.74.33-1.75,2.94,4.02,5.29,8,10.6,11.88,16,1.11,1.54,2.35,2.03,4.17,2.03,13.12-.06,26.25-.03,40.76-.03ZM480.53,489.12c-4.45-6.71-8.21-12.37-11.97-18.05-.75-1.13-1.49-2.13-3.1-2.13-13.89.03-27.79.02-42.68.02,4.23,6.84,7.88,12.73,11.53,18.62.66,1.07,1.59,1.56,2.89,1.55,14.09-.03,28.18-.02,43.33-.02ZM630.98,442.99c-5.6-7.07-10.56-13.29-15.45-19.55-.93-1.19-1.97-1.55-3.42-1.53-11.81.14-23.63.21-35.44.33-.93,0-2.17-.41-2.67.71-.49,1.07.53,1.8,1.11,2.56,3.94,5.15,7.91,10.28,11.84,15.44.82,1.08,1.61,2.06,3.17,2.06,13.26-.02,26.52-.01,40.87-.01ZM516,468.26c3.05,4.36,5.51,6.99,6.95,10.08,4.31,9.3,11.34,11.84,21.21,10.93,9.8-.9,19.75-.2,30.79-.2-5.39-7.12-10.07-13.29-14.73-19.47-.78-1.04-1.78-1.36-3.03-1.36-13.26.02-26.52,0-41.19,0ZM330.92,469.34q8.43,19.65,27.99,19.77c1,0,1.99,0,2.99,0,7.86,0,15.73,0,24.44,0-3.96-6.5-7.46-12.09-10.79-17.78-1.01-1.73-2.37-2.03-4.14-2.02-13.28.04-26.55.02-40.49.02ZM480.46,420.61c-4.83-6.79-8.61-12.02-12.3-17.32-.95-1.36-2.02-1.99-3.7-1.98-12.3.06-24.6.07-36.89.05-2.35,0-3.16.58-1.64,2.81,3.27,4.8,6.48,9.64,9.67,14.49.78,1.18,1.67,1.97,3.2,1.96,13.39-.02,26.79-.01,41.67-.01ZM484.92,422.88c.59,3.04,2.53,4.37,3.36,6.25,5.19,11.71,13.93,15.66,26.53,13.93,8.04-1.1,16.35-.21,25.52-.21-4.99-6.76-9.34-12.58-13.6-18.46-1.04-1.43-2.39-1.53-3.93-1.52-12.45.02-24.9.01-37.89.01ZM449.8,443.02c-4.49-6.71-8.36-12.45-12.18-18.22-1-1.51-2.44-1.47-3.96-1.46-11.99.12-23.99.25-35.98.31-2.39.01-3.65.31-1.87,2.99,3.13,4.71,6.17,9.49,9.08,14.34,1.02,1.7,2.3,2.07,4.1,2.06,13.16-.05,26.31-.03,40.81-.03ZM332.35,399.96c-1.35-2.37-1.96-3.55-2.66-4.67-2.98-4.8-5-11.03-9.27-13.97-4.52-3.11-11.28-.84-17.05-.98-7.54-.18-15.09-.04-23.51-.04,3.7,6.53,6.91,12.12,10.04,17.76.73,1.31,1.62,1.92,3.15,1.91,12.76-.04,25.53-.02,39.3-.02ZM512.83,400.18c-.12.53-.24,1.05-.36,1.58,3.83,5.18,7.75,10.31,11.46,15.58,1.51,2.15,3.22,2.87,5.82,2.84,11.64-.14,23.27-.05,34.91-.1,1.01,0,2.34.66,3.13-.96-4.29-5.62-8.67-11.25-12.92-16.97-1.12-1.5-2.37-2.01-4.2-2-12.61.07-25.22.03-37.84.03ZM304.57,423.81c3.4,6,6.42,10.96,9.06,16.12,1.35,2.64,3.13,3.34,5.92,3.26,6.66-.18,13.32-.06,19.98-.06,6.05,0,12.1,0,18.96,0-3.84-6.39-7.18-11.91-10.47-17.45-.75-1.26-1.7-1.9-3.21-1.89-13.12.03-26.24.02-40.25.02ZM563.79,359.08c-5.73-7.14-10.55-13.07-15.28-19.06-1.01-1.27-2.02-1.85-3.75-1.82-10.64.22-21.28.28-31.92.43-.95.01-2.32-.03-2.76.53-.96,1.22.55,2.04,1.17,2.88,3.67,4.93,7.42,9.81,11.17,14.68.89,1.16,1.68,2.4,3.52,2.39,12.21-.05,24.42-.03,37.85-.03ZM389.97,421.26c-4.23-6.76-7.73-12.35-11.23-17.95-.83-1.32-2.11-1.38-3.49-1.38-11.97.05-23.94.09-35.91.07-2.23,0-3.25.45-1.81,2.78,2.96,4.81,5.91,9.63,8.76,14.5.87,1.48,1.95,2.01,3.63,2,12.94-.05,25.88-.03,40.06-.03ZM420.39,399.15c-3.9-5.89-7.26-10.77-10.4-15.8-1.5-2.41-3.37-3.15-6.15-3.1-9.3.17-18.6.07-27.9.07-2.87,0-5.75,0-9.32,0,3.84,6.08,7.18,11.22,10.33,16.48,1.09,1.82,2.38,2.4,4.43,2.39,12.61-.07,25.23-.04,39.02-.04ZM424.52,338.9c5.24,7.16,8.6,15.09,14.58,18.96,5.52,3.56,13.91.76,21.03,1.1.83.04,1.67.01,2.5.01,4.86,0,9.72,0,15.37,0-4.86-6.6-9.13-12.31-13.29-18.11-.97-1.35-1.98-1.99-3.68-1.98-11.79.06-23.58.03-36.51.03ZM595.58,398.78c-2.25-2.86-3.98-4.51-5.06-6.52-5.61-10.38-13.99-14.13-25.75-12.6-7.75,1.01-15.74.19-24.66.19,4.88,6.37,9.03,11.73,13.11,17.13,1,1.32,2.2,1.82,3.84,1.82,12.44-.04,24.88-.02,38.52-.02ZM507.69,398.77c-4.81-6.46-8.94-12-13.08-17.54-.65-.87-1.58-1.08-2.64-1.08-12.24.02-24.49.01-38.07.01,4.62,6.54,8.49,12.03,12.39,17.5.9,1.26,2.3,1.12,3.63,1.12,12.14,0,24.27,0,37.77,0ZM340.44,339.04c3.82,6.02,7.16,10.91,10.08,16.04,1.46,2.56,3.23,3.26,6,3.23,9.31-.1,18.63.04,27.94.08,2.53.01,5.07,0,8.64,0-4.45-6.73-8.19-12.37-11.91-18.02-.6-.91-1.39-1.34-2.49-1.34-12.4.01-24.8,0-38.27,0ZM311.25,361.04c3.53,5.86,6.53,10.8,9.48,15.78.77,1.3,1.78,1.82,3.27,1.81,12-.08,24-.12,36-.15,2.35,0,2.5-.89,1.34-2.69-2.8-4.33-5.55-8.7-8.25-13.11-.81-1.32-1.88-1.66-3.33-1.66-12.47.03-24.95.02-38.5.02ZM256.9,339.69c3.58,6.29,6.68,11.71,9.76,17.15.55.98,1.35,1.4,2.43,1.4,12.42,0,24.85,0,38.12,0-3.67-6.13-6.91-11.5-10.1-16.89-.66-1.12-1.5-1.67-2.82-1.66-12.11.02-24.21.01-37.39.01ZM450.54,378.32c-4.07-5.78-7.48-10.62-10.88-15.47-.69-.98-1.38-1.73-2.76-1.73-12.86.04-25.72.02-39.47.02,3.76,5.7,7.06,10.6,10.25,15.57.98,1.54,2.34,1.61,3.87,1.61,12.61,0,25.22,0,39,0ZM536.61,378.31c-4.4-5.74-8.15-10.55-11.82-15.43-1.34-1.78-3.17-1.54-4.98-1.55-8.65-.06-17.31-.13-25.96-.18-3.53-.02-7.06,0-11.44,0,4.2,5.68,7.78,10.46,11.27,15.29.98,1.35,2.13,1.9,3.78,1.89,12.64-.04,25.28-.02,39.15-.02ZM288.11,322.92c2.63,4.4,4.93,7.97,6.94,11.7,1.26,2.34,2.84,3.2,5.54,3.14,9.64-.19,19.29-.09,28.94-.18,2.37-.02,4.83.47,7.49-.55-2.66-4.32-5.14-8.25-7.5-12.25-.76-1.29-1.67-1.89-3.18-1.88-12.41.03-24.83.02-38.21.02ZM253.75,338c-2.27-4.13-4.23-7.22-5.7-10.52-1.53-3.42-3.56-4.82-7.56-4.67-9.81.36-19.65.06-29.48.09-1.7,0-3.52-.45-5.43.62,2.37,4.36,4.61,8.41,6.77,12.5.68,1.29,1.48,2.01,3.06,2,12.45-.05,24.91-.03,38.33-.03ZM504.87,336.96c-3.39-4.54-5.96-7.59-8.06-10.94-1.5-2.38-3.16-3.22-5.99-3.16-9.13.19-18.27.05-27.41.04-3.03,0-6.06,0-9.81,0,3.45,4.57,6.23,8.27,9.02,11.95.91,1.2,1.84,2.15,3.63,2.14,12.41-.07,24.81-.04,38.62-.04ZM371.84,322.91q8.55,14.29,23.82,14.21c3.83-.02,7.66-.04,11.49-.05,4.54,0,9.08,0,14.42,0-3.26-4.74-5.95-8.52-8.49-12.39-.83-1.26-1.78-1.79-3.26-1.78-12.45.03-24.89.02-37.98.02Z"/><path class="cls-9" d="M273.95,454.01c.64-.12,1.28-.23,1.92-.35,2.68,4.28,5.21,8.64,7.15,13.32-.43.47-.85.94-1.28,1.41-2.97-4.59-5.66-9.34-7.8-14.38Z"/><path class="cls-9" d="M257,419c-.4.44-.79.88-1.19,1.32-2.83-3.8-4.92-8-6.8-12.32.64-.12,1.27-.23,1.91-.35,2.4,3.59,4.58,7.29,6.09,11.35Z"/><path class="cls-9" d="M234.34,377.83c-.51.07-1.03.14-1.54.21-2.36-3.45-4.45-7.04-5.98-10.94.46-.47.91-.94,1.37-1.41,2.51,3.81,5.14,7.56,6.15,12.14Z"/><path class="cls-1" d="M283.03,466.99c-1.94-4.68-4.47-9.04-7.15-13.32-.94-2.77-3.19-4.98-3.64-8.32,13.64,0,27.05.02,40.46-.03,1.87,0,2.57,1.15,3.33,2.48,3.12,5.49,6.28,10.95,9.4,16.43.84,1.47,1.99,3.14-1.18,3.17-13.13.12-26.27.25-39.4.33-.6,0-1.21-.49-1.81-.75Z"/><path class="cls-1" d="M512.98,466.78c-15.37,0-29.32,0-43.26,0-1.26,0-2.23-.36-2.96-1.46-4.27-6.45-8.58-12.87-13.42-20.12,14.98,0,28.9.02,42.83-.02,1.61,0,2.34,1.01,3.11,2.11,4.2,5.98,8.4,11.95,13.69,19.47Z"/><path class="cls-2" d="M418.9,467.13c-14.74,0-28.3-.01-41.87.02-1.57,0-2.34-.83-3.08-2.06-3.31-5.57-6.62-11.14-10.08-16.63-1.73-2.76-.81-3.33,2.02-3.31,12.15.08,24.3.04,36.44.04,1.33,0,2.69-.13,3.55,1.24,4.11,6.56,8.23,13.11,13.01,20.7Z"/><path class="cls-7" d="M607.68,467.74c12.86,0,24.62.33,36.35-.16,4.99-.21,8.26.96,11.18,5.06,3.84,5.4,8.34,10.33,12.43,15.32-.22,1.12-.86,1.2-1.54,1.2-12.81,0-25.62-.06-38.43.07-2.78.03-4.6-.81-6.24-3.1-4.2-5.9-8.65-11.61-13.75-18.39Z"/><path class="cls-2" d="M603.6,466.02c-14.51,0-27.63-.03-40.76.03-1.83,0-3.07-.49-4.17-2.03-3.88-5.39-7.86-10.71-11.88-16-1.99-2.62-.64-2.94,1.75-2.94,12.13-.03,24.26-.12,36.39-.19,1.33,0,2.58-.06,3.55,1.23,4.75,6.32,9.56,12.6,15.12,19.89Z"/><path class="cls-12" d="M480.53,489.12c-15.15,0-29.24-.01-43.33.02-1.31,0-2.23-.48-2.89-1.55-3.65-5.89-7.29-11.78-11.53-18.62,14.9,0,28.79.01,42.68-.02,1.6,0,2.35,1,3.1,2.13,3.76,5.67,7.52,11.34,11.97,18.05Z"/><path class="cls-2" d="M630.98,442.99c-14.36,0-27.61,0-40.87.01-1.56,0-2.34-.98-3.17-2.06-3.93-5.16-7.9-10.29-11.84-15.44-.58-.76-1.6-1.49-1.11-2.56.51-1.11,1.74-.7,2.67-.71,11.81-.12,23.63-.19,35.44-.33,1.45-.02,2.5.35,3.42,1.53,4.89,6.27,9.85,12.48,15.45,19.55Z"/><path class="cls-12" d="M516,468.26c14.66,0,27.93,0,41.19,0,1.24,0,2.25.32,3.03,1.36,4.66,6.19,9.34,12.36,14.73,19.47-11.04,0-20.99-.7-30.79.2-9.87.91-16.9-1.64-21.21-10.93-1.44-3.1-3.89-5.72-6.95-10.08Z"/><path class="cls-2" d="M330.92,469.34c13.93,0,27.21.02,40.49-.02,1.77,0,3.12.3,4.14,2.02,3.34,5.69,6.83,11.28,10.79,17.78-8.71,0-16.58,0-24.44,0-1,0-1.99,0-2.99,0q-19.55-.13-27.99-19.77Z"/><path class="cls-11" d="M480.46,420.61c-14.88,0-28.28-.01-41.67.01-1.53,0-2.42-.78-3.2-1.96-3.2-4.85-6.4-9.69-9.67-14.49-1.52-2.23-.71-2.82,1.64-2.81,12.3.02,24.6,0,36.89-.05,1.68,0,2.76.62,3.7,1.98,3.69,5.3,7.47,10.53,12.3,17.32Z"/><path class="cls-1" d="M257,419c-1.51-4.06-3.69-7.76-6.09-11.35-2.41-5.25-2.41-5.3,3.36-5.36,10.81-.11,21.62-.1,32.42-.24,2.15-.03,3.75.28,4.89,2.44,2.95,5.55,6.13,10.98,9.74,17.39-3.23,0-5.77,0-8.31,0-9.98.03-19.96-.05-29.93.15-2.77.06-4.82-.47-6.09-3.03Z"/><path class="cls-1" d="M484.92,422.88c12.98,0,25.44.01,37.89-.01,1.54,0,2.89.09,3.93,1.52,4.27,5.88,8.61,11.7,13.6,18.46-9.17,0-17.48-.9-25.52.21-12.61,1.73-21.35-2.22-26.53-13.93-.83-1.88-2.78-3.21-3.36-6.25Z"/><path class="cls-2" d="M449.8,443.02c-14.49,0-27.65-.02-40.81.03-1.81,0-3.08-.36-4.1-2.06-2.91-4.85-5.95-9.63-9.08-14.34-1.78-2.68-.52-2.98,1.87-2.99,11.99-.07,23.99-.19,35.98-.31,1.52-.02,2.96-.05,3.96,1.46,3.82,5.77,7.69,11.51,12.18,18.22Z"/><path class="cls-11" d="M332.35,399.96c-13.77,0-26.53-.02-39.3.02-1.53,0-2.42-.6-3.15-1.91-3.13-5.64-6.34-11.24-10.04-17.76,8.42,0,15.96-.14,23.51.04,5.77.14,12.53-2.13,17.05.98,4.27,2.94,6.28,9.17,9.27,13.97.7,1.12,1.31,2.3,2.66,4.67Z"/><path class="cls-12" d="M512.83,400.18c12.61,0,25.22.03,37.84-.03,1.83,0,3.09.5,4.2,2,4.26,5.72,8.63,11.35,12.92,16.97-.79,1.62-2.12.95-3.13.96-11.64.06-23.27-.04-34.91.1-2.6.03-4.31-.69-5.82-2.84-3.7-5.27-7.62-10.4-11.46-15.58.12-.53.24-1.05.36-1.58Z"/><path class="cls-7" d="M304.57,423.81c14,0,27.13.01,40.25-.02,1.52,0,2.46.63,3.21,1.89,3.29,5.54,6.63,11.06,10.47,17.45-6.86,0-12.91,0-18.96,0-6.66,0-13.33-.12-19.98.06-2.79.07-4.57-.62-5.92-3.26-2.64-5.16-5.66-10.12-9.06-16.12Z"/><path class="cls-2" d="M563.79,359.08c-13.43,0-25.64-.02-37.85.03-1.83,0-2.62-1.23-3.52-2.39-3.75-4.87-7.5-9.75-11.17-14.68-.62-.83-2.14-1.65-1.17-2.88.44-.56,1.81-.52,2.76-.53,10.64-.15,21.28-.2,31.92-.43,1.73-.04,2.74.54,3.75,1.82,4.74,5.99,9.55,11.93,15.28,19.06Z"/><path class="cls-7" d="M389.97,421.26c-14.18,0-27.12-.02-40.06.03-1.67,0-2.76-.52-3.63-2-2.85-4.87-5.8-9.69-8.76-14.5-1.44-2.33-.42-2.79,1.81-2.78,11.97.02,23.94-.03,35.91-.07,1.37,0,2.66.06,3.49,1.38,3.5,5.6,7,11.19,11.23,17.95Z"/><path class="cls-1" d="M420.39,399.15c-13.79,0-26.4-.04-39.02.04-2.04.01-3.34-.57-4.43-2.39-3.15-5.26-6.49-10.39-10.33-16.48,3.58,0,6.45,0,9.32,0,9.3,0,18.6.09,27.9-.07,2.78-.05,4.65.7,6.15,3.1,3.14,5.02,6.5,9.91,10.4,15.8Z"/><path class="cls-12" d="M424.52,338.9c12.94,0,24.73.03,36.51-.03,1.69,0,2.71.63,3.68,1.98,4.16,5.8,8.43,11.52,13.29,18.11-5.65,0-10.51,0-15.37,0-.83,0-1.67.03-2.5-.01-7.12-.34-15.51,2.46-21.03-1.1-5.98-3.86-9.34-11.79-14.58-18.96Z"/><path class="cls-2" d="M595.58,398.78c-13.64,0-26.08-.02-38.52.02-1.64,0-2.84-.49-3.84-1.82-4.08-5.4-8.23-10.76-13.11-17.13,8.92,0,16.91.82,24.66-.19,11.76-1.54,20.13,2.21,25.75,12.6,1.08,2.01,2.81,3.66,5.06,6.52Z"/><path class="cls-11" d="M507.69,398.77c-13.5,0-25.64,0-37.77,0-1.33,0-2.73.14-3.63-1.12-3.9-5.47-7.76-10.96-12.39-17.5,13.59,0,25.83,0,38.07-.01,1.06,0,1.98.2,2.64,1.08,4.14,5.54,8.27,11.09,13.08,17.54Z"/><path class="cls-12" d="M340.44,339.04c13.48,0,25.87,0,38.27,0,1.1,0,1.89.43,2.49,1.34,3.72,5.65,7.46,11.29,11.91,18.02-3.58,0-6.11,0-8.64,0-9.31-.04-18.63-.18-27.94-.08-2.78.03-4.55-.67-6-3.23-2.92-5.13-6.26-10.02-10.08-16.04Z"/><path class="cls-1" d="M311.25,361.04c13.55,0,26.03.01,38.5-.02,1.45,0,2.52.33,3.33,1.66,2.7,4.4,5.44,8.77,8.25,13.11,1.17,1.8,1.02,2.68-1.34,2.69-12,.03-24,.08-36,.15-1.48,0-2.5-.51-3.27-1.81-2.94-4.98-5.95-9.92-9.48-15.78Z"/><path class="cls-2" d="M234.34,377.83c-1.01-4.57-3.65-8.32-6.15-12.14-2.1-5.14-2.1-5.18,3.39-5.15,10.46.05,20.92.2,31.38.17,2.57,0,4.26.55,5.49,3.1,2.02,4.17,4.56,8.09,6.82,12.14.69,1.23,1.99,2.92-.97,2.93-12.79.04-25.57.04-38.36-.02-.54,0-1.07-.67-1.61-1.03Z"/><path class="cls-7" d="M256.9,339.69c13.18,0,25.29,0,37.39-.01,1.31,0,2.15.55,2.82,1.66,3.19,5.39,6.43,10.76,10.1,16.89-13.27,0-25.69,0-38.12,0-1.08,0-1.88-.42-2.43-1.4-3.08-5.44-6.18-10.86-9.76-17.15Z"/><path class="cls-12" d="M450.54,378.32c-13.78,0-26.39,0-39,0-1.53,0-2.88-.07-3.87-1.61-3.18-4.97-6.48-9.87-10.25-15.57,13.75,0,26.61.02,39.47-.02,1.38,0,2.08.75,2.76,1.73,3.4,4.85,6.81,9.69,10.88,15.47Z"/><path class="cls-2" d="M536.61,378.31c-13.87,0-26.51-.02-39.15.02-1.65,0-2.81-.54-3.78-1.89-3.49-4.84-7.07-9.61-11.27-15.29,4.38,0,7.91-.02,11.44,0,8.65.05,17.31.11,25.96.18,1.81.01,3.64-.22,4.98,1.55,3.67,4.88,7.41,9.69,11.82,15.43Z"/><path class="cls-11" d="M288.11,322.92c13.39,0,25.8.02,38.21-.02,1.51,0,2.42.59,3.18,1.88,2.36,4,4.84,7.92,7.5,12.25-2.66,1.02-5.12.53-7.49.55-9.65.09-19.29-.01-28.94.18-2.69.05-4.28-.8-5.54-3.14-2.01-3.73-4.31-7.3-6.94-11.7Z"/><path class="cls-7" d="M253.75,338c-13.43,0-25.88-.02-38.33.03-1.59,0-2.38-.71-3.06-2-2.16-4.09-4.4-8.14-6.77-12.5,1.9-1.07,3.73-.62,5.43-.62,9.83-.03,19.66.28,29.48-.09,4.01-.15,6.03,1.25,7.56,4.67,1.48,3.3,3.44,6.39,5.7,10.52Z"/><path class="cls-1" d="M504.87,336.96c-13.81,0-26.22-.04-38.62.04-1.79.01-2.72-.94-3.63-2.14-2.8-3.68-5.57-7.38-9.02-11.95,3.76,0,6.79,0,9.81,0,9.14.01,18.28.15,27.41-.04,2.83-.06,4.49.78,5.99,3.16,2.11,3.35,4.68,6.4,8.06,10.94Z"/><path class="cls-7" d="M371.84,322.91c13.08,0,25.53.01,37.98-.02,1.48,0,2.43.52,3.26,1.78,2.54,3.87,5.22,7.65,8.49,12.39-5.34,0-9.88,0-14.42,0-3.83,0-7.66.03-11.49.05q-15.26.08-23.82-14.21Z"/></svg>