<svg width="178" height="178" viewBox="0 0 178 178" fill="none" xmlns="http://www.w3.org/2000/svg">
<rect x="0.269531" y="0.210938" width="177.599" height="177.599" fill="#F5E2A0"/>
<path d="M37.0781 104.36V43.0014C37.0781 40.4603 39.1381 38.4004 41.6791 38.4004H136C138.541 38.4004 140.601 40.4603 140.601 43.0014V104.36C140.601 105.58 140.116 106.75 139.253 107.613L92.0929 154.773C90.2961 156.57 87.3829 156.57 85.5861 154.773L38.4257 107.613C37.5629 106.75 37.0781 105.58 37.0781 104.36Z" stroke="#282828" stroke-width="8.74193"/>
<rect x="41.2188" y="15.3945" width="94.7809" height="12.4227" fill="#282828"/>
<rect x="32.0156" y="15.3945" width="6.44142" height="12.4227" fill="#282828"/>
<rect x="138.762" y="15.3945" width="6.44142" height="12.4227" fill="#282828"/>
<rect x="35.2383" y="108.334" width="6.44142" height="12.4227" rx="3.22071" fill="#282828"/>
<rect x="44.8984" y="119.377" width="6.44142" height="12.4227" rx="3.22071" fill="#282828"/>
<rect x="54.5625" y="128.58" width="6.44142" height="12.4227" rx="3.22071" fill="#282828"/>
<rect x="64.6836" y="138.242" width="6.44142" height="12.4227" rx="3.22071" fill="#282828"/>
<rect x="74.3438" y="147.902" width="6.44142" height="12.4227" rx="3.22071" fill="#282828"/>
<rect x="85.3867" y="153.885" width="6.44142" height="12.4227" rx="3.22071" fill="#282828"/>
<rect x="96.4297" y="147.902" width="6.44142" height="12.4227" rx="3.22071" fill="#282828"/>
<rect x="106.094" y="138.242" width="6.44142" height="12.4227" rx="3.22071" fill="#282828"/>
<rect x="115.293" y="128.58" width="6.44142" height="12.4227" rx="3.22071" fill="#282828"/>
<rect x="124.957" y="119.377" width="6.44142" height="12.4227" rx="3.22071" fill="#282828"/>
<rect x="136" y="108.334" width="6.44142" height="12.4227" rx="3.22071" fill="#282828"/>
<path fill-rule="evenodd" clip-rule="evenodd" d="M48.1211 48.5215V101.004L88.1499 141.033L128.179 101.004V48.5215H48.1211ZM87.6024 117.945C87.616 117.961 87.6297 117.978 87.6439 117.994C87.667 117.994 87.6902 117.994 87.7119 117.997C87.7261 117.981 87.7398 117.964 87.7534 117.948C87.7801 117.916 87.8066 117.885 87.8363 117.855C88.8587 116.832 89.8809 115.81 90.903 114.787C92.9363 112.753 94.9694 110.72 97.0031 108.687C97.036 108.653 97.0731 108.622 97.11 108.592C97.1266 108.578 97.1432 108.565 97.1593 108.551C94.1308 105.478 94.4838 101.073 96.8251 98.4459C99.6511 95.2764 104.526 95.0956 107.562 98.142C107.577 98.1246 107.592 98.1069 107.607 98.0893C107.638 98.0539 107.668 98.0185 107.701 97.9857C110.952 94.7323 114.204 91.4803 117.456 88.2284C117.487 88.197 117.521 88.1684 117.554 88.1402C117.569 88.1281 117.583 88.1161 117.597 88.1039V88.0344C117.581 88.0204 117.565 88.0068 117.548 87.9931C117.516 87.9658 117.483 87.9384 117.454 87.9085C114.397 84.8534 111.341 81.7968 108.287 78.7402C108.252 78.7055 108.222 78.6672 108.193 78.6289C108.18 78.6129 108.168 78.5968 108.155 78.581C105.106 81.5884 100.716 81.2787 98.0608 78.9284C94.9527 76.1757 94.6343 71.2971 97.7005 68.2231C96.5796 67.102 95.4586 65.9809 94.3381 64.8604C92.1086 62.6309 89.8815 60.4037 87.6627 58.1836L78.2268 67.6211C81.0788 70.5011 81.0123 74.8471 78.5668 77.6461C77.1907 79.2222 75.4254 80.0905 73.3374 80.1759C71.1958 80.2642 69.3379 79.5217 67.8272 78.0325L57.7836 88.0779L67.2296 97.5255C70.2828 94.5138 74.7005 94.8828 77.3181 97.2288C80.4957 100.077 80.6303 104.953 77.6089 107.956C77.628 107.973 77.6472 107.989 77.6663 108.006C77.7039 108.038 77.7413 108.071 77.7768 108.106C79.4019 109.732 81.0274 111.358 82.6529 112.984C84.2752 114.607 85.8975 116.229 87.5194 117.852C87.5491 117.882 87.5757 117.913 87.6024 117.945Z" fill="#282828"/>
</svg>
