<?xml version="1.0" encoding="UTF-8"?><svg id="Capa_1" xmlns="http://www.w3.org/2000/svg" width="295.63mm" height="295.63mm" viewBox="0 0 838 838"><defs><style>.cls-1{fill:#ecd994;}.cls-1,.cls-2,.cls-3,.cls-4,.cls-5,.cls-6,.cls-7,.cls-8,.cls-9,.cls-10,.cls-11,.cls-12,.cls-13,.cls-14,.cls-15{stroke-width:0px;}.cls-2{fill:#22211c;}.cls-3{fill:#524d3a;}.cls-4{fill:#23231f;}.cls-5{fill:#e1cf8d;}.cls-6{fill:#efdc96;}.cls-7{fill:#f1dd97;}.cls-8{fill:#343127;}.cls-9{fill:#f0dc96;}.cls-10{fill:#c8b87e;}.cls-11{fill:#524d3b;}.cls-12{fill:#edd994;}.cls-13{fill:#2d2b23;}.cls-14{fill:#292721;}.cls-15{fill:#56503d;}</style></defs><path class="cls-4" d="M107.23,598.2c.48-22.17-1.3-44.27-2.02-66.41-.52-16.15.02-32.34-.59-48.48-1.62-42.81.11-85.64-1.06-128.44-.35-12.84.95-25.64.11-38.45-.24-3.62,1.24-5.47,4.64-6.52,10.23-3.17,20.84-4.3,31.3-6.23,12.6-2.32,25.22-4.47,37.86-6.57,11.95-1.99,23.88.54,35.83.42,7.49-.07,14.99.41,22.48.66,1.69.06,3.3.44,3.4-2.24.09-2.4-1.49-2.1-2.89-2.37-2.93-.56-6.03-.74-8.76-1.82-4.24-1.69-4.49-5.13-.94-8.06,13.45-11.12,33.97-10.57,46.75,1.26,4.01,3.71,3.41,7.01-1.58,9.07-2.56,1.05-5.22.94-7.88.91-1.52-.02-2.53.18-2.27,2.19.22,1.74.52,2.48,2.65,2.44,26.18-.52,52.18,2.64,78.26,4.13,23.6,1.35,47.21,2.6,70.79,4.29,22.57,1.62,45.07,4.28,67.69,5.4,19.29.95,38.59,1.74,57.87,2.92,14.3.88,28.62,1.08,42.93,1.38,1,.02,2,.08,3,.1,1.76.04,2.86-.65,2.93-2.56.07-1.92-1.27-2.02-2.65-2.19-2.14-.28-4.3-.52-6.41-.99-3.42-.76-6.56-2.12-6.79-6.21-.23-4.05,1.07-7.49,4.91-9.64,3.14-1.75,6.52-2.58,10.01-2.82,13.24-.9,25.9.82,37.15,8.65,2.69,1.87,4.56,4.16,3.77,7.47-.75,3.12-3.63,3.55-6.36,3.82-1.82.18-3.65.31-5.47.57-1.55.22-4.06-.86-3.56,2.44.34,2.31.3,4.17,3.94,3.95,14.87-.86,29.54,1.98,44.31,3.01,20.09,1.4,40.15,3.35,60.31,3.71,11.14.2,22.27,1.25,33.4,2.01,3.35.23,5.02,2.12,4.91,5.62-.27,8.49-.08,17.01-.73,25.47-.66,8.53.24,16.98.38,25.47.02.98-.05,2.01,1.16,2.48,5.97,2.29,5.98,7.87,5.91,12.6-.25,18.82-1.04,37.63-1.67,56.44-.14,4.08-1.44,7.62-5.56,9.24-1.79.7-2,1.81-2.03,3.44-.49,22.31-1.04,44.62-1.54,66.94-.03,1.23-.52,2.67,1.26,3.37,5.22,2.03,5.6,6.78,5.67,11.25.16,10.82-.07,21.65-.13,32.48-.04,7.33-.06,14.66-.1,22-.03,5.39-.79,10.44-6.7,12.68-1.97.75-1.51,2.35-1.6,3.76-.88,14.29-2.69,28.52-2.61,42.88.03,5.15-.52,10.3-.54,15.46-.02,3.19-2.04,4.83-4.23,6.32-16.93,11.48-33.76,23.13-51.56,33.28-4.03,2.3-8.19,2.65-12.49,2.24-18.74-1.77-37.17-5.81-55.8-8.14-27.92-3.5-55.51-8.94-83.42-12.48-21.77-2.76-43.43-6.55-65.24-9.27-43.1-5.36-85.69-14.07-128.7-20.03-18.13-2.51-36.45-3.68-54.6-6.09-25.89-3.44-51.53-8.55-77.46-11.83-31.18-3.93-61.97-10.75-93.43-12.59-4.12-.24-8.19-1.43-12.29-2.09-2.76-.44-3.97-1.9-3.96-4.74.07-12.32.03-24.64.03-36.97ZM254.83,295.11c-3.47-.39-6.94-.78-10.4-1.16-1.43-.16-2.37-.02-2.76,1.86-2.4,11.44-.07,14.34,11.71,14.21.5,0,1-.07,1.49-.1,2.94.3,4.19-1.05,4.07-3.97-.1-2.44-.19-4.9.02-7.32.29-3.3-1.41-3.94-4.14-3.52ZM605.06,314.97c-1.54-.98-3.37-.79-4.79-.27-3.09,1.13-7.22-2.92-9.12,1.02-1.4,2.92-.8,6.79-1.19,10.23-.23,1.97.6,3.17,2.35,3.8,3.91,1.41,7.85,2.28,11.85.3,3.9.56,5.36-1.13,4.91-4.98-.24-2.1-.45-4.39.11-6.37,1.24-4.45-.55-4.92-4.13-3.73ZM269.01,286c-12.53-8.99-25.3-8.68-38.24-.93-1.1.66-2.79,1.08-2.77,2.6.04,2.07,2.35,1.31,3.42,2.2,9.92,2.1,20.07.68,30.05,1.99,2.4.32,4.91.4,7.32-.7,3.67-1.67,3.83-3.28.22-5.16ZM622.71,305.95c-.5-.64-.87-1.49-1.52-1.88-9.25-5.57-19.48-7.59-30.07-7.59-3.91,0-7.84,1.24-11.52,2.99-2.74,1.3-3.27,3.81-3.36,6.2-.08,2.37,2.53,2.31,4.13,2.85,7.4,2.49,14.97,2.64,22.6,1.24,0,1.14.39,2.12,1.68,1.78,5.66-1.48,11.58.53,17.2-1.34,2.82-.94,4.56-2.03.85-4.25ZM261.96,309.92c-5.42,6.04-11.84,3.5-18.09,2.06-3.48-.8-5.69-2.77-4.97-6.74.67-3.68-1.44-4-4.35-4.03-7.16-.08-14.32-.44-21.47-.65-9.12-.27-18.35-1.47-27.34-.52-13.2,1.4-26.25,4.29-39.35,6.64-7.86,1.41-15.69,3-23.53,4.51,13.42,1.05,26.56,3.74,39.91,3.53,12.51-.2,24.96.85,37.4,1.92,16.08,1.39,32.15,2.99,48.23,4.38,16.93,1.47,33.94.13,50.91,1.43,19.59,1.51,39.23,2.4,58.87,3.11,21.97.8,44.02.18,65.91,1.85,24.74,1.89,49.49,3.26,74.26,4.36,28.96,1.29,57.77,4.46,86.72,5.86,15.09.73,30.04,3.9,45.12,5.18,20.59,1.76,41.26.22,61.9.35,3.61.02,7.1,1.07,10.87.07,12.37-3.29,24.86-6.15,37.3-9.17,1.47-.36,3.09-.4,4.58-2.12-8.83-.58-17.13-1.36-25.44-1.62-8.49-.26-16.96-.59-25.43-1.27-15.9-1.28-31.86-1.66-47.68-3.9-7.74-.18-15.4-1.42-23.18-1.26-8.56.17-8.56-.04-11.23,7.49-6.1,4.3-12.79,4.43-19.47,2.11-3.63-1.26-6.25-3.98-5.3-8.46.76-3.59-1.1-4.06-4.12-4.01-7.99.12-16.01.32-23.98-.14-36.56-2.13-73.21-2.41-109.72-5.65-27.51-2.44-55.01-5.14-82.64-6.04-27.57-.9-54.97-4.96-82.62-4.24-.8-1.94-2.5-1.88-4.18-1.89-3.64-.02-7.29-.08-10.93-.07-7.82.02-6.77-.67-6.92,6.93ZM110.38,594.44h.75c0,12.33.08,24.65-.05,36.97-.04,3.73,1.32,5.18,5.11,5.51,12.1,1.07,24.16,2.5,36.27,3.57,25.53,2.25,50.41,8.93,75.97,11.41,17.35,1.68,34.51,5.39,51.77,8.06,37.99,5.87,76.39,8.41,114.35,14.83,32.13,5.44,64.13,11.99,96.69,14.76,19.25,1.64,38.15,5.84,57.26,8.6,27.17,3.93,54.38,7.6,81.48,11.98,16.76,2.7,33.52,5.29,50.34,7.55,6.24.84,6.68.32,6.67-6.17-.02-24.98-1-49.94-.23-74.94,1.34-43.11,2.13-86.24,2.82-129.37.51-31.64.56-63.27,3.38-94.84,1.81-20.22,2.64-40.53,4.09-60.78.26-3.56-.74-4.62-4.28-4.45-9.64.48-19.3.74-28.96.9-14.82.25-29.69.82-44.4-1.28-36.64-5.23-73.64-6.1-110.44-9.27-20.22-1.74-40.54-2.29-60.83-3.28-16.62-.81-33.18-2.52-49.87-2.45-17.65.08-35.32-.35-52.94-1.26-21.11-1.1-42.18-3.01-63.33-3.47-14.65-.32-29.3-.47-43.91-1.92-16.07-1.6-32.16-2.95-48.26-4.23-23.72-1.88-47.56-1.94-71.23-4.63-2.96-.34-5.96-.3-8.96.21-2.05.35-2.66,1.14-2.58,3.27.51,14.31-.03,28.62.43,42.95,1.62,51.27-.86,102.6,2.2,153.87.76,12.77,1.18,25.59.77,38.42-.42,13.14-.09,26.3-.09,39.46ZM691,677.39c0,11.83.07,23.66-.04,35.49-.03,3.46.59,4.84,4.06,2.53,16.05-10.68,32.13-21.3,48.24-31.89,1.63-1.07,2.95-2.1,2.79-4.29-.31-4.17.86-8.3.81-12.39-.26-19.97,2.46-39.78,2.94-59.68.64-26.43.39-52.87,2.11-79.29.92-14.1.5-28.26.82-42.39.74-32.42.57-64.87,2.25-97.28.32-6.15-1.04-12.33-.74-18.39.53-10.76.11-21.59,1.65-32.3.42-2.91-.51-4.27-3.59-2.68-3.56,1.84-7.29,3.38-11.23,4.03-12.61,2.09-24.95,5.32-37.4,8.12-2.47.55-3.64,1.65-3.7,4.37-.2,9.13-.35,18.29-1.08,27.39-.62,7.8-.21,15.67-1.12,23.38-2.12,17.99-2.8,36.07-3.54,54.1-1.25,30.43.63,60.92-1.11,91.38-.98,17.26.05,34.58-.85,51.9-.92,17.75-.38,35.59-1.2,53.38-.37,8.15-.06,16.33-.06,24.49ZM761.57,424.59c.24,0,.48,0,.73,0,0-3.81.06-7.61-.04-11.42-.03-1.11,1.16-2.99-.98-3.16-1.44-.11-1.46,1.51-1.5,2.67-.31,8.58-.62,17.15-.9,25.73-.03.94-.13,2.23,1.22,2.27,1.32.04,1.42-1.28,1.44-2.2.07-4.63.03-9.27.03-13.9ZM756.25,580.99c-.11,0-.23,0-.34,0,0,2.98-.09,5.97.04,8.95.06,1.29-.98,3.46,1.16,3.64,1.95.16,1.92-1.92,1.94-3.38.09-6.8.15-13.59.15-20.39,0-1,.5-2.7-1.36-2.51-1.37.14-1.55,1.58-1.57,2.76-.04,3.65-.01,7.29-.01,10.94ZM754.76,543.34c2.37,5.77,1.03,11.42,1.4,17,.08,1.18-.49,3.11,1.52,3,1.85-.1,1.43-1.94,1.39-3.19-.13-3.63-.13-7.3-.63-10.89-.29-2.1-.15-4.8-3.69-5.92ZM762.89,401.28c.1-.02.2-.03.31-.05-.51-2.74-.97-5.49-1.56-8.21-.21-.97-.87-2.09-1.91-1.99-1.51.14-1.41,1.72-1.37,2.72.13,3.1,1.87,5.91,1.66,9.16-.08,1.35-1.18,3.95,1.32,3.91,2.21-.03,1.27-2.57,1.53-4.07.08-.48.01-.98.01-1.48ZM753.87,614c3.38-.53,4.34-2.25,4.54-4.33.31-3.3.4-6.62.47-9.93.02-1.04.38-2.62-1.47-2.5-1.55.09-1.62,1.42-1.62,2.61,0,4.6.3,9.23-1.91,14.15ZM760.2,444.34c-2.26,4.45-.25,9.68-3.07,13.97-.62.94-1.12,2.96.39,3.44,1.85.59,2.34-1.3,2.71-2.75,1.24-4.84.9-9.72-.03-14.66Z"/><path class="cls-7" d="M110.38,594.44c0-13.15-.33-26.32.09-39.46.41-12.84,0-25.66-.77-38.42-3.06-51.27-.58-102.6-2.2-153.87-.45-14.33.08-28.64-.43-42.95-.08-2.13.54-2.92,2.58-3.27,3-.52,6-.55,8.96-.21,23.67,2.69,47.51,2.75,71.23,4.63,16.1,1.27,32.19,2.63,48.26,4.23,14.61,1.45,29.25,1.6,43.91,1.92,21.15.46,42.22,2.37,63.33,3.47,17.62.92,35.3,1.34,52.94,1.26,16.69-.07,33.25,1.64,49.87,2.45,20.28.99,40.61,1.53,60.83,3.28,36.81,3.17,73.8,4.04,110.44,9.27,14.71,2.1,29.58,1.53,44.4,1.28,9.66-.16,19.31-.42,28.96-.9,3.54-.17,4.54.88,4.28,4.45-1.45,20.25-2.28,40.56-4.09,60.78-2.82,31.57-2.87,63.2-3.38,94.84-.69,43.13-1.48,86.26-2.82,129.37-.78,25,.21,49.96.23,74.94,0,6.49-.43,7.01-6.67,6.17-16.82-2.26-33.59-4.85-50.34-7.55-27.1-4.37-54.31-8.04-81.48-11.98-19.1-2.76-38.01-6.96-57.26-8.6-32.57-2.78-64.57-9.33-96.69-14.76-37.96-6.42-76.36-8.96-114.35-14.83-17.26-2.67-34.42-6.37-51.77-8.06-25.56-2.48-50.44-9.16-75.97-11.41-12.11-1.07-24.17-2.5-36.27-3.57-3.79-.33-5.15-1.78-5.11-5.51.13-12.32.05-24.65.05-36.97h-.75ZM247.02,640.91c.8,1.07,2.03,1,3.15,1.22,8.44,1.65,16.98,1.03,25.4.43,10.06-.73,20.33-.81,29.88-4.97,21.32-9.29,37.47-24.56,49.61-44.02,7.84-12.57,14.41-25.67,15.23-41.16.78-14.86.82-29.65-1.5-44.3-2.07-13.08-4.73-26.12-10.88-38.1-.38-.98-.76-1.96-1.14-2.94.21-.92-.11-1.6-.95-2.04-8.39-18.78-18.91-36.29-32.14-52.04-28.16-33.52-64.5-47.07-107.33-40.53-30.12,4.6-53.71,21.56-67.93,48.43-25.41,47.98-27.06,97.31-1.45,145.83,21.3,40.36,54.33,66.15,100.05,74.18ZM490.03,672.81c1.85,1.81,4.33,2.35,6.62,3.27,13.26,5.33,27.09,7.71,41.34,8.33,20.33.89,39.8-1.46,57.39-12.83,20.86-13.48,36.91-31.24,48.81-52.98,10.68-19.51,15.66-40.19,13.49-62.38-.97-9.9-2.59-19.72-5.81-29.19-1.44-10.26-4.75-20.02-7.88-29.85-11.98-37.49-34.95-66.04-69.15-85.53-24.68-14.06-51.09-20.73-79.48-17.38-18.62,2.2-36.83,6.53-52.25,17.97-24.36,18.06-42.16,40.91-49.79,70.82-3.7,14.53-7.5,29.11-6.48,44.26,1.31,19.53,5.49,38.41,13.16,56.57,17.79,42.12,47.66,71.79,90.03,88.92ZM393.17,408.93c-.37-3.05.58-4.71,2.56-5.68,2.49-1.22,5.06-1.84,7.48.18,2.55,2.13,5.17,2.42,7.54-.07,3.67-3.85,7.21-7.84,10.75-11.82,2.04-2.3,1.45-4.74-.39-6.69-4.45-4.72-9.08-9.27-13.66-13.88-1.1-1.11-2.37-2.14-3.9-.85-2.71,2.29-5.74,2.47-8.16.24-2.44-2.25-2.99-5.53-1.74-8.8,1.33-3.47-.38-6.18-2.32-8.62-3.52-4.42-7.42-8.54-11-12.92-2.43-2.98-5.12-3.04-7.77-.8-4.06,3.44-7.85,7.18-11.79,10.77-1.78,1.63-2.03,3.14-.33,5.12,3.73,4.36,1.03,8.29-1.6,11.63-2.5,3.18-6.29,3.92-9.81,1.5-3.21-2.22-5.64-1.24-7.94,1.1-3.15,3.2-6.08,6.64-9.32,9.74-2.22,2.13-1.99,4.01-.19,6.04,2.88,3.23,5.99,6.27,8.72,9.62,2.71,3.33,5.19,4.98,9.68,2.51,4.15-2.29,8.17-.6,11,3.09,2.66,3.46,3.3,7.42.7,11.1-1.83,2.6-1.5,4.42.5,6.54,1.83,1.93,3.39,4.11,5.16,6.1,9.41,10.67,10.37,10.75,21.09,1.15,4.35-3.89,9.06-7.77,5.06-14.64-.39-.68-.34-1.62-.34-1.66ZM684.86,367.02c.07-5.22-4.51-9.85-9.77-9.87-5.42-.02-9.29,3.62-9.36,8.8-.07,5.3,4.74,9.73,10.88,10.03,3.98.19,8.18-4.37,8.25-8.96ZM126.21,331.79c0-4.26-3.58-7.95-7.23-7.85-3.59.1-6.07,3.29-6,7.72.07,4.48,3.12,7.53,7.67,7.29,4.77-.25,4.63-4.37,5.56-7.17Z"/><path class="cls-11" d="M691,677.39c0-8.17-.31-16.35.06-24.49.81-17.79.28-35.63,1.2-53.38.9-17.32-.14-34.64.85-51.9,1.74-30.46-.15-60.95,1.11-91.38.74-18.03,1.42-36.11,3.54-54.1.91-7.71.5-15.58,1.12-23.38.72-9.1.88-18.25,1.08-27.39.06-2.72,1.23-3.82,3.7-4.37,12.45-2.79,24.79-6.03,37.4-8.12,3.94-.65,7.67-2.19,11.23-4.03,3.08-1.59,4.01-.23,3.59,2.68-1.54,10.71-1.11,21.54-1.65,32.3-.3,6.06,1.06,12.23.74,18.39-1.68,32.41-1.51,64.85-2.25,97.28-.32,14.13.1,28.3-.82,42.39-1.72,26.41-1.48,52.86-2.11,79.29-.48,19.9-3.19,39.71-2.94,59.68.05,4.09-1.12,8.22-.81,12.39.16,2.19-1.16,3.22-2.79,4.29-16.1,10.59-32.19,21.21-48.24,31.89-3.48,2.31-4.09.94-4.06-2.53.11-11.83.04-23.66.04-35.49ZM717.05,412.21c-.08,7.12.84,7.63,6.74,5.49,3.09-1.12,6.32-2.13,9.57-2.53,4.35-.54,5.64-3.3,5.51-6.89-.28-7.41,1.36-14.96-1.62-22.2-.77-1.88-.28-3.89.63-5.79,2.21-4.61,1.28-9.12-1-13.37-1.66-3.08-4.51-4.6-7.96-3.66-4.38,1.2-9.97,8.99-8.7,13.35,1.64,5.63,1.58,10.52-1.65,15.4-.42.64-.49,1.59-.52,2.4-.22,6.29.39,12.63-.98,17.8Z"/><path class="cls-12" d="M646.26,325.16c15.82,2.24,31.78,2.63,47.68,3.9,8.47.68,16.94,1.01,25.43,1.27,8.31.25,16.6,1.03,25.44,1.62-1.48,1.73-3.11,1.77-4.58,2.12-12.44,3.03-24.93,5.88-37.3,9.17-3.77,1-7.27-.05-10.87-.07-20.64-.13-41.31,1.41-61.9-.35-15.08-1.29-30.03-4.45-45.12-5.18-28.95-1.4-57.76-4.57-86.72-5.86-24.76-1.1-49.52-2.47-74.26-4.36-21.89-1.67-43.94-1.05-65.91-1.85-19.64-.71-39.28-1.6-58.87-3.11-16.97-1.31-33.98.04-50.91-1.43-16.08-1.4-32.15-2.99-48.23-4.38-12.44-1.08-24.89-2.12-37.4-1.92-13.35.21-26.49-2.48-39.91-3.53,7.84-1.51,15.67-3.1,23.53-4.51,13.1-2.35,26.15-5.25,39.35-6.64,9-.95,18.22.25,27.34.52,7.16.21,14.31.57,21.47.65,2.91.03,5.01.35,4.35,4.03-.72,3.97,1.49,5.94,4.97,6.74,6.25,1.43,12.67,3.97,18.09-2.06,7.15-2.51,14.48-4.27,22.04-4.97,27.65-.72,55.06,3.34,82.62,4.24,27.63.9,55.13,3.6,82.64,6.04,36.52,3.24,73.16,3.52,109.72,5.65,7.97.46,15.99.26,23.98.14,3.02-.05,4.88.43,4.12,4.01-.95,4.49,1.67,7.21,5.3,8.46,6.69,2.31,13.38,2.19,19.47-2.11,5.79-.17,11.58-.21,17.35-.56,4.63-.28,9.27.28,13.9-.6,3.23-.61,4.44-1.92,3.16-5.07Z"/><path class="cls-1" d="M602.98,309.75c-7.63,1.4-15.2,1.25-22.6-1.24-1.6-.54-4.21-.49-4.13-2.85.08-2.39.61-4.89,3.36-6.2,3.67-1.74,7.61-2.99,11.52-2.99,10.59,0,20.83,2.02,30.07,7.59.65.39,1.02,1.24,1.52,1.88-1.19.77-2.14,1.98-3.71,2.06-4.72-.52-9.33.27-13.93,1.1-.81-.18-1.63-.36-2.08.64ZM595.68,309.49c.09-.56.17-1.12.26-1.69-5.64-1.36-11.27-2.73-16.91-4.09,5.12,3.61,10.5,6.13,16.65,5.78Z"/><path class="cls-15" d="M646.26,325.16c1.28,3.15.07,4.46-3.16,5.07-4.63.88-9.27.32-13.9.6-5.77.35-11.57.39-17.35.56,2.67-7.53,2.67-7.31,11.23-7.49,7.78-.16,15.44,1.08,23.18,1.26Z"/><path class="cls-1" d="M231.43,289.86c-1.07-.89-3.38-.13-3.42-2.2-.03-1.51,1.67-1.94,2.77-2.6,12.93-7.75,25.7-8.06,38.24.93-.06,1.42-1.39,1.12-2.16,1.59-11.59-.13-23.19-.25-34.78-.38-1.76.51-1.02,1.63-.64,2.66Z"/><path class="cls-12" d="M604.17,330.06c-4,1.98-7.94,1.11-11.85-.3-1.75-.63-2.58-1.84-2.35-3.8.39-3.44-.21-7.3,1.19-10.23,1.89-3.95,6.03.1,9.12-1.02,1.42-.52,3.25-.71,4.79.27-1.11,4.98-1.33,10.02-.89,15.09Z"/><path class="cls-1" d="M254.87,309.92c-.5.03-1,.1-1.49.1-11.78.13-14.11-2.77-11.71-14.21.39-1.88,1.33-2.02,2.76-1.86,3.47.38,6.94.77,10.4,1.16.11,4.94.69,9.87.04,14.81Z"/><path class="cls-15" d="M266.85,287.58c.76-.47,2.09-.17,2.16-1.59,3.62,1.87,3.46,3.49-.22,5.16-2.41,1.09-4.92,1.01-7.32.7-9.98-1.31-20.13.11-30.05-1.99-.37-1.03-1.12-2.15.64-2.66.27,1.95,1.81,1.65,3.07,1.66,9.64.08,19.28.11,28.93.16,1.17,0,2.4.09,2.78-1.44Z"/><path class="cls-15" d="M283.99,304.95c-7.56.7-14.88,2.46-22.04,4.97.15-7.6-.9-6.91,6.92-6.93,3.64,0,7.29.05,10.93.07,1.68,0,3.38-.05,4.18,1.89Z"/><path class="cls-10" d="M761.57,424.59c0,4.63.04,9.27-.03,13.9-.01.92-.12,2.24-1.44,2.2-1.36-.04-1.25-1.33-1.22-2.27.27-8.58.58-17.15.9-25.73.04-1.16.07-2.78,1.5-2.67,2.14.16.96,2.04.98,3.16.09,3.8.04,7.61.04,11.42-.24,0-.48,0-.73,0Z"/><path class="cls-10" d="M756.25,580.99c0-3.65-.03-7.29.01-10.94.01-1.18.2-2.62,1.57-2.76,1.87-.19,1.36,1.52,1.36,2.51,0,6.8-.06,13.59-.15,20.39-.02,1.46,0,3.54-1.94,3.38-2.14-.18-1.11-2.35-1.16-3.64-.13-2.98-.04-5.96-.04-8.95.11,0,.23,0,.34,0Z"/><path class="cls-15" d="M604.17,330.06c-.44-5.07-.21-10.11.89-15.09,3.57-1.19,5.37-.72,4.13,3.73-.55,1.99-.35,4.27-.11,6.37.45,3.86-1.01,5.55-4.91,4.98Z"/><path class="cls-15" d="M254.87,309.92c.64-4.94.06-9.87-.04-14.81,2.73-.42,4.42.21,4.14,3.52-.21,2.42-.13,4.88-.02,7.32.13,2.92-1.13,4.27-4.07,3.97Z"/><path class="cls-10" d="M754.76,543.34c3.53,1.12,3.39,3.82,3.69,5.92.5,3.59.5,7.25.63,10.89.04,1.25.46,3.08-1.39,3.19-2.01.11-1.44-1.82-1.52-3-.37-5.58.96-11.23-1.4-17Z"/><path class="cls-10" d="M762.89,401.28c0,.49.07,1-.01,1.48-.26,1.49.67,4.03-1.53,4.07-2.5.04-1.41-2.57-1.32-3.91.2-3.24-1.54-6.05-1.66-9.16-.04-1.01-.14-2.59,1.37-2.72,1.04-.09,1.7,1.02,1.91,1.99.59,2.72,1.05,5.47,1.56,8.21-.1.02-.2.03-.31.05Z"/><path class="cls-10" d="M753.87,614c2.21-4.93,1.9-9.55,1.91-14.15,0-1.19.07-2.52,1.62-2.61,1.85-.11,1.49,1.47,1.47,2.5-.07,3.31-.16,6.64-.47,9.93-.19,2.08-1.15,3.8-4.54,4.33Z"/><path class="cls-10" d="M760.2,444.34c.93,4.94,1.27,9.82.03,14.66-.37,1.45-.86,3.33-2.71,2.75-1.52-.48-1.02-2.5-.39-3.44,2.83-4.29.81-9.53,3.07-13.97Z"/><path class="cls-11" d="M619,308.01c1.58-.08,2.52-1.29,3.71-2.06,3.72,2.21,1.98,3.31-.85,4.25-5.62,1.87-11.54-.15-17.2,1.34-1.29.34-1.69-.65-1.68-1.78.46-.99,1.27-.82,2.08-.64,4.76,1.09,9.54,2.5,13.93-1.1Z"/><path class="cls-2" d="M490.03,672.81c-42.37-17.13-72.24-46.81-90.03-88.92-7.67-18.16-11.85-37.04-13.16-56.57-1.02-15.15,2.78-29.73,6.48-44.26,7.63-29.91,25.43-52.76,49.79-70.82,15.43-11.44,33.63-15.77,52.25-17.97,28.39-3.36,54.8,3.32,79.48,17.38,34.2,19.48,57.17,48.04,69.15,85.53,3.14,9.82,6.44,19.58,7.88,29.85-.82,7.98-.68,16.14-.31,23.96.53,11.18-.72,21.75-3.63,32.32-4.95,17.97-10.79,35.35-23.3,50.04-15.94,18.7-35.28,32.44-58.15,40.43-20.89,7.3-42.62,7.06-64.24,1.9-4.06-.97-7.76-3.58-12.21-2.86ZM647.07,552.01c.59-5.12,1.43-10.24.98-15.42-2.09-24.07-9.45-46.53-20.88-67.71-7.34-13.6-16.81-25.92-28.34-35.89-17.11-14.81-36.84-25.45-59.04-31.33-40.76-10.8-77.54-5.17-108.53,25.26-27.04,26.55-40.43,59.41-40.68,96.82-.13,20.6,5.14,40.82,13.33,60.09,14.04,33.01,35.69,59.08,67.94,75.55,12.9,6.59,26.05,12.83,41.08,12.84.26,1.48,1.36,1.59,2.59,1.76,15.62,2.17,31.06.57,46.39-2.46,9.13-1.8,16.62-7.36,24.52-11.8,12.95-7.3,24.4-16.48,33.9-28.11,15.25-18.67,22.5-40.71,27.46-63.73,1.12-5.22,2.29-10.7-.71-15.85Z"/><path class="cls-2" d="M356.76,467.08c.38.98.76,1.96,1.14,2.94-1.44,2.18.19,4.1.67,6.02,4.76,19.18,7.77,38.43,6.66,58.41-1.22,21.93-8.07,41.52-20.69,59.25-11.02,15.49-24.29,28.59-41.46,37.16-12.33,6.15-25.49,9.22-39.36,9.29-5.56.03-11.22-1.09-16.71.76-45.73-8.03-78.75-33.82-100.05-74.18-25.61-48.53-23.95-97.85,1.45-145.83,14.22-26.86,37.81-43.83,67.93-48.43,42.83-6.54,79.17,7.01,107.33,40.53,13.23,15.75,23.75,33.26,32.14,52.04-1.25,1.41-.32,1.8.95,2.04ZM359.11,509.96c-.03-1.32-.06-2.64-.09-3.97,1.41-1.13,1.17-2.17-.17-3.15-.8-5.93-.95-11.92-2.35-17.79-6.46-26.99-20.01-50.2-37.66-71.28-10.87-12.98-23.9-23.46-39.31-30.09-18.07-7.77-37.15-11.18-57.08-8.9-25.87,2.96-47,14.59-62.71,35.02-25.75,33.5-31.83,72.21-25.09,112.69,5.03,30.16,19.29,56.66,41.44,78.16,13.12,12.74,26.7,25.26,45.8,28.69.34,2.01,2.23,1.95,3.5,2.25,16.55,3.94,33.25,6.17,50.23,3.26,9.31-1.59,18.31-3.99,26.88-8.36,11-5.6,20.09-13.05,28.21-22.37,10.4-11.93,18.67-24.9,24.28-39.65,6.42-16.85,6.39-34.42,5.94-52.04-.03-1.28-.33-2.31-1.84-2.47Z"/><path class="cls-15" d="M490.03,672.81c4.45-.72,8.15,1.89,12.21,2.86,21.62,5.16,43.35,5.4,64.24-1.9,22.87-7.99,42.21-21.73,58.15-40.43,12.51-14.69,18.35-32.07,23.3-50.04,2.91-10.56,4.17-21.13,3.63-32.32-.37-7.82-.51-15.98.31-23.96,3.21,9.48,4.84,19.3,5.81,29.19,2.16,22.19-2.81,42.87-13.49,62.38-11.9,21.74-27.96,39.51-48.81,52.98-17.59,11.37-37.05,13.73-57.39,12.83-14.25-.63-28.08-3-41.34-8.33-2.29-.92-4.77-1.46-6.62-3.27Z"/><path class="cls-15" d="M247.02,640.91c5.49-1.85,11.15-.73,16.71-.76,13.88-.07,27.03-3.14,39.36-9.29,17.17-8.57,30.44-21.67,41.46-37.16,12.62-17.74,19.47-37.32,20.69-59.25,1.11-19.98-1.9-39.22-6.66-58.41-.48-1.92-2.1-3.85-.67-6.02,6.15,11.98,8.81,25.02,10.88,38.1,2.32,14.65,2.28,29.43,1.5,44.3-.82,15.49-7.39,28.59-15.23,41.16-12.14,19.46-28.29,34.73-49.61,44.02-9.54,4.16-19.81,4.24-29.88,4.97-8.42.61-16.96,1.22-25.4-.43-1.13-.22-2.36-.16-3.15-1.22Z"/><path class="cls-13" d="M393.17,408.93s-.05.98.34,1.66c4,6.87-.72,10.75-5.06,14.64-10.72,9.59-11.68,9.51-21.09-1.15-1.76-2-3.33-4.17-5.16-6.1-2-2.12-2.34-3.93-.5-6.54,2.59-3.68,1.95-7.64-.7-11.1-2.83-3.69-6.86-5.38-11-3.09-4.48,2.48-6.97.83-9.68-2.51-2.73-3.35-5.83-6.4-8.72-9.62-1.81-2.02-2.03-3.91.19-6.04,3.24-3.11,6.17-6.54,9.32-9.74,2.31-2.34,4.73-3.32,7.94-1.1,3.52,2.43,7.3,1.68,9.81-1.5,2.63-3.34,5.33-7.27,1.6-11.63-1.7-1.98-1.45-3.49.33-5.12,3.93-3.59,7.73-7.34,11.79-10.77,2.64-2.24,5.33-2.18,7.77.8,3.57,4.38,7.47,8.5,11,12.92,1.94,2.43,3.65,5.15,2.32,8.62-1.25,3.26-.7,6.55,1.74,8.8,2.42,2.23,5.44,2.05,8.16-.24,1.52-1.29,2.8-.25,3.9.85,4.57,4.61,9.21,9.15,13.66,13.88,1.84,1.95,2.43,4.39.39,6.69-3.53,3.98-7.07,7.97-10.75,11.82-2.37,2.49-4.99,2.2-7.54.07-2.42-2.02-4.99-1.4-7.48-.18-1.99.97-2.93,2.64-2.56,5.68ZM352.97,392.61c9.24-.08,16.54,9.72,12.98,18.47-1.59,3.91-.37,5.65,1.84,8.21,8.61,9.93,8.48,9.93,17.43.68,2.16-2.24,3.15-3.98,1.71-7.27-2.14-4.89-.68-9.51,3.26-13.13,4.35-4,8.43-4.44,13.7-1.85,1.07.52,2.17,2.16,3.5.74,3.65-3.87,8.29-7.37,10.3-11.99,1.09-2.5-4.75-4.77-6.98-7.62-.72-.91-1.61-1.69-2.36-2.58-1.61-1.91-3.15-2.59-5.98-1.85-8.71,2.27-17.91-5.91-15.23-14.23,1.78-5.52-.87-7.76-3.63-10.82q-7.84-8.7-15.91-.29c-2.04,2.12-3.05,3.75-1.83,7.21,3.11,8.83-7.04,20.09-15.48,16.81-5.58-2.17-7.96-.53-10.67,3.48-1.11,1.63-2.62,3.02-4.07,4.39-1.4,1.31-1.5,2.56-.03,3.73,4.99,4.02,8.16,12,16.94,7.93.14-.06.33,0,.5-.02Z"/><path class="cls-8" d="M684.86,367.02c-.06,4.59-4.27,9.16-8.25,8.96-6.14-.3-10.94-4.73-10.88-10.03.06-5.18,3.93-8.82,9.36-8.8,5.26.02,9.84,4.64,9.77,9.87ZM674.69,360.07s-.51-.02-.99.1c-2.71.69-5.05,1.93-5.46,5.01-.4,3.02,1.27,5.12,3.78,6.41,3.46,1.77,4.03-1.6,5.46-3.37.31-.39.59-.8.92-1.17,1.08-1.21,3.71-1.67,2.2-4.16-1.2-1.99-3.04-2.98-5.91-2.82Z"/><path class="cls-8" d="M126.21,331.79c-.93,2.8-.79,6.92-5.56,7.17-4.55.23-7.6-2.82-7.67-7.29-.07-4.43,2.42-7.62,6-7.72,3.64-.1,7.23,3.58,7.23,7.85ZM117.57,327.46c-2.39,1.24-2.57,3.34-1.85,5.53.58,1.76,1.82,2.95,3.97,2.59.05-2.82-2.53-4.74-1.57-7.43,1.09.3,2.03,1.94,3.29.42.22-.26.24-1.06.05-1.22-1.28-1.02-2.62-.95-3.89.1Z"/><path class="cls-15" d="M356.76,467.08c-1.27-.24-2.19-.63-.95-2.04.84.44,1.15,1.12.95,2.04Z"/><path class="cls-2" d="M717.05,412.21c1.38-5.18.77-11.51.98-17.8.03-.81.1-1.76.52-2.4,3.23-4.88,3.29-9.78,1.65-15.4-1.27-4.36,4.32-12.15,8.7-13.35,3.45-.95,6.3.58,7.96,3.66,2.29,4.24,3.21,8.75,1,13.37-.91,1.9-1.4,3.91-.63,5.79,2.99,7.25,1.35,14.79,1.62,22.2.13,3.58-1.16,6.34-5.51,6.89-3.25.41-6.47,1.41-9.57,2.53-5.9,2.14-6.82,1.63-6.74-5.49ZM731.98,368.02l-.35-.25c.13.07.26.14.39.21,1.68,3.53.58,7.51,1.94,11.09.78-3.93,2.46-8.01-1.98-11.06ZM731.99,386.02c-.13-.08-.26-.16-.39-.24.14.07.29.13.43.2,2.06,7.67.24,15.71,2.06,23.43.61-6.59.73-13.16.5-19.71-.05-1.35-.26-3.52-2.6-3.68ZM731.01,374.3c-.1-1.96.05-4.52-2.21-5-2.59-.55-3.48,2.01-4.35,3.99-.26.59-.58,1.43-.35,1.92,3.18,6.79,1.13,12.66-1.76,19.2-2.09,4.73-1.05,10.78-1.76,16.19-.35,2.7.73,2.24,2.46,1.91,6.52-1.21,7.27-2.83,8.05-11.34.82-8.99-4.89-17.89-.09-26.87Z"/><path class="cls-8" d="M595.68,309.49c-6.15.36-11.54-2.16-16.65-5.78,5.64,1.36,11.27,2.73,16.91,4.09-.09.56-.17,1.12-.26,1.69Z"/><path class="cls-14" d="M619,308.01c-4.39,3.6-9.17,2.19-13.93,1.1,4.61-.84,9.22-1.62,13.93-1.1Z"/><path class="cls-2" d="M266.85,287.58c-.39,1.53-1.61,1.44-2.78,1.44-9.64-.05-19.28-.08-28.93-.16-1.26-.01-2.8.29-3.07-1.66,11.59.13,23.19.25,34.78.38Z"/><path class="cls-1" d="M512.93,672.21c-15.02,0-28.18-6.25-41.08-12.84-32.25-16.46-53.9-42.54-67.94-75.55-8.19-19.26-13.46-39.49-13.33-60.09.24-37.41,13.64-70.27,40.68-96.82,30.99-30.44,67.77-36.06,108.53-25.26,22.2,5.88,41.93,16.52,59.04,31.33,11.53,9.98,21,22.29,28.34,35.89,11.42,21.18,18.79,43.64,20.88,67.71.45,5.18-.39,10.3-.98,15.42-.34.72-.89,1.42-.97,2.18-1.67,14.87-6.32,28.63-13.1,42.07-14.93,29.57-36.59,51.59-67.52,64.03-16.87,6.78-33.96,12.61-52.53,11.92ZM615.98,597.06c.99.3.99-.43,1.09-1.05l-.04.05c1.7-1.28,2.04-3.3,2.79-5.1.15-.97,1.9-1.8.26-2.93l-.04.04c1.22.54,1.24-.12,1.02-1.02v-.02c1.3-.68,1.77-1.63,1.01-3h0c1.54-.6,1.79-1.63,1-3l.05.1c4.82-7.69,4.95-16.58,4.22-24.85-2.06-23.31-6.33-46.31-14.72-68.32-4.2-11.03-9.36-21.6-16.63-31.02-2.22-2.88-3.58-2.81-4.1,1l.04-.05c-10.08-10.05-21.12-18.93-33.04-26.71l.17-1.77c1.3-.06,2.02,2.48,3.74.88-9.88-9.93-50.63-25.22-59.88-19.39,17.41,2.56,33.86,6.87,49.02,15.23l-1.12.99c-15.85-4.75-31.93-8.08-48.61-7.43-12.55.49-24.87,1.99-35.89,8.77-5.82,3.58-11.49,7.36-16.72,11.77-23.97,20.16-38.51,45.81-40.1,77.02-1.77,34.72,6.42,67.08,30.39,93.89,13.82,15.46,28.98,28.98,49.92,33.99,8.57,2.05,17.06,4.44,25.82,5.58,21.05,2.73,41.11.08,59.71-10.82,3.26-1.91,5.76-5.04,9.63-5.93,1.3,2.83-1.6,3.16-2.78,4.08-8.47,6.6-17.89,11.3-28.35,14-5.26,1.36-10.57,2.85-16.12,6.04,20.23.3,60.99-23.63,64.02-37.55-4.43,4.18-8.42,8.08-12.59,11.77-1.07.95-1.95,3.3-4.19,1.66,11.19-11.5,21.05-24.01,29.03-37.96.39.41.78.82,1.16,1.23.13.37.04,1.03.7.78.33-.13.74-.58.2-1.04l-.08.09ZM590.62,450.24c-.84-1.13-2.22-2.08-3.15-.96-.73.87,1.05,1.57,1.74,2.33.27.4.46.91.82,1.17.89.64,1.31,2.9,2.8,1.55,1.22-1.11-.48-2.18-1.12-3.16-.25-.38-.72-.63-1.09-.93ZM492,655.03c5.9,2.14,11.94,3.59,18.27,3.57-6.01-2.22-11.91-4.66-18.26-5.61-27.62-8.51-49.47-24.98-65.38-48.91-19.61-29.47-28.5-62.02-25.83-97.51.15-2.05.2-4.1.33-6.72-2.07,1.56-2.05,3.28-2.38,4.82-2.25,10.36-2.26,20.75-.83,31.25,4.18,30.73,14.73,58.79,35.69,82.02,15.92,17.64,34.21,32.17,58.4,37.09ZM491.01,413.13c-4-.83-5.26-.78-10.06.44-23.09,5.86-41.49,19.07-57.26,36.45-9.2,10.13-16.24,21.46-20.2,34.63-.35,1.17-1.02,2.67,0,3.16,1.91.91,1.78-1.31,2.41-2.28.36-.55.52-1.22.79-1.83,16.28-37.5,45.3-59.75,84.32-70.57Z"/><path class="cls-15" d="M512.93,672.21c18.57.69,35.67-5.14,52.53-11.92,30.94-12.45,52.59-34.47,67.52-64.03,6.79-13.44,11.44-27.2,13.1-42.07.08-.75.64-1.45.97-2.18,3,5.15,1.83,10.63.71,15.85-4.95,23.02-12.21,45.06-27.46,63.73-9.5,11.63-20.95,20.81-33.9,28.11-7.9,4.45-15.39,10-24.52,11.8-15.33,3.03-30.76,4.64-46.39,2.46-1.23-.17-2.33-.27-2.59-1.76Z"/><path class="cls-12" d="M221.9,629.35c-19.1-3.43-32.68-15.95-45.8-28.69-22.14-21.5-36.41-48-41.44-78.16-6.75-40.48-.66-79.19,25.09-112.69,15.7-20.43,36.83-32.06,62.71-35.02,19.92-2.28,39.01,1.13,57.08,8.9,15.41,6.63,28.44,17.11,39.31,30.09,17.65,21.08,31.2,44.29,37.66,71.28,1.4,5.87,1.55,11.86,2.35,17.79-.65,1.09-.89,2.16.18,3.15.03,1.32.06,2.64.09,3.97-.14.98-.4,1.96-.4,2.94.06,19.52-4.86,38.07-13,55.48-11.63,24.86-32.14,40.96-56.77,51.6-21.31,9.21-43.97,11.41-67.04,9.37ZM315.07,436.99c.07-.82-.46-1.22-1.08-1.56-.11-.67-.44-1.29-1.17-.97-.99.44-.87,1.54-1.07,2.42-4.66-5.18-9.31-10.36-13.97-15.54.87-.38,2.07-.48,2.01-1.77-.07-1.63-1.42-1.5-2.53-1.62-6.47-10.25-34.08-25.63-41.73-23.15,2.37.91,4.74,1.63,6.95,2.7,5.72,2.78,12.08,4.45,16.62,9.35-.05.53-.1,1.05-.15,1.58-2.07-1.04-4.17-2.04-6.22-3.12-10.29-5.46-20.99-8.97-32.89-8.5-10.47.42-20.33,3.31-30.11,6.52-16.3,5.35-30.45,13.74-40.73,28.13-15.89,22.25-21.03,47.72-19.27,73.89,2.2,32.74,13.98,61.68,40.28,83.88,19.65,16.59,41.21,26.48,66.9,27.27.01.43.03.85.04,1.28-4.65.12-9.3.35-13.95.34-4.81,0-9.6-.3-14.37-1.14-4.34-.76-8.68-2.04-13.16-1.2,21.68,7.55,43.32,7.97,64.88-.91h-4.32c.02-.27,0-.54-.02-.81,7.31-3.26,14.73-6.28,21.21-11.15.97-.73,2.47-2.05,3.74-.12-2.93,2.16-5.86,4.32-8.78,6.48l1.12,1.09c20.83-12.34,35.85-29.47,42.66-53.36,4.57-11.35,4.72-23.4,4.63-35.28-.07-9.41-1.45-18.86-2.84-28.21-2.56-17.17-7.42-33.63-16.68-48.53-1.54-3.03-2.96-6.15-6.02-8.05v.07ZM157.97,563.59c-15.77-38.91-19.63-78.62-7.68-119.29-15.38,40.78-11.02,80.42,7.68,119.29ZM209.56,394.06c-13.59-1-43.16,20.79-46.15,33.47,12.91-14.65,27.26-26.12,46.15-33.47ZM197.57,605.46c-4.26-6.91-18.78-19.04-22.41-19.15,6.39,7.09,13.34,13.35,22.41,19.15Z"/><path class="cls-15" d="M221.9,629.35c23.07,2.04,45.73-.16,67.04-9.37,24.63-10.64,45.14-26.74,56.77-51.6,8.14-17.41,13.06-35.95,13-55.48,0-.98.26-1.96.4-2.94,1.51.16,1.8,1.19,1.84,2.47.46,17.62.48,35.19-5.94,52.04-5.62,14.74-13.89,27.71-24.28,39.65-8.12,9.32-17.22,16.77-28.21,22.37-8.57,4.37-17.57,6.77-26.88,8.36-16.98,2.91-33.68.69-50.23-3.26-1.28-.3-3.16-.24-3.5-2.25Z"/><path class="cls-15" d="M359.02,506c-1.06-.99-.82-2.06-.18-3.15,1.34.98,1.58,2.02.18,3.15Z"/><path class="cls-6" d="M352.97,392.61c-.17,0-.36-.05-.5.01-8.79,4.07-11.95-3.91-16.94-7.93-1.46-1.18-1.37-2.42.03-3.73,1.45-1.37,2.96-2.75,4.07-4.39,2.71-4,5.09-5.64,10.67-3.48,8.43,3.28,18.58-7.98,15.48-16.81-1.22-3.46-.21-5.09,1.83-7.21q8.09-8.38,15.91.29c2.76,3.06,5.41,5.3,3.63,10.82-2.69,8.32,6.52,16.5,15.23,14.23,2.83-.74,4.37-.06,5.98,1.85.75.89,1.64,1.66,2.36,2.58,2.23,2.84,8.07,5.12,6.98,7.62-2.01,4.62-6.65,8.12-10.3,11.99-1.33,1.41-2.43-.22-3.5-.74-5.27-2.59-9.35-2.15-13.7,1.85-3.94,3.62-5.4,8.23-3.26,13.13,1.43,3.28.45,5.03-1.71,7.27-8.95,9.26-8.82,9.26-17.43-.68-2.21-2.55-3.43-4.29-1.84-8.21,3.56-8.75-3.74-18.55-12.98-18.46Z"/><path class="cls-5" d="M674.69,360.07c2.87-.17,4.72.83,5.91,2.82,1.5,2.49-1.12,2.95-2.2,4.16-.33.37-.61.79-.92,1.17-1.43,1.78-2,5.15-5.46,3.37-2.5-1.28-4.17-3.39-3.78-6.41.41-3.08,2.75-4.32,5.46-5.01.47-.12.99-.1.99-.1ZM671.86,366.79c.2,1.19,0,3.31,1.13,2.88,2.5-.95,1.57-4.29,3.09-6.19.39-.49-.09-1.53-.82-1.44-2.84.35-2.48,3.03-3.4,4.75Z"/><path class="cls-10" d="M118.11,328.15c-.95,2.69,1.62,4.6,1.57,7.43-2.16.36-3.39-.83-3.97-2.59-.72-2.18-.54-4.28,1.85-5.53.17.24.35.47.55.69Z"/><path class="cls-10" d="M117.57,327.46c1.27-1.05,2.6-1.12,3.89-.1.2.16.17.96-.05,1.22-1.27,1.52-2.21-.13-3.29-.42-.19-.22-.38-.45-.55-.69Z"/><path class="cls-3" d="M731.01,374.3c-4.8,8.98.91,17.89.09,26.87-.78,8.52-1.53,10.13-8.05,11.34-1.73.32-2.82.78-2.46-1.91.71-5.41-.33-11.46,1.76-16.19,2.88-6.53,4.93-12.4,1.76-19.2-.23-.49.09-1.33.35-1.92.87-1.98,1.76-4.54,4.35-3.99,2.27.48,2.12,3.04,2.21,5Z"/><path class="cls-3" d="M731.99,386.02c2.34.16,2.55,2.33,2.6,3.68.23,6.55.11,13.11-.5,19.71-1.83-7.71,0-15.76-2.06-23.43l-.04.04Z"/><path class="cls-3" d="M731.98,368.02c4.44,3.05,2.77,7.13,1.98,11.06-1.36-3.58-.26-7.56-1.94-11.09l-.04.04Z"/><path class="cls-3" d="M732.02,367.99c-.13-.07-.26-.14-.39-.21.12.08.23.16.35.25,0,0,.04-.04.04-.04Z"/><path class="cls-3" d="M732.02,385.98c-.14-.07-.29-.13-.43-.2.13.08.26.16.39.24,0,0,.04-.04.04-.04Z"/><path class="cls-2" d="M584.97,633.96c-3.87.89-6.37,4.02-9.63,5.93-18.6,10.91-38.66,13.56-59.71,10.82-8.76-1.14-17.26-3.53-25.82-5.58-20.94-5.01-36.09-18.53-49.92-33.99-23.97-26.81-32.16-59.17-30.39-93.89,1.59-31.21,16.13-56.86,40.1-77.02,5.24-4.4,10.9-8.19,16.72-11.77,11.03-6.78,23.34-8.28,35.89-8.77,16.67-.65,32.75,2.68,48.61,7.43,2.69,1.35,5.38,2.71,8.07,4.06,11.92,7.78,22.96,16.66,33.04,26.71.31,1.87,1,3.45,3.18,3.64.22.02.73-.69.71-1.04-.18-2.51-2.11-2.48-3.92-2.56.52-3.81,1.88-3.88,4.1-1,7.27,9.42,12.43,20,16.63,31.02,8.39,22,12.65,45,14.72,68.32.73,8.27.61,17.16-4.22,24.85-2.28-3.29,1.76-6.5-.09-9.92-2.49,8.5-5.5,16.75-9.05,24.79-7.98,13.95-17.84,26.47-29.03,37.96h0ZM487.03,429.95c-1.74-.1-3.11.67-4.32,1.83-1.73.98-3.57,1.82-5.17,2.98-9.73,7.07-18.19,15.56-26.53,24.16-.16-2.07.5-3.72,1.87-5.4,9.25-11.36,19.81-21.1,33.17-27.48.72-.17,1.44-.33,2.16-.5-.09-.13-.16-.34-.27-.37-.84-.24-1.51.01-1.99.75-2.16.04-4.27.3-6.42.63-9.71,1.47-16.79,7.51-24.19,13.17-22.29,17.04-35.62,39.88-41.01,66.89-4.48,22.45-.23,44.53,7.38,66.02,4.91,13.89,12.46,26.02,22.3,36.82,10.04,11.01,20.8,21.66,34.75,27.04,18.38,7.09,37.33,12.61,57.66,10.65,15.66-1.51,30.46-5,43.28-14.58,4.37-3.26,9.1-6.32,11.13-12.12-.8,0-1.18-.12-1.41.02-22.79,14.06-46.93,19.06-73.32,12.11-19.89-5.24-37.37-14.56-52.38-28.51-3.7-3.44-7.84-6.73-8.7-12.25,7.43,6.62,14.47,13.69,22.91,19.11,29.37,18.89,60.37,27.55,94.71,15.03,13.21-4.81,25.57-11.4,33.03-23.67,13.98-22.99,20.18-47.47,14.56-74.82-6.99-34.05-21.65-62.48-49.73-84.28-20.65-16.02-43.71-19.77-68.4-19.74-.97-.41-1.85-.34-2.55.53-.5.18-1,.37-1.5.55-3.61,2-7.95,2.54-11.1,5.48l.09-.06ZM601.9,468.86c-.78-1.03-1.57-2.05-2.59-3.39-.46,2.34.66,3.18,2.59,3.39ZM593.08,618.25c-.27.13-.64.2-.76.41-.1.18.09.52.16.79.26-.14.6-.23.75-.45.1-.15-.09-.48-.15-.75Z"/><path class="cls-14" d="M492,655.03c-24.19-4.91-42.47-19.45-58.4-37.09-20.97-23.23-31.52-51.29-35.69-82.02-1.43-10.51-1.42-20.89.83-31.25.34-1.54.32-3.26,2.38-4.82-.12,2.62-.17,4.67-.33,6.72-2.67,35.49,6.22,68.03,25.83,97.51,15.92,23.93,37.76,40.4,65.38,48.91v2.04Z"/><path class="cls-13" d="M491.01,413.13c-39.03,10.83-68.04,33.07-84.32,70.57-.27.61-.43,1.28-.79,1.83-.63.97-.5,3.19-2.41,2.28-1.02-.49-.36-1.99,0-3.16,3.96-13.17,11.01-24.5,20.2-34.63,15.78-17.38,34.17-30.59,57.26-36.45,4.8-1.22,6.06-1.27,10.06-.44Z"/><path class="cls-8" d="M584.96,633.96c2.24,1.64,3.12-.71,4.19-1.66,4.17-3.69,8.15-7.59,12.59-11.77-3.03,13.92-43.8,37.85-64.02,37.55,5.55-3.19,10.85-4.68,16.12-6.04,10.46-2.7,19.88-7.4,28.35-14,1.19-.92,4.08-1.25,2.78-4.08,0,0,0,0,0,0Z"/><path class="cls-8" d="M551.94,426.13c-15.16-8.36-31.61-12.67-49.02-15.23,9.24-5.83,50,9.46,59.88,19.39-1.71,1.6-2.43-.94-3.74-.88-2.18-1.52-4.6-2.5-7.12-3.28Z"/><path class="cls-10" d="M613.99,596c3.55-8.04,6.56-16.29,9.05-24.79,1.85,3.42-2.2,6.63.09,9.92,0,0-.05-.1-.05-.1-1.95.46-2.43,1.41-1,3,0,0,0,0,0,0-2.2.38-2.38,1.42-1,3,0,0-.01.02-.01.02-1.34-.66-1.13.23-1.02,1.02,0,0,.04-.04.04-.04-1.36-.13-.96,1.04-1.26,1.7-1.09,1.97-2.72,3.79-1.8,6.34,0,0,.04-.05.04-.05-1.15-.46-.94.48-1.09,1.05,0,0,.08-.09.08-.09-.3.08-.6.16-.9.26-.39-.41-.78-.82-1.16-1.23Z"/><path class="cls-3" d="M492,655.03v-2.04c6.36.95,12.27,3.4,18.27,5.61-6.33.02-12.37-1.43-18.27-3.57Z"/><path class="cls-10" d="M551.94,426.13c2.52.78,4.94,1.76,7.12,3.28-.06.59-.11,1.18-.17,1.77-2.69-1.35-5.38-2.71-8.07-4.06.37-.33.75-.66,1.12-.99Z"/><path class="cls-8" d="M617.03,596.06c-.93-2.55.71-4.36,1.8-6.34.33.41.66.82.99,1.24-.75,1.8-1.09,3.82-2.79,5.1Z"/><path class="cls-13" d="M590.62,450.24c.37.31.83.55,1.09.93.64.98,2.34,2.05,1.12,3.16-1.48,1.35-1.9-.9-2.8-1.55-.37-.26-.56-.77-.82-1.17.47-.46.94-.92,1.41-1.38Z"/><path class="cls-13" d="M589.21,451.62c-.69-.76-2.47-1.46-1.74-2.33.93-1.12,2.31-.18,3.15.96-.47.46-.94.92-1.41,1.38Z"/><path class="cls-2" d="M622.08,584.03c-1.43-1.59-.95-2.54,1-3,.79,1.37.54,2.4-1,3Z"/><path class="cls-2" d="M621.07,587.03c-1.38-1.57-1.2-2.62,1-3,.76,1.37.29,2.32-1,3Z"/><path class="cls-2" d="M619.81,590.96c-.33-.41-.66-.82-.99-1.24.29-.66-.1-1.83,1.26-1.7,1.63,1.13-.11,1.96-.26,2.93Z"/><path class="cls-8" d="M615.16,597.23c.3-.09.6-.18.9-.26.54.46.13.91-.2,1.04-.66.25-.57-.41-.7-.78Z"/><path class="cls-2" d="M620.04,588.07c-.11-.79-.32-1.68,1.02-1.02.22.9.2,1.56-1.02,1.02Z"/><path class="cls-8" d="M615.98,597.06c.15-.57-.06-1.51,1.09-1.05-.1.63-.09,1.35-1.09,1.05Z"/><path class="cls-2" d="M256.9,616.48c-25.69-.79-47.25-10.68-66.9-27.27-26.3-22.2-38.07-51.15-40.28-83.88-1.76-26.17,3.38-51.64,19.27-73.89,10.28-14.39,24.43-22.78,40.73-28.13,9.78-3.21,19.64-6.1,30.11-6.52,11.9-.47,22.6,3.04,32.89,8.5,2.05,1.09,4.14,2.09,6.22,3.12.94.5,2.08,2.38,2.57-.36l.06.4.39.09c.56,3.44,2.98,4.39,6.02,4.5l-.02-.02c-.4,1.75.9,1.79,2.02,2.01h0c.33,1.05.9,1.63,2.06,1.01l-.07-.05c.26,1.83,1.14,2.72,3.07,2.05l-.07-.06c-.56,1.29.08,1.36,1.08,1.06l-.08-.05c-.79,1.33.5,1.36,1.13,1.8.17.32.43.47.79.47l-.09.08c4.66,5.18,9.31,10.36,13.97,15.54.93,1.22,1.19,3.14,3.29,3.15l-.06-.08c-.52,1.96.76,3.03,2.04,4.09l-.06-.07c.04.68.04,1.4,1.08,1.06,0,0-.07-.07-.07-.07-.26,1.22-.42,2.4,1.04,3.03.15,1.52.88,2.37,2.89,2.21-.58-1.47-.74-2.95-2.61-3.21-.11-.66-.22-1.32-.32-1.98.71-.01,1.42-.03,2.12-.04,9.26,14.91,14.12,31.36,16.68,48.53,1.39,9.35,2.78,18.8,2.84,28.21.08,11.88-.06,23.92-4.63,35.28-1.42-.6-.38-2.47-1.61-3.19-2.08,1.99-.74,5.06-2.35,7.17-1.12.29-1.2,1.12-1.06,2.05l.06-.09c-3.63,6.2-7.92,12.05-10.05,19.04l.03-.03c-2.05-.04-2.45,1.58-3.02,3.01h0c-5.19,4.75-10.38,9.49-15.55,14.26-.63.59-1.8,1.18-.46,2.23-.31.43-.63.87-.94,1.3-1.32-1.92-2.82-.59-3.79.14-6.48,4.87-13.91,7.89-21.21,11.15-6.37.81-12.74,1.63-19.11,2.44ZM258.98,501.02c-.4-2.05-.81-4.1-1.34-6.81-1.08,2.84-.68,4.84.36,6.79.36,1.45-1.8,2.75-.24,4.4,1.68-1.17,1.09-2.88,1.23-4.39ZM265.95,512.95c-3.4.19-8.1-1.42-6.96,5.04-1.08,1.25-3.26.7-4.03,2.54-1.15,2.76-3.43,2.79-5.84,2.18-2.95-.74-2.96-3.09-2.96-5.52,0-1.31.73-3.07-1.69-3.38-4.56-.6-6.62-4.27-7.16-7.91-1.34-9.1-7.5-15.61-11.38-23.32-.4-3.57-1.25-6.81-5.53-7.53,2.24-2.77.93-5.33-.46-7.89-1.16-1.89.64-7.19-4.79-4.16,1.02-3.85-2.14-6.61-2.63-10.06,1.79-1.4,0-2.26-.5-3.31,1.39-4.28,2.37-1.59,3.25.23,3.68,7.63,7.35,15.27,10.95,22.94,5.03,10.74,12.21,20.47,14.9,32.32.47,2.09,1.13,5.25,4.25,4.46,3.24-.82,4.56.85,6.13,2.9.92,1.21,1.8,2.79,4.04,2.24-.94-3.16-3.82-5.32-2.73-8.94,2.03-6.76,1.05-9.61-5.17-12.03-4.34-1.69-6.4-4.83-8.65-8.38-9.92-15.6-18.12-32.15-27.01-48.32-.52-3.23-3.11-1.62-4.82-2.05-.98-2.09-1.48-4.64.71-5.73,2.29-1.14,3.27,1.62,4.4,3.12,1.8,2.38,3.42,4.91,5.11,7.38-1.07-8.08.56-16.51-4.55-23.49-.32-4.04.63-7.67,4.44-10.84-23.21,3.89-48.17,24.83-56.03,47.65-6.7,19.43-10.7,39.57-7.15,60.2,4.67,27.21,12.65,52.52,35.98,70.91,14.15,11.16,28.05,21.49,45.83,26.08,21.95,5.66,42.1,3.13,60.29-10.93,2.24-1.73,5.35-2.56,6.78-5.83-1.96-.44-3.13.65-4.42,1.19-7.07,3-14.38,5.42-22,6.15-26.15,2.51-48.81-5.6-68.14-23.25-.9-.83-1.89-1.63-.27-2.7,4.26,2.9,8.43,5.93,12.79,8.67,24.23,15.27,49.83,18.75,76.65,7.94,8.91-3.59,17.88-6.84,23.47-16.42,13-22.3,20.1-45.49,15.74-71.45-1.73-10.31-1.61-21.24-6.58-30.56-6.95-13.02-14.2-25.95-23.81-37.36-14.15-16.8-32.06-27.66-52.74-34.42-9.28-3.03-17.94-1.24-26.38,2.9-2.88-1.95-5.54-1.34-9,.75h8.83c3.7,1.52,7.14-1.56,10.81-.63,1.64,4.15,3.01,8.32,1.15,12.79-2.08,2.53-6.99-.88-7.89,3.38-.67,3.19-.22,6.61-.24,9.93,0,1.16.51,2.22.79,3.31,1.02,3.98,1.29,8.03.15,12-3.16-.9.14-5.26-3.09-5.42-4.66-.22-.81,4.94-3.44,6.29q-2.86-6.13-7.34-4.66c3.82,5.27,6.03,11.37,9.25,16.92,5.37,9.25,10.21,18.85,17.02,27.21l1.62-.07c.34,4.43,4.48,4.32,7.14,5.97l.55.62c.03-.15.12-.33.07-.46-.16-.44-.42-.45-.7-.06-.87-14.14-1.96-28.28-1.99-42.46,3.55,0,2.48,2.91,2.62,4.63.63,7.91.81,15.86,1.55,23.76.21,2.27-.65,5.98,3.75,5.9,2.69.7,5.38,1.4,8.06,2.11.98,1.6-2.04,4.33,1.02,5.03,1.59.36.58-2.09,1.28-3.05,2.06,2.01,3.95,4.13,4.56,7.07-1.69,2.72-.39,5.73-.83,8.56-.38,2.43.22,5.37-3.08,6.4.98-5.42,2.29-10.85-.54-16.23.89,6.79.42,13.27-3.4,19.15ZM220.65,432.86c.95-6.19.24-12.07,2.26-17.67.6-1.65.38-3.73-1.55-4.83-1.22-.7-2.55-.62-3.77.16-1.86,1.2-2.29,3.46-1.41,4.83,3.4,5.28,2.15,11.61,4.46,17.51ZM228,428.66c0-2.32.02-4.63,0-6.95-.01-.97.1-2.14-1.17-2.42-1.68-.36-1.77,1.09-2.1,2.14-1.49,4.79-.09,9.87-1.51,14.71-.41,1.4.99,1.84,2.29,1.83,1.59-.02,2.49-.7,2.48-2.37,0-2.32,0-4.63.01-6.95ZM262.08,499.46c-.16,3.05.13,5.22-.94,7.27-.46.89-1.71,2.15-.1,2.96,1.27.64,2.56.05,3.53-1.1,2.15-2.53,2.05-12.3-.23-14.73-.66-.7-1.34-1.83-2.41-1.4-1.62.66-.5,1.91-.34,2.96.25,1.64.4,3.29.49,4.04ZM225.35,408.54c3.57,1.44-2.44,7.98,4.6,7.45,3.04-.23,3.28-2.34,3.02-4.59-.59-5.12-4.38-2.95-7.62-2.87ZM256.37,487.52c2.83,1.1,5.22,2,8.52.82-2.86-1.61-5.08-3.06-8.52-.82ZM249.76,518.43c-.34,1.09,0,1.62,1.08,1.16.63-.26,1.85.35,1.83-.84-.01-1-.88-1.83-1.8-1.98-1.17-.19-.71,1.13-1.11,1.66ZM323,454.73c.09-.24.22-.48.25-.73.01-.08-.28-.31-.34-.28-.22.1-.39.29-.59.44.22.19.45.38.68.57ZM209.77,432.93c-.08-.1-.15-.2-.23-.31-.09.08-.19.17-.28.25.13.13.25.26.38.39.04-.11.09-.23.13-.34ZM326.36,459.73c-.04.11-.09.23-.13.34.17.02.34.04.51.05-.02-.12-.02-.27-.08-.36-.04-.06-.19-.03-.3-.04Z"/><path class="cls-13" d="M157.97,563.59c-18.7-38.87-23.06-78.52-7.68-119.29-11.95,40.68-8.09,80.38,7.68,119.29Z"/><path class="cls-13" d="M276.03,614.85h4.32c-21.56,8.88-43.19,8.46-64.88.91,4.48-.84,8.82.44,13.16,1.2,4.77.84,9.56,1.13,14.37,1.14,4.65,0,9.3-.22,13.95-.34,6.46-.32,12.86-1.05,19.09-2.91Z"/><path class="cls-8" d="M332.01,560.97c1.61-2.11.27-5.18,2.35-7.17,1.23.72.19,2.59,1.61,3.19-6.81,23.89-21.83,41.02-42.66,53.36l-1.12-1.09c2.93-2.16,5.86-4.32,8.81-6.49.34-.44.65-.88.97-1.31,6.71-3.62,11.38-9.46,16.35-14.98.47-.52.47-1.16-.34-1.51,0,0,0,0,0,0,2.48.47,2.77-1.25,3.02-3.02,0,0-.03.03-.03.03,5.33-5.3,8.97-11.5,10.05-19.04,0,0-.06.09-.06.09,1.41-.14.99-1.22,1.06-2.05Z"/><path class="cls-8" d="M209.56,394.06c-18.89,7.35-33.23,18.82-46.15,33.47,2.99-12.69,32.56-34.47,46.15-33.47Z"/><path class="cls-8" d="M281.96,408.55l-.39-.09s-.06-.4-.06-.4c-.3-1.4-1.47-1.09-2.42-1.22-4.54-4.89-10.9-6.56-16.62-9.35-2.2-1.07-4.58-1.79-6.95-2.7,7.65-2.48,35.26,12.9,41.73,23.15-.44.35-.87.7-1.31,1.05l.08.05c-.08-.64-.32-1.11-1.08-1.06,0,0,.07.06.07.06-.6-1.31-1.6-2.04-3.07-2.05,0,0,.07.05.07.05-.34-1.03-.73-1.98-2.06-1.01,0,0,0,0,0,0,.51-1.86-.76-1.93-2.02-2.01,0,0,.02.02.02.02-1.22-2.55-3.21-4.07-6.02-4.5Z"/><path class="cls-8" d="M197.57,605.46c-9.07-5.8-16.02-12.07-22.41-19.15,3.62.11,18.15,12.24,22.41,19.15Z"/><path class="cls-10" d="M276.03,614.85c-6.23,1.86-12.63,2.59-19.09,2.91-.01-.43-.03-.85-.04-1.28,6.37-.81,12.74-1.63,19.11-2.44.03.27.04.54.02.81Z"/><path class="cls-14" d="M321.08,444.97c-.71.01-1.42.03-2.12.04-.33-.01-.66-.03-1-.04,0,0,.07.07.07.07-.05-.67.07-1.51-1.08-1.06,0,0,.06.07.06.07.61-2.01-.55-3.13-2.04-4.09,0,0,.06.08.06.08.43-1.03-1.54-2.09.03-3.11,3.06,1.89,4.48,5.02,6.02,8.05Z"/><path class="cls-10" d="M315.06,436.92c-1.56,1.02.4,2.08-.03,3.11-2.1,0-2.36-1.93-3.29-3.15.2-.88.08-1.99,1.07-2.42.74-.32,1.06.3,1.17.97-.12.85-.22,1.69,1.08,1.56v-.07Z"/><path class="cls-10" d="M295.95,419c.44-.35.87-.7,1.31-1.05,1.12.12,2.47-.01,2.53,1.62.05,1.3-1.15,1.4-2.02,1.77,0,0,.09-.08.09-.08-.05-.51-.16-.94-.79-.47-.63-.44-1.92-.47-1.13-1.8Z"/><path class="cls-10" d="M279.09,406.84c.95.12,2.11-.18,2.42,1.22-.49,2.74-1.62.86-2.57.36.05-.53.1-1.05.15-1.58Z"/><path class="cls-14" d="M315.07,436.99c-1.3.13-1.2-.71-1.08-1.56.62.34,1.15.75,1.08,1.56Z"/><path class="cls-14" d="M671.86,366.79c.93-1.72.56-4.39,3.4-4.75.73-.09,1.22.95.82,1.44-1.52,1.9-.6,5.24-3.09,6.19-1.13.43-.93-1.7-1.13-2.88Z"/><path class="cls-9" d="M502.09,423.45c24.7-.04,47.75,3.72,68.4,19.74,28.08,21.79,42.74,50.23,49.73,84.28,5.62,27.35-.58,51.83-14.56,74.82-7.47,12.27-19.82,18.86-33.03,23.67-34.34,12.51-65.33,3.85-94.71-15.03-8.43-5.42-15.48-12.49-22.91-19.11-2.01-3.1-5.23-5.59-5.05-9.82-.19-.62-.27-1.3-.57-1.86-17.13-31.18-20.81-63.64-9.92-97.74,1.77-5.53,4.86-10.56,5.77-16.37,1.37-2.81,3.67-4.88,5.77-7.1,8.34-8.61,16.8-17.09,26.53-24.16,1.6-1.16,3.44-1.99,5.17-2.98.44.42.88.85,1.33,1.27-1.7,3.25-1.86,6.38.89,9.15,2.5,2.53,5.1,2.62,8.57,1.28,5.54-2.14,10.59,1.64,10.91,7.46.55,9.81,1.14,19.61,1.64,29.42.14,2.65.02,5.32.02,7.98-1.94-1.76-2.83-3.54-3.86-5.24-2.16-3.55-4.31-7.11-6.63-10.56-1.28-1.9-3.27-2.31-5.31-1.28-2.55,1.29-.99,3.11-.34,4.68,6.1,14.75,11.5,29.8,18.28,44.27,1.15,2.46,1.55,4.84.92,7.67-1.07,4.86-.98,9.89,3.61,13.12,2.25,1.58,3.36,3.45,4.03,5.91.5,1.86.61,4.01,3.4,4.23,2.83.22,3.63-1.54,4.04-4.54,2.36,3.49,4.54,3.72,6.77.91.75-.94,1.65-1.5,2.99-1.41,6.38.45,9.34-3.61,11.04-8.87,3.01-9.33.45-17.33-6.31-24.17.56-6.43.47-12.91,1.88-19.29,2.99-13.54,3.33-27.33,3.25-41.13-.01-1.74.44-3.98-1.86-4.64-2.19-.62-2.48,1.71-3.51,2.87-1.08-4.36-3.84-6.17-7.26-4.69-1.28.56-2.49,1.55-2,3.04.77,2.37,1.92.5,2.98.07.86-.35,1.86-.74,2.62.41-.82,2.48-2.77,4.08-4.49,5.86-1.02,1.06-2.42,2.16-1.58,3.83.78,1.56,2.49,1.46,3.99,1.42,1.16-.04,2.31-.22,3.47-.34-.97,14.5-2.31,28.96-5.13,43.32-1.22-2.35-1.76-4.69-2.22-7.06-1.33-6.82-1-13.93-3.53-20.53-.56-1.46-.75-3.97-2.67-3.68-2.63.39-1.46,3.01-1.28,4.56,1.26,11.02,2.72,22.02,4.11,33.03-3.08,2.1-3.47-.23-4.04-2.41-4.53-17.4-7.49-35.07-9.63-52.9-.32-2.63-1.95-5.53-1.24-7.75.88-2.76,4.71-.62,6.92-1.97.7-.43,1.52-.67,2.23-1.09,4.05-2.39,4.05-3.12,0-5.94,2.73-1.96,2.89-3.85-.24-5.49-3.76-1.97-7.2-4.61-11.4-5.69-1.64-1.79-3.95-1.57-6.03-2.02.02-.47.04-.94.06-1.41ZM527.15,601.15c-.26-.22-.53-.43-.79-.65.93-4.12,3.8-3.76,8.11-1.98-2.49-3.59-4.3-5.45-7.28-3.88-3.22,1.7-4.47,4.91-4.6,8.35-.12,3.12,1.14,5.88,3.94,7.6,1.83,1.12,3.9,1.19,5.69.08,1.84-1.13,2.48-3.06,2.12-5.21-.37-2.15-1.58-3.69-3.73-4.19-1.1-.26-2.3-.1-3.46-.12ZM467.38,494.77c.16-5.43,1.25-10.87.13-17.23-2.33,2.68-2.13,5.13-2.36,7.46-.32,3.24.72,6.55-.59,9.73-2.64,0-4.6,1.05-4.99,3.82-.39,2.72,1.34,4.57,3.53,5.46,6.11,2.47,9.4,7.02,10.77,13.25.18.8.58,1.56.96,2.29,2.23,4.26,6.34,5.5,10.46,5.07,4.29-.45,5-4.33,4.96-8.03-.05-4.21.55-8.02,3.02-11.76,3.13-4.74,1.02-9.61-3.89-12.46-3.44-2-6.2.27-9.79,1.04,1.67-4.96,2.43-9.33-.73-13.31-1.22-1.54-2.77-2.38-4.77-2.1-2.23.32-2.12,2.25-2.48,3.81-1.01,4.43-1.27,8.79,1.6,13.22-2.25-.1-4.05-.19-5.84-.27ZM468.65,565.6c4.77-.07,6.14-2.39,5.94-9.59-.12-4.32-2.84-7.27-6.52-7.07-.17,0-.34,0-.5.04-8.2,2.01-1.74,8.29-3.4,12.35-1.13,2.75,2.1,3.98,4.49,4.27ZM590.1,503.57c1.43-1.25,2.8-2.42,4.14-3.63,1.92-1.75,3.77-3.73,1.8-6.38-1.96-2.64-4.94-3.41-7.99-2.34-2.14.75-3.07,3-2.04,4.91,1.29,2.41,2.53.81,3.61-.67.85-1.17,2.32-.93,3.13-.23,1.41,1.22-.23,1.97-.92,2.66-.92.94-2.13,1.59-3.06,2.52-1.45,1.45-4.27,2.36-3.45,4.91.7,2.18,3.39,1.6,5.24,2.1.95.26,1.96.38,2.94.44,1.56.1,2.65-.62,2.6-2.25-.08-2.38-1.36-1.47-2.66-.93-.92.38-1.96.1-3.33-1.12ZM465.06,520.51c.32-4.09-1.73-6.42-5.55-6.96-2.79-.39-5,.94-5.46,3.88-.58,3.72,1.78,5.42,5.02,6.22.89.22,2.24-.16,1.84,1.48-.34,1.4-1.53,2.01-2.69,2.73-.99.61-3.86-1.28-2.89,1.58.68,1.97,3.03,1.63,4.79.72,3.97-2.03,4.49-5.85,4.93-9.67ZM562.52,592.42c1.32-2.57,3.34-1.64,4.96-1.84.81-.1,1.78-.18,1.73-1.21-.02-.47-.73-1.18-1.25-1.3-2.41-.59-4.99-1.41-7.18.3-1.64,1.28-.96,3.41-.89,5.17.12,3.02,2.62,2.37,4.47,2.63,1.58.22,2.91.83,3.43,2.43.3.94.37,1.97-.78,2.57-1.51.79-2.87.39-4.21-.45-.6-.37-.64-1.64-1.9-1.1-.6,3.09.73,4.78,3.84,4.82,2.79.04,5.53-.55,6.01-3.92.8-5.65-3.48-6.77-8.24-8.09ZM596.96,573.48c-3.29-.22-3.01-2.82-3.42-5.19-.27-1.51.13-3.75-1.8-4.29-2.02-.56-2.56,1.59-3.51,2.85-.79,1.05-1.6,2.09-2.43,3.12-.89,1.11-2.61,1.85-2,3.65.64,1.87,2.44,1.23,3.83,1.48,1.07.19,2.46-.48,3.16.78.71,1.29-.6,3.99,1.8,3.91,2.23-.08,1.06-2.71,1.69-4.1.52-1.15,2.41-.26,2.68-2.22ZM596.57,540.64c-.06,3.11.55,5.39,3.06,6.13,2.8.83,5.19-.71,7.04-2.73,1.76-1.92,1.74-4.13.59-6.46-.53-1.07-3-1.51-1.15-3.47,2.12-2.24.6-3.24-1.54-3.57-2.45-.38-5.92-2.47-7.08.38-.83,2.05,2.9,1.52,4.6,2.14.24.09.44.3.62.43-2.03,3.12-2.1,3.25.81,4.72,1.79.91,2.02,2.22,1.34,3.66-.89,1.88-2.74,2.54-4.6,1.81-1.21-.47-2.12-1.7-3.69-3.04ZM489.82,583.75q5.72.3,3.13,5.27c-.77,1.47-1.59,2.9-2.36,4.37-.5.95-.73,1.94.51,2.47.94.4,1.59-.24,1.99-.99,1.35-2.46,2.78-4.9,3.91-7.46.8-1.82,3.48-3.89,1.35-5.65-2.02-1.67-5.05-2.37-7.89-2.35-1.52,0-2.34,1.18-2.18,2.74.08.84.5,1.57,1.53,1.6ZM564.23,467.76c-.08,0-.15,0-.23,0,0,2.14-.1,4.29.04,6.43.09,1.35.63,2.74,2.29,2.7,1.37-.03,1.87-1.27,2.03-2.45.63-4.44.56-8.88-.15-13.31-.17-1.06-.69-1.97-1.81-2.05-1.45-.09-2.05,1.07-2.13,2.24-.14,2.13-.04,4.29-.04,6.43ZM524.89,446.2c-.56.05-1.11.1-1.67.15-.19,4.21-.39,8.43-.54,12.64-.02.64.07,1.43.88,1.59,1.1.22,1.44-.65,1.58-1.46.77-4.36,1.11-8.7-.26-12.92ZM489.68,468.11c1.97-4.67,2.55-9.44,1.28-14.37-2.29,4.64-2.05,9.48-1.28,14.37ZM498.34,454.25c-2.61,5.23-2.55,10.43.06,14.6.62-5.25.83-9.93-.06-14.6Z"/><path class="cls-3" d="M449.98,581.99c-.19,4.23,3.03,6.72,5.05,9.82.87,5.52,5.01,8.82,8.7,12.25,15.01,13.96,32.48,23.28,52.38,28.51,26.39,6.95,50.53,1.95,73.32-12.11.23-.14.61-.02,1.41-.02-2.03,5.81-6.76,8.86-11.13,12.12-12.82,9.58-27.61,13.07-43.28,14.58-20.33,1.97-39.28-3.55-57.66-10.65-13.95-5.39-24.72-16.03-34.75-27.04-9.85-10.8-17.39-22.93-22.3-36.82-7.6-21.5-11.85-43.57-7.38-66.02,5.38-27,18.72-49.85,41.01-66.89,7.4-5.66,14.49-11.69,24.19-13.17,2.15-.33,4.26-.58,6.42-.63l.1.12c-13.36,6.38-23.92,16.11-33.17,27.48-1.37,1.68-2.03,3.32-1.87,5.4-2.1,2.22-4.39,4.29-5.77,7.1-2.34.75-3.14,2.85-4.1,4.77-5.79,11.57-8.55,23.98-10.26,36.7-2.96,22.03.13,43.1,10.46,62.84,2.21,4.22,3.72,9.29,8.63,11.65Z"/><path class="cls-14" d="M502.04,424.86c2.08.46,4.39.23,6.03,2.02-.45,8.24,6.94,8.32,11.65,11.18,4.04,2.82,4.05,3.54,0,5.94-.71.42-1.53.66-2.23,1.09-2.21,1.35-6.04-.78-6.92,1.97-.71,2.22.92,5.12,1.24,7.75,2.14,17.83,5.1,35.51,9.63,52.9.57,2.18.95,4.51,4.03,2.41,4.8-.75,9.23.15,13.25,2.94,6.76,6.84,9.31,14.85,6.31,24.17-1.69,5.26-4.66,9.31-11.04,8.87-1.34-.09-2.24.46-2.99,1.41-2.24,2.81-4.42,2.58-6.77-.91-.41,3-1.21,4.76-4.04,4.54-2.79-.22-2.9-2.37-3.4-4.23-.67-2.46-1.78-4.32-4.03-5.91-4.6-3.23-4.68-8.26-3.61-13.12.62-2.83.23-5.2-.92-7.67-6.78-14.47-12.19-29.51-18.28-44.27-.65-1.58-2.22-3.4.34-4.68,2.04-1.03,4.03-.62,5.31,1.28,2.32,3.45,4.47,7.01,6.63,10.56,1.03,1.7,1.92,3.48,3.86,5.24,0-2.66.12-5.33-.02-7.98-.5-9.81-1.09-19.61-1.64-29.42-.33-5.82-5.38-9.61-10.91-7.46-3.46,1.34-6.06,1.25-8.57-1.28-2.74-2.77-2.59-5.91-.89-9.15,1.11-.93,2.65-1.44,2.99-3.11,0,0-.09.06-.09.06,4.39-.42,9.04-.32,11.1-5.48.5-.18,1-.37,1.5-.55.48,1.28,1.54.93,2.49.88ZM541.05,537.05c3.9-8.02,1.65-18.02-6.03-20.89,6.1,6.6,6.41,13.62,5.94,20.81-1.98,2.55-3.89,5.18-7.86,7.01,5.88.09,8.03-2.3,7.95-6.93ZM491.66,473.4c6.75,14.87,12.14,30.21,18.9,44.96,1.79,3.91,2.7,7.57,1.75,11.98-1.24,5.81,1.94,9.5,7.78,9.43,3.15-.04,4.97,1.11,6.3,3.79.46.94.7,3.05,2.7,1.76,1.54-.99.78-2.23.2-3.49-.85-1.86-2.79-3-2.4-5.72.79-5.52-1.68-10.14-5.86-13.56-2.68-2.19-4.54-4.78-6.03-7.79-4.51-9.08-8.98-18.19-13.63-27.2-2.63-5.09-5.22-10.26-9.71-14.16ZM519.02,513.41c-5.32-22.15-7.85-44.84-11.4-67.36-.97,11.69.42,23.21.96,34.77.55,11.82,2.24,23.03,10.44,32.6ZM507.62,441.94c-1.61-.78-2.57-1.3-3.57-1.73-3.91-1.66-8.61-1.5-11.19-6.12-1.01-1.81-3.94-1.47-5.81.11-1.92,1.62-2,3.89-1,5.89.98,1.94,3.11,2.77,5.09,1.84,3.29-1.56,6.41-.61,9.68-.27,2,.21,3.79,2.3,6.8.29ZM526.86,518.61c5.75,5.11,7.91,10.85,6.84,17.74-.14.9-.94,2.06.56,2.39,1.5.33,2.11-1.06,2.32-2.09,1-4.96.99-10-1.93-14.29-1.5-2.21-3.32-5.22-7.78-3.75ZM499.42,435.97c5.36,1.9,10.47,3.71,15.57,5.52.78.28,1.57.69,2.31.05.64-.56.42-1.38-.17-1.65-4.89-2.23-9.78-4.46-14.77-6.42-.68-.27-2.22.53-2.94,2.49ZM501.86,431.31c-2.37-3.24-4.75-1.35-6.93-.92-.78.16-.6,1.16-.12,1.59,2.4,2.21,4.46.27,7.05-.68ZM534.3,515.57c-2.11-3.17-4.87-2.65-7.78-1.09,2.59.36,5.19.73,7.78,1.09ZM520.67,548.23c.83-1.84,2.42-3.43.63-5.21-.43-.43-2.51-.14-2.68.28-.81,2.03.28,3.54,2.05,4.93ZM530.36,530.31v5.52c.68-1.63.88-3.19,0-5.52Z"/><path class="cls-10" d="M498.04,424.54c-2.06,5.15-6.71,5.05-11.1,5.48,3.15-2.94,7.49-3.47,11.1-5.48Z"/><path class="cls-13" d="M591.89,457.94c1.82.08,3.74.05,3.92,2.56.03.34-.49,1.06-.71,1.04-2.18-.19-2.87-1.77-3.18-3.64,0,0-.04.05-.04.05Z"/><path class="cls-10" d="M487.03,429.95c-.33,1.67-1.88,2.18-2.99,3.11-.44-.42-.88-.85-1.33-1.27,1.2-1.16,2.58-1.93,4.32-1.83Z"/><path class="cls-13" d="M601.9,468.86c-1.93-.2-3.05-1.04-2.59-3.39,1.02,1.34,1.8,2.36,2.59,3.39Z"/><path class="cls-10" d="M502.04,424.86c-.95.05-2.01.4-2.49-.88.7-.88,1.57-.95,2.55-.53-.02.47-.04.94-.06,1.41Z"/><path class="cls-3" d="M485.96,425.94c.48-.74,1.15-.99,1.99-.75.12.03.18.24.27.37-.72.17-1.44.33-2.16.5,0,0-.1-.12-.1-.12Z"/><path class="cls-3" d="M593.08,618.25c.06.27.25.6.15.75-.14.22-.49.31-.75.45-.06-.27-.26-.61-.16-.79.12-.21.49-.28.76-.41Z"/><path class="cls-6" d="M227.26,404.2c8.45-4.13,17.1-5.93,26.38-2.9,20.67,6.76,38.59,17.62,52.74,34.42,9.61,11.41,16.86,24.34,23.81,37.36,4.98,9.33,4.85,20.25,6.58,30.56,4.36,25.96-2.74,49.15-15.74,71.45-5.59,9.58-14.56,12.83-23.47,16.42-26.82,10.81-52.42,7.33-76.65-7.94-4.35-2.75-8.53-5.78-12.79-8.67-1.36-1.62-2.72-3.24-4.09-4.87.05-.88.11-1.77-.98-2.13l.15-.04c-10.08-15.42-19.26-31.26-23.76-49.36-.31-1.24-.67-2.65-2.43-2.68-.65-5.08-1.31-10.15-1.96-15.23,2.31-3.89,1.69-8.26,1.82-12.45.5-16.57,4.05-32.22,13.43-46.17,6.32-9.4,14.18-17.51,21.83-25.79.22.05.45.08.68.07,5.11,6.98,3.48,15.41,4.55,23.49-1.69-2.47-3.31-4.99-5.11-7.38-1.13-1.49-2.11-4.26-4.4-3.12-2.19,1.09-1.69,3.64-.71,5.73.53,1.53.55,3.27,1.79,4.52-.27,1.76.63,3.12,1.49,4.51.19,1.3.33,2.62,1.5,3.5.02.7.05,1.4.07,2.1.5,1.05,2.29,1.91.5,3.31,0,0-.01.03-.01.03-4.41.21-4.66,3.71-5.05,6.76-.43,3.28-.68,6.76,3.38,8.34-1.16,2.2-3.07.22-4.52.81-.99-5.18.64-10.66-1.98-15.69-.25,5.16-1.05,10.28,0,15.42-2.84-.72-4.98.37-6.11,2.9-1.19,2.68.71,4.54,2.6,5.81,4.59,3.08,7.29,7.37,9.48,12.34,2.41,5.47,8.13,5.61,11.79.86,1.87-2.43,2.53-5.31,3.86-7.93,3.88,7.71,10.04,14.23,11.38,23.32.54,3.64,2.6,7.31,7.16,7.91,2.42.32,1.69,2.07,1.69,3.38,0,2.42.01,4.77,2.96,5.52,2.4.6,4.69.57,5.84-2.18.76-1.84,2.94-1.29,4.03-2.54l1.91.2.22.17.27-.06c1.69,4.06,4.09,2.77,5.99.47,4.01-4.86,7.41-10.12,7.97-16.67.21-2.49.13-4.93-1.54-7.02-.62-2.94-2.5-5.06-4.56-7.07-.48-.67-.97-1.33-1.45-2-.29-10.14-1.75-20.24-.68-30.43.29-2.76,3.08-7.32-1.78-7.75-4.59-.41-3.75,4.83-3.96,7.77-.67,9.46-1.04,18.93-2.5,28.32-4.41.08-3.54-3.63-3.75-5.9-.74-7.9-.92-15.85-1.55-23.76-.14-1.72.93-4.64-2.62-4.61,0-.36,0-.74,0-1.12,1.46,1.18,2.1.35,2.07-1.05-.06-2.52.44-5.16-1.15-7.45-3.77-3.02-5.65-.65-6.87,2.62-1.23,3.3-.95,6.85-1.02,10.32-3.23-3.25-2.59-8.08-4.81-11.75-.7-1.16-.55-3.48-2.55-2.91-1.51.43-.82,2.35-.58,3.53,1.85,9.08,3.43,18.24,7.25,26.8.33,5.82.65,11.63.98,17.45-6.8-8.36-11.64-17.96-17.02-27.22-3.22-5.55-5.43-11.65-9.25-16.92q4.48-1.47,7.34,4.66c2.63-1.35-1.23-6.51,3.44-6.29,3.24.16-.07,4.52,3.09,5.42,1.13-3.97.87-8.02-.15-12-.28-1.09-.79-2.15-.79-3.31.02-3.32-.43-6.75.24-9.93.9-4.26,5.81-.85,7.89-3.38,4.66-.29,8.93-2.25,13.43-3.19,1.68-.35,2.53-1.33,2.66-3.06.16-2.1-1.07-3.06-2.81-3.44-4.8-1.05-9.44-2.91-14.43-3.08-3.67-.93-7.11,2.14-10.81.63.17-.23.22-.48.17-.75ZM211.73,527.5c.02-.15.05-.64.13-1.12.67-4.04-1.54-5.56-5.11-5.51-3.81.06-4.25,2.68-3.48,5.59.31,1.16-.13,1.83-.44,2.74-1.36,4,.62,6.54,4.79,6.01,4.54-.58,5.02-3.64,4.1-7.71ZM263.96,566.2c-.8-3.72-2.74-4.08-5.12-2.55-3.66,2.34-4.25,9.97-1.11,12.92,1.29,1.21,2.8,1.89,4.53,1.17,1.91-.79,2.69-2.44,2.53-4.42-.16-1.89-.83-3.58-2.9-4.19-1.17-.34-3.84,1.25-2.59-2.08.96-2.57,2.57-2.46,4.67-.84ZM295.3,556.93c-1.7-2.27-3.68-3.69-5.97-2.45-2.1,1.13-1.42,3.54-1.38,5.46.07,3.08,2.19,3.29,4.57,3,1.66-.2,2.21.97,1.94,2.13-.47,1.98-1.88,3.09-4.07,2.54-.75-.19-1.6-1.01-2.1.05-.49,1.03.27,1.98,1.08,2.53.63.42,1.62.79,2.29.6,2.82-.8,5.38-2.08,5.5-5.54.11-3.12-.47-5.78-4.58-5.4-1.05.1-2.08,0-1.93-1.47.11-.98.78-1.33,1.75-1.31.97.02,1.94-.09,2.91-.14ZM264.61,426.03c-.54,2.31-2.57,3.15-3.8,4.61-1.45,1.73-2.97,3.71-1.43,5.76,1.57,2.09,4.19,1.52,6.5.99,1.29-.3,2.23-1.15,1.76-2.49-.54-1.55-1.51-.38-2.36-.11-1.09.35-2.51.74-3.12-.44-.64-1.22.61-2.16,1.45-2.88,1.65-1.4,3.57-2.53,3.58-5.07.02-2.6-1.16-4.35-3.85-3.98-1.83.25-5.09.67-4.72,2.66.52,2.8,3.24.25,4.97.54.15.02.29.11,1.01.4ZM311.85,475.54c.93-2.8,3.52-3.57,4.67-5.52,1.25-2.12,1.88-4.5-.94-5.93-2.24-1.14-4.54-1.08-6.07,1.37-.31.5-.47,1.33-.27,1.85.23.61.95.89,1.6.29,1.22-1.14,2.76-2.76,4-.66,1.1,1.87-1.32,2.63-2.4,3.72-.69.7-1.51,1.29-2.16,2.03-1.09,1.24-2.57,2.72-1.32,4.33,1.93,2.49,4.91,1.34,7.43,1.25,2.23-.08,2.54-1.65,1.57-3.86-1.76,1.71-3.74,1.94-6.11,1.13ZM318.79,502.53c4.11-.83,3.42,4,6.3,4.78,3.01.82,1.61,2.64.19,3.92-1.93,1.75-3.81.55-5.49-.8-.99,2.08-.39,3.47,1.1,4.12,2.21.97,4.21-.21,6.04-1.37,5.01-3.2.02-7.26.82-10.87.26-1.15-1.02-1.62-2.06-1.61-2.24.02-4.61-.51-6.89,1.83ZM196.24,503.19c5.91-2.48,8.58-9.44,6.25-13.15-1.16-1.84-2.88-2.63-5.07-2.36-1.92.24-2.88,1.54-3.29,3.24-.49,2.06-.28,4.58,1.78,5.15,4.74,1.31,2.97,3.62.32,7.12ZM314.88,547.78c1.98-2.18-.16-5.31,3.15-5.94.55-.1.96-1.25.06-1.47-3.38-.8-1.53-3.44-1.99-5.25-.24-.93-.31-1.92-.69-2.79-.08-.18-1.49-.16-1.71.17-1.94,2.85-3.83,5.75-5.54,8.75-.32.56.79,1.1,1.38.99,3.83-.72,4.49,2.18,5.35,5.54ZM227.28,563.22c4.24-3.99,4.76-8.67,5.64-12.99.45-2.24-2.07-2.1-3.67-1.92-1.72.19-3.93,0-4.05,2.6-.06,1.23.71,1.68,1.98,1.18,3.56-1.41,2.04.99,1.77,2.41-.49,2.53-2.17,4.81-1.65,8.72ZM291.38,448.45c1.26-3.82,1.72-7.7.99-11.65-.14-.78-.34-1.71-1.41-1.77-.82-.04-1.25.59-1.17,1.27.5,4.02-.67,8.22,1.59,12.15ZM254.69,423.17c-1.02,4.51-1.73,9.08.5,13.46.85-4.51,1.16-8.99-.5-13.46Z"/><path class="cls-3" d="M175.07,500.59c.65,5.08,1.31,10.15,1.96,15.23,1.85,18.84,9.98,34.93,21.75,49.39,1.09,1.34,2.14,3.14,4.43,2.66,0,0-.15.04-.15.04-.1.91.11,1.67.98,2.13,1.36,1.62,2.72,3.24,4.09,4.87-1.62,1.07-.64,1.88.27,2.7,19.34,17.65,41.99,25.76,68.14,23.25,7.62-.73,14.93-3.16,22-6.15,1.29-.55,2.46-1.63,4.42-1.19-1.43,3.28-4.53,4.1-6.78,5.83-18.19,14.06-38.34,16.59-60.29,10.93-17.78-4.59-31.67-14.92-45.83-26.08-23.32-18.4-31.3-43.7-35.98-70.91-3.54-20.63.45-40.76,7.15-60.2,7.87-22.82,32.83-43.77,56.03-47.65-3.81,3.16-4.76,6.79-4.44,10.84-.23,0-.46-.02-.68-.07-3.14-2.77-4.9.28-6.56,1.89-16.28,15.76-29.71,33.2-31.33,56.96-.58,8.5-2.99,17.15.81,25.55Z"/><path class="cls-5" d="M210.45,444.02c-.86-1.38-1.77-2.75-1.49-4.51.88.3,1.74.3,1.49-.92-.3-1.48.44-1.62,1.54-1.54,8.88,16.17,17.08,32.72,27.01,48.32,2.26,3.55,4.32,6.69,8.65,8.38,6.22,2.42,7.2,5.27,5.17,12.03-1.09,3.62,1.8,5.78,2.73,8.94-2.24.55-3.12-1.03-4.04-2.24-1.57-2.05-2.89-3.72-6.13-2.9-3.12.79-3.77-2.37-4.25-4.46-2.68-11.85-9.87-21.58-14.9-32.32-3.6-7.67-7.27-15.31-10.95-22.94-.88-1.82-1.87-4.51-3.25-.23-.03-.7-.05-1.4-.07-2.1,3.08.13,1.44-1.79,1.08-2.83-.41-1.21-1.17-2.61-2.59-.67ZM242.9,503.19c-.02,2.18.71,4.29,3.03,4.28,2.37-.01,4.44-1.36,4.18-4.33-.22-2.44-1.03-4.78-3.95-4.67-2.78.1-2.98,2.57-3.26,4.72Z"/><path class="cls-1" d="M250.96,448.53c0,.38,0,.76,0,1.12.03,14.16,1.12,28.29,1.99,42.44l.08-.11c-2.66-1.65-6.8-1.54-7.14-5.97.04-10.75.06-21.51.11-32.26.01-3.14-.05-6.31.87-9.36.57-1.88.96-4.15,3.91-2.99l.18,7.13Z"/><path class="cls-15" d="M258.88,483.92c1.47-9.39,1.84-18.86,2.5-28.32.21-2.94-.64-8.18,3.96-7.77,4.85.43,2.07,4.98,1.78,7.75-1.07,10.18.39,20.29.68,30.43-.28,0-.57,0-.85.02-2.69-.7-5.38-1.4-8.06-2.11Z"/><path class="cls-14" d="M225.94,482.58c-1.32,2.62-1.98,5.5-3.86,7.93-3.66,4.76-9.38,4.62-11.79-.86-2.19-4.97-4.89-9.26-9.48-12.34-1.89-1.27-3.8-3.13-2.6-5.81,1.13-2.53,3.27-3.62,6.11-2.9.66.09,1.33.18,1.99.27,1.45-.59,3.36,1.39,4.52-.81,1.7-.66,5.07.78,4.08-3.26.08-.6.16-1.21.24-1.81,5.43-3.03,3.64,2.27,4.79,4.16-4.59,3.58-9.73,4.65-15.43,3.57-1.42-.27-3.21-.33-3.96,1.34-.82,1.82.71,2.74,1.95,3.53,4.54,2.89,7.54,6.91,9.34,11.96.64,1.8,1.36,4.48,3.74,3.88,2.39-.6,2.37-3.29,2.3-5.52-.12-3.84-.35-7.71,2.52-10.86,4.28.72,5.12,3.96,5.53,7.53Z"/><path class="cls-1" d="M220.41,475.05c-2.88,3.15-2.65,7.02-2.52,10.86.07,2.23.09,4.92-2.3,5.52-2.39.6-3.1-2.08-3.74-3.88-1.8-5.05-4.8-9.07-9.34-11.96-1.24-.79-2.77-1.71-1.95-3.53.75-1.67,2.54-1.61,3.96-1.34,5.7,1.08,10.84,0,15.43-3.57,1.39,2.56,2.7,5.12.46,7.89Z"/><path class="cls-15" d="M237.9,404.33c4.99.17,9.63,2.03,14.43,3.08,1.74.38,2.98,1.34,2.81,3.44-.13,1.73-.98,2.71-2.66,3.06-4.51.94-8.77,2.91-13.43,3.19,1.85-4.46.49-8.64-1.15-12.79Z"/><path class="cls-14" d="M250.77,441.4c-2.95-1.16-3.34,1.11-3.91,2.99-.92,3.05-.86,6.21-.87,9.36-.05,10.75-.08,21.51-.11,32.26-.54.02-1.08.05-1.62.07-.33-5.82-.65-11.63-.97-17.45,1.27-5.18.42-10.45.7-15.67.07-3.47-.21-7.02,1.02-10.32,1.22-3.27,3.1-5.63,6.87-2.62-.37.46-.73.91-1.1,1.37Z"/><path class="cls-5" d="M220.65,432.86c-2.31-5.9-1.07-12.23-4.46-17.51-.88-1.37-.45-3.63,1.41-4.83,1.21-.78,2.54-.86,3.77-.16,1.93,1.1,2.14,3.18,1.55,4.83-2.02,5.6-1.31,11.48-2.26,17.67Z"/><path class="cls-3" d="M228,428.66c0,2.32-.01,4.63,0,6.95,0,1.67-.9,2.35-2.48,2.37-1.3.01-2.7-.43-2.29-1.83,1.42-4.84.02-9.92,1.51-14.71.33-1.05.42-2.5,2.1-2.14,1.26.27,1.16,1.45,1.17,2.42.03,2.32,0,4.63,0,6.95Z"/><path class="cls-14" d="M273.81,495.07c1.68,2.08,1.75,4.53,1.54,7.02-.56,6.55-3.96,11.81-7.97,16.67-1.9,2.3-4.3,3.6-5.99-.47,3.36-.65,6.57-1.54,7.67-5.4.94-.76.74-1.85.83-2.85,3.31-1.03,2.71-3.97,3.08-6.4.44-2.84-.86-5.84.83-8.56Z"/><path class="cls-3" d="M262.08,499.46c-.09-.76-.24-2.41-.49-4.04-.16-1.05-1.28-2.31.34-2.96,1.08-.44,1.76.7,2.41,1.4,2.28,2.43,2.38,12.2.23,14.73-.97,1.15-2.26,1.74-3.53,1.1-1.61-.81-.36-2.07.1-2.96,1.07-2.05.77-4.22.94-7.27Z"/><path class="cls-5" d="M215.15,462.99c-.08.6-.16,1.21-.24,1.81-3.58,3.31-4.12.47-4.96-2.33-1.14-3.78,2.39-6.17,2.56-9.52,0,0,0-.03.01-.03.49,3.46,3.65,6.21,2.63,10.06Z"/><path class="cls-3" d="M225.35,408.54c3.25-.08,7.04-2.26,7.62,2.87.26,2.25.01,4.36-3.02,4.59-7.04.52-1.03-6.02-4.6-7.45Z"/><path class="cls-10" d="M317.96,584.96c.81.34.81.99.34,1.51-4.96,5.52-9.64,11.36-16.35,14.98-1.34-1.04-.18-1.64.46-2.23,5.17-4.77,10.36-9.51,15.55-14.26Z"/><path class="cls-10" d="M331,562.94c-1.08,7.55-4.72,13.74-10.05,19.04,2.14-6.99,6.43-12.84,10.05-19.04Z"/><path class="cls-3" d="M269.9,510.03c-.1,1,.1,2.1-.83,2.85-1.01.05-2.02.1-3.04.15l-.07-.09c3.82-5.87,4.29-12.36,3.4-19.15,2.83,5.38,1.52,10.81.54,16.23Z"/><path class="cls-3" d="M260.91,518.19l-1.91-.2c-1.14-6.46,3.56-4.85,6.96-5.04,0,0,.07.09.07.08-.82,2.6-5.06,1.8-5.12,5.15Z"/><path class="cls-3" d="M256.37,487.52c3.45-2.24,5.66-.79,8.52.82-3.31,1.18-5.69.28-8.52-.82Z"/><path class="cls-3" d="M227.26,404.2c.06.28,0,.53-.17.75-2.64,0-5.28,0-8.83,0,3.46-2.09,6.12-2.7,9-.75Z"/><path class="cls-14" d="M211.98,437.05c-1.1-.07-1.84.06-1.54,1.54.25,1.23-.61,1.22-1.49.92-1.24-1.25-1.26-2.99-1.79-4.52,1.71.44,4.3-1.18,4.82,2.05Z"/><path class="cls-10" d="M281.96,408.55c2.8.43,4.79,1.96,6.02,4.5-3.04-.11-5.46-1.06-6.02-4.5Z"/><path class="cls-3" d="M266.94,486.03c.28-.01.57-.02.85-.02.48.67.97,1.33,1.45,2-.7.96.31,3.41-1.28,3.05-3.07-.7-.04-3.42-1.02-5.03Z"/><path class="cls-14" d="M249.76,518.43c.41-.53-.06-1.85,1.11-1.66.92.15,1.79.98,1.8,1.98.02,1.19-1.2.58-1.83.84-1.09.46-1.42-.07-1.08-1.16Z"/><path class="cls-14" d="M258,501c-1.03-1.95-1.43-3.95-.36-6.79.53,2.71.94,4.76,1.34,6.81-.33-.02-.66-.02-.98-.02Z"/><path class="cls-14" d="M319.28,446.99c1.88.26,2.03,1.74,2.61,3.21-2.01.17-2.74-.68-2.89-2.21l.28-1.01Z"/><path class="cls-8" d="M258,501c.33,0,.66,0,.98.02-.13,1.5.45,3.21-1.23,4.39-1.56-1.65.6-2.95.24-4.4Z"/><path class="cls-10" d="M320.98,581.95c-.25,1.77-.54,3.48-3.02,3.02.57-1.44.97-3.06,3.02-3.02Z"/><path class="cls-10" d="M314.97,439.96c1.49.96,2.65,2.09,2.04,4.09-1.28-1.07-2.56-2.13-2.04-4.09Z"/><path class="cls-10" d="M291.95,416c1.48,0,2.47.74,3.07,2.05-1.93.67-2.81-.23-3.07-2.05Z"/><path class="cls-10" d="M287.95,413.03c1.26.08,2.53.16,2.02,2.01-1.12-.22-2.42-.27-2.02-2.01Z"/><path class="cls-14" d="M323,454.73c-.23-.19-.45-.38-.67-.57.19-.15.37-.34.59-.44.06-.03.35.2.34.28-.03.25-.16.49-.25.73Z"/><path class="cls-10" d="M319.28,446.99l-.28,1.01c-1.46-.62-1.3-1.81-1.04-3.03.33.01.66.03,1,.04.11.66.22,1.32.32,1.98Z"/><path class="cls-14" d="M209.77,432.93c-.04.11-.09.23-.13.34-.13-.13-.25-.26-.38-.39.09-.08.19-.17.28-.25.08.1.15.2.23.31Z"/><path class="cls-10" d="M332.01,560.97c-.07.83.35,1.91-1.06,2.05-.14-.94-.07-1.77,1.06-2.05Z"/><path class="cls-10" d="M289.96,415.04c1.33-.97,1.71-.02,2.06,1.01-1.16.63-1.73.04-2.06-1.01Z"/><path class="cls-14" d="M326.36,459.73c.1.01.25-.02.3.04.07.09.06.23.08.36-.17-.02-.34-.04-.51-.05.04-.11.09-.23.13-.34Z"/><path class="cls-1" d="M252.94,492.09c.28-.39.53-.38.7.06.05.13-.05.3-.07.46-.18-.21-.36-.42-.55-.62,0,0-.08.11-.08.11Z"/><path class="cls-10" d="M294.95,417.99c.76-.06,1,.42,1.08,1.06-1,.3-1.64.24-1.08-1.06Z"/><path class="cls-12" d="M297.08,420.79c.64-.48.74-.05.79.47-.36,0-.62-.15-.79-.47Z"/><path class="cls-10" d="M316.95,443.98c1.15-.45,1.03.39,1.08,1.06-1.04.34-1.04-.38-1.08-1.06Z"/><path class="cls-15" d="M538.71,513.08c-4.01-2.79-8.44-3.7-13.25-2.94-1.39-11.01-2.85-22.01-4.11-33.03-.18-1.55-1.35-4.17,1.28-4.56,1.92-.28,2.11,2.22,2.67,3.68,2.53,6.6,2.2,13.71,3.53,20.53.46,2.36,1,4.71,2.22,7.06,2.82-14.37,4.16-28.82,5.13-43.32,1.79-.76,2.07-2.18,1.71-3.89.21-1.88.42-3.76.63-5.65l-.07-.07c1.03-1.15,1.32-3.49,3.51-2.87,2.3.66,1.85,2.9,1.86,4.64.09,13.8-.26,27.59-3.25,41.13-1.41,6.39-1.31,12.86-1.88,19.29Z"/><path class="cls-13" d="M467.38,494.77c1.8.08,3.59.17,5.84.27-2.86-4.43-2.61-8.79-1.6-13.22.36-1.56.25-3.49,2.48-3.81,2-.29,3.55.56,4.77,2.1,3.16,3.98,2.4,8.35.73,13.31,3.59-.77,6.34-3.04,9.79-1.04,4.9,2.85,7.02,7.72,3.89,12.46-2.47,3.74-3.07,7.55-3.02,11.76.05,3.7-.66,7.58-4.96,8.03-4.12.43-8.23-.81-10.46-5.07-.38-.73-.79-1.49-.96-2.29-1.38-6.23-4.67-10.78-10.77-13.25-2.19-.89-3.92-2.74-3.53-5.46.4-2.77,2.35-3.82,4.99-3.82.94.02,1.88.03,2.82.05ZM470.91,498c-2.05-.2-3.38-.47-4.7-.43-1.26.04-2.96-.17-3.24,1.55-.22,1.3,1.04,2.12,2.09,2.51,6.84,2.5,10.09,7.66,11.37,14.55.22,1.2.47,3.46,2.32,3.23,1.63-.2,2.77-1.83,3.06-3.58.21-1.3.09-2.66.12-3.99.1-4.77.86-9.28,4.56-12.79,1.24-1.18,2.41-2.85,1.19-4.38-1.29-1.6-3.04-.29-4.55.32-4.15,1.67-8.2,3.83-12.21,3.03ZM477.98,487.21c-.34-2.26-.31-5.63-2.86-5.54-2.37.08-1.47,3.49-1.51,5.39-.04,1.77-.45,4.76,2.1,4.83,2.72.07,1.83-2.9,2.28-4.68Z"/><path class="cls-2" d="M449.98,581.99c-4.91-2.36-6.42-7.44-8.63-11.65-10.33-19.74-13.42-40.8-10.46-62.84,1.71-12.73,4.47-25.13,10.26-36.7.96-1.92,1.76-4.02,4.1-4.77-.91,5.8-4,10.83-5.77,16.37-10.88,34.1-7.21,66.56,9.92,97.74.31.56.39,1.23.57,1.86Z"/><path class="cls-13" d="M527.15,601.15c1.16.03,2.36-.13,3.46.12,2.15.5,3.36,2.04,3.73,4.19.37,2.15-.28,4.08-2.12,5.21-1.79,1.1-3.86,1.04-5.69-.08-2.8-1.72-4.06-4.48-3.94-7.6.13-3.43,1.39-6.65,4.6-8.35,2.98-1.57,4.79.29,7.28,3.88-4.32-1.78-7.19-2.14-8.11,1.98.04.42.09.84.13,1.25.22-.2.44-.41.66-.61Z"/><path class="cls-13" d="M468.65,565.6c-2.39-.3-5.61-1.52-4.49-4.27,1.66-4.06-4.8-10.34,3.4-12.35.16-.04.33-.03.5-.04,3.69-.19,6.4,2.75,6.52,7.07.2,7.2-1.17,9.52-5.94,9.59ZM472.36,560.74c-.05-1.32-.89-1.61-1.95-1.58-1.43.04-3.12-.21-3.51,1.72-.29,1.47.8,1.99,2.06,1.99,1.55,0,2.84-.54,3.4-2.13ZM471.94,554.88c-.47-1.76-1.82-2.59-3.49-2.85-.9-.14-2.34-.05-2.2,1.19.2,1.77,1.67,2.68,3.42,2.84.89.08,2.02.28,2.27-1.18Z"/><path class="cls-13" d="M590.1,503.57c1.37,1.21,2.41,1.5,3.33,1.12,1.3-.54,2.59-1.45,2.66.93.05,1.64-1.04,2.35-2.6,2.25-.99-.06-1.99-.19-2.94-.44-1.85-.5-4.54.08-5.24-2.1-.82-2.55,2-3.46,3.45-4.91.93-.93,2.15-1.58,3.06-2.52.68-.7,2.32-1.45.92-2.66-.81-.7-2.27-.94-3.13.23-1.08,1.47-2.32,3.08-3.61.67-1.02-1.92-.1-4.16,2.04-4.91,3.05-1.07,6.03-.3,7.99,2.34,1.96,2.64.12,4.63-1.8,6.38-1.33,1.21-2.71,2.38-4.14,3.63Z"/><path class="cls-13" d="M465.06,520.51c-.45,3.81-.96,7.63-4.93,9.67-1.76.9-4.11,1.25-4.79-.72-.98-2.86,1.9-.97,2.89-1.58,1.16-.72,2.35-1.33,2.69-2.73.4-1.64-.96-1.26-1.84-1.48-3.23-.8-5.6-2.5-5.02-6.22.46-2.94,2.67-4.27,5.46-3.88,3.83.54,5.87,2.86,5.55,6.96ZM461.91,518.93c-.21-1.35-1.11-1.94-2.36-2.11-1.04-.14-2.1-.01-2.39,1.18-.36,1.48.76,2.15,1.91,2.41,1.18.26,2.22-.23,2.84-1.48Z"/><path class="cls-13" d="M562.52,592.42c4.76,1.32,9.03,2.44,8.24,8.09-.48,3.37-3.22,3.97-6.01,3.92-3.11-.05-4.44-1.73-3.84-4.82,1.25-.53,1.3.73,1.9,1.1,1.34.84,2.7,1.23,4.21.45,1.15-.6,1.08-1.63.78-2.57-.51-1.61-1.85-2.22-3.43-2.43-1.85-.26-4.35.4-4.47-2.63-.07-1.76-.75-3.89.89-5.17,2.18-1.7,4.77-.88,7.18-.3.51.13,1.22.83,1.25,1.3.05,1.03-.92,1.11-1.73,1.21-1.63.2-3.64-.73-4.96,1.84Z"/><path class="cls-14" d="M596.96,573.48c-.28,1.95-2.16,1.07-2.68,2.22-.63,1.39.54,4.02-1.69,4.1-2.39.08-1.09-2.62-1.8-3.91-.69-1.26-2.08-.59-3.16-.78-1.39-.25-3.2.39-3.83-1.48-.61-1.8,1.11-2.55,2-3.65.83-1.03,1.64-2.06,2.43-3.12.95-1.26,1.49-3.41,3.51-2.85,1.93.54,1.53,2.77,1.8,4.29.42,2.37.13,4.97,3.42,5.19Z"/><path class="cls-8" d="M596.57,540.64c1.57,1.34,2.48,2.57,3.69,3.04,1.86.73,3.71.07,4.6-1.81.68-1.44.45-2.75-1.34-3.66-2.9-1.47-2.84-1.6-.81-4.72-.19-.13-.38-.34-.62-.43-1.7-.62-5.43-.09-4.6-2.14,1.15-2.85,4.63-.76,7.08-.38,2.14.33,3.66,1.33,1.54,3.57-1.85,1.96.63,2.4,1.15,3.47,1.15,2.34,1.17,4.55-.59,6.46-1.86,2.02-4.24,3.57-7.04,2.73-2.51-.75-3.12-3.02-3.06-6.13Z"/><path class="cls-13" d="M538.46,450.89s.07.07.07.07c-2.99,1.26-3.86,4.25-5.7,6.55,2.16,1.07,3.72.56,5.07-.91.37,1.71.09,3.13-1.71,3.89-1.16.12-2.31.3-3.47.34-1.5.05-3.21.14-3.99-1.42-.84-1.67.56-2.77,1.58-3.83,1.72-1.78,3.67-3.39,4.49-5.86-.75-1.15-1.76-.76-2.62-.41-1.06.43-2.21,2.3-2.98-.07-.49-1.49.72-2.48,2-3.04,3.42-1.48,6.17.32,7.26,4.69Z"/><path class="cls-8" d="M489.82,583.75c-1.03-.03-1.45-.76-1.53-1.6-.15-1.56.66-2.73,2.18-2.74,2.83-.02,5.86.68,7.89,2.35,2.13,1.76-.55,3.84-1.35,5.65-1.13,2.56-2.56,5-3.91,7.46-.41.74-1.05,1.39-1.99.99-1.24-.53-1.01-1.52-.51-2.47.77-1.46,1.59-2.9,2.36-4.37q2.59-4.97-3.13-5.27Z"/><path class="cls-13" d="M564.23,467.76c0-2.14-.1-4.29.04-6.43.08-1.18.67-2.34,2.13-2.24,1.12.07,1.64.99,1.81,2.05.71,4.43.78,8.87.15,13.31-.17,1.18-.66,2.41-2.03,2.45-1.66.04-2.2-1.35-2.29-2.7-.14-2.13-.04-4.28-.04-6.43.08,0,.15,0,.23,0Z"/><path class="cls-15" d="M519.71,438.07c-4.71-2.87-12.09-2.95-11.65-11.18,4.21,1.08,7.64,3.72,11.4,5.69,3.13,1.64,2.97,3.54.24,5.49Z"/><path class="cls-3" d="M467.38,494.77c-.94-.01-1.88-.03-2.82-.05,1.32-3.17.27-6.49.59-9.73.23-2.34.02-4.78,2.36-7.46,1.13,6.36.04,11.8-.13,17.23Z"/><path class="cls-8" d="M524.89,446.2c1.37,4.22,1.03,8.57.26,12.92-.14.8-.48,1.68-1.58,1.46-.81-.16-.91-.95-.88-1.59.15-4.21.35-8.43.54-12.64.56-.05,1.11-.1,1.67-.15Z"/><path class="cls-8" d="M489.68,468.11c-.77-4.89-1.01-9.73,1.28-14.37,1.26,4.93.69,9.7-1.28,14.37Z"/><path class="cls-3" d="M498.34,454.25c.89,4.67.68,9.35.06,14.6-2.61-4.17-2.66-9.37-.06-14.6Z"/><path class="cls-5" d="M491.66,473.4c4.49,3.9,7.08,9.07,9.71,14.16,4.65,9.01,9.12,18.12,13.63,27.2,1.5,3.01,3.35,5.6,6.03,7.79,4.18,3.42,6.65,8.04,5.86,13.56-.39,2.72,1.55,3.86,2.4,5.72.58,1.26,1.34,2.5-.2,3.49-2,1.29-2.23-.82-2.7-1.76-1.33-2.68-3.14-3.83-6.3-3.79-5.84.07-9.02-3.62-7.78-9.43.94-4.41.04-8.07-1.75-11.98-6.75-14.75-12.15-30.09-18.9-44.96ZM514,530.37c.26,2.13.83,4.7,4.04,4.78,2.24.05,3.87-1.54,3.78-3.79-.11-2.76-1.14-5.39-4.52-5.49-2.54-.07-3.3,1.78-3.3,4.51Z"/><path class="cls-5" d="M519.02,513.41c-8.2-9.57-9.9-20.78-10.44-32.6-.53-11.56-1.93-23.08-.96-34.77,3.55,22.53,6.08,45.21,11.4,67.36Z"/><path class="cls-5" d="M507.62,441.94c-3,2.02-4.8-.08-6.8-.29-3.27-.35-6.39-1.29-9.68.27-1.97.93-4.11.1-5.09-1.84-1-1.99-.92-4.26,1-5.89,1.87-1.58,4.8-1.92,5.81-.11,2.58,4.63,7.28,4.46,11.19,6.12,1,.42,1.96.95,3.57,1.73Z"/><path class="cls-3" d="M526.86,518.61c4.46-1.46,6.28,1.55,7.78,3.75,2.92,4.29,2.93,9.32,1.93,14.29-.21,1.02-.82,2.42-2.32,2.09-1.5-.33-.7-1.49-.56-2.39,1.07-6.89-1.09-12.63-6.84-17.74Z"/><path class="cls-3" d="M499.42,435.97c.72-1.97,2.26-2.76,2.94-2.49,4.99,1.96,9.89,4.19,14.77,6.42.59.27.81,1.09.17,1.65-.74.64-1.53.22-2.31-.05-5.1-1.82-10.21-3.62-15.57-5.52Z"/><path class="cls-3" d="M540.96,536.97c.47-7.19.16-14.21-5.94-20.81,7.68,2.87,9.93,12.87,6.03,20.89l-.09-.08Z"/><path class="cls-3" d="M501.86,431.31c-2.59.95-4.65,2.88-7.05.68-.48-.44-.66-1.44.12-1.59,2.19-.44,4.56-2.33,6.93.92Z"/><path class="cls-3" d="M534.3,515.57c-2.59-.36-5.19-.73-7.78-1.09,2.91-1.56,5.67-2.08,7.78,1.09Z"/><path class="cls-3" d="M541.05,537.05c.08,4.63-2.08,7.02-7.95,6.93,3.97-1.83,5.88-4.45,7.86-7.01,0,0,.09.08.09.08Z"/><path class="cls-10" d="M520.67,548.23c-1.77-1.39-2.86-2.9-2.05-4.93.17-.42,2.25-.71,2.68-.28,1.79,1.77.2,3.37-.63,5.21Z"/><path class="cls-8" d="M530.36,530.31c.88,2.32.68,3.89,0,5.52v-5.52Z"/><path class="cls-2" d="M175.07,500.59c-3.8-8.4-1.39-17.05-.81-25.55,1.62-23.76,15.05-41.2,31.33-56.96,1.67-1.61,3.42-4.66,6.56-1.89-7.65,8.28-15.51,16.39-21.83,25.79-9.38,13.95-12.93,29.6-13.43,46.17-.13,4.18.49,8.55-1.82,12.45Z"/><path class="cls-4" d="M203.21,567.87c-2.29.48-3.35-1.32-4.43-2.66-11.77-14.46-19.9-30.55-21.75-49.39,1.75.04,2.12,1.44,2.43,2.68,4.5,18.1,13.68,33.95,23.76,49.36Z"/><path class="cls-8" d="M211.73,527.5c.92,4.07.44,7.12-4.1,7.71-4.17.54-6.15-2.01-4.79-6.01.31-.91.75-1.58.44-2.74-.77-2.91-.34-5.53,3.48-5.59,3.57-.05,5.78,1.46,5.11,5.51-.08.48-.12.97-.13,1.12Z"/><path class="cls-15" d="M243.98,452.96c-.28,5.22.58,10.49-.7,15.67-3.82-8.55-5.4-17.71-7.25-26.8-.24-1.18-.93-3.11.58-3.53,2.01-.57,1.85,1.74,2.55,2.91,2.22,3.67,1.58,8.5,4.81,11.75Z"/><path class="cls-13" d="M263.96,566.2c-2.11-1.61-3.71-1.73-4.67.84-1.25,3.33,1.42,1.74,2.59,2.08,2.07.61,2.74,2.3,2.9,4.19.16,1.98-.62,3.63-2.53,4.42-1.73.72-3.24.04-4.53-1.17-3.14-2.95-2.55-10.58,1.11-12.92,2.38-1.53,4.32-1.17,5.12,2.55Z"/><path class="cls-8" d="M295.3,556.93c-.97.05-1.94.16-2.91.14-.97-.02-1.64.33-1.75,1.31-.16,1.46.87,1.57,1.93,1.47,4.12-.39,4.7,2.28,4.58,5.4-.13,3.46-2.69,4.74-5.5,5.54-.67.19-1.66-.17-2.29-.6-.81-.55-1.57-1.5-1.08-2.53.5-1.06,1.35-.24,2.1-.05,2.18.55,3.6-.56,4.07-2.54.27-1.16-.28-2.33-1.94-2.13-2.37.29-4.5.07-4.57-3-.04-1.93-.72-4.33,1.38-5.46,2.3-1.24,4.28.18,5.97,2.45Z"/><path class="cls-8" d="M264.61,426.03c-.73-.29-.87-.38-1.01-.4-1.73-.29-4.45,2.26-4.97-.54-.37-2,2.89-2.41,4.72-2.66,2.68-.37,3.86,1.38,3.85,3.98-.02,2.53-1.94,3.67-3.58,5.07-.85.72-2.09,1.66-1.45,2.88.61,1.18,2.03.78,3.12.44.85-.27,1.82-1.45,2.36.11.46,1.34-.48,2.19-1.76,2.49-2.3.53-4.92,1.1-6.5-.99-1.54-2.05-.02-4.03,1.43-5.76,1.23-1.46,3.26-2.3,3.8-4.61Z"/><path class="cls-8" d="M311.85,475.54c2.36.81,4.34.58,6.11-1.13.96,2.21.65,3.78-1.57,3.86-2.52.09-5.5,1.24-7.43-1.25-1.25-1.61.23-3.09,1.32-4.33.65-.74,1.47-1.33,2.16-2.03,1.08-1.1,3.5-1.86,2.4-3.72-1.24-2.1-2.78-.48-4,.66-.65.6-1.37.32-1.6-.29-.19-.52-.04-1.35.27-1.85,1.53-2.45,3.82-2.51,6.07-1.37,2.82,1.43,2.2,3.81.94,5.93-1.15,1.95-3.75,2.72-4.67,5.52Z"/><path class="cls-8" d="M318.79,502.53c2.28-2.35,4.65-1.82,6.89-1.83,1.04,0,2.32.47,2.06,1.61-.8,3.61,4.19,7.67-.82,10.87-1.82,1.16-3.82,2.34-6.04,1.37-1.49-.65-2.09-2.04-1.1-4.12,1.69,1.36,3.57,2.55,5.49.8,1.42-1.29,2.81-3.1-.19-3.92-2.88-.79-2.19-5.61-6.3-4.78Z"/><path class="cls-8" d="M196.24,503.19c2.65-3.5,4.42-5.81-.32-7.12-2.06-.57-2.27-3.08-1.78-5.15.4-1.7,1.36-3,3.29-3.24,2.18-.27,3.91.52,5.07,2.36,2.33,3.71-.34,10.66-6.25,13.15ZM200.83,492.78c-.15-1.29-.62-2.53-2.22-2.75-1.62-.23-1.97.95-1.97,2.19,0,1.59,1.03,2.39,2.51,2.58,1.38.17,1.63-.8,1.67-2.01Z"/><path class="cls-14" d="M314.88,547.78c-.86-3.36-1.52-6.26-5.35-5.54-.59.11-1.7-.43-1.38-.99,1.71-3,3.6-5.9,5.54-8.75.22-.32,1.64-.34,1.71-.17.37.87.45,1.86.69,2.79.46,1.81-1.39,4.45,1.99,5.25.9.21.49,1.36-.06,1.47-3.31.62-1.17,3.76-3.15,5.94Z"/><path class="cls-8" d="M227.28,563.22c-.52-3.92,1.16-6.19,1.65-8.72.28-1.42,1.79-3.82-1.77-2.41-1.26.5-2.03.05-1.98-1.18.12-2.6,2.33-2.41,4.05-2.6,1.61-.18,4.13-.32,3.67,1.92-.87,4.32-1.4,9.01-5.64,12.99Z"/><path class="cls-13" d="M291.38,448.45c-2.26-3.93-1.09-8.13-1.59-12.15-.08-.68.35-1.31,1.17-1.27,1.07.06,1.27.98,1.41,1.77.73,3.95.27,7.82-.99,11.65Z"/><path class="cls-2" d="M212.51,452.96c-.17,3.35-3.69,5.74-2.56,9.52.84,2.8,1.38,5.63,4.96,2.33.99,4.03-2.38,2.6-4.08,3.26-4.06-1.58-3.8-5.06-3.38-8.34.4-3.05.65-6.56,5.05-6.76Z"/><path class="cls-8" d="M254.69,423.17c1.65,4.47,1.35,8.95.5,13.46-2.23-4.38-1.51-8.96-.5-13.46Z"/><path class="cls-8" d="M206.32,468.87c-.66-.09-1.33-.18-1.99-.27-1.04-5.14-.24-10.27,0-15.42,2.62,5.03,1,10.51,1.98,15.69Z"/><path class="cls-2" d="M260.91,518.19c.07-3.35,4.3-2.55,5.12-5.15,1.01-.05,2.02-.1,3.04-.15-1.1,3.87-4.3,4.75-7.67,5.4,0,0-.27.06-.27.06l-.22-.17Z"/><path class="cls-2" d="M250.77,441.4c.37-.46.73-.91,1.1-1.37,1.6,2.29,1.09,4.93,1.15,7.45.04,1.4-.6,2.23-2.07,1.05-.06-2.38-.12-4.76-.18-7.13Z"/><path class="cls-2" d="M210.45,444.02c1.41-1.94,2.17-.53,2.59.67.36,1.04,1.99,2.96-1.08,2.83-1.17-.88-1.31-2.2-1.5-3.51Z"/><path class="cls-4" d="M204.05,570.03c-.87-.46-1.08-1.22-.98-2.13,1.09.36,1.03,1.25.98,2.13Z"/><path class="cls-13" d="M242.9,503.19c.28-2.15.48-4.62,3.26-4.72,2.92-.11,3.73,2.23,3.95,4.67.26,2.97-1.81,4.32-4.18,4.33-2.33.01-3.05-2.1-3.03-4.28Z"/><path class="cls-10" d="M537.9,456.6c-1.35,1.47-2.92,1.98-5.07.91,1.84-2.3,2.71-5.29,5.7-6.55-.21,1.88-.42,3.76-.63,5.65Z"/><path class="cls-1" d="M470.91,498c4.01.81,8.06-1.36,12.21-3.03,1.51-.61,3.26-1.92,4.55-.32,1.22,1.52.05,3.2-1.19,4.38-3.69,3.51-4.46,8.03-4.56,12.79-.03,1.33.09,2.69-.12,3.99-.29,1.75-1.43,3.38-3.06,3.58-1.85.23-2.1-2.04-2.32-3.23-1.28-6.88-4.53-12.05-11.37-14.55-1.06-.39-2.31-1.21-2.09-2.51.29-1.72,1.99-1.51,3.24-1.55,1.32-.04,2.65.23,4.7.43Z"/><path class="cls-5" d="M477.98,487.21c-.46,1.78.43,4.75-2.28,4.68-2.54-.07-2.14-3.06-2.1-4.83.05-1.9-.86-5.31,1.51-5.39,2.55-.09,2.53,3.28,2.86,5.54Z"/><path class="cls-9" d="M527.15,601.15c-.22.2-.44.41-.66.61-.04-.42-.08-.84-.13-1.25.26.21.52.43.79.65Z"/><path class="cls-5" d="M472.36,560.74c-.56,1.6-1.85,2.13-3.4,2.13-1.27,0-2.35-.52-2.06-1.99.38-1.94,2.07-1.68,3.51-1.72,1.06-.03,1.9.26,1.95,1.58Z"/><path class="cls-5" d="M471.94,554.88c-.25,1.46-1.38,1.26-2.27,1.18-1.75-.15-3.21-1.07-3.42-2.84-.14-1.24,1.3-1.33,2.2-1.19,1.66.26,3.02,1.08,3.49,2.85Z"/><path class="cls-5" d="M461.91,518.93c-.63,1.24-1.67,1.74-2.84,1.48-1.15-.26-2.27-.93-1.91-2.41.29-1.19,1.36-1.31,2.39-1.18,1.25.16,2.14.76,2.36,2.11Z"/><path class="cls-13" d="M514,530.37c0-2.73.76-4.58,3.3-4.51,3.38.1,4.41,2.73,4.52,5.49.09,2.25-1.53,3.85-3.78,3.79-3.21-.07-3.78-2.64-4.04-4.78Z"/><path class="cls-10" d="M200.83,492.78c-.04,1.22-.29,2.18-1.67,2.01-1.48-.18-2.5-.99-2.51-2.58,0-1.24.34-2.42,1.97-2.19,1.6.23,2.06,1.46,2.22,2.75Z"/></svg>