<?xml version="1.0" encoding="UTF-8"?><svg id="Capa_1" xmlns="http://www.w3.org/2000/svg" width="318.56mm" height="318.56mm" viewBox="0 0 903 903"><defs><style>.cls-1{fill:#1a1917;}.cls-1,.cls-2,.cls-3,.cls-4,.cls-5,.cls-6,.cls-7,.cls-8,.cls-9,.cls-10,.cls-11,.cls-12,.cls-13,.cls-14{stroke-width:0px;}.cls-2{fill:#514c3c;}.cls-3{fill:#1b1a18;}.cls-4{fill:#ebd58f;}.cls-5{fill:#f6de95;}.cls-6{fill:#24221c;}.cls-7{fill:#f7df96;}.cls-8{fill:#534e3d;}.cls-9{fill:#524d3c;}.cls-10{fill:#343025;}.cls-11{fill:#f0d992;}.cls-12{fill:#d4c081;}.cls-13{fill:#f2db93;}.cls-14{fill:#161514;}</style></defs><path class="cls-1" d="M830.99,575.6c-.76,13.29-.42,25.41-6.18,36.46-3.17,6.08-7.61,10.54-14.96,10.78-1.92.06-2.96,1.39-4.29,2.3-6.73,4.59-13.9,7.17-22.08,4.72-1.45-.43-2.06.22-2.98.98-8.37,6.84-18.11,7.98-28.21,5.91-5.5-1.13-10.61-3.77-15.69-6.34-9.78-4.95-19.99-6.9-30.85-3.77-9.62,2.77-19.3,5.22-29.48,3.4-6.75-1.2-12.13-4.47-15.84-10.27-1.03-1.62-1.87-2.74-4.21-2.58-35.75,2.35-70.2,11.58-104.79,19.94-5.79,1.4-11.26,4.06-16.96,5.87-3.16,1-3.99,2.72-3.45,5.87,2,11.56.67,22.89-2.87,33.99-.55,1.73-1.14,3.49-2.01,5.07-5.2,9.51-7.7,10.42-18.06,7.13-4.27-1.36-8.5-3.8-13.09-.52-1.34.96-3.26.38-4.88-.05-7.81-2.07-15.62-1.46-23.46-.24-.89.14-1.67.23-2.06,1.03-2.68,5.46-7.65,5.48-12.49,4.79-2.84-.41-4.63.42-6.66,2.09-17.17,14.05-33.4,29.09-48.57,45.28-6.6,7.04-14.69,11.59-24.42,12.32-12.23.92-20.36-6.27-27.08-15.14-5.22-6.88-9.79-14.28-14.33-21.64-2.06-3.33-4.23-6.56-7.51-8.52-9.97-5.97-14.57-16.03-20.06-25.45-4.95-8.49-7.59-17.66-8.1-27.46-.26-4.98,1.01-9.89.54-14.92-.31-3.29-1.37-5.17-4.59-6.75-24.03-11.78-38.55-31.53-46.24-56.67-2.02-6.59-.69-12.95,3.87-18.26,1.34-1.56,1.07-2.83.83-4.49-4.01-28.7,2.26-54.05,25.18-73.33,4.94-4.15,8.26-7.71,9.48-14.66,2.39-13.59,13.66-19.82,25.33-24.56,3.82-1.55,5.83-3.56,6.92-7.46,5.24-18.77,9.65-37.7,12.2-57.04.3-2.28-.04-3.52-2.21-4.76-6.21-3.56-11.94-7.83-17.57-12.29-18.59-14.73-14.89-43.43-5.18-57.35,4.63-6.63,9.46-13.09,17.69-16.36,3.04-1.21,3.56-5.81,2.18-9.62-3.3-9.12-9.34-16.85-12.92-25.85-5.04-12.65-10.49-25.14-15.51-37.8-5.56-14.01-.38-34.8,10.4-45.38,10.5-10.3,22.77-17.19,36.87-20.96,2.41-.64,4.01-1.42,3.23-4.32-2.35-8.64.53-15.49,7.67-20.45,5.5-3.81,9.65-8.94,14.26-13.61,8.84-8.95,19.31-11.42,31.13-8.06,10.29,2.93,20.25,6.65,27.5,15.23,3.83,4.54,3.56,10.87,6.08,15.28,2.66,4.67,8.11,8.12,7.32,14.3-1.01,7.91,2.94,11.23,9.65,13.56,12.85,4.45,21.43,13.61,27,25.82.69,1.51,1.56,2.96,2.55,4.29,7.93,10.63,7.65,22.24,2.94,33.68-5.07,12.31-11.6,23.94-20.2,34.29-8.16,9.82-12.95,21.67-19.27,32.61-1.1,1.9-.21,2.49,1.15,3.43,15.19,10.56,20.73,25.34,18.44,43.28-2.1,16.42-8.69,30.27-23.36,39.35-4.32,2.67-9.06,4.15-13.77,5.72-2.24.75-3.34,1.49-3.03,4.03,2.1,17.23,6.04,34.06,10.67,50.75.38,1.36,1.22,2.09,2.49,2.83,15.76,9.05,25.01,22.51,27.08,40.7.16,1.4.38,2.49,1.7,3.33,17.12,10.83,24.02,27.85,27.78,46.6,1.17,5.83,2.1,11.7,1.77,17.82-.27,4.86,4.96,7.05,7.63,10.48,1.73,2.23,3.97-.13,5.77-.89,37.05-15.63,71.08-36.32,102.46-61.43,2.89-2.31,4.25-4.48,3.13-8.41-1.14-3.99-.74-8.3-.18-12.43,1.29-9.45,8.1-15.85,17.7-16.87.99-.11,2-.14,2.99-.23,12.8-1.19,18.32-6.47,20.08-19.31.82-5.93,1.2-11.98,3.93-17.45,7.05-14.07,22.82-22.8,38.64-21.5,1.45.12,2.64.5,3.99-.94,6.71-7.12,15.38-8.78,24.65-7.93,2.34.21,3.98.1,5.78-1.59,2.84-2.68,6.39-2.35,9.9-1.36,11.81,3.32,21.08,10.46,29.01,19.51,18.55,21.16,31.94,45.3,41.52,71.69,8.54,23.51,16.28,47.2,19.11,72.19.75,6.61,1.08,13.27,1.5,18.59ZM317.88,299.87c-.35.32-.7.64-1.05.96-.49.48-.97.95-1.46,1.43-3.28,3.39-5.94,7.19-7.44,11.72,0,0,.06-.04.06-.04-.35.36-.69.72-1.04,1.08-3,5.95-5.13,12.28-5.77,18.83-.75,7.76-1.15,16.08,4.54,22.29,9.66,10.55,21.49,18.2,34.92,23.27,18.51,6.99,37.78,7.91,57.31,7.78,15.61-.11,29.65-4.35,42.44-13.03,13.26-8.99,16.29-23.02,18.18-37.56-.39-6.53-.99-13.05-4.33-18.86-5.56-9.66-7.99-13.97-14.31-15.01-.4,1.36-.39,2.55.99,3.46,9.06,5.91,13.66,14.13,12.92,25.1-4.38,11.31-11.03,20.9-21.69,27.06-20.65,11.94-42.95,13.79-66.04,10.18-10.51-1.65-20.1-5.65-28.96-11.49-1.23-.81-3.33-1.81-2.58-3.16,1.17-2.12,2.77.27,4.22.55.31.06.59.3.89.44,30,14.27,60.05,14.4,89.46-1.11,9.92-5.23,17.65-13.52,19.96-25.4,1.58-8.1-3.15-13-9-17.84-.84,3.16-1.81,5.92-1.59,8.93-2.14,2.77-2.89,6.37-5.42,8.92-12.99,13.1-28.36,19.82-47.06,17.62-13.77-1.63-27.29-4.39-39.46-11.29-11.59-6.58-21.47-14.85-23.49-29.19-3.37,1.19-4.25,4.1-5.14,7.26-1.87,6.67-.33,12.82,2.33,18.84,2.29,5.18,5.18,10.05,8.49,14.65.48.67,1.29,1.39.73,2.16-.66.91-1.86.81-2.74.31-.99-.57-1.92-1.33-2.7-2.18-8.54-9.22-13.85-19.76-13.19-32.7,2.7-3.06,3.07-7.31,5.38-10.58.49-.56.98-1.13,1.47-1.69.29-.33.58-.66.86-.99.32-.29.63-.57.95-.86.33-.45,1.17-.81.36-1.46-.1-.08-.67.42-1.02.65-.33.33-.67.66-1,.99ZM315.08,518.9c-.18-.12-.36-.24-.55-.35.12.18.24.36.36.54.66.34,1.33.69,1.99,1.03.4.23.8.47,1.21.67.03.02.19-.24.29-.36-.44-.18-.88-.35-1.32-.53-.66-.33-1.33-.67-1.99-1ZM405.98,532.97c-.73.15-1.46.3-2.19.44.09.13.15.34.26.38.85.27,1.5-.03,1.97-.76.74-.15,1.47-.3,2.21-.45-.09-.13-.15-.34-.26-.38-.86-.28-1.51.03-1.99.77ZM343.98,531.03c.48.8,1.17,1.07,2.06.8.12-.04.18-.26.27-.4-.76-.16-1.52-.31-2.28-.47-.46-.78-1.15-1.02-2-.78-.12.03-.18.25-.27.38.74.15,1.48.31,2.22.46ZM311.91,517.11c.18.12.37.24.55.35-.12-.18-.24-.36-.36-.54-.38-.69-.76-1.39-1.15-2.08,2.85.32,5.41,1.51,7.97,2.69,10.12,4.64,20.45,8.75,31.37,11.06,5.74,1.21,11.21,3.42,17.08,4.24-6.3,2.88-12.36-1.26-19.47-.71,1.31.85,1.79,1.34,2.37,1.51,12.76,3.61,25.8,4.05,38.94,3.36.95-.05,2.59.04,2.31-1.13-.88-3.61,2.1-2.8,3.59-3.23,9.23-2.64,18.72-4.5,27.29-9.11.44-.24.94-.03,1.05.67-1.22,2.12-3.83,2.31-5.53,3.8-.64.34-1.6.7-1.3,1.48.29.77.94.26,1.33-.23,13.55-4.12,24.56-12.09,33.71-22.67,2.1-2.43,3.96-5.41,2.92-9.08,2.43-1.28,1.87-3.74,2.04-5.73.93-11.12-2.89-20.88-9.36-29.64-3.24-4.39-6.81-8.66-12.24-11.41,1.12,8.12,4.84,14.91,6.7,22.26-2.49.49-3.27-1.77-4.72-2.94-.09-.6-.02-1.36-1.04-1.08l.1.07c.02-.46.21-.99.04-1.37-5.65-13-9.37-26.62-13.25-40.2-2.23-7.8-2.9-15.97-5.82-23.58.55-3.54-1.17-6.84-1.07-10.33.07-2.35-1.39-2.7-3.3-2.47-11.49,1.4-22.96,1.78-34.57,1.16-12.18-.66-23.93-3.09-35.47-6.63-8.34-2.56-8.23-2.94-8.66,6.1-.02.49.05.99.08,1.49-2.01,7.49-4.02,14.97-6.04,22.46-4.85,17.95-10.2,35.71-18.92,52.26-4.21,6.24-3.78,12.48-.78,19.2,5.01,11.2,13.82,18.09,24.64,22.75,5.48,2.36,11.25,4.08,16.9,6.06,1.24.44,2.96.61,2.64,2.36-.36,1.95-2.18,1.76-3.66,1.6-1.81-.2-3.6-.55-5.39-.88-19.38-3.63-34.29-13.2-41.82-32.13-2.36-5.94-2.92-11.93,2.39-17.1,1.35-1.32,2.25-3.32,2.06-5.47,3.76-2.68,4.24-6.89,5.91-12.05-6.23,4.28-12.74,5.86-16.21,11.82-.97-.02-1.38.57-1.79,1.38-5.66,10.94-6.31,21.69.78,32.36,4.45,6.69,7.42,14.57,15.28,18.42.62.31,1.25.61,1.87.92ZM480.99,551.95l.06.06c.46-1.81-.87-1.85-2.03-2.06l.03.03c-3.04-4.12-7.61-5.64-12.24-6.72-2.94-.69-6.27-1.55-8.6,1.68-.3-.03-.61-.04-.91-.03-2.98-.61-5.21.78-7.03,2.86-3.18,3.65-2.69,5.43,1.74,7.38,3.07,1.35,5.79,3.21,8.25,5.52,7.41,6.97,14.38,14.41,20.59,22.41,20.16,25.99,30.95,55.18,28.91,88.48-.07,1.19-.17,2.31.45,3.37-2.79,3.95-2.72,9.13-5.65,13.03-.37.5-.36,1.15.28,1.73,3.6,3.3,12.8,2.4,15.5-1.74,1.25-1.92,2.14-4.12,2.89-6.3,3.65-10.54,4.17-21.41,2.52-32.31-.68-4.46-.26-9.28-2.85-13.37.68-3.94-1.22-7.46-1.92-11.17-3.43-18.08-9.75-35.1-19.27-50.88-3.41-5.65-7.26-10.99-12.66-14.98h0c-1.54-2.94-3.43-5.49-7.05-6.01l.06.05c.61-1.32.06-1.47-1.06-1.06ZM335.04,527.94c-.38-.24-.75-.48-1.14-.7-.02-.01-.18.23-.28.36.44.16.87.31,1.31.47,1.26,1.17,2.54,2.28,4.58,1.43-1.18-2-2.95-1.37-4.47-1.55ZM813.99,615.99c6.23-4.36,8.62-10.65,9.03-17.94.35-.72.9-1.41,1.01-2.16,1.51-10.6,1.79-21.29.66-31.89-5.25-48.9-21.95-93.71-49.08-134.63-5.42-8.18-12-15.55-19.57-21.91-5.28-4.43-11.15-7.85-17.84-9.72-1.86-.52-3.79-1.46-5.65.65,1.08.65,2.01,1.32,3.03,1.81,14.85,7.11,26.16,18.3,35.32,31.63,34.41,50.05,50.82,105.28,47.1,166.17-.3,6.23-3.16,11.9-3.99,18.01-.09.14-.17.27-.26.41.08-.14.16-.28.24-.42ZM333.05,161.24c-3.44,1.65-7.15,2.86-9.77,5.88-10.97,7.68-20.35,16.39-22.83,30.57-2.23,12.75-.92,24.36,9.78,32.92,7.41,5.93,12.52,14.39,21.29,18.87-4.61.33-8.2-1.83-11.87-4.07-3.72-2.27-6.47-6.09-12.01-7.53,4,8.73,7.29,16.83,11.36,24.51,4.05,7.64,9.05,14.93,11.08,23.33,1.25,5.16,4.29,7.93,8.15,10.37,18.39,11.61,38.46,17.04,60.17,14.83,11.2-1.14,22.34-3.27,32.01-9.79.66-.44,1.34-1.29,2.12-.43.86.95.07,1.81-.46,2.65-3.06,4.86-7.36,7.99-12.85,9.67-12.32,3.78-24.69,5.97-37.73,4.13-14.95-2.11-29.41-5.22-41.97-14.21-.88-.63-1.77-1.62-2.99-.36,1.35,3.1,5.34,4.24,6.35,8.41-5.08-2.2-9.03-4.76-11.78-8.87-1.49-2.23-.94-3.4,1.88-3.11.17.14.34.28.51.42-.16-.15-.31-.31-.47-.46-.73-3.14-3.06-4.79-5.75-6.63-1.11,15.01,5.29,25.84,16.89,33.72,16.36,11.12,34.77,14.7,54.3,14.1,17.4-.53,33.14-12.54,36.04-29.53,2.96-17.38,11.05-32.33,20.25-46.72,7.35-11.51,14.73-22.9,20.12-35.48,4.28-9.98,5.29-19.85-.9-29.5-6.21-13.51-14.57-24.82-29.46-29.87-2.95-1-7.53-1.55-8.2-.29-3.48,6.55-13.5,10.3-9.34,20.28-.23,4.12.56,8.26-.68,12.38-3.89,12.93-25.58,24.83-39.1,20.97-7.76-2.21-15.39-4.49-22.33-9.33-14.28-9.96-16.57-31.87-4.11-41.33.6-.45.85-1.37,1.26-2.07.78-.27,2.34.16,1.71-1.44-.22-.55-1.43-.7-2.19-1.05-5.6-2.56-12.45-3.44-14.31-10.96-.36-1.44-1.54-.79-2.42-.39-3.92,1.78-7.84,3.58-11.75,5.37ZM252.48,575.97c1.38-2.4,1.16-4.59-.9-6.78-1.48,3.03-2.06,5.98-1.68,9.11.16,4.96,2.32,9.36,4.27,13.7,8.11,18.02,20.23,32.58,37.55,42.58,2.91,1.68,3.51.82,3.29-1.95-.25-3.13-1.05-6.3-.79-9.38.34-3.96-1.39-6.06-4.51-7.96-7.68-4.68-15.04-9.79-20.27-17.38-4.51-6.55-9.13-13.03-13.66-19.57-.85-1.22-1.33-2.79-3.31-2.38ZM628.46,470.96c-.34.02-.67.04-1.01.06-8.77,5.29-11.5,11.54-9.76,22.8.94-.54,1.74-1.07,2.6-1.5,1.42-.71,3-2.44,4.45-.95,1.71,1.75-.16,3.3-1.22,4.72-.39.53-.9.98-1.39,1.43-16.4,15.26-34.49,28.31-53.53,39.98-20.3,12.44-41.59,22.98-64.66,31.01,9.15,13.51,14.68,28.43,20.13,43.39.75,6.94,2.59,13.65,4.2,20.41,1.8,7.55,1.98,7.76,8.98,4.75,19.67-8.45,40.72-11.84,61.28-17.05,14.49-3.67,29.15-6.2,44.09-7.21,9.08-.61,18.11-1.89,27.18-2.66,5.61-.48,7.19-3.91,7.2-8.8,1.97.88,2.55,2.93,3.74,4.46-2.38.55-1.97,2.83-2.63,4.39-1.45,3.4-1.96,7.79-7.58,5.87-.59-.2-1.74.26-2.17.79-.75.91-.1,1.87.58,2.65,2.43,2.73,5.53,4.19,9.1,4.72.83.99,1.96.75,3.03.75,6.96-.43,13.85-1.49,20.44-3.71,13.62-4.59,26.46-3.25,39.39,3.02,7.22,3.5,14.33,7.74,23.51,6.03,11.74-2.19,19.9-11.01,19.52-23.4,3.17-4.55,2.44-9.94,2.81-14.94,2.56-34.6-5.43-67.46-17.34-99.54-7.24-19.51-14.95-38.77-30.53-53.7-11.29-10.83-23.2-20.21-38.26-25.48-15.38-5.39-39.29,5.8-40.67,25.94-.16,2.32-.48,4.64-.93,6.93-2.21,11.26-7.34,20.26-19.01,24.07-3.85.27-7.71.53-11.56.8ZM414.15,185.12c-1.4-.2-2.8-.23-3.07,1.58-.48,3.31-2.94,3.83-5.61,4.68-10.41,3.29-20.24,1.21-30.12-2.34-5.62-2.03-10.65-4.43-12.86-10.61-5.48,7.13-5.12,17.81.94,24.44,8.88,9.72,20.02,15,33.16,12.98,15.36-2.36,26.99-9.67,25.22-27.07.29-3.24-.73-4.89-4.34-3.83-1.04.31-2.22.12-3.33.16ZM469,672.99c-.83,5.83-1.66,11.66-2.51,17.58,9.21-2.45,12.99-7.18,13.47-16.64,1.82-1.63,1.61-3.95,1.85-6.03,1.06-9.15,1.06-18.33-.93-27.35-5.12-23.12-13.28-44.58-32.23-60.46-5.51-4.62-11.21-4.62-18.36-3.7,3.76,4.3,7.22,7.84,10.22,11.73,18.22,23.62,26.55,50.66,27.52,80.22.05,1.57-.67,3.38.98,4.64ZM378.02,752.03c8.95-.72,13.41-8.02,19.06-13.36,6.28-5.93,12.27-12.17,18.5-18.17,9.6-9.24,20.4-17.09,29.81-26.48,5.3-5.28,6.03-12.15,4.38-19.3,1.27-8.44-.81-16.43-3.25-24.39-2.57-8.37-5.06-16.77-7.8-25.87,3.71,2.32,3.78,2.29,4.88,4.49,5.48,10.9,8.91,22.5,11.4,34.38.77,3.7.33,7.62,1.82,11.22.77,6.97-1.4,13.54-3.31,20.24,3.87.39,5.63-1.27,6.56-4.41,1.99-6.69,3.64-13.41,2.86-20.48.76-4.16.31-8.29-.34-12.42-1.12-7.07-2.69-14.03-4.42-20.99-5.07-20.47-14.41-38.59-28.91-53.93-4.45-4.7-10.13-6.88-16.73-5.97-2.43.34-5.07,1.33-5.31,3.79-.21,2.11,2.77,1.82,4.31,2.5,7.47,3.3,12.39,9.81,12.1,16.41-1.47.29-1.99-.91-2.73-1.76-7.76-8.83-17.46-13.02-29.25-12.31-7.98.48-15.96.95-23.94,1.31-14.64.66-29.27,1.82-43.94,1.42-.8-.02-2.24-1.02-2.6,1.11-.57,3.43-.96,3.51-4.44,2.31-6.48-2.22-8.82-1.13-11.83,4.99-3.17,6.44-4.13,13.4-4.43,20.35-.41,9.5-.1,19.03-.1,29.23,1.09-1.14,1.71-1.67,2.18-2.31,4.49-6.02,10.22-7.54,16.2-2.78,5.66,4.5,12.01,8.9,15.39,15.44,5.26,10.18,10.07,20.7,11.53,32.28,1.27,10.09,2.68,20.25-3.66,29.42q-7.22,2.78-2.78,8.97c.58.8.93,1.77,1.53,2.55,5.61,7.31,9.88,15.78,18.09,20.83,6.02,3.7,12.16,2.04,15.64-4.12,3.85-6.81,2.89-13.97,1.71-21.17-.95-13.35-4.66-26.17-7.48-39.16-1.45-6.68-2.13-13.35-1.13-20.14,1.1,5.47,4.13,10.17,5.56,15.48,3.64,13.52,6.15,27.25,8.73,40.98,1.56,10.3,2.11,20.47-3.91,29.77-.13.15-.27.31-.4.46.15-.14.29-.28.44-.42ZM486.76,677.07c-1.28,3.02-2.55,6.04-3.83,9.05-.52,1.22-1.32,2.22.85,2.94,8.24,2.73,15.14-.39,18.22-8.68.97-2.6,1.42-5.39,2.11-8.1,1.6-4.14,1.48-8.51,1.23-12.78-1.45-24.4-10-46.41-23.86-66.24-8-11.44-17.27-22.05-28.19-30.87-8.17-6.6-14.62-4.49-18.27,4.93-1.02,2.64-.76,3.73,2.23,3.33,6.74-.9,11.59,2.53,16.56,6.52,15.21,12.23,22.97,29.08,29.09,46.77,5.96,17.25,7.32,35.06,3.86,53.11ZM791.24,607.68c-.88,3.88-1.64,7.8-3.29,11.45-.75,1.67-1.87,3.57-.46,5.11,1.34,1.45,3.42.77,5.2.38,12.15-2.63,18.88-11.87,19.35-26.55.95-.88.94-2.07,1.07-3.23,2.01-18.87.47-37.69-2.86-56.17-3.69-20.46-9.53-40.44-18.13-59.55-8.61-19.1-19.09-36.96-32.85-52.8-7.95-9.15-17.2-16.66-28.31-21.76-9.16-4.21-21.39-2.98-26.8,2.88,3.04,1.32,6.19,2.45,9.12,4,20.96,11.07,36.47,27.33,47.47,48.38,15.51,29.68,25.5,61.06,30.54,94.04,2.73,17.89,2.01,35.88-.04,53.82ZM462.02,515.97c-.85,2.18,1.44,5.89-1.54,6.45-1.8.34-2.67-3.6-3.94-5.63-.09-.14-.18-.3-.2-.45-.41-3.7-1.68-3.59-4.18-1.27-13.29,12.36-28.88,20.27-46.54,24.61-14.58,3.58-29.18,4.72-43.91,2.15-12.11-2.11-23.79-5.94-34.99-11.1-9.8-4.51-19.86-8.64-27.72-16.36-4.97-4.88-8.3-11.06-12.3-17.24-.59,1.34-.95,2.21-1.36,3.06-2.42,4.91-4.37,10.12-8.82,13.73-1.09.89-1.98,2.89-3.62,1.69-1.41-1.03.18-2.38.65-3.5.77-1.84,1.85-3.56,1.52-5.69,6.2-5.38,7.49-12.59,8.16-21.66-7.09,6.54-13.18,12-17.37,19.26-3.04,3.23-4.51,7.31-6.06,11.33-7.65,19.9-9.62,40.22.83,59.35,7.65,14.01,16.83,27.49,31.35,36,3.44,2.02,3.91,1.01,4.03-2.2.21-5.75,2.09-11.11,4.5-16.23,2.28-4.82,6.17-7.88,11.65-8.18,14.09-.77,28.24-.9,42.27-2.28,7.44-.73,14.91-.8,22.34-1.37,7.18-.55,14.47-2.68,21.79-.58,1.58.46,3.24.22,4.35-1.55,4.86-7.7,11.88-8.44,19.6-5.47,3.92,1.5,5.39-.16,6.55-3.39.96-2.65,1.6-5.66,3.3-7.76,4.72-5.83,9.54-11.44,13.77-17.77,5.9-8.84,22.09-8.83,31.69-1.58,3.39,2.56,6.85,5.02,10.29,7.52.36-.16.73-.31,1.09-.47-1.13-5.57-2.26-11.14-3.4-16.71-3.37-15.51-10.19-28.9-23.57-39.05-1.48,7.95-4.56,15.11-.21,22.34ZM378.85,125.98c-3.89.18-6.35-.01-8.82.77-3.03.96-3.57,2.44-2.16,5.2.9,1.76,3,3.57.75,5.79-2.4,2.37-4.6.62-6.82-.41-.76-.35-1.49-.75-2.24-1.1-4.58-2.1-7.69-.83-8.37,4.03-.62,4.41-.65,8.92.45,13.37.78,3.16,2.35,5.32,5.45,6.56,3.85,1.55,7.7,3.19,11.31,5.22,1.98,1.12,4.64,2.51,2.72,5.84-3.24,5.61-2.23,8.58,4.01,10.63,5.19,1.71,10.64,2.64,15.82,4.39,4.25,1.43,7.78-.86,11.64-1.38.97-.13,1.2-.88,1.29-1.82.66-6.92.65-6.72,7.85-5.36,3.84.72,8.34,1.53,10.31-3.34,2.54-6.28.06-12.49-1.31-18.55-.9-3.96-5.3-2.65-8.07-3.74-5.18-2.04-6.18-4.15-2.76-8.33,2.52-3.09,1.86-5.06-.88-7.46-9.09-7.95-20.18-9.47-30.15-10.29ZM341.8,702.35c-1.16-19.95-6.65-41.06-25.32-55.69-3.12-2.44-6.65-2.46-9.18-.08-3.99,3.76-7.13,8.18-6.46,14.43.94,8.83,2.5,17.3,6.98,25.22,5.68,10.04,11.47,19.79,21.44,26.31,5.66,3.7,10.5,1.89,11.72-4.72.39-2.12.63-4.27.81-5.47ZM370.5,120.24c2.37,0,3.66.07,4.94-.01,8.25-.5,16.33.51,23.97,3.59,7.79,3.14,15.78,6.34,18.93,15.33.35,1,.87,1.11,1.85.87,5.13-1.26,7.15-5.36,4.91-10.3-1.68-3.69-4.09-6.79-7.55-9.05-7.34-4.79-15.37-7.96-23.93-9.42-8.75-1.49-16.32,1.24-23.11,8.98ZM430.54,167.29c5.56-7.4,6.22-18.16,1.75-23.85-1.48-1.88-2.89-3.07-5.28-1.36-2.24,1.6-5.17,2.15-7.24,4.7,10.48,3.24,7.89,13.06,10.78,20.5ZM414.55,530.32c-1.73-.49-2.8.16-4.16,1.53,1.83.13,3.19.39,4.16-1.53ZM330.98,526.23c-.11.07-.27.12-.31.22-.03.08.11.21.17.32l.49-.38c-.12-.05-.24-.11-.36-.16ZM321.62,297.74c.12-.12.22-.21.33-.31-.2-.1-.4-.23-.62-.27-.08-.02-.2.18-.3.27.2.1.4.21.59.31Z"/><path class="cls-3" d="M214.05,779.8c-5.51.04-9.63-3.46-11.64-10.63-.77-2.75-1.53-2.86-3.9-1.94-16.19,6.25-17.12,6.21-26.68-7.77-8.29-12.13-12.18-24.8-6.29-39.92,2.55-6.54,6.71-7.04,11.43-8.37,4-1.13,6.48-2.5,6.21-7.53-.29-5.52,2.37-9.71,8.12-11.76,10.18-3.61,20.15-7.79,30.33-11.38,6.35-2.24,10.27.47,13.2,8.29q2.74,7.34,9.19,2.47c8.91-6.72,14.03-6.36,20.76,2.36,6.35,8.22,10.65,17.83,13.73,27.54,2.24,7.03-1.79,13.95-7.25,19.18-3.49,3.34-9.4,4.68-11.44,8.3-1.93,3.43-.69,8.97-1.93,13.48-.51,1.85-1.34,3.32-3.03,4.37-12.56,7.8-26.46,11.47-40.82,13.32ZM201.88,755.86c-2.29.03-3.98,1.48-5.93,2.37-4.13,1.9-8.61,3.69-12.4-.4-5.23-5.63-9.65-11.73-11.08-19.67-.75-4.2-2.55-8.21-3.96-12.56-1.71,1.92-1.52,3.8-1.54,5.61-.12,13.32,6.66,23.69,14.48,33.57,1.44,1.81,3.42,2.22,5.83,1.36,3.27-1.17,6.58-2.2,9.84-3.47,3.22-1.27,4.96-3.11,5.05-6.52.12-.2.23-.41.35-.61-.21.11-.42.22-.63.33ZM217.65,761.67c11.22-1.55,22.32-3.68,33.09-7.25,3.45-1.15,4.67-3.43,3.33-6.98-1.17-3.09-2.41-6.18-3.2-9.38-1.68-6.77.19-9.19,7.04-10.08,4.77-.62,9.65-.28,14.33-1.77,2.3-.73,3-1.85,2.02-4.02-4.05-8.97-8.64-17.64-14.97-25.22-3.65-4.37-6.07-4.38-10.59-.92-2.51,1.92-4.85,4.14-7.58,5.67-4.61,2.59-8.44,1.04-10.27-3.91-.98-2.64-1.71-5.39-2.41-8.12-.82-3.21-2.32-4.2-5.79-3.18-9.12,2.68-17.81,6.49-26.77,9.56-3.88,1.33-6.25,3.55-3.32,8.04.85,1.3.81,3.18,1.23,4.78.69,2.62-.06,3.83-2.97,4.32-4.91.83-9.75,2.11-14.34,4.18-1.41.64-2.94,1.08-2.28,3.12,2.69,8.36,3.61,17.35,7.79,25.16,5.35,9.99,6.08,9.99,15.95,5.06.59-.3,1.2-.56,1.81-.83,10.42-4.67,13-3.31,14.79,7.83.11.66.2,1.32.33,1.97.3,1.52,1.1,2.39,2.76,1.99ZM208.15,759.39c-3.77,5.29-.96,8.76.98,12.3,1.84,3.35,4.66,3.29,8.14,2.85,9.5-1.2,18.33-4.56,27.29-7.55,2.52-.84,5-1.85,6.9-3.85.8-.84,1.94-1.76,1.32-2.98-.75-1.47-2.17-.33-3.07-.09-9.11,2.5-18.2,5.07-27.58,6.32-3.11.42-5.76,1.26-6.74,4.72-.26.92-.93,1.88-2.18,1.58-.97-.23-1.31-1.14-1.15-1.96.84-4.28-2.67-6.86-3.91-11.36ZM272.44,731.16c-4.61.68-8.81,1.25-12.98,1.94-1.43.24-3.31.58-3.22,2.43.1,2.1.68,4.32,2.22,5.89,1.26,1.28,2.71.49,4.03-.35,3.89-2.47,7.76-4.94,9.95-9.91Z"/><path class="cls-6" d="M294.43,718.56c3.38.11,6.19.51,6.34,3.68.15,3.13-2.69,2.87-4.8,2.72-1.36-.1-2.08.82-3.11,1.23-2.19.87-4.08.65-4.7-1.9-.46-1.9-.81-3.98,2.22-4.56,1.59-.3,3.07-1.25,4.05-1.17Z"/><path class="cls-10" d="M283.78,739.53c-2.08-.16-3.47-1.1-3.44-3.35.03-2.21,5.1-6.41,7.08-5.51,1.82.83,2.45,3.08,2.41,5.07-.04,2.37-2.98,4.08-6.05,3.79Z"/><path class="cls-10" d="M287.6,694.07c-.22,2.33-1.66,3.16-3.75,3.17-2.46.01-4.34-1.04-4.65-3.56-.27-2.16,1.14-3.59,3.3-3.42,2.36.19,4.63.96,5.1,3.81Z"/><path class="cls-6" d="M299.85,709.52c-.38,2.21-1.78,2.75-3.65,2.53-2.44-.28-4.14-1.54-4.07-4.1.07-2.63,2.71-2.54,4.15-2.48,2.11.09,3.24,2.01,3.57,4.04Z"/><path class="cls-10" d="M283.84,716.04c-2.3-.28-3.57-1.59-3.51-3.59.05-1.54,1.22-2.75,2.98-2.68,2.01.08,3.63.99,3.61,3.22-.02,1.92-1.41,2.82-3.08,3.05Z"/><path class="cls-7" d="M640.01,470.16c11.67-3.81,16.8-12.8,19.01-24.07.45-2.28.77-4.61.93-6.93,1.38-20.14,25.29-31.33,40.67-25.94,15.06,5.27,26.97,14.65,38.26,25.48,15.57,14.94,23.29,34.19,30.53,53.7,11.9,32.08,19.9,64.94,17.34,99.54-.37,5.01.36,10.4-2.81,14.94-11.29,6.46-22.36,5.53-33.36-.84-2.57-1.49-5.41-2.5-8.13-3.74-12.61-5.76-24.96-5.46-37.15,1.37-3.31,1.85-6.79,3.47-10.66,3.89,2.87-14.35,3.31-28.67.69-43.17-4.72-26.16-16.49-49.09-31.72-70.43-6.5-9.11-13.8-17.61-24.57-22.1.32-.57.65-1.14.97-1.71Z"/><path class="cls-9" d="M332.98,299.02c-2.82-.29-3.37.89-1.88,3.11,2.75,4.11,6.7,6.67,11.78,8.87-1.01-4.17-5-5.32-6.35-8.41,1.21-1.27,2.11-.27,2.99.36,12.56,8.99,27.02,12.09,41.97,14.21,13.04,1.84,25.41-.34,37.73-4.13,5.49-1.68,9.79-4.81,12.85-9.67.53-.85,1.32-1.7.46-2.65-.78-.86-1.46-.02-2.12.43-9.67,6.52-20.82,8.65-32.01,9.79-21.71,2.21-41.78-3.22-60.17-14.83-3.86-2.44-6.91-5.21-8.15-10.37-2.03-8.4-7.03-15.69-11.08-23.33-4.07-7.68-7.36-15.78-11.36-24.51,5.55,1.44,8.29,5.26,12.01,7.53,3.67,2.24,7.26,4.4,11.87,4.07-8.77-4.47-13.88-12.94-21.29-18.87-10.7-8.55-12.01-20.17-9.78-32.92,2.48-14.18,11.86-22.89,22.82-30.57.6.35,1.2.7,1.8,1.06-.31.75-.43,1.7-.97,2.22-6.09,5.92-9.55,13-9.91,21.56-.28,6.54-.7,13.08,3.57,18.81,1.63-.94,1.34-2.09,1.1-2.93-1.64-5.74-1.11-11.61-.71-17.36.7-10.28,7.3-17.18,14.66-23.46,9.88-.78,19.73-1.18,29.19,2.68-.41.7-.66,1.61-1.26,2.07-12.46,9.46-10.18,31.37,4.11,41.33,6.94,4.84,14.57,7.12,22.33,9.33,13.52,3.85,35.2-8.04,39.1-20.97,1.24-4.11.45-8.25.68-12.38,11.38-.99,22.57-.14,33.45,3.57,1.45,6.92,4.05,13.68,1.91,21-4.34,14.83-16.22,21.5-29.26,26.03-15.61,5.43-31.99,5.77-48.25,3.27-15.8-2.43-31.26-6.23-45.42-14.13-2.61-1.46-4.8-3.86-8.32-4.52,3.06,4.99,6.06,7.99,11.99,10.68,26.62,12.09,54.37,16.53,83.42,11.93,11.54-1.83,21.6-7.05,30.13-14.57,10.29-9.08,14.03-20.67,9.34-34.2,2.76-.62,5.31.91,8.02.81,6.18,9.66,5.17,19.53.9,29.5-5.39,12.58-12.77,23.97-20.12,35.48-9.19,14.39-17.28,29.34-20.25,46.72-2.9,16.99-18.64,29-36.04,29.53-19.53.59-37.94-2.99-54.3-14.1-11.59-7.88-18-18.71-16.89-33.72,2.7,1.85,5.03,3.49,5.75,6.63l-.04.04ZM431.6,261.13c-2.79-1.08-4.23,0-5.72.47-15.46,4.98-31.09,5.91-47.06,2.65-8.79-1.79-17.26-4.69-25.95-6.79-1.52-.37-3.63-1.47-4.33.53-.6,1.72,1.71,2.16,2.96,2.72,19.71,8.74,39.81,14.64,61.58,8.25,6.24-1.83,12.15-4.32,18.52-7.83Z"/><path class="cls-5" d="M524.07,611.9c-5.45-14.95-10.97-29.87-20.13-43.39,23.07-8.03,44.36-18.57,64.66-31.01,19.04-11.66,37.13-24.72,53.53-39.98.49-.45,1-.9,1.39-1.43,1.06-1.42,2.93-2.97,1.22-4.72-1.45-1.49-3.03.24-4.45.95-.85.43-1.66.95-2.6,1.5-1.74-11.27.99-17.52,9.76-22.8,3.22,2.77-2.17,2.92-1.49,4.92-.1.09-.21.16-.29.27-.03.04,0,.14.01.22.06-.19.12-.38.18-.57,12.58-1.98,19.95,5.88,27.17,14.23,8.23,9.51,14.63,20.24,20.62,31.18,13.46,24.61,20.94,50.65,17.47,79.04-.3,2.43-.11,5.02-2.01,7-2.77-.62-5.88.65-8.36-1.51-1.19-1.53-1.77-3.58-3.74-4.46-1.27-1.87-3.22-1.39-5-1.42-7.54-.13-14.86,1.68-22.26,2.66-12.71,1.68-24.82,6.19-37.44,8.51-25.01,4.59-49.95,9.61-74.08,17.86-2.24.76-2.76.02-3.61-1.76-2.7-5.64-6.66-10.45-10.55-15.3ZM629.3,486.43c12.22,5.15,19.39,15.18,25.86,25.69,12.15,19.73,15.72,42.22,19.72,64.48,1.01,5.64,2.65,11.36,1.27,17.28-.29,1.22.22,2.86,1.9,3.01,1.52.13,1.63-1.31,1.94-2.43.81-2.9,1.41-5.81,1.01-8.86-1.94-14.86-4.34-29.62-8.2-44.13-5.2-19.56-14.31-36.85-29.06-50.93-4.03-3.85-8.75-5.6-14.43-4.12Z"/><path class="cls-5" d="M342.03,717.99c6.34-9.17,4.93-19.33,3.66-29.42-1.46-11.59-6.27-22.1-11.53-32.28-3.38-6.54-9.73-10.94-15.39-15.44-5.99-4.75-11.71-3.24-16.2,2.78-.48.64-1.1,1.17-2.18,2.31,0-10.2-.31-19.73.1-29.23.3-6.96,1.25-13.91,4.43-20.35,3.01-6.12,5.35-7.21,11.83-4.99,3.49,1.2,3.87,1.12,4.44-2.31.35-2.13,1.8-1.13,2.6-1.11,14.68.4,29.3-.75,43.94-1.42,7.98-.36,15.96-.83,23.94-1.31,11.79-.71,21.49,3.48,29.25,12.31.74.85,1.26,2.04,2.73,1.75.28-6.6-4.63-13.11-12.1-16.41-1.54-.68-4.51-.39-4.31-2.5.24-2.46,2.87-3.45,5.31-3.79,6.6-.91,12.29,1.26,16.73,5.97,14.49,15.34,23.83,33.46,28.91,53.93,1.73,6.96,3.3,13.92,4.42,20.99.65,4.13,1.1,8.26.34,12.42-3.11.15-2.75,4.84-6.12,4.65-1.48-3.6-1.04-7.52-1.82-11.22-2.49-11.88-5.92-23.48-11.4-34.38-1.11-2.2-1.18-2.17-4.88-4.49,2.74,9.1,5.23,17.5,7.8,25.87,2.44,7.96,4.52,15.94,3.25,24.39-13.33,10.1-26.59,20.28-40.01,30.26-8.78,6.53-18.07,12.31-27.87,17.23-2.58-13.73-5.09-27.46-8.73-40.98-1.43-5.31-4.46-10.01-5.56-15.48-1,6.8-.33,13.46,1.13,20.14,2.82,12.99,6.53,25.81,7.48,39.16-4.08.71-8.15,1.18-12.32.61-7.82-1.08-14.97-3.97-21.85-7.67ZM340.85,616.19c6.04,11.1,9.67,23.5,17.97,33.43-2.17-8.15-4.61-16.18-8.77-23.55-2.25-3.99-4.01-8.39-8.1-11.06-1.59-2.96-4.1-4.88-6.89-6.51,1.01,3.37,3.54,5.41,5.8,7.68ZM433.44,612.6c-1.23-2.38-2.33-5.4-5.01-7.33-.17-.13-1.13.34-1.13.54-.02,3.16,1.89,5.52,3.49,7.99.17.27.45.54.74.65.43.15.99.33,1.36.18.63-.26.99-.83.54-2.03Z"/><path class="cls-8" d="M454.59,497.47c1.04,3.67-.82,6.65-2.92,9.08-9.16,10.58-20.16,18.56-33.71,22.67,0-.42-.02-.83-.03-1.25,1.7-1.49,4.31-1.68,5.53-3.8-.11-.7-.61-.91-1.05-.67-8.58,4.61-18.06,6.47-27.29,9.11-1.49.43-4.47-.38-3.59,3.23.29,1.17-1.36,1.08-2.31,1.13-13.13.69-26.17.25-38.94-3.36-.58-.16-1.06-.66-2.37-1.51,7.1-.55,13.17,3.59,19.47.71-5.87-.82-11.34-3.03-17.08-4.24-10.92-2.31-21.25-6.41-31.37-11.06-2.57-1.18-5.12-2.37-7.97-2.69-1.65-.46-.66.87-.92,1.35-7.85-3.85-10.83-11.73-15.28-18.42-7.09-10.67-6.44-21.42-.78-32.36.42-.81.82-1.4,1.79-1.38,3.45-.49,6.89-1.13,10.3.22.2,2.16-.71,4.16-2.06,5.47-5.31,5.16-4.76,11.16-2.39,17.1,7.54,18.93,22.44,28.5,41.82,32.13,1.79.34,3.58.69,5.39.88,1.48.16,3.31.35,3.66-1.6.32-1.75-1.39-1.92-2.64-2.36-5.65-1.98-11.41-3.7-16.9-6.06-10.82-4.67-19.63-11.55-24.64-22.75-3-6.71-3.43-12.96.78-19.2,1.92.58,3.04-.56,4.28-1.78,3.48-3.45,6.08-7.43,7.99-11.92,7.49-17.68,12.12-36.18,16.02-54.92.75-3.61-.1-5.21-3.33-6.09-.03-.5-.11-1-.08-1.49.43-9.04.32-8.66,8.66-6.1,11.53,3.54,23.28,5.98,35.47,6.63,11.61.63,23.08.25,34.57-1.16,1.91-.23,3.37.12,3.3,2.47-.1,3.49,1.62,6.8,1.07,10.33-5.27,1.13-5.64,5.36-5.88,9.53-.95,16.61,3.98,31.51,13.7,44.82,3.06,4.19,5.58,9.18,11.21,10.8,0,0-.1-.07-.1-.07.35.36.69.72,1.04,1.08,1.45,1.17,2.23,3.43,4.72,2.94,4.18,4.94,2.79,11.29,4.31,16.91,1.2,4.45,2.95,8.15,8.55,7.61ZM429.15,494.31c-16.8,12.63-35.04,19.61-53.77,25.56,15.19,2.84,46.72-9.91,53.77-25.56Z"/><path class="cls-9" d="M485.8,532.68c1.13,5.57,2.26,11.14,3.4,16.71-.36.16-.73.31-1.09.47-3.43-2.5-6.9-4.96-10.29-7.52-9.59-7.25-25.78-7.26-31.69,1.58-4.23,6.33-9.05,11.94-13.77,17.77-1.7,2.1-2.34,5.11-3.3,7.76-1.17,3.23-2.64,4.89-6.55,3.39-7.72-2.96-14.74-2.23-19.6,5.47-1.11,1.77-2.77,2-4.35,1.55-7.33-2.1-14.62.02-21.79.58-7.43.57-14.9.64-22.34,1.37-14.03,1.38-28.18,1.51-42.27,2.28-5.49.3-9.38,3.35-11.65,8.18-2.42,5.12-4.3,10.48-4.5,16.23-.12,3.21-.59,4.22-4.03,2.2-14.52-8.51-23.7-21.99-31.35-36-10.45-19.13-8.47-39.46-.83-59.35,1.54-4.01,3.02-8.1,6.06-11.33,3.31-.12,6.57-.03,9.22,2.4.33,2.12-.74,3.85-1.52,5.69-.47,1.12-2.06,2.47-.65,3.5,1.64,1.2,2.53-.81,3.62-1.69,4.45-3.61,6.4-8.82,8.82-13.73.42-.85.77-1.72,1.36-3.06,4,6.18,7.33,12.37,12.3,17.24,7.86,7.71,17.92,11.84,27.72,16.36,11.2,5.16,22.88,8.99,34.99,11.1,14.72,2.57,29.33,1.43,43.91-2.15,17.66-4.34,33.24-12.25,46.54-24.61,2.5-2.33,3.77-2.43,4.18,1.27.02.16.11.32.2.45,1.27,2.03,2.14,5.97,3.94,5.63,2.98-.56.69-4.27,1.54-6.45,9.66,3.1,18.15,7.88,23.78,16.71ZM417.91,554.11c2.54,1.36,4.38.04,6-.67,9.95-4.34,19.18-9.81,26.54-18.02,1.73-1.93,6.36-3.39,4.45-5.76-1.54-1.91-5.07,1.58-7.42,3.3-.27.2-.47.47-.72.69-5.47,4.59-10.94,9.13-17.17,12.77-3.88,2.26-8.19,4.07-11.67,7.69ZM339.81,562.62c17.11,8.95,34.52,7.98,52.08,1.84-17.39.04-34.88,3.06-52.08-1.84Z"/><path class="cls-2" d="M458.58,336.59c-1.88,14.54-4.92,28.57-18.18,37.56-12.79,8.67-26.83,12.92-42.44,13.03-19.54.13-38.8-.79-57.31-7.78-13.43-5.07-25.26-12.73-34.92-23.27-5.69-6.21-5.28-14.53-4.54-22.29.63-6.55,2.76-12.88,5.77-18.83.64-.07,1.11-.32,1.04-1.08,0,0-.06.04-.06.04.98-.05,1.96-.1,2.94-.15-.66,12.94,4.65,23.48,13.19,32.7.78.84,1.71,1.61,2.7,2.18.88.5,2.08.6,2.74-.31.56-.78-.25-1.49-.73-2.16-3.31-4.6-6.2-9.47-8.49-14.65-2.67-6.03-4.2-12.17-2.33-18.84.89-3.16,1.76-6.08,5.14-7.26,2.02,14.34,11.9,22.62,23.49,29.19,12.17,6.91,25.7,9.67,39.46,11.29,18.71,2.21,34.08-4.52,47.06-17.62,2.53-2.55,3.28-6.16,5.42-8.92.73.08,1.47.17,2.2.25.8,2.94-.69,5.46-1.43,8.13-.26.94-.65,2.2.35,2.7,1.34.67,2-.68,2.67-1.58,1.18-1.58.12-4.59,3.18-4.99,1.84.95,1.03,4.08,3.63,4.41-2.31,11.88-10.04,20.17-19.96,25.4-29.41,15.51-59.46,15.38-89.46,1.11-.3-.14-.58-.38-.89-.44-1.45-.28-3.05-2.66-4.22-.55-.75,1.35,1.36,2.35,2.58,3.16,8.85,5.84,18.44,9.84,28.96,11.49,23.09,3.62,45.39,1.76,66.04-10.18,10.66-6.16,17.32-15.75,21.69-27.06,1.57,1.77,3.15,3.55,4.73,5.32ZM435.01,337.01c-.87-.08-1.6.12-2.02.98-1.96.12-3.05,1.47-4.1,2.89-1.74.94-3.46,1.93-5.23,2.81-16.15,8.01-33.46,9.49-50.97,7.83-11.3-1.07-21.99-4.95-31.34-11.83-4.18-3.08-7.89-6.72-11.8-10.44-.84,1.97.17,2.8.81,3.7,5.93,8.4,13.9,14.4,23.34,18.02,21.7,8.32,43.39,5.81,64.79-1.43,4.32-1.46,8.39-3.93,10.69-8.32,2.01-.19,3.67-.8,3.83-3.2.85.03,1.58-.18,1.97-1.02.13-.05.27-.09.37-.17.06-.05.04-.18.06-.28-.14.16-.27.32-.41.47Z"/><path class="cls-11" d="M791.24,607.68c2.05-17.94,2.77-35.93.04-53.82-5.03-32.99-15.03-64.36-30.54-94.04-11-21.06-26.51-37.32-47.47-48.38-2.93-1.55-6.07-2.67-9.12-4,5.42-5.85,17.64-7.09,26.8-2.87,11.11,5.11,20.36,12.61,28.31,21.76,13.76,15.84,24.24,33.7,32.85,52.8,8.61,19.11,14.44,39.09,18.13,59.55,3.34,18.49,4.87,37.3,2.86,56.17-.12,1.16-.12,2.35-1.07,3.23-3.58.13-5.41,2.95-7.68,5.06-3.71,3.46-7.93,5.38-13.12,4.54ZM721.19,408.03c.04,1.61,1.36,2.27,2.41,2.86,5.68,3.18,10.97,6.92,15.68,11.37,19.53,18.43,33.58,40.65,44.68,64.91,1.97,4.3,4.24,8.46,6.74,13.4,2.03-24.92-47.26-89.84-69.51-92.55ZM802.13,569.61c3.24-19.74-.82-38.41-7.4-56.72,3.33,18.78,3.79,37.98,7.4,56.72Z"/><path class="cls-9" d="M378.85,125.98c9.97.82,21.06,2.35,30.15,10.29,2.74,2.4,3.41,4.37.88,7.46-3.42,4.18-2.42,6.29,2.76,8.33,2.77,1.09,7.17-.22,8.07,3.74,1.38,6.06,3.86,12.27,1.31,18.55-1.97,4.87-6.48,4.07-10.31,3.34-7.2-1.36-7.19-1.56-7.85,5.36-.09.94-.32,1.68-1.29,1.82-3.86.53-7.39,2.81-11.64,1.38-5.18-1.74-10.63-2.68-15.82-4.39-6.24-2.05-7.25-5.02-4.01-10.63,1.92-3.33-.74-4.72-2.72-5.84-3.61-2.03-7.45-3.68-11.31-5.22-3.1-1.24-4.67-3.4-5.45-6.56-1.09-4.45-1.07-8.96-.45-13.37.68-4.86,3.79-6.13,8.37-4.03.76.35,1.49.75,2.24,1.1,2.22,1.03,4.42,2.78,6.82.41,2.25-2.21.15-4.03-.75-5.79-1.41-2.76-.87-4.24,2.16-5.2,2.47-.78,4.93-.59,8.82-.77Z"/><path class="cls-13" d="M510.19,674.93c-.62-1.06-.52-2.18-.45-3.37,2.03-33.3-8.75-62.49-28.91-88.48-6.21-8.01-13.17-15.44-20.59-22.41-2.46-2.31-5.18-4.17-8.25-5.52-4.43-1.95-4.92-3.73-1.74-7.38,1.81-2.08,4.05-3.47,7.03-2.86,3.12,1.26,6.28,2.42,9.35,3.79,13.71,6.14,22.38,17.52,30.2,29.63,12.52,19.37,18.71,41.05,22.26,63.56,1.61,10.21,1.9,20.53-.32,30.75-2.62,1.64-5.55,2.17-8.57,2.29Z"/><path class="cls-9" d="M694.64,607.57c3.87-.43,7.36-2.04,10.66-3.89,12.19-6.83,24.54-7.13,37.15-1.37,2.71,1.24,5.56,2.26,8.13,3.74,11,6.37,22.07,7.3,33.36.84.39,12.39-7.78,21.21-19.52,23.4-9.18,1.71-16.29-2.53-23.51-6.03-12.93-6.27-25.77-7.61-39.39-3.02-6.59,2.22-13.48,3.28-20.44,3.71-.03-.9.24-1.6,1.2-1.87,7.83-2.23,11.04-8.12,12.36-15.53Z"/><path class="cls-4" d="M486.76,677.07c3.45-18.05,2.1-35.86-3.86-53.11-6.12-17.7-13.88-34.54-29.09-46.77-4.97-3.99-9.82-7.42-16.56-6.52-2.99.4-3.25-.69-2.23-3.33,3.65-9.42,10.1-11.53,18.27-4.93,10.92,8.82,20.2,19.43,28.19,30.87,13.86,19.83,22.41,41.84,23.86,66.24.25,4.27.37,8.64-1.23,12.78-2.34-.54-4.07,1.06-6.08,1.7,1.63-6.74,2.82-13.53,1.83-20.49-.7-4.92-1.24-9.91-3.93-14.36,1.63,12.35,1.16,24.56-1.02,36.72-2.63,1.03-5.38,1.22-8.15,1.21ZM451.55,567.15c-.59-.55-1.38-1.24-1.96-.36-.66.99.45,1.22,1.12,1.53,1.05.97,2.1,1.94,3.15,2.91.36-.05.93.03,1.05-.17.56-.92-.4-1.17-.85-1.65-.4-1.24-1.46-1.73-2.5-2.25ZM457.5,572.43c-.48-.31-.87-1.06-1.56-.49-.67.55-.26,1.07.18,1.55,13.62,16.7,26.66,33.81,36.94,52.84-7.27-20.97-19.42-38.73-35.56-53.9Z"/><path class="cls-8" d="M381.89,722.22c9.8-4.92,19.09-10.7,27.87-17.23,13.42-9.97,26.68-20.16,40.01-30.26,1.65,7.14.92,14.01-4.38,19.3-9.41,9.39-20.21,17.24-29.81,26.48-6.23,6-12.22,12.24-18.5,18.17-5.65,5.33-10.12,12.63-19.06,13.36l-.04-.04c6.02-9.3,5.48-19.47,3.91-29.77Z"/><path class="cls-11" d="M341.8,702.35c-.17,1.2-.41,3.35-.81,5.47-1.23,6.61-6.06,8.42-11.72,4.72-9.97-6.52-15.77-16.27-21.44-26.31-4.48-7.92-6.04-16.39-6.98-25.22-.66-6.25,2.47-10.67,6.46-14.43,2.53-2.38,6.06-2.36,9.18.08,18.67,14.63,24.16,35.74,25.32,55.69ZM310.92,678.05c0,.84.08,1.64,1.06,1.95.4,1.57-.72,3.66.88,4.71,5.05,3.33,5.82,11.19,13.69,11.85,3.54.3,3.5,1.52,3.55-2.34.02-1.64.19-3.52-.5-4.9-4.59-9.19-9.2-18.4-15.49-26.6-1.29-1.69-3.04-3.08-4.78-4.34-1.16-.84-2.75-1.71-4.08-.3-1.19,1.26-.29,2.43.63,3.48.55.63.88,1.28.69,2.24-1.05,5.49,1.36,9.96,4.34,14.24Z"/><path class="cls-11" d="M469,672.99c-1.64-1.27-.92-3.07-.98-4.64-.97-29.56-9.3-56.6-27.52-80.22-3-3.89-6.45-7.43-10.22-11.73,7.15-.92,12.85-.92,18.36,3.7,18.95,15.88,27.12,37.34,32.23,60.46,2,9.02,1.99,18.2.93,27.35-.24,2.07-.02,4.39-1.85,6.03-.6-.06-1.2-.13-1.8-.19.68-8.31,3.29-16.57.82-25.9-1.52,3.41-.66,6.1-1.07,8.65-1.02,6.22-.08,12.86-3.91,18.48-1.44-1.23-3.09-1.95-5-1.98ZM474.94,626.99c-8.35-23.27-19.49-41.51-29.61-43.8.83,1.08,2.29,3.5,4.24,5.44,10.96,10.89,17.45,24.49,23.54,38.35,1.48,4.81,2.97,9.63,4.45,14.44.74-5.18-.95-9.8-2.62-14.43Z"/><path class="cls-4" d="M818,598c3.72-60.9-12.69-116.12-47.1-166.17-9.16-13.33-20.48-24.51-35.32-31.63-1.02-.49-1.95-1.16-3.03-1.81,1.85-2.11,3.79-1.17,5.65-.65,6.69,1.87,12.56,5.29,17.84,9.72,7.57,6.36,14.14,13.73,19.57,21.91,27.13,40.92,43.83,85.73,49.08,134.63,1.14,10.6.86,21.29-.66,31.89-.11.75-.66,1.44-1.01,2.16-1.67-.02-3.35-.04-5.02-.06Z"/><path class="cls-9" d="M524.07,611.9c3.88,4.85,7.85,9.66,10.55,15.3.85,1.78,1.38,2.52,3.61,1.76,24.13-8.25,49.07-13.28,74.08-17.86,12.62-2.31,24.73-6.83,37.44-8.51,7.4-.98,14.72-2.79,22.26-2.66,1.78.03,3.73-.45,5,1.42-.01,4.88-1.59,8.32-7.2,8.8-9.07.77-18.1,2.05-27.18,2.66-14.94,1-29.6,3.53-44.09,7.21-20.56,5.21-41.61,8.6-61.28,17.05-7,3.01-7.18,2.8-8.98-4.75-1.61-6.76-3.45-13.47-4.2-20.41Z"/><path class="cls-2" d="M421.82,188.78c1.77,17.39-9.86,24.71-25.22,27.07-13.14,2.01-24.28-3.26-33.16-12.98-6.06-6.63-6.42-17.32-.94-24.44,2.2,6.18,7.23,8.58,12.86,10.61,9.88,3.56,19.71,5.64,30.12,2.34,2.67-.84,5.13-1.37,5.61-4.68.26-1.81,1.66-1.78,3.07-1.58,1.4,3.65,5.31,2.03,7.67,3.66ZM362.78,185.14c-.33,5.37,2.24,9.11,6.16,11.76,11.45,7.73,23.86,7.84,36.64,4.09,2.2-.65,3.55-2.39,4.91-4.05.52-.64.83-1.56.13-2.26-.82-.82-1.44.04-2.12.44-6.58,3.88-13.77,4.39-21.08,3.44-9.79-1.27-18.5-4.8-24.65-13.42Z"/><path class="cls-3" d="M694.64,607.57c-1.31,7.41-4.53,13.3-12.36,15.53-.96.27-1.23.97-1.2,1.87-1.07,0-2.21.24-3.03-.76.28-1.69-5.36-4.12.65-5.11,6.9-1.13,9.55-4.18,10.4-11.79,1.91-1.98,1.72-4.57,2.01-7,3.47-28.4-4.01-54.44-17.47-79.04-5.98-10.94-12.39-21.67-20.62-31.18-7.22-8.35-14.59-16.21-27.17-14.23l.09.08c-.68-1.99,4.71-2.15,1.49-4.92.34-.02.67-.04,1.01-.06-.2,1.58.78,1.5,1.79,1.22,2.91-.8,5.86-.32,8.8-.31,10.77,4.5,18.07,13,24.57,22.1,15.22,21.34,27,44.27,31.72,70.43,2.62,14.5,2.18,28.82-.69,43.17Z"/><path class="cls-8" d="M342.03,717.99c6.88,3.7,14.03,6.59,21.85,7.67,4.17.58,8.24.11,12.32-.61,1.18,7.2,2.14,14.35-1.71,21.17-3.48,6.16-9.62,7.83-15.64,4.12-8.2-5.05-12.48-13.52-18.09-20.83-.6-.78-.96-1.75-1.53-2.55q-4.43-6.2,2.78-8.97Z"/><path class="cls-2" d="M252.48,575.97c1.98-.41,2.46,1.15,3.31,2.38,4.53,6.54,9.15,13.02,13.66,19.57,5.23,7.59,12.59,12.7,20.27,17.38,3.12,1.9,4.85,4.01,4.51,7.96-.27,3.08.54,6.24.79,9.38.22,2.77-.38,3.63-3.29,1.95-17.32-10-29.44-24.55-37.55-42.58-1.95-4.34-4.12-8.74-4.27-13.7.86-.78,1.72-1.56,2.58-2.34Z"/><path class="cls-11" d="M460.41,192.64c-10.88-3.71-22.07-4.55-33.45-3.57-4.16-9.98,5.86-13.74,9.34-20.28.67-1.26,5.26-.71,8.2.29,14.88,5.05,23.25,16.36,29.46,29.87-2.71.1-5.25-1.43-8.02-.81-2.84-4.66-2.91-10.82-7.95-14.74-.36,3.64,2.14,6.16,2.42,9.25Z"/><path class="cls-11" d="M436.08,469c-5.63-1.62-8.15-6.61-11.21-10.8-9.72-13.31-14.65-28.21-13.7-44.82.24-4.17.61-8.4,5.88-9.53,2.93,7.61,3.59,15.78,5.82,23.58,3.88,13.58,7.61,27.2,13.25,40.2.16.38-.02.91-.04,1.37Z"/><path class="cls-11" d="M370.5,120.24c6.79-7.75,14.36-10.48,23.11-8.98,8.56,1.46,16.59,4.63,23.93,9.42,3.46,2.26,5.88,5.36,7.55,9.05,2.24,4.94.22,9.04-4.91,10.3-.98.24-1.49.13-1.85-.87-3.15-8.99-11.14-12.19-18.93-15.33-7.64-3.08-15.72-4.09-23.97-3.59-1.28.08-2.57.01-4.94.01Z"/><path class="cls-6" d="M518.77,672.64c2.22-10.23,1.93-20.54.32-30.75-3.55-22.51-9.74-44.19-22.26-63.56-7.82-12.11-16.49-23.49-30.2-29.63-3.07-1.37-6.23-2.53-9.35-3.79.31,0,.61,0,.91.03,6.07-.68,11.57.93,16.8,3.97,1.15.67,2.19,2.74,4.05,1.08,0,0-.03-.03-.03-.03-.73,2.08.81,1.91,2.04,2.06,0,0-.06-.06-.06-.06-.14.85.28,1.13,1.06,1.06,0,0-.06-.05-.06-.05,1.9,2.53,3.22,5.74,7.05,6.02,0,0,0,0,0,0-1.39,2.26.92,3.12,1.85,4.26,12.45,15.23,19.81,32.88,25.48,51.5,2.27,7.45,2.4,15.39,5.67,22.54,1.45,12.17,1.47,24.34-.02,36.51-.53,4.31-.76,8.68-3.53,12.43-.12-4.56,1.19-9.05.3-13.57Z"/><path class="cls-11" d="M454.59,497.47c-5.59.54-7.35-3.16-8.55-7.61-1.52-5.62-.13-11.98-4.31-16.91-1.86-7.35-5.58-14.14-6.7-22.26,5.43,2.76,8.99,7.02,12.24,11.41,6.47,8.76,10.29,18.52,9.36,29.64-.17,1.99.39,4.46-2.04,5.73Z"/><path class="cls-4" d="M334.06,393.15c3.23.88,4.08,2.48,3.33,6.09-3.9,18.74-8.53,37.24-16.02,54.92-1.9,4.49-4.51,8.48-7.99,11.92-1.24,1.23-2.36,2.37-4.28,1.78,8.72-16.55,14.07-34.31,18.92-52.26,2.02-7.48,4.03-14.97,6.04-22.46Z"/><path class="cls-11" d="M485.8,532.68c-5.64-8.83-14.12-13.61-23.78-16.71-4.35-7.23-1.27-14.39.21-22.34,13.39,10.14,20.21,23.53,23.57,39.05Z"/><path class="cls-2" d="M518.77,672.64c.88,4.52-.42,9.01-.3,13.57,2.77-3.75,3.01-8.13,3.53-12.43,1.49-12.17,1.47-24.34.02-36.51.29-.43.58-.85.86-1.28,2.59,4.09,2.17,8.9,2.85,13.37,1.65,10.89,1.13,21.77-2.52,32.31-.75,2.18-1.64,4.38-2.89,6.3-2.7,4.14-11.9,5.03-15.5,1.74-.64-.59-.65-1.24-.28-1.73,2.92-3.9,2.86-9.08,5.65-13.03,3.03-.12,5.95-.65,8.57-2.29Z"/><path class="cls-8" d="M791.24,607.68c5.19.84,9.41-1.08,13.12-4.54,2.27-2.11,4.1-4.93,7.68-5.06-.47,14.68-7.2,23.92-19.35,26.55-1.78.38-3.86,1.07-5.2-.38-1.41-1.54-.29-3.44.46-5.11,1.66-3.66,2.41-7.57,3.29-11.45Z"/><path class="cls-9" d="M498.03,673.99c2.01-.63,3.74-2.24,6.08-1.7-.69,2.71-1.15,5.5-2.11,8.1-3.08,8.28-9.98,11.41-18.22,8.68-2.17-.72-1.37-1.73-.85-2.94,1.29-3.01,2.56-6.04,3.83-9.05,2.78,0,5.53-.18,8.15-1.21.25.88.36,2.42.77,2.5,1.32.27,1.21-1.04,1.31-1.92.11-.93.02-1.92,1.04-2.46Z"/><path class="cls-12" d="M522.88,635.99c-.29.43-.58.85-.86,1.28-3.27-7.16-3.4-15.09-5.67-22.54-5.67-18.62-13.03-36.27-25.48-51.5-.93-1.14-3.24-2-1.85-4.26,5.41,3.99,9.26,9.33,12.67,14.98,9.52,15.78,15.84,32.8,19.27,50.88.7,3.71,2.6,7.22,1.92,11.17Z"/><path class="cls-4" d="M430.54,167.29c-2.89-7.44-.3-17.27-10.78-20.5,2.07-2.56,5-3.11,7.24-4.7,2.4-1.71,3.8-.53,5.28,1.36,4.47,5.69,3.82,16.45-1.75,23.85Z"/><path class="cls-9" d="M689.1,607.31c-.85,7.61-3.51,10.66-10.4,11.79-6.01.99-.37,3.41-.65,5.11-3.58-.53-6.67-1.98-9.1-4.72-.69-.77-1.34-1.74-.58-2.65.44-.53,1.58-.99,2.17-.79,5.61,1.92,6.13-2.47,7.58-5.87.66-1.56.25-3.84,2.63-4.39,2.49,2.17,5.6.9,8.36,1.51Z"/><path class="cls-4" d="M362.01,169.7c-9.46-3.86-19.31-3.46-29.19-2.68,3.1-3.72,8.16-3.62,12.81-6.27-5.05-1.16-8.68.97-12.48,1.89-.03-.46-.07-.93-.1-1.39,3.92-1.79,7.83-3.59,11.75-5.37.89-.4,2.07-1.06,2.42.39,1.86,7.52,8.71,8.4,14.31,10.96.76.35,1.97.5,2.19,1.05.63,1.59-.93,1.17-1.71,1.44Z"/><path class="cls-4" d="M275.07,506.42c-2.65-2.43-5.9-2.52-9.22-2.4,4.19-7.25,10.29-12.72,17.37-19.26-.67,9.08-1.96,16.28-8.16,21.66Z"/><path class="cls-2" d="M456.83,674.56c3.36.19,3.01-4.5,6.12-4.65.78,7.07-.88,13.79-2.86,20.48-.93,3.14-2.69,4.79-6.56,4.41,1.91-6.7,4.08-13.27,3.31-20.24Z"/><path class="cls-4" d="M458.58,336.59c-1.58-1.77-3.15-3.55-4.73-5.32.74-10.96-3.86-19.19-12.92-25.1-1.39-.91-1.4-2.09-.99-3.46,6.32,1.04,8.74,5.35,14.31,15.01,3.34,5.81,3.94,12.33,4.33,18.86Z"/><path class="cls-2" d="M469,672.99c1.92.03,3.56.75,5,1.98.62,3.43-1.18,6.62-1.03,10.01-.13.15-.27.3-.4.44.15-.13.3-.27.45-.4,3.7-2.86,3.54-7.48,5.15-11.29.6.06,1.2.13,1.8.19-.48,9.46-4.27,14.2-13.47,16.64.84-5.92,1.68-11.75,2.51-17.58Z"/><path class="cls-4" d="M306.08,464.25c-3.41-1.35-6.85-.71-10.3-.22,3.47-5.96,9.98-7.54,16.21-11.82-1.67,5.15-2.15,9.36-5.91,12.05Z"/><path class="cls-4" d="M449.11,328.34c-2.6-.32-1.79-3.46-3.63-4.41-.84-1.58-1.64-3.18-2.54-4.72-1.12-1.9-1.67-.62-2.22.46-.73-.08-1.47-.17-2.2-.25-.23-3.01.75-5.77,1.59-8.93,5.85,4.84,10.58,9.75,9,17.84Z"/><path class="cls-2" d="M818,598c1.67.02,3.35.04,5.02.06-.4,7.29-2.8,13.58-9.03,17.94l.02.02c.84-6.11,3.7-11.78,3.99-18.01Z"/><path class="cls-12" d="M479.04,549.98c-1.86,1.67-2.9-.41-4.05-1.08-5.22-3.04-10.72-4.65-16.8-3.97,2.34-3.23,5.66-2.37,8.61-1.68,4.63,1.09,9.2,2.6,12.24,6.72Z"/><path class="cls-12" d="M310.88,313.82c-.98.05-1.96.1-2.94.15,1.5-4.53,4.15-8.32,7.44-11.72.3.33.59.66.89.99-2.31,3.26-2.68,7.51-5.38,10.58Z"/><path class="cls-12" d="M333.05,161.24c.03.46.07.93.1,1.39-2.69,1.85-5.38,3.69-8.07,5.54-.6-.35-1.2-.7-1.8-1.06,2.62-3.01,6.33-4.23,9.77-5.88Z"/><path class="cls-12" d="M421.82,188.78c-2.36-1.63-6.27-.01-7.67-3.66,1.11-.04,2.3.14,3.33-.16,3.6-1.07,4.63.58,4.34,3.83Z"/><path class="cls-12" d="M252.48,575.97c-.86.78-1.72,1.56-2.58,2.34-.38-3.14.2-6.09,1.68-9.11,2.06,2.19,2.28,4.38.9,6.78Z"/><path class="cls-12" d="M639.04,471.87c-2.94-.01-5.88-.49-8.8.31-1.01.28-1.99.35-1.79-1.22,3.85-.27,7.71-.53,11.56-.8-.32.57-.65,1.14-.97,1.71Z"/><path class="cls-12" d="M489.03,558.97c-3.83-.27-5.15-3.48-7.05-6.02,3.62.52,5.5,3.07,7.05,6.02Z"/><path class="cls-10" d="M335.04,527.94c1.52.19,3.29-.44,4.47,1.55-2.04.85-3.32-.26-4.58-1.43l.11-.12Z"/><path class="cls-10" d="M414.55,530.32c-.97,1.92-2.33,1.67-4.16,1.53,1.36-1.37,2.43-2.02,4.16-1.53Z"/><path class="cls-12" d="M481.04,552.01c-1.23-.14-2.77.02-2.04-2.06,1.16.21,2.5.25,2.04,2.06Z"/><path class="cls-10" d="M310.04,516.19c.25-.49-.73-1.81.92-1.35.38.69.76,1.39,1.14,2.08l-.19.19c-.62-.31-1.25-.61-1.87-.92Z"/><path class="cls-10" d="M417.93,527.97c0,.42.02.83.03,1.25-.39.5-1.04,1.01-1.33.24-.29-.79.67-1.14,1.3-1.48Z"/><path class="cls-8" d="M343.98,531.03c-.74-.15-1.48-.31-2.22-.46.09-.13.15-.35.27-.38.85-.24,1.54,0,2,.78l-.05.06Z"/><path class="cls-10" d="M406.03,533.03c-.47.73-1.13,1.03-1.97.76-.12-.04-.18-.25-.26-.38.73-.15,1.46-.3,2.19-.44l.05.06Z"/><path class="cls-10" d="M405.98,532.97c.48-.74,1.13-1.05,1.99-.77.12.04.18.25.26.38-.74.15-1.47.3-2.21.45,0,0-.05-.06-.05-.06Z"/><path class="cls-8" d="M344.03,530.97c.76.16,1.52.31,2.28.47-.09.14-.15.36-.27.4-.88.27-1.58,0-2.06-.8,0,0,.05-.06.05-.06Z"/><path class="cls-10" d="M330.98,526.23c.12.05.24.11.36.16l-.49.38c-.06-.11-.2-.24-.17-.32.04-.1.2-.15.31-.22Z"/><path class="cls-10" d="M317.08,519.9c.44.18.88.35,1.32.53-.1.13-.26.38-.29.36-.41-.2-.81-.44-1.21-.67l.18-.22Z"/><path class="cls-10" d="M316.89,520.11c-.66-.34-1.33-.69-1.99-1.03l.18-.18c.66.33,1.33.67,1.99,1,0,0-.18.21-.18.21Z"/><path class="cls-12" d="M317.74,301.55c-.49.56-.98,1.13-1.47,1.69-.3-.33-.59-.66-.89-.99.49-.48.97-.95,1.46-1.43.3.24.6.48.9.72Z"/><path class="cls-10" d="M334.94,528.06c-.44-.16-.87-.31-1.31-.47.1-.13.26-.37.28-.36.39.22.76.46,1.14.7,0,0-.11.12-.11.12Z"/><path class="cls-12" d="M308,313.93c.07.76-.39,1-1.04,1.08.35-.36.69-.72,1.04-1.08Z"/><path class="cls-12" d="M482.05,553.01c-.78.07-1.2-.21-1.06-1.06,1.12-.41,1.67-.26,1.06,1.06Z"/><path class="cls-12" d="M318.88,298.89c.35-.23.92-.73,1.02-.65.82.66-.03,1.01-.36,1.46-.22-.27-.44-.54-.67-.82Z"/><path class="cls-12" d="M321.62,297.74c-.19-.1-.39-.2-.59-.31.1-.1.22-.29.3-.27.22.04.41.17.62.27-.1.1-.2.19-.33.31Z"/><path class="cls-10" d="M312.1,516.92c.12.18.24.36.36.54-.18-.12-.37-.24-.55-.35,0,0,.19-.19.19-.19Z"/><path class="cls-10" d="M314.9,519.08c-.12-.18-.24-.36-.36-.54.18.12.36.24.55.35,0,0-.18.18-.18.18Z"/><path class="cls-2" d="M813.99,615.99c-.08.14-.16.28-.24.42.09-.14.17-.27.26-.41,0,0-.02-.02-.02-.02Z"/><path class="cls-11" d="M437.01,470c-.35-.36-.69-.72-1.04-1.08,1.01-.28.94.48,1.04,1.08Z"/><path class="cls-12" d="M316.83,300.83c.35-.32.7-.64,1.05-.96.22.25.46.47.72.69-.29.33-.58.66-.87.99-.3-.24-.6-.48-.9-.72Z"/><path class="cls-8" d="M378.02,752.03c-.15.14-.29.28-.44.42.13-.15.27-.31.4-.46,0,0,.04.04.04.04Z"/><path class="cls-9" d="M333.02,298.98c.16.15.31.31.47.46-.17-.14-.34-.28-.51-.42,0,0,.04-.04.04-.04Z"/><path class="cls-12" d="M319.55,299.7c-.32.29-.63.57-.95.86-.25-.21-.49-.44-.72-.69.33-.33.67-.66,1-.99.22.27.44.54.67.82Z"/><path class="cls-5" d="M217.65,761.67c-1.66.4-2.46-.47-2.76-1.99-.13-.65-.23-1.31-.33-1.97-1.78-11.13-4.37-12.5-14.79-7.83-.61.27-1.22.54-1.81.83-9.87,4.94-10.6,4.94-15.95-5.06-4.18-7.81-5.1-16.79-7.79-25.16-.66-2.04.88-2.48,2.28-3.12,4.59-2.07,9.43-3.36,14.34-4.18,2.9-.49,3.66-1.7,2.97-4.32-.42-1.6-.38-3.48-1.23-4.78-2.94-4.49-.57-6.7,3.32-8.04,8.96-3.07,17.65-6.89,26.77-9.56,3.47-1.02,4.97-.03,5.79,3.18.7,2.73,1.43,5.48,2.41,8.12,1.83,4.94,5.65,6.5,10.27,3.91,2.73-1.53,5.07-3.75,7.58-5.67,4.52-3.46,6.94-3.45,10.59.92,6.33,7.58,10.92,16.25,14.97,25.22.98,2.17.28,3.29-2.02,4.02-4.69,1.5-9.56,1.16-14.33,1.77-6.85.88-8.71,3.31-7.04,10.08.79,3.2,2.03,6.29,3.2,9.38,1.35,3.56.13,5.83-3.33,6.98-10.77,3.58-21.86,5.71-33.09,7.25Z"/><path class="cls-2" d="M202.17,756.15c-.1,3.41-1.83,5.25-5.05,6.52-3.25,1.28-6.56,2.31-9.84,3.47-2.41.86-4.4.46-5.83-1.36-7.83-9.88-14.6-20.26-14.48-33.57.02-1.81-.17-3.69,1.54-5.61,1.41,4.35,3.21,8.36,3.96,12.56,1.42,7.94,5.85,14.04,11.08,19.67,3.8,4.09,8.27,2.3,12.4.4,1.95-.9,3.64-2.34,5.93-2.37l.29.29Z"/><path class="cls-2" d="M208.15,759.39c1.24,4.5,4.75,7.08,3.91,11.36-.16.82.18,1.73,1.15,1.96,1.25.3,1.92-.67,2.18-1.58.98-3.46,3.63-4.31,6.74-4.72,9.39-1.26,18.48-3.83,27.58-6.32.9-.25,2.32-1.39,3.07.09.62,1.22-.52,2.13-1.32,2.98-1.9,1.99-4.38,3-6.9,3.85-8.96,2.99-17.79,6.35-27.29,7.55-3.48.44-6.3.5-8.14-2.85-1.94-3.54-4.75-7.01-.98-12.3Z"/><path class="cls-2" d="M272.44,731.16c-2.19,4.96-6.05,7.44-9.95,9.91-1.32.84-2.77,1.62-4.03.35-1.54-1.56-2.12-3.79-2.22-5.89-.09-1.84,1.79-2.19,3.22-2.43,4.17-.7,8.37-1.26,12.98-1.94Z"/><path class="cls-2" d="M201.88,755.86c.21-.11.42-.22.63-.33-.12.2-.23.41-.34.61,0,0-.29-.28-.29-.28Z"/><path class="cls-14" d="M460.41,192.64c-.27-3.08-2.77-5.6-2.42-9.25,5.04,3.92,5.11,10.08,7.95,14.74,4.69,13.53.95,25.12-9.34,34.2-8.53,7.53-18.59,12.75-30.13,14.57-29.04,4.6-56.8.16-83.42-11.93-5.93-2.69-8.93-5.69-11.99-10.68,3.52.67,5.71,3.06,8.32,4.52,14.17,7.9,29.62,11.7,45.42,14.13,16.26,2.5,32.63,2.16,48.25-3.27,13.04-4.54,24.92-11.21,29.26-26.03,2.14-7.32-.46-14.08-1.91-21Z"/><path class="cls-14" d="M431.6,261.13c-6.37,3.51-12.27,5.99-18.52,7.83-21.76,6.39-41.86.49-61.58-8.25-1.25-.56-3.56-1-2.96-2.72.69-2,2.81-.9,4.33-.53,8.69,2.1,17.15,5,25.95,6.79,15.97,3.26,31.6,2.33,47.06-2.65,1.49-.48,2.93-1.55,5.72-.47Z"/><path class="cls-3" d="M325.07,168.17c2.69-1.85,5.38-3.69,8.07-5.54,3.81-.92,7.44-3.04,12.48-1.89-4.66,2.66-9.71,2.55-12.81,6.27-7.36,6.28-13.96,13.18-14.66,23.46-.39,5.76-.93,11.63.71,17.36.24.83.53,1.98-1.1,2.93-4.27-5.73-3.85-12.27-3.57-18.81.36-8.56,3.82-15.64,9.91-21.56.54-.52.66-1.47.97-2.22Z"/><path class="cls-6" d="M629.3,486.43c5.68-1.48,10.4.27,14.43,4.12,14.75,14.08,23.87,31.37,29.06,50.93,3.85,14.51,6.26,29.27,8.2,44.13.4,3.05-.19,5.96-1.01,8.86-.31,1.12-.42,2.56-1.94,2.43-1.68-.15-2.18-1.79-1.9-3.01,1.38-5.92-.25-11.64-1.27-17.28-4-22.26-7.57-44.75-19.72-64.48-6.47-10.51-13.65-20.54-25.86-25.69Z"/><path class="cls-3" d="M625.86,475.86c-.06.19-.12.38-.18.57,0-.07-.04-.17-.01-.22.08-.1.19-.18.29-.27,0,0-.09-.08-.09-.08Z"/><path class="cls-6" d="M341.95,615.02c4.09,2.66,5.85,7.07,8.1,11.06,4.15,7.36,6.6,15.39,8.77,23.55-8.3-9.94-11.93-22.33-17.97-33.43.37-.39.73-.78,1.1-1.17Z"/><path class="cls-10" d="M433.44,612.6c.45,1.2.09,1.78-.54,2.03-.37.15-.93-.03-1.36-.18-.29-.1-.57-.38-.74-.65-1.61-2.47-3.51-4.83-3.49-7.99,0-.2.96-.67,1.13-.54,2.68,1.93,3.77,4.95,5.01,7.33Z"/><path class="cls-2" d="M341.95,615.02c-.37.39-.73.78-1.1,1.17-2.26-2.26-4.78-4.31-5.8-7.68,2.79,1.63,5.3,3.55,6.89,6.51Z"/><path class="cls-14" d="M429.15,494.31c-7.04,15.66-38.58,28.4-53.77,25.56,18.72-5.95,36.96-12.94,53.77-25.56Z"/><path class="cls-14" d="M417.91,554.11c3.48-3.62,7.79-5.43,11.67-7.69,6.23-3.63,11.7-8.17,17.17-12.77.25-.21.46-.49.72-.69,2.35-1.73,5.89-5.21,7.42-3.3,1.91,2.37-2.72,3.83-4.45,5.76-7.36,8.21-16.58,13.68-26.54,18.02-1.61.7-3.45,2.03-6,.67Z"/><path class="cls-3" d="M339.81,562.62c17.2,4.9,34.7,1.88,52.08,1.84-17.56,6.14-34.97,7.11-52.08-1.84Z"/><path class="cls-14" d="M429.19,341.22c-2.31,4.38-6.38,6.85-10.7,8.31-21.41,7.24-43.09,9.75-64.79,1.43-9.44-3.62-17.42-9.62-23.34-18.02-.64-.91-1.65-1.74-.81-3.7,3.91,3.72,7.62,7.36,11.8,10.44,9.36,6.89,20.05,10.76,31.34,11.83,17.51,1.66,34.82.18,50.97-7.83,1.77-.88,3.49-1.87,5.23-2.81l.3.35Z"/><path class="cls-3" d="M440.72,319.67c.55-1.08,1.11-2.36,2.22-.46.91,1.54,1.7,3.15,2.54,4.72-3.05.4-1.99,3.41-3.17,4.99-.67.89-1.34,2.24-2.67,1.58-1-.5-.61-1.76-.35-2.7.74-2.67,2.23-5.19,1.43-8.13Z"/><path class="cls-14" d="M428.89,340.87c1.05-1.41,2.14-2.77,4.1-2.89l.02.03c-.16,2.4-1.82,3.01-3.83,3.2,0,0-.29-.35-.29-.35Z"/><path class="cls-14" d="M432.99,337.99c.42-.86,1.15-1.05,2.02-.98l-.02-.02c-.4.85-1.12,1.06-1.97,1.02,0,0-.02-.03-.02-.03Z"/><path class="cls-14" d="M435.01,337.01c.14-.16.27-.32.41-.47-.02.1,0,.23-.06.28-.1.09-.24.12-.37.17,0,0,.02.02.02.02Z"/><path class="cls-6" d="M721.19,408.03c22.24,2.7,71.54,67.63,69.51,92.55-2.5-4.94-4.77-9.1-6.74-13.4-11.1-24.26-25.15-46.48-44.68-64.91-4.72-4.45-10-8.19-15.68-11.37-1.05-.59-2.37-1.25-2.41-2.86Z"/><path class="cls-6" d="M802.13,569.61c-3.61-18.74-4.07-37.94-7.4-56.72,6.58,18.3,10.64,36.98,7.4,56.72Z"/><path class="cls-6" d="M457.5,572.43c16.14,15.16,28.29,32.93,35.56,53.9-10.28-19.03-23.32-36.14-36.94-52.84l1.38-1.06Z"/><path class="cls-6" d="M498.03,673.99c-1.02.54-.93,1.53-1.04,2.46-.11.88,0,2.19-1.31,1.92-.41-.08-.52-1.63-.77-2.5,2.18-12.16,2.65-24.38,1.02-36.72,2.69,4.45,3.23,9.44,3.93,14.36.99,6.96-.2,13.75-1.83,20.49Z"/><path class="cls-2" d="M451.55,567.15c1.04.53,2.1,1.02,2.5,2.26-.07.61-.13,1.21-.2,1.82-1.05-.97-2.1-1.94-3.15-2.91.28-.39.56-.78.84-1.17Z"/><path class="cls-2" d="M450.71,568.32c-.67-.31-1.78-.54-1.12-1.53.59-.88,1.37-.19,1.96.36-.28.39-.56.78-.84,1.17Z"/><path class="cls-6" d="M456.12,573.49c-.44-.47-.86-1-.18-1.55.7-.57,1.08.18,1.56.49-.46.35-.92.71-1.38,1.06Z"/><path class="cls-6" d="M453.85,571.23c.07-.61.13-1.21.2-1.82.45.48,1.4.73.85,1.65-.12.2-.69.12-1.05.17Z"/><path class="cls-3" d="M310.92,678.05c-2.98-4.28-5.39-8.75-4.34-14.24.18-.96-.15-1.61-.69-2.24-.92-1.05-1.82-2.22-.63-3.48,1.33-1.41,2.92-.54,4.08.3,1.74,1.26,3.49,2.65,4.78,4.34,6.28,8.2,10.9,17.41,15.49,26.6.69,1.38.51,3.25.5,4.9-.04,3.86,0,2.64-3.55,2.34-7.87-.66-8.65-8.52-13.69-11.85-1.6-1.06-.48-3.14-.88-4.71.65.05,1.32.05,1.96.17,1.52.3,2.95,2.88,4.25,1.35,1.43-1.69-.7-3.58-1.61-5.15-.91-1.57-2.45-3.46-3.48.05-.35,1.19-1.15,1.48-2.17,1.62ZM319.99,684.02c.05.12.07.27.15.37.05.06.18.05.28.08-.13-.16-.26-.32-.4-.47-.06-.13-.09-.28-.18-.38-.05-.06-.19-.05-.29-.07.15.16.3.32.44.47Z"/><path class="cls-2" d="M310.92,678.05c1.02-.14,1.81-.43,2.17-1.62,1.03-3.51,2.57-1.62,3.48-.05.92,1.58,3.05,3.46,1.61,5.15-1.29,1.53-2.73-1.05-4.25-1.35-.64-.13-1.3-.12-1.96-.17-.98-.31-1.05-1.12-1.06-1.95Z"/><path class="cls-10" d="M473.1,626.98c-6.09-13.86-12.58-27.46-23.54-38.35-1.95-1.93-3.41-4.35-4.24-5.44,10.12,2.29,21.26,20.53,29.61,43.8-.61,0-1.22,0-1.83-.01Z"/><path class="cls-10" d="M472.97,684.98c-.14-3.39,1.65-6.57,1.03-10.01,3.83-5.62,2.89-12.27,3.91-18.48.42-2.55-.45-5.24,1.07-8.65,2.47,9.32-.14,17.59-.82,25.9-1.61,3.81-1.45,8.43-5.15,11.29l-.05-.04Z"/><path class="cls-8" d="M473.1,626.98c.61,0,1.22,0,1.83.01,1.66,4.62,3.35,9.24,2.62,14.43-1.48-4.81-2.97-9.63-4.45-14.44Z"/><path class="cls-14" d="M362.78,185.14c6.15,8.62,14.86,12.15,24.65,13.42,7.31.95,14.5.44,21.08-3.44.67-.4,1.3-1.26,2.12-.44.7.7.39,1.62-.13,2.26-1.36,1.67-2.71,3.41-4.91,4.05-12.78,3.75-25.2,3.65-36.64-4.09-3.91-2.64-6.48-6.38-6.16-11.76Z"/><path class="cls-10" d="M473.02,685.02c-.15.13-.3.27-.45.4.13-.15.27-.3.4-.44,0,0,.04.04.04.04Z"/><path class="cls-2" d="M319.99,684.02c-.15-.16-.3-.32-.44-.47.1.02.24,0,.29.07.09.1.12.25.18.38l-.03.03Z"/><path class="cls-2" d="M320.01,683.99c.13.16.26.32.4.47-.1-.02-.23-.02-.28-.08-.08-.1-.1-.24-.15-.37,0,0,.03-.03.03-.03Z"/></svg>