<?xml version="1.0" encoding="UTF-8"?><svg id="Capa_1" xmlns="http://www.w3.org/2000/svg" width="237.42mm" height="237.42mm" viewBox="0 0 673 673"><defs><style>.cls-1{fill:#ecd994;}.cls-1,.cls-2,.cls-3,.cls-4,.cls-5,.cls-6,.cls-7,.cls-8,.cls-9,.cls-10,.cls-11,.cls-12,.cls-13,.cls-14{stroke-width:0px;}.cls-2{fill:#e3d08e;}.cls-3{fill:#524d3a;}.cls-4{fill:#56513d;}.cls-5{fill:#f0dc96;}.cls-6{fill:#282723;}.cls-7{fill:#544f3c;}.cls-8{fill:#20201b;}.cls-9{fill:#3a372b;}.cls-10{fill:#eedb95;}.cls-11{fill:#dac889;}.cls-12{fill:#312f25;}.cls-13{fill:#efdb96;}.cls-14{fill:#232320;}</style></defs><path class="cls-5" d="M632.07,205.55c.61-.42,1.11-.33,1.48.33-.17,1.67,1.32,1.85,2.26,2.52.24,1.31.51,2.61.72,3.92,2,12.16-1.25,22.94-9.75,31.61-4.76,4.86-5.17,4.12.07,8.91,8.14,7.45,15.96,14.64,19.51,26.2,4.35,14.15.82,24.84-10.6,31.12-6.72,3.7-11.11,9.86-14.02,17.04-1.62,4-3.1,8.13-5.96,11.48-2.71,3.18-2.81,6.57-1.4,10.26,2.09,5.44,4.02,10.92,5.28,16.62.86,3.88.6,7.01-3.03,9.62-2.95,2.12-5.47,4.87-7.98,7.53-4.35,4.6-9.64,6.87-15.92,7.2-12.66.67-23.96-3.52-34.53-9.85-14.04-8.41-26.19-19.4-39.15-29.29.4-.31.79-.62,1.19-.92,8.83,5.27,17.38,11.12,26.57,15.69,13.11,6.52,26.81,8.54,40.78,1.97,4.83-2.27,9.91-2.48,15.11-1.2,1.62.4,2.91,2.34,5.05,1.18-.42-2.41-2.32-3.13-4.14-3.9-6.29-2.67-12.37-1.77-18.26,1.26-2.97,1.53-5.95,2.99-9.35,3.21-10.69.69-20.65-1.32-30.23-6.5-19.62-10.61-36.94-24.91-56.92-34.88-5.34-2.67-10.67-5.41-15.74-8.52-17.61-10.81-33.69-23.76-49.95-36.44-1.28-1-2.22-2.43-3.31-3.66-2.51-5.3-7.77-7.93-11.63-11.92-8.59-8.89-18.16-16.49-28.89-22.72-2.78-1.61-6.57-1.26-8.47-4.44,2.78-3.08,6.68-1.53,9.99-2.42,3.31.76,6.59.1,9.87-.26,3.78,1.24,7.75,1.25,11.64,1.83,10.17,1.51,20.57.31,30.65,2.73,1.68,1.56,3.83,1.89,5.96,2.18,7.75,1.04,15.51,2,23.26,3.06,5.22.71,10.34.22,15.29-1.4,5.57-1.83,7.54-6.74,8.87-12.67,2.8,6.63,2.56,12.66,2.39,18.64-.33,11.7-4.61,16.5-15.88,18.07-13.8-.78-25.83-7.49-38.61-11.84,2.85,3.05,6.45,4.66,9.96,6.43,12.91,6.53,26.48,10.72,41.02,11.02,6.7.14,10.4-3.76,10.76-10.45.21-4.02-.46-7.95-1.18-11.88-1.05-8.55-2.94-16.89-5.93-24.97-.46-1.58-.77-3.23-1.41-4.74-6.7-15.73-11.48-32.16-17.34-48.19,2.08-2.03.08-3.79-.6-5.39-6.06-14.4-12.29-28.72-18.46-43.07-6.03-14.04-11.05-28.54-19.27-41.56.06-.39.12-.78.18-1.17,4.15.69,5,5.08,7.97,7.09,2.48,4.1,5.01,8.17,7.44,12.29,8.45,14.3,17.14,28.45,20.73,45.04,1.19,5.51,3.63,10.72,7.23,15.2,1.38,1.72,2.62,3.79,5.15,4.05.59-1.06.3-1.81,0-2.6-.72-1.84-2.03-4.29-.03-5.43,2.27-1.28,3.07,1.76,4.42,3.02.59.55.91,1.38,1.34,2.09,3.45,5.67,6.39,11.64,10.5,16.93,3.34,4.29,7.5,7.54,11.98,10.39,2.15,1.37,4.78,1.78,6.99-.07,2.3-1.93,1.22-4.19.23-6.36-2.43-5.32-5.65-10.13-9.2-14.78-12.59-16.51-25.83-32.54-37.09-50.05-2.96-4.61-6.05-9.16-9.44-13.47-1.8-2.28-3.44-4.51-4.2-7.32h0c-.73-1.28-1.69-2.33-3.06-2.95-1.5-1.23-2.43-3.27-4.76-3.28l.05-.15c-7.96-8.77-16.17-17.28-24.9-25.35,1.89-1.51,3.87-.68,5.75-.21,3.77.94,7.1,2.86,10.26,5.02,7.83,5.35,15.57,10.85,23.39,16.22,1.11.76,2.6,2.47,3.77.62.94-1.5-1.09-2.13-2.06-2.85-4.67-3.46-9.48-6.75-13.69-10.78.23-.32.46-.63.69-.95,7.07,1.97,13.81,4.63,20.26,8.22,10.97,6.09,20.02,15.05,30.78,21.2,17.38,9.92,29.45,24.68,40.68,40.47,2.9,4.08,6.39,8.06,5.07,13.97-.48,2.17,1.17,4.39,2.65,6.27,3.13,3.97,7.39,6.12,12.03,7.65,9.94,3.28,19.88,6.53,29.84,9.75,12.18,3.93,24.61,7.36,32.68,18.56.83,1.15,2.33,1.8,3.51,2.69l3.09,2.49ZM521.91,138.77c-8.97-8.04-19.6-13.52-29.58-20.02.56,3.77,4.84,4.05,5.63,7.37-4.4.61-6.77-3.82-10.72-4.33-2.52-1.55-5.06-3.04-9.19-3.65,2.99,2.57,5.35,3.9,7.97,4.83,18.51,11.06,34.32,25.69,51.27,38.82.65.5,1.26,1.14,1.66,1.84,7.93,13.93,20.49,22.46,34.45,29.21,1.89.92,4.49,4.5,5.53,2.43,1.38-2.74-2.86-3.81-4.95-4.96-13.97-7.69-25.6-17.75-34.15-31.37-2.33-3.71-4.62-7.68-8.51-10.2-.06-2.29-1.7-3.5-3.26-4.76-1.79-2.04-3.55-4.12-6.15-5.22ZM501.92,303.83c1.36-.14,2.75-.19,3.71-1.54-1.64-.79-3.15-.55-4.67-.08-12.12.99-23.32-1.28-32.93-9.24-22.78-20.7-47.3-38.96-74.9-52.8-3.38-1.69-7.26-3.44-11.33-1.37-2.83,2.79.82,2.8,1.73,3.46,10.36,7.48,21.02,14.56,31.24,22.22,17.05,12.76,34.52,24.83,53.44,34.68,10.65,5.55,21.83,7.71,33.7,4.67ZM510.36,256.48c-2.77-17.46-6.91-34.48-16.39-49.76-.26-.42-.6-.8-.91-1.19-.88-1.07-2.02-2.2-3.37-1.46-1.76.97-.29,2.29.17,3.41,2.41,5.84,5.15,11.56,7.22,17.51,4.25,12.24,8.7,24.48,6.02,37.9-1.06,5.31-3.57,10-5.37,14.99-.51,1.4-2.4,3.35-.25,4.3,2.03.9,2.28-1.84,3.16-3.07,1.55-2.15,2.97-4.41,4.34-6.69,2.95-4.88,5.48-9.92,5.37-15.95ZM477.61,93.98c-1.18-1.4-2.4-1.54-4.19-.89,1.31,1.6,2.42,2.22,4.19.89ZM469.47,91.89c.24-.44,1.15-.4.77-1.37-.48-1.22-1.48-1.71-2.66-1.96-.85-.18-1.3.39-1.21,1.02.23,1.61,1.66,1.85,3.1,2.3Z"/><path class="cls-14" d="M519.07,350.78c12.96,9.89,25.11,20.88,39.15,29.29,10.57,6.33,21.88,10.52,34.53,9.85,6.29-.33,11.57-2.6,15.92-7.2,2.51-2.66,5.04-5.41,7.98-7.53,3.63-2.61,3.89-5.74,3.03-9.62-1.26-5.71-3.2-11.19-5.28-16.62-1.42-3.69-1.32-7.07,1.4-10.26,2.85-3.34,4.34-7.48,5.96-11.48,2.91-7.18,7.3-13.35,14.02-17.04,11.42-6.28,14.95-16.97,10.6-31.12-3.55-11.56-11.37-18.76-19.51-26.2-5.24-4.8-4.83-4.05-.07-8.91,8.49-8.67,11.75-19.45,9.75-31.61-.22-1.31-.48-2.61-.72-3.92.51-.52,1.02-1.03,1.54-1.55,1.91.78,2.59,2.54,3.14,4.27,6.25,19.84,10.02,40,7.33,60.91-.31,2.41.72,4.29,1.58,6.13,5.63,12.11,2.35,22.36-5.44,32.38-6.1,7.83-10.9,16.63-14.36,26.01-2.32,6.28-2.07,12.75-.4,19.19,1.79,6.92,1.61,12.98-5.44,17.45-3.87,2.45-7.35,5.86-10.27,9.44-9.72,11.91-22.29,12.83-35.83,9.67-15.12-3.53-27.65-11.94-39.41-21.73-6.9-5.75-13.73-11.63-21.01-16.88-36.99-26.69-74.82-52.24-110.23-81.08-2.19-1.78-5.04-2.86-6.91-4.88-4.83-5.2-9.75-2.44-14.57-.51-1.88.75-3.02,3.34-2.79,5.01.71,5.16-2.23,9.13-3.56,13.61-2.33,7.85-3.04,16.01-4.21,24.06-.68,4.64-1.16,9.39-3,13.59-4.01,9.19-4.31,19.07-6.1,28.66-1.1,5.91-2.28,11.78-4.67,17.3-6.68,15.46-9.19,32.17-14.45,48.04-2.82,8.5-6.04,16.87-9.23,25.24-.57,1.49-1.33,2.49.34,3.81,5.58,4.41,7.4,10.46,7.02,17.3-.17,3.09.81,4.67,3.76,6.43,13.11,7.8,24.12,17.6,29.27,32.76,2.08,6.13,1.29,12.23,1.07,18.29-.26,7.22,1.63,14.06,2.49,21.07.6,4.88-.55,9.03-2.39,13.42-4.57,10.93-12.19,18.46-22.53,24.32-31.75,17.99-65.34,21.88-100.4,13.83-17.49-4.01-33.52-11.72-47.37-23.58-4.19-3.59-6.6-7.89-7.58-13.07-1.11-5.88-1.89-11.79-1.35-17.86.38-4.28.52-8.79-.36-12.95-4.41-20.75,6.43-43.51,26-53.71,5.93-3.09,8.15-6.94,7.81-13.13-.37-6.64,3.19-11.08,8.77-13.84,3.59-1.77,5.05-4.36,6.42-8.08,6.43-17.55,6.77-35.86,7.6-54.14.25-5.49.44-10.98.78-16.46.19-3.05-.64-4.77-3.97-5.7-6.09-1.71-11.81-4.45-17.13-7.96-8.51-5.6-8.69-20.61.03-25.86,3.46-2.08,2.92-3.13,1.14-6.22-13.06-22.62-17.77-46.14-5.91-70.86,3.47-7.24,9.78-12.27,15.62-17.35,19.09-16.6,41.46-22.07,65.13-13.42,19.39,7.09,30.82,23.06,38.21,42.41,8.47,22.17.89,40.61-11.24,58.34-2.51,3.67-3.61,5.35,1.63,6.89,4.52,1.33,6.19,5.3,6.59,9.71.36,3.94.51,7.9.75,11.87,1.91.25,1.78-1.29,2.03-2.19,6.4-22.72,13.01-45.39,15.83-68.93.33-2.79.71-5.69,1.75-8.26,3.11-7.68-2.99-13.31-4.14-20.02-.38-2.19-1.12-4.44.29-6.25,3.12-3.98,4.52-9.16,8.74-12.36,1.47-1.12,2.32-2.51,2.86-4.43,1.49-5.27,3.45-10.4,5.23-15.59.27.39.55.78.82,1.17-.44,2.16-.87,4.32-1.48,7.33,5.17-4.79,5.15-11.78,10.23-16.78-.14,1.67-.08,2.32-.26,2.9-1.7,5.37-3.82,10.52-7.33,15.03-.75.97-1.78,2.3-.89,3.62.71,1.07,1.8.09,2.71-.09,6.89-1.3,7.23-1.74,8.88-11.11.14-.15.27-.3.41-.45-.15.14-.3.28-.44.41-.89-.12-2.09.4-2.53-.72-.53-1.35,1.03-1.77,1.53-2.69.98-.53,1.97-1.06,2.95-1.59.65.02,1.3.04,1.95.06,2.3,1.45.95,3.17.25,4.73-.89,2-1.96,3.93-3.08,6.13,25.15-4.4,48.8-85.88,33.29-113.58-1.9,5.92-3.25,11.99-5.78,17.52-2.75,6.02-3.22,12-2.59,18.36.14,1.39-.4,3.02-1.08,4.31-3.75,7.12-6.03,14.74-8.04,22.47-.54-.67-1.08-1.33-1.62-2-1.76-1.99-2.02.35-2.71,1.03-1.46,1.43-1.08,4.19-3.52,4.95.68-2.59,1.36-5.19,2.04-7.78,2.62-3.93,5.3-7.82,7.83-11.81,2.19-3.45,4.01-7.08,4.21-11.3.2-.4.43-.78.59-1.2.03-.07-.19-.24-.3-.36-.2.43-.4.87-.59,1.3-2.33,1.94-2.29.15-1.86-1.34,1.21-4.25,2.89-8.38,3.89-12.68,1.48-6.33,5.48-11.96,5.16-18.77.31-.92,1.12-2.42.84-2.67-3.32-2.92-1.73-4.77,1.12-6.61,1.73-1.12,1.29-4.23.91-4.32-3.35-.83-2.16-3.85-2.01-5.23.41-3.68-1.51-5.24-4.18-6.64.19-1.6.43-3.11-.57-4.68-3.04-4.77-2.6-9.16,1.91-12.87,1.16-.02,2.37.12,3.06-1.15,4.95-.6,9.43.92,13.76,3.08.77.04,1.47-1.08,2.3-.15,7.09,2.35,14.15,4.78,21.27,7.03,4,1.27,7.65,3.23,11.3,5.2,16.45,8.88,31.06,20.56,46.02,31.55,13.75,10.1,22.94,24.83,32.49,38.88,1,1.46,1.25,3.14,1.03,4.78-.89,6.63,2.93,10.28,8.2,12.79,7.66,3.65,15.76,6.2,23.82,8.77,8.22,2.63,16.45,5.19,24.64,7.93,6.76,2.26,12.32,5.57,16.2,11.64,1.33,2.07,3.2,3.79,4.83,5.68-.78.46-.92,1.22-.95,2.03-1.19-.88-2.69-1.54-3.51-2.69-8.07-11.21-20.5-14.63-32.68-18.56-9.96-3.22-19.9-6.47-29.84-9.75-4.64-1.53-8.91-3.68-12.03-7.65-1.48-1.88-3.14-4.1-2.65-6.27,1.32-5.91-2.17-9.89-5.07-13.97-11.23-15.79-23.3-30.54-40.68-40.47-10.76-6.15-19.81-15.11-30.78-21.2-6.45-3.58-13.19-6.25-20.26-8.21-.8-.06-1.6-.12-2.4-.18-.36-2.12-1.59-2.78-4.3-2.45,1.56,1.66,2.82,2.28,4.35,2.41.07,1.07.95.99,1.65,1.17,4.22,4.04,9.02,7.32,13.69,10.78.98.72,3.01,1.36,2.06,2.85-1.17,1.85-2.66.14-3.77-.62-7.82-5.38-15.56-10.87-23.39-16.22-3.16-2.16-6.5-4.08-10.26-5.02-1.88-.47-3.86-1.3-5.75.21,8.74,8.07,16.95,16.58,24.9,25.35-3.65,2.01-4.94-3.6-8.28-2.56-2.97-2.01-3.82-6.4-7.97-7.09,0,0,.06.1.06.1.73-2.14-.79-1.94-2.07-2-.76-4.03-3.09-6.71-6.96-8.06,0-.84-.21-1.56-1.06-1.95-.41-.45-.82-.9-1.23-1.35-.13.21-.26.42-.38.62.55.23,1.09.47,1.64.7-.02.84.14,1.59.95,2.04,4.65,14.14,10.22,28.02,11.55,43.05,1.14,12.85,2.36,25.66-.16,38.55-2.29,11.72-5.27,23.21-9.37,34.41-4.56,7.7-9.65,15.04-15.11,22.12-3.65,3.23-7.42,6.35-10.49,10.49,5.91.56,12.56-3.58,15.59-9.42,5.84-2.98,7.83-8.89,10.78-14.09.99-1.75.9-3.42.06-5.14,2.29.08,2.59-1.78,3.08-3.31,1.16-3.64,2.33-7.28,3.26-10.97,4.85-19.28,8.97-38.64,5.87-58.72.64,0,1.27,0,1.91,0,.59,2.98,1.19,5.96,1.78,8.95.14,2.32.56,4.67.36,6.96-1.52,17.23-3.2,34.45-9.02,50.91-3.61,10.21-7.26,20.43-15.4,28.16-2.47,2.35-5.13,4.51-7.91,6.94,12.94,1.11,23.18-4.99,27.69-16.24,3.8-9.47,4.31-19.39,4.02-29.43-.05-1.68-1.06-3.59,1.47-5.71,1.63,8.85,1.23,17.17.91,25.49-1.14.85-.73,2.11-.81,3.22-.99,13.43-9.72,23.07-22.78,25.97-7.39,1.64-14.78,1.97-22.23,1.68-6.1-.23-11.86.98-17.5,3.06-1.84.68-4.35,1.04-4.33,3.44.02,2.46,2.75.97,3.97,1.88.35.26.47.83.7,1.26-3.31.89-7.21-.66-9.99,2.42-1.37,1.85-2.85,3.63-4.08,5.57-1.68,2.63-.16,5.49.85,7.53.84,1.7,2.95-.71,4.72-1.29-1.25-1.39-3.63-.45-4.05-2.46-.1-.49.33-1.4.77-1.63,1.84-.95,3.08.51,4.46,1.35,8.22,5.03,16.54,9.91,24.63,15.15,7.36,4.76,14.47,9.9,21.69,14.87,1.1,1.23,2.04,2.66,3.31,3.66,16.26,12.68,32.34,25.63,49.95,36.44,5.08,3.12,10.41,5.86,15.74,8.52,19.98,9.98,37.31,24.28,56.92,34.88,9.58,5.18,19.54,7.19,30.23,6.5,3.4-.22,6.38-1.69,9.35-3.21,5.89-3.03,11.97-3.92,18.26-1.26,1.82.77,3.71,1.5,4.14,3.9-2.15,1.17-3.43-.78-5.05-1.18-5.19-1.28-10.28-1.08-15.11,1.2-13.97,6.58-27.67,4.56-40.78-1.97-9.18-4.57-17.73-10.41-26.57-15.69-7.08-4.9-13.53-10.83-21.38-14.49-.28.44-.57.89-.85,1.33,7.01,4.69,14.02,9.39,21.04,14.08ZM248.99,346.03l-1.09-1.01c-1.22.12-3.28-.21-3.14,1.3.23,2.45,2.66,1.48,4.26,1.69l-.03-.02c1.91,2.45,5.02,1.85,7.47,2.93,3.03,1.34,3.72-.31,3.52-2.93,1.72.17,3.2-.52,4.7-1.25,1.01-.49,2.33-1.25,2.93.26.63,1.58-.74,1.75-1.94,2.02-1.55.34-3.2.7-4.1,3h5.54c.59,1.52,1.98.96,3.01,1.01,14.62.78,29.27,1.15,43.76-1.33,8.82-1.51,17.83-2.95,25.34-8.39,4.21-3.04,4.64-6.81,1.69-10.2-3.2-3.67-8.34-4.49-11.57-1.63-6,5.35-12.95,9.26-20.79,10.17-11.67,1.35-23.39,3.87-35.25,1.56-10.19-2.91-20.71-5.09-28.66-12.97-1.52-1.51-3.05-1.48-4.95-.46-6.63,3.59-7.17,8.47-1.15,13.11,2.5,1.93,4.89,1.66,6.23-1.66.15-.17.32-.33.49-.48,3.4,1.01,6.92-2.48,10.44.03-1.62,2.34-4.99,2.3-5.72,5.21-.34,0-.69.02-1.03.02h.03ZM374.05,280.97l-.06.09c2.58-2.19,5.18-4.36,5.57-8.07,1.56-4.12,3.1-8.26,4.71-12.37.54-1.39.69-2.59-.9-3.29-1.5-.66-2.51.07-3.21,1.38-.85,1.58-1.35,3.38-2.94,4.48-.15-.13-.29-.27-.43-.42.25-.96.43-1.94.76-2.87.61-1.73,2.61-3.69-.71-4.75-2.76-.88-3.91.7-4.48,3.15-1.08,4.68-2.53,9.3-3.29,14.03-1.94,12.09-2.59,24.47-5.56,36.28-4.81,19.13-10.22,38.15-16.47,56.9-1.7,5.11-2.69,10.27-6.29,14.8-2.15,2.7-3.66,6.49-3.86,10.58-.38,8.1-1.5,16.1-5.53,23.45-1.66,3.04-2.65,6.44-3.91,9.7-.63,1.62-1.01,3.68.13,4.79,2.76,2.67,2.27,6.16,2.86,10.44,2.94-5.01,3.81-9.93,7.7-13.29-1.89,5.56-3.77,11.13-5.66,16.69,3.48-.93,3.92-3.58,4.26-5.83.81-5.36,2.91-10.23,5.18-15.01.93-1.96,2.26-3.66,1.98-5.97,1.2-3.63,2.49-7.22,3.59-10.88,3.81-12.72,7.94-25.39,7.48-38.93.13-4.06,2.73-7.26,3.8-10.99.58,1.56-.31,3.5.91,5.06,2.14-1.04,2.04-2.85,2.38-4.37,2.58-11.46,4.07-23.12,7.84-34.36,3.84-11.47,4.42-23.72,6.93-35.53.67-3.17-1.19-2.72-2.97-2.81.06-.69.11-1.38.17-2.07ZM267.06,357.04c-12.01-1.91-23.77-4.53-33.93-11.84,8.96,10.07,21,13.6,33.63,15.89,1.5.9,3.2.78,4.84.99,13.88,1.79,27.57-.38,41.23-2.26,10.09-1.39,19.85-4.2,28.45-10.04,1.41-.96,3.61-1.53,2.3-4.37-7.72,6.24-17.15,7.66-26.36,9.56-16.59,3.43-33.37,2.94-50.16,2.07ZM243.76,266.03c.74-.02,1.47-.04,2.21-.06l.07.07c-1.38,3.65-3.69,6.37-7.35,8.01-1.12.5-.54,3.34-2.81,2.7-2.02-.57-1.83-2.5-1.99-4.14-.08-.84-.26-1.65-1.42-1.84-1.3,2.84-.16,5.98.92,8.01,1.55,2.91.14,3.81-1.42,5.24l.04-.03c-1.7-.26-1.45-2.43-3.12-3.17.38,9.81,3.18,18.87,6.49,27.65,6.39,16.93,18.88,26.74,36.88,29.36,2.1,1.57,4.56,1.86,7.07,2.13,8.73.91,17.23-1.37,25.85-1.88,5.08-.3,9.94-1.62,14.13-4.44,18.44-12.36,26.83-30.61,29.65-51.9.52-3.93.72-8.17-.63-11.91-6.72-18.65-16.91-34.74-35.04-44.36-4.53-2.41-9.51-3.95-14.85-3.08-12.1-2.79-23.74-1.19-34.48,4.8-6.32,3.53-12.35,7.78-17.85,12.48-6.09,5.2-13.6,10.2-10.18,20.36-.59.44-1.04,1.2-.2,1.47,1.17.36,1.09-.77,1.14-1.55.62-2.46,3-2.34,4.38-3.47,2.28,3.27-1.41,6.51.68,9.53.6.01,1.2.03,1.8.04ZM206.89,546.88c-3.97-.03-3,2.85-2.7,4.97,1.13,7.96,3.93,14.73,11.27,19.42,7.97,5.09,15.44,10.94,24.99,12.87.82,1.77,2.62,1.96,4.16,2.44,41.2,13.05,80.38,8.98,117.28-13.98,11.37-7.07,17.92-20.95,15.68-32.91q-7.47,9.96-10.28,9.76,10.15-14.41,8.2-20.03c-10,21.8-44.45,37.56-63.77,34.54,8.19-2.59,15.72-4.58,22.97-7.33,15.24-5.78,28.49-14.21,36.95-28.85,6.46-11.17,5.28-24.66-3.42-34.45-1.95-.15.51,4.93-3.21,2.69,1.07-3.85.01-7.69-3.56-10.57.7,4.95,4.51,9.34.47,13.52-1.59-1.35-.53-3.33-1.18-4.9-1.82-3.35-.09-7.35-1.6-11.77-1.82,5.02.06,8.81.2,12.68-.1.13-.18.29-.3.39-.11.09-.37.21-.4.18-1.85-2.36-2.68-5.14-2.64-8.06.12-8.51-1.75-11.29-10.51-14.95-1.41,3.72,1.06,7.81-1.05,11.8-3.33-3.85-1.91-8.41-2.76-12.96-8.41,9.64-18.41,14.92-30.95,14.56,2.23-1.36,4.7-2.15,7.15-3,7.85-2.72,14.87-6.75,19.92-13.53,5.61-7.52,4.48-14.38-3.16-20.22-.41-.29-.76-1.17-1.31-.47-.23.29.16,1.08.26,1.64,2.08,13.56-1.55,19.9-14.01,25.69-13.4,6.22-27.4,5.5-41.54,4.53-5.12-.35-9.7-3.57-15-2.5-1.3-2.85-4.42-2.68-6.68-3.84-11.02-5.64-14-10.91-12.51-22.97.03-.25-.29-.54-.45-.81-5.93,1.46-8.33,10.67-4.84,16.24,4.77,7.62,11.45,12.79,20.57,14.29,2.58,2.44,6,2.33,9.15,2.94,5.77,1.12,11.57,2.08,18.43,3.3-5.16,2.56-9.41,1.6-13.63,1.35-4.4-.25-8.53-2.52-13.06-1.61-8.86-3.95-17.81-7.75-24.06-17.56.33,6.1-.36,10.48-1.85,14.73-.43,1.24-.77,2.91-2.51,2.4-1.51-.44-1.39-1.89-1.16-3.35.48-3.13,2.14-6.17,1.09-10.09-4.25,2.72-8.27,4.94-11.55,8.3-3.24,3.33-6.75,6.42-8.96,10.61-2.25,4.26-5.9,8.6-5.55,13.11.33,4.24-2.41,6.97-2.51,10.7-.16,6.29,1.04,12.18,3.82,17.81.46.93,2.08,2.74-.12,3.12-5.04.87-2.75,3.61-1.56,5.71.81,1.44,2.1,2.55,1.81,4.41ZM268.62,473.1c4.14,3.46,9.31,3.04,14.14,3.52,13.76,1.38,27.24.68,39.61-6.58,6.89-4.04,9.53-9.37,7.56-17.02-2.77-10.77-6.21-21.36-8.89-32.15-4.35-17.53-5.59-35.39-4.85-53.41.08-2,1.27-4.94-3.11-4.13-11.14,2.06-22.43,2.57-33.74,2.89-6.23.06-12.37-.98-18.13-1.96-1.61,13.07-1.01,25.84-1.34,38.58-.14,5.44-.78,10.89-1.5,16.29-1.75,13.08-6.2,25.41-10.81,37.67-.72,1.91-.64,3.41.72,5.04,5.34,6.39,11.91,10.48,20.34,11.25ZM325.27,420.87c3.14-7.07,5.6-13.08,7.5-19.49,1.93-6.5,2.06-13.23,4.11-19.63,1.71-5.34,5.7-9.53,6.83-15.21,1.12-5.66,3.2-11.12,4.86-16.67-6.62,4.17-13,7.61-19.92,9.93-8.68,2.9-8.6,2.8-8.8,12.08-.36,16.19.92,32.17,5.43,49ZM645.57,269.17c-.66-15.02-.12-30.01-5.08-45.07-2.92,9.59-4.08,19.24-13.72,24.39,8.25,5.25,13.63,12.75,18.8,20.68ZM635.45,315.35c-4.93,2.95-8.27,7.14-10.51,12.23-2.14,4.86-3.98,9.87-7.74,13.83-1.56,1.65-1.43,3.56-.63,5.58,2.73,6.82,5.9,13.47,7.58,20.8,4.05-8.83-.55-17.86.9-26.77,1.54-9.43,6.62-17.16,10.39-25.67ZM232.83,266.8c1.77-3.2,1.07-6,.76-8.76-.8,2.65-2.49,5.21-.76,8.76ZM424.53,100.68c-.16.29-.4.54-.4.8,0,.26.21.53.33.8.14-.25.39-.5.4-.76.01-.26-.2-.54-.33-.84Z"/><path class="cls-3" d="M419.66,82.56c2.67,1.4,4.59,2.96,4.18,6.64-.15,1.39-1.34,4.4,2.01,5.23.38.09.82,3.21-.91,4.32-2.85,1.84-4.44,3.69-1.12,6.61.28.25-.53,1.75-.84,2.67-2.02.02-1.6,2.22-2.73,3.04-2.21-2.23,1.25-4.96-.79-7.35-2.76,5.39-2.81,11.48-4.77,17.02-.43,1.2.82,1.12,1.52,1.38-.35,2.51-1.1,4.88-2.65,6.93-5.46,1.23-2.96,5.64-3.54,8.83-3.31,1.74-2.26,5.81-4.39,8.18-.55-.03-1.1-.05-1.66-.08l.02.02c-1.6-8.07,2.58-14.85,4.96-22.02,4.9-8.78,7.5-18.42,9.65-28.09.75-3.37,3.04-7.21.4-10.91-.15-.91-.15-1.78.65-2.43Z"/><path class="cls-6" d="M424.07,63.85c-.69,1.27-1.91,1.13-3.06,1.15,1.22-4.17,4.59-6.78,7.15-9.99.62,0,1.25-.01,1.87-.02,1.44.25,1.95-.83,2.7-1.73,1.98-2.38,3.52-.96,5.12.91,3.07-4.64,2.27-10.32,4.32-15.15.52,0,1.04,0,1.55,0-.53,4.09-1.05,8.2-2.49,12.08-.98,2.65-.88,4.17,2.3,5.37,4.67,1.76,9.2,3.83,14.32,3.04,2.09-.32,2.6.95,3.11,2.34.66,1.82.08,3.26-1.67,4.13-3.48,1.73-7.07.83-10.7.6-2.78-.18-5.71-2.44-8.45.19-.83-.92-1.53.19-2.3.15-1.53-7.12-7.56-7.39-13.76-3.08ZM430.85,57.63c2.63,1.7,4.94,3.25,7.08,4.18,6.04,2.63,12.66,3.06,19.26,2.31.82-.09,1.68-.52,1.57-1.55-.12-1.15-1.04-1.07-1.88-.9-5.4,1.08-10.01-1.08-14.68-3.32-3.43-1.64-7.04-3.11-11.34-.71Z"/><path class="cls-6" d="M408.96,123.99c-2.38,7.18-6.56,13.95-4.96,22.02-1.32.02-1.39-2.13-3.29-1.75,1.38,8.99-.22,17.53-3.73,25.76l.04-.04c-.35.35-.7.7-1.05,1.05l.05-.04c-.31.01-.63.03-.94.04l-1.18-.06c5.48-9.97,3.42-21.36,5.91-31.92.74-3.13,1.04-6.24,3.44-8.55,2.16-2.07,2.45-5.05,3.94-7.43.59.31,1.18.61,1.77.92Z"/><path class="cls-14" d="M393.91,170.97c.39.02.78.04,1.18.06-.03.99-.05,1.98-.08,2.98-.77.43-1.04,1.08-.79,1.92.03.11.25.17.38.26.14-.73.27-1.46.41-2.19,1.2-.71.98-1.91,1.03-3.01,0,0-.05.04-.05.04.35-.35.7-.7,1.05-1.05,0,0-.04.04-.04.04,1.67,5.34-.76,9.74-4.15,13.16-2.01,2.03-3.02,4.11-3.91,6.55-2.69,7.42-3.87,15.37-7.77,22.38-.27-.39-.55-.78-.82-1.17,3.22-13.77,6.47-27.52,13.57-39.97Z"/><path class="cls-14" d="M408.96,123.99c-.59-.31-1.18-.61-1.77-.92,5.9-12.09,8.03-25.34,11.83-38.08,2.63,3.7.35,7.54-.4,10.91-2.15,9.67-4.76,19.31-9.65,28.09Z"/><path class="cls-9" d="M443.71,39.02c-.52,0-1.04,0-1.55,0-.26-1.31.49-3.22-1.92-3.26-1.99-.03-3.41.61-4.21,2.67-2.14,5.47-3.16,11.35-6,16.56-.62,0-1.25.01-1.87.02,2.1-5.86,4.16-11.73,6.32-17.57,1.06-2.86,3.27-4.1,6.26-3.58,2.92.51,3.55,2.53,2.98,5.16Z"/><path class="cls-6" d="M628.98,203.06c.03-.81.17-1.57.95-2.03,1.09.89,2.33,1.65,3.21,2.72.94,1.13.78,2.1-1.08,1.81-1.03-.83-2.06-1.66-3.09-2.49Z"/><path class="cls-6" d="M637.35,206.85c-.51.52-1.02,1.03-1.54,1.55-.94-.67-2.43-.85-2.26-2.52,1.66-1.21,2.62.28,3.8.97Z"/><path class="cls-7" d="M423.05,72.96c3.86,1.35,6.2,4.03,6.96,8.06.39.98,1.05,1.68,2.07,2,0,0-.06-.1-.06-.1-.06.39-.12.78-.18,1.17-1.38,4.59,1.9,8.03,3.12,11.93,7.76,24.89,17.48,48.99,30.05,71.87,1.3,2.37,1.89,5.44,5.16,6.22,5.86,16.03,10.64,32.46,17.34,48.19.64,1.51.95,3.16,1.41,4.74-.79.51-1.06,1.31-.85,2.14,1.89,7.61,3.82,15.22,5.74,22.82.06,3.66.16,7.32.17,10.98.02,3.75-1.7,6.79-5.32,7.52-5.32,1.06-10.76,1.06-15.76-1.78,11.27-1.57,15.56-6.38,15.88-18.07.17-5.99.41-12.02-2.39-18.64-1.33,5.93-3.3,10.84-8.87,12.67-4.95,1.62-10.07,2.12-15.29,1.4-7.75-1.06-15.51-2.02-23.26-3.06-2.13-.29-4.28-.62-5.96-2.18.06-.93.47-1.66,1.45-1.69,4.56-.14,8.1-2.52,11.56-5.13.15.73.62,1.25,1.35,1.15,6.56-.94,12.99-2.49,16.16-9.09,6.43-13.36,8.34-27.23,3.04-41.44-3.3-8.85-6.77-17.66-10.61-26.29-4.42-9.94-8.08-20.27-14.23-29.38-.59-2.98-1.19-5.96-1.78-8.95-1.38-4.72-1.66-9.81-5.06-13.9,1.05,4.63,2.1,9.27,3.15,13.9,3.11,20.08-1.01,39.44-5.87,58.72-.93,3.7-2.1,7.34-3.26,10.97-.49,1.53-.79,3.38-3.08,3.31-1.41-1.08-.95-2.56-.84-3.97,4.09-11.21,7.08-22.69,9.37-34.41,2.52-12.89,1.3-25.7.16-38.55-1.33-15.02-6.91-28.91-11.55-43.05,0,0,.08-.07.08-.07Z"/><path class="cls-4" d="M439.99,90.01c3.35-1.04,4.64,4.57,8.28,2.56,0,0-.05.15-.05.15-.31,3.86,2.35,3.4,4.77,3.28,1.37.62,2.33,1.67,3.06,2.95-.12.06-.26.11-.36.19-.06.05-.07.16-.11.24.15-.15.31-.29.46-.44.76,2.81,2.4,5.04,4.2,7.32,3.39,4.3,6.48,8.86,9.44,13.47,11.25,17.51,24.5,33.54,37.09,50.05,3.54,4.65,6.77,9.46,9.2,14.78.99,2.17,2.08,4.43-.23,6.36-2.21,1.85-4.84,1.44-6.99.07-4.48-2.86-8.64-6.1-11.98-10.39-4.12-5.29-7.05-11.26-10.5-16.93-.43-.71-.76-1.54-1.34-2.09-1.34-1.26-2.15-4.31-4.42-3.02-2,1.14-.69,3.59.03,5.43.31.79.59,1.55,0,2.6-2.53-.26-3.77-2.33-5.15-4.05-3.6-4.49-6.04-9.7-7.23-15.2-3.59-16.59-12.28-30.74-20.73-45.04-2.44-4.12-4.96-8.2-7.44-12.29Z"/><path class="cls-7" d="M380.87,236.54c-.23-.43-.35-1-.7-1.26-1.22-.91-3.95.59-3.97-1.88-.02-2.4,2.49-2.76,4.33-3.44,5.65-2.08,11.4-3.29,17.5-3.06,7.45.28,14.84-.04,22.23-1.68,13.06-2.91,21.79-12.54,22.78-25.97.08-1.12-.32-2.37.81-3.22.5-.4,1.05-.76,1.5-1.22,2.12-2.17,4.31-4.4,7.71-3.18,3.46,1.24,5,3.93,5.42,7.59.9,7.68-2.21,13.83-6.9,19.48-5.82,7.01-13.74,11.04-21.53,15.27-2.84-.89-4.71,2.22-7.51,1.76-9.38-1.53-18.84-.36-28.26-.71-1.33-.05-2.69-.08-3.55,1.26-3.28.36-6.56,1.02-9.87.26Z"/><path class="cls-8" d="M468.03,292.98c9.61,7.95,20.81,10.23,32.93,9.24.32.54.64,1.08.96,1.62-11.87,3.04-23.05.88-33.7-4.67-18.92-9.85-36.39-21.92-53.44-34.68-10.23-7.66-20.88-14.74-31.24-22.22-.91-.66-4.56-.67-1.73-3.46,9.6,4.24,18,10.51,26.62,16.29,17.44,11.71,33.91,24.87,52.34,35.11,2.28,1.27,4.36,3.13,7.27,2.77Z"/><path class="cls-4" d="M468.03,292.98c-2.91.35-4.99-1.51-7.27-2.77-18.43-10.24-34.9-23.4-52.34-35.11-8.62-5.78-17.02-12.05-26.62-16.29,4.07-2.08,7.95-.33,11.33,1.37,27.6,13.84,52.11,32.11,74.9,52.8Z"/><path class="cls-14" d="M487.25,121.79c3.95.51,6.32,4.94,10.72,4.33,0,0-.05-.1-.05-.1-.52,1.21-.17,1.57,1.05,1.06l-.05-.06c-.82,1.29.23,1.52,1.06,1.87,9.03,5.6,17.73,11.66,25.45,19.01,1.73,1.65,3.47,3.78,5.89.84,3.88,2.52,6.18,6.49,8.51,10.2,8.55,13.62,20.19,23.69,34.15,31.37,2.09,1.15,6.33,2.22,4.95,4.96-1.04,2.06-3.64-1.52-5.53-2.43-13.96-6.76-26.52-15.28-34.45-29.21-.4-.7-1.02-1.34-1.66-1.84-16.94-13.13-32.76-27.76-51.27-38.82.41-.39.82-.79,1.23-1.18Z"/><path class="cls-8" d="M470.17,174.11c-3.27-.78-3.86-3.85-5.16-6.22-12.58-22.88-22.29-46.99-30.05-71.87-1.22-3.9-4.49-7.34-3.12-11.93,8.22,13.02,13.24,27.52,19.27,41.56,6.17,14.35,12.4,28.68,18.46,43.07.67,1.6,2.68,3.36.6,5.39Z"/><path class="cls-4" d="M510.36,256.48c.11,6.03-2.42,11.07-5.37,15.95-1.38,2.27-2.79,4.53-4.34,6.69-.88,1.22-1.14,3.96-3.16,3.07-2.15-.95-.26-2.9.25-4.3,1.8-4.99,4.31-9.68,5.37-14.99,2.68-13.42-1.77-25.66-6.02-37.9-2.07-5.96-4.81-11.68-7.22-17.51-.46-1.11-1.92-2.44-.17-3.41,1.35-.74,2.49.39,3.37,1.46.32.38.65.76.91,1.19,9.48,15.28,13.61,32.3,16.39,49.76Z"/><path class="cls-7" d="M419.86,278.05c-7.22-4.97-14.33-10.12-21.69-14.87-8.09-5.23-16.41-10.11-24.63-15.15-1.37-.84-2.62-2.3-4.46-1.35-.44.23-.87,1.14-.77,1.63.42,2.02,2.81,1.07,4.05,2.46-1.77.58-3.87,2.99-4.72,1.29-1.01-2.04-2.53-4.9-.85-7.53,1.23-1.94,2.71-3.72,4.08-5.57,1.9,3.18,5.69,2.82,8.47,4.44,10.72,6.23,20.3,13.83,28.89,22.72,3.86,3.99,9.12,6.62,11.63,11.92Z"/><path class="cls-8" d="M390.74,236.28c.86-1.34,2.22-1.31,3.55-1.26,9.42.35,18.88-.82,28.26.71,2.81.46,4.67-2.64,7.51-1.76,5.48,2,19.2-4.83,22.56-11.25.53-1.02.09-3.22,2.15-2.46,1.77.66,1.39,2.49.81,3.9-1.88,4.52-5.6,7.31-9.53,9.86-3.46,2.6-7,4.99-11.56,5.13-.98.03-1.39.76-1.45,1.69-10.08-2.42-20.48-1.21-30.65-2.73-3.89-.58-7.86-.58-11.64-1.83Z"/><path class="cls-14" d="M472.91,268.73c5,2.84,10.44,2.84,15.76,1.78,3.62-.72,5.33-3.77,5.32-7.52-.01-3.66-.11-7.32-.17-10.98.35,0,.69,0,1.04,0,.71,3.93,1.39,7.86,1.18,11.88-.35,6.68-4.06,10.59-10.76,10.45-14.54-.31-28.11-4.5-41.02-11.02-3.5-1.77-7.11-3.38-9.96-6.43,12.78,4.36,24.81,11.07,38.61,11.84Z"/><path class="cls-4" d="M531.33,148.74c-2.42,2.94-4.16.81-5.89-.84-7.73-7.36-16.42-13.41-25.45-19.01-.13-.75.33-1.84-1.06-1.87,0,0,.05.06.05.06.14-.84-.31-1.09-1.05-1.06,0,0,.05.1.05.1-.79-3.32-5.07-3.59-5.63-7.37,9.98,6.5,20.61,11.98,29.58,20.02.82,3.19,2.48,5.39,6.15,5.21,1.57,1.26,3.21,2.46,3.26,4.76Z"/><path class="cls-11" d="M519.07,350.78c-7.01-4.69-14.02-9.39-21.04-14.08.28-.44.57-.89.85-1.33,7.85,3.66,14.3,9.59,21.38,14.49-.4.31-.79.62-1.19.92Z"/><path class="cls-12" d="M494.85,252.01c-.35,0-.69,0-1.04,0-1.92-7.61-3.85-15.21-5.74-22.82-.21-.84.06-1.63.85-2.14,2.99,8.08,4.88,16.43,5.93,24.97Z"/><path class="cls-4" d="M487.25,121.79c-.41.39-.82.79-1.23,1.18-2.62-.93-4.98-2.26-7.97-4.83,4.14.62,6.68,2.1,9.19,3.65Z"/><path class="cls-9" d="M528.06,143.98c-3.67.17-5.33-2.02-6.15-5.21,2.59,1.09,4.36,3.17,6.15,5.21Z"/><path class="cls-14" d="M452.99,96c-2.42.12-5.08.58-4.77-3.28,2.34,0,3.27,2.05,4.77,3.28Z"/><path class="cls-4" d="M501.92,303.83c-.32-.54-.64-1.08-.96-1.62,1.52-.47,3.03-.72,4.67.08-.96,1.35-2.35,1.4-3.71,1.54Z"/><path class="cls-14" d="M477.61,93.98c-1.77,1.33-2.88.7-4.19-.89,1.79-.65,3-.51,4.19.89Z"/><path class="cls-14" d="M469.47,91.89c-1.45-.45-2.88-.7-3.1-2.3-.09-.63.37-1.2,1.21-1.02,1.18.25,2.18.74,2.66,1.96.38.97-.53.93-.77,1.37Z"/><path class="cls-13" d="M263.02,478.1c5.31-1.07,9.88,2.14,15,2.5,14.15.97,28.15,1.69,41.54-4.53,12.46-5.78,16.09-12.13,14.01-25.69.35-.39.7-.78,1.05-1.17,7.63,5.83,8.77,12.69,3.16,20.22-5.06,6.78-12.07,10.81-19.92,13.53-2.45.85-4.91,1.65-7.15,3,12.54.36,22.54-4.92,30.95-14.56.85,4.54-.56,9.11,2.76,12.96,2.11-3.99-.36-8.09,1.05-11.8,8.76,3.66,10.63,6.44,10.51,14.95-.04,2.92.79,5.69,2.64,8.06.02.03.28-.09.4-.18.12-.1.2-.26.3-.39.46-.31.93-.61,1.39-.92.65,1.57-.41,3.55,1.18,4.9,1.46-.54,3.03-.95,3.08-2.95,3.72,2.24,1.26-2.84,3.21-2.69,8.7,9.8,9.88,23.29,3.42,34.45-8.47,14.64-21.72,23.07-36.95,28.85-7.25,2.75-14.78,4.74-22.97,7.33,19.33,3.01,53.77-12.75,63.77-34.54q1.96,5.62-8.2,20.03,2.82.2,10.28-9.76c2.25,11.96-4.31,25.84-15.68,32.91-36.9,22.95-76.08,27.03-117.28,13.98-1.54-.49-3.34-.67-4.16-2.44,1.11-3.92-.15-8.18,1.73-11.99,4.17.62,8.35,1.23,12.52,1.85.07-.29.14-.58.22-.88-3.64-1.71-7.28-3.42-10.91-5.13-.31-2.22-.62-4.44-.93-6.66,1.09-.68,2.2-.54,3.35-.14,13.87,4.79,28.33,5.76,42.8,6.3,5.84.22,11.82-.13,17.58-2.08-.67-1.81-2.03-1.36-3.06-1.37-11.33-.06-22.62-.87-33.87-2.15-8.22-.94-16.57-1.55-23.99-5.83-3.78-10.88-2.48-21.16,3.2-31.14,3.69-6.48,8.82-11.9,12.75-18.19.4.03.81.05,1.21.08,1.6.03,3.06,1.85,5.09.45-1.31-2.16-3.59-1.35-5.17-2.14-.54-.44-1.09-.87-1.63-1.31-.24-5.62-1.67-11.15-1.33-16.82,4.53-.9,8.67,1.36,13.06,1.61,4.22.24,8.47,1.21,13.63-1.35-6.86-1.22-12.66-2.18-18.43-3.3-3.15-.61-6.57-.5-9.15-2.94,1.56-.62,3.09-1.29,3.91-2.91ZM275.42,575.94c19.38,6.87,73.12-3.39,80.98-15.78-26.1,12.79-53.21,16.01-80.98,15.78ZM349.71,535.68c.84-1.22,1.3-4.07.54-6.04-.7-1.84-3.29.58-5.29,0-1.75-.5-1.85,1.81-2.31,3.12-.38,1.08-.95,2.41.67,2.84.78.21,1.99,1.11,2.63-.02,2.96-5.19,1.28,1.73,3.76.09ZM332.14,534.51c4.52-2.96,6.33-7.74,8.54-12.26.37-.76.4-1.67-.59-2.07-.91-.37-1.6.16-2.04.92-2.44,4.22-5.01,8.39-5.91,13.4ZM340.87,534.61c.32-1.99-2.22-.89-2.4-2.3-2.75,1.01-3.55,3.51-4.28,5.93-.34,1.1.54,1.99,1.67,1.84,3.12-.43,3.87-3.18,5.02-5.46ZM303.93,487.84c-4.22-2.08-8.13-.94-13.08-.52,1.86,1.75,2.88,1.62,3.83,1.53,3.09-.3,6.17-.66,9.25-1Z"/><path class="cls-10" d="M298.47,222.36c5.34-.87,10.31.68,14.85,3.08,18.13,9.63,28.31,25.72,35.04,44.36,1.35,3.74,1.15,7.98.63,11.91-2.82,21.29-11.21,39.54-29.65,51.9-4.19,2.81-9.05,4.14-14.13,4.44-8.62.51-17.12,2.79-25.85,1.88-2.5-.26-4.97-.56-7.07-2.12-4.14-6.54-8.6-12.93-10.16-20.74,7.88-.45,10.77-3.02,11.84-10.59.4-2.8.79-5.6,1.15-8.4.16-1.26-.02-2.63,1.86-.92,1.31,1.19,1.05-.45.97-.99-.51-3.54,1.4-6.99.28-10.57-.24-.76-.47-1.72.67-2.54,4.04-2.88,2.57-7.75,3.4-11.63.51-2.36.24-4.65,2.17-6.59,2.34-2.36,4.33-5.07,6.69-7.39,2.96-2.91,3.8-6.37,3.92-10.37.19-6.78-4.37-10.34-8.86-14.04,5.29-2.18,6.94-8.52,12.26-10.67ZM323.01,287.04c-.77.86-3.67-1.71-2.79,1.46,1.48,5.36,1.5,10.8,1.78,16.25.05.93.06,2.12,1.62,1.76.89-6.56-.36-13.04-.69-19.56,3.45-1.34,6.05-7.31,5.08-12.43-2.84,4.01-3.73,8.34-5.01,12.51ZM332.04,298.04c1.44.06.57,2.73,2.63,2.26.18-3.44.07-6.81,3.92-8.87,1.01-.54.68-3.58.97-5.48-3.15-.06-2.5-2.75-2.7-5.18-2.57,3.23-3.64,6.64-6.32,8.8-2.67-4.16,2.46-6.49,2.22-10.01-1.52-.24-2.08.64-2.64,1.43-2.56,3.56-2.73,6.42-2.18,11.05.53,4.51-.45,9.17,1.16,13.78-.42-3.26,2.03-5.22,2.92-7.77h0ZM298.21,327.68c2.32-.8,1.74-3.74,4.5-3.83-.16,4.52,2.68,5.49,5.55,3.19,1.31-1.05.72-4.65.71-7.1,0-.84-.63-2.14-1.79-2.09-1.35.06-1.13,1.33-1.19,2.31-.04.71.34,1.58-.58,2.1-1.96-1.3-.62-4.37-3.96-5.91,1.63,4.74-3.69,6.69-3.24,11.32ZM305.06,236.95c-3.11,5.55-.71,8.46,10.04,12.15-3.34-4.63-9.55-5.98-10.04-12.15ZM314.57,258.71c-2.87,2.12-2.45,4.2-1.4,6.12,1.09,1.99,2.93,2.58,6.41,1.94-4.39-1.68-4.15-4.81-5.02-8.06ZM285.05,279.86c-3.22,2.32-3.14,5.12-3.05,7.87.04,1.15.94,1.76,2.01,1.75,1.19-.02,1.02-1.08,1.03-1.85.04-2.4.01-4.8.01-7.77ZM313.51,324.91c-1.04-3.44.12-7.36-2.2-10.57-.47,3.73-1.15,7.48,2.2,10.57ZM318.43,253.08c-.13,5.63,1.75,6.88,7.09,4.68-2.85-1.03-5.25-2.21-7.09-4.68ZM288.32,281.33c-2.57,2.8-3.05,5.8-.8,9.08l.8-9.08Z"/><path class="cls-10" d="M279.35,366.22c11.3-.32,22.6-.83,33.74-2.89,4.38-.81,3.19,2.13,3.11,4.13-.74,18.02.5,35.88,4.85,53.41,2.68,10.79,6.12,21.38,8.89,32.15,1.97,7.65-.67,12.97-7.56,17.02-12.37,7.26-25.85,7.96-39.61,6.58-4.83-.48-10-.06-14.14-3.52,5.18-8.02,4.48-17.86,9.36-26.53,5.97-10.6,3.97-24.09,3.38-36.23-.71-14.7-3.26-29.31-2.02-44.12ZM305.89,419.89c-.69-.07-1.25.23-1.24.9.01.69.59.94,1.27.81l-.15.09c1.03,5.97,2.06,11.95,3.33,19.28,1.79-4.55-.38-7.85,1.13-11.21,1.8,2.35-.83,6.38,1.45,6.87,3.54.76,2.21,1.64,1.07,3.25-.78,1.1-.48,2.23.34,3.17.19.22.91.2,1.25.03,1.56-.81,4.78-10.53,4.21-13.01-1.1,1.34-2.09,2.54-3.06,3.72-2.79-2.86.16-5.58.23-7.6-6.56-1.77-4-10.13-9.67-12.22-.11,2.23-.2,4.02-.29,5.81l.13.11ZM324.15,453.8l.1-.08c-.71-4.17-2.79-7.52-5.32-10.6-.43.23-.85.46-1.28.69,1.65,3.1,3.31,6.21,4.96,9.31-1.24,1.51-4-.25-4.78,2.23-.47.44-1.05,1.33-1.38,1.24-.77-.2-1.41-1.03-1.17-1.88.3-1.07.92-2.05,1.4-3.07.41-.37,1.2-.73.56-1.35-.48-.47-1.15-.25-1.45.48-.8,2.46-4.12-.98-3.73.89.95,4.49-2.4,7.39-3.01,11.18-.04.58-.09,1.15-.13,1.73-.47,1.33-1.06,2.84,1.39,2.22,4.86-1.22,9.79-2.44,10.42-8.75,1.21-.89.8-3.51,3.26-3.07.22.57.62.81.88.14.2-.53.36-1.36-.73-1.33ZM301.06,442.03c-1.44,1.52-2.55,3.28-4.02,4.83-3.34,3.5-6.43,7.42-6.14,14.24,3.86-6.94,11.52-9.82,11.16-17.97,2.36,1.62-.66,5.05,2.81,7.2-.3-4.83,1.42-8.92.39-14.15-2.12,2.38-1.93,5.03-4.19,5.85ZM296.22,423.52l1.22.89c3.46-5.21,6.92-10.42,10.38-15.63-.4-.28-.8-.55-1.2-.83-4.48,4.47-6.94,10.38-10.39,15.57ZM301.65,439.62c.27-1.74.34-3.05.7-4.28.3-1.01,1.57-1.83.14-2.95-.9-.7-1.78-.73-2.74-.24-1.28.66-1.92,1.63-1.84,3.17.12,2.2,1.83,2.88,3.73,4.3ZM299.51,428.88c2.69-1.06,4.21-3.07,4.88-6.62-3.05,1.61-3.6,4.41-4.88,6.62Z"/><path class="cls-3" d="M260,486.99c-.34,5.67,1.08,11.2,1.33,16.82-7.14-1.42-12.74-6.41-19.64-8.47,5.39,6.19,12.59,9.1,20.14,11.38-3.92,6.29-9.06,11.7-12.75,18.19-5.68,9.98-6.98,20.26-3.2,31.14-9.26-2.07-17.1-7.14-25.16-11.78-2.95-1.7-5.51-4.35-10.23-4.89,4.36,5.66,9.45,8.85,14.44,11.96,5.85,3.65,12.08,6.69,18.15,9.99.31,2.22.62,4.44.93,6.66-10.2-3.49-19.88-7.93-28.41-14.72-2.39-1.9-4.34-4.61-7.62-5.3,0,0,.05.05.05.05-.31-.31-.62-.62-.93-.93,0,0-.21-.22-.21-.22.29-1.86-1-2.97-1.81-4.41-1.19-2.1-3.48-4.84,1.56-5.71,2.2-.38.58-2.19.12-3.12-2.78-5.63-3.98-11.52-3.82-17.81.09-3.73,2.84-6.45,2.51-10.7-.35-4.52,3.31-8.85,5.55-13.11,2.21-4.19,5.72-7.28,8.96-10.61,3.28-3.37,7.29-5.58,11.55-8.3,1.04,3.92-.62,6.96-1.09,10.09-.22,1.46-.34,2.91,1.16,3.35,1.74.51,2.07-1.16,2.51-2.4,1.48-4.25,2.18-8.63,1.85-14.73,6.25,9.81,15.21,13.62,24.06,17.56ZM221.76,496.27c-2.44,2.45-5.61.48-6.52,3.31-.44,1.38,1.1,2.3,2.56,2.31,2.75.02,3.52-1.84,3.96-5.62ZM213.74,507.96c-3.38,4.76-2.45,6.5,2.81,7.76-1.1-2.39-4.15-3.5-2.81-7.76ZM224.87,513.47c-.99,1.9-1.56,3.66.6,5.06.77.5,1.91.49,2.15-.35.64-2.32-2.04-2.92-2.74-4.71Z"/><path class="cls-3" d="M298.47,222.36c-5.31,2.15-6.97,8.5-12.26,10.67-6.6-.93-11.79,1.12-16.18,6.4-15.26,18.34-23.59,38.87-21,63.09,1.11,10.42,4.66,14.35,13.09,14.55,1.56,7.81,6.02,14.19,10.16,20.74-18-2.62-30.49-12.42-36.88-29.36-3.31-8.77-6.11-17.84-6.49-27.65,1.67.74,1.42,2.91,3.12,3.17.24.36-.47,1.34.71,1.07-.25-.35-.5-.69-.75-1.04,1.56-1.43,2.98-2.33,1.42-5.24-1.08-2.03-2.22-5.16-.92-8.01,1.16.19,1.34,1,1.42,1.84.15,1.64-.03,3.57,1.99,4.14,2.27.64,1.69-2.2,2.81-2.7,3.66-1.64,5.96-4.36,7.35-8.01.32-.34.64-.68.97-1.02.12-.05.26-.07.36-.15.06-.05.05-.18.07-.28-.15.14-.3.27-.45.41-.34.32-.68.65-1.02.97-.74.02-1.47.04-2.21.07-.57-1.44-1.18-.82-1.81-.04-2.09-3.02,1.6-6.26-.68-9.53-1.38,1.13-3.76,1.01-4.38,3.47-.31.05-.63.08-.95.08-3.42-10.17,4.09-15.17,10.18-20.36,5.5-4.7,11.54-8.95,17.85-12.48,10.73-5.99,22.37-7.59,34.48-4.8Z"/><path class="cls-3" d="M279.35,366.22c-1.25,14.81,1.31,29.42,2.02,44.12.59,12.14,2.58,25.63-3.38,36.23-4.88,8.67-4.18,18.5-9.36,26.53-8.43-.77-14.99-4.86-20.34-11.25-1.36-1.63-1.44-3.13-.72-5.04,4.61-12.27,9.06-24.6,10.81-37.67.72-5.4,1.36-10.85,1.5-16.29.33-12.75-.27-25.51,1.34-38.58,5.75.98,11.89,2.02,18.13,1.96ZM265.01,432.01c.12-.05.26-.08.35-.16.06-.05.05-.18.07-.28-.15.14-.3.27-.45.41-.34.32-.69.64-1.03.95-2.1.79-2.45,3.67-4.73,4.14-3.39.7-3.87,3.34-4.84,6.07-2.09,5.95,1.91,9.48,4.67,13.6.45.67.62,1.79,1.53,1.62,1.1-.2,1.42-1.29,1.23-2.36-.49-2.74-.97-5.44,2.17-7.04.46,3.12-.88,6.51,1.37,10.36,1.07-4.27.33-7.78,1.49-11.06.45-1.28-.46-2.14-1.85-2.27.02-.32.04-.64.04-.97.81-.42,1.03-1.14,1.02-1.99.14-.16.28-.33.42-.49-.17.13-.34.27-.51.4-.82.43-1.06,1.14-1,2.01-.33.33-.66.67-1,1l-.03-.03c-2.03-.04-1.97-1.43-1.85-2.87.76-.43.98-1.15,1.03-1.96.79-.15,1.52-.37,1.43-1.39,0-.12-.21-.31-.32-.31-1.04-.02-1.16.77-1.31,1.54-.77.43-.98,1.15-1.04,1.95-2.93-.43-1.78-1.91-.92-3.41,1.18-2.07,3.32-3.68,3.11-6.42.31-.35.63-.7.94-1.05Z"/><path class="cls-1" d="M446.03,234.02c3.94-2.55,7.66-5.34,9.53-9.86.59-1.41.96-3.24-.81-3.9-2.06-.76-1.61,1.44-2.15,2.46-3.36,6.42-17.08,13.26-22.56,11.25,7.79-4.23,15.71-8.26,21.53-15.27,4.69-5.65,7.8-11.8,6.9-19.48-.43-3.65-1.97-6.34-5.42-7.59-3.4-1.22-5.58,1.01-7.71,3.18-.45.46-.99.82-1.5,1.22.32-8.32.72-16.64-.91-25.49-2.53,2.12-1.52,4.03-1.47,5.71.3,10.04-.22,19.96-4.02,29.43-4.51,11.25-14.75,17.35-27.69,16.24,2.78-2.43,5.44-4.59,7.91-6.94,8.14-7.73,11.79-17.95,15.4-28.16,5.82-16.47,7.5-33.68,9.02-50.91.2-2.29-.23-4.64-.36-6.96,6.15,9.11,9.81,19.44,14.23,29.38,3.84,8.63,7.31,17.44,10.61,26.29,5.31,14.22,3.39,28.08-3.04,41.44-3.18,6.6-9.6,8.15-16.16,9.09-.73.1-1.2-.41-1.35-1.15Z"/><path class="cls-3" d="M358.78,355.06c-1.07,3.73-3.67,6.93-3.8,10.99-2.04.66-1.65,2.61-2.16,4.09-1.12,3.24-.98,6.83-2.74,9.89-1.73-.56-.7-4.34-3.32-3.31-1.67.66-.65,2.98-.78,4.56-.12,1.52-.03,3.06-.03,5.33,1.38-1.71.96-3.91,3.21-3.51-1.02,3.8-2.05,7.6-3.07,11.4-2.6,7.61-5.19,15.23-8.01,23.49,2.79-1.36,2.01-4.61,4.56-5.05,1.04.71-1.91,3.15,1.27,2.93.28,2.32-1.05,4.01-1.98,5.97-2.27,4.78-4.37,9.65-5.18,15.01-.34,2.25-.78,4.9-4.26,5.83,1.89-5.56,3.77-11.13,5.66-16.69-3.89,3.36-4.76,8.27-7.7,13.29-.58-4.28-.1-7.77-2.86-10.44-1.14-1.1-.76-3.17-.13-4.79,1.26-3.25,2.25-6.66,3.91-9.7,4.02-7.34,5.15-15.35,5.53-23.45.19-4.09,1.71-7.88,3.86-10.58,3.6-4.53,4.59-9.69,6.29-14.8,6.25-18.75,11.66-37.77,16.47-56.9,2.97-11.81,3.62-24.19,5.56-36.28.76-4.73,2.22-9.35,3.29-14.03.56-2.45,1.72-4.03,4.48-3.15,3.31,1.06,1.32,3.01.71,4.75-.33.93-.51,1.91-.76,2.87-3.4,4.55-5.99,9.41-6.41,15.15,2.8-4.69,5.96-9.21,6.84-14.73,1.59-1.09,2.09-2.9,2.94-4.48.7-1.31,1.71-2.04,3.21-1.38,1.59.7,1.45,1.9.9,3.29-1.61,4.11-3.15,8.24-4.71,12.37-5.77-.01-4.27,4.99-5.57,8.07,0,0,.06-.09.06-.09-1.11.33-.87,1.27-.94,2.07-1.88,1.34-2.25,3.46-2.8,5.47-.42,1.54.78,3.17-.58,4.74-2.22,2.56-2.32,5.53-.93,8.57.21.19.43.38.65.56-1.31,4.04-3.22,7.97-2.24,12.42-1.86.81-.56,3.12-2.4,4.6v-8.35c-.92,2.26-1.71,4.5-1.69,6.74.04,4.13-3.03,8.32.11,12.41-.1,1.67.07,3.4-1.06,4.85-1.07-.44-2.21-1.06-2.89.48-1.5,3.39-3.05,6.78-3.16,10.95,3.24-2.72,1.53-7.87,5.74-9.52-.02,6.2-3.38,11.84-3.08,18.1ZM338.98,392.94c3.06-3.16,3.5-7.05,2.96-11.18-.99,3.73-1.97,7.45-2.96,11.18ZM338.7,423.25c.03-.13.05-.27.08-.4-.18.04-.35.07-.53.11.05.12.06.27.15.35.04.04.2-.04.31-.06Z"/><path class="cls-1" d="M273.3,343.21c11.87,2.3,23.58-.21,35.25-1.56,7.83-.91,14.78-4.83,20.79-10.17,3.22-2.87,8.37-2.04,11.57,1.63,2.95,3.38,2.51,7.15-1.69,10.2-7.52,5.44-16.52,6.88-25.34,8.39-14.49,2.48-29.14,2.12-43.76,1.33-1.02-.05-2.41.5-3.01-1.01,1.56-.81,3.14-1.58,4.68-2.44.69-.39,1.64-1.49.93-1.8-5.35-2.35,1.51-2.93.59-4.55Z"/><path class="cls-3" d="M381.16,212.11c3.9-7.01,5.08-14.96,7.77-22.38.89-2.45,1.9-4.52,3.91-6.55,3.39-3.42,5.82-7.82,4.15-13.16,3.51-8.23,5.11-16.77,3.73-25.76,1.91-.38,1.97,1.77,3.29,1.75,0,0-.02-.02-.02-.02.46.47.92.93,1.37,1.4.81,5.69-.61,11.21-1.31,16.79-.68,2.59-1.36,5.19-2.04,7.78-1.65,5.93-4.29,11.69-3,18.1l.05-.09c-1.67.57-1.01,1.95-1.06,3.08l.06-.09c-2.37,2.58-3.18,5.68-3.05,9.1l.06-.08c-2.87,1.78-2.71,4.79-3.08,7.58-.5.92-2.05,1.34-1.53,2.69.44,1.12,1.64.61,2.53.72l.04.04c-1.65,9.38-2,9.81-8.88,11.11-.91.17-2,1.15-2.71.09-.88-1.33.14-2.65.89-3.62,3.51-4.51,5.63-9.66,7.33-15.03.18-.58.12-1.24.26-2.9-5.08,5-5.06,11.99-10.23,16.78.61-3.01,1.04-5.17,1.48-7.33ZM390.78,200.98c-.08-.12-.13-.29-.24-.34-.07-.03-.22.12-.33.19.13.18.26.35.4.53.06-.13.11-.26.17-.38Z"/><path class="cls-3" d="M242.18,572.15c-1.89,3.81-.62,8.07-1.73,11.99-9.56-1.93-17.02-7.78-24.99-12.87-7.34-4.69-10.14-11.47-11.27-19.42-.3-2.12-1.26-5,2.7-4.97,0,0,.21.22.21.21.31.31.62.62.93.93,0,0-.05-.05-.05-.05,1.49,4.85,5.36,7.75,8.89,10.94,7.3,6.6,16.54,9.47,25.31,13.24Z"/><path class="cls-1" d="M645.57,269.17c-5.17-7.94-10.55-15.44-18.8-20.68,9.65-5.15,10.8-14.8,13.72-24.39,4.96,15.06,4.42,30.05,5.08,45.07Z"/><path class="cls-2" d="M362.18,335.05c1.13-1.45.96-3.18,1.05-4.85,1.23-5.16,5.15-9.62,3.98-15.4-.98-4.45.93-8.38,2.24-12.42.55-.96.94-1.92-.23-3.15-.17,1.03-.3,1.81-.42,2.59-1.39-3.04-1.29-6,.93-8.57,1.35-1.57.15-3.2.58-4.74.56-2.01.92-4.13,2.8-5.47,0,0,.39,0,.39,0h.39c1.78.09,3.65-.36,2.97,2.81-2.52,11.81-3.09,24.06-6.93,35.53-3.77,11.25-5.26,22.91-7.84,34.36-.34,1.53-.25,3.33-2.38,4.37-1.23-1.56-.33-3.5-.91-5.06-.31-6.26,3.06-11.89,3.08-18.1.11-.64.21-1.27.32-1.91Z"/><path class="cls-2" d="M267.06,357.04c16.78.86,33.57,1.35,50.16-2.07,9.21-1.9,18.64-3.32,26.36-9.56,1.31,2.84-.89,3.41-2.3,4.37-8.6,5.84-18.37,8.64-28.45,10.04-13.65,1.88-27.35,4.05-41.23,2.26-1.64-.21-3.34-.09-4.84-.99.1-1.35.2-2.7.31-4.05Z"/><path class="cls-3" d="M273.3,343.21c.92,1.62-5.93,2.21-.59,4.55.71.31-.24,1.42-.93,1.8-1.53.86-3.11,1.63-4.68,2.44h-5.54c.9-2.3,2.55-2.66,4.1-3,1.21-.27,2.57-.43,1.94-2.02-.6-1.52-1.91-.76-2.93-.26-1.49.73-2.97,1.42-4.7,1.25l.04.03c-.75-.56-1.49-1.12-2.21-1.66.89-1.36,3.12-.76,4.03-2.79-4.58-1-7.73,3.22-11.86,2.44.73-2.91,4.1-2.87,5.72-5.21-3.52-2.51-7.04.97-10.44-.03-.42-.44-.83-.88-1.24-1.32-.2.2-.57.41-.57.61,0,.82.74.95,1.32,1.19-1.34,3.32-3.73,3.59-6.23,1.66-6.02-4.64-5.47-9.52,1.15-13.11,1.89-1.03,3.43-1.05,4.95.46,7.95,7.87,18.47,10.06,28.66,12.97Z"/><path class="cls-2" d="M635.45,315.35c-3.76,8.51-8.85,16.24-10.39,25.67-1.45,8.91,3.15,17.94-.9,26.77-1.68-7.33-4.86-13.98-7.58-20.8-.81-2.02-.94-3.93.63-5.58,3.75-3.97,5.6-8.97,7.74-13.83,2.24-5.09,5.58-9.29,10.51-12.23Z"/><path class="cls-11" d="M404.05,164.18c.7-5.58,2.12-11.1,1.31-16.79.09-.44.19-.88.28-1.32,2.13-2.37,1.08-6.44,4.39-8.18,4.41-1.65,1.7-6.15,3.54-8.83,1.55-2.06,2.3-4.42,2.65-6.93,1.34-3.69,2.69-7.37,4.03-11.06,1.13-.82.71-3.02,2.73-3.04.33,6.81-3.68,12.44-5.16,18.77-1,4.29-2.68,8.43-3.89,12.68-.42,1.49-.47,3.28,1.86,1.34l.3.26c-.2,4.21-2.02,7.85-4.21,11.3-2.53,3.99-5.22,7.88-7.83,11.81Z"/><path class="cls-3" d="M263.02,478.1c-.82,1.62-2.35,2.29-3.91,2.91-9.12-1.5-15.8-6.67-20.57-14.29-3.49-5.57-1.09-14.79,4.85-16.25.16.27.48.57.45.82-1.49,12.05,1.49,17.33,12.51,22.97,2.26,1.16,5.38.99,6.68,3.84Z"/><path class="cls-2" d="M343.91,415.86c-3.18.22-.23-2.22-1.27-2.93.45-1.91.69-3.9,1.4-5.7,1.62-4.12,2.81-8.26,2.05-12.74,1.02-3.8,2.05-7.6,3.07-11.4.86-.85.81-1.98.92-3.06,1.76-3.06,1.62-6.65,2.74-9.89.51-1.47.11-3.42,2.16-4.09.46,13.54-3.67,26.21-7.48,38.93-1.1,3.66-2.39,7.26-3.59,10.88Z"/><path class="cls-2" d="M424.99,189.04c-.11,1.4-.56,2.88.84,3.97.84,1.72.93,3.39-.06,5.14-2.95,5.2-4.94,11.11-10.78,14.09-1.22-2.69-3.37-.89-5.11-1.07,5.46-7.09,10.55-14.43,15.11-22.12Z"/><path class="cls-3" d="M267.06,357.04c-.1,1.35-.2,2.7-.31,4.05-12.63-2.29-24.67-5.82-33.63-15.89,10.16,7.32,21.92,9.94,33.93,11.84Z"/><path class="cls-12" d="M409.86,167.98c-3.51,12.3-7.68,24.39-12.34,36.3-.49,1.26-1.04,2.4-.64,3.76-.65-.02-1.3-.04-1.95-.06,0-2,.88-3.98.12-5.99l-.06.08c3.21-2.3,2.45-5.92,3.05-9.1,0,0-.06.09-.06.09,1.1-.77,1.1-1.92,1.06-3.08,0,0-.05.09-.05.09,4.23-7.58,7.07-15.7,9.24-24.08.54.67,1.08,1.33,1.62,2Z"/><path class="cls-11" d="M408.25,165.98c-2.17,8.38-5.01,16.5-9.24,24.08-1.28-6.41,1.36-12.17,3-18.1,2.45-.76,2.07-3.52,3.52-4.95.69-.68.95-3.02,2.71-1.03Z"/><path class="cls-3" d="M409.88,211.16c1.74.18,3.89-1.62,5.11,1.07-3.04,5.84-9.69,9.98-15.59,9.42,3.06-4.14,6.84-7.26,10.49-10.49Z"/><path class="cls-11" d="M424.07,63.85c6.21-4.32,12.23-4.04,13.76,3.08-4.33-2.16-8.81-3.68-13.76-3.08Z"/><path class="cls-11" d="M364.99,496.02c-.06,2-1.63,2.42-3.08,2.95,4.04-4.18.23-8.57-.47-13.52,3.57,2.87,4.63,6.72,3.56,10.57Z"/><path class="cls-3" d="M259.98,347.98c.2,2.63-.49,4.27-3.52,2.93-2.45-1.08-5.56-.48-7.47-2.93,3.68-2.22,7.35,1.03,11.03.02l-.04-.03Z"/><path class="cls-8" d="M260.02,348.01c-3.68,1.01-7.35-2.24-11.03-.02,0,0,.03.02.03.02-.02-.66-.04-1.32-.06-1.98.34,0,.69-.02,1.03-.02,4.13.78,7.28-3.45,11.86-2.44-.92,2.03-3.15,1.43-4.03,2.79.72.54,1.46,1.1,2.21,1.66Z"/><path class="cls-6" d="M438.04,120.01c-1.05-4.63-2.1-9.27-3.15-13.9,3.4,4.09,3.69,9.18,5.06,13.9-.64,0-1.27,0-1.91,0Z"/><path class="cls-11" d="M373.99,281.06c1.29-3.08-.2-8.08,5.57-8.07-.38,3.71-2.99,5.87-5.57,8.07Z"/><path class="cls-11" d="M360.73,494.07c-.46.31-.93.61-1.39.92-.14-3.87-2.02-7.66-.2-12.68,1.51,4.41-.22,8.42,1.6,11.77Z"/><path class="cls-9" d="M232.83,266.8c-1.74-3.55-.04-6.11.76-8.76.31,2.76,1.02,5.55-.76,8.76Z"/><path class="cls-11" d="M395.06,201.98c.75,2.01-.13,3.99-.12,5.99-.98.53-1.97,1.06-2.95,1.59.37-2.79.21-5.8,3.08-7.58Z"/><path class="cls-3" d="M248.96,346.03c.02.66.04,1.32.06,1.98-1.6-.21-4.03.76-4.26-1.69-.14-1.51,1.92-1.18,3.14-1.3.36.34.72.68,1.09,1.01h-.03Z"/><path class="cls-6" d="M449.13,74.07c-1.53-.13-2.79-.75-4.35-2.41,2.71-.33,3.93.33,4.3,2.45l.05-.04Z"/><path class="cls-9" d="M235.96,260.01c.32,0,.63-.03.95-.08-.05.78.02,1.91-1.14,1.55-.84-.26-.39-1.03.2-1.47Z"/><path class="cls-7" d="M422.01,70.99c-.55-.23-1.09-.47-1.64-.7.13-.21.26-.42.38-.62.41.45.82.9,1.23,1.35l.02-.02Z"/><path class="cls-5" d="M432.08,83.01c-1.03-.32-1.69-1.02-2.07-2,1.28.06,2.8-.14,2.07,2Z"/><path class="cls-3" d="M424.53,100.68c.13.3.34.58.33.84-.01.26-.26.51-.4.76-.12-.27-.34-.54-.33-.8,0-.26.25-.51.4-.8Z"/><path class="cls-11" d="M373.88,283.04h-.39s-.39,0-.39,0c.08-.8-.17-1.74.94-2.07-.06.69-.11,1.38-.17,2.07Z"/><path class="cls-11" d="M415.8,140.82c.2-.43.4-.87.59-1.3.11.12.33.29.3.36-.17.41-.39.8-.59,1.2,0,0-.3-.26-.3-.26Z"/><path class="cls-7" d="M421.99,71.01c.84.38,1.06,1.1,1.06,1.95,0,0-.08.07-.08.07-.81-.45-.98-1.2-.95-2.04,0,0-.02.02-.02.02Z"/><path class="cls-8" d="M241.96,265.99c.62-.78,1.24-1.4,1.81.04-.6-.01-1.2-.03-1.81-.04Z"/><path class="cls-5" d="M449.08,74.11c.8.06,1.6.12,2.4.18-.23.31-.46.63-.69.94-.7-.18-1.58-.1-1.65-1.17,0,0-.05.04-.05.04Z"/><path class="cls-13" d="M333.58,450.39c-.11-.56-.5-1.35-.26-1.64.56-.7.9.18,1.31.47-.35.39-.7.78-1.05,1.17Z"/><path class="cls-3" d="M392.98,212.98c.15-.14.3-.28.44-.41-.14.15-.27.3-.41.45,0,0-.04-.04-.04-.04Z"/><path class="cls-8" d="M248.99,346.03c-.36-.34-.72-.68-1.09-1.01.36.34.72.68,1.09,1.01Z"/><path class="cls-14" d="M420.25,111.07c-1.34,3.69-2.69,7.37-4.03,11.06-.7-.26-1.95-.18-1.52-1.38,1.96-5.54,2.01-11.64,4.77-17.02,2.04,2.39-1.43,5.12.79,7.35Z"/><path class="cls-12" d="M413.57,129.06c-1.83,2.68.87,7.18-3.54,8.83.58-3.18-1.92-7.6,3.54-8.83Z"/><path class="cls-6" d="M405.65,146.07c-.1.44-.19.88-.28,1.32-.46-.46-.91-.93-1.37-1.4.55.03,1.1.05,1.66.08Z"/><path class="cls-11" d="M430.02,54.99c2.84-5.21,3.86-11.09,6-16.56.8-2.06,2.22-2.7,4.21-2.67,2.42.04,1.66,1.95,1.92,3.26-2.05,4.83-1.24,10.5-4.32,15.15-1.6-1.87-3.15-3.29-5.12-.91-.75.91-1.26,1.99-2.7,1.73Z"/><path class="cls-11" d="M430.85,57.63c4.31-2.4,7.92-.93,11.34.71,4.68,2.24,9.29,4.4,14.68,3.32.83-.17,1.75-.24,1.88.9.11,1.03-.75,1.46-1.57,1.55-6.6.75-13.22.33-19.26-2.31-2.14-.94-4.45-2.48-7.08-4.18Z"/><path class="cls-3" d="M396.02,170.98c-.05,1.1.18,2.3-1.03,3.01h0c.03-.98.05-1.98.08-2.97.31-.01.63-.03.94-.04Z"/><path class="cls-3" d="M397.03,169.98c-.35.35-.7.7-1.05,1.05.35-.35.7-.7,1.05-1.05Z"/><path class="cls-3" d="M395,174c-.14.73-.27,1.46-.41,2.19-.13-.08-.34-.14-.38-.26-.25-.84.02-1.49.79-1.92,0,0,0,0,0,0Z"/><path class="cls-14" d="M456.05,98.95c-.15.15-.31.29-.46.44.03-.08.05-.19.11-.24.1-.08.24-.13.36-.19,0,0,0,0,0,0Z"/><path class="cls-5" d="M498.91,127.02c1.4.03.93,1.12,1.06,1.87-.83-.35-1.88-.58-1.06-1.87Z"/><path class="cls-5" d="M497.92,126.02c.74-.04,1.19.22,1.05,1.06-1.22.51-1.57.16-1.05-1.06Z"/><path class="cls-8" d="M243.08,561.33c-6.07-3.3-12.3-6.35-18.15-9.99-4.99-3.11-10.08-6.3-14.44-11.96,4.72.53,7.28,3.19,10.23,4.89,8.06,4.65,15.9,9.71,25.16,11.78,7.43,4.28,15.78,4.89,23.99,5.83,11.25,1.28,22.54,2.1,33.87,2.15,1.03,0,2.39-.44,3.06,1.37-5.75,1.95-11.73,2.3-17.58,2.08-14.47-.54-28.93-1.51-42.8-6.3-1.15-.4-2.26-.54-3.35.14Z"/><path class="cls-12" d="M275.42,575.94c27.77.23,54.88-2.99,80.98-15.78-7.86,12.39-61.6,22.64-80.98,15.78Z"/><path class="cls-8" d="M242.18,572.15c-8.77-3.77-18.01-6.64-25.31-13.24-3.54-3.19-7.41-6.09-8.89-10.94,3.28.69,5.23,3.4,7.62,5.3,8.53,6.79,18.21,11.23,28.41,14.72,3.64,1.71,7.28,3.42,10.91,5.13-.07.29-.14.58-.22.88-4.17-.62-8.35-1.23-12.52-1.85Z"/><path class="cls-8" d="M261.83,506.73c-7.55-2.29-14.75-5.2-20.14-11.38,6.9,2.05,12.5,7.04,19.64,8.47.54.44,1.09.87,1.63,1.31.03.56.06,1.12.08,1.69-.4-.03-.81-.05-1.21-.08Z"/><path class="cls-9" d="M349.71,535.68c-2.47,1.64-.79-5.28-3.76-.09-.64,1.13-1.86.23-2.63.02-1.62-.44-1.05-1.76-.67-2.84.46-1.31.56-3.62,2.31-3.12,2.01.57,4.59-1.85,5.29,0,.75,1.98.3,4.82-.54,6.04Z"/><path class="cls-6" d="M332.14,534.51c.9-5.02,3.48-9.18,5.91-13.4.44-.76,1.13-1.28,2.04-.92.99.4.96,1.3.59,2.07-2.21,4.51-4.02,9.3-8.54,12.26Z"/><path class="cls-12" d="M340.87,534.61c-1.15,2.28-1.89,5.03-5.02,5.46-1.13.16-2.01-.73-1.67-1.84.73-2.42,1.53-4.92,4.28-5.93.18,1.41,2.73.31,2.4,2.3Z"/><path class="cls-3" d="M303.93,487.84c-3.08.34-6.16.71-9.25,1-.95.09-1.97.23-3.83-1.53,4.95-.42,8.86-1.55,13.08.52Z"/><path class="cls-3" d="M263.04,506.81c-.03-.56-.06-1.12-.08-1.69,1.58.79,3.86-.03,5.17,2.14-2.03,1.4-3.48-.43-5.09-.45Z"/><path class="cls-8" d="M262.12,317.07c-8.43-.2-11.98-4.12-13.09-14.55-2.58-24.22,5.75-44.75,21-63.09,4.39-5.28,9.58-7.33,16.18-6.4,4.49,3.7,9.05,7.26,8.86,14.04-.11,4-.96,7.47-3.92,10.37-2.37,2.32-4.36,5.03-6.69,7.39-1.93,1.94-1.66,4.23-2.17,6.59-.83,3.88.64,8.75-3.4,11.63-1.14.82-.91,1.78-.67,2.54,1.12,3.58-.79,7.03-.28,10.57.08.54.34,2.18-.97.99-1.88-1.71-1.69-.33-1.86.92-.37,2.8-.76,5.6-1.15,8.4-1.08,7.57-3.96,10.15-11.84,10.59ZM262.14,280.21c7.26,3.98,11.27,2.59,13.6-4.69.7-2.2.96-4.73,2.23-6.54,3.4-4.87.28-6.68-3.45-8.24-1.94-.82-3.9-1.92-6.17-1.42-5.87-2.55-7.58-1.93-9.84,3.77-.97,2.45-1.71,5-2.53,7.51-2.51,7.67-1.88,8.65,6.15,9.62ZM270.01,256c1.95.84,4.27,1.26,5.79,2.59,5.18,4.57,8.21,2.17,12.16-2.17,7.02-7.71,5.72-15.29-4.14-19.27-4.75-1.15-8.31.92-11.59,4.1-2.06,2-3.62,4.33-5.22,6.66q-4.31,6.24,3,8.09ZM261.18,284.14c-1.22-.5-2.56-.82-3.65-1.52-3.07-1.98-4.63-1.33-5.05,2.38-.94,8.29-1.21,16.52,1.84,24.5.81,2.13,1.9,3.95,4.67,3.51,5.88,2.48,11.13.76,11.91-4.17,1.17-7.36,2.04-14.77,2.95-22.17.1-.84.86-2.83-1.34-2.15-3.87,1.19-7.54-.75-11.33-.38Z"/><path class="cls-9" d="M332.04,298.04c-.89,2.55-3.34,4.52-2.92,7.77-1.61-4.61-.63-9.27-1.16-13.78-.54-4.63-.38-7.49,2.18-11.05.57-.79,1.12-1.67,2.64-1.43.23,3.52-4.89,5.85-2.22,10.01,2.68-2.16,3.75-5.56,6.32-8.8.2,2.43-.45,5.12,2.7,5.18-.29,1.89.04,4.94-.97,5.48-3.85,2.06-3.75,5.43-3.92,8.87-2.06.47-1.19-2.21-2.63-2.26-1.31-2.33,2.75-4.09.43-6.6-1.82,2.07-4.54,3.97-.44,6.61Z"/><path class="cls-12" d="M298.21,327.68c-.45-4.62,4.87-6.58,3.24-11.32,3.34,1.53,1.99,4.61,3.96,5.91.92-.52.54-1.39.58-2.1.06-.98-.16-2.25,1.19-2.31,1.16-.05,1.78,1.25,1.79,2.09.02,2.44.61,6.05-.71,7.1-2.87,2.29-5.72,1.32-5.55-3.19-2.75.09-2.17,3.03-4.5,3.83Z"/><path class="cls-9" d="M305.06,236.95c.49,6.17,6.7,7.52,10.04,12.15-10.75-3.69-13.16-6.6-10.04-12.15Z"/><path class="cls-3" d="M322.93,286.95c.33,6.52,1.58,13,.69,19.56-1.56.36-1.57-.84-1.62-1.76-.28-5.45-.29-10.9-1.78-16.25-.88-3.17,2.02-.6,2.79-1.46l-.08-.08Z"/><path class="cls-9" d="M323.01,287.04c1.28-4.17,2.16-8.5,5.01-12.51.97,5.12-1.64,11.09-5.09,12.43,0,0,.08.08.08.08Z"/><path class="cls-9" d="M314.57,258.71c.86,3.25.63,6.38,5.02,8.06-3.49.63-5.33.04-6.41-1.94-1.05-1.92-1.47-4,1.4-6.12Z"/><path class="cls-9" d="M285.05,279.86c0,2.97.02,5.37-.01,7.77-.01.76.16,1.83-1.03,1.85-1.07.02-1.97-.6-2.01-1.75-.09-2.75-.17-5.56,3.05-7.87Z"/><path class="cls-9" d="M313.51,324.91c-3.35-3.09-2.66-6.85-2.2-10.57,2.32,3.21,1.16,7.13,2.2,10.57Z"/><path class="cls-9" d="M318.43,253.08c1.85,2.47,4.24,3.64,7.09,4.68-5.34,2.21-7.23.95-7.09-4.68Z"/><path class="cls-3" d="M288.32,281.33l-.8,9.08c-2.25-3.28-1.76-6.28.8-9.08Z"/><path class="cls-12" d="M305.76,419.77c.09-1.79.18-3.57.29-5.81,5.67,2.09,3.12,10.45,9.67,12.22-.07,2.02-3.02,4.75-.23,7.6.97-1.18,1.96-2.38,3.06-3.72.57,2.49-2.65,12.2-4.21,13.01-.34.18-1.06.19-1.25-.03-.82-.93-1.13-2.06-.34-3.17,1.14-1.61,2.47-2.49-1.07-3.25-2.29-.49.35-4.52-1.45-6.87-1.51,3.36.66,6.66-1.13,11.21-1.27-7.33-2.3-13.31-3.33-19.28.77.11,1.78.44,1.8-.77.02-1.06-1.08-.94-1.81-1.15Z"/><path class="cls-12" d="M320.74,458.06c-.62,6.3-5.55,7.53-10.42,8.75-2.45.61-1.86-.9-1.39-2.22,1.01-.13,2.19.05,2.6-1.3-.88-.15-1.67-.29-2.47-.43.6-3.8,3.95-6.7,3.01-11.18-.4-1.87,2.92,1.57,3.73-.89.3.29.59.58.89.87-.48,1.02-1.1,2-1.41,3.07-.24.85.39,1.68,1.17,1.88.33.08.92-.8,1.38-1.24.12,1.82,1.12,2.68,2.91,2.7ZM312.21,462.47c1.35-1.14,3.1-1.63,2.28-3.63-.09-.23-.53-.32-.86-.51-.8,1.02-1.57,2.03-1.42,4.14Z"/><path class="cls-12" d="M302.05,443.12c.36,8.15-7.3,11.03-11.16,17.97-.29-6.82,2.8-10.74,6.14-14.24,1.47-1.54,2.59-3.3,4.02-4.83.33.36.66.73.99,1.09Z"/><path class="cls-9" d="M296.22,423.52c3.46-5.2,5.91-11.11,10.39-15.57.4.28.8.55,1.2.83-3.46,5.21-6.92,10.42-10.38,15.63l-1.22-.89Z"/><path class="cls-9" d="M302.05,443.12c-.33-.36-.66-.73-.99-1.09,2.25-.82,2.07-3.47,4.19-5.85,1.04,5.23-.69,9.32-.39,14.15-3.47-2.14-.44-5.58-2.81-7.2Z"/><path class="cls-9" d="M301.65,439.62c-1.89-1.42-3.61-2.1-3.73-4.3-.08-1.54.56-2.51,1.84-3.17.95-.49,1.84-.46,2.74.24,1.43,1.11.15,1.94-.14,2.95-.36,1.23-.43,2.54-.7,4.28Z"/><path class="cls-12" d="M322.61,453.13c-1.65-3.1-3.31-6.21-4.96-9.31.43-.23.85-.46,1.28-.69,2.54,3.08,4.61,6.43,5.32,10.6-.55-.2-1.1-.39-1.64-.59Z"/><path class="cls-4" d="M322.61,453.13c.55.19,1.1.39,1.64.59,0,0-.1.08-.1.09-.05.4-.1.79-.15,1.19-2.46-.44-2.05,2.18-3.26,3.07-1.79-.02-2.8-.88-2.91-2.7.78-2.48,3.54-.73,4.78-2.23Z"/><path class="cls-3" d="M299.51,428.88c1.29-2.2,1.83-5.01,4.88-6.62-.67,3.54-2.19,5.56-4.88,6.62Z"/><path class="cls-11" d="M309.07,462.86c.79.14,1.59.28,2.47.43-.4,1.34-1.58,1.16-2.6,1.3.04-.58.09-1.15.13-1.73Z"/><path class="cls-3" d="M305.76,419.77c.73.21,1.83.09,1.81,1.15-.02,1.21-1.03.88-1.8.77,0,0,.15-.09.15-.1-.01-.57-.02-1.14-.04-1.71l-.13-.11Z"/><path class="cls-12" d="M324,454.99c.05-.4.1-.79.15-1.19,1.09-.03.94.8.73,1.33-.26.67-.66.43-.88-.14Z"/><path class="cls-12" d="M315.8,450.78c.3-.73.97-.94,1.45-.48.63.62-.15.98-.56,1.35-.3-.29-.59-.58-.89-.87Z"/><path class="cls-12" d="M305.89,419.89c.01.57.02,1.14.04,1.71-.68.13-1.26-.12-1.27-.81-.01-.67.55-.97,1.24-.9Z"/><path class="cls-14" d="M221.76,496.27c-.44,3.78-1.21,5.64-3.96,5.62-1.47,0-3-.93-2.56-2.31.91-2.83,4.08-.86,6.52-3.31Z"/><path class="cls-8" d="M213.74,507.96c-1.34,4.26,1.71,5.36,2.81,7.76-5.26-1.25-6.2-3-2.81-7.76Z"/><path class="cls-14" d="M224.87,513.47c.71,1.79,3.38,2.4,2.74,4.71-.23.85-1.38.85-2.15.35-2.16-1.4-1.58-3.17-.6-5.06Z"/><path class="cls-8" d="M208.03,548.03c-.31-.31-.62-.62-.93-.93.31.31.62.62.93.93Z"/><path class="cls-14" d="M231.98,284.01c.25.35.5.69.75,1.04-1.18.27-.47-.72-.71-1.07,0,0-.04.03-.04.03Z"/><path class="cls-14" d="M246.99,264.99c.15-.14.3-.27.45-.41-.02.1-.01.23-.07.28-.1.08-.24.1-.36.15l-.02-.02Z"/><path class="cls-14" d="M247.01,265.01c-.32.34-.64.68-.97,1.02,0,0-.07-.07-.07-.07.34-.32.68-.65,1.02-.97,0,0,.02.02.02.02Z"/><path class="cls-8" d="M262.09,443.07c-.13,1.43-.19,2.82,1.85,2.87.02.36.05.72.07,1.08-.01.66-.02,1.32-.03,1.99v-.02c-3.13,1.6-2.66,4.31-2.16,7.04.19,1.07-.13,2.16-1.23,2.36-.9.17-1.08-.95-1.53-1.62-2.76-4.12-6.76-7.66-4.67-13.6.96-2.73,1.45-5.37,4.84-6.07,2.29-.47,2.63-3.35,4.73-4.14l.12.12c.21,2.74-1.93,4.35-3.11,6.42-.86,1.5-2.01,2.98.92,3.41l.2.18Z"/><path class="cls-12" d="M264.01,447.01c-.02-.36-.05-.72-.07-1.08,0,0,.03.03.03.03.34.01.68.02,1.03.03,1.39.14,2.31.99,1.85,2.27-1.16,3.28-.42,6.79-1.49,11.06-2.25-3.84-.91-7.24-1.37-10.36,0,0,0,.02,0,.02,1.03-.65,1.07-1.31.03-1.99Z"/><path class="cls-8" d="M262.92,440.94c.15-.76.27-1.55,1.31-1.53.11,0,.31.19.32.31.08,1.02-.65,1.24-1.44,1.39,0,0-.2-.17-.2-.17Z"/><path class="cls-8" d="M261.88,442.89c.06-.8.27-1.53,1.04-1.95,0,0,.19.17.19.17-.05.81-.26,1.53-1.03,1.96,0,0-.2-.17-.2-.17Z"/><path class="cls-8" d="M264.96,444.97c-.06-.87.19-1.58,1-2.01l.09.09c.01.84-.21,1.57-1.02,1.99,0,0-.07-.07-.07-.07Z"/><path class="cls-8" d="M265.96,442.96c.17-.13.34-.27.51-.4-.14.16-.28.33-.42.49,0,0-.09-.09-.09-.09Z"/><path class="cls-8" d="M264.99,431.99l.45-.41c-.02.09-.01.23-.07.28-.09.08-.23.11-.35.16,0,0-.02-.02-.02-.02Z"/><path class="cls-8" d="M264.99,446c-.34-.01-.68-.02-1.03-.03.33-.33.66-.67.99-1,0,0,.07.07.07.07,0,.32-.02.65-.04.97Z"/><path class="cls-8" d="M263.95,432.94c.34-.32.69-.64,1.03-.95,0,0,.02.02.02.02-.31.35-.63.7-.94,1.05,0,0-.12-.12-.12-.12Z"/><path class="cls-6" d="M367.21,314.8c1.18,5.78-2.75,10.24-3.98,15.4-3.14-4.09-.07-8.27-.11-12.41-.02-2.24.77-4.48,1.69-6.74v8.35c1.84-1.48.54-3.79,2.4-4.6Z"/><path class="cls-6" d="M346.08,394.48c.76,4.48-.43,8.62-2.05,12.74-.71,1.8-.95,3.79-1.4,5.7-2.56.44-1.78,3.69-4.56,5.05,2.82-8.27,5.42-15.88,8.01-23.49Z"/><path class="cls-14" d="M377.21,263.19c-.88,5.52-4.04,10.04-6.84,14.73.42-5.74,3.01-10.61,6.41-15.15.13.15.28.29.43.42Z"/><path class="cls-14" d="M350.08,380.02c-.11,1.08-.06,2.21-.92,3.06-2.25-.4-1.82,1.81-3.21,3.51,0-2.27-.1-3.81.03-5.33.13-1.57-.89-3.9.78-4.56,2.63-1.03,1.6,2.75,3.32,3.31Z"/><path class="cls-6" d="M362.18,335.05c-.11.64-.21,1.27-.32,1.91-4.2,1.65-2.5,6.8-5.74,9.52.11-4.17,1.66-7.56,3.16-10.95.68-1.55,1.83-.92,2.89-.48Z"/><path class="cls-6" d="M338.98,392.94c.99-3.73,1.97-7.45,2.96-11.18.54,4.14.11,8.02-2.96,11.18Z"/><path class="cls-14" d="M338.7,423.25c-.11.03-.27.1-.31.06-.08-.08-.1-.23-.15-.35.18-.04.35-.07.53-.11-.03.13-.05.27-.08.4Z"/><path class="cls-11" d="M398.05,192.97c-.6,3.17.16,6.8-3.05,9.1-.13-3.42.68-6.52,3.05-9.1Z"/><path class="cls-11" d="M399.06,189.98c.04,1.16.03,2.31-1.06,3.08.05-1.13-.61-2.51,1.06-3.08Z"/><path class="cls-14" d="M390.78,200.98c-.06.13-.11.26-.17.38-.13-.18-.26-.35-.4-.53.11-.07.26-.22.33-.19.11.05.16.22.24.34Z"/><path class="cls-3" d="M368.8,301.82c.13-.78.25-1.56.42-2.59,1.16,1.22.77,2.18.23,3.15-.22-.18-.44-.36-.65-.56Z"/><path class="cls-14" d="M244.77,341.25c-.59-.24-1.32-.37-1.32-1.19,0-.2.37-.41.57-.61.41.44.83.88,1.24,1.32-.17.15-.33.31-.48.48Z"/><path class="cls-1" d="M261.18,284.14c3.79-.37,7.46,1.57,11.33.38,2.19-.67,1.44,1.31,1.34,2.15-.9,7.4-1.78,14.81-2.95,22.17-.78,4.93-6.03,6.66-11.91,4.17.36-9.65-.07-19.36,2.19-28.87Z"/><path class="cls-1" d="M283.82,237.15c9.86,3.98,11.16,11.56,4.14,19.27-3.95,4.34-6.98,6.73-12.16,2.17-1.51-1.33-3.83-1.75-5.79-2.59,4.45-6.39,10.8-11.4,13.81-18.84Z"/><path class="cls-2" d="M268.36,259.31c2.28-.5,4.23.61,6.17,1.42,3.73,1.57,6.85,3.38,3.45,8.24-1.27,1.81-1.53,4.34-2.23,6.54-2.33,7.29-6.34,8.67-13.6,4.69,1.8-3.42,1.08-8.2,5.55-10.16-4.02-3.84,2.2-7.05.66-10.74Z"/><path class="cls-7" d="M261.18,284.14c-2.27,9.51-1.83,19.22-2.19,28.87-2.77.44-3.85-1.38-4.67-3.51-3.05-7.98-2.78-16.21-1.84-24.5.42-3.71,1.97-4.37,5.05-2.38,1.09.7,2.43,1.02,3.65,1.52Z"/><path class="cls-3" d="M268.36,259.31c1.54,3.69-4.69,6.9-.66,10.74-4.47,1.96-3.75,6.75-5.55,10.16-8.03-.97-8.66-1.95-6.16-9.61.82-2.51,1.55-5.06,2.53-7.51,2.26-5.7,3.97-6.31,9.84-3.77Z"/><path class="cls-7" d="M283.82,237.15c-3.02,7.45-9.36,12.45-13.81,18.84q-7.31-1.85-3-8.09c1.6-2.33,3.17-4.66,5.22-6.66,3.27-3.18,6.83-5.25,11.59-4.1Z"/><path class="cls-11" d="M332.04,298.04c-4.1-2.64-1.38-4.54.44-6.61,2.32,2.52-1.75,4.27-.43,6.6,0,0,0,0,0,0Z"/><path class="cls-11" d="M312.21,462.47c-.15-2.11.61-3.12,1.42-4.14.33.19.77.28.86.51.82,2-.93,2.5-2.28,3.63Z"/><path class="cls-3" d="M264.01,447.01c1.04.68,1,1.34-.03,1.99.01-.66.02-1.32.03-1.99Z"/></svg>