<?xml version="1.0" encoding="UTF-8"?><svg id="Capa_1" xmlns="http://www.w3.org/2000/svg" width="570.09mm" height="570.1mm" viewBox="0 0 1616 1616.03"><defs><style>.cls-1{fill:#f5de95;}.cls-1,.cls-2,.cls-3,.cls-4,.cls-5,.cls-6,.cls-7,.cls-8,.cls-9,.cls-10,.cls-11,.cls-12,.cls-13,.cls-14{stroke-width:0px;}.cls-2{fill:#171714;}.cls-3{fill:#f6de95;}.cls-4{fill:#f7df96;}.cls-5{fill:#534e3d;}.cls-6{fill:#524d3c;}.cls-7{fill:#56503e;}.cls-8{fill:#211f1a;}.cls-9{fill:#514d3c;}.cls-10{fill:#f3dc94;}.cls-11{fill:#151514;}.cls-12{fill:#544e3d;}.cls-13{fill:#1b1a17;}.cls-14{fill:#131312;}</style></defs><path class="cls-11" d="M905.96,1615.86c-4.3-.02-8.6-.04-12.9-.06-1.33-5.3-2.49-10.66-4.03-15.9-6.75-22.99-9.17-46.82-13.91-70.21-3.39-16.73-6.8-33.48-9.31-50.35-2.36-15.87-6.38-31.17-12.06-46.12-8.56-22.52-16.9-45.13-25.37-67.68-1.13-3.02-1.24-6.42-3.42-9.75-2.99,4.93-3.15,11.08-8.61,13.76-.28.14-.32.92-.36,1.41-1.36,15.08-2.09,30.16.48,45.19.41,2.43,1.62,5.23-1.43,6.57-2.69,1.18-5.07-.03-7.1-2.21-3.05-3.27-3.24-7.5-4.43-11.44-3.85-12.78-3.53-26.17-.61-38.43,3.23-13.57,8.41-26.9,12.9-40.28.55-1.64,1.24-3.12,2.55-4.19,3.09-2.52,3.49-6.1,4.4-9.54-1.83-.6-2.38.73-3.31,1.29-5.95,3.59-11.59,8.15-19.22,6.98-7.63-1.18-15.66-.41-22.66-4.81-1.31-.83-3.19-.78-4.81-1.09-8.96-1.71-18.57-2.38-25.27-9.34-6.56-6.82-13.31-13.45-19.93-20.19-14.9-15.18-28.41-31.5-40.84-48.88-13.01-18.19-27.87-35.07-42.08-52.4-2.64-3.23-4.67-7.23-9.24-9.23-.49,4.32,2.42,7.05,3.52,10.36,8.4,25.07,19,49.3,28.74,73.85,10.13,25.52,19.15,51.37,27.07,77.62,3.46,11.47,6.72,23.07,15.49,31.92,8.25,8.31,15.25,17.54,21.25,27.56,1.04,1.74,2.29,3.29,3.97,4.42,3.12,2.09,5.46,2.03,6.7-2.19,2.25-7.66.76-14.76-2.67-21.69-.61-1.24-2.15-2.78-.4-3.97,2.06-1.4,2.9.78,3.77,2.03,5.12,7.33,7.08,15.64,7.35,24.44-1.01,1.64-2.35,3.16-2.99,4.93-2.34,6.52-6,8.33-12.59,6.02-5.89-2.06-9.67-6.47-12.51-11.65-4.12-7.53-9.2-14.31-15.31-20.25-10.58-10.28-16.98-22.78-21.24-36.75-7.48-24.54-16.48-48.54-26.21-72.28-7.49-18.27-14.28-36.82-21.37-55.25-5.66-14.89-10.08-30.22-16.87-44.7-3.77-8.05-6.04-16.64-13.71-22.6-12.7-9.87-24.81-20.5-37.16-30.81-13.03-9.54-26.03-19.11-39.09-28.6-7.7-5.59-15.83-10.42-24.49-14.44-4.77-2.21-9.69-4.59-12.53-9.52-1.06-1.84-3.03-1.88-4.74-2.34-11.85-3.18-23.91-5.5-35.58-9.44-20.34-6.87-38.01-19.04-57.1-28.37-2.96-1.45-5.8-4.97-8.45-4.74-2.97.26-3.11,5.36-5.37,7.78-.68.73-1.25,1.56-1.91,2.31-5.84,6.56-9.39,14.09-9.94,22.94-.15,2.37-1.1,4.62,1.82,6.52,2.16,1.4,1.16,4.22-.38,5.78-6.03,6.09-9.24,14.25-15.17,20.38-21.54,22.25-41.84,45.77-65.58,65.82-24.97,21.08-44.65,46.04-58,76.03-7.65,17.2-16.02,34.08-24.35,50.96-6.12,12.4-11.88,25.21-21.09,35.62-20.86,23.57-36.82,50.17-50.66,78.22-12.69,25.71-25.34,51.43-41.8,75.04-2.3,3.29-2.68,7.05-2.82,10.95-.76,22.31,3.23,44.14,6.44,66.06,1.85,12.68,4.74,25.45,3.3,38.23-1.16,10.26-2.45,20.46-2.71,30.79q-12.97.39-14.52-12.37c-.67-5.5-.53-10.9.64-16.38,2.15-10.02-.37-19.91-1.67-29.77-2.82-21.46-7.13-42.69-8.03-64.44-.62-14.87,1.75-27.94,11.49-40.07,15.76-19.62,25.52-42.89,36.47-65.34,14.15-29.01,30.25-56.7,51.79-81.03,8.44-9.53,13.41-21.45,18.8-32.9,8.16-17.34,16.43-34.64,23.94-52.27,14.05-32.96,35.34-59.92,63.52-82.07,25.71-20.22,48.15-44.05,70.4-67.98,2.96-3.19,3.66-6.37,3-10.8-2.24-15.08,1.83-28.52,12.89-39.22,5.71-5.53,8.77-11.53,7.43-19.56-.44-2.62-.66-5.54,1.79-7.41,3.32-2.53,3.03-5.83,2.8-9.38-1.41-22.2-6-43.77-11.06-65.42-8.48-36.31-17.56-72.57-21.85-109.75-.4-3.47-1.23-6.89-1.92-10.31-.66-3.3-2.5-6.12-5.4-7.46-8.55-3.95-12.14-11.49-15.05-19.62-5.05-14.09-6.91-28.81-8.47-43.57-2.33-21.96,1.24-43.55,4.59-65.12,2.8-18,2.13-35.61-2.59-53.4-6.85-25.78-9-52.39-6.48-78.84,1.8-18.86,8.95-36.86,15.21-54.79,8.29-23.75,17.12-47.32,25.75-70.95,3.96-10.82,8.68-21.3,14.99-30.97,1.44-2.21,1.38-4.41,1.18-6.69-.99-11.45-2.02-22.9-3.16-34.33-.82-8.16-.83-16.31.21-24.44.85-6.67.31-13.3-.16-19.96-.94-13.3-1.47-26.63-.6-39.95.25-3.89.9-7.72,5.54-9.1,1.65-.49,1.85-2.28,2.43-3.6,2.76-6.25,5.52-12.5,8.1-18.83,2.22-5.43,5.88-9.47,10.59-12.93,13.3-9.79,27.85-16.93,43.7-21.46,14.24-4.07,27.43-11.25,42.1-14.05,6.53-1.25,12.98-2.94,19.49-4.32,16.88-3.56,33.11-.73,48.8,5.61,10.63,4.3,20.87,9.54,32.17,12.14,4.56,1.05,9.05,2.17,13.75,2.29,11.88.3,23.39,3.42,35.11,4.8,22.34,2.63,44.8,4.08,67.31,4.48,24.88.44,49.5,3.22,74.05,7.18,27.73,4.48,49.54,18.83,67.55,39.49,19.38,22.24,38.3,44.87,57.35,67.39,19.23,22.74,41.56,42.29,63.69,62.05,3.26,2.92,7.33,4.58,11.28,6.35,18.37,8.28,36.68,16.67,53.96,27.13,4.84,2.93,8.56,6.64,11.24,11.69,5.03,9.46,11.94,17.65,18.55,26.01,10.13,12.8,16.71,27.08,19.37,43.3,1.17,7.16,6.02,12.91,9.31,19.24.84,1.62,2.61,3.13,2.66,4.73.19,6.16,4.71,8.26,9.13,10.34,12.62,5.91,18.62,18.16,26.98,28.09,4.7,5.59,8.52,11.92,12.65,17.98,6.56,9.62,6.68,19.84,2.85,30.5-.88,2.46-1.04,5.19-1.55,7.78-3.09,15.58-11.54,29.04-17.15,43.61-9.39,24.4-22.1,46.91-36.06,68.84-3.22,5.06-6.15,10.19-11.05,14.01-6.28,4.9-9.06,13.2-16.34,17.26-.97.54-.33,1.84-.33,2.81-.01,7.17-.51,14.31-1.38,21.43-.57,4.66-2.58,8.6-5.8,11.92-4.88,5.04-10.06,9.75-16.25,13.16-1.52.84-2.52,1.72-3.02,3.59-5.81,21.54-13.2,42.67-16.33,64.9-1.92,13.69-4.55,27.28-4.36,41.2.16,12.08-2.15,23.8-5.06,35.51-5.64,22.67-8.61,45.84-12,68.92-1.57,10.69-5.19,20.52-10.65,29.92-7.03,12.12-11.64,25.44-17.59,38.1-4.89,10.41-9.25,21.17-19.28,28.04-1.56,1.07-1.63,2.78-2.12,4.36-2.9,9.49-2.9,19.42-4.54,29.11-4.03,23.76-13.53,44.72-29.25,63.11-11.25,13.16-21.3,27.35-33.04,40.12-3.02,3.29-4.42,7.42-6.39,11.25-3.49,6.78-9.23,11.78-13.84,17.66-5.39,6.87-9.45,14.5-13.68,22.06-.61,1.1-1.95,2.69-.08,3.32,4.04,1.38,4.19,4.89,4.95,8.02,1.24,5.1,3.55,9.67,6.23,14.11,10.16,16.84,20.32,33.69,28.67,51.52,11.38,24.29,18.84,49.61,22.5,76.37,3.53,25.8,5.34,51.73,7.16,77.6.79,11.25,4.03,20.9,7.88,30.86,6.91,17.87,14.31,35.57,18.93,54.24.4,1.61.83,3.2,1.34,5.16h-15.1c-.19-1.31-.24-2.65-.58-3.91-6.38-24.02-16.52-46.67-25.41-69.78-1.71-4.44-3.44-8.87-5.17-13.31l-1.29.42c4.23,19.42,5.78,39.3,10.69,58.62,2.37,9.31,5.9,18.35,6.64,28.05ZM858.96,1235.95c-.16.17-.31.35-.47.52.19-.14.37-.29.56-.44.14-.17.27-.35.41-.52-.17.14-.33.29-.5.43ZM786.94,1196.53c-.31.54-.8,1.05-.91,1.63-1.4,7.19-.88,14.9-6.85,20.73-1.94,1.9-1.78,4.72.31,7.25,2.52,3.06,4.79,6.37,6.86,9.76,1.86,3.05,3.11,2.41,4.36-.29,2.44-5.27,4.85-10.56,7.25-15.85,6.62-14.56,9.51-30.38,15.29-45.23,1.89-4.84,4.36-9.58,4.51-15.38-3.1.83-5.55,2.01-7.75,3.75-5.78,2.83-11.55,5.68-17.33,8.5-1.04.51-2.21.85-2.42,2.22-1.15,7.63-3.59,15.07-3.32,22.91ZM631.06,1159.97c16.83,15.3,30.34,33.56,45.14,50.67,1.09,1.26,1.75,2.83,3.75,2.68-.12,1.73,1.25,2.73,2.14,3.81,18.81,23.01,33.66,49.11,54.87,70.23,8.37,8.33,16.61,16.67,29.12,19.04,6.47,1.23,13.04,3.31,18.58,7.06,4.84,3.28,9.31,2.59,14.12.65,1.22-.49,2.53-.8,3.78-1.22,9.22-3.1,16.56-8.46,21.04-17.34-3.14,1.08-5.97,2.61-8.85,4.06-10.08,5.08-19.03,2.19-23.88-8.1-5.18-10.98-9.63-22.26-12.91-34-1.65-5.92-4.12-11.54-7.42-16.83-4.09-6.57-10-11.59-14.55-17.66-12.65-16.89-25.05-34.05-35.81-52.2-16.12-27.19-32.38-54.26-51.19-79.7-3.06-4.14-4.77-9.48-9.73-12.13.37-1.21-.02-2.2-.65-3.26-6.35-10.7-12.63-21.44-18.99-32.13-4.03-6.76-5.81-14.13-5.66-21.89.18-9.48,7.21-14.79,16.39-12.89,7.52,1.55,12.17,6.36,15.27,13.01.61,1.3.57,2.95,2.22,3.6,5.35,8,10.73,15.97,16.03,24,6.86,10.4,13.62,20.88,20.49,31.27,1.47,2.23,2.92,4.64.37,6.59-2.36,1.81-4.71.36-6.55-1.65-.9-.98-1.93-1.85-2.79-2.86-8.12-9.47-15.07-19.83-22.37-29.92-6.99-9.65-15.35-18.41-19.68-29.85-.67-1.77-2.45-3.13-4.28-4.07-2.82-1.44-4.52-.36-3.92,2.57.94,4.53,1.31,9.44,3.87,13.34,7.67,11.69,13.26,24.58,21.18,36.13,16.56,24.12,33.06,48.29,47.29,73.9,8.56,15.4,17.03,30.86,27.04,45.4,1.03,1.49,2.03,3.24,3.49,4.15,5.88,3.65,10.52,8.67,15.3,13.51,1.94,1.96,3.45,4.33,5.75,7.26,1.8-5.68,4.54-8.71,5-12.9,1.01-9.38,2.67-18.69,3.63-28.08.75-7.33,3.47-14.72.87-22.1-3.27-9.28-5.57-18.78-7.07-28.46-1.04-6.69-3.45-13.35-2.26-20.18.76-4.36.47-8.48.12-12.81-.46-5.6-2.46-11.26-.98-16.83,2.9-10.91,6.47-21.6,10.58-32.16,5-12.85,6.28-26.06-2.06-38.39-4.11-6.07-5.98-12.58-4.69-19.84,1.08-6.04,2.44-12.02,3.52-18.05,1.14-6.35,4.16-13.27,2.66-18.97-2.07-7.86-.12-14.43,1.83-21.34,2.74-9.73,6.7-19.35,8.43-29.08,3.3-18.51,2.42-37.53-1.3-56.01-4.57-22.69-8.73-45.24-7.52-68.59.5-9.63.92-19.25,2.39-28.76,1.52-9.81,3.04-19.71,7.86-28.67,11.32-21.03,25.96-39.73,40.65-58.42,2.41-3.07,5.54-5.57,6.93-9.61,2.82-8.2,6.8-15.96,11.37-23.29,11.79-18.92,25.14-36.75,39.11-54.1,4.89-6.07,8.96-12.96,15.04-17.9,13.94-11.32,28.48-21.9,43.98-30.98,9.34-5.48,19.79-9.35,30.46-10.38,15.36-1.49,30.45-4.91,45.91-5.54,13.91-.57,27.83-2.63,41.42,2.23.16.13.31.25.47.38-.14-.15-.28-.29-.41-.44.54-2.88-1.15-5.09-2.23-7.5-1.63-3.62-4.18-6.86-4.72-10.93-1.46-11.03-5.07-21.24-11.31-30.5-7.51-11.15-16.73-21.06-23.69-32.61-2.08-3.45-4.18-6.67-7.85-8.77-8.07-4.61-16.44-8.67-24.59-13.1-14.82-8.06-31.57-12.45-44.75-23.59-2.1-3.04-4.86-5.45-7.66-7.79-25.84-21.69-49.84-45.19-71.44-71.17-14.81-17.8-29.31-35.92-45.78-52.24-9.31-9.24-18.95-18.54-31.42-23.49-10.05-3.99-20.63-6.52-31.32-8.34-24.84-4.24-49.92-6.05-75.04-7.71-32.23-2.13-64.2-7.67-96.62-7.44-4.7.03-9.12-1.44-13.51-3.22-10.82-4.39-21.05-10-31.69-14.74-12.73-5.68-25.84-9.31-40.16-6.59-22.02,4.18-42.94,11.75-63.9,19.39-14.13,5.15-26.64,12.84-38.55,21.74-1.64,1.23-2.79,2.84-3.7,4.65-4.42,8.8-9.5,17.23-14.96,25.4-2.77,4.15-3.61,8.15-3.19,13.08,1.9,22.52,6.19,44.76,4.86,67.66-1.15,19.73.78,39.59-.75,59.43-.75,9.69-4.08,18.84-4.32,28.58-.08,3.33-3.25,2.67-5.33,1.17-1.72-1.25-1.95-3.36-2.23-5.38-.67-4.86-.7-9.73.14-14.99-1.93.93-2.06,2.19-2.36,3.25-7.97,28.08-19.04,55.12-27.58,82.99-7.76,25.3-16.04,50.53-12.45,77.8,2.76,20.96,3.27,42.18,6.64,63.09,2.12,13.18,3.45,26.41,1.71,39.81-3.36,25.99-5.64,51.99-1.24,78.16,1.82,10.81,1.49,21.95,4.67,32.6,1.05,3.52,2.72,6.08,6.28,7.78,2.75,1.31,5.61,2.57,7.95,4.96,6.31,6.45,7.5,14.72,8.84,22.91,6.54,39.99,15.6,79.43,25.22,118.76,5.54,22.63,8.73,45.47,6.74,68.83-.24,2.83-.2,5.85-2.47,7.9-3.84,3.45-1.77,5.84,1.31,7.88,3.05,2.01,6.35,3.63,9.49,5.52,7.18,4.3,15.23,6.65,22.73,10.21,16.08,7.65,32.07,15.51,49.6,19.42,5.13,1.14,11.35,2.25,13.86,6.18,4.99,7.82,13.16,7.33,19.97,10.41,6.96,3.14,13.78,6.58,20.67,9.9.12.92.76,1.4,1.47,1.88,13.82,9.26,26.06,20.58,39.5,30.37,21.75,15.85,41.77,33.8,61.19,52.41ZM913.63,1142.87c-1.9.53-3.75,1.59-5.78,1.11-9.59-2.25-19.44-1.41-29.11-2.62-2.95-.37-5.27-.92-6.34,3.16-.83,3.16-3.61,5.51-6.13,7.71-9.48,8.29-17.94,17.56-26.21,27.03-3.72,4.25-6.15,8.97-7.18,14.47-2.55,5.66-3.92,11.56-4.24,17.8-.53,9.99-3.62,19.33-7.85,28.47,2.9,1.86,6.01,2.34,9.72,1.31,14.1-3.92,25.86-12.8,39.27-18.15,1.97-.79,3.06-2.51,4.28-4.08,6.94-8.95,13.58-18.15,20.83-26.83,16.66-19.95,24.97-43.34,29.19-68.54.85-5.07,2.25-10.01,4.34-14.74,1.83-3.16,1.8-7.84,6.33-8.82,2.48-.54,3.68-1.98,4.8-3.89,4.54-7.81,6.99-16.5,10.52-24.74,5.94-13.88,9.01-28.98,17.68-41.69,3.37-4.94,5.05-10.49,6.16-16.2,3.85-19.85,7.32-39.78,11.27-59.62,2.53-12.68,6.38-25.19,6.77-38.14.62-20.75,1.24-41.21,7.69-61.42,4.88-15.31,8.88-30.93,14.27-46.12.35-.99,1.6-2.13.21-3.08-.88-.6-1.93.13-2.79.63-10.09,5.89-20.02,11.34-18.77,26.09.37,4.36-.08,9.13.28,13.79.54,7.08,1.24,14.44-4.01,20.42-4.42,5.03-3.47,10.27-1.04,15.7.41.91.8,1.88.91,2.85,1.06,9.81.74,21.74-10.61,27.21-1.13.54-1.79,1.37-2.06,2.62-2.74,12.62-9.39,23.36-16.38,33.92-1.92,2.91-3.05,5.92-2.45,9.39,2.16,12.53,2.11,25.18,1.69,37.81-.25,7.47-3.42,13.5-9.87,18.06-7.96,5.63-16.76,9.55-25.4,13.77-7.35,3.59-14.01,9.24-23.02,8.7-2.49-.15-2.43,2.14-2.62,4.02-.42,4.28-.66,8.62-1.57,12.81-3.12,14.35-3.11,29-4.36,43.52-.17,2.03-.6,5.04,2.88,4.4,7.33-1.35,15.48.1,21.56-5.87.91-.89,1.91-1.37,3.12-.64,1.27.76,1.04,1.82.69,3.05-.79,2.83-2,5.24-4.72,6.73-6.76,3.71-13.67,6.95-21.61,6.75-2.58-.07-4.14.75-5.72,2.95-3.87,5.4-6.46,11.66-11.18,16.48-1.39,1.42-.91,2.37,1.06,2.5,1.16.08,2.32.11,3.49.17,9.39,1.5,19.22-.23,28.19,4.72,2.5,1.38,4.27,2.03,3.85,5.06ZM917.07,865.2c6.73-5.78,14.25-10.47,23.36-9.55,12.87,1.3,25.89,1.54,38.56,4.55,1.51.36,2.19.22,2.09-1.46-.5-8.95-.4-17.86,1.59-26.67.13-.55-.09-1.45-.49-1.81-2.67-2.36-1.44-4.77-.25-7.22,1.98-4.06,2.6-8.38,2.45-12.85,4.7-4.36,8.57-9.63,14.52-12.62,7.28-3.66,14.31-7.81,21.68-11.26,5.84-2.74,10.74-6.7,15.32-10.96,4.01-3.73,4.74-8.98,4.12-14.34-.47-3.74-.78-7.5-1.43-11.2-3.1-17.51-13.89-31.22-22.85-45.82-.55-.89-1.81-1.35-2.74-2,.39-2.2-.89-3.8-1.96-5.48-13.69-21.39-25.51-43.64-30.79-68.77-.78-3.7-2.1-4.25-5.45-2.75-17.92,8.02-31.96,20.86-44.26,35.74-14.69,17.78-25.28,38.22-36.91,57.98-11.29,19.2-17.43,39.93-18.95,62.25-.47,6.92-.26,13.9-1.37,20.84-1.93,12.02-2.28,24.28-.92,36.31,1.49,13.19,2.89,26.38,3.48,39.62.93,20.98-1.46,41.74-5.07,62.41-2.62,15.01-4.05,30.24-6.99,45.18-2.72,13.8-7.93,27.07-9.26,41.22-.12,1.3-1.16,2.95-.03,3.75,1.66,1.19,2.4-1.12,3.64-1.71,1.65-.79,3.22-2.04,4.95-2.31,9.82-1.53,19.69-2.78,29.53-4.23,9.01-1.33,18.21.56,27.11-4.07,13.62-7.11,24.93-14.92,22.35-32.71.18-12.44-2.6-24.82-.83-37.29,5.82-8.84,11.74-17.62,17.43-26.55,2.37-3.72,5.27-7.39,4.33-12.34,2.81-2.82,5.4-5.91,8.48-8.4,8.12-6.59,9.58-13.64,4.4-22.8-.65-1.14-1.37-2.42-1.45-3.68-.29-5.03-4.55-7.43-7.84-7.67-11.56-.83-23.26-.92-34.37,3.54-5.85,2.35-11.65,5.04-18.25,3.55-1.22-3.62,2.13-5.57,3.07-8.4ZM784.14,1117.04c.03,1.99-.37,4.09.14,5.94,3.4,12.15,8.76,23.76,9.43,37.13,7.71-4.11,15.37-7.28,22.03-12.29,3.35,0,4.72-1.54,5.42-5.01,3.35-16.59,4.6-33.49,7.65-50.13,2.42-13.2,4.28-26.5,6.25-39.78,1.65-11.14,3.22-22.29,4.61-33.47,2.23-17.96,9.27-34.85,10.76-53.1,1.45-17.83,3.01-35.69,4.26-53.52,1.26-17.91,3.52-35.61,5.86-53.36,1.06-8.1,2.79-16.27-.85-24.53-2.75-6.23-4.01-13.43-2.41-20.06,3.85-16.03,4.22-32.56,7.77-48.6,5.26-23.78,9.46-47.72,21.83-69.49,14.12-24.86,29.24-48.71,50.76-67.94,5.1-4.56,10.28-9.02,16.32-12.24,20.26-10.81,40.5-21.69,61.61-30.8,19.92-8.59,40.57-14,62.45-12.63,11.43.72,22.6,4.42,34.51,3.19-3.13-4.06-7.32-6.12-12.16-7.06-23.25-4.48-46.41-2.42-69.24,2.31-19.66,4.08-38.53,11.06-56.83,19.83-.21-1.45-.37-2.59-.53-3.73,1.87-3.05,4.33-5.44,7.56-7.03,17.06-8.39,35.27-13.69,53.21-19.67,11.25-3.75,23.33-3.21,34.85-5.76,14.03,1.77,28.47-.63,43.22,5.14-5.43-9.67-12.23-16.46-18.46-23.69-3.8-4.41-8.58-7.12-14.54-7.41-15.79-9.04-32.72-12.03-50.84-10.82-11.33.75-22.52,3.64-33.76,3.3-14.88-.45-27.54,4.53-40.08,11.65-21.03,11.94-41.29,23.96-56.66,43.94-20.61,26.79-40.22,54.13-58.11,82.77-8.47,13.56-17.51,26.76-26.16,40.21-5.88,9.15-11.08,18.73-13.42,29.42-6.21,28.3-9.22,56.85-5.25,85.8,3.22,23.49,4.33,46.89,1.76,70.67-1.69,15.62-2.15,31.35-5.84,46.73-.15.64-.18,1.34-.12,1.99,1.4,13.92-.87,27.6-2.86,41.27-1.33,9.13-1.54,17.8,3.9,25.92,1.71,2.56,2.11,5.97,3.51,8.79,3.47,6.97,3.4,14.78,5.5,22.05,4.76,16.5,6.47,33.3,5.09,50.38-.23,2.8.38,7.75-4.02,7.29-4.87-.51-2.33-5.22-2.58-8.23.68-1.97.44-3.95-.05-5.89-1.55-6.09-2.98-12.23-4.81-18.24-1.49-4.88-2.58-9.87-3.81-14.89-1.06,1.98-1.61,3.86-2.06,5.77-3.49,14.82-5.31,29.88-7.29,44.96-1.08,8.17-.53,15.51,2.49,22.92ZM1050.59,734.95c5.8-7.03,11.93-13.07,16.37-20.16,7.23-11.55,14.35-23.18,22.1-34.36,5.58-8.05,7.62-18.57,16.72-24.21.7-.43.9-1.73,1.26-2.66,3.93-10.41,8.06-20.75,11.69-31.27,2.81-8.13,5.78-16.31,5.33-25.17-.06-1.14.19-2.56-1.24-2.94-1.48-.4-1.89,1.02-2.47,1.99-3.19,5.29-6.87,10.19-11.42,14.4-1.8,1.67-3.96,2.17-5.83.53-1.74-1.52-1.34-3.61-.15-5.45,1.72-2.65,3.61-5.19,5.19-7.92,2.76-4.77,1.17-7.48-4.43-7.64-4.81-.14-9.61-.1-14.38-1.1-12.58-2.63-24.8-1.02-37.31,1.76-9.33,2.07-12.52,6.87-14.38,15.52-2.11,9.8-2.8,20.12-7.88,29.17-5.04,8.99-9.62,18.26-15.17,26.92-2.77,4.32-2,7.23.24,11.14,11.71,20.39,27.23,38.55,35.77,61.46ZM887.98,1043.56c.21-5.49-.08-5.57-4.55-4.99-6.08.79-12.06,2.14-18.22,2.59-10.95.79-13.54,3.71-14.29,14.52-.08,1.15-.3,2.3-.52,3.44-2.81,14.81-5.67,29.62-8.45,44.44-3.83,20.37-6.76,41.04-14.07,60.49-6.13,16.32-12.32,32.66-19.06,48.73-3.07,7.32,1.14,11.5,3.48,16.81.22.49.99.99,1.54,1.03.71.05,1.1-.65,1.12-1.38.19-6.49,3.66-12.32,3.23-19.06-.82-12.78,3.33-24.69,10.86-34.51,8.32-10.84,17.52-21.17,27.92-30.24,3.14-2.74,6.45-5.36,6.07-10.27-.42-5.51,2.78-8.88,6.46-12.68,6.64-6.85,12.99-14.18,12.6-24.96-.39-10.63,1.82-21.11,2.86-31.65.76-7.74,2.08-15.42,3.03-22.3ZM893.12,1502.18c-2.55-32.42-5.61-64.7-15.38-95.96-9.86-31.56-27.93-59.07-42.5-88.86-2.46,10.86-8.64,21.27.59,31.47.32.35.47.88.63,1.35,6.82,21.07,17.22,40.7,24.79,61.48,7.21,19.78,16.04,39.06,18.31,60.36.33,3.11-.5,6.49,1.13,9.33,4.02,7.01,8.27,13.89,12.43,20.83ZM857.07,1238.91c-.32-.42-.63-.85-.95-1.27-6.43,3.48-13.11,6.57-19.22,10.53-7.83,5.07-16.05,5.49-23.89.42-4.62-2.98-8.02-6.89-10.15-11.95-1.23-2.91-2.54-3.27-4.15-.14-1.67,3.24-3.51,6.41-5.45,9.5-.77,1.23-.96,2.19-.62,3.65,2.79,12.15,8.05,23.54,10.89,35.66.59,2.53,2.13,3.36,4.37,2.57,5.64-2.01,10.97-4.29,14.97-9.3,7.03-8.8,14.53-17.22,21.9-25.75,4.05-4.69,8.21-9.27,12.32-13.9ZM1026.18,599.79c-13.16,4.83-24.25,11.47-35.66,17.45-1.51.79-1.36,1.94-.77,3.37,3.94,9.48,7.79,19.01,11.72,28.49.4.96.29,2.68,1.88,2.51,1.33-.13,1.48-1.58,1.85-2.68,1.97-5.85,4.39-11.62,8.07-16.48,7.17-9.46,9.34-20.66,12.9-32.67ZM828.35,1290.27c-1.6-.58-2.51.13-3,1.47-.08.22.47.96.64.93,1.3-.23,2.24-.9,2.36-2.4Z"/><path class="cls-10" d="M637.96,1218.06c7.1,18.43,13.88,36.98,21.37,55.25,9.74,23.74,18.73,47.74,26.21,72.28,4.26,13.97,10.66,26.47,21.24,36.75,6.11,5.94,11.19,12.73,15.31,20.25,2.84,5.18,6.62,9.59,12.51,11.65,6.59,2.31,10.26.5,12.59-6.02.64-1.77,1.97-3.3,2.99-4.93,2.56.62,1.63,2.68,1.42,4.08-1.2,7.89-1.91,15.91-4.71,23.46-1.71,4.62-2.53,9.28-2.36,14.19.08,2.29.59,4.67-.49,6.9-1.48-1.12-2.29-2.68-2.94-4.37-3.8-9.92-8.51-19.42-13.81-28.61-2.68-4.64-5.84-8.9-10.07-12.3-4.65-3.74-9.94-4.49-15.56-3.32-2.18.45-4.19,1.72-4.22,4.28-.03,2.47,1.87,3.32,4.02,3.6,6.01.77,9.9,4.47,12.74,9.45,2.47,4.34,4.92,8.71,7.01,13.24,12.95,28.11,26.15,56.01,36.5,85.35,11.25,31.92,22.68,63.67,30.45,96.64-13.33.03-26.65.07-39.98.1.56-4.56-.72-8.91-1.58-13.29-3.86-19.64-11.09-38.31-16.75-57.42-3.56-12.02-9.99-22.73-15.47-33.92-8.51-17.4-21.63-31.45-31.74-47.62-3.58-5.73-6.87-11.71-11.47-16.75-1.19-2.61-1.43-5.36-1.46-8.22-.06-6.78-.07-13.58-.61-20.33-.53-6.64.15-13.05,2.01-19.38,1.62-1.86,2.01-4.76,4.96-5.52,4.25-1.09,4.78-4.64,3.87-7.88-1.59-5.72-2.49-11.52-3.48-17.33-2.75-16.05-8.2-31.43-11.88-47.27-3.04-13.1-8.08-25.69-13.5-38.04-1.43-4.11-2.93-8.2-5.27-11.91-2.56-10.02-7.49-18.76-15.13-25.65-10.67-9.63-19.37-20.97-28.65-31.82-3.38-3.95-6.03-8.36-8.17-13.07-.58-1.27-2.43-2.86.17-4.11,2.15,1.98,4.66,4.23,7.26,1.44,2.66-2.84-.05-5.05-1.96-7.17-1.33-1.48-2.53-3.09-3.64-4.74-10.43-15.57-22.68-29.49-37.34-41.23-3.22-2.58-6.3-5.35-9.37-7.97.91-1.59,2.95-.4,3.52-2.38-1.9-.76-3.86-1.46-5.75-2.34-2.4-1.12-4.76-1.82-6.84.47-2.03,2.25-2,4.84-.76,7.44,1.98,4.17,5.46,7.1,8.78,10.09,12.29,11.11,24.57,22.21,35.32,34.87-1.08,2.13-2.38.95-3.64.25-8.12-4.49-17.05-5.29-26.04-5.34-8-.05-10.99,4.3-8.9,12.1,1.09,4.07,3.88,7.27,5.31,11.15-1.72.84-2.75-.66-3.99-1.26-4.63-2.25-9.2-4.64-13.79-6.95-1.18-.59-2.55-1.46-3.59-.07-1.25,1.65.19,2.74,1.28,3.73.86.78,1.83,1.43,2.74,2.15,17.23,13.59,37.2,22.51,56.56,32.29,14.44,7.3,28.24,14.66,36.86,29.01,0,.33-.11.69,0,.98,9.85,25.72,16.76,52.31,23.15,79.03,4.74,19.78,6.37,40.07,8.85,60.21.35,2.81.6,5.71,3.56,7.25.2,7.35.76,14.66,1.77,21.94-1.6.3-1.61-1.11-2.25-1.97-2.35-3.17-3.64-7.3-7.82-8.85-3.32-6.52-4.59-13.5-4.36-20.73.33-10.25-1.46-20.2-3.55-30.18-4.94-23.64-9.09-47.43-12.57-71.33-3.42-23.42-13.09-42.69-34.61-54.86-12.48-7.06-25.03-13.9-38.22-19.54-11.93-5.1-24.07-9.65-35.64-15.65-8.38-4.35-17.59-7.08-27.21-7.57-1.71-.09-2.65-1.2-3.9-1.96-13.16-8.05-27.1-12.44-42.78-9.7-9.01,1.58-18.1,2.82-27.19,3.75-42.42,4.32-82.45,16.62-120.16,36.34-10.25,5.36-20.92,10.52-28.51,19.86-18.9,23.28-37.61,46.72-56.7,69.84-34.26,41.5-54.93,89.45-67.23,141.31-3.93,16.55-7.86,33.06-13,49.27-8.73,27.55-15.14,55.61-18.78,84.28-.94,7.4-2.44,14.76-2.15,22.29-1.92-.02-3.85-.04-5.77-.07,4.12-13.94,4.16-28.65,8.13-42.64,1.85-6.54,3.06-13.22,3.88-20.06,1.75-14.7,1.57-29.72,5.51-44.05,7.86-28.57,15.83-57.13,24.78-85.37,11.27-35.55,26.73-69.33,47.9-100.13,16.62-24.19,35.49-46.64,56.46-67.27,9.62-9.46,18.98-19.18,28.32-28.91,1.38-1.43,4.19-3.68,2.66-5.3-2.1-2.21-4.05,1.04-5.64,2.29-34.97,27.61-62.51,62.1-89.47,97.1-10.77,13.98-16.61,30.68-24.72,46.13-13.59,25.88-22.13,53.44-30.25,81.31-4.56,15.65-8.15,31.6-13.94,46.89-3.33,8.8-5.01,17.89-5.43,27.29-.57,12.65-1.22,25.55-4.54,37.6-5.01,18.18-7.55,36.82-12.28,55-.78.04-1.55.08-2.33.13.26-10.32,1.55-20.53,2.71-30.79,1.44-12.79-1.45-25.55-3.3-38.23-3.2-21.92-7.19-43.75-6.44-66.06.13-3.9.52-7.66,2.82-10.95,16.46-23.61,29.12-49.33,41.8-75.04,13.84-28.05,29.8-54.65,50.66-78.22,9.21-10.4,14.97-23.22,21.09-35.62,8.33-16.88,16.7-33.77,24.35-50.96,13.34-29.99,33.03-54.95,58-76.03,23.74-20.05,44.04-43.56,65.58-65.82,5.93-6.13,9.14-14.29,15.17-20.38,1.54-1.55,2.54-4.37.38-5.78-2.92-1.9-1.97-4.16-1.82-6.52.55-8.85,4.11-16.38,9.94-22.94.66-.75,1.23-1.58,1.91-2.31,2.26-2.42,2.4-7.52,5.37-7.78,2.65-.23,5.49,3.29,8.45,4.74,19.09,9.33,36.76,21.5,57.1,28.37,11.67,3.94,23.73,6.27,35.58,9.44,1.71.46,3.68.5,4.74,2.34,2.83,4.93,7.75,7.31,12.53,9.52,8.67,4.02,16.8,8.85,24.49,14.44,13.06,9.49,26.06,19.06,39.09,28.6-3.19,2.71-6.35,5.48-5.88,10.25.41,4.22,2,8.05,4.17,11.65,3.62,5.98,7.54,11.76,11.9,17.24,12.42,15.6,26.11,30.21,36.17,47.62,1.73,2.99,4.17,5.6,6.47,8.22,3.24,3.7,7.18,5.31,12.03,3.24.97-.41,1.91-.52,2.89-.12ZM430.48,1172.13c6.59.36,13.07.62,19.54,1.09,13.42.98,26.89,1.44,39.68,6.61,7.69,3.11,15.72,5.41,23.63,7.97,1.68.54,3.84,1.37,4.98-.69,1.36-2.45-.9-3.5-2.48-4.67-5.78-4.3-11.89-7.93-18.91-9.89-22.98-6.41-46.6-7.73-70.21-8.06-20.12-.29-39.02,6.05-57.3,13.94-17.41,7.51-34.61,15.53-51.96,23.19-7.39,3.26-14.04,7.6-20.19,12.76-1.04.87-3.14,1.54-2.09,3.38,1.21,2.13,3.02.62,4.35-.07,4.87-2.53,9.47-5.65,14.5-7.79,20.52-8.71,40.99-17.58,61.81-25.53,17.58-6.72,35.72-11.73,54.67-12.24ZM507.74,1120.16c.67,0,1.34.06,2-.01,2.9-.3,5.36-1.39,5.46-4.69.1-3.46-2.52-3.8-5.21-3.85-2.46-.04-4.48-1.27-6.36-2.65-5.11-3.74-10.3-7.38-15.19-11.39-13-10.67-25.63-21.82-38.85-32.22-12.22-9.61-25.44-17.64-40.77-21.6-2.64-.68-5.21-.92-7.89-.72-2.25.17-3.76,1.2-4.4,3.39-.64,2.19.08,4.05,1.88,5.26,1.92,1.3,3.98,2.4,6.08,3.38,4.82,2.25,10,3.8,14.43,6.83,15.54,10.6,31.51,20.55,46.23,32.34,9.88,7.91,19.96,15.59,30.94,21.97,3.61,2.1,7.26,4.13,11.65,3.95ZM437.82,1149.28c8.65-.43,17.32-.57,25.94-1.36,8.43-.77,17.01-1.56,24.3-6.59,4.24-2.92,6.72-6.93,6.07-12.32-.24-1.97-1.23-3.5-3.34-3.84-1.74-.28-3.01.75-3.48,2.25-1.68,5.29-6,6.73-10.72,7.69-5.07,1.04-10.19,1.57-15.35,1.8-14.47.64-28.95,1.24-43.41,2.04-3.95.22-8.03.53-11.6,2.59-2.21,1.28-3.35,3.28-2.6,5.9.61,2.12,2.25,2.82,4.3,2.46,9.93-1.71,19.94-.1,29.91-.63Z"/><path class="cls-3" d="M636.14,1615.87c-6.59-.05-13.18-.11-19.77-.16,1.5-2.96,2.89-5.98,4.53-8.87,7.28-12.82,12.96-26.26,16.3-40.67,1.13-4.89,1.17-9.55-1.02-14.13,2.68-9.98,3.44-20.27,4.66-30.46.83-6.94.58-13.97-.22-20.93-.22-1.95-.49-4.41-3.06-4.48-2.48-.07-2.49,2.35-2.7,4.09-2.09,16.79-10.79,30.59-19.97,44.15-3.36,4.96-7.06,9.7-10.61,14.54-.4-.19-.81-.38-1.21-.57.44-13.4.88-26.81,2.41-40.16,1.38-12.05,4.55-23.95,3.47-36.2-.5-5.7-.44-11.67-4.51-16.44-.58-1.73-1.33-3.43-1.7-5.2-1.96-9.36-9.13-11.92-17.21-13.33-8.18-1.42-14.77.62-19.03,8.33-3.87,7-7.5,14.12-10.5,21.52-18.07,44.63-22.15,91.49-21.96,139.02-12.69,0-25.38,0-38.07,0,1.19-26.85,4.98-53.26,12.67-79.08,8.39-28.15,17.73-55.84,34.73-80.27,1.79-2.57,3.12-5.51,4.32-8.42.79-1.93.61-4.01-1.79-5.01-2.8-1.18-12.16.7-14.14,3.17-7.51,9.33-15.11,18.58-19.56,29.96-8.36,21.4-16.61,42.84-23.46,64.78-7.61,24.37-13.12,49.18-14.45,74.78-26.9-.02-53.81-.04-80.71-.06.22-1.48.45-2.96.67-4.44,3.41-23.2,6.98-46.37,7.59-69.88.46-17.79.18-35.62,2.04-53.36,1.37-13.08,3.29-26.08,6.49-38.86.64-2.56,1.81-4.69,3.9-6.7,12.21-11.76,24.69-23.56,18.89-43.26-.66-2.26.38-2.74,2.33-1.96,3.55,1.43,7.08,2.92,10.64,4.32,2.17.85,4.4,1.83,6.75.8,2.37-1.04,4.48-.57,6.69.5,5.84,2.82,11.23,1.82,17.19-.71,11.46-4.85,21.85-12.1,34.28-14.83,10.11-2.22,13.03-5.84,10.65-15.91-4.78-20.19-8.71-40.76-19.44-59.03-2.79-4.74-6.47-7.93-12.21-8.33-4.48-.31-8.97-.65-13.41-1.28-2.66-.38-6.43.34-7.4-2.8-.97-3.12,1.3-6.03,3.22-8.57,1.14-1.51,2.87-2.16,4.63-2.78,9.08-3.19,11.03-8.32,6.02-16.32-1.61-2.56-1.81-4.83-.49-7.47,4.47-8.93,8.56-18.03,13.88-26.54,4.31-6.9,8.31-14.02,11.48-21.56,3.11.18,5.86,1.63,8.28,3.26,13.22,8.9,28.2,14.23,42.35,21.23,6.53,3.23,13.43,5.84,19.13,10.58-3.22,3.72-4.92,8.26-6.74,12.7-3.74,9.08-7.18,18.28-10.98,27.33-9.69,23.07-7.64,45.49,3.47,67.45,8.47,16.76,22.07,28.71,37.54,38.5,14.99,9.48,22.53,22.53,22.22,40.18-.12,7.16-.19,14.32-.59,21.46-.28,4.9.26,9.63,1.52,14.31,1.07,3.98,2.51,8.05,7.43,8.18,5.19.14,8.02-3.21,9.33-7.99.84-.93,1.69-1.85,3.18-3.49.88,7.82,1.88,14.83,2.42,21.86,1.13,14.68,3.56,29.21,1.09,44.15-4.37,26.37-7.69,52.91-11.45,79.39Z"/><path class="cls-3" d="M313.31,1615.81c-21.8.02-43.6.05-65.39.07,3.06-10.39,6.66-20.65,9.09-31.18,10.71-46.5,23.59-92.3,41.46-136.62,4.42-10.97,7.6-22.51,8.8-34.29.68-6.67,2.83-12.45,5.52-18.38,1.65-3.63,4.6-7.02,3.85-11.52.39-4.79,4.37-7.72,6.16-11.8,2.86-6.51.41-10.45-6.63-10.51-7.9-.07-14.95,2.9-21.94,6.05-26.62,12.01-48.4,30.97-70.61,49.31-1.13.93-2.57,2.05-1.52,3.74,1.28,2.07,3.1.85,4.36.02,5.55-3.67,11.09-7.38,16.44-11.33,18.22-13.49,36.59-26.71,57.74-35.4,4.24-1.74,8.47-3.58,13.48-3.89-1.39,3.32-3.52,5.67-5.45,8.13-12.96,16.51-26.69,32.38-40.65,48.04-18.28,20.5-34.56,42.69-53.87,62.35-9.42,9.6-17.49,20.54-23.26,32.91-1.59,3.41-3.56,7.54.1,9.94,3.44,2.24,5.8-1.74,8.01-4.14.48.71.96,1.42,1.44,2.13-3.19,3.07-4.31,7.36-6.42,11.06-8.57,15.04-17.34,29.99-24.23,45.9-4.15,9.57-8.59,19.1-10.03,29.61-10.98-.04-21.96-.08-32.94-.13,7.65-39.26,16.19-78.29,29.02-116.26,7.63-22.57,11.26-46.3,19.89-68.59,11.54-29.84,22.8-59.76,41.87-85.98,21.87-30.05,45.03-59.07,68.87-87.57,2.94-3.51,6.85-5.77,10.61-8.23,15.8-10.34,32.79-18.52,49.97-26.11,29.05-12.84,59.05-22.45,91.36-22.18,1.09,0,2.27-.57,3.6.69-6.08,8.83-12.25,17.72-16.99,27.36-3.59,7.31-8.62,10.42-16.57,12.26-12.05,2.79-15.04,5.25-13.95,16.63.3,3.14-.76,5.85-2.7,8.33-2.88,3.69-6.07,7.11-9.61,10.14-6.78,5.82-16.79,6.56-24.08,1.39-5.59-3.96-11-3.84-16.2-.17-11.62,8.19-24.7,13.77-36.84,21.02-7,4.18-8.74,8.19-5.39,15.73,3.22,7.27,6.3,14.71,10.48,21.42,3.76,6.03,7.22,13,15.37,14.69,1.48,3.25,4.19,3.3,7.16,2.82,4.52-.72,8.9-2.49,13.67-.58,1.78.71,3.9-.45,4.67-2.73,8.26,2.57,11.77,11.55,7.37,19.25-2.57,4.5-5.71,8.78-9.76,11.94-9.44,7.36-9.04,10.61-3.09,20.68.68,1.15,1.19,2.39,1.92,3.5,1.06,1.64,1.31,3.29.85,5.21-4.03,16.84-7.07,33.98-12.17,50.48-9.92,32.07-13.73,65.04-16.91,98.19-1.81,18.88-3.16,37.8-5.88,56.58Z"/><path class="cls-6" d="M744.05,1451.91c1.08-2.23.57-4.6.49-6.9-.17-4.91.65-9.57,2.36-14.19,2.8-7.55,3.51-15.57,4.71-23.46.21-1.4,1.14-3.46-1.42-4.08-.27-8.8-2.23-17.11-7.35-24.44-.87-1.25-1.71-3.43-3.77-2.03-1.75,1.19-.21,2.73.4,3.97,3.43,6.93,4.92,14.03,2.67,21.69-1.24,4.22-3.58,4.28-6.7,2.19-1.68-1.13-2.93-2.68-3.97-4.42-6-10.02-13-19.25-21.25-27.56-8.78-8.85-12.03-20.44-15.49-31.92-7.92-26.26-16.95-52.11-27.07-77.62-9.74-24.55-20.35-48.78-28.74-73.85-1.11-3.31-4.02-6.04-3.52-10.36,4.56,2,6.59,6.01,9.24,9.23,14.21,17.33,29.07,34.21,42.08,52.4,12.43,17.38,25.94,33.71,40.84,48.88,6.62,6.75,13.37,13.37,19.93,20.19,6.7,6.97,16.31,7.63,25.27,9.34,1.62.31,3.5.26,4.81,1.09,7,4.4,15.03,3.63,22.66,4.81,7.63,1.18,13.27-3.38,19.22-6.98.93-.56,1.49-1.89,3.31-1.29-.91,3.44-1.31,7.02-4.4,9.54-1.31,1.07-2,2.54-2.55,4.19-4.49,13.38-9.67,26.71-12.9,40.28-2.92,12.25-3.24,25.65.61,38.43,1.19,3.94,1.38,8.17,4.43,11.44,2.03,2.18,4.41,3.39,7.1,2.21,3.05-1.34,1.84-4.14,1.43-6.57-2.56-15.04-1.84-30.11-.48-45.19.04-.49.08-1.27.36-1.41,5.45-2.68,5.62-8.82,8.61-13.76,2.18,3.33,2.28,6.73,3.42,9.75,8.47,22.56,16.81,45.16,25.37,67.68,5.68,14.96,9.7,30.25,12.06,46.12,2.51,16.87,5.92,33.62,9.31,50.35,4.73,23.38,7.15,47.22,13.91,70.21,1.54,5.24,2.7,10.6,4.03,15.9-31.37,0-62.74.02-94.11.02-.93-9.92-3.58-19.51-5.67-29.2-5.06-23.42-13.26-45.87-21.78-68.18-5.21-13.64-8.49-27.97-15.28-41.04-4.34-8.35-8.13-16.99-12.17-25.5Z"/><path class="cls-2" d="M313.31,1615.81c2.73-18.78,4.07-37.71,5.88-56.58,3.19-33.15,6.99-66.13,16.91-98.19,5.11-16.5,8.14-33.64,12.17-50.48.46-1.93.21-3.58-.85-5.21-.72-1.11-1.24-2.36-1.92-3.5-5.94-10.07-6.35-13.32,3.09-20.68,4.05-3.16,7.19-7.44,9.76-11.94,4.4-7.7.88-16.67-7.37-19.25-4.31-3.75-9.24-4.84-14.68-3.21-3.65,1.09-7.21,2.45-10.81,3.7-8.15-1.7-11.61-8.67-15.37-14.69-4.18-6.71-7.26-14.15-10.48-21.42-3.35-7.55-1.61-11.55,5.39-15.73,12.14-7.25,25.22-12.83,36.84-21.02,5.2-3.66,10.61-3.79,16.2.17,7.29,5.17,17.3,4.42,24.08-1.39,3.54-3.03,6.73-6.45,9.61-10.14,1.94-2.48,3-5.19,2.7-8.33-1.09-11.38,1.9-13.84,13.95-16.63,7.95-1.84,12.98-4.95,16.57-12.26,4.73-9.64,10.91-18.53,16.99-27.36-1.33-1.26-2.51-.69-3.6-.69-32.31-.27-62.31,9.34-91.36,22.18-17.18,7.59-34.17,15.77-49.97,26.11-3.76,2.46-7.68,4.72-10.61,8.23-23.83,28.5-47,57.51-68.87,87.57-19.07,26.21-30.32,56.14-41.87,85.98-8.62,22.3-12.26,46.02-19.89,68.59-12.83,37.97-21.37,77-29.02,116.26-3.35.04-6.7.08-10.05.12-.3-7.53,1.21-14.89,2.15-22.29,3.64-28.67,10.05-56.73,18.78-84.28,5.14-16.21,9.07-32.72,13-49.27,12.3-51.85,32.97-99.81,67.23-141.31,19.09-23.12,37.8-46.56,56.7-69.84,7.59-9.34,18.26-14.5,28.51-19.86,37.7-19.72,77.73-32.02,120.16-36.34,9.1-.93,18.19-2.17,27.19-3.75,15.69-2.75,29.62,1.65,42.78,9.7,1.25.76,2.19,1.88,3.9,1.96,9.62.49,18.83,3.23,27.21,7.57,11.57,6,23.71,10.55,35.64,15.65,13.19,5.64,25.74,12.48,38.22,19.54,21.52,12.17,31.2,31.44,34.61,54.86,3.49,23.9,7.63,47.69,12.57,71.33,2.09,9.98,3.88,19.93,3.55,30.18-.23,7.23,1.04,14.21,4.36,20.73-.39,6.16,1.26,12.14,1.6,18.23.9,16.22,3.44,32.25,5.56,48.33,1.6,12.14,3.41,24.26,4.44,36.45,1.21,14.35-1.8,28.43-4.58,42.37-3.33,16.72-7.56,33.25-11.4,49.87-4.27.02-8.53.04-12.8.06,3.76-26.47,7.07-53.02,11.45-79.39,2.48-14.94.05-29.47-1.09-44.15-.54-7.04-1.54-14.04-2.42-21.86-1.49,1.64-2.34,2.56-3.18,3.49-5.39-1.67-4.95-6.12-4.55-10.22,1.77-17.8,4.14-35.58-.41-53.34-.49-1.92-.78-3.91-.93-5.88-.92-12.26-2.7-24.27-6.12-36.2-6.54-22.79-11.87-45.88-14.06-69.64-.99-10.77-4.03-21.6-11.68-29.7-7.07-7.48-16-12.86-25.44-17.15-5.71-4.73-12.61-7.35-19.13-10.58-14.15-7-29.13-12.33-42.35-21.23-2.42-1.63-5.16-3.08-8.28-3.26-1.6-.85-3.12-1.88-4.8-2.51-2.05-.77-3.98-.09-3.99,2.26-.03,5.6-3.57,9.32-6.15,13.76-6.5,11.19-12.23,22.83-18.33,34.25-.96,1.8-.03,3.01.6,4.58,1.38,3.45,1.84,7.66-2.5,8.78-5.02,1.29-6.5,5.22-8.78,8.67-3.76,5.69-2.66,11.61.45,16.98,3.36,5.79,8.14,9.29,15.63,7.76,7.51-1.54,11.54,1.6,12.91,8.86.3,1.59,1.17,3.09,1.86,4.59,5.31,11.64,10.4,23.4,16.05,34.87,5.25,10.67-.02,24.19-12.76,28.7-9.85,3.49-20.28,3.43-30.04,6.65-8.53,2.82-15.71.2-19.77-8.34-1.44-3.04-3.69-4.55-7.39-4.87-12.19-1.06-21.92,10.28-18.57,23.06.75,2.87,1.16,5.85,1.59,8.79,1.16,8.04-1.37,13.02-8.41,17.15-2.86,1.68-5.59,3.59-8.36,5.43-1.1.73-1.85,1.55-2.26,3.03-8.22,29.41-9.78,59.76-12.92,89.89-1.24,11.86-2.93,23.67-3.32,35.64-.57,17.06-3.49,33.97-3.74,51.06-2.35.03-4.7.07-7.04.1.19-6.48.16-12.98.62-19.44,1.89-26.72,3.22-53.46,6.53-80.09,2.91-23.44,3.5-47.17,10.01-70.09.28-1,.97-2.22-.58-3.51-2.48,1.27-5.12,2.63-7.76,3.98-11.46,5.85-15.77,4.59-22.36-6.55-.68-1.15-1.28-2.34-1.9-3.52-2.31-4.33-4.62-8.67-6.91-12.96-1.24.53-1.36,1.38-1.56,2.18-4.44,17.43-8.03,35.07-13.12,52.33-2.55,8.63-4.65,17.38-6.05,26.27-5.79,36.88-7.3,74.2-11.13,111.28-3.46,0-6.92,0-10.38,0ZM495.05,1353.05c.89-1.09-.25-2.19.01-3.28-.45-1.18-.89-2.36-1.34-3.55-2.52-6.7-5.22-13.34-7.49-20.13-.94-2.81-1.74-3.47-4.84-2.63-8.73,2.35-16.52.09-22.86-6.41-10.04-10.29-15.5-27.96.9-41.58,2.32-1.93,2.64-3.27.77-5.61-7-8.76-11.79-18.91-17.68-28.37-.7-1.12-.93-3.22-3.15-2.07-9.61,5.02-19.74,8.75-29.93,12.34-3.46,1.22-4.88,3.2-4,7.15.69,3.12-.52,6.3-2.34,8.99-4.02,5.97-8.74,11.31-14.29,15.95-8.96,7.48-30.18,9.42-37.88,1.56-1.94-1.98-3.48-.95-5.2.31-7.28,5.34-15.08,9.78-23.32,13.46-2.73,1.22-5.67,2.35-7.88,4.26-2.57,2.21-6.68,4.45-4.75,8.79,3.78,8.51,7.98,16.84,13.19,24.63,1.72,2.57,3.29,3.18,6.1,1.78,6.99-3.5,14.18-2.92,21.37-.54,18.57,6.14,25.03,24.77,14.04,40.84-2.53,3.7-5.49,7.12-8.49,10.46-1.67,1.86-2.44,3.24-.47,5.42,5.21,5.77,8.45,12.67,11.4,19.8,2.92,7.08,6.42,13.91,9.54,20.91,1.51,3.39,2.97,3.82,6.25,1.54,9.01-6.27,18.02-12.71,27.72-17.75,4.73-2.46,5.01-3.67,2.6-7.83-9.51-16.41-.73-33.8,15.92-39.15,4.49-1.44,9.19-1.44,13.86-1.51,7.33-.1,13.08,3.16,16.62,9.26,2.16,3.72,3.74,4.57,7.51,2.36,2.82-1.66,6.17-2.44,9.32-3.5,8.72-2.94,17.28-6.48,26.81-7.1-1.27-3.61-2.2-6.64-3.41-9.55-1.33-3.2-1.36-7.09-4.68-9.29l.07.06ZM430.45,1233.09c2.19-.46,3.14-.69,4.1-.85,12.62-2.13,12.72-2.21,20.67,7.98,3.68,4.72,6.92,9.78,10.24,14.77,2.08,3.13,3.52,3.39,5.19-.39,5.47-12.35,12.33-23.99,18.71-35.88,2.75-5.11,1.09-9.2-4.67-10.71-3.86-1.01-7.85-1.51-11.71-2.5-2.44-.63-3.65.23-4.71,2.33-2.68,5.37-5.63,10.6-8.27,15.98-1.34,2.73-3.16,4.55-6.15,5.26-.9.21-1.76,1.31-2.62.21-.77-.98.09-1.91.56-2.72,2.58-4.46,5.32-8.83,7.84-13.32,5.7-10.19,5.66-10.25-6.08-12.01-2.23-.33-4.64-.98-6.17,1.76-5.42,9.73-10.91,19.42-16.92,30.09Z"/><path class="cls-12" d="M316.63,1383.88c.75,4.5-2.2,7.89-3.85,11.52-2.69,5.93-4.84,11.72-5.52,18.38-1.2,11.78-4.37,23.32-8.8,34.29-17.87,44.33-30.75,90.13-41.46,136.62-2.43,10.53-6.03,20.8-9.09,31.18-29.39.03-58.78.07-88.17.1,1.43-10.52,5.88-20.05,10.02-29.61,6.9-15.9,15.67-30.86,24.23-45.9,2.11-3.7,3.23-7.99,6.41-11.06,2.51-3.11,5.43-6.02,5.48-10.43l.05-.06c.88-.37,1.02-1.14,1.05-1.97,2.97-2.43,5.8-4.99,8.05-8.14,14.6-20.39,31.19-39.22,46.62-58.97,14.41-18.44,29.42-36.41,44.45-54.35,3.33-3.98,5.29-9.31,10.5-11.63Z"/><path class="cls-10" d="M323.69,1615.82c3.83-37.08,5.33-74.39,11.13-111.28,1.4-8.89,3.5-17.64,6.05-26.27,5.09-17.26,8.68-34.91,13.12-52.33.2-.8.32-1.65,1.56-2.18,2.29,4.29,4.6,8.62,6.91,12.96.63,1.18,1.23,2.37,1.9,3.52,6.6,11.14,10.9,12.39,22.36,6.55,2.64-1.35,5.28-2.71,7.76-3.98,1.55,1.29.86,2.51.58,3.51-6.52,22.92-7.1,46.65-10.01,70.09-3.31,26.63-4.64,53.38-6.53,80.09-.46,6.46-.42,12.96-.62,19.44-10.69-.03-21.37-.05-32.05-.08,2.01-7.56,2.56-15.31,2.59-23.08,0-2.22-.31-5.04-3.71-4.69-2.96.3-3.53,2.64-3.5,5.13.03,2.65.31,5.3.24,7.94-.14,4.9,1.6,9.85-.31,14.71-5.82-.01-11.65-.03-17.47-.04ZM352.79,1505.44c0,1-.12,2.01.03,2.99.22,1.51-1.33,3.83.89,4.37,2.38.58,3.32-1.72,3.96-3.64,1.71-5.09,2.35-10.38,2.48-15.71.04-1.55.08-3.76-1.92-4.11-1.8-.32-2.94,1.36-3.65,2.91-1.94,4.2-2.12,8.68-1.79,13.2ZM354.1,1546.62c-.9-2.27.5-6.55-2.87-6.79-4.45-.32-3.73,4.17-3.92,7.13-.25,3.94-.04,7.9-.23,11.84-.05,1.14-.81,2.39.69,2.93,1.31.47,2.21-.62,2.79-1.58,2.49-4.07,2.69-8.75,3.54-13.53ZM365.88,1457.28c-.35-1.52.63-3.83-2.08-4.25-1.99-.31-3.06,1-3.71,2.64-.36.91-.64,1.91-.71,2.88-.35,4.95.58,9.95-.5,14.89-.14.65-.05,1.42.77,1.6.73.17,1.34-.28,1.51-.96,1.42-5.61,4.47-10.76,4.74-16.81Z"/><path class="cls-12" d="M604.44,1465.57c4.07,4.77,4.01,10.74,4.51,16.44,1.07,12.25-2.09,24.15-3.47,36.2-1.53,13.36-1.97,26.76-2.41,40.16.4.19.81.38,1.21.57,3.55-4.84,7.25-9.57,10.61-14.54,9.18-13.56,17.88-27.36,19.97-44.15.22-1.74.23-4.16,2.7-4.09,2.57.07,2.84,2.53,3.06,4.48.8,6.96,1.05,13.99.22,20.93-1.22,10.2-1.98,20.48-4.66,30.46-4.07-2.09-6.8-1.03-8.81,3.17-7.92,16.47-16.11,32.82-23.93,49.34-1.66,3.52-3.77,7.11-3.41,11.33-17.36-.02-34.73-.05-52.09-.07.11-14.99,2.88-29.69,4.89-44.48,4.94-36.39,13.96-71.66,28.03-105.62,1.08-2.59,1.88-4.78,5.39-4.8,3.57-.03,6.08.86,7.53,4.37.85,2.05,1.08,4.14,1.45,6.26.44,2.48,1.4,5.28,4.46,5.17,3.25-.12,4.21-2.73,4.29-5.7.05-1.81.3-3.62.46-5.43Z"/><path class="cls-12" d="M671.18,1446.95c4.6,5.05,7.89,11.02,11.47,16.75,10.11,16.17,23.23,30.22,31.74,47.62,5.47,11.19,11.9,21.89,15.47,33.92,5.66,19.12,12.9,37.78,16.75,57.42.86,4.38,2.13,8.73,1.58,13.29-26.08-.06-52.17-.12-78.25-.18-.06-2.34.13-4.61.85-6.88,5.99-18.88,7.09-38.48,6.96-58-.12-17.17-2.17-34.33-3.35-51.49-1.1-16.04-3.15-31.95-4.33-47.95-.11-1.53-.75-3.39,1.12-4.51Z"/><path class="cls-7" d="M384.95,1615.83c.25-17.1,3.17-34.01,3.74-51.06.4-11.97,2.09-23.77,3.32-35.64,3.14-30.13,4.7-60.48,12.92-89.89.41-1.48,1.16-2.3,2.26-3.03,2.77-1.84,5.5-3.75,8.36-5.43,7.03-4.13,9.56-9.11,8.41-17.15-.42-2.95-.83-5.92-1.59-8.79-3.35-12.78,6.37-24.12,18.57-23.06,3.7.32,5.95,1.83,7.39,4.87,4.06,8.54,11.23,11.16,19.77,8.34,9.77-3.23,20.19-3.16,30.04-6.65,12.74-4.51,18.01-18.03,12.76-28.7-5.65-11.48-10.73-23.23-16.05-34.87-.69-1.5-1.56-3-1.86-4.59-1.38-7.27-5.41-10.4-12.91-8.86-7.49,1.53-12.27-1.97-15.63-7.76-3.11-5.37-4.21-11.29-.45-16.98,2.28-3.45,3.76-7.38,8.78-8.67,4.34-1.12,3.88-5.33,2.5-8.78-.63-1.58-1.56-2.78-.6-4.58,6.1-11.43,11.83-23.06,18.33-34.25,2.58-4.44,6.12-8.16,6.15-13.76.01-2.34,1.94-3.03,3.99-2.26,1.68.63,3.21,1.66,4.8,2.51-3.17,7.54-7.17,14.67-11.48,21.56-5.32,8.51-9.41,17.62-13.88,26.54-1.32,2.64-1.11,4.91.49,7.47,5.01,8,3.06,13.13-6.02,16.32-1.77.62-3.49,1.27-4.63,2.78-1.92,2.54-4.19,5.45-3.22,8.57.98,3.14,4.75,2.42,7.4,2.8,4.44.63,8.93.97,13.41,1.28,5.74.4,9.42,3.59,12.21,8.33,10.74,18.28,14.66,38.84,19.44,59.03,2.39,10.07-.54,13.69-10.65,15.91-12.42,2.73-22.82,9.97-34.28,14.83-5.96,2.53-11.35,3.53-17.19.71-2.21-1.07-4.32-1.54-6.69-.5-2.35,1.03-4.59.05-6.75-.8-3.56-1.4-7.09-2.9-10.64-4.32-1.95-.78-2.99-.3-2.33,1.96,5.8,19.69-6.68,31.5-18.89,43.26-2.09,2.01-3.26,4.14-3.9,6.7-3.2,12.78-5.12,25.78-6.49,38.86-1.86,17.73-1.57,35.56-2.04,53.36-.61,23.51-4.19,46.68-7.59,69.88-.22,1.48-.45,2.96-.67,4.44-2.88.03-5.75.05-8.63.08Z"/><path class="cls-11" d="M671.18,1446.95c-1.87,1.13-1.23,2.98-1.12,4.51,1.18,16,3.23,31.92,4.33,47.95,1.18,17.15,3.23,34.32,3.35,51.49.13,19.52-.96,39.12-6.96,58-.72,2.27-.91,4.54-.85,6.88-2.62,0-5.25.02-7.87.02.11-.82.14-1.66.34-2.46,5.48-21.49,8.11-43.28,7.74-65.49-.2-12.29-2.43-24.43-2.14-36.75.2-8.62-.6-17.27-1.3-25.83-1.46-17.95-4.47-35.79-3.3-53.9-1.02-7.28-1.57-14.6-1.77-21.94,2.35-7.93,1.75-16.22,1.94-24.25.18-7.64-1.79-15.45-3.21-23.07-3.96-21.19-8.06-42.36-14.02-63.15-2.47-8.62-3.82-17.53-8.52-25.35-2.92-4.86-6.48-9.13-11.75-11.64-8.62-14.35-22.42-21.71-36.86-29.01-19.36-9.78-39.33-18.69-56.56-32.29-.91-.72-1.89-1.37-2.74-2.15-1.09-.99-2.53-2.08-1.28-3.73,1.05-1.38,2.42-.52,3.59.07,4.6,2.31,9.16,4.7,13.79,6.95,1.24.6,2.27,2.1,3.99,1.26,0,0-.08-.1-.08-.1-.28.98.64,1.09,1.11,1.52,1.56,1.99,4.08,2.2,6.17,2.98,12.23,4.59,22.85,12.29,34.6,17.68,15.76,7.23,28.96,17.39,39.91,30.76,4.36,5.33,9.38,10.12,14.11,15.16,2.34,3.71,3.84,7.79,5.27,11.91-1.88,1.69-.16,3.43.15,4.97,3.41,17.38,9.34,34.14,12.22,51.68,3.02,18.37,8.05,36.45,6.54,55.34-.11,1.39-.54,3.06,1.12,4.04-1.86,6.34-2.55,12.74-2.01,19.38.54,6.75.55,13.55.61,20.33.03,2.86.26,5.6,1.46,8.22Z"/><path class="cls-11" d="M604.44,1465.57c-.16,1.81-.41,3.62-.46,5.43-.08,2.98-1.04,5.59-4.29,5.7-3.06.11-4.03-2.69-4.46-5.17-.37-2.13-.6-4.21-1.45-6.26-1.45-3.51-3.96-4.4-7.53-4.37-3.51.03-4.31,2.21-5.39,4.8-14.07,33.96-23.09,69.23-28.03,105.62-2.01,14.79-4.78,29.48-4.89,44.48-4.63.03-9.27.06-13.9.1-.18-47.53,3.9-94.39,21.96-139.02,3-7.4,6.63-14.52,10.5-21.52,4.26-7.71,10.85-9.75,19.03-8.33,8.09,1.41,15.25,3.96,17.21,13.33.37,1.77,1.13,3.47,1.7,5.2Z"/><path class="cls-7" d="M474.28,1615.81c1.33-25.6,6.83-50.42,14.45-74.78,6.85-21.93,15.1-43.38,23.46-64.78,4.45-11.38,12.05-20.63,19.56-29.96,1.99-2.46,11.34-4.34,14.14-3.17,2.4,1.01,2.59,3.08,1.79,5.01-1.2,2.91-2.53,5.85-4.32,8.42-17,24.42-26.34,52.11-34.73,80.27-7.7,25.83-11.48,52.24-12.67,79.08-7.23-.03-14.46-.06-21.69-.09Z"/><path class="cls-8" d="M102.35,1615.79c4.73-18.18,7.28-36.82,12.28-55,3.32-12.05,3.97-24.95,4.54-37.6.42-9.4,2.1-18.49,5.43-27.29,5.78-15.29,9.38-31.24,13.94-46.89,8.11-27.86,16.66-55.43,30.25-81.31,8.11-15.45,13.95-32.15,24.72-46.13,26.96-35,54.49-69.49,89.47-97.1,1.59-1.26,3.54-4.5,5.64-2.29,1.53,1.61-1.28,3.86-2.66,5.3-9.34,9.74-18.7,19.45-28.32,28.91-20.97,20.63-39.84,43.08-56.46,67.27-21.17,30.8-36.63,64.59-47.9,100.13-8.95,28.24-16.92,56.8-24.78,85.37-3.94,14.32-3.77,29.35-5.51,44.05-.81,6.83-2.02,13.51-3.88,20.06-3.97,13.99-4.01,28.7-8.13,42.64-2.88-.04-5.75-.08-8.63-.11Z"/><path class="cls-2" d="M744.05,1451.91c4.04,8.51,7.83,17.15,12.17,25.5,6.79,13.07,10.07,27.4,15.28,41.04,8.52,22.31,16.71,44.76,21.78,68.18,2.1,9.69,4.74,19.28,5.67,29.2-3.6.01-7.19.02-10.79.03-7.77-32.97-19.2-64.72-30.45-96.64-10.34-29.34-23.55-57.24-36.5-85.35-2.09-4.53-4.54-8.9-7.01-13.24-2.83-4.98-6.73-8.67-12.74-9.45-2.15-.28-4.06-1.13-4.02-3.6.03-2.56,2.05-3.83,4.22-4.28,5.62-1.17,10.91-.42,15.56,3.32,4.23,3.4,7.39,7.65,10.07,12.3,5.31,9.2,10.01,18.69,13.81,28.61.65,1.69,1.45,3.25,2.94,4.37Z"/><path class="cls-9" d="M663.39,1431.38c-1.17,18.11,1.84,35.95,3.3,53.9.7,8.55,1.5,17.21,1.3,25.83-.29,12.32,1.94,24.46,2.14,36.75.37,22.21-2.26,44-7.74,65.49-.2.8-.23,1.64-.34,2.46-4.37,0-8.74,0-13.12,0,3.84-16.61,8.07-33.15,11.4-49.87,2.78-13.95,5.79-28.03,4.58-42.37-1.03-12.19-2.84-24.32-4.44-36.45-2.12-16.08-4.66-32.11-5.56-48.33-.34-6.09-1.98-12.07-1.6-18.23,4.19,1.55,5.47,5.68,7.82,8.85.64.86.65,2.26,2.25,1.97Z"/><path class="cls-11" d="M600.03,1615.87c-.35-4.22,1.75-7.81,3.41-11.33,7.82-16.52,16.01-32.87,23.93-49.34,2.01-4.19,4.74-5.26,8.81-3.17,2.19,4.58,2.16,9.24,1.02,14.13-3.34,14.41-9.03,27.85-16.3,40.67-1.64,2.88-3.02,5.91-4.53,8.87-5.45.06-10.89.11-16.34.17Z"/><path class="cls-9" d="M905.96,1615.86c-.75-9.69-4.28-18.74-6.64-28.05-4.91-19.32-6.47-39.2-10.69-58.62l1.29-.42c1.72,4.44,3.46,8.87,5.17,13.31,8.89,23.11,19.03,45.76,25.41,69.78.34,1.27.39,2.61.58,3.91-5.04.03-10.08.06-15.12.09Z"/><path class="cls-8" d="M341.16,1615.87c1.91-4.86.17-9.81.31-14.71.07-2.64-.2-5.29-.24-7.94-.03-2.49.54-4.83,3.5-5.13,3.41-.35,3.72,2.48,3.71,4.69-.03,7.77-.58,15.51-2.59,23.08-1.57,0-3.13,0-4.7,0Z"/><path class="cls-4" d="M667.86,1025.44c-1.65-.64-1.61-2.3-2.22-3.6-3.1-6.65-7.76-11.46-15.27-13.01-9.18-1.89-16.21,3.42-16.39,12.89-.15,7.76,1.63,15.13,5.66,21.89,6.36,10.69,12.64,21.43,18.99,32.13.63,1.06,1.02,2.06.65,3.26-3.13,1.75-2.67,4.9-3.08,7.74-.61,4.17,1.15,8.38-.28,12.53-9.72-14.73-18.33-30.17-28.97-44.33-11.21-14.91-21.83-30.27-32.55-45.55-22.69-32.35-46.34-63.97-71.69-94.28-7.47-8.93-15.56-17.5-26.45-22.51-3.67-1.69-6.79-3.23-8.59-7.41-1.77-4.12-6.78-4.7-9-1.81-3.52,4.57-1.11,15.09,4.31,16.66,10.75,3.11,18.65,10.05,25.97,17.93,17.05,18.36,31.44,38.84,46.78,58.57,9.09,11.69,18.52,23.19,25.52,36.37,1.08,5.35,4.36,9.66,7.04,14.16,14.96,25.16,26.35,52.27,42.07,77.02,2.32,3.66,5.18,7.27,5.69,11.88l-.02.03c-2.01.07-3.3-1.42-4.88-2.27-10.38-5.57-20.32-11.94-31.13-16.7-2.44-1.68-5.17-3.06-7.29-5.09-10.08-9.67-21.16-18.18-31.55-27.48-6.53-5.85-13.88-10.3-21.98-13.6-11.28-4.6-22.98-7.85-34.82-10.62-3.75-.88-7.63-.59-11.45-.25-2.37.22-4.28,1.42-4.19,4.06.1,2.83,2.29,3.49,4.64,3.3,2.2-.18,4.3,0,6.42.54,7.44,1.9,14.42,5.1,21.65,7.61,22.78,7.94,40.57,22.84,56.48,40.37-1.12.87-1.91.32-3.01-.33-9.13-5.46-18.25-10.91-27.52-16.11-5.68-3.19-12.07-3.82-18.47-4.13-6.88-3.31-13.71-6.75-20.67-9.9-6.81-3.08-14.99-2.59-19.97-10.41-2.51-3.93-8.73-5.04-13.86-6.18-17.53-3.91-33.51-11.78-49.6-19.42-7.5-3.56-15.55-5.9-22.73-10.21-3.14-1.88-6.45-3.5-9.49-5.52-3.08-2.03-5.15-4.42-1.31-7.88,2.28-2.05,2.23-5.07,2.47-7.9,2-23.36-1.2-46.21-6.74-68.83-9.62-39.33-18.69-78.77-25.22-118.76-1.34-8.19-2.52-16.46-8.84-22.91-2.34-2.39-5.2-3.65-7.95-4.96-3.56-1.69-5.23-4.26-6.28-7.78-3.18-10.65-2.85-21.78-4.67-32.6-4.4-26.17-2.12-52.17,1.24-78.16,1.73-13.4.41-26.62-1.71-39.81-3.37-20.92-3.88-42.13-6.64-63.09-3.59-27.27,4.7-52.5,12.45-77.8,8.54-27.87,19.62-54.92,27.58-82.99.3-1.06.43-2.32,2.36-3.25-.84,5.25-.81,10.13-.14,14.99.28,2.02.51,4.13,2.23,5.38,2.08,1.51,5.25,2.16,5.33-1.17.23-9.74,3.57-18.89,4.32-28.58,1.53-19.85-.4-39.7.75-59.43,1.33-22.89-2.96-45.14-4.86-67.66-.42-4.93.42-8.94,3.19-13.08,5.46-8.17,10.55-16.59,14.96-25.4.91-1.81,2.06-3.42,3.7-4.65,11.92-8.9,24.42-16.59,38.55-21.74,20.96-7.64,41.88-15.21,63.9-19.39,14.32-2.72,27.43.91,40.16,6.59,10.63,4.74,20.87,10.35,31.69,14.74,4.39,1.78,8.81,3.26,13.51,3.22,32.42-.23,64.39,5.31,96.62,7.44,25.12,1.66,50.2,3.47,75.04,7.71,10.69,1.82,21.28,4.36,31.32,8.34,12.47,4.95,22.1,14.25,31.42,23.49,16.46,16.32,30.97,34.44,45.78,52.24,21.61,25.97,45.6,49.48,71.44,71.17,2.79,2.34,5.56,4.75,7.66,7.79-10.05-1.02-18.19-6.03-25.69-12.34-9.82-8.25-19.66-16.48-29.42-24.8-4.53-3.86-9.75-6.42-15.31-8.22-9.16-2.96-14.95,2.27-13.07,11.58.7,3.46,1.92,6.73,3.42,9.9,2.88,6.1,4.56,12.51,5.26,19.19.8,7.58,3.12,14.59,7,21.17,2.88,4.87,5.43,9.94,7.92,15.02.95,1.94,1.53,3.91-2.28,3.31-4.57-.72-6.09,1.45-4.48,5.84.95,2.58,2.07,5.1,3.27,8.02-2.88-.34-4.07-2.08-5.6-3.23-5.97-4.52-11.67-9.46-18.56-12.6-2.63-1.2-5.62-1.93-8,.23-2.62,2.37-1.2,5.22-.01,7.83,3.96,8.68,9.25,16.57,14.44,24.53,11.75,18.03,20.12,37.52,24.79,58.55,1.5,6.77.17,8.39-6.52,10.32-3.54,1.02-5.6-.5-7.89-2.68-25.75-24.55-53.79-46.21-83.55-65.68-6.6-4.32-13.51-7.9-21.25-9.67-13.89-3.18-28.15-2.7-42.22-4.02-6.68-.63-9.56,3.85-7.89,10.45,1.1,4.35,2.07,8.74,3.15,13.11,3.82,15.56,7.85,31.04,17.05,44.55,3.96,5.82,6.71,12.28,9.23,18.81.81,2.1,2.85,4.82,1.43,6.47-1.78,2.08-4.64-.05-6.96-.64-9.84-2.51-14.42,1.75-12.29,11.85,2.03,9.63,4.37,19.36,8.94,28.02,6.15,11.65,8.32,24.14,10.31,36.81.7,4.41-5.49,13.82-10.12,15.35-.71-2.04-1.27-4.14-2.14-6.11-8.66-19.64-17.37-39.26-26.08-58.88-2.17-4.89-5.09-9.35-8.26-13.64-13.47-18.28-31.26-31.61-50.18-43.62-1.71-1.09-3.83-2.27-5.26,0-1.63,2.6.74,3.86,2.52,5.06,25.95,17.4,46.53,39.15,56.49,69.54-3.23-.5-4.98-3.17-7.23-5.04-11.64-9.69-23.23-19.44-35.79-27.94-4.41-2.98-8.97-5.79-14.26-7-5.07-1.15-8.19,1.38-7.96,6.57.08,1.8.44,3.65,1.01,5.37,5.42,16.43,10.94,32.83,16.36,49.26,2.97,9,6.07,17.99,7.4,27.43,2.52,17.87-9.4,27.5-26.27,21.23-2.49-.92-4.88-2.12-7.31-3.18-1.06-.46-2.13-.92-3.21-1.36-1.51-.62-2.98-.58-4.15.64-1.17,1.21-1.14,2.75-.6,4.21.4,1.08,1.05,2.07,1.66,3.06,11.5,18.64,28.6,30.86,47.53,40.73,8.01,4.18,14.12,1.35,17.75-6.91,1.61-3.65,2.69-7.56,5.07-10.82.99-1.36,1.29-3.65,3.78-3.39-.13,2.16,1.62,2.35,3.03,2.89-2.58,8.24-4.91,16.49-6.3,25.07-1.89,11.66-2.31,23.47-4.2,35.12-.65,3.98-2.02,5.48-6.28,3.92-6.54-2.38-13.31-4.15-19.94-6.31-7.87-2.56-15.53-3.79-22.6,3.4-.7-2.92-1.06-5.19-1.8-7.33-1.81-5.25-2.16-11.11-6.29-15.41-1.83-2.55-2.71-5.52-3.89-8.38-2.03-4.9-4.06-9.92-6.92-14.36-11.8-18.33-24.18-36.27-38.24-52.98-5.25-6.24-10.79-12.23-17.58-16.89-5.81-3.99-12.13-6.09-19.27-5.32-2.67.29-4.95,1.13-5.76,3.93-.88,3.07.56,5.11,3.32,6.38-1.15,12.72.13,25.28,2.62,37.73.71,3.54-.26,4.35-3.68,4.06-5.7-.47-11.3.22-16.54,2.82-6.56,3.25-9.72,8.73-8.71,15.31.84,5.51,4.65,7.91,12.38,9.45,15.13,3.02,26.78,12.55,32.2,25.95,14.82,36.69,21.07,75.55,24.66,114.84,1.28,14.08,2.4,28.19,7.53,41.63,2.68,7.01,6.85,12.93,11.71,18.43,3.1,3.5,7.42,4.11,11.47,2.35,4.29-1.87,3.38-5.94,2.71-9.63-.36-1.96-.67-3.94-.96-5.91-1.54-10.42.07-12.55,10.6-14.06.66-.09,1.31-.23,1.97-.35,10.83-1.82,13.6-4.82,14.98-15.85.2-1.58-.83-3.89,1.83-4.57,4.84,19.18,6.77,39.17,16,57.11-4.16.12-6.82-3.15-10.32-4.58-13.36-5.45-22.98.62-22.61,14.93.35,13.43,5.22,25.66,11.53,37.33,2.83,5.25,6.42,10.11,7.86,16.03-26.15-20.17-50.67-42.15-73.4-66.1-18.16-19.13-30.69-41.96-40.86-65.96-16.18-38.2-31.83-76.62-49.7-114.08-.94-1.97-1.31-6.02-4.63-4.45-2.94,1.39-.24,4.15.61,6.03,14.43,31.89,27.44,64.34,39.36,97.26,13.99,38.64,29.36,76.16,60.84,105.24,21.69,20.04,44.17,39.01,67.17,57.39,13.91,11.12,28.38,21.27,33.52,39.59.01.64-.1,1.32.06,1.93,1.52,5.9,1.53,6.07-4.4,5.85-6.26-.23-12.27-.02-17.08,4.76ZM372.09,453.21c2.42.18,4.13-1.17,5.73-2.66,3.07-2.87,5.41-6.32,7.63-9.85,14.93-23.79,27.02-49.05,36.79-75.29,6.08-16.34,12.13-33.05,13.34-50.58.94-13.63,7.23-23.54,16.65-32.29,8.98-8.34,19.36-14.62,30.12-20.36,5.58-2.98,10.99-6.26,16.47-9.42,1.53-.88,2.88-2.09,2.13-4-.87-2.24-2.82-1.9-4.68-1.39-18.73,5.15-36.62,12.46-53.05,22.73-15.13,9.46-24.96,22.81-25.49,41.59-.14,4.99-1.23,9.9-2.29,14.79-8.97,41.38-25.86,79.72-44.91,117.23-.75,1.48-1.73,2.91-2.14,4.49-.8,3.03.48,4.82,3.69,5ZM366.79,662.14c.47-8.78-.4-17.56-.43-26.35-.01-2.67-1.4-2.31-2.85-1.59-1.8.89-2.27,2.82-2.69,4.59-1.74,7.3-2.97,14.69-3.56,22.17-1.91,24.54.89,48.6,8.14,72.05,5.57,18,13.62,34.33,28.81,46.89,20.68,17.1,39.57,36.18,56.26,57.31,1.72,2.18,3.51,6.2,6.95,3.39,3.32-2.71-.15-5.43-1.78-7.67-15.29-21.07-32-40.98-50.54-59.24-13.6-13.4-21.34-30.13-27.9-47.38-7.81-20.54-11.82-41.98-10.42-64.17ZM709.44,264.15c1.17,0,2.33,0,3.5,0,2.58,0,5.38.02,5.72-3.35.34-3.34-2.54-3.94-4.94-4.57-4.67-1.22-9.49-1.95-14.05-3.47-12.14-4.04-25.2-4.55-37.03-9.75-13.92-6.13-26.63-14.66-42-17.99-16.85-3.66-32.86-10.77-49.86-14.23-3.85-.78-9.04-3.41-10.69,2.27-1.6,5.48,4.09,6.54,7.72,8,11.27,4.53,22.78,8.45,33.98,13.12,10.92,4.55,23.09,6.16,33.25,11.94,23.24,13.22,48.35,17.17,74.39,18.03ZM339.46,555.2c.41,2.63.56,5.33,1.28,7.86,1.62,5.71,6.83,7.05,11.21,3.11,11.19-10.08,20.87-21.41,28.98-34.14,23.26-36.51,35.06-77.48,46.45-118.62.4-1.46.75-3.25-.96-3.97-2.15-.91-2.92.99-3.52,2.52-3.15,8.06-6.36,16.11-9.33,24.24-9.94,27.24-20.42,54.27-34.51,79.68-7.19,12.96-15.26,25.43-26.38,35.53-.97.88-2.04,2.76-3.69,1.5-1.25-.95-.37-2.45.15-3.68.69-1.67.82-3.31-.86-4.46-1.88-1.28-3.53-.33-4.96.92-2.85,2.5-3.76,5.79-3.85,9.48ZM534.67,487.13c-14.03.97-26.76,5.41-36.56,16.43-1.92,2.16-3.2,4.66-1.19,7.16,2.1,2.62,4.8,1.57,7.15-.03,1.65-1.12,3.15-2.46,4.78-3.62,7.55-5.36,15.93-8.17,25.23-8.04,2.55.04,5.32.28,6.85,2.4,2.87,3.98,6.81,4.78,11.05,4.07,4.96-.82,8.07,1.22,11.01,4.91,10.48,13.17,20.04,27,29.6,40.84,5.24,7.59,11.13,14.53,18.26,20.4,1.4,1.15,3.03,2.77,4.77,1.01,1.78-1.8.07-3.34-1.18-4.66-6.44-6.81-11.63-14.53-16.73-22.36-9.89-15.21-19.32-30.73-30.53-45.05-2.69-3.44-5.55-6.04-10.46-5.35-2.03.28-4.31-.16-5.93-1.99-4.21-4.77-9.91-5.74-16.11-6.12ZM396.82,846.92c-2.92-.11-4.21,2.62-2.73,6.39,2.86,7.29,8,13,13.35,18.53,13.8,14.24,28.86,27.22,41.95,42.16,17.96,20.5,32.78,43.28,47.85,65.87,4.45,6.67,9.38,12.95,14.81,18.85.99,1.07,2.18,2.56,3.76,1.21,1.59-1.35.34-2.7-.62-3.87-6.16-7.49-11.03-15.85-16.08-24.09-21.81-35.64-45.63-69.7-76.64-98.18-8.21-7.54-16.27-15.32-22.49-24.72-.75-1.14-1.63-2.13-3.16-2.14ZM510.47,650.67c-11.95.2-20.72,5.62-27.43,14.53-2.05,2.73-2.82,6.46.69,8.89,3.56,2.46,5.6-.36,7.77-2.87,7.58-8.72,15.94-15.81,28.8-12.29.63.17,1.32.14,1.98.16,2.13.07,4.24-.23,4.59-2.75.38-2.75-1.66-3.86-3.95-4.19-4.27-.62-8.57-1.03-12.46-1.48ZM565.62,462.94c-.1-1.93-1.39-2.58-2.84-3.15-6.8-2.68-13.23-6.13-19.59-9.7-5.29-2.97-11.2-4.05-17.01-5.35-2.6-.58-5.2,0-6.02,2.91-.86,3.06,1.23,4.55,3.85,5.35,1.11.34,2.25.64,3.4.75,7.2.67,13.84,3.18,20.44,5.96,4.27,1.8,8.66,3.33,13.04,4.86,1.95.69,3.97,1.01,4.75-1.64ZM602.32,982.6c0,.74-.15,2.09.03,3.39.4,2.93,1.84,5.16,5.1,4.99,3.31-.18,4.42-2.59,4.37-5.56-.03-1.81-.19-3.66-.58-5.42-.75-3.36-.5-6.15,2.86-8.14,1.75-1.04,3.32-2.8,1.65-4.92-1.57-1.99-3.49-.8-5.38.03-6.65,2.94-8.42,8.41-8.04,15.63Z"/><path class="cls-5" d="M667.86,1025.44c4.81-4.78,10.83-4.98,17.08-4.76,5.93.21,5.92.05,4.4-5.85-.16-.61-.05-1.28-.06-1.93,2.51.42,2.7,2.8,3.47,4.46,9.28,20.09,18.63,40.15,28.93,59.73,2.62,4.99,5.62,9.8,8.68,14.54,1.5,2.32,3.92,3.24,6.52,1.72,2.22-1.3,2.43-3.39,1.43-5.67-.87-1.98-1.57-4.03-2.53-5.96-10.21-20.74-19.37-41.94-28.23-63.28-5.87-14.12-11.75-28.26-22.98-39.28-8.48-8.31-18.53-14.49-28.2-21.21-1.45-5.92-5.03-10.78-7.86-16.03-6.31-11.67-11.18-23.9-11.53-37.33-.37-14.32,9.25-20.38,22.61-14.93,3.5,1.43,6.16,4.7,10.32,4.58,1.59,3.25,2.97,6.64,4.82,9.73,5.05,8.41,10.29,16.7,16.08,24.64,11.56,15.87,23.17,31.68,37.51,45.24,1.58,1.49,3.07,2.96,5.33,3.52,2.78.69,4.61-.6,5.81-2.71,1.23-2.15.04-3.68-1.89-4.94-1.23-.8-2.33-1.92-3.2-3.11-9.26-12.79-18.67-25.47-27.6-38.48-9.22-13.43-18.4-26.91-24.82-42.03-4.39-10.35-6.13-21.27-8.37-32.19-9.53-46.51-18.79-93.1-33.15-138.47-1.31-4.13-3.95-8.15-2.93-12.88,4.13,4.3,4.48,10.16,6.29,15.41.74,2.14,1.1,4.42,1.8,7.33,7.07-7.19,14.73-5.95,22.6-3.4,6.63,2.16,13.4,3.93,19.94,6.31,4.26,1.55,5.63.06,6.28-3.92,1.89-11.65,2.31-23.46,4.2-35.12,1.39-8.58,3.72-16.84,6.3-25.07,6.08-.09,7.99-5.4,10.95-9.11,7.1-8.9,12.46-19.3,21.45-26.54,4.54-3.65,5.65-7.35,3.73-12.45,4.62-1.53,10.81-10.94,10.12-15.35-2-12.67-4.16-25.16-10.31-36.81-4.58-8.67-6.91-18.39-8.94-28.02-2.13-10.1,2.45-14.36,12.29-11.85,2.32.59,5.18,2.71,6.96.64,1.41-1.65-.62-4.37-1.43-6.47-2.52-6.53-5.27-12.99-9.23-18.81-9.2-13.52-13.23-28.99-17.05-44.55-1.07-4.36-2.04-8.75-3.15-13.11-1.67-6.6,1.21-11.07,7.89-10.45,14.07,1.32,28.33.84,42.22,4.02,7.75,1.77,14.65,5.36,21.25,9.67,29.76,19.47,57.8,41.12,83.55,65.68,2.29,2.18,4.35,3.7,7.89,2.68,6.69-1.93,8.03-3.55,6.52-10.32-4.68-21.03-13.04-40.52-24.79-58.55-5.19-7.96-10.48-15.85-14.44-24.53-1.19-2.61-2.61-5.46.01-7.83,2.38-2.16,5.37-1.42,8-.23,6.89,3.14,12.59,8.08,18.56,12.6,1.53,1.16,2.72,2.89,5.6,3.23-1.2-2.93-2.32-5.44-3.27-8.02-1.61-4.38-.1-6.55,4.48-5.84,3.81.6,3.23-1.37,2.28-3.31-2.49-5.08-5.04-10.15-7.92-15.02-3.89-6.58-6.2-13.59-7-21.17-.7-6.67-2.38-13.09-5.26-19.19-1.5-3.17-2.72-6.44-3.42-9.9-1.88-9.31,3.9-14.54,13.07-11.58,5.56,1.8,10.78,4.36,15.31,8.22,9.76,8.32,19.6,16.55,29.42,24.8,7.51,6.31,15.64,11.33,25.69,12.34,13.18,11.14,29.94,15.53,44.75,23.59,8.15,4.44,16.52,8.5,24.59,13.1,3.66,2.09,5.77,5.32,7.85,8.77,6.96,11.55,16.18,21.46,23.69,32.61,6.24,9.27,9.85,19.47,11.31,30.5.54,4.07,3.09,7.31,4.72,10.93,1.08,2.4,2.77,4.61,2.23,7.5l-.06.06c-13.59-4.86-27.51-2.79-41.42-2.23-15.46.63-30.55,4.06-45.91,5.54-10.67,1.03-21.12,4.9-30.46,10.38-15.5,9.08-30.04,19.66-43.98,30.98-6.08,4.94-10.16,11.83-15.04,17.9-13.96,17.35-27.32,35.18-39.11,54.1-4.57,7.33-8.54,15.09-11.37,23.29-1.39,4.03-4.52,6.54-6.93,9.61-14.69,18.69-29.33,37.39-40.65,58.42-4.83,8.96-6.35,18.86-7.86,28.67-1.47,9.5-1.89,19.12-2.39,28.76-1.21,23.34,2.95,45.9,7.52,68.59,3.72,18.47,4.6,37.49,1.3,56.01-1.74,9.74-5.69,19.35-8.43,29.08-1.95,6.91-3.9,13.47-1.83,21.34,1.5,5.7-1.51,12.62-2.66,18.97-1.09,6.03-2.45,12.02-3.52,18.05-1.29,7.25.58,13.76,4.69,19.84,8.35,12.33,7.06,25.54,2.06,38.39-4.11,10.56-7.68,21.25-10.58,32.16-1.48,5.57.52,11.24.98,16.83.36,4.33.65,8.45-.12,12.81-1.2,6.83,1.22,13.49,2.26,20.18,1.5,9.68,3.8,19.18,7.07,28.46,2.59,7.37-.12,14.76-.87,22.1-.96,9.38-2.62,18.7-3.63,28.08-.45,4.19-3.2,7.22-5,12.9-2.3-2.94-3.82-5.31-5.75-7.26-4.79-4.84-9.42-9.86-15.3-13.51-1.46-.91-2.46-2.66-3.49-4.15-10.01-14.54-18.48-30-27.04-45.4-14.24-25.61-30.74-49.78-47.29-73.9-7.93-11.55-13.51-24.44-21.18-36.13-2.56-3.9-2.93-8.81-3.87-13.34-.61-2.93,1.1-4,3.92-2.57,1.83.94,3.61,2.3,4.28,4.07,4.33,11.45,12.69,20.2,19.68,29.85,7.3,10.09,14.25,20.44,22.37,29.92.87,1.01,1.89,1.88,2.79,2.86,1.84,2.02,4.2,3.46,6.55,1.65,2.54-1.95,1.1-4.36-.37-6.59-6.87-10.4-13.63-20.87-20.49-31.27-5.3-8.03-10.68-16.01-16.03-24Z"/><path class="cls-1" d="M1069.4,555.23c-11.52,2.55-23.6,2.01-34.85,5.76-17.94,5.98-36.15,11.29-53.21,19.67-3.23,1.59-5.7,3.98-7.56,7.03-7.45,4.4-14.3,9.63-21.1,14.95-11.93,9.33-20.89,21.91-33.56,30.42-.41-.44-.82-.88-1.23-1.31,6.46-8.86,13.85-16.9,21.79-24.43.75-.71,2.57-.68,1.75-2.36-.62-1.28-2.02-1.06-3.13-.84-2.19.43-3.85,1.89-5.58,3.19-10.96,8.31-20,18.58-29.29,28.59-12.93,13.93-25.09,28.54-35.77,44.25-8.25,12.14-11.8,26.35-16.16,40.19-6.31,20.01-6.91,41.01-11.12,61.38-.39,1.87.01,4.01.48,5.92,3.65,14.89,7.09,29.82,9.59,44.95.21,1.27.02,2.72,1.35,3.58-.38,9.26-2.5,18.41-1.83,27.75-5.31-.54-6.54,2.91-6.72,7.1-1.12,26.01-5.5,51.58-10.81,76.97-3.82,18.23-8.66,36.24-10.13,54.89-.13,1.68-1.31,4.08,1.16,4.75,2.67.72,3.16-1.93,3.81-3.7,2.98-8.14,4.47-16.69,6.63-25.06,1.11.48,1.28,1.48,1.22,2.49-.64,10.6-.03,21.35-2.68,31.71-3.03,11.82-3.8,23.92-5.21,35.94-1.64,14.02-.87,28.2-3.1,42.21-3.01,18.84-5.61,37.75-8.39,56.62-6.66,5.02-14.32,8.18-22.03,12.29-.67-13.37-6.04-24.99-9.43-37.13-.52-1.85-.12-3.95-.14-5.94,4.18-.98,5.7-4.31,6.72-7.89,2.16-7.51,4.07-15.1,6.28-22.59.44-1.49-.11-3.9,2.54-4.16.25,3.01-2.29,7.72,2.58,8.23,4.4.46,3.79-4.49,4.02-7.29,1.38-17.08-.33-33.88-5.09-50.38-2.1-7.27-2.03-15.08-5.5-22.05-1.4-2.82-1.8-6.22-3.51-8.79-5.44-8.12-5.23-16.8-3.9-25.92,2-13.67,4.26-27.35,2.86-41.27-.07-.65-.04-1.35.12-1.99,3.69-15.37,4.15-31.1,5.84-46.73,2.57-23.78,1.46-47.19-1.76-70.67-3.97-28.96-.95-57.5,5.25-85.8,2.34-10.69,7.54-20.27,13.42-29.42,8.65-13.45,17.69-26.65,26.16-40.21,17.89-28.64,37.5-55.98,58.11-82.77,15.37-19.98,35.63-32.01,56.66-43.94,12.53-7.12,25.19-12.1,40.08-11.65,11.25.34,22.43-2.55,33.76-3.3,18.12-1.21,35.05,1.78,50.84,10.82.31,1.94.19,4.09,1.02,5.77,1.99,4.05,1.24,7.8-.85,11.3-2.42,4.06-6.72,6.15-10.39,8.88Z"/><path class="cls-5" d="M942.11,985.24c2.58,17.79-8.73,25.61-22.35,32.71-8.89,4.64-18.09,2.74-27.11,4.07-9.84,1.45-19.71,2.7-29.53,4.23-1.73.27-3.3,1.52-4.95,2.31-1.24.59-1.98,2.9-3.64,1.71-1.13-.81-.09-2.46.03-3.75,1.32-14.15,6.54-27.42,9.26-41.22,2.94-14.94,4.37-30.17,6.99-45.18,3.61-20.67,6-41.43,5.07-62.41-.59-13.23-1.99-26.43-3.48-39.62-1.36-12.04-1.01-24.29.92-36.31,1.11-6.93.9-13.91,1.37-20.84,1.52-22.32,7.66-43.05,18.95-62.25,11.62-19.76,22.22-40.2,36.91-57.98,12.3-14.88,26.34-27.72,44.26-35.74,3.34-1.5,4.67-.95,5.45,2.75,5.28,25.14,17.1,47.38,30.79,68.77,1.08,1.68,2.35,3.28,1.96,5.48-1.63.25-3.25.53-4.88.75-23.78,3.23-43.09,14.57-58.01,33.06-4.02,4.99-9.28,9.66-10.15,16.74-1.09,2.63-.99,5.86-3.86,7.58-1.77,1.52-3.48,3.11-5.31,4.53-11.04,8.59-18.33,19.63-20.88,33.39-1.99,10.69-4.32,21.16-9.71,30.75-4.8,8.54-7.85,17.55-7.21,27.6.17,2.57-.76,5.24-1.37,7.83-1.51,6.36-4.77,12.04-7.14,18.07-1.81,4.62-4.04,9.49-1.4,14.41,5.53,10.29,4.9,20.43.01,30.64-1.81,3.78-2.28,7.75-.94,11.64,3.41,9.9,6.39,20.1,12.4,28.76,4.38,6.31,9.05,12.82,18.17,13.34,9.89.56,19.96.23,29.38,4.17ZM948.06,672.36c.12-4.27-1.11-7.7-5.65-8.14-3.7-.36-5.98,2.07-6.3,5.67-1.01,11.14-2.36,22.12-9.55,31.38-.98,1.26-.96,2.94.47,4.02,1.48,1.12,2.44-.21,3.36-1.11,5.59-5.52,10.46-11.64,13.75-18.78,1.92-4.16,4.27-8.33,3.94-13.04Z"/><path class="cls-1" d="M942.11,985.24c-9.43-3.94-19.5-3.61-29.38-4.17-9.12-.52-13.78-7.02-18.17-13.34-6.01-8.66-8.99-18.86-12.4-28.76-1.34-3.9-.87-7.87.94-11.64,4.89-10.21,5.51-20.35-.01-30.64-2.64-4.92-.41-9.79,1.4-14.41,2.36-6.03,5.62-11.71,7.14-18.07.61-2.58,1.53-5.26,1.37-7.83-.65-10.05,2.41-19.06,7.21-27.6,5.39-9.6,7.73-20.06,9.71-30.75,2.56-13.76,9.85-24.8,20.88-33.39,1.83-1.43,3.54-3.02,5.3-4.53-2.56,5.4-3.84,11.2-5.2,16.94-.54,2.3-3.31,5.77.09,7.02,3.5,1.29,3.2-3.21,4.42-5.25.76-1.27,1.18-2.74,1.71-4.14,2.86-7.55,7.44-13.48,14.71-17.49,8.14-4.49,15.99-9.51,23.84-14.48,2.35-1.49,6.36-2.83,4.56-6.56-1.96-4.05-5.6-1.53-8.32-.48-5.56,2.17-11.07,4.53-16.41,7.2-5.45,2.73-11.4,4.77-15.54,9.64.87-7.08,6.13-11.75,10.15-16.74,14.92-18.49,34.24-29.83,58.01-33.06,1.63-.22,3.26-.5,4.88-.75.93.66,2.19,1.11,2.74,2,8.96,14.6,19.75,28.32,22.85,45.82.66,3.7.96,7.47,1.43,11.2-8.26-7.81-17.77-7.67-27.86-4.55-2.68.83-5.56.98-8.34,1.51-15.91,3.03-31.3,7.77-45.95,14.68-5.18,2.45-9.54,6.16-12.66,11.03-2.97,4.64-1.81,8.43,2.82,10.22,3.87,3.14,7.73,6.28,11.6,9.41,1.64,5.79,6.45,7,11.44,7.82,4.49.74,8.87-.6,13.3-.94.16,4.47-.47,8.79-2.44,12.85-1.2,2.46-2.42,4.86.25,7.22.4.35.61,1.25.49,1.81-2,8.81-2.09,17.72-1.59,26.67.09,1.67-.58,1.82-2.09,1.46-12.67-3.02-25.69-3.25-38.56-4.55-9.1-.92-16.62,3.77-23.36,9.55-2.16-1.14-.79-2.87-.72-4.37.14-2.81.39-5.61.46-8.42.04-1.97-.7-3.63-2.8-4.18-2.08-.55-3.51.54-4.57,2.19-.53.84-.96,1.74-1.44,2.61-2.53-.22-5.06.49-5.77,2.89-2.68,9.19-6.54,18.13-6.69,27.93-.43.7-1.04,1.34-1.25,2.1-.9,3.33-2.63,7.27,1.31,9.41,4.28,2.32,6.65-1.31,8.69-4.4,3.65-5.54,6.92-11.31,9.7-17.35,6.6,1.49,12.39-1.2,18.25-3.55,11.11-4.46,22.81-4.37,34.37-3.54,3.29.24,7.55,2.64,7.84,7.67.07,1.25.8,2.53,1.45,3.68,5.18,9.16,3.72,16.21-4.4,22.8-3.07,2.49-5.67,5.59-8.48,8.4-8.46,3.45-15.87,8.69-23.28,13.88-2.43,1.7-3.87,4.43-3.14,7.36,1.05,4.19,1.78,8.34,1.93,12.66.06,1.88.71,3.94,2.74,4.98-1.77,12.48,1.01,24.85.83,37.29ZM916.12,906.19c.2-.03,1.09.04,1.83-.26,5.69-2.26,10.19-6.68,16.06-8.76,1.73-.61,1.61-3.37-.31-3.92-5.14-1.47-10.42-3.76-15.8-1.91-2.85.98-5.8,2.56-7.61,5.34-1.26,1.95-1.49,4-.4,6.12,1.17,2.27,3.02,3.44,6.22,3.38ZM968.26,822.15c2.37-.02,5.25-.34,5.65-4.1.26-2.46-5.5-5.95-9.78-6.09-2.88-.1-4.88,1.01-5.16,4.09-.31,3.56,3.24,6,9.28,6.1Z"/><path class="cls-6" d="M1050.59,734.95c-8.54-22.91-24.06-41.07-35.77-61.46-2.25-3.91-3.02-6.82-.24-11.14,5.55-8.65,10.13-17.93,15.17-26.92,5.08-9.05,5.77-19.37,7.88-29.17,1.86-8.64,5.05-13.44,14.38-15.52,12.51-2.78,24.73-4.39,37.31-1.76,4.77,1,9.57.96,14.38,1.1,5.6.16,7.19,2.87,4.43,7.64-1.58,2.73-3.47,5.27-5.19,7.92-1.19,1.84-1.59,3.93.15,5.45,1.88,1.64,4.03,1.14,5.83-.53,4.55-4.21,8.23-9.11,11.42-14.4.58-.96,1-2.38,2.47-1.99,1.43.38,1.19,1.8,1.24,2.94.45,8.86-2.53,17.04-5.33,25.17-3.63,10.51-7.76,20.86-11.69,31.27-.35.93-.55,2.23-1.26,2.66-9.1,5.64-11.14,16.16-16.72,24.21-7.75,11.18-14.87,22.81-22.1,34.36-4.44,7.09-10.56,13.12-16.37,20.16Z"/><path class="cls-9" d="M655.9,1099.28c1.44-4.14-.33-8.36.28-12.53.42-2.84-.04-6,3.08-7.74,4.96,2.65,6.67,7.98,9.73,12.13,18.8,25.44,35.07,52.51,51.19,79.7,10.76,18.15,23.16,35.31,35.81,52.2,4.55,6.07,10.46,11.09,14.55,17.66,3.3,5.29,5.76,10.91,7.42,16.83,3.28,11.74,7.73,23.02,12.91,34,4.85,10.29,13.81,13.18,23.88,8.1,2.88-1.45,5.71-2.98,8.85-4.06-4.48,8.88-11.82,14.24-21.04,17.34-1.26.42-2.56.72-3.78,1.22-4.81,1.94-9.29,2.62-14.12-.65-5.54-3.76-12.11-5.84-18.58-7.06-12.51-2.37-20.75-10.71-29.12-19.04-21.21-21.11-36.06-47.22-54.87-70.23-.89-1.08-2.26-2.08-2.14-3.81,2.9-2.57,4.46-5.61,4.65-9.67.15-3.02,1.17-6.16,4.45-7.65,3.38.81,5.53,3.43,8.02,5.51,9.62,8.03,13.68,8.69,22.62,3.56,6.98-4.01,8.2-8.87,3.85-15.72-13.99-22-29.95-42.54-46.4-62.72-7.3-8.95-15.05-17.55-21.23-27.37Z"/><path class="cls-9" d="M881.58,1133.08c-1.16-.05-2.33-.09-3.49-.17-1.97-.14-2.45-1.08-1.06-2.5,4.72-4.82,7.31-11.08,11.18-16.48,1.58-2.2,3.14-3.01,5.72-2.95,7.94.2,14.85-3.04,21.61-6.75,2.72-1.49,3.93-3.9,4.72-6.73.34-1.23.57-2.29-.69-3.05-1.21-.73-2.22-.25-3.12.64-6.08,5.97-14.22,4.52-21.56,5.87-3.48.64-3.06-2.37-2.88-4.4,1.25-14.52,1.24-29.17,4.36-43.52.91-4.19,1.15-8.53,1.57-12.81.19-1.89.13-4.17,2.62-4.02,9.01.54,15.67-5.11,23.02-8.7,8.64-4.22,17.44-8.15,25.4-13.77,6.45-4.56,9.62-10.58,9.87-18.06.42-12.63.46-25.27-1.69-37.81-.6-3.47.53-6.49,2.45-9.39,6.99-10.56,13.64-21.31,16.38-33.92.27-1.25.94-2.08,2.06-2.62,11.35-5.47,11.68-17.4,10.61-27.21-.11-.97-.5-1.94-.91-2.85-2.43-5.42-3.38-10.67,1.04-15.7,5.25-5.98,4.55-13.35,4.01-20.42-.36-4.66.09-9.42-.28-13.79-1.25-14.75,8.69-20.21,18.77-26.09.86-.5,1.91-1.23,2.79-.63,1.39.95.14,2.08-.21,3.08-5.39,15.18-9.39,30.81-14.27,46.12-6.45,20.21-7.07,40.68-7.69,61.42-.39,12.95-4.24,25.47-6.77,38.14-3.95,19.83-7.42,39.76-11.27,59.62-1.11,5.7-2.79,11.26-6.16,16.2-8.66,12.71-11.74,27.81-17.68,41.69-3.53,8.24-5.98,16.93-10.52,24.74-1.11,1.91-2.32,3.36-4.8,3.89-4.53.98-4.5,5.66-6.33,8.82-15.15,6.74-30.47,13.13-44.8,21.57-.98.57-2.12,1.09-2.03,2.55Z"/><path class="cls-9" d="M849.98,863.91c-.67-9.33,1.45-18.48,1.83-27.75,2.01-.94,2.29-2.7,2.12-4.62-.5-5.6-.95-11.2-1.56-16.79-1.01-9.37-4.21-18.89-2.08-28.11,3.08-13.32,3.18-26.95,5.76-40.24,3.61-18.57,7.78-37.06,15.92-54.26,5.86-12.37,15.11-22.53,23.58-33.12,4.3-5.38,7.7-11.5,12.9-16.16.86-.97,1.73-1.95,2.59-2.92l-.11.1c3.25-1.71,5.89-4.15,8.18-6.97,12.66-8.5,21.63-21.09,33.56-30.42,6.81-5.32,13.65-10.55,21.1-14.95.16,1.14.32,2.28.53,3.73,18.3-8.77,37.17-15.75,56.83-19.83,22.83-4.73,45.99-6.79,69.24-2.31,4.84.93,9.03,3,12.16,7.06-11.91,1.23-23.08-2.47-34.51-3.19-21.87-1.37-42.53,4.04-62.45,12.63-21.11,9.1-41.35,19.99-61.61,30.8-6.04,3.22-11.21,7.68-16.32,12.24-21.52,19.23-36.64,43.08-50.76,67.94-12.36,21.77-16.56,45.7-21.83,69.49-3.55,16.04-3.91,32.57-7.77,48.6-1.6,6.64-.33,13.83,2.41,20.06,3.64,8.27,1.91,16.44.85,24.53-2.33,17.75-4.6,35.46-5.86,53.36-1.26,17.83-2.81,35.69-4.26,53.52-1.49,18.24-8.53,35.13-10.76,53.1-1.39,11.18-2.96,22.33-4.61,33.47-1.97,13.28-3.82,26.58-6.25,39.78-3.05,16.64-4.3,33.53-7.65,50.13-.7,3.47-2.07,5.01-5.42,5.01,2.78-18.88,5.38-37.78,8.39-56.62,2.24-14.01,1.46-28.19,3.1-42.21,1.41-12.02,2.18-24.11,5.21-35.94,2.65-10.36,2.04-21.12,2.68-31.71.06-1.01-.11-2.01-1.22-2.49-.4-2.09.47-3.96,1.18-5.79,8.78-22.85,10.69-47.05,13.83-70.99,1.4-10.68,2.03-21.44,2.16-32.24.03-2.21.2-4.11-1.11-5.93Z"/><path class="cls-10" d="M881.58,1133.08c-.09-1.46,1.05-1.97,2.03-2.55,14.33-8.44,29.65-14.83,44.8-21.57-2.08,4.72-3.49,9.67-4.34,14.74-4.22,25.2-12.52,48.59-29.19,68.54-7.25,8.68-13.89,17.88-20.83,26.83-1.22,1.57-2.3,3.29-4.28,4.08-13.41,5.35-25.17,14.23-39.27,18.15-3.71,1.03-6.82.55-9.72-1.31,4.23-9.14,7.32-18.48,7.85-28.47.33-6.24,1.7-12.14,4.24-17.8.46-.15.99-.2,1.38-.46,23.46-15.97,46.62-32.41,73.33-42.88,2.87-1.13,6.49-3.06,6.04-7.52.42-3.04-1.35-3.69-3.85-5.06-8.97-4.95-18.81-3.22-28.19-4.72Z"/><path class="cls-9" d="M887.98,1043.56c-.95,6.87-2.27,14.56-3.03,22.3-1.03,10.55-3.25,21.02-2.86,31.65.39,10.78-5.95,18.11-12.6,24.96-3.68,3.8-6.89,7.17-6.46,12.68.38,4.91-2.93,7.52-6.07,10.27-10.4,9.07-19.6,19.4-27.92,30.24-7.53,9.82-11.69,21.73-10.86,34.51.43,6.74-3.04,12.57-3.23,19.06-.02.72-.41,1.43-1.12,1.38-.55-.04-1.32-.54-1.54-1.03-2.34-5.31-6.55-9.48-3.48-16.81,6.74-16.07,12.93-32.41,19.06-48.73,7.31-19.46,10.24-40.12,14.07-60.49,2.78-14.82,5.64-29.63,8.45-44.44.22-1.14.44-2.29.52-3.44.75-10.8,3.34-13.73,14.29-14.52,6.16-.45,12.14-1.8,18.22-2.59,4.47-.58,4.75-.49,4.55,4.99Z"/><path class="cls-9" d="M893.12,1502.18c-4.16-6.93-8.41-13.81-12.43-20.83-1.62-2.84-.79-6.22-1.13-9.33-2.28-21.31-11.11-40.58-18.31-60.36-7.57-20.77-17.96-40.41-24.79-61.48-.15-.47-.31-1-.63-1.35-9.24-10.2-3.05-20.61-.59-31.47,14.57,29.8,32.63,57.3,42.5,88.86,9.77,31.26,12.83,63.54,15.38,95.96Z"/><path class="cls-12" d="M637.96,1218.06c-.98-.4-1.92-.3-2.89.12-4.85,2.07-8.79.46-12.03-3.24-2.3-2.62-4.74-5.23-6.47-8.22-10.05-17.41-23.75-32.03-36.17-47.62-4.36-5.47-8.28-11.25-11.9-17.24-2.18-3.6-3.76-7.43-4.17-11.65-.47-4.77,2.69-7.54,5.88-10.25,12.36,10.31,24.46,20.94,37.16,30.81,7.67,5.96,9.94,14.55,13.71,22.6,6.79,14.48,11.21,29.82,16.87,44.7Z"/><path class="cls-12" d="M948.05,793.9c-4.63-1.8-5.79-5.59-2.82-10.22,3.12-4.87,7.47-8.58,12.66-11.03,14.66-6.91,30.04-11.65,45.95-14.68,2.78-.53,5.66-.68,8.34-1.51,10.09-3.12,19.6-3.26,27.86,4.55.62,5.36-.11,10.61-4.12,14.34-4.59,4.27-9.48,8.22-15.32,10.96-7.37,3.45-14.41,7.6-21.68,11.26-5.95,2.99-9.82,8.25-14.52,12.62-4.43.34-8.82,1.68-13.3.94-4.99-.82-9.8-2.03-11.44-7.82,7.99,1.64,15-.84,21.62-5.08,1.52-.97,3.26-1.6,4.88-2.43,6.41-3.28,13.37-4.98,20.19-7.12,3.27-1.02,5.57-3.26,5.51-6.89-.06-3.53-2.69-5.18-5.68-6.16-3.57-1.18-7.26-.93-10.85-.2-8.49,1.74-16.68,4.26-24.18,8.87-5,3.07-10.12,5.47-16.2,1.4-3.34-2.24-6.82.47-6.99,4.7-.05,1.16.06,2.33.1,3.49Z"/><path class="cls-6" d="M528.89,1075.32c6.4.31,12.79.94,18.47,4.13,9.27,5.2,18.4,10.66,27.52,16.11,1.09.65,1.89,1.2,3.01.33,5.56,2.85,9.61,7.51,14.17,11.61,9.37,8.45,19.07,16.53,28.52,24.89,4.91,4.34,9.6,8.94,14.4,13.42.28,1.1.52,2.22.85,3.31,2.04,6.71,1.3,8.4-4.78,10.86-19.42-18.61-39.45-36.57-61.19-52.41-13.44-9.79-25.67-21.11-39.5-30.37-.71-.48-1.36-.96-1.47-1.88Z"/><path class="cls-9" d="M857.07,1238.91c-4.11,4.63-8.27,9.21-12.32,13.9-7.36,8.53-14.87,16.95-21.9,25.75-4,5.01-9.33,7.29-14.97,9.3-2.24.8-3.78-.04-4.37-2.57-2.83-12.12-8.1-23.51-10.89-35.66-.34-1.46-.15-2.43.62-3.65,1.94-3.09,3.78-6.26,5.45-9.5,1.62-3.13,2.93-2.77,4.15.14,2.13,5.06,5.54,8.97,10.15,11.95,7.84,5.07,16.07,4.65,23.89-.42,6.12-3.96,12.79-7.05,19.22-10.53.32.42.63.85.95,1.27Z"/><path class="cls-12" d="M913.63,1142.87c.45,4.46-3.17,6.4-6.04,7.52-26.71,10.47-49.87,26.91-73.33,42.88-.39.26-.92.31-1.38.46,1.02-5.5,3.46-10.22,7.18-14.47,8.28-9.47,16.73-18.74,26.21-27.03,2.51-2.2,5.3-4.55,6.13-7.71,1.07-4.08,3.39-3.53,6.34-3.16,9.67,1.21,19.52.37,29.11,2.62,2.03.48,3.88-.58,5.78-1.11Z"/><path class="cls-10" d="M631.06,1159.97c6.08-2.46,6.81-4.14,4.78-10.86-.33-1.09-.57-2.2-.85-3.31,16.98,15.34,33.96,30.67,50.91,46.04,1.28,1.16,3.26,1.9,3.16,4.15-3.28,1.5-4.3,4.64-4.45,7.65-.2,4.06-1.75,7.1-4.65,9.67-2,.14-2.67-1.43-3.75-2.68-14.8-17.11-28.3-35.38-45.14-50.67Z"/><path class="cls-5" d="M810.01,1162.9c2.2-1.75,4.65-2.92,7.75-3.75-.16,5.8-2.63,10.53-4.51,15.38-5.78,14.85-8.67,30.67-15.29,45.23-2.4,5.29-4.82,10.58-7.25,15.85-1.25,2.7-2.49,3.34-4.36.29-2.07-3.39-4.33-6.7-6.86-9.76-2.08-2.52-2.25-5.35-.31-7.25,5.96-5.84,5.45-13.54,6.85-20.73.11-.58.6-1.09.91-1.63,5.17-2.47,11.18-3.62,14.54-8.96,4.74-7.55,7.41-15.85,8.53-24.67Z"/><path class="cls-9" d="M1026.18,599.79c-3.57,12.01-5.74,23.22-12.9,32.67-3.68,4.86-6.1,10.63-8.07,16.48-.37,1.09-.52,2.55-1.85,2.68-1.59.16-1.48-1.55-1.88-2.51-3.94-9.49-7.78-19.01-11.72-28.49-.59-1.43-.74-2.58.77-3.37,11.41-5.98,22.5-12.62,35.66-17.45Z"/><path class="cls-5" d="M799.68,1082.4c-2.65.26-2.1,2.67-2.54,4.16-2.21,7.5-4.12,15.08-6.28,22.59-1.03,3.58-2.54,6.91-6.72,7.89-3.02-7.41-3.56-14.76-2.49-22.92,1.99-15.08,3.8-30.14,7.29-44.96.45-1.91,1-3.79,2.06-5.77,1.23,5.02,2.32,10.01,3.81,14.89,1.83,6.01,3.26,12.14,4.81,18.24.49,1.94.73,3.92.05,5.89Z"/><path class="cls-5" d="M1069.4,555.23c3.67-2.73,7.97-4.82,10.39-8.88,2.09-3.5,2.84-7.25.85-11.3-.83-1.68-.71-3.83-1.02-5.77,5.96.29,10.74,3,14.54,7.41,6.22,7.23,13.03,14.03,18.46,23.69-14.75-5.78-29.19-3.38-43.22-5.14Z"/><path class="cls-7" d="M941.28,947.95c-2.03-1.04-2.67-3.09-2.74-4.98-.15-4.32-.88-8.48-1.93-12.66-.73-2.93.7-5.66,3.14-7.36,7.41-5.19,14.82-10.43,23.28-13.88.95,4.94-1.95,8.62-4.33,12.34-5.69,8.93-11.61,17.71-17.43,26.55Z"/><path class="cls-10" d="M810.01,1162.9c-1.12,8.82-3.79,17.11-8.53,24.67-3.35,5.34-9.37,6.49-14.54,8.96-.27-7.84,2.18-15.28,3.32-22.91.21-1.37,1.38-1.71,2.42-2.22,5.78-2.82,11.55-5.66,17.33-8.5Z"/><path class="cls-7" d="M908.01,853.02c.48-.87.91-1.78,1.44-2.61,1.06-1.66,2.49-2.74,4.57-2.19,2.09.55,2.84,2.22,2.8,4.18-.06,2.81-.32,5.61-.46,8.42-.07,1.5-1.44,3.23.72,4.37-.94,2.83-4.29,4.78-3.07,8.4-2.78,6.04-6.05,11.81-9.7,17.35-2.04,3.09-4.41,6.72-8.69,4.4-3.94-2.14-2.21-6.08-1.31-9.41.2-.76.82-1.4,1.25-2.1,1.69.15,3.25.13,4.31-1.62,4.18-6.89,8.77-13.55,10.78-21.54.81-3.22.35-5.83-2.63-7.66Z"/><path class="cls-9" d="M828.35,1290.27c-.13,1.5-1.06,2.18-2.36,2.4-.17.03-.72-.72-.64-.93.5-1.34,1.4-2.06,3-1.47Z"/><path class="cls-9" d="M859.04,1236.04c-.19.15-.37.29-.56.43.16-.17.31-.35.47-.52,0,0,.09.09.09.09Z"/><path class="cls-9" d="M858.96,1235.95c.17-.14.33-.29.5-.43-.14.17-.27.35-.41.52,0,0-.09-.09-.09-.09Z"/><path class="cls-5" d="M1065.03,505.97c.14.15.28.29.41.44-.16-.13-.31-.25-.47-.38,0,0,.06-.06.06-.06Z"/><path class="cls-7" d="M645.82,1271.07c-4.72-5.04-9.74-9.83-14.11-15.16-10.95-13.37-24.14-23.53-39.91-30.76-11.75-5.39-22.38-13.09-34.6-17.68-2.09-.78-4.61-.99-6.17-2.98-.37-.51-.74-1.02-1.11-1.52,0,0,.08.1.08.1-1.43-3.88-4.23-7.08-5.31-11.15-2.09-7.8.9-12.15,8.9-12.1,9,.05,17.92.85,26.04,5.34,1.27.7,2.57,1.89,3.64-.25,4.3,3.17,7,7.85,10.77,11.51-2.6,1.25-.74,2.83-.17,4.11,2.13,4.71,4.79,9.12,8.17,13.07,9.28,10.85,17.98,22.19,28.65,31.82,7.63,6.89,12.57,15.63,15.13,25.65Z"/><path class="cls-13" d="M430.48,1172.13c-18.95.51-37.1,5.52-54.67,12.24-20.82,7.95-41.29,16.82-61.81,25.53-5.03,2.13-9.63,5.26-14.5,7.79-1.33.69-3.14,2.21-4.35.07-1.05-1.84,1.06-2.51,2.09-3.38,6.15-5.16,12.81-9.49,20.19-12.76,17.35-7.66,34.55-15.68,51.96-23.19,18.28-7.89,37.19-14.22,57.3-13.94,23.61.33,47.23,1.65,70.21,8.06,7.02,1.96,13.13,5.6,18.91,9.89,1.57,1.17,3.83,2.22,2.48,4.67-1.14,2.05-3.3,1.23-4.98.69-7.91-2.56-15.93-4.86-23.63-7.97-12.79-5.17-26.26-5.63-39.68-6.61-6.47-.47-12.95-.73-19.54-1.09Z"/><path class="cls-2" d="M507.74,1120.16c-4.38.18-8.04-1.85-11.65-3.95-10.98-6.38-21.07-14.06-30.94-21.97-14.72-11.79-30.7-21.74-46.23-32.34-4.43-3.02-9.61-4.57-14.43-6.83-2.1-.98-4.17-2.09-6.08-3.38-1.8-1.22-2.52-3.07-1.88-5.26.64-2.19,2.15-3.22,4.4-3.39,2.68-.2,5.25.04,7.89.72,15.32,3.95,28.55,11.99,40.77,21.6,13.22,10.39,25.85,21.54,38.85,32.22,4.89,4.01,10.08,7.65,15.19,11.39,1.88,1.38,3.9,2.61,6.36,2.65,2.69.05,5.31.39,5.21,3.85-.1,3.3-2.55,4.39-5.46,4.69-.66.07-1.33.01-2,.01Z"/><path class="cls-7" d="M626.06,1261.97c5.27,2.52,8.83,6.78,11.75,11.64,4.7,7.83,6.05,16.74,8.52,25.35,5.96,20.79,10.06,41.96,14.02,63.15,1.42,7.62,3.4,15.43,3.21,23.07-.19,8.03.41,16.32-1.94,24.25-2.96-1.55-3.22-4.44-3.56-7.25-2.48-20.14-4.11-40.43-8.85-60.21-6.4-26.72-13.31-53.31-23.15-79.03-.11-.28,0-.65,0-.98Z"/><path class="cls-2" d="M437.82,1149.28c-9.96.52-19.98-1.08-29.91.63-2.04.35-3.69-.35-4.3-2.46-.76-2.62.38-4.62,2.6-5.9,3.57-2.06,7.64-2.37,11.6-2.59,14.46-.81,28.94-1.4,43.41-2.04,5.17-.23,10.29-.77,15.35-1.8,4.72-.97,9.04-2.41,10.72-7.69.48-1.5,1.75-2.52,3.48-2.25,2.11.34,3.1,1.88,3.34,3.84.65,5.4-1.83,9.4-6.07,12.32-7.29,5.03-15.87,5.82-24.3,6.59-8.61.79-17.29.93-25.94,1.36Z"/><path class="cls-13" d="M594.04,1196.43c-3.77-3.66-6.47-8.34-10.77-11.51-10.76-12.65-23.03-23.76-35.32-34.87-3.32-3-6.8-5.93-8.78-10.09-1.24-2.6-1.27-5.19.76-7.44,2.08-2.29,4.43-1.59,6.84-.47,1.88.87,3.85,1.57,5.75,2.34-.57,1.98-2.61.79-3.52,2.38,3.07,2.62,6.14,5.39,9.37,7.97,14.67,11.74,26.91,25.66,37.34,41.23,1.11,1.65,2.31,3.26,3.64,4.74,1.91,2.12,4.62,4.33,1.96,7.17-2.61,2.78-5.11.53-7.26-1.44Z"/><path class="cls-9" d="M671.12,1399.02c-1.66-.98-1.23-2.65-1.12-4.04,1.51-18.9-3.53-36.98-6.54-55.34-2.88-17.54-8.81-34.3-12.22-51.68-.3-1.55-2.03-3.29-.15-4.97,5.42,12.36,10.45,24.94,13.5,38.04,3.68,15.84,9.13,31.22,11.88,47.27,1,5.81,1.89,11.61,3.48,17.33.9,3.24.38,6.79-3.87,7.88-2.96.76-3.34,3.66-4.96,5.52Z"/><path class="cls-12" d="M577.71,1251.83c9.44,4.3,18.38,9.68,25.44,17.15,7.65,8.1,10.69,18.93,11.68,29.7,2.19,23.76,7.52,46.85,14.06,69.64,3.42,11.93,5.2,23.94,6.12,36.2.15,1.97.44,3.97.93,5.88,4.55,17.75,2.17,35.54.41,53.34-.41,4.09-.84,8.55,4.55,10.22-1.31,4.78-4.14,8.12-9.33,7.99-4.92-.13-6.36-4.2-7.43-8.18-1.26-4.68-1.8-9.42-1.52-14.31.41-7.14.47-14.31.59-21.46.31-17.65-7.24-30.69-22.22-40.18-15.47-9.79-29.07-21.74-37.54-38.5-11.1-21.96-13.15-44.38-3.47-67.45,3.8-9.05,7.24-18.26,10.98-27.33,1.83-4.44,3.52-8.98,6.74-12.7Z"/><path class="cls-2" d="M316.63,1383.88c-5.21,2.31-7.17,7.65-10.5,11.63-15.03,17.94-30.04,35.91-44.45,54.35-15.43,19.74-32.02,38.57-46.62,58.97-2.25,3.14-5.08,5.71-8.05,8.14-.76.44-1.19,1.05-1.05,1.97,0,0-.05.06-.05.06-3.29,1.94-5.11,5.11-6.92,8.3-2.21,2.4-4.57,6.38-8.01,4.14-3.67-2.39-1.69-6.52-.1-9.94,5.77-12.37,13.83-23.31,23.26-32.91,19.3-19.66,35.59-41.85,53.87-62.35,13.97-15.66,27.69-31.53,40.65-48.04,1.93-2.46,4.06-4.81,5.45-8.13-5.01.31-9.24,2.15-13.48,3.89-21.15,8.7-39.52,21.91-57.74,35.4-5.35,3.96-10.89,7.66-16.44,11.33-1.26.84-3.08,2.05-4.36-.02-1.05-1.69.39-2.81,1.52-3.74,22.21-18.34,43.98-37.3,70.61-49.31,6.99-3.15,14.04-6.12,21.94-6.05,7.04.06,9.48,4,6.63,10.51-1.79,4.08-5.76,7.01-6.16,11.8Z"/><path class="cls-7" d="M325.5,1350.46c3.6-1.24,7.17-2.6,10.81-3.7,5.44-1.63,10.37-.54,14.68,3.21-.77,2.28-2.89,3.44-4.67,2.73-4.77-1.91-9.15-.14-13.67.58-2.96.47-5.68.42-7.16-2.82Z"/><path class="cls-7" d="M198.98,1527.28c1.81-3.18,3.63-6.35,6.92-8.3-.06,4.41-2.98,7.32-5.48,10.43-.47-.71-.96-1.43-1.44-2.14Z"/><path class="cls-10" d="M494.98,1352.99c3.32,2.21,3.35,6.09,4.68,9.29,1.21,2.91,2.13,5.94,3.41,9.55-9.54.62-18.09,4.16-26.81,7.1-3.15,1.06-6.5,1.85-9.32,3.5-3.77,2.21-5.35,1.36-7.51-2.36-3.54-6.1-9.29-9.35-16.62-9.26-4.67.06-9.37.06-13.86,1.51-16.65,5.35-25.43,22.75-15.92,39.15,2.41,4.16,2.13,5.37-2.6,7.83-9.7,5.04-18.71,11.49-27.72,17.75-3.28,2.28-4.74,1.85-6.25-1.54-3.12-7-6.62-13.83-9.54-20.91-2.94-7.13-6.18-14.04-11.4-19.8-1.97-2.17-1.19-3.56.47-5.42,3-3.34,5.96-6.77,8.49-10.46,11-16.07,4.53-34.7-14.04-40.84-7.19-2.38-14.38-2.96-21.37.54-2.81,1.41-4.38.8-6.1-1.78-5.21-7.79-9.41-16.11-13.19-24.63-1.93-4.34,2.19-6.58,4.75-8.79,2.21-1.91,5.15-3.04,7.88-4.26,8.25-3.68,16.05-8.11,23.32-13.46,1.73-1.27,3.26-2.29,5.2-.31,7.7,7.86,28.92,5.92,37.88-1.56,5.55-4.63,10.28-9.97,14.29-15.95,1.81-2.7,3.03-5.88,2.34-8.99-.88-3.95.54-5.93,4-7.15,10.19-3.6,20.33-7.33,29.93-12.34,2.21-1.16,2.45.94,3.15,2.07,5.89,9.46,10.68,19.61,17.68,28.37,1.87,2.34,1.56,3.68-.77,5.61-16.4,13.62-10.94,31.3-.9,41.58,6.34,6.5,14.13,8.76,22.86,6.41,3.1-.83,3.9-.17,4.84,2.63,2.27,6.79,4.97,13.43,7.47,20.11-2.31-1.24-3.5-3.48-5.06-5.39-.74-.91-1.5-1.95-2.85-1.37-1.23.53-1.64,1.79-1.28,2.93,1.5,4.7,2.93,9.46,4.87,13.98.67,1.57,2.47,3.72,4.61,2.87,1.92-.77.34-2.94.48-4.47.05-.6.32-1.18.49-1.77ZM359.92,1323.82c-3.44-.22-6.92,0-10.11,1.68-1.74.91-4.11,1.93-3.2,4.32.89,2.33,3.09.84,4.79.58,6.6-1,13.24-1.02,18.25,4.01,3.7,3.72,7.42,7.65,9.45,12.73.54,1.35,1.11,3.14,2.99,2.78,2.18-.42,1.85-2.48,1.88-4.07.06-2.78-1.15-5.14-2.81-7.3-1.52-1.98-3.15-3.89-4.47-5.99-3.9-6.16-9.31-9.31-16.78-8.75ZM414.22,1268.91c-.23-1.41.53-4.02-2.29-4.32-2.54-.26-3.14,2-3.57,4.01-1.1,5.08-3.78,9.2-7.71,12.52-2.03,1.72-4.18,3.29-6.19,5.02-1.12.97-2.45,2.14-1.65,3.8.84,1.76,2.6,1.2,3.99.84,8.14-2.1,17.02-13.09,17.42-21.88ZM419.65,1367.17c-1.14-1.14-1.85-.87-2.67-.59-11.55,3.96-18.49,14.44-17.66,26.6.16,2.28,1.41,3.64,3.26,4.62.69.37,1.51,1.02,2.27.36.72-.62.1-1.51.14-2.27.34-7.58.83-15.17,6.6-21.03,2.6-2.65,5.37-5.13,8.06-7.69ZM446.34,1318.28c-1.26,2.3-.09,3.81.8,5.41,2.46,4.44,6.92,6.6,10.83,9.31,4.38,3.05,9.33,3.16,14.31,1.69,1.13-.33,2.97-.37,2.83-2.21-.15-1.91-1.88-1.54-3.12-1.55-3.32-.02-6.75.31-9.67-1.63-5.32-3.53-10.51-7.24-15.98-11.03ZM371.78,1406.31c-2.11.63-3.11,2.33-2.02,4.74,2.19,4.87,5.11,9.28,9.15,12.86,1.62,1.44,3.03,1.19,3.97-.77,1.25-2.61-7.67-16.76-11.1-16.84ZM449.49,1280.96c-8.59,2.9-12.5,12.45-12.09,19.07.16,2.64.6,5.09,4.25,5.84-2.51-10.03,4.75-16.47,7.85-24.91ZM334.37,1305.07c4.84-.51,8.73-2.99,12.27-6.09.77-.67,2.3-1.25,1.42-2.73-.65-1.1-1.88-1.45-3.07-1.21-4.39.92-8.69,2.21-12.63,4.38-1.43.79-2.84,2.36-2.35,4.07.58,2.02,2.89.9,4.36,1.58ZM404.86,1411.18c-.04-1.08-.48-2.08-1.77-1.51-5.82,2.54-11.28,5.65-15.33,10.71-.49.61-.64,1.56-.06,2.32.66.86,1.45.54,2.19.1,4.13-2.47,8.27-4.91,12.36-7.45,1.47-.91,2.29-2.37,2.61-4.17ZM331.36,1329.89c1.28.07,2.35-.26,2.54-1.72.38-2.92-4.56-9.12-7.29-9.15-2.19-.03-3.39,1.14-3.53,3.31-.17,2.57,5.14,7.39,8.29,7.57ZM361.53,1392.05c.01,1.02-.3,2.47,1.17,3.24,1.86.97,2.72-.58,3.58-1.7,1-1.31,2.05-2.68,2.61-4.19.68-1.85,3.46-4.17,1.34-5.57-2.52-1.67-4.82.81-6.47,2.99-1.11,1.47-1.88,3.11-2.23,5.24ZM375.16,1299.13c3.23-.19,6.08-1.74,8.38-4.33.43-.48.68-1.3.02-1.76-2.88-2.04-6.04-1.08-9.13-.68-.16.02-.32.1-.47.16-1.88.69-4.22,1.27-3.78,3.83.4,2.35,2.58,2.76,4.98,2.79ZM356.99,1292.82c-2.8.03-5.01.38-4.57,3.13.51,3.24,3.34,3.95,6.04,3.82,2.15-.1,5.99-.35,5.67-2.43-.55-3.57-4.39-4.32-7.14-4.51ZM433.4,1246.68c-4.78.06-9.38,2.37-8.99,4.59.32,1.84,1.9,2.45,3.4,2.1,3.25-.77,7.35-.55,8.63-4.57.61-1.92-1.48-2.16-3.04-2.13ZM481.88,1373.23c2.27-.09,7.01-2.33,8.35-3.91.55-.64,1.17-1.32.64-2.14-.3-.46-1.08-.98-1.55-.9-2.9.49-5.8,1.04-8.65,1.77-1.56.4-2.6,1.61-2.28,3.33.35,1.92,1.96,1.92,3.49,1.85ZM374.44,1377.17c6.83-1.8,8.94-4.65,7.58-8.54-.61-1.72-1.65-2.97-3.63-2.68-1.9.28-2.1,1.86-2.13,3.42-.06,2.39.61,4.85-1.82,7.8ZM447.75,1271.99c.64,1.13.05,3.89,2.69,3.47,2.28-.36,4.28-1.98,4.21-4.78-.05-2.06-1.21-3.51-3.35-3.56-2.97-.06-3.2,2.28-3.55,4.86ZM448.2,1261.31c-1.39-2.32-1.79-5.83-5.54-6.14-1.76-.15-2.81,1.2-2.71,2.9.25,3.99,3.55,4.32,6.44,4.97,1.08.24,2.04-.04,1.81-1.73ZM455.65,1367.9c1.33,0,2.17-.07,2.29-1.16.14-1.32-4.8-5.67-6.41-5.68-1.61,0-2.75.87-2.43,2.38.79,3.72,4.57,3.13,6.55,4.46ZM435.71,1362.87c1.79-.08,4.95-.09,4.77-2.46-.21-2.84-3.89-1.49-5.91-2.37-1.35-.59-3.08.32-3.06,2.2.03,2.45,1.95,2.66,4.2,2.63ZM420.51,1256.69c-.03-1.65-1.14-2.47-2.52-2.5-2.77-.06-4.19,1.63-4.56,4.26-.26,1.83,1.02,1.7,2.23,1.68,2.39-.05,4.15-.99,4.86-3.43ZM465.3,1376.12c1.21-.48,3.75.31,3.6-1.52-.21-2.53-3.28-2.19-5.11-2.96-1.17-.49-2.25.6-2.16,2.01.14,2.23,1.76,2.55,3.67,2.47ZM319.76,1313.16c1.9-.74,4.05-1.79,4.8-4.09.45-1.38-1.16-1.23-2.01-1.15-2.41.24-4.51,1.17-5.06,3.78-.25,1.2.83,1.6,2.26,1.47Z"/><path class="cls-10" d="M430.45,1233.09c6.01-10.67,11.5-20.36,16.92-30.09,1.53-2.74,3.94-2.09,6.17-1.76,11.74,1.76,11.78,1.81,6.08,12.01-2.51,4.5-5.25,8.86-7.84,13.32-.47.81-1.33,1.74-.56,2.72.87,1.1,1.72,0,2.62-.21,2.99-.71,4.81-2.54,6.15-5.26,2.64-5.38,5.6-10.61,8.27-15.98,1.05-2.11,2.26-2.96,4.71-2.33,3.86.99,7.85,1.49,11.71,2.5,5.76,1.51,7.42,5.59,4.67,10.71-6.38,11.88-13.24,23.52-18.71,35.88-1.67,3.78-3.11,3.52-5.19.39-3.32-4.99-6.56-10.05-10.24-14.77-7.94-10.19-8.05-10.11-20.67-7.98-.96.16-1.92.4-4.1.85Z"/><path class="cls-8" d="M494.98,1352.99c-.17.59-.44,1.17-.49,1.77-.14,1.54,1.44,3.7-.48,4.47-2.14.86-3.93-1.3-4.61-2.87-1.94-4.53-3.37-9.28-4.87-13.98-.36-1.14.04-2.4,1.28-2.93,1.35-.58,2.11.46,2.85,1.37,1.56,1.91,2.75,4.15,5.06,5.39.46,1.2.91,2.38,1.35,3.57-1.83,1.09-1.56,2.18-.01,3.28,0,0-.07-.06-.07-.06Z"/><path class="cls-10" d="M495.05,1353.05c-1.55-1.1-1.82-2.2.01-3.28-.26,1.09.88,2.19-.01,3.28Z"/><path class="cls-7" d="M205.96,1518.92c-.14-.92.29-1.53,1.05-1.97-.03.83-.17,1.59-1.05,1.97Z"/><path class="cls-8" d="M352.79,1505.44c-.33-4.52-.15-9,1.79-13.2.72-1.55,1.85-3.22,3.65-2.91,2,.35,1.96,2.56,1.92,4.11-.12,5.33-.77,10.62-2.48,15.71-.64,1.92-1.58,4.22-3.96,3.64-2.22-.54-.67-2.86-.89-4.37-.14-.98-.03-1.99-.03-2.99Z"/><path class="cls-8" d="M354.1,1546.62c-.85,4.78-1.05,9.46-3.54,13.53-.59.96-1.49,2.05-2.79,1.58-1.49-.54-.74-1.79-.69-2.93.19-3.94-.02-7.91.23-11.84.19-2.96-.53-7.45,3.92-7.13,3.37.24,1.97,4.53,2.87,6.79Z"/><path class="cls-8" d="M365.88,1457.28c-.27,6.05-3.32,11.2-4.74,16.81-.17.68-.78,1.12-1.51.96-.82-.19-.91-.96-.77-1.6,1.08-4.94.15-9.94.5-14.89.07-.97.35-1.97.71-2.88.65-1.64,1.72-2.95,3.71-2.64,2.72.42,1.74,2.73,2.08,4.25Z"/><path class="cls-10" d="M549.92,1202.97c.37.51.74,1.02,1.11,1.52-.47-.43-1.39-.54-1.11-1.52Z"/><path class="cls-12" d="M653.9,837.13c-2.66.68-1.63,2.99-1.83,4.57-1.38,11.03-4.15,14.03-14.98,15.85-.66.11-1.31.25-1.97.35-10.53,1.51-12.14,3.64-10.6,14.06.29,1.97.61,3.95.96,5.91.67,3.68,1.58,7.76-2.71,9.63-4.05,1.77-8.38,1.15-11.47-2.35-4.86-5.5-9.03-11.42-11.71-18.43-5.14-13.44-6.25-27.55-7.53-41.63-3.58-39.29-9.83-78.15-24.66-114.84-5.41-13.4-17.06-22.93-32.2-25.95-7.73-1.54-11.54-3.94-12.38-9.45-1.01-6.57,2.15-12.06,8.71-15.31,5.24-2.6,10.84-3.29,16.54-2.82,3.42.28,4.38-.52,3.68-4.06-2.48-12.45-3.76-25.01-2.62-37.73,5.73-.1,10.6,1.85,15.11,5.46,4.22,3.38,7.35,7.64,10.78,11.67,11.35,13.34,20.16,28.44,29.47,43.18,5.83,9.25,12,18.29,15.17,29.03,10.96,37.1,20.7,74.51,29.3,112.22,1.57,6.9,3.28,13.77,4.93,20.65Z"/><path class="cls-11" d="M689.05,1196c.1-2.25-1.88-2.99-3.16-4.15-16.95-15.37-33.93-30.7-50.91-46.04-4.79-4.48-9.48-9.08-14.4-13.42-9.46-8.36-19.15-16.45-28.52-24.89-4.55-4.1-8.6-8.76-14.17-11.61-15.92-17.53-33.7-32.43-56.48-40.37-7.22-2.52-14.2-5.71-21.65-7.61-2.12-.54-4.22-.72-6.42-.54-2.34.19-4.54-.47-4.64-3.3-.09-2.64,1.82-3.85,4.19-4.06,3.82-.35,7.7-.63,11.45.25,11.83,2.77,23.53,6.02,34.82,10.62,8.09,3.3,15.44,7.75,21.98,13.6,10.39,9.3,21.47,17.81,31.55,27.48,2.11,2.03,4.84,3.41,7.29,5.09-.16,1.57.93,2.42,1.95,3.26,27.47,22.62,52.85,47.57,79.3,71.32,8.52,7.65,17.39,14.91,26.18,22.26,1.15.96,2.69,2.84,4.22,1.18,1.38-1.49-.32-3.02-1.19-4.4-10.72-17.05-23.08-32.88-35.71-48.53-10.94-13.56-22.96-26.29-32.14-41.21-4.35-7.07-8.2-14.49-12.92-21.31-11.44-16.51-23.1-32.89-35.03-49.06-4.38-5.94-7.71-12.72-13.42-17.65-7-13.18-16.43-24.68-25.52-36.37-15.34-19.72-29.73-40.21-46.78-58.57-7.32-7.88-15.22-14.82-25.97-17.93-5.42-1.57-7.83-12.08-4.31-16.66,2.22-2.89,7.23-2.31,9,1.81,1.79,4.18,4.91,5.72,8.59,7.41,10.89,5,18.98,13.58,26.45,22.51,25.35,30.31,49,61.93,71.69,94.28,10.72,15.28,21.34,30.64,32.55,45.55,10.65,14.16,19.25,29.6,28.97,44.33,6.18,9.82,13.94,18.42,21.23,27.37,16.46,20.18,32.41,40.72,46.4,62.72,4.36,6.85,3.14,11.71-3.85,15.72-8.93,5.13-13,4.46-22.62-3.56-2.49-2.08-4.64-4.7-8.02-5.51Z"/><path class="cls-12" d="M701.85,661.19c-2.49-.26-2.79,2.03-3.78,3.39-2.37,3.27-3.46,7.17-5.07,10.82-3.63,8.25-9.74,11.08-17.75,6.91-18.93-9.87-36.03-22.09-47.53-40.73-.61-.99-1.26-1.98-1.66-3.06-.54-1.46-.57-3,.6-4.21,1.18-1.22,2.64-1.26,4.15-.64,1.07.44,2.14.9,3.21,1.36,2.44,1.06,4.83,2.26,7.31,3.18,16.87,6.27,28.79-3.36,26.27-21.23-1.33-9.44-4.43-18.43-7.4-27.43-5.42-16.43-10.94-32.83-16.36-49.26-.57-1.72-.93-3.56-1.01-5.37-.22-5.18,2.9-7.72,7.96-6.57,5.29,1.21,9.85,4.02,14.26,7,12.56,8.5,24.15,18.25,35.79,27.94,2.25,1.87,4,4.54,7.23,5.04,1.01,2.93,1.89,5.91,3.05,8.78,5.22,12.9,10.5,25.78,15.82,38.63.94,2.26,1.7,4.25-.45,6.33-6.98,6.76-11.79,15.17-16.88,23.29-3.1,4.94-7.67,9.35-7.79,15.82Z"/><path class="cls-14" d="M653.9,837.13c-1.65-6.88-3.35-13.75-4.93-20.65-8.61-37.71-18.35-75.12-29.3-112.22-3.17-10.74-9.34-19.78-15.17-29.03-9.3-14.74-18.12-29.84-29.47-43.18-3.42-4.02-6.56-8.28-10.78-11.67-4.5-3.61-9.38-5.56-15.11-5.46-2.76-1.27-4.2-3.31-3.32-6.38.8-2.8,3.09-3.64,5.76-3.93,7.14-.77,13.46,1.33,19.27,5.32,6.79,4.66,12.33,10.65,17.58,16.89,14.06,16.71,26.44,34.65,38.24,52.98,2.86,4.44,4.88,9.45,6.92,14.36,1.19,2.86,2.06,5.83,3.89,8.38-1.02,4.73,1.62,8.75,2.93,12.88,14.37,45.37,23.62,91.96,33.15,138.47,2.24,10.92,3.98,21.84,8.37,32.19,6.42,15.12,15.6,28.61,24.82,42.03,8.93,13.01,18.35,25.69,27.6,38.48.86,1.19,1.97,2.32,3.2,3.11,1.93,1.26,3.12,2.79,1.89,4.94-1.21,2.11-3.04,3.4-5.81,2.71-2.25-.56-3.75-2.03-5.33-3.52-14.34-13.56-25.95-29.37-37.51-45.24-5.79-7.94-11.03-16.23-16.08-24.64-1.86-3.09-3.23-6.48-4.82-9.73-9.23-17.94-11.16-37.94-16-57.11Z"/><path class="cls-2" d="M656.36,957.96c9.67,6.71,19.72,12.89,28.2,21.21,11.23,11.02,17.12,25.17,22.98,39.28,8.87,21.34,18.02,42.54,28.23,63.28.95,1.93,1.66,3.98,2.53,5.96,1,2.28.79,4.37-1.43,5.67-2.6,1.53-5.02.6-6.52-1.72-3.06-4.74-6.05-9.55-8.68-14.54-10.3-19.59-19.65-39.64-28.93-59.73-.77-1.66-.96-4.04-3.47-4.46-5.14-18.33-19.61-28.47-33.52-39.59-23-18.38-45.47-37.35-67.17-57.39-31.48-29.08-46.85-66.6-60.84-105.24-11.92-32.92-24.93-65.37-39.36-97.26-.85-1.88-3.56-4.64-.61-6.03,3.32-1.57,3.68,2.47,4.63,4.45,17.87,37.46,33.51,75.88,49.7,114.08,10.17,24,22.7,46.83,40.86,65.96,22.73,23.94,47.25,45.93,73.4,66.1Z"/><path class="cls-2" d="M372.09,453.21c-3.21-.18-4.49-1.98-3.69-5,.42-1.58,1.39-3.01,2.14-4.49,19.05-37.51,35.94-75.85,44.91-117.23,1.06-4.9,2.15-9.8,2.29-14.79.54-18.79,10.36-32.13,25.49-41.59,16.43-10.27,34.32-17.59,53.05-22.73,1.86-.51,3.81-.86,4.68,1.39.74,1.92-.61,3.12-2.13,4-5.48,3.16-10.89,6.44-16.47,9.42-10.76,5.75-21.14,12.02-30.12,20.36-9.42,8.75-15.72,18.65-16.65,32.29-1.2,17.53-7.25,34.24-13.34,50.58-9.77,26.25-21.86,51.5-36.79,75.29-2.21,3.53-4.56,6.98-7.63,9.85-1.6,1.5-3.31,2.84-5.73,2.66Z"/><path class="cls-5" d="M581.23,1012.91c5.72,4.93,9.04,11.71,13.42,17.65,11.92,16.17,23.58,32.54,35.03,49.06,4.72,6.81,8.57,14.23,12.92,21.31,9.18,14.92,21.2,27.65,32.14,41.21,12.62,15.65,24.99,31.48,35.71,48.53.87,1.38,2.57,2.91,1.19,4.4-1.53,1.66-3.08-.22-4.22-1.18-8.78-7.35-17.66-14.61-26.18-22.26-26.45-23.75-51.83-48.7-79.3-71.32-1.02-.84-2.12-1.69-1.95-3.26,10.81,4.76,20.76,11.13,31.13,16.7,1.58.85,2.88,2.34,4.88,2.27.16.36.24.99.72.2-.23-.08-.47-.15-.7-.23-.51-4.62-3.36-8.23-5.69-11.88-15.72-24.75-27.11-51.86-42.07-77.02-2.68-4.51-5.96-8.82-7.04-14.16Z"/><path class="cls-13" d="M366.79,662.14c-1.39,22.19,2.61,43.62,10.42,64.17,6.56,17.25,14.3,33.98,27.9,47.38,18.54,18.26,35.25,38.17,50.54,59.24,1.63,2.25,5.1,4.96,1.78,7.67-3.44,2.81-5.23-1.21-6.95-3.39-16.69-21.13-35.58-40.21-56.26-57.31-15.19-12.56-23.24-28.9-28.81-46.89-7.25-23.45-10.05-47.52-8.14-72.05.58-7.48,1.82-14.87,3.56-22.17.42-1.77.89-3.7,2.69-4.59,1.45-.72,2.84-1.08,2.85,1.59.03,8.79.9,17.57.43,26.35Z"/><path class="cls-2" d="M701.85,661.19c.12-6.47,4.7-10.88,7.79-15.82,5.09-8.11,9.9-16.52,16.88-23.29,2.15-2.08,1.38-4.07.45-6.33-5.33-12.86-10.6-25.73-15.82-38.63-1.16-2.87-2.04-5.85-3.05-8.78-9.96-30.39-30.54-52.14-56.49-69.54-1.78-1.19-4.16-2.46-2.52-5.06,1.43-2.28,3.55-1.09,5.26,0,18.92,12.02,36.71,25.34,50.18,43.62,3.16,4.29,6.08,8.75,8.26,13.64,8.72,19.62,17.42,39.24,26.08,58.88.87,1.97,1.43,4.07,2.14,6.11,1.92,5.1.81,8.8-3.73,12.45-8.99,7.24-14.34,17.64-21.45,26.54-2.96,3.71-4.87,9.02-10.95,9.11-1.41-.54-3.17-.73-3.03-2.89Z"/><path class="cls-11" d="M709.44,264.15c-26.04-.85-51.15-4.81-74.39-18.03-10.16-5.78-22.33-7.39-33.25-11.94-11.2-4.67-22.71-8.59-33.98-13.12-3.63-1.46-9.31-2.51-7.72-8,1.65-5.68,6.84-3.05,10.69-2.27,17,3.46,33,10.57,49.86,14.23,15.36,3.34,28.07,11.86,42,17.99,11.83,5.21,24.89,5.71,37.03,9.75,4.56,1.52,9.38,2.25,14.05,3.47,2.4.63,5.28,1.23,4.94,4.57-.34,3.36-3.14,3.35-5.72,3.35-1.17,0-2.33,0-3.5,0Z"/><path class="cls-13" d="M339.46,555.2c.08-3.7,1-6.99,3.85-9.48,1.43-1.25,3.07-2.2,4.96-.92,1.68,1.14,1.56,2.79.86,4.46-.51,1.23-1.4,2.73-.15,3.68,1.65,1.26,2.72-.63,3.69-1.5,11.12-10.1,19.2-22.58,26.38-35.53,14.09-25.41,24.57-52.44,34.51-79.68,2.97-8.13,6.17-16.18,9.33-24.24.6-1.53,1.37-3.43,3.52-2.52,1.71.72,1.36,2.51.96,3.97-11.39,41.14-23.2,82.11-46.45,118.62-8.11,12.73-17.79,24.06-28.98,34.14-4.38,3.95-9.59,2.6-11.21-3.11-.72-2.54-.87-5.24-1.28-7.86Z"/><path class="cls-13" d="M534.67,487.13c6.19.39,11.89,1.36,16.11,6.12,1.62,1.84,3.9,2.28,5.93,1.99,4.91-.69,7.77,1.91,10.46,5.35,11.21,14.32,20.64,29.84,30.53,45.05,5.09,7.83,10.29,15.55,16.73,22.36,1.25,1.32,2.96,2.86,1.18,4.66-1.73,1.76-3.37.14-4.77-1.01-7.13-5.86-13.02-12.81-18.26-20.4-9.55-13.84-19.12-27.67-29.6-40.84-2.94-3.69-6.05-5.74-11.01-4.91-4.24.7-8.18-.09-11.05-4.07-1.52-2.11-4.3-2.36-6.85-2.4-9.3-.13-17.68,2.68-25.23,8.04-1.63,1.16-3.13,2.49-4.78,3.62-2.35,1.6-5.05,2.65-7.15.03-2.01-2.5-.73-5,1.19-7.16,9.8-11.02,22.53-15.46,36.56-16.43Z"/><path class="cls-8" d="M396.82,846.92c1.53.01,2.41,1,3.16,2.14,6.23,9.4,14.28,17.18,22.49,24.72,31.01,28.49,54.83,62.54,76.64,98.18,5.04,8.24,9.91,16.6,16.08,24.09.96,1.17,2.21,2.52.62,3.87-1.58,1.35-2.77-.14-3.76-1.21-5.42-5.9-10.36-12.18-14.81-18.85-15.07-22.59-29.89-45.37-47.85-65.87-13.09-14.94-28.15-27.92-41.95-42.16-5.36-5.53-10.49-11.23-13.35-18.53-1.48-3.77-.19-6.5,2.73-6.39Z"/><path class="cls-13" d="M510.47,650.67c3.89.45,8.19.85,12.46,1.48,2.29.33,4.32,1.45,3.95,4.19-.35,2.52-2.46,2.82-4.59,2.75-.66-.02-1.36.01-1.98-.16-12.85-3.52-21.22,3.58-28.8,12.29-2.18,2.51-4.22,5.33-7.77,2.87-3.51-2.43-2.74-6.15-.69-8.89,6.7-8.92,15.48-14.34,27.43-14.53Z"/><path class="cls-13" d="M565.62,462.94c-.78,2.65-2.8,2.32-4.75,1.64-4.38-1.54-8.77-3.06-13.04-4.86-6.59-2.78-13.24-5.28-20.44-5.96-1.15-.11-2.29-.41-3.4-.75-2.62-.81-4.71-2.3-3.85-5.35.82-2.91,3.43-3.5,6.02-2.91,5.81,1.3,11.72,2.38,17.01,5.35,6.36,3.57,12.79,7.02,19.59,9.7,1.45.57,2.74,1.23,2.84,3.15Z"/><path class="cls-8" d="M602.32,982.6c-.38-7.22,1.4-12.69,8.04-15.63,1.88-.83,3.81-2.03,5.38-.03,1.68,2.13.1,3.88-1.65,4.92-3.35,1.99-3.6,4.78-2.86,8.14.39,1.77.55,3.61.58,5.42.05,2.97-1.06,5.38-4.37,5.56-3.26.17-4.7-2.05-5.1-4.99-.18-1.3-.03-2.65-.03-3.39Z"/><path class="cls-13" d="M908.45,642.86c-5.21,4.66-8.6,10.78-12.9,16.16-8.47,10.6-17.72,20.76-23.58,33.12-8.14,17.2-12.31,35.69-15.92,54.26-2.58,13.3-2.68,26.92-5.76,40.24-2.13,9.22,1.06,18.74,2.08,28.11.6,5.59,1.06,11.19,1.56,16.79.17,1.92-.11,3.68-2.12,4.62-1.33-.86-1.14-2.31-1.35-3.58-2.51-15.13-5.94-30.06-9.59-44.95-.47-1.91-.87-4.05-.48-5.92,4.21-20.37,4.81-41.37,11.12-61.38,4.36-13.84,7.91-28.04,16.16-40.19,10.68-15.72,22.84-30.32,35.77-44.25,9.29-10.01,18.34-20.28,29.29-28.59,1.72-1.31,3.39-2.76,5.58-3.19,1.11-.22,2.5-.44,3.13.84.82,1.68-1,1.64-1.75,2.36-7.94,7.54-15.33,15.58-21.79,24.43-2.82,2.34-4.87,5.33-6.96,8.29,0,0,.11-.1.11-.1-1.66.27-1.59,2.07-2.59,2.92Z"/><path class="cls-13" d="M849.98,863.91c1.31,1.81,1.14,3.72,1.11,5.93-.13,10.8-.76,21.55-2.16,32.24-3.14,23.94-5.05,48.13-13.83,70.99-.7,1.83-1.58,3.7-1.18,5.79-2.16,8.37-3.65,16.92-6.63,25.06-.65,1.77-1.14,4.43-3.81,3.7-2.47-.67-1.29-3.07-1.16-4.75,1.47-18.65,6.32-36.66,10.13-54.89,5.31-25.39,9.69-50.96,10.81-76.97.18-4.19,1.41-7.64,6.72-7.1Z"/><path class="cls-10" d="M910.93,640.03c2.09-2.95,4.14-5.95,6.96-8.29.41.44.82.88,1.23,1.31-2.3,2.83-4.93,5.26-8.18,6.98Z"/><path class="cls-13" d="M939.96,752.53c4.14-4.88,10.09-6.91,15.54-9.64,5.34-2.67,10.85-5.04,16.41-7.2,2.72-1.06,6.36-3.57,8.32.48,1.8,3.72-2.21,5.07-4.56,6.56-7.86,4.98-15.71,9.99-23.84,14.48-7.27,4.01-11.85,9.94-14.71,17.49-.53,1.4-.95,2.87-1.71,4.14-1.22,2.04-.92,6.54-4.42,5.25-3.39-1.25-.63-4.72-.09-7.02,1.35-5.75,2.64-11.55,5.2-16.94,2.87-1.72,2.78-4.95,3.87-7.58Z"/><path class="cls-14" d="M948.06,672.36c.33,4.71-2.02,8.89-3.94,13.04-3.29,7.14-8.15,13.26-13.75,18.78-.92.9-1.87,2.23-3.36,1.11-1.43-1.08-1.44-2.77-.47-4.02,7.2-9.26,8.55-20.24,9.55-31.38.33-3.6,2.61-6.03,6.3-5.67,4.54.44,5.77,3.87,5.65,8.14Z"/><path class="cls-14" d="M948.05,793.9c-.04-1.16-.14-2.33-.1-3.49.17-4.22,3.65-6.93,6.99-4.7,6.08,4.07,11.2,1.67,16.2-1.4,7.5-4.61,15.69-7.13,24.18-8.87,3.58-.73,7.28-.98,10.85.2,2.99.99,5.61,2.64,5.68,6.16.07,3.63-2.24,5.87-5.51,6.89-6.81,2.14-13.77,3.84-20.19,7.12-1.62.83-3.36,1.45-4.88,2.43-6.63,4.24-13.63,6.72-21.62,5.08-3.87-3.14-7.73-6.27-11.6-9.41Z"/><path class="cls-7" d="M916.12,906.19c-3.2.06-5.05-1.11-6.22-3.38-1.09-2.12-.86-4.18.4-6.12,1.81-2.79,4.76-4.36,7.61-5.34,5.38-1.86,10.67.43,15.8,1.91,1.91.55,2.03,3.31.31,3.92-5.86,2.08-10.37,6.5-16.06,8.76-.74.3-1.63.23-1.83.26Z"/><path class="cls-13" d="M908.01,853.02c2.98,1.83,3.45,4.44,2.63,7.66-2.01,7.99-6.61,14.65-10.78,21.54-1.06,1.74-2.62,1.76-4.31,1.62.16-9.8,4.02-18.73,6.69-27.93.7-2.41,3.24-3.12,5.77-2.89Z"/><path class="cls-8" d="M968.26,822.15c-6.04-.1-9.6-2.54-9.28-6.1.27-3.08,2.27-4.19,5.16-4.09,4.27.15,10.04,3.63,9.78,6.09-.4,3.75-3.28,4.07-5.65,4.1Z"/><path class="cls-10" d="M908.45,642.86c1-.85.93-2.66,2.59-2.92-.86.98-1.73,1.95-2.59,2.92Z"/><path class="cls-8" d="M359.92,1323.82c7.47-.56,12.88,2.58,16.78,8.75,1.33,2.1,2.96,4.01,4.47,5.99,1.66,2.16,2.86,4.52,2.81,7.3-.03,1.59.3,3.65-1.88,4.07-1.88.36-2.45-1.43-2.99-2.78-2.03-5.08-5.75-9.01-9.45-12.73-5.01-5.03-11.65-5.02-18.25-4.01-1.7.26-3.9,1.75-4.79-.58-.92-2.39,1.46-3.41,3.2-4.32,3.19-1.68,6.67-1.9,10.11-1.68Z"/><path class="cls-8" d="M414.22,1268.91c-.4,8.79-9.29,19.78-17.42,21.88-1.39.36-3.14.91-3.99-.84-.8-1.67.53-2.84,1.65-3.8,2.01-1.74,4.16-3.31,6.19-5.02,3.93-3.32,6.61-7.44,7.71-12.52.44-2.01,1.04-4.28,3.57-4.01,2.82.29,2.06,2.9,2.29,4.32Z"/><path class="cls-8" d="M419.65,1367.17c-2.69,2.56-5.46,5.04-8.06,7.69-5.77,5.86-6.26,13.45-6.6,21.03-.03.76.58,1.65-.14,2.27-.76.66-1.58,0-2.27-.36-1.85-.98-3.11-2.34-3.26-4.62-.83-12.16,6.11-22.64,17.66-26.6.82-.28,1.53-.56,2.67.59Z"/><path class="cls-8" d="M446.34,1318.28c5.46,3.78,10.66,7.49,15.98,11.03,2.92,1.94,6.35,1.61,9.67,1.63,1.23,0,2.96-.36,3.12,1.55.15,1.84-1.7,1.88-2.83,2.21-4.98,1.47-9.92,1.35-14.31-1.69-3.91-2.72-8.37-4.88-10.83-9.31-.89-1.59-2.05-3.11-.8-5.41Z"/><path class="cls-8" d="M371.78,1406.31c3.43.08,12.35,14.23,11.1,16.84-.94,1.96-2.34,2.2-3.97.77-4.04-3.58-6.96-7.99-9.15-12.86-1.08-2.41-.09-4.12,2.02-4.74Z"/><path class="cls-8" d="M449.49,1280.96c-3.09,8.44-10.36,14.89-7.85,24.91-3.64-.76-4.08-3.2-4.25-5.84-.41-6.62,3.5-16.17,12.09-19.07Z"/><path class="cls-8" d="M334.37,1305.07c-1.47-.67-3.78.44-4.36-1.58-.49-1.71.92-3.28,2.35-4.07,3.94-2.17,8.23-3.47,12.63-4.38,1.19-.25,2.43.11,3.07,1.21.87,1.48-.66,2.06-1.42,2.73-3.54,3.1-7.43,5.58-12.27,6.09Z"/><path class="cls-8" d="M404.86,1411.18c-.32,1.8-1.14,3.26-2.61,4.17-4.09,2.54-8.23,4.98-12.36,7.45-.74.44-1.53.76-2.19-.1-.59-.76-.43-1.71.06-2.32,4.05-5.06,9.52-8.17,15.33-10.71,1.29-.56,1.73.43,1.77,1.51Z"/><path class="cls-8" d="M331.35,1329.88c-3.14-.18-8.46-4.99-8.29-7.57.14-2.17,1.34-3.34,3.53-3.31,2.73.04,7.68,6.24,7.29,9.15-.19,1.46-1.26,1.79-2.54,1.72Z"/><path class="cls-8" d="M361.53,1392.05c.35-2.12,1.12-3.76,2.23-5.24,1.65-2.19,3.95-4.66,6.47-2.99,2.11,1.4-.66,3.72-1.34,5.57-.56,1.52-1.61,2.89-2.61,4.19-.86,1.12-1.72,2.68-3.58,1.7-1.47-.77-1.15-2.22-1.17-3.24Z"/><path class="cls-8" d="M375.16,1299.13c-2.4-.03-4.58-.44-4.98-2.79-.43-2.57,1.9-3.14,3.78-3.83.16-.06.31-.13.47-.16,3.09-.39,6.24-1.36,9.13.68.66.47.41,1.28-.02,1.76-2.3,2.59-5.15,4.14-8.38,4.33Z"/><path class="cls-8" d="M356.99,1292.82c2.75.2,6.59.94,7.14,4.51.32,2.08-3.53,2.33-5.67,2.43-2.7.13-5.53-.58-6.04-3.82-.43-2.75,1.77-3.09,4.57-3.13Z"/><path class="cls-8" d="M433.4,1246.68c1.56-.03,3.65.21,3.04,2.13-1.27,4.01-5.37,3.8-8.63,4.57-1.5.35-3.08-.26-3.4-2.1-.39-2.23,4.21-4.54,8.99-4.59Z"/><path class="cls-8" d="M481.88,1373.23c-1.53.07-3.14.06-3.49-1.86-.31-1.72.72-2.92,2.28-3.33,2.85-.73,5.75-1.29,8.65-1.77.47-.08,1.25.44,1.55.9.53.82-.09,1.49-.64,2.14-1.34,1.58-6.08,3.83-8.36,3.92Z"/><path class="cls-8" d="M374.44,1377.17c2.43-2.96,1.76-5.41,1.82-7.8.04-1.55.23-3.14,2.13-3.42,1.97-.29,3.02.96,3.63,2.68,1.37,3.89-.75,6.73-7.58,8.54Z"/><path class="cls-8" d="M447.75,1271.99c.35-2.59.58-4.93,3.55-4.86,2.14.04,3.3,1.49,3.35,3.56.07,2.79-1.93,4.41-4.21,4.78-2.64.42-2.05-2.34-2.69-3.47Z"/><path class="cls-8" d="M448.2,1261.31c.23,1.68-.73,1.97-1.81,1.73-2.89-.66-6.2-.98-6.44-4.97-.1-1.7.95-3.04,2.71-2.9,3.75.31,4.15,3.82,5.54,6.14Z"/><path class="cls-8" d="M455.65,1367.9c-1.97-1.33-5.75-.74-6.55-4.46-.32-1.51.82-2.39,2.43-2.38,1.61,0,6.55,4.36,6.41,5.68-.12,1.08-.96,1.16-2.29,1.16Z"/><path class="cls-8" d="M435.71,1362.87c-2.25.03-4.17-.18-4.2-2.63-.03-1.88,1.71-2.79,3.06-2.2,2.03.88,5.7-.47,5.91,2.37.17,2.37-2.98,2.38-4.77,2.46Z"/><path class="cls-8" d="M420.51,1256.69c-.71,2.45-2.47,3.38-4.86,3.43-1.2.03-2.49.15-2.23-1.68.37-2.62,1.8-4.32,4.56-4.26,1.38.03,2.49.85,2.52,2.5Z"/><path class="cls-8" d="M465.3,1376.12c-1.91.08-3.53-.24-3.67-2.47-.09-1.41.99-2.5,2.16-2.01,1.83.77,4.9.43,5.11,2.96.15,1.83-2.39,1.04-3.6,1.52Z"/><path class="cls-9" d="M319.76,1313.16c-1.43.13-2.51-.27-2.26-1.47.55-2.6,2.65-3.53,5.06-3.78.85-.08,2.46-.23,2.01,1.15-.75,2.3-2.91,3.36-4.8,4.09Z"/><path class="cls-4" d="M636.02,1115.98c.23.08.47.15.7.23-.48.79-.56.16-.72-.2,0,0,.02-.03.02-.03Z"/></svg>