<?xml version="1.0" encoding="UTF-8"?><svg id="Capa_1" xmlns="http://www.w3.org/2000/svg" width="570.09mm" height="570.09mm" viewBox="0 0 1616 1616"><defs><style>.cls-1{fill:#524d3d;}.cls-1,.cls-2,.cls-3,.cls-4,.cls-5,.cls-6,.cls-7,.cls-8,.cls-9,.cls-10,.cls-11,.cls-12,.cls-13,.cls-14{stroke-width:0px;}.cls-2{fill:#514c3c;}.cls-3{fill:#141313;}.cls-4{fill:#efd891;}.cls-5{fill:#f6de95;}.cls-6{fill:#534e3d;}.cls-7{fill:#524d3c;}.cls-8{fill:#f3dc94;}.cls-9{fill:#efefef;}.cls-10{fill:#111;}.cls-11{fill:#f2db93;}.cls-12{fill:#f5dd94;}.cls-13{fill:#4f4b3b;}.cls-14{fill:#0d0c08;}</style></defs><path class="cls-6" d="M620,1616h-31c1.63-7.18.08-14.65,1.88-21.78,4.65-18.4,7.65-36.99,8.46-56.01.25-5.91.39-11.92,1.26-17.87,1.47-10.01,2.36-20.1,3.4-30.16,1.36-13.2,1.74-26.5,4-39.61,4.02-23.31,11.43-45.4,23.61-65.77,10.36-17.32,22.68-33.19,35.57-48.68,19.57-23.52,40.33-45.99,60.23-69.23,11.01-12.86,22.78-25.12,32.58-39.01.35,0,.7-.01,1.05-.02.36,6.66-.85,13.24-1.07,19.86-.04,1.27-.3,2.89,1.67,3,1.4.08,2.12-.94,2.27-2.19,1.47-11.63,8.07-21.33,12.29-31.89,3.35-8.38,3.94-17.49,7.94-25.6,1.39-2.82,2.29-5.83,2.99-8.94,3.88-17.11,4.48-34.75,8.69-51.83,2.38-9.65,3.89-19.63,2.94-29.59-.74-7.81-.25-15.63-.91-23.39-.84-9.89-.8-19.9-3.05-29.64-2.46-10.59-2.5-10.58,8.1-10.79,0,0,.24.24.24.24-.05,3,.05,6.01-.19,8.99-.92,11.43,2.91,21.12,10.2,29.8,3.62,4.31,6.84,9,9.91,13.73,3.89,6,7.35,12.18,8.04,19.61,1.03,11.23-3.98,19.87-11.09,27.75-2.7.6-5.07,2.41-8,2.16-4.44-.98-2.58-4.46-2.82-7.11.91-1.62,1.75-4-.37-4.44-2.06-.43-1.62,2.32-1.9,3.85-.03.16-.03.33-.04.5-2.93,7.92-1.3,13.46,5.23,15.44,4.43,1.34,9.08,1.43,13.42-1.33,16.59-10.55,24.25-36.12,16.87-55.41-3.17-8.29-7.73-15.79-11.87-23.53-10.06-18.81-4.48-38.69,6.11-49.34,1.7-1.71,5.73-3.54,3.59-6.03-1.97-2.3-4.98.66-7.22,2.26-1.71-.05-1.39.96-1.04,1.99-.83.01-1.67-.08-2.48.05-14.64,2.3-28.91,1.59-42.45-5.13-.92-1-2.06-1.34-2.69.04-.66,1.44.43,2.37,1.68,2.99,4.76,5.58,11.8,6.34,18.12,8.63,1.61.59,4.81.02,3.65,3.26-.94,2.6-1.33,6.53-5.48,5.96-4.2-.58-8.49-.8-12.23-3.63-6.82-5.15-13.16-10.79-18.27-17.61-11.12-14.84-20.29-30.82-26.59-48.33-4.49-12.47-8.15-25.17-10.23-38.47,1.46.44,1.64,1.52,2.04,2.38,7.74,16.9,18.19,32.15,29.17,47.01,11.46,15.51,24.74,29.14,42.45,37.79,4.64,2.27,9.22,3.66,14.35,2.96.94.03,2.32.42,2.53-.69.33-1.74-1.24-1.95-2.55-2.15l-.04-.03c-.29-.68-.59-1.37-.88-2.05-.64-3.55,1.82-6.1,2.92-9.09.75.3,1.67.43,2.23.94,8.88,8.13,19.52,10.84,31.23,10.15,3.81-.22,7.55-1.01,10.89-3,.97-.57,1.87-1.58,1.31-2.91-.6-1.4-1.91-1.29-2.97-.81-1.91.86-3.9.68-5.87.75-12.42.49-23.25-4.47-33.93-9.93,1.75-4.13,3.5-8.26,5.25-12.38.29.11.6.17.92.15,2.44,3.62,5.45,6.72,9.18,8.96,17.68,10.62,36.53,10.17,55.75,5.6,2.64-.63,3.71-2.62,3.21-5.35,6.05-.12,12.09-.49,17.92-2.25,3.14-.95,4.95-2.68,2.78-6.13,3.07-.04,6.02,2.63,9.2.43.79-.19,1.58-.42,1.71-1.38.17-1.25-.73-1.61-1.69-1.88-8.41-5.23-17.8-9.01-24.83-16.27-14.34-14.81-26.47-31.08-32.41-51.2-2.1-7.12-4.31-14.08-1.16-21.78,8.72-21.33,17.16-42.79,21.33-65.61.33.01.67.03,1,.04,2.04,13.28,4.92,26.39,9.98,38.86,7.27,17.91,17.57,34.21,27.86,50.48,5.06,7.99,10.13,16.21,17.6,22.04,7.1,5.55,13.31,11.4,16.73,19.88,1.21,3.01,3.31,4.96,6.84,4.71-2.52,11.88-3.7,23.74.25,35.6,2.28,6.85,4.38,13.76,6.56,20.64-5.11,3.47-6.55,2.89-7.8-3.34-.9-4.47-2.26-8.75-5.4-12.16-4.86-5.29-5.63-11.48-4.42-18.18.51-2.81,1.01-5.61.31-9.18-1.35,2.52-2.35,4.4-3.36,6.28-12.7,23.6-22.72,48.51-35.46,72.1-3.85,7.13-7.62,14.41-9.71,22.35-2.74,1.49-5.97,2.69-3.98,6.91-2.49,7.29-7.17,13.62-9.23,21.1-2.04-.35-3.63-1.57-5.24-2.74-1.98-1.44-3.9-1.51-5.96-.11-6.58,4.47-13.22,8.87-19.8,13.35-1.85,1.26-3.75,2.99-2.09,5.28,1.65,2.28,4,.94,5.79-.25,4.7-3.12,9.84-5.85,13.75-9.79,4.17-4.2,7.18-4.26,10.76.06-2.82,10.37-7.79,19.95-10.99,30.18-2.55,2.98-4.16,3.04-6.21-.9-2.26-4.35-5.51-8.22-8.54-12.13-.79-1.02-2.25-2.58-3.73-1.39-1.33,1.06-.03,2.48.68,3.5,3.41,4.89,6.73,9.8,9.16,15.29,1.05,2.37,3.1,3.86,5.92,3.8-2.9,10.93-5.86,21.85-8.68,32.81-3.82,14.82-7.81,29.7-9.24,44.92-1.91,20.5,2.12,40.81,3.86,61.18.19,2.18.51,3.57,3.26,2,4.86-2.77,9.26-1.26,13.4,1.95,1.2.93,1.88,2.75,4.03,2.58-.07-.74-.07-1.4-.21-2.03-3.77-17.21-5.51-34.52-2.7-52.07,1.08-6.74,2.48-13.42,4.59-19.92,1.15-3.57,3.19-6.33,7.47-6.07,4.28.25,5.85,3.35,6.8,6.9.47,1.76.84,3.58,1.04,5.39,1.22,10.94,3.66,21.64,6.18,32.34,6.29,26.65,16.27,51.95,31.33,74.7,12.75,19.26,26.53,37.96,41.77,55.42,8.48,9.71,18.14,18.09,30.45,22.9,3.87,1.51,7.52,3.55,10.33,6.81,4.63,5.36,4.86,10.54.69,16.32-3.93,5.44-9.67,7.36-15.92,8.25-2.53.36-4.66.66-5.51,3.85-.79,2.97-3.49,4.24-6.57,4.52-8.49.78-13.63,6.6-13.66,15.19-.03,7.23,2.63,13.65,5.62,20.02,6.94,14.83,16.78,27.95,24.7,42.23,15.17,27.35,22.15,56.9,25.71,87.55h-416c2.89-11.59,5.75-23.15,7.22-35.07,1.53-12.5,3.79-24.9,5.01-37.46,1.05-10.73,6.53-20.17,9.82-30.26,8.66-26.57,22.53-50.74,34.62-75.73,6.66-13.78,15.37-26.42,21.6-40.5,5.56-12.57,11.03-25.35,19.83-36.24,6.54-8.09,9.83-18.12,15.61-26.68.76-1.12,2.17-3.24.54-4.54-1.89-1.5-2.79.93-3.97,1.86-4.41,3.48-8.43,7.37-11.89,12.02.38-2.67,1.22-5.07,2.14-7.45,5.24-13.47,10.91-26.79,14.86-40.73.48-1.68,1.66-3.87-.43-4.88-1.76-.85-3.45.8-4.7,2.11-1.13,1.2-2.04,2.62-2.96,4.01-4.41,6.69-8.12,13.77-11.46,21.03-5.81,12.67-12.31,25.07-14.59,39.1-.95,5.83-1.11,11.84-4.55,17.14-8.04,12.39-14.31,25.83-23.67,37.48-18.97,23.61-29.59,51.5-38.74,79.92-7.99,24.8-14.15,50.04-17.55,76-2.13,16.28-3.83,32.59-5.72,48.88ZM759.06,1385.29c.4,1.79.82,3.91,2.35,5.58,3.54,3.88,7.67,6.81,12.84,8.19,5.62,1.5,11.52,1.29,17.08,3.17,19.18,6.47,36.81,15.17,52.56,28.55,17.77,15.09,38.83,25.53,59.72,35.85,2.8,1.38,5.93,2.12,8.93,3.07,1.51.48,3.06.46,3.95-1.14.95-1.72-.26-2.89-1.41-3.82-2.71-2.19-5.35-4.54-8.32-6.3-20.07-11.92-38.28-26.33-56.13-41.28-21.76-18.23-45.75-31.29-75.17-31.05-4.46.04-8.59-1.01-12.11-3.8-.95-.75-1.63-1.73-2.95-.88-1.3.84-1.42,2.16-1.34,3.87ZM990.62,1443.17c3.49.48,6.65-1.11,9.97-1.18,1.46-.03,3.61.34,3.81-1.45.26-2.26-2.31-2.18-3.67-2.36-14.61-1.88-25.92-9.52-35.92-19.82-10.2-10.5-20.26-21.21-32.07-29.97-6.13-4.55-12.27-9.14-19.17-12.54-1.41-.7-2.88-1.27-4,.35-1.12,1.63,0,2.82,1.1,3.89.71.69,1.54,1.27,2.3,1.9,8.16,6.82,16.49,13.48,23.73,21.33,2.59,2.81,4.77,5.97,7.82,8.38,5.11,4.03,9.41,8.88,13.79,13.68,8.74,9.59,19.11,16.36,32.31,17.79ZM942.59,974.87c2.84,0,5.57-.7,7.97-2.31,1.82-1.22,1.87-3.12,1.06-4.91-.75-1.67-2.12-1.8-3.77-1.07-1.74.77-3.61.55-5.39.03-7.07-2.09-13.6-5.29-19.79-9.32-11.01-7.17-18.24-17.81-26.1-27.88-.86-1.11-1.7-2.89-3.54-1.71-1.53.98-.43,2.39-.06,3.6,2.63,8.71,6.86,16.55,12.62,23.59,9.59,11.72,21.35,19.42,37,19.98ZM961.95,964.95c.5,0,1,.02,1.5,0,2.42-.13,4.36-1.11,4.48-3.73.14-2.96-2.32-1.98-3.97-2.29-5.58-1.06-10.83-3.17-15.98-5.5-15.5-7.02-27.21-18.26-36.14-32.58-.85-1.37-1.8-3.34-3.76-2.48-1.98.87-1.2,2.89-.61,4.39,9.38,23.89,28.49,39.67,54.48,42.19ZM765.02,1260.55c.15-1.64-.64-3.28-2.46-4.11-2.18-1-4.11-.39-5.86,1.31-5.86,5.7-8.84,19.74-5.84,27.39.68,1.74,1.47,3.02,3.49,2.82,2.44-.24,2.9-2.08,2.64-4.01-.84-6.11,2.2-10.87,5.15-15.71,1.38-2.27,2.88-4.49,2.89-7.7ZM669.36,1345.92c-1.98.02-3.63.3-4.15,2.29-.65,2.48.16,4.73,2,6.28,3.94,3.32,8.89,4.94,13.37,7.37,1.1.6,2.65.32,3.63-.83.87-1.03.96-2.39-.06-3.11-4.36-3.06-7.33-7.51-11.29-10.95-1.01-.88-2.36-1.15-3.5-1.05Z"/><path class="cls-10" d="M975.01,961.98c-3.53.25-5.63-1.7-6.84-4.71-3.42-8.47-9.63-14.33-16.73-19.88-7.47-5.84-12.54-14.05-17.6-22.04-10.3-16.27-20.59-32.56-27.86-50.48-5.06-12.47-7.94-25.57-9.98-38.86-.06-.74-.12-1.48-.18-2.22-.2,0-.4,0-.59,0l-.22,2.19c-4.16,22.83-12.6,44.28-21.33,65.61-3.15,7.7-.94,14.66,1.16,21.78,5.93,20.13,18.07,36.39,32.41,51.2,7.03,7.26,16.42,11.04,24.83,16.27,0,1.09-.01,2.17-.02,3.26-3.17,2.2-6.12-.47-9.19-.43-.28-.23-.56-.46-.84-.68-3.61-1.16-7.26-2.03-10.77-3.65-10.24-4.74-16.81-13.52-23.82-21.61-10.94-12.61-18.11-27.32-21.4-43.8-.09-.4-.19-.8-.28-1.2-.24.24-.49.48-.73.71-.83,1.22-1.86,2.36-2.46,3.69-3.63,8-7.23,16.01-10.71,24.08-4.15,9.62-9.56,18.53-15.07,27.4-1.15,1.85-2.67,3.91-.48,6.3,5.73,6.25,12.24,11.4,20.76,12.91,14.17,2.51,28.38,4.93,42.88,4.15.74.03,1.48.05,2.22.08.51,2.73-.57,4.73-3.21,5.35-19.21,4.56-38.07,5.02-55.75-5.6-3.73-2.24-6.74-5.34-9.18-8.96-.31-.05-.61-.1-.92-.15-1.75,4.13-3.5,8.26-5.25,12.38-1.14,1.5-2.6,2.8-2.88,4.81-1.09,2.99-3.55,5.55-2.92,9.09-1.59,1.5-.41,1.8.88,2.05,0,0,.04.03.04.03,0,.95.01,1.9.02,2.85-5.13.7-9.71-.69-14.35-2.96-17.72-8.65-30.99-22.28-42.45-37.79-10.98-14.86-21.43-30.1-29.17-47.01-.39-.86-.58-1.95-2.04-2.38,2.08,13.3,5.75,25.99,10.23,38.47,6.3,17.51,15.47,33.48,26.59,48.33,5.11,6.82,11.45,12.45,18.27,17.61,3.74,2.83,8.03,3.04,12.23,3.63,4.15.57,4.54-3.36,5.48-5.96,1.17-3.23-2.04-2.67-3.65-3.26-6.32-2.3-13.36-3.06-18.12-8.63.34-1.01.68-2.02,1.01-3.03,13.55,6.72,27.81,7.44,42.45,5.13.81-.13,1.65-.04,2.48-.05.84-.41,1.01-1.16,1.04-1.99,2.24-1.6,5.25-4.56,7.22-2.26,2.14,2.49-1.89,4.32-3.59,6.03-10.59,10.65-16.17,30.53-6.11,49.34,4.14,7.75,8.7,15.24,11.87,23.53,7.38,19.29-.28,44.86-16.87,55.41-4.34,2.76-9,2.67-13.42,1.33-6.53-1.98-8.16-7.52-5.23-15.44.77.03,1.53.06,2.3.09.24,2.65-1.62,6.13,2.82,7.11,2.71,5.85,6.89.76,10.48,2.35-.37-2.53-2.74-2.66-2.49-4.51,7.11-7.88,12.13-16.52,11.09-27.75-.69-7.43-4.15-13.61-8.04-19.61-3.07-4.73-6.28-9.42-9.91-13.73-7.29-8.68-11.11-18.37-10.2-29.8.24-2.98.13-5.99.19-8.99.11-.19.22-.38.33-.57-.19.11-.38.22-.57.33-10.6.21-10.56.2-8.1,10.79,2.26,9.74,2.21,19.75,3.05,29.64.66,7.76.17,15.58.91,23.39.95,9.96-.57,19.94-2.94,29.59-4.2,17.08-4.81,34.72-8.69,51.83-.71,3.11-1.6,6.12-2.99,8.94-4,8.11-4.59,17.23-7.94,25.6-4.22,10.57-10.82,20.26-12.29,31.89-.16,1.25-.87,2.27-2.27,2.19-1.98-.11-1.71-1.74-1.67-3,.22-6.63,1.44-13.2,1.07-19.86,0-.28,0-.56,0-.85.06-.16.13-.32.19-.47l-.27.39c-.33.31-.65.63-.98.94-9.79,13.89-21.56,26.14-32.58,39.01-19.89,23.23-40.65,45.71-60.23,69.23-12.89,15.49-25.21,31.36-35.57,48.68-12.19,20.37-19.6,42.46-23.61,65.77-2.26,13.11-2.64,26.41-4,39.61-1.04,10.07-1.93,20.16-3.4,30.16-.88,5.95-1.01,11.96-1.26,17.87-.81,19.02-3.81,37.6-8.46,56.01-1.8,7.12-.25,14.6-1.88,21.78h-17c-1.29-.69-.52-1.71-.39-2.6,2.3-16.07,4.62-32.12,7.67-48.07.83-4.38,1.11-8.86,1.65-13.29,1.03-.61,1.16-1.28.12-2.02-.21-3.37.15-6.7.89-9.99,1.04-.63,1.13-1.3.09-2.02-.29-3.71.18-7.35.89-10.97,1.06-.64,1.14-1.32.08-2.04-.29-6.37.87-12.61,1.91-18.83,3.26-19.4,3.37-39.16,6.85-58.53,5.88-32.82,18.82-62.58,38.34-89.61,18.58-25.71,39.89-49.09,61.03-72.63,20.81-23.17,41.65-46.3,62.33-69.58,6.87-7.73,12.33-16.5,17.63-25.39,5.88-9.86,8.66-20.54,8.84-31.82.19-11.61,3.95-22.55,5.46-33.91.81-6.1,2.11-12.18,2.06-18.31-.15-19.63-.97-39.21-2.79-58.8-.83-8.91-3.88-12.88-11.79-15.47-5.72-1.87-10.9-5.37-16.42-8.19-1.48,6.65,1.64,11.82,4.05,17,3.99,8.56,6.43,17.52,7.12,26.83.52,7.09-2.05,13.62-6.34,19.36-.91-.1-1.79-.24-2.29-1.15.66-3.32,1.33-6.63,1.99-9.95,1.29-.81,1.08-1.47-.2-2.02-1.51-10.58-6.95-19.2-13.48-27.32-5.13-6.38-9.89-12.97-11.75-21.2-.64-2.83-1.21-5.74-.17-8.36,1.31-3.3-.3-4.62-2.58-6.44-13.94-11.09-28.31-21.64-41.69-33.45-16.37-14.45-25.02-32.91-29.08-53.87-2.38-12.27-3.58-24.7-4.17-37.18-.2-4.2-.89-8.12-3.19-11.83-4.79-7.73-7.57-16.23-8.82-25.25-.78-5.65-2.98-10.86-4.94-16.16-7.95-21.53-9.24-43.7-6.86-66.39,2.45-23.34,8.46-45.4,20.97-65.43,1.3-2.08,1.23-3.13-1.21-3.91-1.57-.5-3.01-1.41-4.56-2.03-23.99-9.64-39.1-27.45-47.46-51.5-.54-1.57-1.19-3.09-1.8-4.64-.13-1.38.47-2.92-.91-4.01.03-1.97-1-3.37-2.21-4.84-2.63-3.19-5.4-6.26-7.06-10.18-6.24-14.73-5.32-29.73-.42-44.32,5.29-15.75,14.28-28.99,28.95-38.08,7.99-4.95,17.76-5.7,25.09-11.79,1.19-.99,3.84-1.05,3.21-3.14-.6-1.99-2.96-2.84-4.95-2.61-3.44.4-6.89,1.07-10.21,2.03-8.72,2.53-17.96,3.74-25.49,9.44-12.68,9.59-22.18,21.24-25.56,37.35-4.3,20.49-4.53,40.2,8.54,58.05,1.17,1.6,2.26,3.26,3.38,4.9l-4.49.22c-9.52-8.14-13.56-19.26-15.58-30.97-2.25-13.04-2.1-26.19,2.17-39.01,8.85-26.59,26.26-42.98,54.81-46.16,1.81-.2,3.6-.55,5.28-.82.54-1.25-.36-1.71-.88-2.19-14.94-13.75-14.61-30.57-8.94-47.92,8.96-27.4,28.69-45.07,54-57.12,14.72-7.01,30.2-11.24,46.71-11.11,6.6.05,12.85,1.29,19.19,4.22.27-14.42,7.49-24.67,18.52-32.55,12.05-8.62,25.76-11.79,40.25-10.09,19.69,2.31,38.34,8.33,55.22,18.96,5.83,3.67,12.77,4.74,18.44,8.66.74.51,2.27.05,3.39-.19,8.01-1.74,16-3.63,24.02-5.3,16.48-3.43,32.47-3.69,46.61,7.53,7.66,6.07,12.49,14.05,15.88,23.04-1.24,1.04-1.2,2.04.1,2.99-.62,2.22.87,2.88,2.53,3.47,19.49,6.92,30.09,21.58,35.38,40.81.94,3.41,2.55,6.37,4.76,9.18,12.39,15.75,22.28,32.9,25.65,52.89,1,5.97,2.84,8.98,8.71,10.73,16.92,5.02,27.12,18.6,36.34,32.08,6.32,9.24,13.21,18.02,19.64,27.15,18.94,26.88,31.61,56.35,38.1,88.67,6.75,33.67,3.51,66.19-8.95,98-1.35,3.45-3.14,6.59-5.38,9.6.78.67,1.46,1.46,2.31,1.95,9.75,5.63,11.55,8.93,7.89,19.81-4.48,13.32-6.53,26.84-5.79,40.77.64,11.99,3.02,23.75,5.32,35.51,3.59,18.39,3.7,36.72-1.39,54.9-.22.79-.72,1.99-.38,2.37,3.74,4.17,1.74,8.93,1.3,13.38-1,10.15-.36,20.32-.85,30.44-1.3,27.02-7.75,52.92-19.34,77.42-13.32,28.18-32.5,52.29-53.69,74.75-6.93,7.35-14.96,14.29-25.24,17.29-1.7.5-1.71,1.71-2.03,3.01-10.54,42.5-19.04,85.42-26.52,128.54-1.96,11.3-2.6,22.84-2.31,34.37.06,2.33.46,4.79-.12,6.98-3.52,13.29,5.29,20.39,13.8,27.38,5,4.1,10.81,7.17,16.72,9.9,10.07,4.65,18.56,10.89,23.68,21.2,3.34,6.73,10.76,9.8,15.21,15.69,5.41,7.15,13.03,11.81,20.19,16.95,13.65,9.8,25.11,21.84,35.33,35.08,4.24,5.49,6.52,11.89,8.23,18.57,6.12,23.91,9.81,48.28,13.91,72.58,2.05,12.13,4.85,24.18,4.91,36.58-1.29,1.08-1.33,2.08.18,2.99.82,4.3,1.06,8.64.85,13-1.35,1.72-1.69,3.4.18,5,.28,4.33.57,8.66.85,12.99h-20c.56-16.32.99-32.7-.88-48.9-3.61-31.25-7.75-62.46-14.14-93.3-1.06-5.13-3.12-9.79-6.47-13.89-9.2-11.25-18.58-22.54-30.84-30.4-12.71-8.14-20.8-20.87-32.36-30.02-1.39-1.1-2.58-2.72-3.3-4.35-4.27-9.61-11.97-14.99-21.36-19.09-13.9-6.06-26.46-14.33-34.96-27.3-10.33-15.77-16.54-33.4-20.8-51.58-4.3-18.39-5.41-37.17-5.1-56.09.45-27.73,4.5-54.66,15.8-80.21,1.1.05,2.21.1,3.31.14.12,2.16-.05,4.25-.45,6.41-3.91,21.01-7.16,42.08-6.47,63.58.31,9.77,1.26,19.49,1.9,29.23,1.13,17.1,3.86,33.85,10.07,49.92.39,1.19-.67,2.69,1,3.94v-4.19c.19-6.93-.05-13.84.65-20.8.92-9.19,2.87-18.18,4.29-27.27,2.81-17.6,7.03-34.91,10.48-52.38,1.86-9.44,5.51-18.52,5.72-28.28,2.31-.6,2.25-2.78,2.64-4.41,5.11-21.29,8.6-42.89,12.53-64.42,5.81-31.8,12.96-63.34,20.87-94.7,3.16-12.53,6.11-25.11,9-37.7,1.82-7.91,3.28-15.91,5.07-23.83.47-2.05,1.28-4.56,4.19-3.96,2.56.53,1.75,2.94,1.67,4.59-.27,5.8-.42,11.63-1.21,17.37-3.03,22.02-8.36,43.59-13,65.3-1.69,7.93-3.23,15.9-4.84,23.86-.66,3.27.75,5.11,3.69,6.68,6.09,3.24,12.74,4.79,19.17,6.97,2.5.85,2.57,1.77.68,3.31-1.47,1.19-3.11,1.76-5.05,1.82-5.86.2-11.69-.24-17.19-2.22-3.62-1.3-4.55-.06-5.4,3.17-3.37,12.85-5.6,25.92-7.79,39-.86,5.11-1.45,10.27-2.31,16.43,7.34-4.32,13.35-8.32,18.1-14,6.92-8.28,14.11-16.36,20.71-24.88,3.39-4.38,7.95-8.09,9.38-13.83,1.72-.54,2.59-1.97,3.5-3.36,8.13-12.43,15.22-25.4,20.32-39.37,4.67-12.82,7.64-26.08,10.86-39.33,3.83-15.74.48-31.75,5.04-48.42-11.02,8.13-21.6,8.95-32.77,4.64-3.88-3.95-7.81-7.89-7.17-14.14.1-1.99-.13-4.41,2.31-4.98,1.98-.46,2.47,1.82,3.45,3.06,6.3,7.94,18.07,9.9,25.99,4.35,6.72-4.71,8.76-12.01,10.19-19.36,2.7-13.77,1.27-27.54-1.36-41.17-2.97-15.36-6.13-30.65-6.18-46.42-.04-12.82,2.39-25.13,6.3-37.24.77-2.39.56-4.5-1.82-6.14-2.36-1.63-4.19-.33-5.93.85-5.33,3.6-6.99,9.31-7.49,15.16-1.51,17.53-.25,34.87,4.14,52,4.39,17.13,8.38,34.37,3.24,52.13h-3.52c1.82-11.55-.13-22.7-3.47-33.73-2.35-7.77-4.6-15.57-6.74-23.4-2.77-10.14-2.88-20.66-3.71-31.03-.73-9.23-.68-18.59,1.52-27.76,1.85-7.71,5.35-14,13.77-15.98,1.52-.36,2.19-.99,2.45-2.58.87-5.39,2.39-10.73,2.72-16.14.18-3.06,2.74-6.27.1-9.38.69-3.9,1.64-7.78,2.03-11.72,2.32-23.85-3.53-46.59-9.7-69.27-.41-1.52-1.35-2.64-2.2-3.86.6-2.4-.19-4.61-1-6.8-4.95-13.41-9.67-26.97-16.63-39.48-15.5-27.87-33.82-53.7-57-75.83-1.41-1.35-2.83-1.66-4.24.09-4.32,5.35-9.39,9.86-15.14,13.62-1.73,1.13-1.72,2.33-.05,3.45,7.24,4.82,11.88,12.04,17.01,18.73,14.39,18.77,23.58,40.38,33.16,61.76,2.32,5.18,4.07,10.52,3.87,16.31-.91.06-1.66.37-2.04,1.28-.91-.79-1.83-1.59-2.74-2.38-.31-1.28-.51-2.6-.93-3.85-6.09-18.05-14.48-35.11-23.75-51.65-7.79-13.92-17.08-26.96-29.13-37.73-1.63-1.45-2.97-3.28-5.55-2.42-3.28,1.09-6.51.77-9.83.01-1.84-.42-3.9-.84-5.29,1.46-4.45,7.34-8.91,14.68-15.22,20.44,6.17,4.64,12.61,7.4,19.62,9.13,4,.99,7.86,2.74,11.59,4.56,18.17,8.89,30.82,24.01,43.27,39.19,5.45,6.65,10.02,14.02,14.99,21.06-.1,2.27,1.44,3.98,2.1,5.99.31,3.97,3.17,1.48,4.87,1.92,1.39,6.08,2.56,12.21,4.24,18.21.98,3.48,1.33,7.42,4.64,9.87,2.22,11.74,4.82,23.4,6.01,35.32,2.43,24.28,1.37,48.39-2.62,72.42.88,2.72-2.89,4.83-1.3,7.38,3.28,5.27,3.24,11.01,3.11,16.83-.8.68-1.48,1.81-.25,2.18.98.3,1.2-1.21,1.32-2.18,4.13-8.31,2.56-16.66.13-25.01.31-.66.62-1.32.93-1.99,4.09-.81,6.09,1.09,7.16,4.95,1.94,7.04.82,14-1.09,20.63-4.31,15.02-7.79,30.2-10.68,45.54-1.68,8.95-.92,18.28-4.27,26.96-.47,1.21-.15,3.07-1.58,3.44-3.36.86-2.79,3.39-2.54,5.56.96,8.45-3.2,15.87-4.62,23.83-.22,1.22-.89,2.77-2.57,2.61-1.69-.16-2.5-1.51-2.79-3.08-.15-.81-.13-1.66-.13-2.49,0-11.33-.02-22.66,0-34,0-1.16,0-2.37.36-3.45.44-1.38.9-3.09,2.76-3.14,1.65-.05,2.82,1.04,3.35,2.55,1.13,3.25,2.14,6.54,3.24,9.95,1.25-8.21-1.62-16.15-.54-24.07,1.71-12.49,4.04-24.89,7.96-36.92.4-1.24,1.19-2.96.69-3.79-3.32-5.47-1.21-11.4-1.81-17.07-.12-.45.22-1.19-.63-1.15-.13,0-.23.73-.35,1.12-4.29,18.49-12.16,35.27-23.57,50.48-3.89,5.18-8.69,9.91-11.83,15.27-4.79,8.17-9.28,16.83-11.7,26.23-1.27,0-2.54,0-3.81,0,.14-1.47.16-2.96.44-4.4,2.25-11.41,6.33-22.25,10.53-33.05,3.83-9.86,6.23-19.89,3.85-30.53,1.25,0,2.51,0,3.76-.01,2.97,6.58,4.12,13.37,2.4,20.5-.05.75-.43,1.95.76,1.79,1.02-.14,1.12-1.41,1.11-2.4,1.29-2.68,2.43-5.44,3.89-8.02,12.79-22.47,19.62-46.83,22.2-72.36,2.04-20.21,1.78-40.46-1.54-60.6-1.85-11.2-4.39-22.15-10.49-31.94.33-3.14-1.25-5.77-2.34-8.52-9.96-25.23-26.54-45.75-46.04-64.08-5.87-5.52-12.09-10.89-20.47-12.52-.05-.36-.09-.73-.13-1.1-.41-.19-.83-.37-1.24-.56v.77c.36.37.73.75,1.09,1.12.36.92.5,2.03,1.11,2.74,6.35,7.51,9.48,16.75,13.51,25.47,2.83,6.13,6.32,12.25,6.42,19.21.06,4.41.9,8.1,3.96,11.34,1.46,1.55,2.54,3.48,3.7,5.3,11.6,18.17,17.01,38.33,19.68,59.51.56,4.41-.74,9.42,2.66,13.33.08,19.7-.51,39.38-2.42,59-1.88.68-1.94,1.7-.56,2.99.64,3.61-1.07,6.82-1.74,10.21-7.92,39.93-23.13,76.85-45.73,110.71-.99,1.49-1.87,3.17-3.58,4.05-1.31-.44-2.62-.88-3.93-1.32,3.79-5.14,5.72-11.22,8.52-16.86,13.09-26.37,25.29-53.11,32.16-81.93,2.34-9.83,5.72-19.49,4.43-29.86,1.38-.95,1.84-2.48,1.77-3.93-.33-6.18.97-12.25,1.11-18.39.45-20.45.03-40.79-3.91-61.01-4.88-25.03-14.67-47.28-34.77-63.78-21.85-17.93-47.04-27.55-75.36-28.96-4.47-.22-6.16.86-6.07,5.61.07,3.37-1.23,6.83-2.24,10.15-.65,2.12-.47,3.46,1.65,4.46,8.45,4,14.99,10.27,20.88,17.4,13.03,15.79,25.56,31.92,35.18,50.09,8.92,16.84,14.76,34.83,19.97,53.08,5.21,18.23,9.31,36.61,9.81,55.65.03,1.2.15,2.37,1.68,2.62-.59,5.08-1.79,10.17-1.65,15.22.27,9.71-.84,19.25-2.04,28.81-3.09,24.56-9.22,48.29-19.27,70.96-1.45-.1-3.09.4-3.98-1.34,1.24-6.12,2.74-12.2,3.65-18.36,1.09-7.43,4.69-14.5,3.37-22.29,2.17-.52,1.98-2.39,2.25-3.98,2.33-14.22,4.87-28.39,6.12-42.78,1.33-15.3,1.11-30.53-.6-45.75-1.78-15.88-5.79-31.27-10.58-46.5-4.88-15.54-9.73-31.04-17.67-45.4-7.03-12.71-15.61-24.34-24.25-35.94-6.95-9.32-13.85-18.72-23.94-25.12-2.5-1.59-3.82-1.98-5.47.91-3.92,6.87-9.19,12.61-15.66,17.22-1.43,1.02-2.52,2.33-1.9,4.23,2.91,8.91,3.37,18.23,4.45,27.43,1.75,14.81,4.13,29.55,4.49,44.51.22,9.27.67,18.5.18,27.82-.56,10.75.96,21.55.74,32.37-.37,18.1,4.49,35.34,11.24,51.74,8.43,20.49,20.44,39.18,32.88,57.51,6.12,9.02,13.55,16.66,22.52,22.82.64,1.64,1.29,3.28,1.93,4.92-.67,1.62-.3,3.16.16,4.77,1.17,4.05,2.19,8.13,3.27,12.2ZM634.94,654.91c-.14-.06-.27-.12-.41-.18.12.07.24.15.37.22.35.37.7.73,1.05,1.1.19.62.22,1.37.59,1.86,9.24,12.31,22.78,17.11,36.84,20.99.76.21,1.79.35,2.21-.53.53-1.13-.48-1.83-1.17-2.48-5.85-5.48-11.01-11.74-19.98-12.71-6.62-.72-12.12-5.13-18.4-7.21-.36-.35-.73-.7-1.09-1.05ZM828.03,1135.04c.15-.19.29-.38.44-.57-.17.16-.35.32-.52.48-.38,0-.75,0-1.13.01-1.06.88-2.49,1.5-2.41,3.21,0,.16.48.46.71.44,1.38-.14,1.71-1.17,1.84-2.34.36-.41.71-.82,1.07-1.23ZM748.02,694.01l-.46-.41.44.42c.14.07.28.15.43.22-.14-.08-.27-.16-.41-.23ZM900.01,426.01c-.86.34-1.08,1.06-1.12,1.89-3.15.43-4.02,3.34-5.53,5.37-5.76,7.75-10.21,16.57-9.92,26.09.29,9.24.03,18.15-2.17,27.08-1.24,5.05-1.28,10.01.58,15.12,1.89,5.21,4.46,10.03,7,14.88,6.52,12.4,11.27,25.48,15.99,38.64,5.41,15.07,9.39,30.43,12.34,46.11-.59,4.57.84,6.08,5.81,5.17,9.38-1.72,18.43-4.24,27.05-8.29,4.66.16,9.53-3.16,11-7.52,15.63-16.52,16.94-43.14,2.86-59.69-7.2-8.47-16.18-14.91-25.9-19.91-12.92-6.65-26.86-11.52-35.97-23.82.18-1.32-.79-2.12-1.37-3.1-5.84-9.79-8.82-20.4-8.64-31.8.13-8.67,3.78-16.39,7.06-24.18.79-.47.97-1.21.92-2.06.13-.04.28-.06.39-.14.06-.05.05-.19.08-.3-.15.15-.3.31-.44.46ZM718.15,985.96c-.91.26-.79.64-.14,1.09.23.1.64.3.66.28.38-.65-.05-1.02-.52-1.37ZM1098.98,601.97c-.14-.07-.28-.15-.42-.22.13.08.27.15.4.23.06.81.1,1.64,1.01,2.03-.37,2.39.29,4.66,1.03,6.85,3.86,11.45,3.66,23.89,8.89,35.04,5.5,11.74,9.82,23.94,13.18,36.49,5.58,20.86,7.86,42.04,6.93,63.59-1.5,1.53-1.2,3.22-.53,5.31.96-1.93,1.66-3.52,1.5-5.35.02-.83-.11-1.7.09-2.48,5.35-20.74,3.25-41.41-.19-62.15-4.38-26.39-14.96-50.35-27.97-73.42-.8-1.41-1.19-3.17-2.9-3.91-.03-.83-.25-1.57-1.03-2.01ZM708.22,674.04c-.38-.37-.77-.73-1.15-1.1-2.21-9.06-3.06-18.24-3.3-27.59-.26-10.27.47-20.11,5.19-29.45,1.7-3.36,3.23-6.84,3.16-10.89-.2-11.49,1.42-22.81,3.68-34.05.43-2.11.99-4.23,1.1-6.37.1-1.94,1.71-3.84.34-6.6-12.23,17.58-24.74,34.13-31.8,54.04-5.9,16.64-4.67,31.97,6.62,45.95,4.45,5.51,8.36,11.6,14.91,15.05.36.39.72.77,1.07,1.16.08.62.13,1.29.95,1.33.18,0,.56-.35.55-.54-.03-.82-.7-.88-1.32-.96ZM997.12,453.04c-.41-.31-.83-.63-1.24-.94-2.18-6.11-7.22-10.07-11.24-14.77-3.22-3.77-7.02-3.79-10.99-1.12-1.86-.1-4.15.05-4.28,2.13-.17,2.56,2.34,1.32,3.74,1.63,8.5,2.35,15.4,7.73,22.86,12.05.36.37.71.74,1.07,1.1.07.64.09,1.34.93,1.41.18.02.57-.37.56-.55-.07-.84-.77-.87-1.41-.94ZM833.85,1125.86c-1.87,1.75-3.33,3.73-4.14,7.62,2.61-2.82,4.37-4.57,4.45-7.36.35-.65.69-1.3,1.04-1.96,5.1-5.97,4.95-13.39,4.28-20.27-.85-8.79-4.73-16.99-9.74-24.24-11.46-16.56-14.29-33.96-6.64-52.8.4-.98,1.49-2.51-.42-2.72-2.33-.25-5.08-1.04-6.7,1.81-5.6,9.92-6.58,20.49-3.74,31.3,2.43,9.24,9.69,15.77,14.43,23.73,7.94,13.33,15.31,26.71,8.19,42.9-.34.66-.68,1.31-1.02,1.97ZM756.92,1049.08c.17.43.35.87.52,1.3.12-.1.37-.27.35-.3-.21-.4-.45-.78-.69-1.16.16-1.95-.91-3.49-1.71-5.13-2.93-6.01-5.64-12.13-4.26-19.04.45-2.26.55-3.89-1.95-4.67-2.3-.72-4.55-3.7-6.64-2.21-1.59,1.13-.65,4.35-.19,6.64.1.48.35.94.47,1.42,2.38,9.12,8.15,16.18,14.08,23.15ZM637.01,648.98c.05.11.09.24.17.33.05.05.16.04.25.06-.15-.12-.3-.24-.45-.36.24-1.4-.34-2.58-.9-3.81-3.12-6.82-3.35-14.24-2.74-21.34.36-4.23-.45-7-2.94-10.15-2.83,6.42-2.91,12.94-3.25,19.35-.38,7.4,2.55,13.1,9.86,15.91ZM797.84,494.27l.12-.14-.22.08c-1.73-8.65-4.86-17.05-4.18-26.46-2.3,1.04-3.92,1.78-5.54,2.51-.34-.32-.75-.97-1-.91-6.35,1.54-12.2-.27-17.85-2.8-14.73-6.58-29.75-11.48-46.22-8.56-6.25,1.11-12.55,2.08-19.01,5.95,3.86,0,6.68.18,9.47-.03,14.39-1.11,28.06,1.6,41.34,7.1,5.65,2.34,10.94,5.58,16.95,7.05.76,1.72,2.54,2.05,3.95,2.85,7.53,4.24,15.23,8.2,22.2,13.36ZM835.83,626.76c-.53-.21-1.06-.43-1.61-.61-.03,0-.18.38-.27.58.6.07,1.19.15,1.79.22,7.2,4.41,14.98,6.84,23.45,7.08,9.1.26,14.58-1.35,13.99-11.79-.09-1.56,1.63-3.51.09-4.65-1.71-1.27-3.36.67-4.94,1.38-10.35,4.65-20.85,8.59-32.5,7.79ZM836.7,529.4c.1-.06.21-.12.31-.18-.13.07-.26.13-.39.2.18-.61.59-1.25.5-1.82-2.52-15.48-.44-30.78,1.52-46.12,1.57-12.32,4.48-24.55,3.1-37.12-.59-6.27-3.14-11.79-6.74-16.83-4.45-6.22-9.92-9.17-17.97-6.69-5.64,1.74-10.81,4.14-15.82,7.1q-7.27,4.29-3.08,11.27c.34.57.59,1.19.88,1.79.26.52.44,1.41.79,1.49,1.08.23,1.07-.76,1.21-1.5,1.53-3.72,3.56-7.15,6.16-10.21,2.4-2.82,5.33-4.62,9.17-3.73,2.44.57,3.76,2.47,1.51,4.25-4.39,3.46-5.74,8.48-7.48,13.22-6.07,16.62-6.86,33.06,2.4,49,3.59,6.18,6.59,12.75,10.54,18.68,3.04,4.57,4.8,10.37,10.47,12.85-.01,2.1,2.16,2.76,2.92,4.34ZM974.06,474.22c-3.65-2.33-7.22-4.84-12.66-5.86,3.65,8.27,7.85,15.13,12.47,21.7,1.05,1.49,1.69,3.74,4.1,3.95,2.48,2.78,6.31,2.52,9.34,4.15,7.81,4.18,14.03,10.34,20.72,15.93.96,1.55,1.91,3.11,2.87,4.66.13-2.5.02-4.79-2.56-5.76-7.82-16.12-16.82-31.19-34.29-38.78ZM623.03,541.9c-27.63,16.93-38.33,59.86-26.3,78.47.06-28.76,8.7-54.67,26.72-77.36,2.26-.72,3.79-2.02,4.3-5.25-2.26,1.43-4.34,1.77-4.72,4.14ZM641.03,793.92v3.61c1.37-1.33.81-2.49.97-3.52.63-4.75,1.33-9.49,1.88-14.26,2.97-25.85,11.16-49.78,25.82-71.42.97-1.43,4.44-3.34.68-5.56-3.79-2.23-8.82-1.98-10.06.55-3.97,8.05-7.53,16.29-10.33,24.82-7.01,21.37-8.58,43.49-8.96,65.77ZM854.92,388.97h3.42c-.85-1.64-2.09-1.82-3.34-1.97-3.11-1.17-6.12-2.48-8.96-4.27-12.96-8.18-27.21-12.67-42.31-14.92-3.62-.54-3.88.77-3.7,3.53.29,4.35-.17,8.59-1.81,12.71-.42,1.06-1.72,2.51-.36,3.61,1.14.93,2.51-.04,3.76-.43,7.48-2.36,15.09-3.85,23-3.29,10.26.73,20.15,3.69,30.31,5.03ZM713.04,628.15c-1.05,10.07-1.27,20.11-.09,30.23,1.52,13.02,5.52,24.17,18.88,29.52,4.5,1.8,8.73,4.39,14.81,5.07-3.52-4.21-6.41-7.53-9.16-10.97-12.66-15.83-19.4-34.14-22.49-53.96-.09-.57.09-1.49-.83-1.29-.45.1-.75.91-1.11,1.4ZM814.95,595.17c6.99-3.56,14.56-5.28,22.05-7.43,8.21-2.37,16.69-4.26,24.1-9.08,3.46-2.25,3.5-4.37,1.44-7.32-3.16-4.51-7.01-8.4-10.93-12.23-5.31-5.19-5.33-5.21-7.32,1.44-.72,2.42-1.64,4.75-3.18,6.71-4.61,5.85-9.97,10.99-15.46,16-4.14,3.78-8.98,6.87-11.98,11.81-.41.21-1.01.32-1.19.66-.26.48.12.96.69.92.91-.06,1.39-.74,1.79-1.48ZM618,624c1.35-1.21,1.28-2.54.28-4.45-.5,1.81-.87,3.18-1.25,4.55-.34,1.44-.63,2.9-1.02,4.33-3.44,12.71-3.37,24.32,6.04,35.33,19.71,23.05,44.71,32.81,74.41,32.12,1.96-.05,4.04-.36,5.83-1.11,3.09-1.28,4.63-4.58,4.13-7.21-.59-3.05-3.81-2.89-6.66-2-19.89,6.2-38.51,1.23-55.31-8.92-19.26-11.64-28.24-29.77-26.47-52.65ZM985.8,507.11c.09-.22.18-.45.26-.67-.14-.04-.28-.08-.41-.13.09.25.17.5.26.75,8.73,15.98,12.18,32.91,9.02,50.98-.4,2.29.26,2.8,2.44,2.91,6.69.34,12.36-1.78,17.36-6.19,4.83-4.26,6.05-10.12,2.82-15.8-7.11-12.47-16.43-22.94-28.43-30.91-.91-.6-1.78-2.25-3.32-.94ZM869.15,397.16c-12.96,1.69-25.76.64-38.47-2.17-8.64-1.91-17.19-1.05-25.63,1.25-5.3,1.45-10.3,3.5-13.77,8.22,2.49,1.84,4.95,2.68,7.68,2.82,3.81.19,7.66.87,11.42.53,2.99-.27,3.78,3.22,7.06,2.68,8.74-1.44,17.54-.93,26.17,1.39.91.24,1.9,1,2.84.27,7.13-5.63,16.22-8.31,22.59-15.07.25-.14.51-.28.76-.43.02,0-.04-.2-.07-.2-.55-.05-.81.14-.58.72ZM970.89,448.56c-2.81-2.35-5.88-3.99-9.22-1.33-1.74,1.39-2.38,12.61-1.12,13.93.4.42,1.15.73,1.73.72,2.99-.03,5.76,1.67,8.8,1.07,1.17,1.55,2.97,2.11,4.63,2.82,11.92,5.16,21.62,12.91,28.51,24.03,3.15,5.08,6.46,10.06,9.52,15.2,3.07,5.15,5.4,10.65,7.58,16.23,2.1,5.38,3.63,10.93,5.25,16.96,1.55-4.31,1.83-10.61.85-15.77-4.64-24.4-16.88-44.62-34.84-61.35-6.11-5.69-13.12-10.68-21.69-12.52ZM666.89,451.88c-.48.11-1.06.1-1.44.36-14.09,9.83-26.5,21.2-33.57,37.31-2.18,4.96-.51,9.27,2.59,13.45,5.19,7.01,12.6,11.19,19.57,15.96,1.22.83,2.56,1.64,4.44.53-1.49-3.78-3.51-7.46-4.39-11.4-3.68-16.46-.52-31.89,7.75-46.44,1.8-3.16,4.29-5.94,5.27-9.55.13-.2.25-.4.38-.59l-.59.38ZM761.9,518.17c-.62-3.96-4.1-5.32-6.77-7.42-.97-.77-1.88-.49-2.67.28-4.93,4.89-10.35,9.45-11.5,16.91q-4.29,6.46,1.62,11.62c.25.22.52.43.74.67,14.58,16.35,23.73,34.85,22.79,57.37.06.58.07,1.26.87.46,1.7-4.48,3.46-8.95,5.1-13.45,3.49-9.54,2.25-19.71,3.89-29.49.92-5.46.03-10.51-2.27-15.41-2.68-5.7-5.42-11.38-8.09-17.09-.86-1.83-1.75-3.59-3.72-4.47ZM791.02,633.99c.64,1.14,1.46,2.22,1.88,3.43,2.06,6.01,5,10.63,12.06,12.12,8.51,1.8,16.33,6.4,25.54,5.47,10.11-1.02,19.95-3.17,29.59-6.2,3.86-1.21,7.35-3.41,9.53-8.11-13.42,2.85-25.2-1.05-36.81-5.65-9.4-3.73-18.21-9.01-28.19-11.17-10.98-2.37-21.09-.82-29.57,7.37-2.34,2.26-2.04,3.79.33,5.55,3.93,2.92,8.51,4.3,13.23,6.07,1.08-3.39-1.59-5.92-1.34-8.86l3.77-.02ZM1009.84,653.14c.2.4.4.8.59,1.2.11-.1.34-.26.32-.3-.19-.39-.41-.77-.63-1.15.06-1.88-.52-3.58-1.3-5.27-3.06-6.63-5.61-13.54-9.2-19.86-6.31-11.11-13.03-21.99-23.94-29.51-3.67-2.53-6.37-2.84-9.26.9-3.14,4.07-7.53,6.7-12.32,8.16-10.73,3.27-21.25,7.64-32.74,7.71-2.23.01-3.38.6-3.33,3.1.04,2.55,1.34,2.98,3.5,2.93,6.14-.15,12.24-.19,18.37.83,16.15,2.68,31.63,7.06,45.98,15.29,8.37,4.8,15.84,10.83,23.95,15.96ZM633.03,473.14c14.33-18.3,31.69-32.55,53.94-40.25,1.71-.59,3.35-1.42,4.97-2.26,16.02-8.31,33.09-12.68,51.08-13.64,2.12-.11,5.33,1.07,6.11-.54,1.05-2.18-1.84-4.22-2.81-6.44-.71-1.62-2.46-2.2-3.99-2.83-6.25-2.58-12.85-3.6-19.51-2.98-10.78,1.01-21.33,3.36-31.25,7.85-16.76,7.59-32.86,16.17-44.35,31.27-6.89,9.06-13.05,18.47-15.5,29.83-.53.49-.72,1.17.05,1.39,1.02.28,1.1-.69,1.26-1.41ZM781,493.01c-.16-.23-.16-.98-.64-.2l.71.1c1.88,5.06,6.1,8.47,9.12,12.73,8.59,12.09,14.32,25.03,14.21,40.22-.06,8.66-.16,17.31-.78,25.96-.4,5.6-.24,11.11,1.89,17.24,4.28-4.87,8.5-8.8,12.82-12.64,4.72-4.2,9.2-8.68,13.61-13.2,5.89-6.03,6.79-15.06,1.63-18.97-11.16-8.47-19.08-19.39-25.2-31.79-1.1-2.23-2.09-4.57-4.12-6.18-7.06-5.62-14.83-10.02-23.25-13.26ZM775.04,519.01c.26,3.59,2.28,6.54,3.6,9.73,3.1,7.49,3.57,15.53,4,23.34.48,8.73-.38,17.63-1.61,26.33-1.94,13.82-6.92,26.63-14.93,38.18-1.44,2.08-5.56,2.5-4.67,5.56.67,2.34,3.17,4.18,4.93,6.17.61.69,1.12,1.67,2.3,1.55,5.24-8.41,13.51-14.01,21.84-15,2.68-.32,6.25,1.32,7.41-3.03.76-2.85,3.74-4.83,3.3-8.16-.28-2.12,1.56-4.33-1-6.41-3.36-2.71-4.68-6.75-5.41-10.93-1.57-8.94-.87-17.93-.53-26.9.58-15.13.04-30.03-8.39-43.38-1.01-1.59-1.42-3.87-3.87-4.18-5.97-11.27-13.9-20.9-24.49-28.1-9.57-6.51-20.4-8.91-31.83-10.24-12.27-1.43-24.28,11.67-20.88,23.68.73,2.59,1.77,3.17,4.16,2.68,6.16-1.25,12.29-2.85,18.52-3.47,11.14-1.12,22.17-1.02,32.2,5.36,6.8,4.33,11.14,10.68,15.37,17.22ZM844.45,424.62c-.36-.46-.75-.64-1.21-.12.24.18.47.37.71.55,6.94,11.51,9.5,23.97,7.9,37.28-1.38,11.56-3.18,23.08-4.21,34.67-1.14,12.86-3.26,25.78,1.35,38.55,1.7,4.71,4.55,7.76,9.13,10.23.27-11.99,2.93-23.12,5.69-34.27,3.07-12.42,5.93-24.93,7.52-37.63,2.92-23.21-7.74-39.34-26.89-49.26ZM665,527.71c-.12-.62-.24-1.33-1.04-1.29-.77.05-.86.77-.95,1.39-6.32-.61-11.88,1.55-16.6,5.4-30.04,24.52-42.92,56.26-39.4,94.77l.18,2.22c.2,0,.39,0,.59,0,.08-.73.15-1.46.23-2.19.65-2.22,1.39-4.43,1.95-6.67,4.38-17.61,13.5-32.77,24.98-46.49,7.84-9.37,18.13-15.39,29.84-19,2.58-.79,5.64-1.06,6.87-4.29,1.48-3.87,3.17-7.66,4.72-11.51.61-1.52,1.55-3.19-.86-4.11-4.36-1.66-7.08-5.4-10.5-8.26ZM719.03,877.07c-.65,6.93-1.76,13.85-1.86,20.78-.25,17.11-.37,34.18,1.65,51.29,1.82,15.37,5.51,29.97,12.22,43.84,1.9,3.93,4.19,7.72,7.86,10.17,9.94,6.67,20.01,13.14,30.69,18.58,1.23.63,2.5,1.87,4.32.55-.24-.54-.36-1.23-.77-1.65-12.19-12.8-20.98-27.8-28.19-43.79-7.69-17.08-12.81-35.13-14.56-53.57-1.52-16.07-6.55-30.98-10.39-46.32-.19-.41-.38-.83-.56-1.24l-.41,1.36ZM675,612.99c.08.89-.25,2.33.78,2.42,1.72.16.99-1.5,1.21-2.44,3.05-16.23,10.41-30.71,20.35-43.43,16.02-20.49,30.56-42,45.36-63.47-11.36-2.35-22.8.21-33.94,3.79-4.26,1.37-8.54,4.29-10.78,8.46-6.87,12.76-12.73,26.05-16.85,39.93-5.29,17.82-6.34,36.24-6.13,54.74ZM657.94,857.85c-.49-11.34.48-22.63,2.32-33.76,5.13-31.1,14.58-61,26.28-90.2,3.46-8.64,7.54-17.03,11.25-25.58.6-1.38,2.62-3.85-.62-4.09-5.63-.42-11.48-.84-16.91.3-3.18.67-3.5,5.67-5.34,8.59-1.15,1.83-2.2,3.72-3.24,5.62-13.26,24.07-18.75,50.28-20.5,77.34-1.35,20.8.1,41.51,4.85,61.89,0,1.59-.05,3.2,1.92,4.35v-4.45ZM952.04,423.71c-.78-2.45-3.11-2.24-4.9-2.59-9.29-1.82-18.64-1.87-28.08-1.16-8.05.61-8.66.53-11.48,8.07-3.81,10.2-8.13,20.35-5.52,31.69,1.1,4.77,1.54,9.78,5.44,13.41-.24,1.8.7,3.2,1.62,4.6,4.76,7.23,10.68,12.97,18.89,16.43,15.41,6.49,29.84,14.64,41.53,26.95,6.73,7.09,10.79,15.43,12.72,24.99,1.25,6.21,1.45,12.52,1.86,19.73,2.56-3.3,3.38-6.21,3.81-9.08,2.73-18.27-1.27-35.01-11.99-50.06-6.47-9.08-12.83-18.22-18.74-27.69-6.45-10.34-6.47-21.6-4.63-32.84,1.49-9.12,8.75-13.94,17.12-17.81-6.05-2.45-11.36-5.31-17.65-4.64ZM808.95,1002.06c.18.14.37.28.55.42-.15-.18-.29-.36-.44-.53-.02-1.5-1.14-2.33-2.01-3.32-8.89-10.03-16.05-21.18-21.56-33.38-5.85-12.94-9.47-26.58-12.53-40.38-3.34-15.06-5.38-30.31-7.25-45.63-1.73-14.15-3.77-28.27-4.58-42.5-.92-16.14.77-32.24,3.11-48.16,3.95-26.75,11.36-52.55,24.39-76.47,1.22-2.24,1.46-3.26-1.6-3.2-5.66.13-11.33.12-16.99.14-1.74,0-3.15.21-4.01,2.16-2.96,6.68-6.15,13.27-9.17,19.92-14.78,32.56-23.93,66.84-30.44,101.86-1.05,5.64-2.9,11.37-2.08,17.21,2.17,15.47,5.88,30.57,10.94,45.38,12.71,37.16,32.71,69.71,60.92,97.1,3.79,3.69,8,6.93,12.76,9.36ZM818.52,1003.57c1.74-5.01,3.29-8.86,4.43-12.83,6.09-21.3,8.59-43.27,10.73-65.17,2.26-23.13,3.31-46.41,3.22-69.69-.06-15.14-.4-30.27-.67-45.41-.36-20.13-1.55-40.21-2.53-60.3-.37-7.59-.39-15.24-1.3-22.85-1.22-10.21-4.34-20.13-4.46-30.5-.06-5.09-1.56-6.01-6.1-3.7-7.27,3.7-14.44,7.6-21.69,11.32-1.82.93-2.52,2.43-3.22,4.19-6.18,15.61-11.9,31.32-16.33,47.57-5.62,20.63-8.61,41.55-9.48,62.81-.67,16.47.63,32.81,2.67,49.21,3.29,26.36,6.5,52.64,14.2,78.21,6.24,20.74,17.3,38.71,30.55,57.14ZM667.03,872.41c.4,11.93,1.47,26.01,3.21,39.99,1.27,10.18,3.5,20.22,7.46,29.81,6.65,16.11,18.47,27.83,31.98,38.13,2.11,1.61,4.15,5.59,6.7,3.85,2.24-1.52-.82-4.79-1.5-7.23-4-14.28-6.06-28.85-7.08-43.61-1.42-20.75-1.58-41.44,1.45-62.13,2.43-16.53,6.55-32.9,5.75-49.82-.17-3.67.15-7.7,2.31-10.55,4.01-5.28,5.07-11.43,6.72-17.48,7.86-28.7,18.76-56.11,35-81.16,2.77-4.27.16-4.48-2.66-5.04-10.06-1.99-19.96-4.58-28.8-9.93-5.15-3.11-9.42-3.56-14.29.67-2.43,2.12-4.6,3.84-5.57,7.13-1.21,4.13-3.09,8.06-4.74,12.06-10.6,25.67-19.72,51.88-26.77,78.73-6.39,24.33-8.73,49.27-9.18,76.57ZM840.35,945.2c1.24-.11,1.49-.98,1.77-1.71,8.33-21.21,19.06-41.39,26.84-62.85,4.64-12.8,10.67-25.1,13.98-38.37,5.27-21.09,9.8-42.29,11.39-64.08.87-11.99.92-23.96.34-35.9-.63-12.89-2.46-25.73-3.7-38.59-.73-7.59-1.28-15.2-2.06-22.78-.25-2.42-.8-4.8-4.38-3.09-11.01,5.26-22.64,5.77-34.52,4.27-3.62-.46-7.26-.72-10.89-1.06-2.2-.2-2.9.45-2.26,2.86,3.2,11.91,3.16,24.29,5.1,36.4,2.33,14.5.9,29.2,1.78,43.81,1.2,19.92,1.05,39.92,1.3,59.89.45,37.09-.29,74.15-4.01,111.1-.34,3.34-1.75,6.63-.69,10.08ZM724.37,598.4c-.4,13.45.99,25.98,3.73,38.4,5.36,24.31,17.45,44.4,37.09,59.87,1.84,1.45,3.75,1.95,5.96,2.1,11.07.74,21.43-1.35,31.29-6.65,6.11-3.29,12.33-6.56,19.15-8.34,1.25-.33,3.58,1.01,3.55-1.37-.03-2.06.38-4.47-2.68-5.76-11.81-4.97-21.25-12.95-28.34-23.62-.96-1.45-1.92-1.93-3.61-1.94-21.7-.12-34.27-13.54-42.13-31.38-7.48-16.99-6.34-34.78,1.27-51.87.9-2.03,1.09-3.58-.02-5.53-3.38-5.96-7.47-11.42-11.66-16.8-2.24-2.88-3.77-3.14-4.92,1.03-4.75,17.24-7.81,34.73-8.67,51.86ZM820.21,663.95c2.1,2.76,4.65,3.17,6.92,3.88,12.58,3.95,25.4,4.51,38.5,3.3,18.39-1.69,33.61-13.45,39.62-30.98,4.39-12.81,2.74-25.72,1.13-38.57-2.84-22.66-11.61-43.66-19.02-65.02-2.85-8.23-6.75-16-10.88-24.1-3.77,13.06-6.75,25.66-6.85,38.79-.03,4.13.76,7.57,3.28,11.1,11.61,16.28,16.74,34.39,13,54.3-1.68,8.95-4.88,17.61-6.84,26.53-1.78,8.1-4.13,13.39-14.17,15.56-14.64,3.16-28.84,7.54-44.69,5.21ZM666.56,479.8c8-7.84,20.26-8.44,27.6-17.22,1.63-1.95,4.22-3.27,6.58-4.42,21.78-10.64,43.7-9.39,65.58-.39,5.82,2.39,11.23,5.84,17.53,6.96,4.09.72,8.16-.68,10.14-3.92,1.61-2.63,3.24-6.63,1.13-9.83-3.31-5.01-7.43-9.37-12.96-12.16-2.16-1.09-3.98-1.13-5.97.46-3.54,2.83-7.57,4.73-12,5.86-17.27,4.39-34.6,2.22-51.9.42-6-.63-11.99-.76-17.92-.22-4.11.37-7.85,2.43-10.88,5.61-7.85,8.25-13.7,17.64-16.94,28.87ZM662.89,501.22c1.22,10.22,6.49,18.15,13.83,25.12,3.07,2.92,4.59,3.39,6.67-.97,3.59-7.52,7.9-14.67,14.98-19.57,2.01-1.39,1.35-2.79.41-4.23-2.15-3.31-2.43-7.07-1.6-10.6.93-3.97,4.06-7.16,4.97-11.27.31-1.41,2.16-2.77,1.24-4.06-1.04-1.44-3.16-.77-4.68-.44-9.7,2.1-18.87,5.74-26.38,12.23-4.13,3.56-10.18,6.48-9.44,13.79ZM832.2,618.06c15.63.14,27.47-5.71,39.51-10.92,1.82-.79,2.48-2.19,2.18-4.02-.93-5.56-1.85-11.12-3.81-16.47-1.04-2.82-2.18-3.01-4.15-.95-3.52,3.69-7.95,5.84-12.59,7.85-7.39,3.2-15.25,4.53-22.95,6.52-8.64,2.24-16.84,5.31-22.6,12.69-.57.74-1.77,1.41-1.03,2.47.36.51,1.46.78,2.2.72,8.54-.72,16.76,2.5,23.25,2.1ZM1094.49,614.34c.94-1.07.36-2.16.05-3.21-2.64-9.09-5.89-17.94-10.08-26.46-10.17-20.65-23.02-38.74-44.84-48.62-1.03-.47-1.96-1.49-3.1-.36-1.47,1.45-.68,8.35,1.09,9.61,5.97,4.26,11.36,9.23,16.4,14.49,15.04,15.67,26.43,34.05,38.07,52.22.61.95,1.04,2.12,2.42,2.33ZM962.06,414.67c-3.35-5.33-11.9-14.48-15.69-17.07-13.37-9.12-17.81-9.07-30.77.5-3.61,2.66-7.17,5.39-10.69,8.15-2.12,1.67-4.56,3.04-6.72,6.28,21.85-3.78,42.73-5.56,63.87,2.13ZM774.01,436.23c-20.55-12.09-52.44-10.05-70.99,1.62,2.51.16,5.01.16,7.47.51,14.12,2.03,28.28,3.97,42.57,3.48,7.16-.25,14.39-1.34,20.95-5.62ZM698.06,682.04c.18-.38.36-.76.54-1.13-12.08-10.02-20.7-22.48-26.67-36.83-.96-2.3-2.78-2.92-5.18-3.11-4.94-.39-9.85-1.36-14.79-1.68-3.18-.2-8.53-1.72-9.14.66-.94,3.68,3.29,6.63,6.77,8.17,15.34,6.77,26.46,18.11,35.45,31.87.93,1.42,2,2.09,3.66,2.07,3.12-.04,6.24-.01,9.36-.01ZM794.23,374.6c-.74-2.99,1.32-7.17-4.39-6.63-11.83,1.13-21.36,6.56-29.23,15.21-.73.8-1.7,1.89-1.11,3.09.64,1.31,2.09.76,3.14.67,6.76-.57,12.47,1.42,16.73,6.84,1.73,2.2,3.16,1.86,5.38.46,7.47-4.71,7.79-12.55,9.48-19.63ZM908.56,391.39c-10.22.43-19.15,4.24-27.5,9.45-8.56,5.34-16.3,12.06-26.59,15.36,1.95,1.36,3.72,2.13,4.85,3.45,3.69,4.3,7.47,3.36,11.88,1.12,14.42-7.34,24.05-20.63,37.36-29.38ZM652.92,592.6c-.19,7.69,1.85,14.75,5.59,21.4.93,1.67,1.85,3.43,4.09,2.81,2.3-.64,1.42-2.8,1.31-4.25-.67-8.76.21-17.44.88-26.16.46-5.96,1.83-11.77,2.18-17.71.07-1.12.52-2.51-.56-3.26-1.39-.97-2.38.48-3.54.98-5.23,2.27-7.8,6.53-8.58,11.87-.69,4.74-.93,9.54-1.36,14.32ZM780.51,406.6c-.91-3.28-3.35-4.99-4.98-7.2-4.57-6.22-10.76-8.26-18.32-6.45-1.91.46-3.05,1.24-3.13,3.18-.22,5.44-.76,10.85,2.36,15.92,1.55,2.52,2.77,3.54,5.28,1.5,5.34-4.35,11.86-5.58,18.78-6.94ZM802.63,415.66c-13.98-1.89-27.54-5.47-40.81,3.28,8.48,3.18,16.34,6.15,24.22,9.04,1.14.42,2.48.18,3.16-.91,3.17-5.12,8.57-7.63,13.44-11.4ZM650.65,616.64c-6.48-11.14-5.11-23.27-5.01-35.33-5.61,6.76-8.74,14.54-11.51,22.48-.34.97.02,2.3.34,3.38,2.22,7.51,6.71,10.23,16.18,9.48ZM638.97,625.02c.04,3.58,1.79,5.83,5.77,6.59,6.66,1.27,13.39,2.24,20.1,3.26,1.05.16,2.37.54,2.94-1.03,1.75-4.81-2.75-11.3-7.87-10.7-6.32.75-12.53,1.26-18.73-.57-2.7-.79-2.01,1.27-2.21,2.44ZM756.08,611.7c4.92-12.34,2.08-23.62-.68-34.9-2.63,11.47-2.36,22.84.68,34.9ZM889.28,426.47c-3.6-.92-5.68.84-7.9,1.66-9.31,3.46-9.46,4.09-3.7,12.04.1.13.17.28.25.43.85,1.46,2.02,1.42,2.52,0,1.79-5.19,5.15-9.41,8.84-14.13ZM713.89,689.73c-.77.58-1.1.84-1.44,1.09.25.33.44.84.76.94.61.19,1.32.05,1.28-.81-.02-.4-.37-.78-.59-1.21ZM984.86,567.37c-.34-.4-.59-.69-.84-.99-.3.29-.76.54-.83.88-.06.29.33.67.53,1.01.34-.27.68-.54,1.15-.91ZM670.63,449.28c-.11-.28-.15-.72-.35-.8-.2-.09-.55.18-.83.29.11.28.15.72.35.8.2.09.55-.18.83-.29ZM734.39,920.72c-.05.14-.13.29-.13.43,0,.05.23.09.35.13.05-.14.13-.29.13-.43,0-.05-.23-.09-.35-.13ZM839.75,948.03c-.07-.13-.15-.27-.22-.4-.1.12-.26.23-.27.35-.01.13.13.27.2.4.1-.12.19-.23.29-.35ZM759.76,1054.03c-.07-.13-.15-.27-.22-.4-.1.12-.26.23-.27.35-.01.13.13.27.2.4.1-.12.19-.23.29-.35ZM647.7,579.23l.07-.37c-.17.03-.35.07-.52.1.04.11.06.26.14.33.05.04.2-.03.3-.05ZM775.5,1023.32l-.15.21.25.03-.09-.24Z"/><path class="cls-5" d="M1013.1,1181.17c-.21,9.76-3.86,18.85-5.72,28.28-3.45,17.47-7.67,34.78-10.48,52.38-1.95-1.76-1.04-4.07-1.04-6.11-.02-30.66,2.3-61.21,4.61-91.76.73-9.64-.56-19.3.17-28.97.26-3.44-.95-6.84-5.29-7.18-4.15-.32-5.79,2.33-6.58,6.02-1.73,8.11-3.62,16.19-5.45,24.28-.24.92-.49,1.83-.73,2.75-11.3,25.55-15.35,52.48-15.8,80.21-.31,18.92.8,37.7,5.1,56.09,4.26,18.19,10.47,35.81,20.8,51.58,8.5,12.98,21.06,21.25,34.96,27.3,9.4,4.09,17.09,9.47,21.36,19.09.72,1.63,1.91,3.25,3.3,4.35,11.56,9.15,19.65,21.88,32.36,30.02,12.26,7.86,21.64,19.15,30.84,30.4,3.35,4.1,5.41,8.76,6.47,13.89,6.39,30.85,10.53,62.05,14.14,93.3,1.87,16.2,1.43,32.58.88,48.9h-92c-3.55-30.65-10.54-60.2-25.71-87.55-7.92-14.28-17.76-27.4-24.7-42.23-2.98-6.37-5.64-12.79-5.62-20.02.03-8.59,5.17-14.41,13.66-15.19,3.08-.28,5.78-1.56,6.57-4.52.85-3.19,2.98-3.49,5.51-3.85,6.25-.89,11.99-2.81,15.92-8.25,4.17-5.77,3.94-10.95-.69-16.32-2.82-3.26-6.46-5.3-10.33-6.81-12.31-4.81-21.97-13.19-30.45-22.9-15.24-17.46-29.02-36.16-41.77-55.42-15.06-22.75-25.04-48.05-31.33-74.7-2.53-10.7-4.96-21.4-6.18-32.34-.2-1.81-.57-3.63-1.04-5.39-.95-3.55-2.52-6.65-6.8-6.9-4.28-.25-6.32,2.51-7.47,6.07-2.11,6.5-3.5,13.18-4.59,19.92-2.82,17.54-1.08,34.86,2.7,52.07.14.63.14,1.29.21,2.03-2.15.18-2.83-1.64-4.03-2.58-4.13-3.21-8.54-4.72-13.4-1.95-2.74,1.56-3.07.18-3.26-2-1.74-20.37-5.77-40.68-3.86-61.18,1.42-15.22,5.42-30.1,9.24-44.92,2.82-10.95,5.78-21.87,8.68-32.81,4.38-3.55,9.12-4.13,14.32-1.93,1.58.67,3.91,1.69,4.61-.75.55-1.91-1.37-2.95-3.12-3.84-4.21-2.15-8.61-1.99-13.08-1.64,3.2-10.23,8.18-19.81,10.99-30.18,3.94-.01,8.15.77,10.85-3.57-2.8-.85-5.76-.39-8.06-2.23,2.06-7.48,6.74-13.81,9.23-21.1,4.91,4.26,4.18,9.54,2.7,14.96-.45,1.65-1.78,3.92.41,4.62,1.8.58,3.1-1.66,3.69-3.4,1.7-4.98,2.4-10.21.26-15.07-1.27-2.9-.3-3.95,1.85-4.95,5.31-2.48,10.13-5.74,14.59-9.46,2.18-1.83,3.25-.78,4.25.82,2.3,3.68,5.01,7,7.98,10.15.6.64.49,2.23,1.85,1.75,1.31-.46,1.35-1.79,1.05-2.99-1.15-4.61-3.38-8.61-6.61-12.11-3.1-3.36-6.44-4.39-10.59-1.79-5.77,3.6-11.63,7.05-17.45,10.56,2.1-7.94,5.87-15.22,9.71-22.35,12.73-23.59,22.76-48.5,35.46-72.1,1.01-1.88,2.01-3.76,3.36-6.28.7,3.57.19,6.37-.31,9.18-1.21,6.7-.44,12.9,4.42,18.18,3.14,3.41,4.5,7.69,5.4,12.16,1.25,6.22,2.7,6.81,7.8,3.34,2.48,11.83,2.6,23.69,1.3,35.71-1.04,9.57-5.83,17.58-9.35,26.15-.45,1.11-1.33,2.28-.16,3.12,1.28.91,2.08-.44,2.73-1.34,2.64-3.63,5.46-7.12,7.51-11.16,12.22-24.12,15.34-49.58,11.66-76.17-.91-6.55-3.39-12.88-2.77-19.64,1.35-14.73,6.76-27.99,14.59-40.4,5.77-9.15,11.38-18.4,17.13-27.56,4.77-7.6,6.08-16.07,6.49-24.79.06-1.29.32-2.86-1.6-3.09-1.73-.21-2.22,1.1-2.6,2.45-.18.64-.53,1.25-.6,1.9-1.11,9.38-5.77,17.1-10.82,24.86-8.67,13.33-18.84,25.92-22.64,41.92-.88,3.71-2.42,7.19-3.8,10.74-2.73,7.04-3.81,14.41-2.28,22.01,3.08,15.31,6.7,30.6,2.62,46.41-1.07-10.77-2.85-21.41-6.34-31.65-2.51-7.37-3.34-14.89-2.99-22.62.47-10.37,4.33-19.73,8.36-29.06.51-1.18,1.69-2.69.4-3.6-1.62-1.15-2.75.54-3.53,1.74-2.52,3.91-4.9,7.9-7.34,11.86-.62,0-1.25,0-1.87,0-1.3-2.21-1.06-4.61-.89-7,.33-.34.65-.68.98-1.02,4.19-.45,4.72-3.96,5.82-6.98,10.05-22.67,16.18-46.4,19.27-70.96,1.2-9.57,2.31-19.11,2.04-28.81-.14-5.06,1.06-10.15,1.65-15.22,2.2-7,1.67-14.42,3.26-21.53,2.27-10.18,3.48-20.65,8.01-30.21,2.16-4.56,3.62-4.53,6.27-.24.7,1.13,1.28,2.32,1.89,3.5,4.24,8.23,7.42,16.91,10.87,25.47,1.28,10.36-2.09,20.03-4.43,29.86-6.87,28.82-19.07,55.56-32.16,81.93-2.8,5.64-4.73,11.72-8.52,16.86-1.34.89-2.65,2.28-1.06,3.5,2.44,1.87,3.7-.53,4.99-2.17,1.72-.89,2.59-2.57,3.58-4.05,22.6-33.86,37.81-70.78,45.73-110.71.67-3.39,2.38-6.6,1.74-10.21.77-.89.81-1.91.56-2.99,1.91-19.62,2.5-39.3,2.42-59,.33-8.22.67-16.44.99-24.66.34-8.63.53-17.27,1.01-25.89.4-7.09,2.83-8.49,9.29-5.5,2.38,1.1,4.53,2.67,6.79,4.03,6.11,9.79,8.65,20.74,10.49,31.94,3.32,20.13,3.58,40.38,1.54,60.6-2.58,25.53-9.42,49.89-22.2,72.36-1.47,2.58-2.6,5.34-3.89,8.02-.62.21-1.25.41-1.87.62,1.72-7.13.56-13.92-2.4-20.5-.75-1.79-1.7-4.02-3.82-3.49-1.59.4-1.05,2.31.06,3.5,2.38,10.64-.02,20.67-3.85,30.53-4.2,10.8-8.28,21.63-10.53,33.05-.28,1.44-.3,2.93-.44,4.4-.67,3.4-1.4,6.78-1.98,10.19-.12.71.09,1.93.55,2.19,1.08.6,1.81-.31,2.22-1.27.31-.73.19-1.67,1.11-2.08-1.9,11.36-.36,22.88-2.07,34.32-3.56,23.87-5.97,47.9-9.39,71.8-6.41,44.77-10.12,89.69-8.19,134.94.23,5.35-.67,10.93,1.75,16.08ZM914.95,1190.97c-3.19-6.1-5.81-12.28-9.49-17.75-2.45-3.64-1.99-5.92.47-8.95,2.69-3.32,4.06-7.23,3.27-11.65-.19-1.06-.64-1.96-1.68-2.28-1.2-.37-2.06.51-2.23,1.45-.94,4.97-4.83,7.82-7.88,11.27-1.65,1.88-3.29,4.36-1.3,6.17,5.12,4.65,6.38,11.09,9.04,16.92,2.9,6.34,11.18,8.72,17.2,5.02,4.1-2.52,7.78-5.81,12.05-7.96,4.97-2.5,6.34-6.21,5.64-11.23-.34-2.44-1.03-4.79-.37-7.36.39-1.54-.57-3.06-2.25-3.39-1.52-.29-2.44.94-3,2.18-1.42,3.16-2.15,6.61-.23,9.59,1.71,2.66.65,3.68-1.45,4.86-6.28,3.52-11.5,8.46-17.78,13.1ZM966.7,1113.89c.96,2.62,1.89,5.37,2.99,8.05.63,1.54,1.7,3.45,3.55,2.65,1.65-.71-.27-2.27-.29-3.5-.01-1.13-.41-2.27-.69-3.39-1.84-7.51-2.12-7.65-9.04-4.76-7.4,3.1-13.04-1.47-12.01-9.83.32-2.64,1.17-5.17,3.01-7.26,1.47-1.66,3.2-4.14,1.37-5.63-1.78-1.46-3.79,1.09-5.28,2.46-1.86,1.72-2.73,4.07-3.39,6.53-1.44,5.34-.1,10.19,2.33,14.87,3.81,7.35,10.24,7.93,15.44,1.46.5-.62.65-1.57,2.01-1.65ZM974.52,1127.25c-2.36,3.77,2.31,7.56-.46,10.74-2.48,2.85-5.96,4.82-8.45,7.65-3.76,4.26-7,5.83-12.89,2.76-6.54-3.42-11.96-.22-13.41,6.13-.27,1.18-.59,2.34.73,3.06,1.49.81,2.03-.54,2.76-1.35,4.68-5.14,8-5.68,13.5-1.33,2.88,2.28,4.7,1.71,6.63-.77,3.29-4.24,7.54-7.45,11.62-10.84,5.63-4.67,5.73-10.68-.03-16.06Z"/><path class="cls-10" d="M620,1616c1.89-16.3,3.59-32.61,5.72-48.88,3.39-25.96,9.56-51.2,17.55-76,9.15-28.41,19.77-56.3,38.74-79.92,9.36-11.65,15.63-25.09,23.67-37.48,3.45-5.31,3.61-11.32,4.55-17.14,2.28-14.03,8.78-26.43,14.59-39.1,3.33-7.26,7.05-14.34,11.46-21.03.91-1.39,1.82-2.81,2.96-4.01,1.25-1.32,2.94-2.96,4.7-2.11,2.09,1.01.91,3.2.43,4.88-3.95,13.94-9.62,27.26-14.86,40.73-.92,2.37-1.76,4.78-2.14,7.45,3.46-4.65,7.47-8.53,11.89-12.02,1.18-.93,2.08-3.36,3.97-1.86,1.64,1.3.22,3.42-.54,4.54-5.78,8.57-9.07,18.59-15.61,26.68-8.79,10.89-14.26,23.67-19.83,36.24-6.23,14.07-14.93,26.72-21.6,40.5-12.09,24.99-25.96,49.16-34.62,75.73-3.29,10.09-8.77,19.53-9.82,30.26-1.22,12.56-3.48,24.96-5.01,37.46-1.46,11.92-4.33,23.48-7.22,35.07h-9Z"/><path class="cls-3" d="M599.08,635.02c1.38,1.09.79,2.63.91,4.01-4.48-1.57-8.84-3.35-12.14-6.97,1.5-.07,2.99-.15,4.49-.22,2.55.41,4.04,3.09,6.74,3.18Z"/><path class="cls-3" d="M758.98,1085.96c.5.91,1.38,1.05,2.29,1.15-.88,2.18-2.6,2.99-5.06,3.29.05-2.36,2.04-3,2.77-4.44Z"/><path class="cls-3" d="M1156.15,1603.01c-1.87-1.6-1.53-3.28-.18-5,.54,1.65.65,3.31.18,5Z"/><path class="cls-3" d="M967.04,414.01c-1.3-.95-1.34-1.95-.1-2.99.62.98.91,1.97.1,2.99Z"/><path class="cls-3" d="M1155.12,1585.01c-1.5-.91-1.46-1.91-.18-2.99.48.97.58,1.96.18,2.99Z"/><path class="cls-3" d="M760.78,1073.99c1.27.55,1.48,1.21.2,2.02l-.2-2.02Z"/><path class="cls-3" d="M582.99,1525c1.07.72.98,1.4-.08,2.04-.42-.7-.37-1.37.08-2.04Z"/><path class="cls-3" d="M582.02,1538.01c1.05.72.95,1.39-.09,2.02-.41-.69-.35-1.37.09-2.02Z"/><path class="cls-3" d="M581.04,1550.01c1.04.74.91,1.4-.12,2.02-.4-.7-.33-1.37.12-2.02Z"/><path class="cls-10" d="M759.06,1385.29c-.08-1.71.04-3.04,1.34-3.87,1.32-.85,2,.13,2.95.88,3.53,2.79,7.65,3.84,12.11,3.8,29.42-.24,53.41,12.82,75.17,31.05,17.85,14.95,36.06,29.36,56.13,41.28,2.97,1.77,5.61,4.11,8.32,6.3,1.15.93,2.37,2.1,1.41,3.82-.89,1.6-2.44,1.62-3.95,1.14-3-.95-6.13-1.69-8.93-3.07-20.89-10.32-41.95-20.77-59.72-35.85-15.75-13.38-33.38-22.08-52.56-28.55-5.56-1.88-11.47-1.67-17.08-3.17-5.17-1.38-9.3-4.31-12.84-8.19-1.53-1.67-1.95-3.8-2.35-5.58Z"/><path class="cls-3" d="M977.78,955.99c2.44-3.96,4.82-7.95,7.34-11.86.77-1.2,1.9-2.89,3.53-1.74,1.29.92.11,2.42-.4,3.6-4.03,9.33-7.9,18.69-8.36,29.06-.35,7.73.49,15.25,2.99,22.62,3.49,10.25,5.27,20.88,6.34,31.65,4.08-15.81.46-31.1-2.62-46.41-1.53-7.59-.45-14.97,2.28-22.01,1.38-3.55,2.92-7.04,3.8-10.74,3.8-16,13.98-28.59,22.64-41.92,5.05-7.76,9.7-15.48,10.82-24.86.08-.65.43-1.26.6-1.9.38-1.35.86-2.65,2.6-2.45,1.92.23,1.66,1.8,1.6,3.09-.4,8.72-1.72,17.19-6.49,24.79-5.75,9.16-11.36,18.41-17.13,27.56-7.83,12.41-13.24,25.67-14.59,40.4-.62,6.76,1.86,13.09,2.77,19.64,3.68,26.59.56,52.05-11.66,76.17-2.05,4.04-4.87,7.54-7.51,11.16-.65.9-1.46,2.25-2.73,1.34-1.17-.84-.29-2.01.16-3.12,3.52-8.56,8.31-16.58,9.35-26.15,1.31-12.02,1.18-23.88-1.3-35.71-2.18-6.88-4.28-13.79-6.56-20.64-3.95-11.86-2.77-23.71-.25-35.6-1.08-4.07-2.1-8.16-3.27-12.2-.47-1.61-.84-3.15-.17-4.77,1.42.72,1.5,2.96,3.46,3.08l-.08-.12c.02.34.04.69.06,1.03-.17,2.39-.41,4.8.89,7-.07.84-.6,1.92.59,2.23.22.06.84-1.45,1.28-2.24Z"/><path class="cls-10" d="M990.62,1443.17c-13.2-1.43-23.57-8.2-32.31-17.79-4.37-4.8-8.68-9.65-13.79-13.68-3.04-2.4-5.23-5.57-7.82-8.38-7.24-7.85-15.56-14.5-23.73-21.33-.76-.64-1.59-1.22-2.3-1.9-1.1-1.07-2.21-2.26-1.1-3.89,1.12-1.62,2.58-1.05,4-.35,6.9,3.4,13.05,8,19.17,12.54,11.81,8.76,21.86,19.47,32.07,29.97,10,10.3,21.31,17.93,35.92,19.82,1.36.18,3.93.1,3.67,2.36-.21,1.79-2.36,1.42-3.81,1.45-3.33.07-6.48,1.66-9.97,1.18Z"/><path class="cls-10" d="M942.59,974.87c-15.65-.56-27.41-8.26-37-19.98-5.76-7.04-9.99-14.88-12.62-23.59-.36-1.21-1.47-2.62.06-3.6,1.84-1.18,2.68.61,3.54,1.71,7.87,10.07,15.09,20.71,26.1,27.88,6.19,4.03,12.72,7.22,19.79,9.32,1.78.53,3.65.74,5.39-.03,1.65-.73,3.02-.6,3.77,1.07.81,1.79.75,3.69-1.06,4.91-2.4,1.61-5.13,2.31-7.97,2.31Z"/><path class="cls-3" d="M902.14,992.05c-.74-.03-1.48-.05-2.21-.08-.54-.33-1.05-.85-1.63-.96-18.23-3.48-30.33-14.77-38.91-30.53-1.44-2.64-2.47-5.44-2.4-8.53.02-.97-.18-2.09.92-2.63,1.33-.65,2.24.22,2.96,1.15.92,1.17,1.68,2.46,2.54,3.68,11,15.65,24.97,27,44.38,30.23,4.77.79,9.8,2.23,14.23-1.4.28.23.56.46.84.68,2.16,3.44.36,5.18-2.79,6.12-5.84,1.76-11.87,2.13-17.92,2.25Z"/><path class="cls-10" d="M961.95,964.96c-26-2.52-45.1-18.3-54.48-42.19-.59-1.5-1.37-3.52.61-4.39,1.96-.86,2.91,1.11,3.76,2.48,8.93,14.32,20.64,25.57,36.14,32.58,5.15,2.33,10.4,4.44,15.98,5.5,1.66.31,4.12-.67,3.97,2.29-.13,2.62-2.06,3.6-4.48,3.73-.5.03-1,0-1.5,0Z"/><path class="cls-14" d="M915.98,1076.09c5.82-3.51,11.68-6.96,17.45-10.56,4.15-2.59,7.49-1.57,10.59,1.79,3.23,3.5,5.46,7.5,6.61,12.11.3,1.2.26,2.53-1.05,2.99-1.36.47-1.25-1.12-1.85-1.75-2.96-3.15-5.68-6.47-7.98-10.15-1-1.6-2.06-2.64-4.25-.82-4.46,3.72-9.28,6.98-14.59,9.46-2.15,1.01-3.13,2.06-1.85,4.95,2.14,4.86,1.44,10.09-.26,15.07-.59,1.74-1.89,3.98-3.69,3.4-2.19-.7-.86-2.97-.41-4.62,1.48-5.41,2.21-10.69-2.7-14.96-2-4.22,1.24-5.42,3.98-6.91Z"/><path class="cls-3" d="M824.97,999.88c.28-2.01,1.74-3.31,2.88-4.81,10.68,5.46,21.51,10.42,33.93,9.93,1.98-.08,3.96.1,5.87-.75,1.06-.48,2.38-.59,2.97.81.57,1.33-.34,2.34-1.31,2.91-3.34,1.98-7.08,2.77-10.89,3-11.71.69-22.35-2.03-31.23-10.15-.56-.51-1.48-.63-2.23-.94Z"/><path class="cls-10" d="M765.02,1260.55c-.02,3.21-1.51,5.43-2.89,7.7-2.94,4.83-5.99,9.6-5.15,15.71.27,1.93-.19,3.77-2.64,4.01-2.02.2-2.81-1.09-3.49-2.82-3-7.66-.02-21.69,5.84-27.39,1.76-1.71,3.68-2.31,5.86-1.31,1.82.84,2.61,2.47,2.46,4.11Z"/><path class="cls-14" d="M902.77,1104.09c2.3,1.84,5.26,1.38,8.06,2.23-2.7,4.34-6.91,3.56-10.85,3.57-3.57-4.31-6.58-4.26-10.76-.06-3.91,3.94-9.05,6.67-13.75,9.79-1.78,1.18-4.13,2.53-5.79.25-1.66-2.29.24-4.02,2.09-5.28,6.58-4.48,13.21-8.88,19.8-13.35,2.06-1.4,3.98-1.33,5.96.11,1.61,1.16,3.2,2.39,5.24,2.74Z"/><path class="cls-14" d="M888.99,1140.08c4.47-.35,8.87-.51,13.08,1.64,1.75.9,3.67,1.93,3.12,3.84-.71,2.44-3.03,1.42-4.61.75-5.2-2.2-9.94-1.62-14.32,1.93-2.82.05-4.88-1.43-5.92-3.8-2.42-5.5-5.75-10.4-9.16-15.29-.71-1.01-2.01-2.43-.68-3.5,1.48-1.18,2.94.37,3.73,1.39,3.03,3.92,6.28,7.78,8.54,12.13,2.05,3.94,3.66,3.88,6.21.9Z"/><path class="cls-3" d="M669.36,1345.92c1.13-.09,2.49.17,3.5,1.05,3.95,3.44,6.93,7.89,11.29,10.95,1.03.72.94,2.08.06,3.11-.98,1.16-2.53,1.43-3.63.83-4.47-2.43-9.43-4.05-13.37-7.37-1.84-1.55-2.65-3.8-2-6.28.52-2,2.17-2.27,4.15-2.29Z"/><path class="cls-3" d="M820,1136.99c-.26,1.85,2.12,1.98,2.49,4.51-3.59-1.6-7.77,3.5-10.48-2.35,2.93.25,5.3-1.56,8-2.15Z"/><path class="cls-3" d="M809.18,1132.04c-.77-.03-1.53-.06-2.3-.09.01-.17.01-.34.04-.5.27-1.53-.17-4.28,1.9-3.85,2.11.44,1.28,2.81.37,4.44Z"/><path class="cls-3" d="M787.04,1010.91c-.34,1.01-.68,2.02-1.01,3.03-1.25-.62-2.34-1.55-1.68-2.99.63-1.38,1.77-1.04,2.69-.04Z"/><path class="cls-3" d="M823,1013.9c0-.95-.01-1.9-.02-2.85,1.31.2,2.88.41,2.55,2.16-.21,1.11-1.59.73-2.53.69Z"/><path class="cls-3" d="M932.04,984.11c0-1.09.01-2.17.02-3.26.96.27,1.85.63,1.69,1.88-.13.96-.92,1.19-1.71,1.38Z"/><path class="cls-3" d="M822.94,1011.03c-1.29-.25-2.47-.55-.88-2.05.29.68.59,1.37.88,2.05Z"/><path class="cls-3" d="M894.99,825.98l.22-2.19c.2,0,.4,0,.59,0,.06.74.12,1.48.18,2.22-.33-.01-.67-.02-1-.04Z"/><path class="cls-3" d="M833,1014.01c-.02.83-.2,1.58-1.04,1.99-.35-1.03-.67-2.04,1.04-1.99Z"/><path class="cls-3" d="M759.99,1227.9c.33-.31.65-.63.98-.94l.08.08c-.02.28-.02.56,0,.84-.35,0-.7,0-1.05.01Z"/><path class="cls-3" d="M833.1,982.69c.31.05.61.1.92.15-.32.01-.62-.04-.92-.15Z"/><path class="cls-1" d="M969.65,940.09c-8.97-6.17-16.4-13.81-22.52-22.82-12.44-18.34-24.45-37.03-32.88-57.51-6.75-16.4-11.61-33.64-11.24-51.74.22-10.82-1.3-21.62-.74-32.37.49-9.32.04-18.55-.18-27.82-.36-14.95-2.74-29.7-4.49-44.51-1.08-9.2-1.54-18.51-4.45-27.43-.62-1.9.47-3.2,1.9-4.23,6.47-4.61,11.73-10.35,15.66-17.22,1.65-2.89,2.97-2.5,5.47-.91,10.09,6.41,17,15.8,23.94,25.12,8.64,11.59,17.22,23.23,24.25,35.94,7.94,14.36,12.79,29.86,17.67,45.4,4.78,15.23,8.79,30.61,10.58,46.5,1.71,15.22,1.93,30.45.6,45.75-1.25,14.39-3.78,28.56-6.12,42.78-.26,1.59-.07,3.46-2.25,3.98-.86-.47-.85-1.33-1-2.13-1.61-8.49-3.67-16.85-7.7-24.58-2.29-4.38-5.51-4.55-8.15-.38-.79,1.24-1.36,2.67-1.75,4.09-4.44,16.39-4.28,32.75.43,49.07,1.42,4.92,2.94,9.82,2.97,15.02Z"/><path class="cls-6" d="M1013.1,1181.17c-2.42-5.15-1.53-10.73-1.75-16.08-1.93-45.25,1.79-90.17,8.19-134.94,3.42-23.89,5.83-47.93,9.39-71.8,1.71-11.45.17-22.96,2.07-34.32-.75-3.31,1.77-5.93,1.91-9.05,2.42-9.4,6.91-18.06,11.7-26.23,3.14-5.36,7.94-10.08,11.83-15.27,11.41-15.21,19.28-31.99,23.57-50.48,0,0,.49-.02.49-.02l.49.05c.59,5.67-1.51,11.6,1.81,17.07.5.83-.28,2.55-.69,3.79-3.93,12.03-6.25,24.44-7.96,36.92-1.09,7.92,1.79,15.87.54,24.07-1.1-3.41-2.11-6.7-3.24-9.95-.53-1.52-1.7-2.6-3.35-2.55-1.86.05-2.31,1.76-2.76,3.14-.35,1.08-.36,2.3-.36,3.45-.02,11.33-.01,22.66,0,34,0,.83-.02,1.68.13,2.49.29,1.58,1.1,2.92,2.79,3.08,1.68.16,2.35-1.39,2.57-2.61,1.42-7.96,5.58-15.39,4.62-23.83-.25-2.18-.82-4.7,2.54-5.56,1.43-.37,1.12-2.23,1.58-3.44,3.35-8.69,2.59-18.01,4.27-26.96,2.88-15.34,6.37-30.52,10.68-45.54,1.9-6.64,3.03-13.59,1.09-20.63-1.06-3.85-3.06-5.76-7.16-4.95,2.41-6.08,6.51-11.06,10.57-16.06,7.9-9.75,13.51-21.06,21.15-30.99,2.64,3.11.08,6.31-.1,9.38-.32,5.41-1.85,10.75-2.72,16.14-.26,1.59-.93,2.22-2.45,2.58-8.43,1.99-11.92,8.27-13.77,15.98-2.2,9.16-2.25,18.53-1.52,27.76.82,10.37.93,20.89,3.71,31.03,2.14,7.83,4.39,15.63,6.74,23.4,3.34,11.03,5.29,22.18,3.47,33.73-.37,3.11-.73,6.22-1.1,9.33-.2.8-.66,1.08-1.44.73-1.32-.64-2.65-1.82-3.97-1.82-8.18,0-14.94-3.99-21.97-7.32-1.48-.7-3.05-2.76-4.84-.82-1.71,1.85-.34,3.74.55,5.49.44.87,1.08,1.64,1.63,2.45-1.08,5.7-.4,11.41-.08,17.11.07,1.29.76,2.12,1.91,2.62-.64,6.25,3.28,10.18,7.17,14.14.77,3.56,1.89,7.08,2.23,10.68,1.32,13.96-.17,27.85-1.75,41.7-1.67,14.63-7.11,28.33-11.75,42.11-3.94,11.68-4.68,21.93,4.31,31.36-1.43,5.75-5.99,9.45-9.38,13.83-6.6,8.53-13.79,16.6-20.71,24.88-4.75,5.68-10.76,9.67-18.1,14,.86-6.16,1.45-11.32,2.31-16.43,2.19-13.08,4.42-26.15,7.79-39,.85-3.24,1.78-4.48,5.4-3.17,5.5,1.98,11.33,2.42,17.19,2.22,1.94-.07,3.58-.63,5.05-1.82,1.89-1.54,1.82-2.46-.68-3.31-6.43-2.18-13.08-3.73-19.17-6.97-2.94-1.56-4.35-3.41-3.69-6.68,1.6-7.95,3.14-15.92,4.84-23.86,4.63-21.71,9.97-43.28,13-65.3.79-5.74.94-11.58,1.21-17.37.08-1.66.89-4.07-1.67-4.59-2.91-.6-3.72,1.9-4.19,3.96-1.79,7.92-3.25,15.92-5.07,23.83-2.89,12.59-5.84,25.18-9,37.7-7.91,31.36-15.06,62.9-20.87,94.7-3.93,21.53-7.42,43.13-12.53,64.42-.39,1.63-.33,3.81-2.64,4.41Z"/><path class="cls-7" d="M818.52,1003.57c-13.25-18.43-24.3-36.4-30.55-57.14-7.7-25.57-10.91-51.85-14.2-78.21-2.05-16.39-3.35-32.74-2.67-49.21.87-21.26,3.87-42.18,9.48-62.81,4.43-16.25,10.15-31.97,16.33-47.57.7-1.76,1.4-3.25,3.22-4.19,7.26-3.72,14.42-7.62,21.69-11.32,4.54-2.31,6.05-1.4,6.1,3.7.12,10.37,3.24,20.29,4.46,30.5.91,7.62.93,15.27,1.3,22.85.98,20.09,2.17,40.17,2.53,60.3.27,15.13.61,30.27.67,45.41.09,23.28-.96,46.56-3.22,69.69-2.14,21.89-4.64,43.87-10.73,65.17-1.13,3.97-2.69,7.82-4.43,12.83Z"/><path class="cls-7" d="M667.03,872.41c.45-27.3,2.79-52.24,9.18-76.57,7.05-26.85,16.17-53.06,26.77-78.73,1.65-3.99,3.52-7.93,4.74-12.06.97-3.29,3.13-5.01,5.57-7.13,4.87-4.23,9.14-3.78,14.29-.67,8.84,5.35,18.74,7.94,28.8,9.93,2.83.56,5.43.77,2.66,5.04-16.24,25.06-27.14,52.47-35,81.16-1.66,6.04-2.71,12.2-6.72,17.48-2.16,2.85-2.48,6.88-2.31,10.55.8,16.93-3.32,33.29-5.75,49.82-3.04,20.7-2.88,41.38-1.45,62.13,1.01,14.75,3.07,29.32,7.08,43.61.68,2.44,3.74,5.71,1.5,7.23-2.55,1.73-4.58-2.24-6.7-3.85-13.51-10.3-25.32-22.02-31.98-38.13-3.96-9.59-6.19-19.63-7.46-29.81-1.74-13.99-2.81-28.06-3.21-39.99Z"/><path class="cls-7" d="M840.35,945.2c-1.06-3.45.35-6.74.69-10.08,3.72-36.95,4.46-74,4.01-111.1-.24-19.97-.1-39.97-1.3-59.89-.88-14.61.54-29.32-1.78-43.81-1.94-12.11-1.9-24.49-5.1-36.4-.65-2.41.05-3.06,2.26-2.86,3.63.34,7.28.6,10.89,1.06,11.88,1.51,23.51,1,34.52-4.27,3.58-1.71,4.13.67,4.38,3.09.78,7.58,1.33,15.19,2.06,22.78,1.24,12.86,3.08,25.7,3.7,38.59.58,11.93.53,23.9-.34,35.9-1.59,21.79-6.12,42.99-11.39,64.08-3.31,13.27-9.35,25.57-13.98,38.37-7.77,21.45-18.51,41.63-26.84,62.85-.29.73-.53,1.6-1.77,1.71Z"/><path class="cls-1" d="M1035.08,802.99c-3.45-8.56-6.64-17.24-10.87-25.47-.61-1.18-1.19-2.38-1.89-3.5-2.65-4.29-4.11-4.33-6.27.24-4.52,9.56-5.74,20.03-8.01,30.21-1.59,7.12-1.06,14.53-3.26,21.53-1.53-.25-1.65-1.43-1.68-2.62-.5-19.04-4.6-37.42-9.81-55.65-5.22-18.26-11.05-36.25-19.97-53.08-9.62-18.17-22.15-34.3-35.18-50.09-5.89-7.13-12.43-13.4-20.88-17.4-2.11-1-2.29-2.34-1.65-4.46,1.01-3.32,2.31-6.78,2.24-10.15-.1-4.75,1.6-5.83,6.07-5.61,28.32,1.41,53.51,11.03,75.36,28.96,20.11,16.5,29.89,38.74,34.77,63.78,3.94,20.22,4.36,40.56,3.91,61.01-.14,6.14-1.44,12.21-1.11,18.39.08,1.45-.39,2.97-1.77,3.93Z"/><path class="cls-7" d="M808.95,1002.06c-4.76-2.43-8.96-5.68-12.76-9.36-28.21-27.4-48.21-59.94-60.92-97.1-5.06-14.81-8.77-29.91-10.94-45.38-.82-5.85,1.04-11.58,2.08-17.21,6.51-35.02,15.66-69.3,30.44-101.86,3.02-6.66,6.21-13.24,9.17-19.92.87-1.95,2.27-2.15,4.01-2.16,5.67-.02,11.33-.01,16.99-.14,3.06-.07,2.83.95,1.6,3.2-13.03,23.92-20.45,49.71-24.39,76.47-2.35,15.91-4.03,32.02-3.11,48.16.81,14.23,2.85,28.35,4.58,42.5,1.87,15.32,3.92,30.57,7.25,45.63,3.06,13.8,6.68,27.44,12.53,40.38,5.52,12.2,12.67,23.36,21.56,33.38.88.99,1.99,1.82,2.01,3.32l-.12.12Z"/><path class="cls-12" d="M724.37,598.4c.87-17.14,3.93-34.63,8.67-51.86,1.15-4.16,2.67-3.91,4.92-1.03,4.19,5.38,8.29,10.84,11.66,16.8,1.11,1.95.92,3.51.02,5.53-7.61,17.09-8.76,34.88-1.27,51.87,7.86,17.84,20.43,31.26,42.13,31.38,1.69,0,2.65.49,3.61,1.94,7.1,10.67,16.54,18.66,28.34,23.62,3.06,1.29,2.65,3.69,2.68,5.76.03,2.37-2.3,1.04-3.55,1.37-6.82,1.78-13.04,5.05-19.15,8.34-9.86,5.31-20.23,7.39-31.29,6.65-2.21-.15-4.11-.65-5.96-2.1-19.65-15.46-31.73-35.56-37.09-59.87-2.74-12.42-4.13-24.95-3.73-38.4Z"/><path class="cls-5" d="M950.03,598.08c-8.62,4.05-17.67,6.57-27.05,8.29-4.97.91-6.4-.6-5.81-5.17,5.67-5.3,7.68-12.49,8.86-19.6,2.21-13.3-.56-25.53-10.96-35.03-6.84-6.24-11.9-13.44-13.06-22.79-1.52-12.2-2.34-24.44.02-36.65,9.12,12.31,23.05,17.17,35.97,23.82,9.72,5,18.69,11.44,25.9,19.91,14.08,16.55,12.77,43.17-2.86,59.69-3.93,2.12-7.91,4.17-11,7.52Z"/><path class="cls-1" d="M1080.74,700.08c-3.32-2.45-3.66-6.39-4.64-9.87-1.68-5.99-2.86-12.13-4.24-18.21-.65-2.34-1.31-4.67-1.96-7.01.2-5.79-1.55-11.13-3.87-16.31-9.57-21.38-18.76-42.99-33.16-61.76-5.13-6.7-9.78-13.91-17.01-18.73-1.67-1.11-1.68-2.31.05-3.45,5.74-3.77,10.82-8.28,15.14-13.62,1.41-1.75,2.83-1.43,4.24-.09,23.18,22.13,41.5,47.96,57,75.83,6.96,12.52,11.68,26.07,16.63,39.48.81,2.19,1.6,4.4,1,6.8-.88-.43-1.89-.69-2.6-1.31-5.02-4.36-11.13-6.59-17.21-8.82-6.31-2.31-8.08-1.18-9.11,5.33-.47,2.95-.5,5.85-.35,8.87.39,7.6.12,15.23.12,22.86Z"/><path class="cls-5" d="M1080.74,700.08c0-7.62.28-15.26-.12-22.86-.16-3.02-.13-5.92.35-8.87,1.04-6.51,2.81-7.64,9.11-5.33,6.08,2.23,12.2,4.45,17.21,8.82.71.62,1.73.88,2.6,1.31.85,1.22,1.79,2.33,2.2,3.86,6.17,22.68,12.02,45.41,9.7,69.27-.38,3.93-1.34,7.81-2.03,11.72-7.64,9.92-13.25,21.23-21.15,30.99-4.05,5-8.15,9.98-10.57,16.06-.31.66-.62,1.32-.93,1.99-.96.42-1.82,1.22-3.01.8,3.99-24.03,5.05-48.14,2.62-72.42-1.19-11.93-3.79-23.59-6.01-35.32Z"/><path class="cls-8" d="M820.21,663.95c15.85,2.33,30.05-2.06,44.69-5.21,10.04-2.17,12.39-7.46,14.17-15.56,1.96-8.91,5.16-17.57,6.84-26.53,3.74-19.91-1.39-38.01-13-54.3-2.52-3.53-3.31-6.97-3.28-11.1.11-13.13,3.08-25.73,6.85-38.79,4.13,8.1,8.03,15.86,10.88,24.1,7.41,21.36,16.18,42.36,19.02,65.02,1.61,12.85,3.26,25.76-1.13,38.57-6.01,17.52-21.22,29.28-39.62,30.98-13.11,1.21-25.93.65-38.5-3.3-2.26-.71-4.82-1.12-6.92-3.88Z"/><path class="cls-12" d="M952.04,423.71c6.28-.67,11.6,2.19,17.65,4.64-8.36,3.87-15.62,8.7-17.12,17.81-1.84,11.24-1.82,22.5,4.63,32.84,5.91,9.47,12.27,18.61,18.74,27.69,10.72,15.05,14.71,31.79,11.99,50.06-.43,2.87-1.25,5.78-3.81,9.08-.41-7.22-.61-13.53-1.86-19.73-1.93-9.56-6-17.9-12.72-24.99-11.69-12.32-26.12-20.46-41.53-26.95-8.21-3.46-14.12-9.19-18.89-16.43-.92-1.39-1.85-2.79-1.62-4.6,10.97-19.97,24.23-37.87,44.55-49.42Z"/><path class="cls-12" d="M1084.03,1085.75c-8.99-9.43-8.25-19.68-4.31-31.36,4.64-13.78,10.08-27.47,11.75-42.11,1.58-13.85,3.06-27.74,1.75-41.7-.34-3.6-1.47-7.12-2.23-10.68,11.16,4.31,21.75,3.49,32.77-4.64-4.56,16.67-1.21,32.68-5.04,48.42-3.22,13.25-6.19,26.51-10.86,39.33-5.1,13.98-12.2,26.95-20.32,39.37-.91,1.39-1.78,2.82-3.5,3.36Z"/><path class="cls-6" d="M983.33,1158.11c1.83-8.09,3.72-16.17,5.45-24.28.79-3.69,2.42-6.34,6.58-6.02,4.34.34,5.55,3.74,5.29,7.18-.73,9.67.55,19.33-.17,28.97-2.31,30.55-4.63,61.1-4.61,91.76,0,2.04-.91,4.35,1.04,6.11-1.42,9.09-3.36,18.08-4.29,27.27-.7,6.95-.46,13.87-.65,20.8-.33.08-.67.16-1,.24-6.2-16.07-8.94-32.82-10.07-49.92-.64-9.74-1.59-19.45-1.9-29.23-.69-21.5,2.56-42.57,6.47-63.58.4-2.16.56-4.26.45-6.41.37-2.06-.46-3.05-2.58-2.89Z"/><path class="cls-6" d="M833.78,525.06c-5.67-2.48-7.43-8.28-10.47-12.85-3.95-5.94-6.94-12.5-10.54-18.68-9.26-15.94-8.47-32.38-2.4-49,1.73-4.75,3.09-9.76,7.48-13.22,2.25-1.77.93-3.68-1.51-4.25-3.84-.89-6.78.91-9.17,3.73-2.6,3.06-4.63,6.49-6.16,10.21-.67,0-1.33,0-2,0-.29-.6-.54-1.22-.88-1.79q-4.18-6.97,3.08-11.27c5.01-2.96,10.18-5.36,15.82-7.1,8.06-2.48,13.53.47,17.97,6.69,3.61,5.04,6.15,10.56,6.74,16.83-3.42,12.1-6.3,24.33-8.54,36.7-2.26,12.48-3.67,24.91,1.84,37.07.97,2.15.84,4.91-1.26,6.91Z"/><path class="cls-2" d="M656.02,857.95c-4.76-20.38-6.2-41.09-4.85-61.89,1.75-27.06,7.24-53.27,20.5-77.34,1.04-1.89,2.09-3.79,3.24-5.62,1.84-2.92,2.17-7.92,5.34-8.59,5.43-1.14,11.28-.73,16.91-.3,3.24.24,1.22,2.72.62,4.09-3.7,8.55-7.78,16.94-11.25,25.58-11.7,29.2-21.15,59.1-26.28,90.2-1.84,11.13-2.81,22.42-2.31,33.76-.64.03-1.28.07-1.92.1Z"/><path class="cls-1" d="M1066.02,693.97c-2.26-1.36-4.42-2.93-6.79-4.03-6.46-2.99-8.9-1.59-9.29,5.5-.48,8.62-.67,17.26-1.01,25.89-.32,8.22-.66,16.44-.99,24.66-3.39-3.91-2.1-8.93-2.66-13.33-2.68-21.18-8.08-41.34-19.68-59.51-1.16-1.82-2.23-3.75-3.7-5.3-3.07-3.24-3.91-6.94-3.96-11.34-.09-6.96-3.59-13.09-6.42-19.21-4.03-8.71-7.16-17.95-13.51-25.47-.6-.72-.75-1.82-1.11-2.74,0,0,.29-.25.29-.25,8.37,1.63,14.59,7.01,20.46,12.53,19.5,18.34,36.08,38.85,46.04,64.08,1.09,2.75,2.67,5.38,2.34,8.52Z"/><path class="cls-6" d="M922.01,983c-4.42,3.62-9.45,2.19-14.23,1.4-19.41-3.23-33.38-14.58-44.38-30.23-.86-1.22-1.62-2.51-2.54-3.68-.72-.92-1.63-1.8-2.96-1.15-1.1.54-.9,1.65-.92,2.63-.07,3.09.96,5.89,2.4,8.53,8.58,15.76,20.68,27.05,38.91,30.53.58.11,1.09.63,1.63.96-14.5.78-28.71-1.64-42.88-4.15-8.52-1.51-15.02-6.66-20.76-12.91-2.19-2.4-.67-4.45.48-6.3,5.51-8.87,10.92-17.78,15.07-27.4,3.48-8.07,7.08-16.08,10.71-24.08.6-1.33,1.63-2.46,2.46-3.68.34.17.67.32,1.01.48,3.29,16.48,10.46,31.19,21.4,43.8,7.01,8.08,13.58,16.87,23.82,21.61,3.51,1.62,7.17,2.49,10.77,3.65Z"/><path class="cls-2" d="M675,612.99c-.21-18.5.84-36.92,6.13-54.74,4.13-13.89,9.98-27.17,16.85-39.93,2.24-4.16,6.52-7.09,10.78-8.46,11.14-3.57,22.58-6.13,33.94-3.79-14.8,21.47-29.35,42.98-45.36,63.47-9.94,12.72-17.31,27.2-20.35,43.43-.66,0-1.33.01-1.99.02Z"/><path class="cls-2" d="M720,876.95c3.83,15.35,8.87,30.26,10.39,46.32,1.74,18.45,6.86,36.5,14.56,53.57,7.21,15.99,16,30.99,28.19,43.79.4.42.53,1.12.77,1.65-1.81,1.32-3.08.08-4.32-.55-10.68-5.45-20.75-11.92-30.69-18.58-3.67-2.46-5.96-6.25-7.86-10.17-6.7-13.88-10.4-28.47-12.22-43.84-2.03-17.11-1.9-34.18-1.65-51.29.1-6.93,1.21-13.85,1.86-20.78.32-.06.65-.1.98-.12Z"/><path class="cls-2" d="M1064.88,664.11c-4.97-7.04-9.54-14.41-14.99-21.06-12.45-15.19-25.1-30.3-43.27-39.19-3.72-1.82-7.59-3.57-11.59-4.56-7.01-1.73-13.45-4.49-19.62-9.13,6.31-5.76,10.77-13.1,15.22-20.44,1.39-2.3,3.45-1.88,5.29-1.46,3.32.76,6.55,1.08,9.83-.01,2.58-.86,3.92.97,5.55,2.42,12.06,10.77,21.34,23.81,29.13,37.73,9.26,16.54,17.65,33.6,23.75,51.65.42,1.25.63,2.56.93,3.85,0,0-.23.2-.23.2Z"/><path class="cls-6" d="M902.02,487.13c-2.37,12.22-1.54,24.45-.02,36.65,1.17,9.35,6.23,16.55,13.06,22.79,10.4,9.5,13.17,21.73,10.96,35.03-1.18,7.1-3.19,14.3-8.86,19.6-2.95-15.68-6.93-31.04-12.34-46.11-4.72-13.16-9.47-26.24-15.99-38.64-2.54-4.84-5.11-9.67-7-14.88-1.86-5.11-1.82-10.08-.58-15.12,2.2-8.93,2.46-17.84,2.17-27.08-.3-9.52,4.16-18.35,9.92-26.09,1.51-2.03,2.39-4.94,5.53-5.37l.18.16c-3.29,7.79-6.93,15.51-7.07,24.18-.18,11.4,2.8,22.01,8.64,31.8.59.98,1.55,1.78,1.37,3.1Z"/><path class="cls-2" d="M607.01,627.98c-3.52-38.51,9.36-70.25,39.4-94.77,4.72-3.85,10.28-6.01,16.6-5.4.66-.03,1.33-.07,1.99-.1,3.42,2.85,6.14,6.6,10.5,8.26,2.41.92,1.47,2.59.86,4.11-1.55,3.85-3.24,7.64-4.72,11.51-1.23,3.23-4.3,3.5-6.87,4.29-11.71,3.6-22,9.63-29.84,19-11.48,13.72-20.59,28.87-24.98,46.49-.56,2.25-1.29,4.45-1.95,6.67-.33-.01-.67-.03-1-.04Z"/><path class="cls-4" d="M1083.82,945.76c-1.15-.5-1.83-1.33-1.91-2.62-.33-5.71-1.01-11.41.08-17.11,2.24,1.71,4.38,3.56,6.73,5.1,5.9,3.87,17.08,2.23,21.87-3.08.78.34,1.25.07,1.44-.73,3.67-2.06,4.52-5.51,4.63-9.33,5.13-17.76,1.15-35-3.24-52.13-4.39-17.13-5.65-34.47-4.14-52,.5-5.85,2.16-11.56,7.49-15.16,1.74-1.17,3.57-2.48,5.93-.85,2.37,1.64,2.59,3.75,1.82,6.14-3.91,12.11-6.34,24.43-6.3,37.24.05,15.77,3.21,31.06,6.18,46.42,2.63,13.63,4.06,27.39,1.36,41.17-1.44,7.35-3.48,14.65-10.19,19.36-7.92,5.55-19.69,3.59-25.99-4.35-.98-1.24-1.47-3.52-3.45-3.06-2.43.57-2.2,2.99-2.31,4.98Z"/><path class="cls-11" d="M844.45,424.61c19.15,9.92,29.8,26.06,26.89,49.26-1.6,12.7-4.45,25.21-7.52,37.63-2.76,11.15-5.42,22.28-5.69,34.27-4.58-2.47-7.43-5.52-9.13-10.23-4.61-12.77-2.48-25.69-1.35-38.55,1.02-11.59,2.82-23.11,4.21-34.67,1.59-13.31-.96-25.76-7.9-37.28.17-.15.34-.29.5-.44Z"/><path class="cls-2" d="M706.96,673.05c-6.54-3.45-10.46-9.54-14.91-15.05-11.28-13.98-12.51-29.32-6.62-45.95,7.06-19.92,19.57-36.47,31.8-54.04,1.37,2.76-.25,4.66-.34,6.6-.11,2.14-.67,4.25-1.1,6.37-2.26,11.24-3.89,22.56-3.68,34.05.07,4.05-1.46,7.53-3.16,10.89-4.73,9.34-5.45,19.18-5.19,29.45.24,9.35,1.1,18.52,3.3,27.59l-.1.1Z"/><path class="cls-11" d="M781.99,511.88c2.45.31,2.87,2.59,3.87,4.18,8.43,13.36,8.97,28.25,8.39,43.38-.34,8.97-1.04,17.96.53,26.9.73,4.19,2.06,8.22,5.41,10.93,2.57,2.07.73,4.29,1,6.41.43,3.33-2.55,5.31-3.3,8.16-1.16,4.34-4.72,2.71-7.41,3.03-8.33.99-16.6,6.59-21.84,15-1.18.12-1.7-.86-2.3-1.55-1.76-1.99-4.25-3.83-4.93-6.17-.88-3.06,3.23-3.48,4.67-5.56,8.01-11.56,12.99-24.36,14.93-38.18,1.22-8.69,2.09-17.6,1.61-26.33-.43-7.8-.9-15.85-4-23.34-1.32-3.19-3.33-6.15-3.6-9.73,3.53-1.19,6.14-3.28,6.95-7.12Z"/><path class="cls-11" d="M781,493.01c8.42,3.24,16.19,7.64,23.25,13.27,2.03,1.62,3.02,3.95,4.12,6.18,6.13,12.4,14.04,23.32,25.2,31.79,5.16,3.92,4.27,12.94-1.63,18.97-4.42,4.52-8.9,9-13.61,13.2-4.31,3.84-8.53,7.77-12.82,12.64-2.14-6.13-2.29-11.64-1.89-17.24.62-8.64.71-17.29.78-25.96.11-15.2-5.62-28.14-14.21-40.22-3.02-4.25-7.24-7.66-9.12-12.73l-.07.1Z"/><path class="cls-2" d="M631.72,473.15c2.45-11.35,8.61-20.77,15.5-29.83,11.49-15.1,27.6-23.68,44.35-31.27,9.92-4.49,20.47-6.85,31.25-7.85,6.66-.62,13.26.39,19.51,2.98,1.53.63,3.28,1.21,3.99,2.83.97,2.21,3.86,4.26,2.81,6.44-.78,1.61-3.99.42-6.11.54-17.99.96-35.05,5.33-51.08,13.64-1.61.84-3.26,1.66-4.97,2.26-22.25,7.7-39.61,21.95-53.94,40.25-.44,0-.88.01-1.31.02Z"/><path class="cls-2" d="M1009.84,653.15c-8.1-5.14-15.58-11.16-23.95-15.97-14.34-8.23-29.83-12.62-45.98-15.29-6.13-1.02-12.23-.98-18.37-.83-2.17.05-3.46-.38-3.5-2.93-.04-2.49,1.1-3.08,3.33-3.1,11.49-.07,22-4.44,32.74-7.71,4.79-1.46,9.17-4.09,12.32-8.16,2.89-3.75,5.6-3.43,9.26-.9,10.9,7.52,17.63,18.4,23.94,29.51,3.59,6.32,6.14,13.23,9.2,19.86.78,1.69,1.37,3.39,1.3,5.27l-.29.25Z"/><path class="cls-2" d="M787.25,634.01c-.25,2.94,2.43,5.47,1.34,8.86-4.72-1.77-9.31-3.15-13.23-6.07-2.37-1.76-2.67-3.29-.33-5.55,8.49-8.18,18.59-9.74,29.57-7.37,9.99,2.16,18.79,7.44,28.19,11.17,11.61,4.6,23.39,8.5,36.81,5.65-2.18,4.69-5.67,6.89-9.53,8.11-9.64,3.03-19.48,5.18-29.59,6.2-9.21.93-17.03-3.67-25.54-5.47-7.06-1.49-10-6.11-12.06-12.12-.42-1.22-1.24-2.29-1.88-3.43-1.27-2.12-2.53-2.66-3.77.02Z"/><path class="cls-2" d="M666.56,479.8c3.24-11.23,9.1-20.62,16.94-28.87,3.03-3.18,6.77-5.24,10.88-5.61,5.93-.54,11.92-.4,17.92.22,17.29,1.8,34.63,3.97,51.9-.42,4.43-1.13,8.46-3.03,12-5.86,1.99-1.59,3.81-1.55,5.97-.46,5.52,2.79,9.65,7.15,12.96,12.16,2.12,3.2.48,7.2-1.13,9.83-1.98,3.24-6.05,4.64-10.14,3.92-6.3-1.12-11.71-4.56-17.53-6.96-21.88-9-43.81-10.25-65.58.39-2.37,1.16-4.95,2.47-6.58,4.42-7.34,8.78-19.6,9.38-27.6,17.22Z"/><path class="cls-2" d="M781.99,511.88c-.81,3.84-3.43,5.93-6.95,7.12-4.22-6.54-8.56-12.9-15.37-17.22-10.03-6.38-21.07-6.48-32.2-5.36-6.23.62-12.36,2.22-18.52,3.47-2.39.49-3.43-.09-4.16-2.68-3.4-12,8.6-25.11,20.88-23.68,11.43,1.33,22.27,3.74,31.83,10.24,10.59,7.2,18.52,16.82,24.49,28.1Z"/><path class="cls-8" d="M766.11,597.61c.94-22.51-8.21-41.02-22.79-57.37-.22-.25-.49-.45-.74-.67q-5.92-5.17-1.62-11.62c5.53-6.36,11.69-11.37,20.94-9.77,1.97.88,2.86,2.64,3.72,4.47,2.67,5.71,5.41,11.38,8.09,17.09,2.3,4.9,3.18,9.95,2.27,15.41-1.64,9.78-.4,19.95-3.89,29.49-1.65,4.5-3.4,8.97-5.1,13.45-.32-.1-.61-.25-.87-.46Z"/><path class="cls-2" d="M599.08,635.02c-2.7-.1-4.19-2.78-6.74-3.18-1.12-1.63-2.21-3.3-3.38-4.9-13.07-17.85-12.84-37.56-8.54-58.05,3.38-16.11,12.88-27.77,25.56-37.35,7.53-5.69,16.77-6.91,25.49-9.44,3.33-.96,6.77-1.64,10.21-2.03,2-.23,4.35.61,4.95,2.61.63,2.09-2.02,2.16-3.21,3.14-7.32,6.09-17.1,6.84-25.09,11.79-14.68,9.09-23.67,22.34-28.95,38.08-4.9,14.59-5.82,29.58.42,44.32,1.66,3.92,4.44,6.99,7.06,10.18,1.21,1.47,2.24,2.87,2.21,4.84Z"/><path class="cls-7" d="M662.89,501.22c-.74-7.31,5.31-10.22,9.44-13.79,7.51-6.48,16.68-10.13,26.38-12.23,1.52-.33,3.64-1,4.68.44.92,1.28-.93,2.65-1.24,4.06-.91,4.12-4.04,7.3-4.97,11.27-.83,3.53-.55,7.29,1.6,10.6.94,1.44,1.6,2.83-.41,4.23-7.08,4.89-11.39,12.05-14.98,19.57-2.08,4.35-3.6,3.88-6.67.97-7.34-6.97-12.61-14.9-13.83-25.12Z"/><path class="cls-6" d="M952.04,423.71c-20.32,11.55-33.58,29.45-44.55,49.42-3.9-3.62-4.34-8.64-5.44-13.41-2.61-11.34,1.71-21.49,5.52-31.69,2.82-7.54,3.43-7.46,11.48-8.07,9.44-.72,18.79-.66,28.08,1.16,1.79.35,4.12.14,4.9,2.59Z"/><path class="cls-11" d="M969.65,940.09c-.03-5.2-1.55-10.1-2.97-15.02-4.71-16.32-4.87-32.68-.43-49.07.39-1.42.96-2.85,1.75-4.09,2.64-4.17,5.86-4,8.15.38,4.03,7.73,6.09,16.08,7.7,24.58.15.8.15,1.67,1,2.13,1.32,7.79-2.27,14.86-3.37,22.29-.91,6.17-2.41,12.25-3.65,18.36-.93,2.81-1.87,5.62-2.8,8.43-1.96-.12-2.04-2.35-3.46-3.08-.64-1.64-1.28-3.28-1.93-4.92Z"/><path class="cls-2" d="M832.2,618.06c-6.49.39-14.71-2.83-23.25-2.1-.73.06-1.84-.2-2.2-.72-.74-1.06.46-1.74,1.03-2.47,5.76-7.38,13.96-10.45,22.6-12.69,7.7-1.99,15.56-3.32,22.95-6.52,4.64-2.01,9.07-4.15,12.59-7.85,1.97-2.06,3.11-1.87,4.15.95,1.96,5.35,2.88,10.9,3.81,16.47.31,1.83-.36,3.23-2.18,4.02-12.04,5.2-23.88,11.06-39.51,10.92Z"/><path class="cls-13" d="M1100.01,603.99c1.72.75,2.11,2.5,2.9,3.91,13.01,23.07,23.59,47.03,27.97,73.42,3.44,20.74,5.54,41.41.19,62.15-.2.78-.07,1.65-.09,2.48-.32.06-.64.07-.96.04.93-21.55-1.35-42.74-6.93-63.59-3.36-12.55-7.68-24.75-13.18-36.49-5.23-11.15-5.04-23.59-8.89-35.04-.74-2.19-1.4-4.46-1.03-6.85l.03-.03Z"/><path class="cls-2" d="M667.11,452.09c-.98,3.61-3.48,6.39-5.27,9.55-8.27,14.54-11.43,29.97-7.75,46.44.88,3.94,2.91,7.63,4.39,11.4-1.88,1.12-3.22.31-4.44-.53-6.96-4.77-14.37-8.95-19.57-15.96-3.09-4.17-4.77-8.48-2.59-13.45,7.08-16.11,19.49-27.48,33.57-37.31.38-.26.95-.25,1.44-.36,0,0,.22.22.22.22Z"/><path class="cls-4" d="M970.89,448.56c8.57,1.84,15.58,6.82,21.69,12.52,17.96,16.73,30.19,36.95,34.84,61.35.98,5.16.7,11.45-.85,15.77-1.61-6.03-3.15-11.58-5.25-16.96-2.18-5.58-4.51-11.09-7.58-16.23-3.06-5.13-6.38-10.11-9.52-15.2-6.89-11.12-16.59-18.87-28.51-24.03-1.65-.71-3.46-1.27-4.63-2.82-.06-4.8-.13-9.6-.19-14.39Z"/><path class="cls-4" d="M869.05,397.07c-6.37,6.75-15.47,9.43-22.6,15.06-.93.74-1.93-.02-2.84-.27-8.63-2.33-17.43-2.83-26.17-1.39-3.28.54-4.07-2.95-7.06-2.68-3.76.34-7.6-.34-11.42-.53-2.73-.13-5.19-.98-7.68-2.82,3.47-4.71,8.47-6.77,13.77-8.22,8.43-2.3,16.99-3.15,25.63-1.25,12.71,2.81,25.51,3.86,38.47,2.17l-.1-.09Z"/><path class="cls-2" d="M1094.49,614.34c-1.38-.21-1.81-1.38-2.42-2.33-11.64-18.17-23.03-36.56-38.07-52.22-5.04-5.25-10.43-10.22-16.4-14.49-1.77-1.26-2.56-8.16-1.09-9.61,1.14-1.13,2.07-.11,3.1.36,21.82,9.87,34.67,27.97,44.84,48.62,4.2,8.52,7.45,17.36,10.08,26.46.31,1.06.88,2.14-.05,3.21Z"/><path class="cls-11" d="M985.78,507.12c1.55-1.31,2.42.33,3.33.94,12,7.97,21.33,18.44,28.43,30.91,3.23,5.67,2.01,11.53-2.82,15.8-4.99,4.41-10.67,6.53-17.36,6.19-2.18-.11-2.84-.62-2.44-2.91,3.16-18.07-.29-35-9.02-50.98l-.12.05Z"/><path class="cls-13" d="M618,624c-1.77,22.88,7.21,41.01,26.47,52.65,16.8,10.15,35.42,15.12,55.31,8.92,2.85-.89,6.07-1.05,6.66,2,.51,2.63-1.04,5.93-4.13,7.21-1.79.74-3.87,1.06-5.83,1.11-29.71.69-54.7-9.07-74.41-32.12-9.42-11.01-9.49-22.63-6.04-35.33.39-1.43.68-2.89,1.02-4.33.32-.06.64-.09.97-.1Z"/><path class="cls-4" d="M962.06,414.67c-21.14-7.69-42.01-5.91-63.87-2.13,2.15-3.25,4.6-4.62,6.72-6.28,3.53-2.77,7.09-5.49,10.69-8.15,12.96-9.57,17.4-9.62,30.77-.5,3.79,2.59,12.34,11.74,15.69,17.07Z"/><path class="cls-2" d="M813.67,595.07c3-4.94,7.84-8.03,11.98-11.81,5.49-5.01,10.85-10.15,15.46-16,1.54-1.96,2.46-4.29,3.18-6.71,1.99-6.65,2.01-6.63,7.32-1.44,3.92,3.83,7.78,7.72,10.93,12.23,2.06,2.95,2.01,5.07-1.44,7.32-7.41,4.83-15.89,6.71-24.1,9.08-7.48,2.16-15.06,3.88-22.05,7.43-.43-.04-.86-.07-1.28-.1Z"/><path class="cls-2" d="M774.01,436.23c-6.57,4.28-13.79,5.37-20.95,5.62-14.29.49-28.45-1.46-42.57-3.48-2.45-.35-4.96-.35-7.47-.51,18.55-11.67,50.44-13.71,70.99-1.62Z"/><path class="cls-2" d="M698.06,682.04c-3.12,0-6.24-.03-9.36.01-1.66.02-2.74-.65-3.66-2.07-8.99-13.76-20.11-25.1-35.45-31.87-3.48-1.54-7.71-4.49-6.77-8.17.61-2.38,5.96-.87,9.14-.66,4.95.32,9.85,1.28,14.79,1.68,2.4.19,4.22.81,5.18,3.11,5.97,14.35,14.6,26.81,26.67,36.83-.18.38-.36.76-.54,1.13Z"/><path class="cls-13" d="M714.99,628.04c3.1,19.82,9.83,38.13,22.49,53.96,2.75,3.43,5.64,6.76,9.16,10.97-6.08-.68-10.31-3.27-14.81-5.07-13.36-5.34-17.36-16.49-18.88-29.52-1.18-10.12-.96-20.15.09-30.23.65-.04,1.3-.08,1.94-.11Z"/><path class="cls-13" d="M854.92,388.97c-10.16-1.34-20.05-4.3-30.31-5.03-7.91-.56-15.52.93-23,3.29-1.25.39-2.61,1.36-3.76.43-1.36-1.1-.06-2.55.36-3.61,1.64-4.12,2.1-8.36,1.81-12.71-.19-2.76.08-4.06,3.7-3.53,15.1,2.25,29.35,6.73,42.31,14.92,2.84,1.79,5.86,3.1,8.96,4.27-.03.66-.05,1.31-.08,1.97Z"/><path class="cls-2" d="M771.69,478.07c-6.01-1.47-11.3-4.71-16.95-7.05-13.28-5.5-26.95-8.21-41.34-7.1-2.79.21-5.61.03-9.47.03,6.45-3.87,12.76-4.84,19.01-5.95,16.47-2.92,31.48,1.98,46.22,8.56,5.65,2.53,11.5,4.34,17.85,2.8.24-.06.66.59,1,.91-5.2,3.1-11.57,3.75-16.31,7.8Z"/><path class="cls-2" d="M794.23,374.6c-1.69,7.07-2.01,14.91-9.48,19.63-2.22,1.4-3.65,1.74-5.38-.46-4.26-5.41-9.97-7.4-16.73-6.84-1.06.09-2.5.63-3.14-.67-.58-1.19.39-2.29,1.11-3.09,7.87-8.65,17.4-14.08,29.23-15.21,5.71-.54,3.65,3.64,4.39,6.63Z"/><path class="cls-13" d="M641.03,793.92c.38-22.28,1.95-44.4,8.96-65.77,2.8-8.54,6.37-16.77,10.33-24.82,1.24-2.53,6.28-2.78,10.06-.55,3.75,2.22.28,4.13-.68,5.56-14.66,21.64-22.85,45.57-25.82,71.42-.55,4.76-1.25,9.5-1.88,14.26-.33,0-.65-.03-.97-.09Z"/><path class="cls-4" d="M908.56,391.39c-13.31,8.75-22.94,22.04-37.36,29.38-4.41,2.24-8.18,3.19-11.88-1.12-1.13-1.32-2.9-2.1-4.85-3.45,10.29-3.31,18.03-10.02,26.59-15.36,8.35-5.21,17.29-9.02,27.5-9.45Z"/><path class="cls-9" d="M623.44,543.01c-18.02,22.69-26.65,48.6-26.72,77.36-12.03-18.62-1.33-61.54,26.3-78.47.14.37.28.74.42,1.11Z"/><path class="cls-13" d="M834.86,1123.89c7.12-16.18-.25-29.57-8.19-42.89-4.74-7.96-12-14.49-14.43-23.73-2.84-10.82-1.86-21.39,3.74-31.3,1.62-2.86,4.37-2.07,6.7-1.81,1.9.21.81,1.74.42,2.72-7.65,18.84-4.82,36.24,6.64,52.8,5.01,7.24,8.89,15.44,9.74,24.24.67,6.88.81,14.31-4.29,20.27,0,0-.33-.28-.33-.28Z"/><path class="cls-13" d="M652.92,592.6c.44-4.77.67-9.58,1.36-14.32.78-5.35,3.34-9.6,8.58-11.87,1.17-.51,2.15-1.95,3.54-.98,1.08.75.62,2.15.56,3.26-.35,5.94-1.72,11.75-2.18,17.71-.67,8.72-1.55,17.39-.88,26.16.11,1.45.99,3.61-1.31,4.25-2.24.62-3.15-1.14-4.09-2.81-3.73-6.65-5.77-13.71-5.59-21.4Z"/><path class="cls-4" d="M1008.03,514.1c-6.69-5.59-12.91-11.75-20.72-15.93-3.04-1.63-6.86-1.37-9.34-4.15.26-6.91-3.26-13.07-3.91-19.8,17.47,7.59,26.47,22.66,34.29,38.78-.1.37-.21.73-.31,1.1Z"/><path class="cls-2" d="M780.51,406.6c-6.92,1.37-13.44,2.6-18.78,6.94-2.51,2.04-3.73,1.02-5.28-1.5-3.12-5.07-2.58-10.48-2.36-15.92.08-1.93,1.22-2.72,3.13-3.18,7.56-1.8,13.75.23,18.32,6.45,1.63,2.22,4.07,3.92,4.98,7.2Z"/><path class="cls-4" d="M833.78,525.06c2.1-2,2.23-4.76,1.26-6.91-5.51-12.17-4.1-24.6-1.84-37.07,2.24-12.37,5.12-24.6,8.54-36.7,1.38,12.57-1.53,24.8-3.1,37.12-1.96,15.33-4.04,30.64-1.52,46.12.09.56-.32,1.21-.5,1.82h.06c-.74-1.61-2.91-2.26-2.9-4.37Z"/><path class="cls-13" d="M802.63,415.66c-4.87,3.77-10.27,6.29-13.44,11.4-.67,1.09-2.02,1.33-3.16.91-7.88-2.89-15.73-5.86-24.22-9.04,13.27-8.74,26.83-5.16,40.81-3.28Z"/><path class="cls-13" d="M835.83,626.76c11.65.81,22.16-3.13,32.51-7.78,1.58-.71,3.23-2.65,4.94-1.38,1.54,1.14-.18,3.09-.09,4.65.59,10.44-4.89,12.05-13.99,11.79-8.48-.24-16.26-2.67-23.45-7.08l.08-.2Z"/><path class="cls-9" d="M650.65,616.64c-9.48.75-13.96-1.96-16.18-9.48-.32-1.08-.68-2.4-.34-3.38,2.77-7.94,5.9-15.71,11.51-22.48-.09,12.06-1.47,24.2,5.01,35.33Z"/><path class="cls-4" d="M771.69,478.07c4.74-4.05,11.12-4.7,16.31-7.8,1.62-.74,3.25-1.47,5.54-2.51-.68,9.41,2.46,17.8,4.18,26.46l.11.07c-6.98-5.16-14.68-9.12-22.2-13.36-1.41-.79-3.19-1.13-3.95-2.85Z"/><path class="cls-13" d="M636.04,655.96c6.28,2.08,11.78,6.49,18.4,7.21,8.97.97,14.13,7.23,19.98,12.71.69.65,1.71,1.34,1.17,2.48-.41.88-1.44.74-2.21.53-14.05-3.88-27.59-8.69-36.84-20.99-.37-.49-.4-1.23-.59-1.86,0,0,.08-.08.08-.08Z"/><path class="cls-2" d="M638.97,625.02c.2-1.17-.49-3.23,2.21-2.44,6.2,1.82,12.41,1.31,18.73.57,5.13-.61,9.62,5.89,7.87,10.7-.57,1.56-1.89,1.19-2.94,1.03-6.71-1.02-13.43-1.99-20.1-3.26-3.99-.76-5.74-3.01-5.77-6.59Z"/><path class="cls-13" d="M637.01,648.98c-7.31-2.81-10.25-8.51-9.86-15.91.33-6.41.42-12.93,3.25-19.35,2.49,3.14,3.3,5.92,2.94,10.15-.61,7.1-.38,14.52,2.74,21.34.56,1.22,1.14,2.41.9,3.81l.03-.04Z"/><path class="cls-13" d="M756.91,1049.08c-5.93-6.97-11.7-14.03-14.08-23.15-.13-.48-.37-.93-.47-1.42-.46-2.29-1.41-5.51.19-6.64,2.09-1.49,4.34,1.49,6.64,2.21,2.5.78,2.4,2.41,1.95,4.67-1.38,6.91,1.32,13.03,4.26,19.04.8,1.64,1.87,3.18,1.71,5.13l-.19.16Z"/><path class="cls-7" d="M970.89,448.56c.06,4.8.13,9.6.19,14.39-3.05.6-5.82-1.1-8.8-1.07-.58,0-1.33-.3-1.73-.72-1.26-1.32-.62-12.54,1.12-13.93,3.34-2.65,6.41-1.02,9.22,1.33Z"/><path class="cls-6" d="M974.06,474.22c.65,6.73,4.17,12.89,3.91,19.8-2.41-.21-3.05-2.46-4.1-3.95-4.63-6.58-8.82-13.43-12.47-21.7,5.44,1.01,9.01,3.53,12.66,5.86Z"/><path class="cls-4" d="M973.65,436.2c3.98-2.67,7.77-2.65,10.99,1.12,4.02,4.71,9.06,8.66,11.24,14.77l.09-.09c-7.46-4.32-14.36-9.7-22.86-12.05.18-1.25.36-2.51.54-3.76Z"/><path class="cls-4" d="M756.08,611.7c-3.03-12.06-3.31-23.43-.68-34.9,2.76,11.29,5.6,22.57.68,34.9Z"/><path class="cls-6" d="M761.9,518.17c-9.24-1.59-15.41,3.42-20.94,9.77,1.15-7.46,6.57-12.03,11.5-16.91.78-.77,1.69-1.05,2.67-.28,2.67,2.1,6.15,3.46,6.77,7.42Z"/><path class="cls-13" d="M889.28,426.47c-3.68,4.72-7.05,8.93-8.84,14.13-.49,1.43-1.66,1.47-2.52,0-.08-.14-.15-.29-.25-.43-5.75-7.95-5.6-8.59,3.7-12.04,2.22-.83,4.3-2.58,7.9-1.66Z"/><path class="cls-6" d="M1084.13,807.83c1.19.42,2.05-.39,3.01-.8,2.43,8.35,4,16.69-.13,25.01-.36,0-.71,0-1.07,0,.12-5.82.17-11.56-3.11-16.83-1.59-2.55,2.18-4.66,1.3-7.38Z"/><path class="cls-3" d="M1032.91,915c-.15,3.12-2.66,5.74-1.91,9.05-.92.4-.79,1.35-1.11,2.08-.41.96-1.14,1.87-2.22,1.27-.46-.26-.67-1.48-.55-2.19.58-3.41,1.3-6.8,1.98-10.19h3.81Z"/><path class="cls-3" d="M975.04,948.09c.93-2.81,1.87-5.62,2.8-8.43.89,1.74,2.54,1.24,3.98,1.34-1.1,3.03-1.63,6.53-5.82,6.98-.35,0-.69,0-1.04,0,0,0,.08.12.08.12Z"/><path class="cls-3" d="M950.03,598.08c3.09-3.36,7.06-5.41,11-7.52-1.47,4.36-6.33,7.69-11,7.52Z"/><path class="cls-3" d="M1116.66,917.99c-.11,3.82-.96,7.27-4.63,9.33.37-3.11.73-6.22,1.1-9.33,1.18,0,2.35,0,3.53,0Z"/><path class="cls-3" d="M1069.89,665c.65,2.34,1.31,4.67,1.96,7.01-1.7-.44-4.56,2.05-4.87-1.92,1.64-.96.86-2.47.87-3.81.38-.91,1.13-1.22,2.04-1.28Z"/><path class="cls-3" d="M993.89,932.96c-1.29,1.64-2.54,4.05-4.99,2.17-1.59-1.22-.28-2.61,1.06-3.5,1.31.44,2.62.88,3.93,1.32Z"/><path class="cls-3" d="M1043.93,847.02c-1.11-1.19-1.65-3.1-.06-3.5,2.12-.53,3.07,1.71,3.82,3.49-1.25,0-2.51,0-3.76.01Z"/><path class="cls-3" d="M973.65,436.2c-.18,1.25-.36,2.51-.54,3.76-1.4-.3-3.91.93-3.74-1.63.14-2.09,2.42-2.24,4.28-2.13Z"/><path class="cls-3" d="M623.44,543.01c-.14-.37-.28-.74-.42-1.11.38-2.37,2.46-2.71,4.72-4.14-.52,3.22-2.05,4.53-4.3,5.25Z"/><path class="cls-3" d="M1008.03,514.1c.1-.37.21-.73.31-1.1,2.57.97,2.68,3.26,2.56,5.76l-2.87-4.66Z"/><path class="cls-13" d="M834.16,1126.13c-.08,2.79-1.84,4.53-4.45,7.35.8-3.9,2.27-5.87,4.14-7.62l.31.27Z"/><path class="cls-2" d="M1067.85,666.28c-.01,1.33.77,2.85-.87,3.81-.66-2.01-2.19-3.71-2.1-5.98,0,0,.23-.2.23-.2.91.79,1.83,1.59,2.74,2.38Z"/><path class="cls-3" d="M983.33,1158.11c2.12-.16,2.95.83,2.58,2.89-1.1-.05-2.21-.1-3.31-.14.24-.92.49-1.83.73-2.75Z"/><path class="cls-3" d="M1130.02,745.99c.32.04.64.02.96-.04.17,1.83-.54,3.42-1.5,5.35-.66-2.1-.96-3.78.53-5.31Z"/><path class="cls-3" d="M826.96,1136.27c-.12,1.17-.46,2.19-1.84,2.34-.23.02-.7-.27-.71-.44-.08-1.71,1.35-2.32,2.41-3.21.05.44.09.87.14,1.31Z"/><path class="cls-3" d="M656.02,857.95c.64-.03,1.28-.06,1.92-.1,0,1.41,0,2.82,0,4.45-1.96-1.15-1.91-2.76-1.92-4.35Z"/><path class="cls-3" d="M618,624c-.33,0-.65.03-.97.1.38-1.37.75-2.74,1.25-4.55,1,1.91,1.07,3.25-.28,4.45Z"/><path class="cls-3" d="M854.92,388.97c.03-.66.05-1.31.08-1.97,1.25.15,2.49.33,3.34,1.97h-3.42Z"/><path class="cls-3" d="M787.25,634.01c1.24-2.68,2.5-2.14,3.77-.02-1.26,0-2.51.01-3.77.02Z"/><path class="cls-3" d="M713.89,689.73c.22.43.57.82.59,1.21.04.87-.66,1-1.28.81-.32-.1-.51-.61-.76-.94.34-.26.68-.51,1.44-1.09Z"/><path class="cls-3" d="M675,612.99c.66,0,1.33-.01,1.99-.02-.22.93.51,2.59-1.21,2.44-1.03-.09-.7-1.53-.78-2.42Z"/><path class="cls-3" d="M1045.51,804.99c.25,1.08.21,2.1-.56,2.99-1.38-1.29-1.32-2.31.56-2.99Z"/><path class="cls-3" d="M990.96,1310.15c.33-.08.67-.16,1-.24,0,1.3,0,2.6,0,4.18-1.67-1.25-.61-2.75-1-3.94Z"/><path class="cls-3" d="M1050.09,867.51c.62-.21,1.25-.41,1.87-.62,0,1-.09,2.27-1.11,2.4-1.18.16-.81-1.03-.76-1.79Z"/><path class="cls-3" d="M813.67,595.07c.43.03.86.07,1.28.1-.4.74-.88,1.42-1.79,1.48-.57.03-.95-.44-.69-.92.18-.34.78-.45,1.19-.66Z"/><path class="cls-3" d="M984.86,567.37c-.47.37-.81.64-1.15.91-.19-.34-.59-.73-.53-1.01.07-.34.54-.59.83-.88.25.3.5.59.84.99Z"/><path class="cls-3" d="M1085.94,832.03c.36,0,.71,0,1.07,0-.12.97-.34,2.48-1.32,2.18-1.23-.38-.55-1.5.25-2.18Z"/><path class="cls-3" d="M997.12,453.04c.64.06,1.34.09,1.41.93.01.18-.38.56-.56.55-.84-.08-.87-.77-.93-1.41,0,0,.08-.07.08-.07Z"/><path class="cls-3" d="M641.03,793.92c.32.06.64.09.97.09-.16,1.03.4,2.19-.97,3.52v-3.61Z"/><path class="cls-3" d="M670.63,449.28c-.28.11-.63.37-.83.29-.2-.09-.24-.52-.35-.8.28-.11.63-.37.83-.29.2.08.24.52.35.8Z"/><path class="cls-3" d="M631.72,473.15c.44,0,.88-.01,1.31-.02-.16.72-.24,1.69-1.26,1.41-.78-.21-.58-.89-.05-1.39Z"/><path class="cls-3" d="M708.22,674.04c.62.08,1.29.14,1.32.96,0,.18-.37.55-.55.54-.82-.04-.87-.71-.95-1.34,0,0,.19-.16.19-.16Z"/><path class="cls-3" d="M799,441c.67,0,1.33,0,2,0-.14.73-.13,1.73-1.21,1.5-.35-.07-.53-.97-.79-1.49Z"/><path class="cls-3" d="M665,527.71c-.66.03-1.33.07-1.99.1.1-.62.18-1.34.95-1.39.8-.05.93.66,1.04,1.29Z"/><path class="cls-3" d="M714.99,628.04c-.65.04-1.3.07-1.94.11.37-.49.66-1.3,1.11-1.4.92-.2.74.72.83,1.29Z"/><path class="cls-3" d="M835.75,626.96c-.6-.07-1.19-.15-1.79-.22.09-.2.25-.59.27-.58.54.18,1.07.4,1.6.6,0,0-.08.2-.08.2Z"/><path class="cls-3" d="M607.01,627.98c.33.01.67.03,1,.04-.08.73-.15,1.46-.23,2.19-.2,0-.39,0-.59,0l-.18-2.22Z"/><path class="cls-3" d="M866.02,913.94c-.34-.16-.68-.32-1.01-.48.24-.24.49-.48.73-.72.09.4.19.8.28,1.2Z"/><path class="cls-3" d="M734.39,920.72c.12.04.35.08.35.13,0,.14-.08.28-.13.43-.12-.04-.35-.08-.35-.13,0-.14.08-.28.13-.43Z"/><path class="cls-2" d="M1010.13,652.9c.22.38.44.75.63,1.15.02.04-.21.2-.32.3-.2-.4-.4-.8-.6-1.19,0,0,.29-.25.29-.25Z"/><path class="cls-3" d="M839.75,948.03l-.29.35c-.07-.13-.21-.27-.2-.4.01-.12.17-.24.27-.35.07.13.15.27.22.4Z"/><path class="cls-13" d="M1099.98,604.01c-.91-.39-.95-1.22-1.01-2.03h.01c.78.44,1.01,1.17,1.03,2.01,0,0-.03.03-.03.03Z"/><path class="cls-3" d="M718.15,985.96c.47.35.9.72.52,1.37-.02.03-.43-.18-.66-.28.05-.36.09-.73.14-1.09Z"/><path class="cls-13" d="M757.1,1048.92c.23.38.48.76.69,1.16.02.03-.23.2-.35.3-.17-.43-.35-.87-.52-1.3,0,0,.19-.16.19-.16Z"/><path class="cls-3" d="M759.76,1054.03c-.1.12-.19.23-.29.35-.07-.13-.21-.27-.2-.4.01-.12.17-.24.27-.35.07.13.15.27.22.4Z"/><path class="cls-13" d="M833.85,1125.86c.34-.66.68-1.31,1.01-1.97,0,0,.33.28.33.28-.34.65-.69,1.31-1.03,1.96,0,0-.31-.27-.31-.27Z"/><path class="cls-6" d="M898.89,427.9c.04-.83.27-1.54,1.12-1.89l-.02-.02c.05.85-.13,1.59-.92,2.06,0,0-.18-.16-.18-.16Z"/><path class="cls-4" d="M869.15,397.16c-.23-.58.03-.77.58-.72.03,0,.08.19.07.2-.25.15-.5.29-.75.43,0,0,.11.09.11.09Z"/><path class="cls-3" d="M995.8,607.97v-.77c.42.19.84.37,1.25.56-.42.07-.83.14-1.25.22Z"/><path class="cls-3" d="M1080.98,823.04l-.49-.05s-.49.02-.49.02c.12-.39.21-1.12.35-1.12.85-.04.51.7.63,1.15Z"/><path class="cls-3" d="M720,876.95c-.33.01-.65.05-.98.12.14-.45.27-.9.41-1.36.19.41.38.83.56,1.24Z"/><path class="cls-3" d="M647.7,579.23c-.1.02-.25.1-.3.05-.08-.07-.1-.21-.14-.33.17-.03.35-.07.52-.1l-.07.37Z"/><path class="cls-11" d="M781.07,492.91l-.71-.1c.48-.78.48-.03.64.2,0,0,.07-.1.07-.1Z"/><polygon class="cls-2" points="775.5 1023.32 775.6 1023.57 775.35 1023.53 775.5 1023.32"/><path class="cls-3" d="M766.11,597.61c.26.21.55.36.87.46-.8.8-.8.11-.87-.46Z"/><path class="cls-3" d="M1098.97,601.98c-.13-.08-.27-.15-.4-.23.14.07.28.15.42.22,0,0-.01,0-.01,0Z"/><path class="cls-6" d="M802.9,1036.88c.19-.11.38-.22.57-.33-.11.19-.22.38-.33.57,0,0-.24-.24-.24-.24Z"/><path class="cls-11" d="M985.9,507.06l-.26-.75c.14.04.28.08.41.13-.09.22-.18.45-.27.67,0,0,.11-.05.11-.05Z"/><path class="cls-7" d="M718.15,985.96c-.05.36-.09.73-.14,1.09-.66-.45-.78-.84.14-1.09Z"/><path class="cls-4" d="M995.88,452.1c.41.31.83.63,1.24.94,0,0-.08.07-.08.07-.36-.37-.71-.73-1.07-1.1,0,0-.09.09-.09.09Z"/><path class="cls-1" d="M995.8,607.97c.42-.07.83-.14,1.25-.22.04.36.09.73.13,1.09,0,0-.28.24-.28.24-.37-.37-.73-.75-1.1-1.12Z"/><path class="cls-2" d="M666.89,451.88c.2-.13.39-.25.59-.38-.13.2-.25.4-.38.59,0,0-.21-.21-.21-.21Z"/><path class="cls-3" d="M748.02,694.01c.14.08.27.16.41.23-.14-.07-.28-.15-.43-.22l.02-.02Z"/><path class="cls-13" d="M748.01,694.02l-.44-.42c.15.14.3.27.46.41,0,0-.01.02-.01.02Z"/><path class="cls-2" d="M707.06,672.95c.38.37.77.73,1.16,1.1,0,0-.18.16-.18.16-.36-.38-.72-.77-1.07-1.16,0,0,.1-.1.1-.1Z"/><path class="cls-13" d="M636.98,649.02c.15.12.3.24.45.36-.09-.02-.2,0-.25-.06-.08-.09-.11-.22-.17-.33,0,0-.03.04-.03.04Z"/><path class="cls-13" d="M827.95,1134.95c.17-.16.35-.32.52-.48-.15.19-.29.38-.44.57,0,0-.08-.09-.08-.09Z"/><path class="cls-13" d="M635.96,656.04c-.35-.37-.7-.73-1.05-1.1l.04-.04c.36.35.73.7,1.1,1.05,0,0-.08.08-.08.08Z"/><path class="cls-13" d="M826.96,1136.27c-.04-.44-.09-.87-.14-1.31.37,0,.75,0,1.12-.01,0,0,.08.09.08.09-.36.41-.71.82-1.07,1.23Z"/><path class="cls-7" d="M809.07,1001.94l.44.53c-.18-.14-.37-.28-.55-.42,0,0,.11-.11.11-.11Z"/><path class="cls-6" d="M900.01,426.01c.15-.15.3-.31.44-.46-.02.1-.01.25-.08.3-.1.08-.26.1-.39.14,0,0,.02.02.02.02Z"/><path class="cls-3" d="M634.9,654.94c-.12-.07-.24-.15-.37-.22.14.06.27.12.41.18,0,0-.04.04-.04.04Z"/><path class="cls-11" d="M843.95,425.05c-.24-.18-.47-.37-.71-.55.46-.52.85-.34,1.21.12-.16.14-.33.29-.5.43Z"/><path class="cls-3" d="M760.97,1226.96l.27-.39c-.06.16-.13.32-.19.47,0,0-.08-.08-.08-.08Z"/><path class="cls-4" d="M797.73,494.21l.22-.08s-.12.14-.11.15c0,0-.11-.07-.11-.07Z"/><path class="cls-4" d="M836.62,529.43c.13-.07.26-.13.39-.2-.1.06-.21.12-.32.19,0,0-.07.02-.07.02Z"/><path class="cls-14" d="M914.95,1190.97c6.28-4.64,11.5-9.58,17.78-13.1,2.11-1.18,3.17-2.2,1.45-4.86-1.92-2.99-1.2-6.44.23-9.59.56-1.24,1.48-2.47,3-2.18,1.69.33,2.65,1.85,2.25,3.39-.65,2.56.03,4.91.37,7.36.7,5.01-.67,8.73-5.64,11.23-4.27,2.15-7.95,5.44-12.05,7.96-6.03,3.7-14.31,1.33-17.2-5.02-2.66-5.83-3.92-12.27-9.04-16.92-1.99-1.81-.35-4.3,1.3-6.17,3.04-3.45,6.94-6.31,7.88-11.27.18-.93,1.03-1.82,2.23-1.45,1.04.32,1.49,1.23,1.68,2.28.79,4.41-.58,8.33-3.27,11.65-2.46,3.04-2.92,5.31-.47,8.95,3.68,5.47,6.3,11.65,9.49,17.75Z"/><path class="cls-10" d="M966.7,1113.89c-1.37.08-1.51,1.03-2.01,1.65-5.2,6.47-11.63,5.89-15.44-1.46-2.43-4.67-3.77-9.53-2.33-14.87.67-2.46,1.53-4.82,3.39-6.53,1.49-1.37,3.5-3.92,5.28-2.46,1.83,1.49.1,3.97-1.37,5.63-1.84,2.09-2.69,4.61-3.01,7.26-1.03,8.36,4.62,12.93,12.01,9.83,6.92-2.9,7.2-2.75,9.04,4.76.28,1.12.68,2.26.69,3.39.01,1.23,1.94,2.79.29,3.5-1.85.8-2.91-1.11-3.55-2.65-1.1-2.68-2.03-5.43-2.99-8.05Z"/><path class="cls-10" d="M974.52,1127.25c5.76,5.38,5.66,11.39.03,16.06-4.08,3.38-8.33,6.6-11.62,10.84-1.92,2.48-3.75,3.04-6.63.77-5.5-4.35-8.82-3.81-13.5,1.33-.74.81-1.27,2.16-2.76,1.35-1.32-.72-1-1.87-.73-3.06,1.46-6.35,6.87-9.54,13.41-6.13,5.89,3.07,9.13,1.5,12.89-2.76,2.5-2.83,5.98-4.8,8.45-7.65,2.77-3.18-1.9-6.97.46-10.74Z"/><path class="cls-11" d="M977.78,955.99c-.44.79-1.06,2.29-1.28,2.24-1.19-.31-.66-1.38-.59-2.23.62,0,1.25,0,1.87,0Z"/><path class="cls-11" d="M974.96,947.97c.35,0,.69,0,1.04,0-.33.34-.65.68-.98,1.02-.02-.34-.04-.69-.06-1.03Z"/><path class="cls-3" d="M1110.59,928.05c-4.79,5.31-15.98,6.95-21.87,3.08-2.35-1.54-4.49-3.39-6.73-5.1-.55-.81-1.18-1.58-1.63-2.45-.9-1.75-2.26-3.64-.55-5.49,1.79-1.94,3.36.12,4.84.82,7.03,3.33,13.79,7.33,21.97,7.32,1.32,0,2.65,1.19,3.97,1.82Z"/></svg>