<svg width="36" height="37" viewBox="0 0 36 37" fill="none" xmlns="http://www.w3.org/2000/svg">
<g clip-path="url(#clip0_4398_5121)">
<rect x="0.03125" y="0.853516" width="35.2563" height="35.2563" fill="#282828"/>
<rect x="1.49609" y="2.31445" width="32.335" height="32.335" fill="#282828"/>
<path d="M17.6603 4.76367L32.0208 29.6369H3.29971L17.6603 4.76367Z" fill="#F5E2A0"/>
<path d="M23.3465 17.7279H21.4501V17.1101C21.4501 16.9462 21.4501 16.4922 21.4501 16.4922C21.4501 16.4922 20.9856 16.4922 20.8179 16.4922H14.4966C14.3289 16.4922 13.8645 16.4922 13.8645 16.4922C13.8645 16.4922 13.8645 16.9462 13.8645 17.1101V17.7279H11.9681C11.8004 17.7279 11.336 17.7279 11.336 17.7279C11.336 17.7279 11.3359 18.1819 11.3359 18.3458V20.1994C11.3359 22.8624 12.4738 24.4688 14.3828 24.5244C14.6614 24.9952 15.0425 25.4003 15.4991 25.711C15.9557 26.0218 16.4767 26.2305 17.0251 26.3224V27.6137H15.3352C14.9095 28.0963 14.9095 28.0797 14.9095 28.8495H20.405C20.405 28.1005 20.405 28.0963 19.9793 27.6137H18.2894V26.3224C18.8378 26.2305 19.3588 26.0218 19.8154 25.711C20.2721 25.4003 20.6532 24.9952 20.9317 24.5244C22.8281 24.4626 23.9786 22.8562 23.9786 20.1994V18.3458C23.9786 18.1819 23.9786 17.7279 23.9786 17.7279C23.9786 17.7279 23.5141 17.7279 23.3465 17.7279ZM12.6002 20.1994V18.9636H13.8645V23.1836C12.7393 22.7202 12.6002 21.0026 12.6002 20.1994ZM21.4501 23.1836V18.9636H22.7143V20.1994C22.7143 21.0026 22.5753 22.7202 21.4501 23.1836Z" fill="#282828"/>
</g>
<defs>
<clipPath id="clip0_4398_5121">
<rect width="35.2563" height="35.2563" fill="white" transform="translate(0.03125 0.853516)"/>
</clipPath>
</defs>
</svg>
