<?xml version="1.0" encoding="UTF-8"?><svg id="Capa_1" xmlns="http://www.w3.org/2000/svg" width="875.95mm" height="875.95mm" viewBox="0 0 2483 2483"><defs><style>.cls-1{fill:#554f3d;}.cls-1,.cls-2,.cls-3,.cls-4,.cls-5,.cls-6,.cls-7,.cls-8,.cls-9,.cls-10,.cls-11,.cls-12,.cls-13,.cls-14,.cls-15{stroke-width:0px;}.cls-2{fill:#f8e096;}.cls-3{fill:#2e2b22;}.cls-4{fill:#dacc89;}.cls-5{fill:#55503e;}.cls-6{fill:#5a5441;}.cls-7{fill:#f7df96;}.cls-8{fill:#534e3d;}.cls-9{fill:#56503e;}.cls-10{fill:#f0da92;}.cls-11{fill:#ecd791;}.cls-12{fill:#191816;}.cls-13{fill:#f2db93;}.cls-14{fill:#f7e096;}.cls-15{fill:#544f3d;}</style></defs><path class="cls-14" d="M279.17,1379.24c-1.23-9.25-4.18-18.34-2.75-27.85,2.98-.13,5.96-.24,8.93-.38,8.21-.36,8.09-.36,7.7-8.32-1.05-21.52-1.99-43.05-2.98-64.58,12.86-8.14,26.37-13.75,42.12-12.32,6.57.6,13.23.09,19.85.09l.07.06c-.09,1.26.7,1.87,1.71,2.31.28,11.95.28,23.91.91,35.84.68,12.92,1.88,25.82,2.98,38.71.21,2.52-.29,5.81,2.89,6.8,3.5,1.09,7.48,1.28,10.76-.14,3.66-1.58,1.17-5.26,1.17-7.99,0-2.97-.58-5.94-.83-8.92-1.93-22.49-3.21-45-2.9-67.58,6.3-1.33,10.13-6.66,15.47-9.56,1.57,4.16,1.15,8.55,1.33,12.85.6,14.3.91,28.61,1.63,42.91.55,10.97,1.61,21.91,2.28,32.87.24,3.99,1.54,6.31,6.02,5.79,4.62-.53,3.6-3.89,3.59-6.76,0-1-.19-1.99-.22-2.99-.91-29.94-1.81-59.87-2.71-89.81,4.85,1.21,9.81,1,14.74,1.35,10.19.72,20.47-1.48,30.58,1.03,0,1.32.05,2.65-.03,3.96-.52,8.04.63,15.81,3.81,23.24.76,1.76,1.32,4.13,3.83,3.72,1.79-.3,2.22-2.28,2.44-3.93.43-3.28.87-6.55,2.55-9.49,6.9-.89,13.67-2.7,20.75-2.53,2.52.06,5.29-.95,7.58-2.16,6.91-3.64,14.36-5.12,21.94-6.24,1.61,4.87,1.08,9.91.86,14.84-.87,18.93-.55,37.85,0,56.77.09,2.98-.08,6.09.71,8.9,1.01,3.57.86,8.84,6.39,8.69,5.49-.14,5.3-5.09,5.8-8.9.44-3.28.58-6.64.46-9.95-.84-22.57-.41-45.19-2.98-67.68,3.23.2,4.22,2.86,5.58,5.11,2.24,3.7,4.67,7.31,6.66,11.14,3.63,7.02,9.18,9.15,16.62,7.26,1.61-.41,3.26-.72,4.91-.9,14.23-1.5,27.98-6.66,42.42-6.22,13.4.41,26.59-.97,39.79-2.76,8.57-1.16,17.1-2.71,25.69-3.7,37.73-4.32,75.7-5.36,113.57-7.68,43.25-2.64,86.55-.35,129.82.4,11.3.2,22.58,2.01,33.88,2.22,27.97.51,55.79,4.25,83.81,3.6,24.97-.57,49.95-1.36,74.91-1.67,46.96-.58,93.96-1.56,140.91-.03,25.34.82,50.61.02,75.89-1,50.27-2.04,100.57-3.81,150.83-1.07,39.81,2.17,79.16-.34,118.27-7.62,3.91-.73,7.17.54,10.7,1.23,1.62,2.65,1.86,5.6,2.11,8.61,3.09,36.92,2.16,73.85-.19,110.74-2.5,39.33-1.33,78.51,3.57,117.6-4.86,1.84-9.89,1.08-14.84.84-7.01-.35-13.96-.08-20.94.64-14.56,1.49-29.11,3.44-43.76,3.37-30.98-.15-61.88,2.46-92.87,2.02-22.97-.32-45.98-.09-68.94.76-42.58,1.58-85.2.6-127.79,2.46-31.25,1.36-62.58.6-93.87,1.28-41.58.9-83.11,3.77-124.76,2.26-28.61-1.04-57.28-1.03-85.92-.91-45.96.19-91.93,1.38-137.87-.52-26.63-1.1-53.26-1.42-79.88-.67-31.64.89-63.21-.36-94.8-1.71-25.93-1.11-51.87-1.88-77.8-2.8-.97-1.75-1.59-3.54-1.65-5.62-.55-19.56-3.84-38.85-5.81-58.26-.33-3.31-1.06-6.54-2.71-9.5-1.14-2.04-2.36-4.46-4.99-4.18-2.99.33-2.79,3.21-3,5.44-1.64,17.55-1.65,35.07.98,52.53,1.04,6.92,2.94,13.6,6.95,19.49-7.78-.55-14.65-3.58-20.74-8.21-6.3-4.79-13.01-8.82-20.09-12.29-2.75-16.43-5.57-32.84-8.22-49.28-1.43-8.83-1.31-9,7.37-9.63,22.93-1.66,45.87-3.1,68.8-4.78,40.86-2.99,81.77-5.43,122.52-9.72,2.96-.31,5.91-.99,8.78-1.78,2.5-.68,4.02-2.64,3.82-5.2-.19-2.59-2.17-4.14-4.6-4.61-2.27-.44-4.63-.56-6.95-.54-7.66.04-15.33.02-22.98.36-40.27,1.74-80.54,3.61-120.82,5.38-8.09.36-8,.24-7.96-7.63.04-6.98.45-14.04-2.36-20.7-.67-1.58-1.86-2.8-3.83-2.45-1.74.31-1.74,1.87-1.76,3.11-.11,9.16-3.8,18.23.46,28.16-13.41.7-25.67,1.42-37.93,1.94-7.28.3-7.46.12-8.66-7.58-1.12-7.24-1.99-14.51-2.9-21.78-.68-5.41-4.57-4.61-8.27-4.54-3.84.07-5.4,1.82-4.97,5.63.78,6.95,1.45,13.91,2.18,20.86.9,8.48.91,8.54-7.18,8.97-11.31.6-22.63,1.11-33.94,1.62-6.86.3-6.97.28-7.82-6.89-.74-6.28-1.1-12.61-1.78-18.9-.86-8.03-2.22-10.07-6.13-8.89-5.32,1.61-2.7,6.08-2.49,9.24.46,6.97,1.6,13.89,2.42,20.84.19,1.58.88,3.75-.8,4.51-3.71,1.66-7.83,1.65-11.72.88-3.49-.69-2.76-4.09-3.05-6.6-.82-6.95-1.37-13.93-2.28-20.86-.97-7.35-1.77-7.8-9.92-6.98-5.39.55-5.63.89-4.78,8.31.83,7.28,1.65,14.57,2.66,21.83.61,4.36-1.1,5.92-5.43,6.06-10.98.36-21.97.96-32.93,1.72-4.9.34-6.33-1.94-6.66-6.39-.6-7.96-1.84-15.88-2.44-23.84-.31-4.19-1.87-5.79-6.18-5.69-4.41.1-5.97,1.85-5.5,6.08.94,8.6,1.8,17.22,2.6,25.84.19,2.03-.03,4.14-2.69,4.48-2.37.3-3.76-.99-4.21-3.24-1.19-5.87-2.43-11.74-3.44-17.65q-2.74-15.95-19.1-13.99ZM308.82,1286.18c-3.32,1.3-3.28,4.45-3.53,6.79-1.04,9.87-1.88,19.79-2.27,29.7-.29,7.62.32,15.26.31,22.89,0,3.77,1.49,5.35,5.31,5.37,5.73.04,7.04-.85,6.48-6.97-1.71-18.83-4.65-37.55-5.27-56.48-.01-.45-.69-.89-1.05-1.31ZM450.55,1291.61c-3.65,5.05-3.76,9.36-4.06,13.58-.92,13.01.77,25.96.91,38.95.06,5.54,3.41,5.38,7.34,5.4,4.8.02,5.38-2.64,5.01-6.51-1.65-16.87-2.87-33.82-9.19-51.43Z"/><path class="cls-12" d="M396.18,1250.27c.9,29.94,1.8,59.87,2.71,89.81.03,1,.21,1.99.22,2.99.01,2.88,1.02,6.23-3.59,6.76-4.48.51-5.77-1.81-6.02-5.79-.67-10.96-1.73-21.9-2.28-32.87-.71-14.29-1.03-28.61-1.63-42.91-.18-4.3.24-8.68-1.33-12.85-.1-5.6-.12-11.2-.31-16.8-.38-11.18.83-22.4-.92-33.54,1.1-2.68,1.43-5.32-.32-7.88,1.68-3.77,1.12-7.78,1.17-11.71.22-18.46.4-36.92.59-55.38.21-.33.21-.65-.02-.98,1.97-10.18.96-20.58,2.36-30.8.18-1.33.33-2.62-.91-3.6-3.99-3.17-13.1.12-13.97,5.01-1.21,6.79-.5,13.87-3.49,20.4-1.02,2.23,1.01,3.57,2.69,4.7-3.42,23.23-3.78,46.56-2.44,69.95-1.43,2.87-1.28,5.79-.28,8.74-.46,20.49-1.16,40.98.38,61.45-.31,22.58.98,45.1,2.9,67.58.26,2.98.83,5.95.83,8.92,0,2.73,2.49,6.41-1.17,7.99-3.28,1.42-7.26,1.23-10.76.14-3.18-.99-2.68-4.29-2.89-6.8-1.09-12.9-2.3-25.79-2.98-38.71-.62-11.93-.63-23.89-.91-35.84.15-1.31-.33-2.14-1.71-2.3,0,0-.07-.06-.07-.06.15-11.29-.56-22.67.71-33.83,1.02-8.99,1.29-17.8.61-26.74,1.12-5,.73-10.05.47-15.09.09-17.3.17-34.61.26-51.91.56-.8,1.53-1.56,1.63-2.42,1.49-12.49,2.86-25,4.28-37.5.34-3.01-1.2-4.28-4.01-4.28-11.6,0-23.2.06-34.81.03-3.19,0-5.09,1.21-5.06,4.59.13,11.94-3.49,23.64-2.3,35.64-.02,6.25.64,12.59-.19,18.73-1.78,13.09-1.89,26.17-1.33,39.31-1.14,5.1-1.1,10.21-.12,15.33-.09,7.99-.45,16-.18,23.98.23,6.76-2.32,13.09-2.42,19.77-.02,1.61-1.05,3.29-2.92,3.56-2.09.3-2.88-1.53-3.41-3.01-1.22-3.43-2.25-6.94-3.21-10.45-3.04-11.1-1.24-22.53-2.17-33.77,3.07-6.22,1.46-12.89,1.75-19.37.09-2-.95-4.12-3.33-4-2.62.13-2.52,2.62-2.69,4.5-.49,5.56-.85,11.13-1.26,16.7.37,24.19-1.95,48.3-2.27,72.47.99,21.53,1.93,43.06,2.98,64.58.39,7.97.51,7.96-7.7,8.32-2.98.13-5.96.25-8.93.38-1.26-2.83-1.26-5.86-1.23-8.85.54-67.3.41-134.62,1.94-201.9.9-39.27,4.56-78.47,10.86-117.33,3.1-19.11,7.53-37.79,15.32-55.71,8.76-20.15,16.68-40.66,24.56-61.18,3.63-9.46,8.86-15.04,19.96-14.07,5.13.45,10.46-2.07,15.73-2.26,13.06-.47,25.94,1.94,38.53,4.87,9.03,2.1,15.34,9.04,19.64,17.24,2.62,5,4.7,10.3,6.86,15.53,1.52,3.68,3.72,5.75,8.01,6.31,8.96,1.16,17.81.45,26.76.33,15.61-.21,26.61-8.63,38.57-16.43,22.58-14.73,46.31-25.03,74.57-24.34,59.28,1.45,118.58.25,177.83-2.8,37.28-1.92,74.63-1.43,111.94-.97,43.97.54,87.97.87,131.9,2.68,43.62,1.8,87.24,3.45,130.89,3.6,69.64.24,139.24,2.74,208.88,3.4,49.57.47,99.23,1.43,148.77,5.42,33.52,2.7,67.22,3.27,100.83.29,5.03-.45,9.91.21,14.86,1.16,6.32,1.21,9.97,4.32,11.38,10.8,1.32,6.08,5.35,7.53,9.69,3.4,3.58-3.4,6.89-4.72,11.62-3.23,1.8.57,3.99.32,5.93,0,28.66-4.8,57.16-1.25,85.69,1.52,30.17,2.93,60.32,6.09,90.74,5.47,20.02-.41,39.82,3.38,59.76,4.63,34.45,2.17,67.7,10.52,101.12,18.37,31.3,7.35,60.96,18.85,90.43,31.47,30.03,12.85,59.77,26.29,88.95,40.87,42.67,21.31,80.97,48.82,113.17,84.3,8.07,8.89,15.13,18.6,21.61,28.72,2.7,4.2,5.55,8.3,8.31,12.46,10.39,15.71,17.03,32.95,21.34,51.23,3.08,13.05,4.58,26.22,4.7,39.6.07,7.37-.17,14.71-2.1,21.83-5.14,18.94-6.25,38.88-14.03,57.16-15.17,35.63-37.13,65.89-68.71,89.02-32.3,23.66-65.35,46.03-100.9,64.56-42.73,22.28-87.43,39.03-134.51,49.85-39.11,8.99-78.98,12.13-118.55,17.7-52.94,7.46-106.18,8.58-159.52,8.69-24.97.05-49.95,1.03-74.93.42-7.98-.2-15.95-1-23.92-1.51-3.2-.2-5.63-1.78-7.75-4.07-1.83-1.99-4.28-2.14-6.43-1.06-2.14,1.07-1.56,3.4-1.3,5.38.21,1.65.54,3.3.57,4.96.17,9.64-3.61,14.3-13.39,14.98-12.94.9-25.95,1.96-38.88,1.43-22.36-.91-44.63.99-66.94.89-15.33-.07-30.67-.51-45.98-.09-58.61,1.6-117.25.51-175.88,2.03-53.28,1.38-106.6,1.51-159.85,3.99-75.61,3.53-151.26,1.54-226.88,2.06-20.65.14-41.26-1.91-61.82-3.92-43.18-4.23-86.45-4.85-129.8-4.28-29.64.38-59.3-.64-88.96-1.04-10.65-.15-21.31-.27-31.96-.51-26.99-.61-49.39-12.56-69.56-29.19-5.05-4.16-9.48-6.22-16.05-5.21-12.91,1.99-25.93-1.53-38.91.14-1.98.25-3.98.34-5.98.44-5.87.27-9.83,2.8-12.15,8.54-1.72,4.27-4.14,8.45-7.06,12-14.14,17.19-31.47,26.16-54.31,20.11-3.54-.94-7.12-1.79-10.73-2.37-23.79-3.83-38.82-18.57-47.03-40.02-9.52-24.87-18.05-50.2-21.54-76.81-2.13-16.19-5.88-32.06-8.7-48.11-1.44-8.19-2.2-16.5-3.27-24.75q16.41-1.97,19.1,13.99c1.01,5.91,2.26,11.77,3.44,17.65.45,2.25,1.84,3.54,4.21,3.24,2.66-.34,2.88-2.45,2.69-4.48-.8-8.62-1.66-17.23-2.6-25.84-.46-4.23,1.1-5.98,5.5-6.08,4.31-.1,5.87,1.5,6.18,5.69.6,7.96,1.84,15.88,2.44,23.84.33,4.44,1.77,6.73,6.66,6.39,10.96-.76,21.95-1.36,32.93-1.72,4.33-.14,6.04-1.7,5.43-6.06-1.01-7.26-1.83-14.54-2.66-21.83-.84-7.42-.61-7.76,4.78-8.31,8.14-.82,8.95-.37,9.92,6.98.91,6.93,1.46,13.92,2.28,20.86.3,2.5-.43,5.91,3.05,6.6,3.89.77,8.01.79,11.72-.88,1.69-.76.99-2.92.8-4.51-.82-6.95-1.96-13.87-2.42-20.84-.21-3.16-2.83-7.64,2.49-9.24,3.9-1.18,5.26.86,6.13,8.89.68,6.29,1.04,12.62,1.78,18.9.85,7.16.97,7.19,7.82,6.89,11.32-.5,22.63-1.02,33.94-1.62,8.09-.43,8.08-.49,7.18-8.97-.74-6.95-1.4-13.91-2.18-20.86-.43-3.8,1.13-5.56,4.97-5.63,3.69-.06,7.59-.87,8.27,4.54.91,7.27,1.78,14.55,2.9,21.78,1.2,7.69,1.38,7.88,8.66,7.58,12.26-.51,24.52-1.24,37.93-1.94-4.25-9.92-.57-18.99-.46-28.16.02-1.24.01-2.8,1.76-3.11,1.96-.35,3.16.87,3.83,2.45,2.81,6.65,2.4,13.72,2.36,20.7-.04,7.87-.14,7.98,7.96,7.63,40.27-1.77,80.54-3.63,120.82-5.38,7.65-.33,15.32-.31,22.98-.36,2.32-.01,4.68.1,6.95.54,2.43.47,4.41,2.02,4.6,4.61.19,2.56-1.32,4.52-3.82,5.2-2.88.79-5.82,1.47-8.78,1.78-40.76,4.3-81.66,6.73-122.52,9.72-22.93,1.68-45.87,3.12-68.8,4.78-8.68.63-8.79.79-7.37,9.63,2.66,16.44,5.47,32.86,8.22,49.28,2.68,5.96-.2,10.84-3.13,15.67-.69,1.13-1.71,2.05-3.25,1.64-1.63-.43-1.81-1.9-1.78-3.16.07-3.72-.2-7.29-2.63-10.35-1.78-6.39-3.9-12.7-5.28-19.17-2.48-11.7-4.72-23.46-6.64-35.26-.79-4.86-2.52-6.82-7.75-6.39-19.54,1.61-39.12,2.7-58.66,4.27-7.63.61-7.94,1.13-6.67,8.52,4.46,25.89,10.34,51.46,17.49,76.73,1.95,6.29,3.94,12.56,5.81,18.87.55,1.86.36,4.3,2.81,4.7,3.01.48,3.7-2.31,4.69-4.26,1.18-2.31,3.56-4.83,2.28-7.32-3.09-6.02-3.8-13.31-9.36-18.03,1.18-10.08-2.25-19.67-3.14-29.54-1.05-11.71-1.57-23.4-.73-35.29,3.46,5.74,6.22,11.49,7.83,17.78,2.7,10.57,5.56,21.1,9.77,31.2,1.06,4.17,1.97,8.39,3.23,12.51,2.3,7.48,3.89,8.49,11.6,6.77,11.08-2.48,22.21-3.82,33.59-3.28,5.98.28,12.01.33,17.98-.09,7.58-.53,14.31-.15,19.7,6.61,2.56,3.21,6.96,5.03,10.68,7.22,19.6,11.58,39.88,21.49,63.24,22.07,26.93.67,53.86-.01,80.8,1.71,18.87,1.21,37.84-.15,56.8-1.17,23.59-1.27,47.3-.65,70.95-.17,12.26.25,24.6,1,36.75,2.35,14.21,1.58,28.54,2.94,42.65,2.92,79.9-.07,159.83,2.67,239.71-1.4,16.92-.86,33.86-.73,50.81-1.63,31.52-1.68,63.17-.3,94.76-2.22,24.88-1.52,49.83-.03,74.81-1.71,19.12-1.29,38.57-2.18,57.78,1.08,3.22.55,6.67.25,9.96-.14,26.9-3.16,53.91-1.87,80.78-.74,9.15.39,18.45-2.57,27.48.69,20.88-3.09,41.88-.77,62.81-1.28,2.3-.06,4.66.25,6.9.78,8.05,1.9,15.74.87,23.97-2.43-3.42-13.37-3.9-26.92-3.8-40.52.01-1.65-.34-3.3-.53-4.95-4.9-39.09-6.07-78.27-3.57-117.6,2.35-36.9,3.28-73.82.19-110.74-.25-3.01-.49-5.96-2.11-8.61.66-15.48.46-30.96-.04-46.44-.01-3.83-.03-7.66-.04-11.49.07-8.37.59-16.74-.45-25.09.17-3.66.61-7.33.48-10.97-1.59-45.96.64-91.91.53-137.86,0-3.33.33-6.67-.63-9.93.92-12.86.77-25.73,1.93-38.63,1.42-15.79.36-31.81.37-47.73,0,0,.07-.06.07-.06,1.34-.31,1.79-1.17,1.55-2.46-.01-2.5-.02-5-.03-7.5.15-.71.29-1.41.44-2.12-3.95-3.65-8-2.47-12.08-.25l.05.66c-6.04-1.05-11.85,1.01-17.79,1.41-33.18,2.22-66.33.57-99.49-.6-13.57-.48-27.1-2.46-40.71-.84-4.66-.68-9.33-.88-14.01-.28-13.35-2.15-26.7-2.11-40.06-.04-1.97-.02-3.93-.05-5.9-.07-10.44-2.29-21.06-2.1-31.62-1.96-56.16.73-112.28-1.11-168.42-2.12-2.83-2.56-6.31-1.59-9.53-1.62-16.28-.16-32.56-.26-48.84-.25-15.27,0-30.54.17-45.81.26-9.25-.23-18.5-.46-27.75-.69-1.35-1.63-2.75-1.64-4.2-.15-1.28-.08-2.55-.16-3.83-.23-3.85-2.3-7.97-1.54-12.07-1.09-1.32-.07-2.65-.14-3.97-.2-1.18-.53-2.37-1.52-3.55-1.51-22.87.2-45.74-1.5-68.61-.15-21.3-.31-42.59-.71-63.89-.89-23.62-.2-47.25-.58-70.87-.18-60.23,1.02-120.33,6.43-180.64,5.14-15.3-.33-30.64.8-45.92.15-16.35-.7-31.52,1.84-45.19,11.24-.61-.17-1.06.01-1.37.56-1.66-.15-3.01.36-3.94,1.8-1.68.01-2.96.83-4.04,2.03-1.67-.12-2.84.6-3.56,2.1-8.33,4.05-15.15,10.59-23.69,14.32-3.34,1.46-6.66,3.75-10.33,2.7-5.69-1.64-11.19-.3-16.7.31-11.33,1.24-22.42.52-33.44-2.34-7.53-1.95-11,.39-12.03,8.29-.33,2.57.19,5.25.32,7.88-3.86,5.59-4.1,12.42-6.29,18.58-1.32,3.7-1.95,7.69-4.41,10.9-1.2,1.57-2.75,3.13-4.98,2.3-1.62-.6-2.47-2.17-2.59-3.91-.26-3.61.12-7.15.53-10.77.94-8.19,5.28-15.58,5.26-23.93,4.35-4.63,5.74-10.98,9.33-16.04,1.04-1.47,1.51-3.16.32-4.56-3.54-4.17-4.07-10.31-10.12-15.06-1.33,10.86-9.38,18.47-7.55,29.2-1.64.92-1.85,2.54-2.25,4.18-3.21,12.87-7.09,25.61-9.6,38.61-2.62,13.61-6.86,27.03-6.27,41.15-2.73,1.41-3.15,4.09-3.5,6.69-.79,5.88-1.5,11.77-2.15,17.66-.36,3.25-1.25,6.62,3.93,7.23,8.48,1.01,12.02.11,12.83-5.06.91-5.79,2.98-11.52,2-17.54,1.71-9.35,3.32-18.72,5.19-28.04.56-2.79,1.26-6.82,4.9-6.29,3.97.58,2.58,4.77,2.55,7.47-.11,7.86-2.73,15.55-1.86,23.51-3.7,6.24-2.75,13.42-4.08,20.14-.87,4.37,1.15,5.92,5.42,5.87,8.59-.11,17.19.07,25.78.14q22.34.18,22.01-22.64c3.94-17.79,5.75-36.01,11.06-53.54,1.71-5.65,4.82-11.07,4.02-17.34,1.98-1.93,2.64-4.5,3.47-7,1.1-3.33,1.38-8.59,5.66-8.08,4.55.54,2.94,5.79,3.37,9.21.04.33.02.66.03.99.56,17.35-5.46,33.72-7.58,50.65-1.51,12.05-4.87,23.84-4.98,36.08-4.33,11.09-3.86,11.82,7.65,11.92,1,0,2-.02,3,0,53.31.45,106.62.82,159.93,1.37,112.28,1.15,224.57,2.23,336.84,3.69,43.64.57,87.3.61,130.92,2.65,3.66.17,7.35.29,10.96.85,3.83.58,7.36,2.31,7.41,6.76.05,4.52-3.43,6.24-7.35,6.65-5.3.55-10.63.97-15.95,1.05-43.64.65-87.29,1.41-130.94,1.74-123.28.94-246.56,1.69-369.84,2.5-25.66.17-51.32.21-76.97.4-7.28.05-7.41.19-7.82,6.92-1.19,19.62-2.27,39.24-3.39,58.86-.99,10.34.16,20.82-2.08,31.07-.66,5.06-.92,10.12-.14,15.19-.39,11.84,1.52,23.57,2.4,35.3.53,6.98.42,13.96.94,20.92,2.57,22.49,2.14,45.11,2.98,67.68.12,3.31-.02,6.67-.46,9.95-.51,3.81-.31,8.76-5.8,8.9-5.53.14-5.38-5.13-6.39-8.69-.79-2.81-.62-5.92-.71-8.9-.55-18.92-.87-37.84,0-56.77.23-4.93.75-9.97-.86-14.84-.11-18.36-.21-36.72-.32-55.09,2.29-2.8,2.07-5.63.09-8.47.1-8.92-.62-17.94.45-26.74,2.48-20.32.4-40.84,3.26-61.11.61-2.57,1.3-5.13,1.82-7.73.93-4.66-.77-6.72-5.79-6.49-6.97.31-13.99-.29-20.94.18-6.19.41-13.96-2.95-18.17,1.75-3.97,4.42-2.35,12.08-2.67,18.37-.02,7.29-1.34,14.47-1.91,21.68-1.55,19.74-2.26,39.55-3.3,59.33-1.21,3.5-1.09,7.06-.46,10.64-1.44,21.51,1,43.16-2.32,64.61-1.68,2.94-2.12,6.21-2.55,9.49-.22,1.65-.65,3.63-2.44,3.93-2.51.42-3.07-1.96-3.83-3.72-3.18-7.43-4.32-15.19-3.81-23.24.08-1.32.02-2.64.03-3.96.22-4.91-2.21-9.6-1.01-14.62,2.56-10.73,1.56-21.61,1.18-32.46,1.81-2.41,1.84-4.85.18-7.35.37-3.92.85-7.84,1.08-11.77.89-15.7,1.71-31.4,2.55-47.1,3.49-13.24,2.6-26.97,4.48-40.39.56-3.99-1.68-5.21-5.28-5.18-13.25.1-26.51.26-39.76.11-4.67-.05-6.53,1.73-6.69,6.34-.37,10.59-1.01,21.17-1.62,31.75-.12,2.12.56,3.88,1.72,5.54-3.35,20.29-2.69,40.7-1.78,61.11-1.52,2.99-1.74,6.04-.39,9.16,0,14.16.01,28.31.02,42.47ZM2058.74,1472.48c1.14.51,2.18.42,3.08-.5,2.17-1.24,4.56-1.46,6.99-1.5,1.96.39,3.83.41,5.22-1.37,1.95-.41,3.91-.83,5.86-1.24,1.2.35,1.89-.19,2.23-1.3,7.9-2.43,15.6-5.36,23.13-8.79,44.06-20.07,85.06-45.21,123.89-74.08,24.41-18.15,41.13-42.25,54.74-68.83,6.1-11.91,10.15-24.63,11.58-37.98,1.07-9.94,2.84-19.72,4.84-29.5,2.57-12.56,1.66-25.02-2.39-37.22-1.28-18.58-7.83-35.83-16.89-51.47-13.36-23.05-31.62-42.57-51.67-60.09-5.1-4.46-9.66-10.01-16.28-12.67-1.43-4.21-5.36-5.85-8.64-7.94-16.3-10.37-32.55-20.92-49.79-29.64-30.9-15.64-62.17-30.51-94.08-44.06-27-11.46-53.8-23.18-82.3-30.65-30.93-8.1-61.59-17.43-93.51-20.91-31.43-3.43-62.59-8.76-94.34-10.1-35.59-1.5-70.98-6.51-106.36-10.84-1.16-.55-2.31-1.55-3.47-1.57-13.49-.16-26.98-.18-40.47-.19-1.75,0-3.16.74-3.66,2.61-.37,4.92-2.27,9.84.06,14.75-1.17,26.26-.72,52.53-.37,78.8-1.63,2.68-1.58,5.69-1.7,8.67-1.22,31.81.09,63.63-.41,95.44-.1,6.34,3.09,7.06,7.91,6.74-6.02,1.8-7.64,3.36-7.74,11.21-.22,16.78.16,33.56.29,50.34-.52,5.74-2.24,11.62,1.83,16.86-1.13,12.72.12,25.56-2.12,38.25-.52,2.97-1.26,6.62,1.72,9.24-3.69,4.06-1.79,8.93-1.57,13.35,1.58,30.91,2.49,61.78,1,92.75-1.14,23.57,1.37,47.23-.51,70.8-1.49,18.68,1.04,37.18,1.48,55.77-.11.8-.23,1.59-.34,2.39-.04,7.32-.16,14.64-.11,21.95.06,8.12,1.87,10.05,9.96,9.85,4.28-.11,8.55-1.62,12.79-1.5,27.93.78,55.75-2.16,83.64-2.22,23.56-.05,46.99-2.17,70.47-3.7,27.18-1.77,53.83-6.97,80.63-10.93,27.46-4.06,55.07-7.39,82.31-13.08,25.01-5.22,49.81-11.08,74.06-19.15,2.68-.89,6.11-1.11,7-4.8.49-.62.98-1.24,1.47-1.85l.54-.09ZM1615.98,961.94c1.38-.12,1.9-.92,1.78-2.24.32-6.55.58-13.1,1-19.65.15-2.36-.45-3.78-3.03-3.9-2.54-.12-3.57,1.18-3.44,3.56.39,7.18-1.46,14.39.37,21.54-2.21,7.02-2.74,14.2-2.64,21.53.1,7.6.15,15.25-.47,22.81-1.07,13.09-1.95,26.15-.8,39.27-1.6,13.87.02,27.86-1.35,41.7-1.58,15.9-1.09,31.75-.14,47.62-1.91,3.04-.9,6.42-1.01,9.63-.72,20.7.8,41.35,1.67,62.01-.66,2.01-.32,3.98.27,5.94.1,15.93-.54,31.9.5,47.77,1.24,18.8,2.65,37.58,3.12,56.42-.19.65-.16,1.29.11,1.91-1.37,25.26-3.08,50.5-4.02,75.78-1.05,28.28-.82,56.59,1.27,84.84.21,2.81-1.22,7.78,4.04,7.4,4.66-.34,3.63-4.68,3.64-7.91,0-.33-.02-.67-.06-1-1.42-13.63-.71-27.26-.35-40.91.37-14.3,1.63-28.62.61-42.92-.83-11.68.28-23.26.74-34.9.54-13.59,1.49-27.26-1.51-40.75.19-.52.19-1.04,0-1.56-.16-31.14-.29-62.29-.55-93.43-.03-3.51,1.2-7.33-1.52-10.5.75-2.22.99-4.45.02-6.68-.05-3.78-.1-7.56-.15-11.35,2.46-1.99,2.46-3.98,0-5.97.01-12.61.36-25.24-.12-37.83-.2-5.25,3.48-10.31.49-15.56.26-3.27.76-6.54.75-9.82-.09-26.69-1.06-53.38.18-80.07.19-27.59.38-55.18.56-82.77l.05-.02ZM328.18,940.23c-2.93,4.51-3.68,9.84-5.03,14.83-3.86,14.28-9.61,28.08-11.15,42.95-6.36,19.71-9.41,40.07-11.92,60.53-.33,2.66-.59,5.6,3.33,5.91,3.05.24,6.17.37,7.18-3.55.58-2.25.95-4.56,1.57-6.8.86-3.11,1.06-6.72,5.79-7.89.55,4.29,1.4,8.43,1.51,12.59.11,4.13,1.49,6.02,5.85,6,10.97-.05,21.94-.01,32.9.41,5.25.2,7.2-2.13,7.49-6.92.99-16.65,4.21-32.97,7.39-49.29,1.72-13.07,4.86-25.79,8.23-38.55,3.09-11.72,7.25-23.24,8.74-35.37,4.75-4.68,4.91-11.48,7.82-17.02,1.96-3.72.17-5.63-3.48-6.26-8.18-1.42-16.52-1.73-24.66-3.6-3.49-.8-7.28-.31-10.94-.38-4.91-.09-8.34,1.65-9.24,7-.38,2.27-1.62,4.38-1.27,6.8-3.28,17.99-9.26,35.24-14.34,52.74-2.3,7.94-4.22,16.05-4.37,24.42-1.72,2.65-1.66,5.71-1.92,8.67-.65,7.42-3.38,14.18-6.47,20.83-.68,1.47-1.08,3.38-3.1,3.42-2.49.05-3.49-2.02-3.69-3.94-.49-4.61-.9-9.29-.7-13.91.23-5.29,1.16-10.54,1.78-15.81,1.13-3.76,2.37-7.49,3.36-11.29,4.11-15.82,7.52-31.83,13.05-47.26,3.48-6.34,4.42-13.31,4.89-20.5-3.64,6.8-7.67,13.37-8.59,21.25ZM390.26,1528.05c-7.05-30.14-15.28-60.02-20.09-90.65-.7-4.46-3.1-5.19-6.96-4.86-8.96.78-17.95,1.3-26.92,1.99-11.68.91-11.48.93-10.94,12.41.36,7.71.07,15.45.07,23.17-4.67-7.35-10.14-14.06-11.22-22.85-.32-2.64-.8-5.27-1.43-7.86-.41-1.68-1.39-3.14-3.5-2.58-2.04.54-2.09,2.26-1.95,3.96.05.66.21,1.32.3,1.98,4.31,29.44,11.97,58.04,22.18,85.95,1.16,3.17,1.28,9.58,8.06,5.33,1.27-.8,2.23,1.04,2.83,2.17,1.14,2.15,2.61,3.85,5.08,4.45,1.79,8.91,8.04,12.23,16.3,13.26,7.2.9,14.52,1.44,21.5,3.23,5.17,1.33,9.02-.4,13.18-2.49,2.54-1.28,3.06-2.87,1.89-5.61-2.97-6.93-5.61-14-8.38-21.01ZM296.96,1126.51c-.23,0-.47,0-.7,0,0,2.66.07,5.33-.01,7.99-.2,6.66-.56,13.31-.64,19.97-.02,1.55.55,3.56,2.79,3.29,1.48-.18,1.88-1.72,2.07-3.03.19-1.31.22-2.65.21-3.98-.16-15.7,1.6-31.25,3.65-46.78.3-2.3.36-4.64.39-6.96.02-1.49-.9-2.54-2.31-2.81-1.68-.32-3.71-.19-4.33,1.53-.77,2.13-1.05,4.52-1.08,6.81-.12,7.99-.05,15.98-.05,23.97Z"/><path class="cls-9" d="M1589.82,1213.77c.49,15.48.7,30.96.04,46.44-3.53-.69-6.79-1.96-10.7-1.23-39.1,7.27-78.46,9.78-118.27,7.62-50.26-2.74-100.56-.97-150.83,1.07-25.28,1.02-50.55,1.82-75.89,1-46.96-1.52-93.95-.55-140.91.03-24.96.31-49.94,1.1-74.91,1.67-28.02.64-55.84-3.1-83.81-3.6-11.3-.2-22.58-2.02-33.88-2.22-43.27-.75-86.57-3.04-129.82-.4-37.87,2.31-75.84,3.35-113.57,7.68-8.59.98-17.11,2.54-25.69,3.7-13.2,1.79-26.39,3.17-39.79,2.76-14.44-.44-28.19,4.71-42.42,6.22-1.65.17-3.3.49-4.91.9-7.44,1.89-12.99-.24-16.62-7.26-1.98-3.84-4.41-7.44-6.66-11.14-1.36-2.24-2.35-4.91-5.58-5.11-.52-6.96-.42-13.94-.94-20.92-.89-11.73-2.79-23.46-2.4-35.3,3.19.96,6.39,1.74,9.77,1.88,44.94,1.79,89.86,3.81,134.81,5.44,43.96,1.6,87.95.47,131.94,2.07,43.27,1.58,86.62.83,129.93,2.01,55.96,1.53,111.96.49,167.93,2.42,32.3,1.11,64.61-1.07,96.9-1.52,75.29-1.04,150.61-.63,225.9,1.43,27.64.76,55.31-.19,82.94,1.9,14.93,1.13,29.95.79,44.9-1.2,17.49-2.33,35.03-4.25,52.55-6.35Z"/><path class="cls-1" d="M469.47,1487.38c2.43,3.06,2.7,6.64,2.63,10.35-.03,1.26.16,2.72,1.78,3.16,1.54.41,2.56-.5,3.25-1.64,2.93-4.83,5.81-9.71,3.13-15.67,7.08,3.48,13.79,7.5,20.09,12.29,6.09,4.63,12.96,7.66,20.74,8.21,3.4,1.14,6.79,3.12,10.22.1,25.94.92,51.88,1.69,77.8,2.8,31.59,1.35,63.15,2.6,94.8,1.71,26.62-.75,53.25-.43,79.88.67,45.94,1.9,91.91.71,137.87.52,28.64-.12,57.31-.13,85.92.91,41.65,1.51,83.18-1.36,124.76-2.26,31.29-.67,62.62.08,93.87-1.28,42.59-1.86,85.21-.88,127.79-2.46,22.96-.85,45.96-1.09,68.94-.76,30.99.44,61.89-2.18,92.87-2.02,14.64.07,29.2-1.88,43.76-3.37,6.97-.71,13.93-.98,20.94-.64,4.95.24,9.99,1,14.84-.84.18,1.65.54,3.3.53,4.95-.09,13.6.39,27.15,3.8,40.52-8.23,3.3-15.92,4.32-23.97,2.43-2.24-.53-4.6-.83-6.9-.78-20.94.51-41.93-1.82-62.81,1.28-9.03-3.26-18.33-.3-27.48-.69-26.87-1.13-53.88-2.43-80.78.74-3.29.39-6.74.69-9.96.14-19.22-3.26-38.67-2.37-57.78-1.08-24.97,1.68-49.93.2-74.81,1.71-31.59,1.93-63.24.55-94.76,2.22-16.95.9-33.89.77-50.81,1.63-79.88,4.07-159.81,1.33-239.71,1.4-14.11.01-28.44-1.34-42.65-2.92-12.15-1.35-24.49-2.1-36.75-2.35-23.65-.48-47.36-1.1-70.95.17-18.95,1.02-37.93,2.38-56.8,1.17-26.94-1.72-53.87-1.04-80.8-1.71-23.36-.58-43.64-10.49-63.24-22.07-3.72-2.2-8.12-4.01-10.68-7.22-5.39-6.76-12.12-7.14-19.7-6.61-5.97.42-12,.37-17.98.09-11.38-.53-22.51.81-33.59,3.28-7.7,1.72-9.3.71-11.6-6.77-1.26-4.11-2.17-8.33-3.23-12.51,16.2.28,31.89-3.07,47.52-6.8Z"/><path class="cls-8" d="M290.08,1278.11c.32-24.17,2.64-48.28,2.26-72.47,1.84.73,3.69,1.45,5.53,2.18.93,11.25-.87,22.67,2.17,33.77.96,3.52,1.99,7.02,3.21,10.45.53,1.49,1.32,3.32,3.41,3.01,1.87-.27,2.9-1.95,2.92-3.56.1-6.68,2.65-13,2.42-19.77-.27-7.98.09-15.98.18-23.98,13.8.49,27.62,1.1,41.18-2.43.68,8.93.41,17.75-.61,26.74-1.27,11.16-.56,22.54-.71,33.83-6.62,0-13.29.51-19.85-.09-15.75-1.43-29.26,4.17-42.12,12.32Z"/><path class="cls-9" d="M454.1,1270.14c3.31-21.44.87-43.09,2.32-64.61,9.62.82,19.23.7,28.79-.76,6.25-.96,12.52-1.73,18.84-.65.11,18.36.21,36.73.32,55.09-7.59,1.12-15.04,2.6-21.94,6.24-2.29,1.21-5.06,2.22-7.58,2.16-7.08-.18-13.84,1.64-20.75,2.53Z"/><path class="cls-9" d="M396.18,1250.27c0-14.16-.01-28.31-.02-42.47,15.22.29,30.36-1.06,45.51-2.22.38,10.85,1.38,21.73-1.18,32.46-1.2,5.02,1.24,9.71,1.01,14.62-10.11-2.5-20.39-.31-30.58-1.03-4.93-.35-9.89-.15-14.74-1.35Z"/><path class="cls-12" d="M531.31,1504.18c-3.44,3.02-6.83,1.04-10.22-.1-4.01-5.89-5.91-12.57-6.95-19.49-2.63-17.46-2.62-34.99-.98-52.53.21-2.24.01-5.11,3-5.44,2.63-.29,3.84,2.13,4.99,4.18,1.65,2.95,2.38,6.19,2.71,9.5,1.97,19.42,5.25,38.71,5.81,58.26.06,2.08.67,3.87,1.65,5.62Z"/><path class="cls-5" d="M368.79,1264.97c-1.54-20.48-.84-40.96-.38-61.45,4.87.52,9.75,1.03,14.62,1.55,1.75,11.14.55,22.36.92,33.54.19,5.6.21,11.2.31,16.8-5.33,2.9-9.17,8.23-15.47,9.56Z"/><path class="cls-3" d="M308.82,1286.18c.35.42,1.03.86,1.05,1.31.62,18.94,3.55,37.65,5.27,56.48.56,6.12-.75,7.01-6.48,6.97-3.82-.02-5.31-1.6-5.31-5.37,0-7.63-.61-15.28-.31-22.89.38-9.92,1.23-19.83,2.27-29.7.25-2.34.2-5.49,3.53-6.79Z"/><path class="cls-3" d="M450.55,1291.61c6.32,17.61,7.54,34.55,9.19,51.43.38,3.86-.21,6.53-5.01,6.51-3.93-.02-7.29.14-7.34-5.4-.13-12.98-1.82-25.94-.91-38.95.3-4.23.41-8.54,4.06-13.58Z"/><path class="cls-8" d="M352.12,1265.95c1.38.17,1.87,1,1.71,2.3-1.02-.44-1.8-1.05-1.71-2.3Z"/><path class="cls-7" d="M1589.71,1018.43c.96,3.26.63,6.6.63,9.93.11,45.95-2.11,91.9-.53,137.86.13,3.65-.31,7.31-.48,10.97-4.65-.1-9.43-.93-13.94-.18-19.17,3.17-38.5,2.91-57.79,3.05-24.32.18-48.58,2.67-72.91,1.66-17.95-.75-35.88-2.62-53.83-2.86-42.63-.58-85.28-.67-127.92-.6-21.98.04-43.96,1.44-65.92,1.12-22.97-.34-45.93-1.61-68.93-1.43-35.64.28-71.29,1.28-106.91,1.53-77.26.56-154.59,2.56-231.78-3.59-14.6-1.16-29.31-1.09-43.88-2.51-44.76-4.34-89.68-6.24-134.52-9.32-26.91-1.85-53.86-3.14-80.87-2.26-5.33.17-10.69.04-15.65-2.4,1.12-19.62,2.2-39.25,3.39-58.86.41-6.73.54-6.87,7.82-6.92,25.66-.19,51.32-.23,76.97-.4,123.28-.81,246.56-1.56,369.84-2.5,43.65-.33,87.29-1.1,130.94-1.74,5.32-.08,10.65-.51,15.95-1.05,3.93-.4,7.4-2.13,7.35-6.65-.05-4.45-3.58-6.18-7.41-6.76-3.61-.55-7.3-.67-10.96-.85-43.62-2.04-87.28-2.08-130.92-2.65-112.28-1.46-224.56-2.54-336.84-3.69-53.31-.55-106.62-.92-159.93-1.37-1,0-2,.02-3,0-11.51-.1-11.98-.83-7.65-11.92,10.89-3.74,18.97-11.64,27.75-18.55,6.13-4.83,10.52-11.97,18.66-14.13-3.52,11.63-2.56,23.27.3,35.29,1.7-6.9,7.09-11.76,9.01-18.32,2.51-8.56,4.86-17.16,6.26-26.01.71-4.51.61-9.3,3.69-13.17,3.31-.17,6.61-.41,9.92-.51,26.3-.8,52.61-.61,78.92-.44,39.96.25,79.94-.52,119.89.17,33.6.58,67.19,2,100.78,2.99,33.93,1.01,67.86,3.11,101.84,2.51,8.64-.15,17.3.52,25.95.99,36.23,1.95,72.45,4.43,108.77,3.55,20.3-.49,40.6-1.06,60.88-1.94,37.32-1.63,74.47,2.53,111.75,2.91,50.92.53,101.83,2.24,152.74,3.73,38.93,1.14,77.88,1.48,116.71,4.69,21.96,1.81,43.88,1.03,65.83.63Z"/><path class="cls-15" d="M2213.06,1085.94c6.62,2.65,11.18,8.21,16.28,12.67,20.05,17.52,38.31,37.05,51.67,60.09,9.06,15.64,15.61,32.89,16.89,51.47-12.43-3.28-24.36-2.13-35.64,4.21-3.19,1.79-6.21,3.86-9.29,5.83-7,4.48-13.6,9.83-21.06,13.33-23.01,10.78-47.45,17.25-72.22,22.6-15.18,3.28-30.52,1.75-45.79,2.14-22.94.59-45.91,1.45-68.83.84-30.29-.8-60.57-1.71-90.85-1.01-42.92,1.01-85.83,2.75-128.78,2.4-28.62-.24-57.29-.75-85.86.53-30.59,1.37-61.14,3.25-91.78,2.85-3.98-.05-8.01.36-11.89-.94-2.98-2.61-2.24-6.27-1.72-9.24,2.24-12.69.98-25.53,2.11-38.25,2.93-.48,5.85-1.05,8.79-1.43,6.25-.81,12.53-1.35,18.75-2.33,3.86-.61,8.79-1.06,8.63-6.34-.14-4.52-4.48-5.13-8.19-5.61-2.3-.3-4.6-.78-6.91-.83-7.63-.19-15.26-.22-22.89-.31-.13-16.78-.51-33.57-.29-50.34.1-7.86,1.72-9.41,7.74-11.21,10.24-1.51,20.54-.85,30.83-.97,44.88-.51,89.84.7,134.42-6.24,12.15-1.89,24.47-2.72,36.34-6.25,7.05-2.1,14.03-4.42,19.98-8.84,4.97-3.69,9.28-8.47,7.61-15.14-2.86-11.4-7.16-22.13-17.49-29.3-11.43-7.93-24.15-12.98-37.61-15.33-18.04-3.15-35.63-8.17-53.52-11.91-41.76-8.73-83.72-15.1-126.36-16.86-.35-26.27-.8-52.54.37-78.8,5.66.13,11.32.43,16.97.36,39.33-.48,78.55,2.04,117.76,4.52,32.71,2.07,64.18,11.53,96.32,17.07,38.09,6.57,75.44,16.52,112.98,25.6,23.33,5.64,46.33,12.31,68.55,21.47,32.39,13.36,62.64,31,93.76,46.92,16.01,8.19,31.84,16.72,48.44,23.71,7.53,3.17,14.76,3.94,21.79-1.11ZM2224.53,1132.15c4.96.52,8.74-1.89,11.38-6.08,2.03-3.22,1.31-6.61-1.2-9.12-4.87-4.85-10.82-7.78-17.87-6.82-7.41,1.01-10.61,9.04-6.1,15,3.36,4.44,7.8,7.08,13.79,7.01Z"/><path class="cls-2" d="M1635.91,1262.94c3.88,1.3,7.91.89,11.89.94,30.64.41,61.19-1.48,91.78-2.85,28.57-1.28,57.24-.77,85.86-.53,42.95.35,85.86-1.39,128.78-2.4,30.28-.71,60.56.2,90.85,1.01,22.92.61,45.89-.25,68.83-.84,15.27-.39,30.61,1.14,45.79-2.14,24.77-5.35,49.21-11.82,72.22-22.6,7.46-3.5,14.06-8.84,21.06-13.33,3.08-1.97,6.11-4.05,9.29-5.83,11.28-6.33,23.21-7.49,35.64-4.21,4.05,12.2,4.95,24.66,2.39,37.22-2,9.78-3.77,19.56-4.84,29.5-1.44,13.35-5.49,26.08-11.58,37.98-13.61,26.58-30.33,50.68-54.74,68.83-38.82,28.87-79.82,54.01-123.89,74.08-7.53,3.43-15.23,6.36-23.13,8.79-.74.43-1.49.87-2.23,1.3-1.95.41-3.91.83-5.86,1.24-2.06-.76-3.98-1.02-5.22,1.37-2.43.04-4.82.26-6.99,1.5-1.31-1.54-2.31-1.22-3.08.5,0,0-.54.09-.54.09-17.72,1.22-34.97,5.09-52.12,9.43-2.19-.24-4.32-.06-6.36.85-6.76-.29-13.3.79-19.64,3.15-.73.11-1.46.22-2.19.33-23.37.59-46.52,3.66-69.72,6.18-2.17-.52-4.32-.5-6.44.25-4.96-1.07-9.92.01-14.88.05-26.91.2-53.64,3.77-80.52,4.26-34.51.62-69.04.79-103.55,1.49-6.86.14-13.95-.92-20.62,1.81l-16.82-.2c-9.42-3.15-19.51-2.08-29.03-4.56-.44-18.59-2.97-37.09-1.48-55.77,1.88-23.57-.63-47.23.51-70.8,1.49-30.96.57-61.84-1-92.75-.23-4.42-2.12-9.29,1.57-13.35Z"/><path class="cls-5" d="M1589.71,1018.43c-21.95.41-43.88,1.19-65.83-.63-38.83-3.2-77.78-3.55-116.71-4.69-50.91-1.49-101.83-3.2-152.74-3.73-37.28-.39-74.43-4.54-111.75-2.91-20.28.89-40.59,1.45-60.88,1.94-36.32.88-72.54-1.61-108.77-3.55-8.64-.46-17.31-1.14-25.95-.99-33.99.61-67.91-1.5-101.84-2.51-33.59-1-67.19-2.42-100.78-2.99-39.95-.69-79.93.09-119.89-.17-26.31-.17-52.61-.35-78.92.44-3.31.1-6.61.34-9.92.51.07-8.67,2.26-17.08,4.71-25.19,4.17-13.78,5.88-27.69,5.59-41.97,14.86-8.12,30.94-9.48,47.45-8.75,3.63.16,7.29-.55,10.95-.73,14.62-.74,29.2-3.23,43.86-2.1,27.59,2.12,55.27,2.04,82.86,2.13,28.27.09,56.59-1,84.89-.76,55.3.46,110.53-.96,165.75-3.61,16.98-.81,33.93-.65,50.91.57,14.22,1.02,28.49,1.19,42.74,1.74,8.9,1.74,17.93,1.16,26.91,1.42,4.97,2.38,10.23,1.71,15.45,1.42,4.08.9,8.19.89,12.31.42,3.24,1.8,6.54,1.82,9.89.31,1.19.08,2.38.15,3.58.23,1.25,1.03,2.6,1.41,4.11.57,5.39,1.44,10.88,1.23,16.38,1.04,9.82,2.41,19.8,1.62,29.75,1.47,1.43.11,2.86.22,4.3.33,1.18,1.39,2.46,1.72,3.89.34,1.17.09,2.34.18,3.51.26.62.73,1.31,1.08,2.19.4,12.88,1.79,25.76,1.76,38.64-.06.85.69,1.53.36,2.16-.34,9.27.54,18.54,1.08,27.82,1.62,15.08,3.42,30.33,1.5,45.53,1.51,2.08.65,4.18.7,6.3.22,3.63,2.19,7.47,1.65,11.33.9,6.81,1.62,13.71,1.55,20.63,1.23,7.12,2.35,14.46,2.01,21.79,1.81,2.07.07,4.13.14,6.2.21,2.55,1.75,5.13,1.6,7.74.16,1.42.02,2.83.04,4.25.06,9.3,1.83,18.58,1.78,27.85-.18,25.96-.23,51.84,1.95,77.76,2.91,17.35.64,34.56-.06,51.74-2.37,11.52-1.55,22.87-4.44,34.59-4.3-.01,15.92,1.05,31.93-.37,47.73-1.16,12.89-1.01,25.77-1.93,38.63Z"/><path class="cls-6" d="M514.48,1159.41c4.97,2.44,10.33,2.57,15.65,2.4,27.01-.89,53.96.41,80.87,2.26,44.84,3.08,89.76,4.98,134.52,9.32,14.57,1.41,29.28,1.34,43.88,2.51,77.18,6.15,154.51,4.15,231.78,3.59,35.62-.26,71.27-1.25,106.91-1.53,23-.18,45.96,1.09,68.93,1.43,21.96.32,43.95-1.08,65.92-1.12,42.64-.07,85.28.02,127.92.6,17.95.24,35.88,2.11,53.83,2.86,24.32,1.01,48.59-1.48,72.91-1.66,19.29-.14,38.62.12,57.79-3.05,4.51-.75,9.29.08,13.94.18,1.04,8.35.52,16.72.45,25.09-5.27-1.25-10.61-.65-15.92-.6-24.3.24-48.58,3.8-72.86,1.9-28.26-2.22-56.57-1.98-84.84-2.92-57.59-1.91-115.23-.69-172.83-2.7-11.31-.39-22.57-1.56-33.93-1.29-29.95.73-59.82,3.35-89.81,3.26-19.65-.06-39.28-.89-58.91-1.18-67.93-.99-135.88-.85-203.81-2.18-37.61-.74-75.24-.05-112.86-1.93-21.57-1.07-43.25-.04-64.87.03-42.64.13-85.22-2.46-127.84-3.12-3.32-.05-6.64-.53-9.97-.6-9.64-.21-19.29-.32-28.93-.48,2.24-10.25,1.09-20.73,2.08-31.07Z"/><path class="cls-7" d="M1636.12,1026.2c42.64,1.76,84.6,8.13,126.36,16.86,17.89,3.74,35.48,8.76,53.52,11.91,13.46,2.35,26.18,7.39,37.61,15.33,10.33,7.17,14.63,17.9,17.49,29.3,1.67,6.68-2.63,11.45-7.61,15.14-5.95,4.42-12.93,6.75-19.98,8.84-11.87,3.53-24.2,4.36-36.34,6.25-44.58,6.94-89.54,5.73-134.42,6.24-10.28.12-20.59-.54-30.83.97-4.82.32-8-.4-7.91-6.74.49-31.81-.82-63.63.41-95.44.11-2.98.07-5.98,1.7-8.67Z"/><path class="cls-10" d="M512.4,1190.48c9.64.15,19.29.26,28.93.48,3.33.07,6.64.55,9.97.6,42.62.66,85.2,3.25,127.84,3.12,21.63-.06,43.3-1.1,64.87-.03,37.62,1.87,75.24,1.19,112.86,1.93,67.93,1.33,135.88,1.18,203.81,2.18,19.63.29,39.26,1.12,58.91,1.18,29.99.09,59.86-2.53,89.81-3.26,11.36-.28,22.62.89,33.93,1.29,57.6,2,115.24.78,172.83,2.7,28.28.94,56.58.7,84.84,2.92,24.29,1.9,48.56-1.66,72.86-1.9,5.32-.05,10.66-.65,15.92.6.01,3.83.03,7.66.04,11.49-17.52,2.1-35.06,4.02-52.55,6.35-14.95,1.99-29.97,2.32-44.9,1.2-27.63-2.08-55.3-1.14-82.94-1.9-75.29-2.06-150.6-2.47-225.9-1.43-32.29.45-64.6,2.63-96.9,1.52-55.97-1.93-111.97-.89-167.93-2.42-43.31-1.19-86.66-.44-129.93-2.01-43.99-1.6-87.98-.48-131.94-2.07-44.94-1.63-89.87-3.65-134.81-5.44-3.39-.14-6.58-.92-9.77-1.88-.77-5.07-.52-10.14.14-15.19Z"/><path class="cls-11" d="M2213.06,1085.94c-7.03,5.05-14.27,4.27-21.79,1.11-16.6-6.99-32.43-15.52-48.44-23.71-31.11-15.92-61.37-33.55-93.76-46.92-22.22-9.17-45.22-15.83-68.55-21.47-37.54-9.08-74.89-19.03-112.98-25.6-32.14-5.54-63.61-15-96.32-17.07-39.21-2.48-78.43-5.01-117.76-4.52-5.66.07-11.32-.23-16.97-.36-2.33-4.91-.43-9.83-.06-14.75,3.29-.26,6.59-.71,9.88-.74,12.57-.11,25.15-.09,37.72-.11,35.39,4.33,70.77,9.34,106.36,10.84,31.74,1.34,62.91,6.67,94.34,10.1,31.92,3.48,62.58,12.81,93.51,20.91,28.5,7.47,55.3,19.19,82.3,30.65,31.92,13.55,63.18,28.42,94.08,44.06,17.24,8.72,33.49,19.27,49.79,29.64,3.28,2.08,7.21,3.73,8.64,7.94Z"/><path class="cls-1" d="M1901.73,1492.76c2.12-.75,4.27-.77,6.44-.25,3.27,2.55,7.11,1.97,10.41.87,4.57-1.52,9.12-1.34,13.71-1.33,10.22,0,20.25-2.11,30.45-2.62,4.8-.24,10.58.13,15.14-3.1.73-.11,1.46-.22,2.19-.33,6.76.27,13.47.28,19.64-3.15,2.03-.92,4.17-1.09,6.36-.85,8.35.53,16.31-2,24.44-3.16,8.78-1.25,17.24-4.35,26.21-4.42-.88,3.69-4.31,3.91-7,4.8-24.25,8.07-49.05,13.92-74.06,19.15-27.25,5.69-54.85,9.02-82.31,13.08-26.8,3.96-53.45,9.17-80.63,10.93-23.48,1.53-46.91,3.64-70.47,3.7-27.89.06-55.71,3-83.64,2.22-4.24-.12-8.52,1.39-12.79,1.5-8.08.21-9.9-1.72-9.96-9.85-.05-7.32.06-14.63.11-21.95,9.72,1.71,19.52,2.35,29.37,2.17,5.61.07,11.21.13,16.82.2,4.99,2.91,10.26,1.97,15.36.71,2.96-.73,5.86-.98,8.84-1.05,38.79-.98,77.62,1.71,116.42-1.8,17.77-1.61,35.66-2.33,53.56-2.67,8.3-.16,17.1-.33,25.39-2.79Z"/><path class="cls-13" d="M345.78,1540.67c-2.47-.6-3.94-2.3-5.08-4.45-.6-1.14-1.55-2.97-2.83-2.17-6.78,4.25-6.9-2.16-8.06-5.33-10.21-27.91-17.87-56.5-22.18-85.95-.1-.66-.25-1.31-.3-1.98-.14-1.7-.08-3.42,1.95-3.96,2.11-.56,3.09.89,3.5,2.58.62,2.59,1.1,5.22,1.43,7.86,1.08,8.8,6.54,15.51,11.22,22.85,0-7.72.29-15.46-.07-23.17-.54-11.49-.74-11.51,10.94-12.41,8.97-.7,17.95-1.21,26.92-1.99,3.87-.34,6.26.4,6.96,4.86,4.81,30.63,13.04,60.51,20.09,90.65-14.47,5.47-29.64,8.47-44.48,12.62Z"/><path class="cls-13" d="M1246.32,928.64c-12.88,1.82-25.75,1.85-38.63.06-.73-.13-1.46-.27-2.19-.4-1.17-.09-2.34-.18-3.51-.26-1.13-1.95-2.41-2.25-3.89-.34-1.43-.11-2.86-.22-4.29-.32-9.81-2.69-19.82-1.4-29.76-1.47-5.49.19-10.99.4-16.38-1.04-1.26-.99-2.66-.95-4.11-.57-1.19-.08-2.38-.15-3.58-.23-3.21-2.99-6.51-2.81-9.89-.31-4.12.47-8.23.47-12.31-.42-4.95-2.67-10.29-1.01-15.45-1.42-8.98-.26-18.01.32-26.9-1.42-.89-1.03-3.21.08-3.42-2.15,4.01-1.3,8.55,1.28,12.03-2.13,13.35-.48,26.7-.52,40.03.41,10.59,2.37,21.19,2.13,31.8.08l6.05.18c16.05,2.47,32.34,2.25,48.44,2.7,41.53,1.18,83.11.42,124.68.47,4.96,0,9.83.21,14.8,1.3,4.58,1.01,9.83,2.29,14.21-1.44,1.97.02,3.93.05,5.9.07,1.09,1.38,2.57,1.96,4.28,1.96,10.49,0,20.98,0,31.46,0,1.71,0,3.2-.56,4.31-1.92,4.68-.6,9.35-.41,14.01.28,1.16.55,2.36,1.65,3.48,1.57,13.3-.84,26.41,2.16,39.62,1.98,14.82-.21,29.8-.37,44.35,1,20.34,1.92,40.27.37,60.32-1.38,3.29-.29,7.33-.44,10.22-3.13,0,0-.05-.66-.05-.66,2.67.06,5.34.12,8.02.18.71,1.55,2,2.15,3.62,2.19.01,2.5.02,5,.04,7.5-1.06.48-1.6,1.28-1.55,2.46,0,0-.07.06-.07.06-11.72-.13-23.08,2.76-34.59,4.3-17.18,2.31-34.39,3.02-51.74,2.37-25.92-.96-51.8-3.14-77.76-2.91-1.13-1.41-2.74-2.19-4.35-1.65-7.7,2.57-15.68,1.13-23.5,1.83-1.42-.02-2.83-.04-4.25-.06-2.59.4-5.1-3.33-7.75-.16-2.07-.07-4.13-.14-6.2-.21-7.1-2.55-14.43-2.39-21.79-1.81-6.92.32-13.83.39-20.63-1.22-3.8-.04-7.33-3.42-11.33-.91-2.12.48-4.22.42-6.3-.22-2.56-2.27-5.69-1.42-8.6-1.45-12.31-.1-24.62-.05-36.93-.06-9.27-.54-18.54-1.08-27.82-1.63-.72.11-1.44.23-2.16.35Z"/><path class="cls-4" d="M1084.06,916.2c-3.49,3.42-8.03.84-12.03,2.13.2,2.22,2.53,1.12,3.42,2.15-14.25-.55-28.53-.72-42.74-1.74-16.98-1.22-33.94-1.38-50.91-.57-55.22,2.65-110.46,4.07-165.75,3.61-28.29-.24-56.61.85-84.89.76-27.59-.09-55.27,0-82.86-2.13-14.66-1.13-29.24,1.36-43.86,2.1-3.65.19-7.32.89-10.95.73-16.51-.73-32.59.63-47.45,8.75-.88-1.71-1.56-3.55-2.67-5.09-3.06-4.25-6.49-4.92-10.13-.59-1.28-.23-2.57-.45-3.85-.68,13.66-9.4,28.84-11.93,45.19-11.23,15.28.65,30.62-.48,45.92-.15,60.3,1.29,120.41-4.11,180.64-5.14,23.61-.4,47.24-.02,70.87.18,21.3.18,42.59.58,63.89.89,24.03,1.56,48.08,2.5,72.16,1.66,1.32.07,2.65.14,3.97.2,3.87,2.06,7.97,1.58,12.07,1.09,1.28.08,2.55.16,3.83.23,1.38.66,2.78.68,4.2.15,9.25.23,18.5.46,27.75.68,7.91,2.58,16.22.41,24.21,2Z"/><path class="cls-8" d="M408.11,956.45c.01,8.35-4.32,15.74-5.26,23.93-.42,3.62-.79,7.16-.53,10.77.12,1.74.97,3.31,2.59,3.91,2.23.83,3.78-.74,4.98-2.3,2.46-3.2,3.09-7.2,4.41-10.9,2.2-6.16,2.43-12.98,6.29-18.58,2.91.53,5.94.72,8.72,1.66,13.23,4.49,26.69,7.52,40.75,7.26.8,6.27-2.31,11.68-4.02,17.34-5.31,17.53-7.12,35.75-11.06,53.53-16.37-1.17-32.75-2.34-49.13-3.51-.87-7.96,1.75-15.64,1.86-23.51.04-2.7,1.42-6.89-2.55-7.47-3.65-.53-4.34,3.5-4.9,6.29-1.87,9.32-3.48,18.69-5.19,28.04-5.04-2.02-8.88-5.78-13.1-8.99-.59-14.12,3.64-27.54,6.27-41.15,2.51-13,6.39-25.74,9.6-38.61.41-1.64.61-3.26,2.25-4.18,3.36,1.3,5.58,4.01,8.02,6.46Z"/><path class="cls-10" d="M469.47,1487.38c-15.63,3.73-31.32,7.08-47.52,6.8-4.21-10.1-7.07-20.63-9.77-31.2-1.61-6.29-4.37-12.04-7.83-17.78-.84,11.9-.32,23.58.73,35.29.89,9.87,4.32,19.46,3.14,29.54-2.92,1.15-2.94,5.29-6.24,6.05-7.15-25.28-13.03-50.85-17.49-76.73-1.27-7.39-.97-7.9,6.67-8.52,19.54-1.57,39.12-2.66,58.66-4.27,5.23-.43,6.96,1.53,7.75,6.39,1.92,11.8,4.15,23.56,6.64,35.26,1.37,6.47,3.49,12.79,5.28,19.17Z"/><path class="cls-8" d="M507.85,1107.8c-2.85,20.27-.78,40.79-3.26,61.11-1.07,8.8-.35,17.82-.45,26.74-15.79,1.88-31.48-2.15-47.26-.76,1.04-19.78,1.74-39.59,3.3-59.33.57-7.22,1.88-14.4,1.91-21.68,15.56.26,30.72-2.43,45.76-6.08Z"/><path class="cls-10" d="M315.48,998.04c-.62,5.27-1.55,10.52-1.78,15.81-.2,4.62.22,9.29.7,13.91.2,1.92,1.2,3.99,3.69,3.94,2.02-.04,2.42-1.95,3.1-3.42,3.09-6.65,5.82-13.41,6.47-20.83.26-2.96.2-6.02,1.92-8.67,2.28.44,4.61.7,6.82,1.35,12.08,3.59,25.01,3.65,36.7,8.86-3.18,16.32-6.4,32.64-7.39,49.29-.28,4.79-2.23,7.12-7.49,6.92-10.96-.42-21.93-.47-32.9-.41-4.36.02-5.74-1.87-5.85-6-.11-4.16-.97-8.31-1.51-12.59-4.73,1.17-4.93,4.78-5.79,7.89-.62,2.24-.99,4.55-1.57,6.8-1.01,3.92-4.13,3.79-7.18,3.55-3.93-.31-3.66-3.25-3.33-5.91,2.5-20.46,5.56-40.83,11.92-60.53,1.16.01,2.31.02,3.47.03Z"/><path class="cls-15" d="M373.1,1009c-11.69-5.21-24.62-5.28-36.7-8.86-2.21-.66-4.54-.91-6.82-1.35.16-8.37,2.07-16.48,4.37-24.42,5.08-17.5,11.06-34.75,14.34-52.74,5.56.12,11.12.47,16.67.31,10.9-.31,20.06,2.4,25.1,13.15-1.49,12.13-5.64,23.65-8.74,35.37-3.37,12.76-6.51,25.48-8.23,38.55Z"/><path class="cls-15" d="M516.45,1021.37c-8.15,2.16-12.54,9.3-18.66,14.13-8.78,6.92-16.86,14.81-27.75,18.55.11-12.24,3.47-24.03,4.98-36.08,2.12-16.94,8.14-33.3,7.58-50.65,7.91-1.01,13.29-6.6,19.44-10.77,8.39-5.69,16.95-10.99,26.9-13.6,1.02,2.22.63,4.43.32,6.78-1.02,7.9-3.59,15.44-5.1,23.2-3.12,16.05-6.84,32.02-7.71,48.43Z"/><path class="cls-15" d="M396.55,1198.64c-.91-20.41-1.57-40.82,1.78-61.11,15.63,2.82,31.38,2.55,47.15,1.83-.84,15.7-1.66,31.4-2.55,47.1-.22,3.93-.71,7.85-1.08,11.77-15.1.14-30.2.28-45.3.41Z"/><path class="cls-13" d="M445.48,1139.36c-15.77.72-31.52,1-47.15-1.83-1.16-1.66-1.84-3.42-1.72-5.54.61-10.58,1.25-21.16,1.62-31.75.16-4.6,2.03-6.39,6.69-6.34,13.25.15,26.51,0,39.76-.11,3.6-.03,5.84,1.18,5.28,5.18-1.88,13.42-1,27.15-4.48,40.39Z"/><path class="cls-15" d="M312.31,1192.42c-.55-13.14-.44-26.22,1.33-39.31.83-6.14.17-12.48.19-18.73,13.32,2.32,27.02.8,40.26,3.94-.09,17.3-.17,34.61-.26,51.91-3.3-.01-6.6,0-9.9-.05-10.61-.2-20.99,2.81-31.63,2.24Z"/><path class="cls-11" d="M528.94,942.95c-9.94,2.6-18.5,7.91-26.9,13.6-6.15,4.17-11.53,9.76-19.44,10.77,0-.33.02-.66-.03-.99-.44-3.42,1.18-8.67-3.37-9.21-4.28-.51-4.56,4.75-5.66,8.08-.83,2.5-1.49,5.08-3.47,7-14.06.25-27.52-2.77-40.75-7.26-2.77-.94-5.81-1.13-8.72-1.66-.13-2.63-.65-5.31-.32-7.88,1.03-7.89,4.5-10.24,12.03-8.29,11.01,2.86,22.11,3.59,33.44,2.34,5.51-.6,11-1.94,16.7-.31,3.67,1.05,6.98-1.23,10.33-2.7,8.54-3.73,15.36-10.27,23.69-14.32,1.57-.05,2.86-.57,3.56-2.1,1.08-1.2,2.36-2.02,4.04-2.03,1.64.11,3.06-.25,3.94-1.8.31-.55.77-.74,1.37-.56,1.28.22,2.57.45,3.85.68-.55,5.77-.53,11.69-4.28,16.64Z"/><path class="cls-10" d="M354.1,1138.32c-13.24-3.14-26.94-1.62-40.26-3.94-1.19-12.01,2.44-23.7,2.3-35.64-.04-3.38,1.87-4.6,5.06-4.59,11.6.03,23.2-.03,34.81-.03,2.81,0,4.35,1.27,4.01,4.28-1.41,12.5-2.78,25.01-4.28,37.5-.1.86-1.07,1.62-1.63,2.42Z"/><path class="cls-4" d="M1616.28,1317.51c3,13.49,2.05,27.16,1.51,40.75-.47,11.63-1.57,23.21-.74,34.9,1.02,14.3-.24,28.62-.61,42.92-.36,13.65-1.07,27.29.35,40.91.03.33.06.66.06,1-.02,3.23,1.02,7.56-3.64,7.91-5.26.39-3.83-4.59-4.04-7.4-2.09-28.25-2.32-56.56-1.27-84.84.94-25.27,2.65-50.52,4.02-75.78,1.46-.12,2.91-.25,4.37-.37Z"/><path class="cls-11" d="M405.85,1039.57c16.38,1.17,32.75,2.34,49.13,3.51q.34,22.82-22.01,22.64c-8.59-.07-17.19-.25-25.78-.14-4.27.05-6.29-1.5-5.42-5.87,1.34-6.72.39-13.9,4.08-20.14Z"/><path class="cls-5" d="M368.69,1194.78c-1.34-23.39-.98-46.72,2.44-69.95,2.57.5,4.87,1.57,6.89,3.24,1.6,2.43,4.15,1.85,6.46,2.02-.19,18.46-.37,36.92-.6,55.38-.05,3.93.51,7.94-1.17,11.71-4.67-.8-9.35-1.6-14.03-2.4Z"/><path class="cls-1" d="M345.78,1540.67c14.84-4.15,30.01-7.15,44.48-12.62,2.77,7.01,5.42,14.08,8.38,21.01,1.17,2.74.66,4.33-1.89,5.61-4.16,2.09-8.01,3.82-13.18,2.49-6.98-1.8-14.3-2.34-21.5-3.23-8.26-1.03-14.52-4.36-16.3-13.26Z"/><path class="cls-11" d="M507.85,1107.8c-15.04,3.65-30.2,6.34-45.76,6.08.33-6.3-1.3-13.95,2.67-18.37,4.21-4.69,11.98-1.34,18.17-1.75,6.95-.46,13.97.13,20.94-.18,5.01-.22,6.72,1.83,5.79,6.49-.52,2.59-1.21,5.15-1.82,7.73Z"/><path class="cls-4" d="M390.07,935.08c-5.04-10.74-14.2-13.45-25.1-13.15-5.55.16-11.11-.19-16.67-.31-.34-2.42.89-4.53,1.27-6.8.9-5.35,4.33-7.1,9.24-7,3.65.07,7.45-.42,10.94.38,8.15,1.87,16.48,2.18,24.66,3.6,3.65.63,5.44,2.54,3.48,6.26-2.92,5.54-3.07,12.33-7.82,17.02Z"/><path class="cls-11" d="M312.31,1192.42c10.64.56,21.02-2.44,31.63-2.24,3.3.06,6.6.04,9.9.05.26,5.04.65,10.09-.47,15.09-13.57,3.53-27.38,2.92-41.18,2.43-.98-5.12-1.02-10.23.12-15.33Z"/><path class="cls-8" d="M1614.2,1212.01c2.72,3.17,1.49,6.99,1.52,10.5.27,31.14.39,62.29.55,93.43-1.49,0-2.98.01-4.47.02-.47-18.84-1.89-37.62-3.12-56.42-1.04-15.86-.4-31.84-.5-47.77,2.01.08,4.02.16,6.02.24Z"/><path class="cls-4" d="M1607.25,1134.19c-.95-15.88-1.44-31.72.14-47.62,1.37-13.84-.25-27.83,1.35-41.7,2.19-.98,4.39-1.34,6.63-.13-1.24,26.69-.27,53.38-.18,80.07.01,3.27-.49,6.54-.75,9.82-2.4-.14-4.79-.29-7.19-.43Z"/><path class="cls-11" d="M1634.47,1198.6c7.63.09,15.26.12,22.89.31,2.31.06,4.61.54,6.91.83,3.72.48,8.05,1.09,8.19,5.61.17,5.28-4.77,5.73-8.63,6.34-6.22.98-12.5,1.52-18.75,2.33-2.94.38-5.86.95-8.79,1.43-4.07-5.25-2.34-11.12-1.83-16.86Z"/><path class="cls-8" d="M1615.37,1044.74c-2.23-1.21-4.44-.85-6.63.13-1.15-13.12-.26-26.18.8-39.27.62-7.57.57-15.21.47-22.81-.1-7.33.43-14.52,2.64-21.53,1.09.24,2.18.47,3.28.71-.19,27.59-.38,55.18-.56,82.77Z"/><path class="cls-8" d="M1607.25,1134.19c2.4.14,4.79.29,7.19.43,2.99,5.25-.69,10.31-.49,15.56.49,12.59.14,25.22.12,37.83-2.7,1.99-2.71,3.98,0,5.97.05,3.78.1,7.56.15,11.35-2.11.17-4.21.33-6.32.5-.87-20.66-2.39-41.31-1.67-62.01.11-3.22-.9-6.59,1.01-9.63Z"/><path class="cls-11" d="M378.02,1128.08c-2.02-1.68-4.32-2.74-6.89-3.24-1.67-1.14-3.71-2.48-2.69-4.71,2.99-6.53,2.28-13.62,3.49-20.4.87-4.89,9.99-8.18,13.97-5.01,1.24.99,1.09,2.28.91,3.6-1.4,10.22-.39,20.63-2.36,30.8-2.15-.35-4.29-.7-6.44-1.04Z"/><path class="cls-4" d="M1364.07,919.9c-4.38,3.73-9.63,2.45-14.21,1.44-4.97-1.09-9.85-1.29-14.8-1.3-41.56-.05-83.15.71-124.68-.47-16.09-.46-32.39-.23-48.44-2.7.7-.35,1.4-.7,2.09-1.05,56.13,1.02,112.26,2.85,168.42,2.12,10.56-.14,21.18-.33,31.62,1.96Z"/><path class="cls-4" d="M456.88,1194.89c15.78-1.39,31.47,2.64,47.26.76,1.98,2.85,2.19,5.67-.09,8.47-6.33-1.09-12.59-.31-18.84.65-9.56,1.46-19.16,1.58-28.79.76-.62-3.58-.74-7.14.46-10.64Z"/><path class="cls-4" d="M381.97,1033.93c4.22,3.21,8.07,6.97,13.1,8.99.98,6.02-1.09,11.75-2,17.54-.81,5.16-4.36,6.06-12.83,5.06-5.18-.61-4.29-3.98-3.93-7.23.65-5.9,1.36-11.79,2.15-17.66.35-2.61.77-5.28,3.5-6.69Z"/><path class="cls-4" d="M296.96,1126.51c0-7.99-.07-15.98.05-23.97.03-2.29.31-4.68,1.08-6.81.62-1.72,2.66-1.85,4.33-1.53,1.41.27,2.33,1.32,2.31,2.81-.04,2.32-.09,4.66-.39,6.96-2.05,15.53-3.82,31.08-3.65,46.78.01,1.33-.02,2.67-.21,3.98-.19,1.31-.59,2.85-2.07,3.03-2.25.27-2.81-1.74-2.79-3.29.08-6.66.44-13.31.64-19.97.08-2.66.01-5.33.01-7.99.23,0,.47,0,.7,0Z"/><path class="cls-4" d="M1582.02,920.33c-2.88,2.69-6.92,2.85-10.22,3.13-20.05,1.75-39.98,3.29-60.32,1.38-14.56-1.37-29.54-1.21-44.35-1-13.21.19-26.32-2.82-39.62-1.98-1.12.07-2.32-1.02-3.48-1.57,13.61-1.62,27.14.36,40.71.84,33.15,1.17,66.3,2.82,99.49.6,5.94-.4,11.74-2.45,17.79-1.41Z"/><path class="cls-4" d="M396.55,1198.64c15.1-.14,30.2-.28,45.3-.41,1.66,2.49,1.63,4.94-.18,7.35-15.15,1.16-30.29,2.51-45.51,2.22-1.35-3.12-1.13-6.16.39-9.16Z"/><path class="cls-4" d="M408.11,956.45c-2.44-2.44-4.67-5.15-8.02-6.46-1.83-10.72,6.22-18.34,7.55-29.2,6.05,4.75,6.59,10.88,10.12,15.06,1.19,1.4.72,3.09-.32,4.56-3.59,5.07-4.98,11.42-9.33,16.04Z"/><path class="cls-4" d="M315.48,998.04c-1.16-.01-2.31-.02-3.47-.03,1.54-14.88,7.29-28.68,11.15-42.95,1.35-4.98,2.1-10.32,5.03-14.83,1.23-.25,2.47-.5,3.7-.75-5.53,15.43-8.94,31.44-13.05,47.26-.99,3.8-2.23,7.53-3.36,11.29Z"/><path class="cls-8" d="M401.97,1516.08c3.3-.76,3.32-4.9,6.24-6.05,5.56,4.72,6.27,12.01,9.36,18.03,1.28,2.49-1.1,5.01-2.28,7.32-1,1.95-1.68,4.74-4.69,4.26-2.45-.39-2.26-2.84-2.81-4.7-1.88-6.31-3.87-12.58-5.81-18.87Z"/><path class="cls-6" d="M1164.03,915.81c-.7.35-1.4.7-2.09,1.05-2.02-.06-4.03-.12-6.05-.18-10.6-.97-21.2-.53-31.8-.08-13.34-.94-26.68-.9-40.03-.41-7.99-1.59-16.3.59-24.21-2,15.27-.09,30.54-.26,45.81-.26,16.28,0,32.56.09,48.84.25,3.22.03,6.71-.94,9.53,1.62Z"/><path class="cls-4" d="M297.87,1207.82c-1.84-.73-3.69-1.45-5.53-2.18.41-5.57.77-11.14,1.26-16.7.17-1.87.07-4.37,2.69-4.5,2.38-.11,3.42,2,3.33,4-.29,6.48,1.32,13.15-1.75,19.37Z"/><path class="cls-4" d="M1410.02,920.02c-1.11,1.37-2.6,1.92-4.31,1.92-10.49,0-20.98,0-31.46,0-1.72,0-3.19-.58-4.28-1.96,13.36-2.07,26.71-2.11,40.06.04Z"/><path class="cls-4" d="M1615.94,961.97c-1.09-.24-2.19-.47-3.28-.71-1.83-7.15.02-14.37-.37-21.54-.13-2.38.9-3.68,3.44-3.56,2.58.12,3.19,1.54,3.03,3.9-.42,6.54-.68,13.1-1,19.65-.98.43-1.74,1.05-1.78,2.24,0,0-.05.02-.05.02Z"/><path class="cls-4" d="M368.69,1194.78c4.68.8,9.35,1.6,14.03,2.4,1.74,2.56,1.42,5.21.31,7.89-4.87-.52-9.75-1.03-14.62-1.55-1-2.95-1.15-5.87.28-8.74Z"/><path class="cls-6" d="M1008.02,911.84c-24.09.84-48.13-.09-72.16-1.66,22.87-1.35,45.74.35,68.61.15,1.18-.01,2.37.98,3.55,1.51Z"/><path class="cls-6" d="M2056.72,1474.42c-8.97.07-17.43,3.17-26.21,4.42-8.13,1.16-16.09,3.69-24.44,3.16,17.16-4.35,34.4-8.21,52.12-9.43-.49.62-.98,1.24-1.47,1.85Z"/><path class="cls-6" d="M1684.03,931.8c-12.57.03-25.15,0-37.72.11-3.3.03-6.59.48-9.88.74.5-1.88,1.92-2.61,3.67-2.61,13.49.01,26.98.04,40.47.19,1.16.01,2.31,1.02,3.47,1.57Z"/><path class="cls-6" d="M331.88,939.48c-1.23.25-2.47.5-3.7.75.93-7.88,4.95-14.46,8.59-21.25-.47,7.19-1.41,14.17-4.89,20.5Z"/><path class="cls-6" d="M1665.35,1500.18c-9.86.18-19.65-.46-29.37-2.17.11-.8.23-1.59.34-2.39,9.53,2.48,19.61,1.41,29.03,4.56Z"/><path class="cls-4" d="M1607.91,1205.83c2.11-.17,4.21-.33,6.32-.5.96,2.23.73,4.45-.02,6.67-2.01-.08-4.02-.16-6.02-.24-.59-1.96-.93-3.93-.27-5.94Z"/><path class="cls-6" d="M1024.07,913.14c-4.1.49-8.2.97-12.07-1.09,4.1-.45,8.22-1.21,12.07,1.09Z"/><path class="cls-3" d="M1614.08,1193.99c-2.71-1.99-2.7-3.98,0-5.97,2.46,1.99,2.47,3.98,0,5.97Z"/><path class="cls-6" d="M1589.98,919.85c-2.67-.06-5.34-.12-8.02-.18,4.08-2.21,8.13-3.4,12.08.25-1.35-.02-2.71-.05-4.06-.07Z"/><path class="cls-6" d="M2068.81,1470.47c1.23-2.38,3.16-2.13,5.22-1.37-1.39,1.78-3.26,1.76-5.22,1.37Z"/><path class="cls-6" d="M378.02,1128.08c2.15.35,4.29.7,6.44,1.04.23.32.23.65.02.98-2.31-.17-4.85.41-6.45-2.02Z"/><path class="cls-6" d="M1032.1,913.52c-1.42.54-2.82.51-4.2-.15,1.46-1.5,2.86-1.48,4.2.15Z"/><path class="cls-6" d="M1611.81,1315.96c1.49,0,2.98-.01,4.47-.02.19.52.19,1.04,0,1.56-1.46.12-2.91.25-4.37.37-.26-.62-.3-1.26-.11-1.91Z"/><path class="cls-6" d="M2058.74,1472.48c.77-1.72,1.78-2.04,3.08-.5-.91.93-1.95,1.02-3.08.5Z"/><path class="cls-4" d="M520.02,930.03c-.7,1.53-1.99,2.05-3.56,2.1.72-1.49,1.89-2.22,3.56-2.1Z"/><path class="cls-4" d="M528,926.2c-.88,1.55-2.3,1.91-3.94,1.8.93-1.44,2.28-1.95,3.94-1.8Z"/><path class="cls-4" d="M1589.98,919.85c1.35.02,2.71.05,4.06.07-.15.71-.29,1.41-.44,2.12-1.62-.04-2.91-.64-3.62-2.19Z"/><path class="cls-8" d="M1615.98,961.94c.05-1.18.8-1.8,1.78-2.24.12,1.31-.41,2.12-1.78,2.24Z"/><path class="cls-5" d="M1592.09,932.01c-.05-1.18.49-1.98,1.55-2.46.24,1.3-.21,2.16-1.55,2.46Z"/><path class="cls-1" d="M2079.88,1467.87c.74-.44,1.49-.87,2.23-1.3-.35,1.12-1.03,1.66-2.23,1.3Z"/><path class="cls-12" d="M528.94,942.95c3.75-4.95,3.73-10.87,4.28-16.64,3.64-4.33,7.07-3.66,10.13.59,1.11,1.54,1.79,3.39,2.67,5.09.29,14.28-1.42,28.19-5.59,41.97-2.45,8.11-4.64,16.52-4.71,25.19-3.09,3.86-2.98,8.66-3.69,13.17-1.4,8.85-3.75,17.45-6.26,26.01-1.92,6.56-7.31,11.43-9.01,18.32-2.86-12.02-3.82-23.66-.3-35.29.87-16.41,4.58-32.38,7.71-48.43,1.51-7.77,4.09-15.3,5.1-23.2.3-2.36.69-4.56-.32-6.78Z"/><path class="cls-11" d="M2224.53,1132.15c-6,.07-10.44-2.57-13.79-7.01-4.5-5.96-1.31-13.99,6.1-15,7.05-.96,12.99,1.96,17.87,6.82,2.51,2.5,3.23,5.9,1.2,9.12-2.64,4.19-6.41,6.6-11.38,6.08Z"/><path class="cls-6" d="M1901.73,1492.76c-8.28,2.46-17.09,2.63-25.39,2.79-17.9.35-35.79,1.07-53.56,2.67-38.79,3.51-77.62.82-116.42,1.8-2.99.08-5.88.32-8.84,1.05-5.1,1.26-10.37,2.21-15.36-.71,6.68-2.73,13.76-1.67,20.63-1.81,34.51-.7,69.03-.87,103.55-1.49,26.88-.48,53.61-4.05,80.52-4.26,4.96-.04,9.91-1.12,14.88-.05Z"/><path class="cls-6" d="M1977.89,1486.33c-4.56,3.23-10.34,2.86-15.14,3.1-10.2.5-20.24,2.62-30.45,2.62-4.59,0-9.14-.18-13.71,1.33-3.31,1.1-7.14,1.68-10.41-.87,23.2-2.52,46.35-5.59,69.72-6.18Z"/><path class="cls-6" d="M1999.72,1482.85c-6.16,3.43-12.88,3.42-19.64,3.15,6.34-2.37,12.88-3.44,19.64-3.15Z"/><path class="cls-4" d="M1276.3,929.92c12.31,0,24.62-.03,36.93.06,2.91.02,6.04-.83,8.6,1.45-15.19-.01-30.45,1.91-45.53-1.51Z"/><path class="cls-4" d="M1400.07,936.02c7.82-.69,15.8.74,23.5-1.83,1.61-.54,3.22.24,4.35,1.65-9.27,1.96-18.56,2.01-27.85.18Z"/><path class="cls-4" d="M1164.05,925.89c9.94.07,19.95-1.21,29.76,1.47-9.95.15-19.93.94-29.76-1.47Z"/><path class="cls-4" d="M1360.09,933.78c7.36-.58,14.69-.74,21.79,1.81-7.33.2-14.67.55-21.79-1.81Z"/><path class="cls-4" d="M1130.11,923.74c3.38-2.5,6.68-2.68,9.89.31-3.35,1.51-6.64,1.5-9.89-.31Z"/><path class="cls-4" d="M1328.13,931.65c4-2.52,7.54.86,11.33.91-3.86.74-7.71,1.28-11.33-.91Z"/><path class="cls-4" d="M1102.35,921.9c5.16.41,10.5-1.25,15.45,1.42-5.22.29-10.48.96-15.45-1.42Z"/><path class="cls-4" d="M1388.08,935.8c2.65-3.17,5.16.56,7.75.16-2.61,1.44-5.2,1.58-7.75-.16Z"/><path class="cls-4" d="M1198.11,927.69c1.48-1.91,2.76-1.61,3.89.34-1.43,1.38-2.71,1.05-3.89-.34Z"/><path class="cls-4" d="M1143.57,924.28c1.45-.38,2.85-.41,4.11.57-1.52.84-2.86.45-4.11-.57Z"/><path class="cls-4" d="M1205.5,928.3c.73.13,1.46.27,2.19.4-.88.68-1.57.33-2.19-.4Z"/><path class="cls-4" d="M1246.32,928.64c.72-.12,1.44-.23,2.16-.35-.63.7-1.31,1.04-2.16.35Z"/><path class="cls-4" d="M1124.09,916.61c10.6-.46,21.2-.9,31.8.08-10.6,2.05-21.2,2.29-31.8-.08Z"/></svg>