<?xml version="1.0" encoding="UTF-8"?><svg id="Capa_1" xmlns="http://www.w3.org/2000/svg" width="1475.67mm" height="1285.17mm" viewBox="0 0 4183 3643"><defs><style>.cls-1{fill:#524d3a;}.cls-1,.cls-2,.cls-3,.cls-4,.cls-5,.cls-6,.cls-7,.cls-8,.cls-9,.cls-10,.cls-11,.cls-12,.cls-13{stroke-width:0px;}.cls-2{fill:#534e3b;}.cls-3{fill:#1d1f1b;}.cls-4{fill:#1c1c19;}.cls-5{fill:#f1dd97;}.cls-6{fill:#edda95;}.cls-7{fill:#f2de98;}.cls-8{fill:#524d3b;}.cls-9{fill:#eedb95;}.cls-10{fill:#59543f;}.cls-11{fill:#1e1b18;}.cls-12{fill:#544f3b;}.cls-13{fill:#4e4a39;}</style></defs><path class="cls-4" d="M2485.39,1919.98c5.12,3.04,9.37,5.56,13.6,8.08,19.79,11.78,36.83,26.21,47.27,47.43,2.3,4.67,6.05,8.79,9.71,12.61,12.53,13.08,14.72,28.52,10.71,45.35-2.62,10.99-8.71,20.09-16.59,28.04-18.71,18.89-41.96,30.42-66.14,40.22-18.56,7.53-37.89,12.65-57.48,16.77-7.81,1.65-7.69,1.73-6.54,9.71,4.22,29.46,4.19,59.13,4.02,88.79-.26,43.06,1.01,86.06,8.25,128.55,7.5,44,16.49,87.74,28.6,130.78,1.57,5.56,4.31,8.3,9.62,9.81,8,2.28,15.8,5.23,23.72,7.8,10.8,3.51,19.48,9.98,26.67,18.63,2.75,3.31,4.88,7.11,8.38,9.86,2.84,2.23,2.8,5.82,3.38,9.11,3.51,19.73,4.18,39.73,5.56,59.65,2.18,31.33,6.27,62.3,14.7,92.62,4.26,15.32,11.89,28.86,21.06,41.7,2.18,3.04,5.17,3.91,8.38,4.84,9.27,2.69,18.63,5.04,27.6,8.75,11.42,4.71,22.52,9.93,32.79,16.91,9.64,6.55,19.85,12.2,29.98,17.99,31.32,17.91,55.69,42.96,74.75,73.48,15.11,24.2,24.2,50.31,26.88,78.68.12,1.31.32,2.73.92,3.87,6.32,11.98,6.04,25.04,6,37.96-.02,5.67,1.47,9.38,6.78,11.87,4.19,1.97,7.84,5.05,11.9,7.33,15.25,8.56,21.55,22.65,22.36,38.98,1.44,28.93,3.39,57.87,2.13,86.89-.33,7.57-2.27,14.4-6.31,20.73-5.81,9.11-13.14,16.89-21.92,23.04-16.64,11.66-33.41,23.09-50.58,34-25.51,16.22-53.23,27.57-81.19,38.36-68.35,26.36-139.43,42.78-211.39,55.2-36.07,6.22-72.62,9.65-109.2,12.28-28.24,2.03-56.44,4.65-84.76,5.44-54.12,1.52-107.98-1.64-161.34-10.82-51.19-8.81-102.38-17.68-152.85-30.36-47.79-12.01-93.62-28.65-136.03-53.88-26.17-15.57-50.47-33.56-69.64-57.76-7.02-8.86-11.32-18.45-13.51-29.58-3.29-16.71-6.83-33.45-5.62-50.44,1.62-22.64.73-45.3,1.79-67.9.89-18.82,9.34-34.55,25.08-45.53,3.46-2.41,5.02-4.66,4.92-8.8-.75-29.54,7.66-57.54,17.03-84.82,9.19-26.74,25.62-49.34,48.38-67.26,33.57-26.42,70.03-47.25,110.32-61.48,9.1-3.21,17.77-7.6,26.81-10.99,4-1.5,5.79-4.04,6.5-7.93,3.18-17.37,6.91-34.73,7.34-52.42.95-38.98,2.01-77.98,1.66-116.95-.17-19.42,9.57-31.77,23.58-42.43,17.46-13.28,38.08-16.92,59.17-18.8,6.96-.62,15.25.58,20.33-3.3,5.29-4.04,4-12.87,5.22-19.67,6.01-33.45,13.24-66.68,17.71-100.4,6.85-51.65,9.03-103.57,8.73-155.6-.15-25.98.8-52-2.08-77.91-.11-.99-.01-2-.06-3q-.65-13.17-13.31-16.66c-33.21-9.22-65.36-20.94-94.26-40.23-15.41-10.28-29.11-22.35-38.24-38.78-6.81-12.26-9.33-25.77-3.14-38.41,6.39-13.05,12.88-26.2,20.52-38.62,6.4-10.41,16.93-16.86,25.99-24.66,5.71-4.9,5.93-4.79.98-10.26-31.78-35.15-55.73-75.13-68.72-120.6-32.55-113.95-12.5-218.16,64.14-309.13,56.3-66.82,129.36-105.01,216.56-113.88,149.69-15.23,288.14,68.99,338.63,207.64,43.69,119.97,22.48,230.01-57.51,329.08-2.5,3.1-5.11,6.12-8.71,10.43ZM1795.34,3037.65c-2.45.13-4.91.25-7.36.38-23.37-14.75-32.67-37.82-37.36-64.08-6.82,8.16-11.98,16.41-12.65,26.76-1.48,22.81,7.45,41.76,22.94,57.55,24.87,25.37,53.79,45.54,84.47,63.26,23.51,13.58,48.33,23.63,75.16,28.67,34.1,6.4,67.16,16.51,99.46,29.13,20.89,8.16,42.61,13.25,64.71,16.36,45.13,6.36,90.3,12.35,135.69,16.73,9,.87,18.7.52,26.69,6.36-1.35,5.06-5.27,5.15-9.47,5.13-10.66-.04-21.57-1.3-31.93.5-18.74,3.26-37.22,1.26-55.54-1.14-19.7-2.59-39.47-4.63-59.15-7.34-12.47-1.72-25.05-2.73-37.49-4.63-17.69-2.71-35.28-6.05-52.4-11.47-19.93-6.31-40.78-9.47-60.1-17.87-8.22-3.58-16.56-6.9-24.87-10.27-31.44-12.74-63.05-25.16-92.13-42.91-29.33-17.91-56.72-38.34-79.98-63.92-1.36-1.5-1.87-4.58-5.1-3.6-1.86,2.8-.99,5.87-1.06,8.77-.27,11.97,2.94,23.73,2.17,35.76-.73,11.37,4.22,20.76,11.48,28.83,24.52,27.26,53.43,48.79,86.11,65.36,34.56,17.52,70.88,30.15,108.48,39.23,35.76,8.64,71.61,16.96,107.96,22.75,31.71,5.05,63.17,11.62,95.23,14.72,22.45,2.17,44.88,4.87,67.41,5.1,25.25.26,50.5,1.08,75.81-1.15,13.83-1.21,27.85-1.77,41.72-2.95,8.93-.76,17.89-.99,26.79-1.91,15.8-1.63,31.58-3.51,47.32-5.71,12.8-1.79,25.67-2.98,38.46-4.7,18.06-2.42,35.69-7.36,53.58-10.72,41.86-7.87,82.62-19.68,123.06-32.69,45.71-14.7,89.08-34.69,130.6-58.87,9.18-5.34,18.61-10.16,26.5-17.31,9.81-8.88,21.66-16.72,23.98-30.89,2.22-13.57,2.63-27.43,3.8-40.71-2.56-1.16-3.91-.62-4.9.15-7.79,6.15-16.58,10.87-23.54,18.29-6.33,6.74-13.81,12.5-21.91,17.14-19.33,11.07-38.42,22.58-59.25,30.79-28.43,11.2-56.78,22.63-85.25,33.76-25.42,9.94-51.98,16.15-78.2,23.46-6.45,1.8-12.99,2.62-19.71,2.29-3.02-.15-5.2-.9-5.76-4.17l.09-.09c2.87.3,5.81.99,8.1-1.6,25.01-9.99,49.94-20.21,75.07-29.88,20.84-8.02,40.77-18.08,61.29-26.81,45.12-19.19,89.28-40.22,126.57-73.11,6.51-5.74,13.07-11.21,17.92-18.6,6.69-10.19,6.58-20.74,2.45-31.5-3.29-8.58-10.53-12.85-18.93-16.4,0,8.36-.34,15.67.1,22.94.38,6.28-.86,11.7-4.55,16.88-12.34,17.29-29.95,28.53-47.69,38.61-25.13,14.29-51.26,26.98-78.62,36.77-30.38,10.87-60.29,23.27-92.44,28.39-12.81,2.04-25.61,4.17-38.43,6.15-1.89.29-4.41.54-4.92-2.01-.48-2.4,1.52-3.41,3.61-3.92,9.58-1.6,17.79-7.04,27.1-9.5,25.42-6.72,49.82-16.33,74.31-25.83,41.05-15.93,80.7-34.57,118.69-56.82,7.39-4.33,12.57-10.82,18.5-16.6,1.78-1.74,2.19-4.03,2.19-6.44-.02-12.33-.01-24.66-.06-36.99,0-1.6.32-3.54-1.42-4.46-2.32-1.23-3.62.82-5.04,2.06-12.55,10.97-26.38,20.15-40.36,29.14-1.12.72-2.13,1.59-3.17,2.42-28.07,22.51-59.83,38.49-93.24,51.03-30.79,11.56-62.25,21.28-94.41,28.48-15.85,3.55-31.78,6.53-47.91,8.73-13.8,1.88-27.64,4.01-41.46,4.61-17.95.78-35.69,3.44-53.49,5.04-24.79,2.22-49.67,4.29-74.43,4.81-57.9,1.22-115.89,1.97-173.75-1.8-10.84-.71-21.79-1.71-32.66-2.8-17.34-1.74-33.87-6.52-50.44-11.21-19.46-5.5-39.39-9.49-58-17.8-10.02-4.47-20.49-7.84-30.7-11.84-25.66-10.05-51.77-19.1-75.75-33.04-22.69-13.18-45.17-26.37-64.82-44.29-14.67-13.38-27.44-27.71-37.34-44.87-2.44-4.23-4.12-9.51-9.4-13.15-2.42,31.49,2.49,60.05,19.73,85.72,2.28,3.4,4.51,6.6,3.57,10.94,0,0-.31.41-.31.42ZM2505.69,1950.55c-8.53-6.22-17.96-10.84-27.36-15.53-3.21-1.6-5.54-.8-8.09,1.42-15.54,13.53-31.21,26.88-49.69,36.4-1.44.74-2.48,2.24-3.85,3.17-16.42,11.17-34.12,18.9-53.93,22.22-12.43,2.08-24.93,3.45-37.38,5.22-10.48,1.49-21.01,3.5-31.72,2.32-2.08-.23-4.16-.85-4.63-3.06-.58-2.68,1.96-3.23,3.7-3.8,14.51-4.73,28.79-10.16,43.94-12.87,21.91-3.92,42.97-9.92,63.1-20.35,38.91-20.15,67.13-50.5,89.15-87.45,7.66-12.85,15.43-25.68,22.14-39.03,3.66-7.28,8.34-14.42,9.05-22.97,3.04-7.33,7.21-14.08,9.74-21.71,11.03-33.16,16.93-67.1,16.27-102.08-1.95-103.3-46.95-183.89-129.31-244.71-106.82-68.99-216.56-72.93-326.58-10.18-75.8,43.23-121.92,110.69-142.42,195.35-5.47,22.61-10.25,45.56-6.06,69.14-2.22,1.7-1.88,4.17-1.72,6.43.65,9.6.8,19.29,2.3,28.76,4.1,25.92,9.79,51.49,19.62,75.96,8.46,21.05,18.85,41.11,31.93,59.64,17.54,24.85,38.08,47.03,61.91,65.93,13.24,10.5,26.88,20.33,42.82,27,17.63,7.38,36.05,11.46,54.37,16.08,18.3,4.62,36.54,9.61,55.61,10.68,8.9.5,17.6,3.29,25.72,7.39,1.52.77,3.24,1.22,3.22,3.21-.02,1.91-1.66,2.73-3.14,3.51-2.65,1.38-5.51,2.3-8.24,3.46-6.36,2.7-12.42-.02-18.61-.08-12.39-.12-24.43-2.45-36.29-5.51-22.22-5.74-43.75-13.69-65.29-21.57-30.03-10.98-59.96-22.13-84.1-44.28-1.78-1.63-3.66-3.17-6.2-2.29-9.55,3.3-18.41,7.51-21.83,18.2-.98.08-2.37-.24-2.86.29-8.57,9.09-13.85,19.5-11.7,32.41,2.13,12.8,9.54,22.47,18.94,30.86,15.58,13.92,33.66,23.79,52.73,31.88,39.82,16.9,81.73,25.94,124.38,31.71,44.29,5.99,88.73,7.81,133.44,5.17,44.03-2.6,87.36-8.8,129.74-21.02,22.44-6.47,44.25-14.6,64.02-27.38,10.71-6.92,20.42-14.92,27.15-26.02,7.83-12.89,7.86-25.74,0-38.64-5.99-9.85-14.14-17.45-24.01-23.27ZM2402.06,2255.84c.42-17.59.51-35.17,1.62-52.78,1.44-22.9.42-45.95.46-68.94,0-1.67-.07-3.33-.04-5,.06-3.88-2.02-5.94-5.59-4.81-5.53,1.75-11.23,1.11-16.78,2.06-18.32,3.15-36.72,5.33-55.33,5.5-4.32.04-8.68.03-12.95.61-19.57,2.66-39.28,1.98-58.77.65-14.18-.97-28.48-.98-42.62-3.18-14.05-2.19-28.28-3.2-42.35-5.27-16.05-2.36-32.1-4.74-47.94-8.39-4.61-1.06-6.04.55-4.86,5.48,3.01,12.65,4.06,25.65,4.6,38.43.84,19.91,3.54,39.76,2.52,59.75-.32,6.33.74,12.5,3.07,18.42-4.41,2.9-2.32,7.31-2.26,11.01.55,40.03-1.57,79.89-6.4,119.65-4.35,35.76-11.89,70.94-18.21,106.34-4.2,23.54-7.76,47.46-21.75,67.95-1.84,2.7-1.45,4.85,1.41,6.66,5.91,3.74,11.97,7.17,18.21,10.37,23.22,11.92,49.51,15.56,72.81,27.24,2.4,1.2,5.17,1.36,5.73,4.57.63,3.58-1.63,5.58-4.3,7.17-7.09,4.21-14.84,3.79-22.36,2.15-23.19-5.06-45.69-12.14-66.39-24.16-7.01-4.07-13.01-9.25-18.27-15.34-6.01-6.97-8.39-14.77-6.51-24.07,1.92-9.52,5.15-18.58,8.24-27.72,2.93-8.66,2.28-9.34-6.41-8.61-3.32.28-6.64.54-9.95.93-18.04,2.12-35.43,6.11-50.55,17-5.24,3.78-10.08,7.81-11.48,14.5-2.31,11.05-2.5,22.04,3.87,31.9,10.06,15.55,23.46,27.2,41.57,32.42,15.99,4.61,32.21,8.46,48.18,13.15,69.76,20.51,140.83,28.36,213.37,22.9,63.57-4.78,123.5-23.04,181.34-48.94,9.75-4.36,19.13-9.96,26.18-18.07,19.87-22.84,15.64-43.53-11.43-57.05-5.02-2.51-10.6-3.95-15.98-5.7-2.09-.68-4.41-1.9-6.85.69.68,2.91,1.06,6.25,2.24,9.29,3.52,9.01,2.95,18.34,2.5,27.65-.32,6.75-3.39,12.27-9.27,15.68-18,10.44-36.98,18.29-57.77,21.1-1.62.22-3.34.14-4.94-.16-2.4-.44-4.52-1.69-5.12-4.2-.69-2.9,1.46-4.05,3.7-5.08,4.54-2.08,8.9-4.62,13.57-6.33,12.55-4.62,24.25-10.99,36.22-16.84,3.82-1.87,7.93-3.41,11.09-8.06-9.12-6.89-11.87-17.21-14.6-27.56-2.63-9.98-5.27-19.96-8-29.91-19.66-71.52-33.72-143.94-34.99-218.41-.04-2.31.24-4.7-1.47-6.65ZM2575.99,2771.93c-2.89-8.13-10.11-13.03-14.86-19.81-14.77-21.1-27.38-42.96-33.28-68.54-6.61-28.64-10.06-57.46-9.7-86.79.06-4.46,0-8.92,0-15.39-11.36,9.62-21.17,17.43-32.68,22.75-39.64,18.33-80.71,32.16-123.33,41.94-33.52,7.69-67.51,9.61-101.57,11.66-18.68-3.85-37.72-1.42-56.6-3.3-19.14-1.92-38.22-4.09-57.11-7.43-28.48-5.03-56.28-12.77-83.39-22.96-26.25-9.87-53.78-16.82-77.5-35.57,0,3.46,0,5.68,0,7.9.05,13.29.54,26.52,1.56,39.8,1.68,21.91-.29,43.82-3.79,65.5-2.96,18.32-6.22,36.57-11.96,54.35-3.34,10.36-6.9,20.78-8.19,31.73-3.57,1.53-3.92,5.16-5.1,8.14-5.83,14.65-13.58,28.01-25.28,38.84-2.17,2.01-4.23,4.29-5.82,6.77-7.83,12.24-13.07,25.21-10.28,40.2-3.29,1.44-6.56,3.04-10.33,2.02-2.91-21.66,1.23-41.92,13.33-60.08,16.15-24.24,25.52-51.14,32.7-79.02.28-1.09-.19-1.88-1.49-2.97-7.57,3.41-15.32,7.18-23.28,10.43-26.61,10.88-51.94,24.19-75.85,40.13-24.63,16.42-46.53,35.24-60.15,62.65-11.27,22.69-13.07,45.37-3.74,68.5,12.31,30.52,33.68,54.22,60.2,73.01,30.02,21.28,62.72,37.69,97.32,50.33,30.96,11.31,61.8,22.98,92.72,34.42,3.11,1.15,6.38,1.95,9.64,2.57,36.37,6.93,73.09,11.04,110.04,13.29,24.66,1.5,49.29.18,73.93-.57,52.61-1.6,105.3-1.08,157.71-7.13,10.26-1.18,20.53-2.94,30.81-3.08,22.77-.31,45.12-4.23,67.53-7.27,42.42-5.76,83.26-18.08,123.5-32.36,32.84-11.66,63.8-26.84,91.04-49.05,7.2-5.87,15.21-10.81,23.16-15.67,23.74-14.52,30.98-36.54,27.9-62.62-2.77-23.46-11.11-45.16-24.09-64.98-16.09-24.57-35.73-45.73-61.29-60.56-14.42-8.37-28.68-16.92-42.69-25.94-8.6-5.54-18-9.37-27.43-13.57-1.12,3.77,1.15,5.23,2.24,7.1,4.04,6.9,8.51,13.56,12.25,20.61,7.45,14,10.32,29.46,13.28,44.82.64,3.3.23,6.93-3.76,8.31-3.81,1.31-6.55-.51-8.11-3.91-6.27-13.69-15.59-25.58-22.91-38.66-4.15-7.41-7.58-15.66-15.32-20.52ZM1962.81,1993.91c-3.66,15.23,2.44,29.6,13.69,41.56,10.31,10.96,22.43,19.82,35.84,26.67,27.35,13.97,56.07,24.43,85.83,31.89,20.9,5.24,42.05,9.24,63.37,12.58,24.95,3.91,50,7.05,75.17,7.23,34.59.25,69.2,1.93,103.81-1.37,10.87-1.04,21.9-1.47,32.71-2.9,23.32-3.09,46.48-7.35,69.24-13.52,29.9-8.1,59.48-16.92,84.94-35.63,9.54-7.01,17.41-15.44,22.52-26.2,3.35-7.05,3.15-17.15-.63-24.12-7.56,21.46-23.63,34.89-41.75,45.7-23.54,14.05-49.1,23.67-75.78,30.12-19.34,4.68-38.85,8.16-58.67,10.55-25.41,3.06-50.75,6.01-76.39,5.57-27.93-.49-55.9,1.19-83.78-1.97-15.81-1.79-31.77-2.52-47.5-4.88-26.89-4.04-53.61-9.19-79.65-17.29-34.73-10.8-68.97-22.62-96.85-47.42-9.8-8.71-17.9-18.63-22.71-30.97-.8-2.06-.82-4.57-3.41-5.6Z"/><path class="cls-7" d="M1941.78,1702.05c-4.2-23.59.58-46.53,6.06-69.14,20.5-84.66,66.62-152.12,142.42-195.35,110.02-62.75,219.76-58.81,326.58,10.18,82.36,60.83,127.37,141.41,129.31,244.71.66,34.98-5.25,68.92-16.27,102.08-2.53,7.62-6.71,14.38-9.74,21.71-1.83.27-2.76,1.72-3.84,2.95-12.44,14.13-27.05,25.61-43.01,35.47-24.98,15.43-52.04,24.8-80.96,29.95-31.87,5.67-63.69,10.96-96.2,9.08-17.28-1-34.55-2.36-51.78-4.02-24.86-2.39-49.61-5.83-74.12-10.58-27.57-5.34-53.74-15.19-79.5-26.27-39.63-17.04-75.16-39.8-104.84-71.51-17.89-19.12-31.07-40.59-38.19-65.82-1.33-4.7-2.05-9.81-5.92-13.45Z"/><path class="cls-5" d="M1917.11,2881.71c-2.79-14.98,2.45-27.95,10.28-40.2,1.59-2.49,3.64-4.76,5.82-6.77,11.71-10.83,19.45-24.19,25.28-38.84,1.19-2.98,1.53-6.61,5.11-8.14,9.1,8.47,19.89,14.43,30.96,19.64,36.51,17.2,74.53,30.37,113.51,40.68,17.36,4.59,34.98,8.23,52.9,10.01,35.77,3.55,71.67,5.12,107.56,6.59,25.64,1.05,51.2-.32,76.62-4.04,31.32-4.58,62.01-12.04,92.55-20.12,18-4.76,36.12-9.28,53.51-16,25.91-10.01,49.78-23.85,72.37-39.91,4.87-3.46,9.54-7.22,12.4-12.69,7.74,4.86,11.17,13.11,15.32,20.52,7.32,13.09,16.64,24.97,22.91,38.66,1.56,3.4,4.3,5.22,8.11,3.91,3.99-1.38,4.39-5.01,3.76-8.31-2.96-15.36-5.84-30.82-13.28-44.82-3.75-7.05-8.22-13.71-12.25-20.61-1.09-1.87-3.36-3.33-2.24-7.1,9.43,4.21,18.84,8.03,27.43,13.57,14,9.02,28.27,17.58,42.69,25.94,25.56,14.83,45.2,35.99,61.29,60.56,12.98,19.82,21.32,41.52,24.09,64.98,3.08,26.07-4.17,48.1-27.9,62.62-7.95,4.86-15.96,9.8-23.16,15.67-27.24,22.21-58.2,37.39-91.04,49.05-40.24,14.28-81.09,26.6-123.5,32.36-22.41,3.04-44.76,6.95-67.53,7.27-10.28.14-20.55,1.9-30.81,3.08-52.41,6.04-105.1,5.52-157.71,7.13-24.64.75-49.27,2.07-73.93.57-36.94-2.25-73.66-6.36-110.04-13.29-3.26-.62-6.53-1.43-9.64-2.57-30.92-11.43-61.75-23.11-92.72-34.42-34.6-12.64-67.3-29.05-97.32-50.33-26.51-18.79-47.88-42.49-60.2-73.01-9.33-23.13-7.53-45.81,3.74-68.5,13.62-27.41,35.52-46.24,60.15-62.65,23.9-15.94,49.24-29.25,75.85-40.13,7.96-3.25,15.71-7.02,23.28-10.43,1.29,1.1,1.77,1.88,1.49,2.97-7.17,27.88-16.55,54.78-32.7,79.02-12.1,18.16-16.23,38.42-13.33,60.08-1.05,6.95,4.05,11.01,7.79,15.37,16.84,19.67,36.58,36.06,59.23,48.53,24.56,13.53,50.27,24.11,77.66,31.12,43.79,11.21,87.98,18.44,133.22,18.54,13.65.03,27.31-.65,40.96-1.2,29.31-1.16,58.68-2.92,87.6-7.3,44.74-6.77,89.41-14.53,133.08-26.82,19.9-5.6,39.36-12.52,57.3-23.09,3.29-1.94,7.29-3.27,7.76-8.05-4.4-1.46-8.3-.54-12.05.88-25.93,9.81-52.86,16.2-79.67,22.85-42.44,10.52-85.45,17.41-129.34,17.66-7.33.04-14.76-.19-21.95.92-6.11.95-10.58-.48-14.43-4.95l-.19-.07c-1.82-1.85-3.63-1.56-5.44.02-.76.12-1.53.23-2.29.35-7.34-.23-14.69-.63-21.86,1.54-9.34.39-18.72.13-27.82-1.8-16.71-3.55-33.7-3.48-50.58-4.9-29.22-2.47-58.02-7.32-86.33-15.06-19.29-5.27-37.79-12.74-56.55-19.51-8.64-3.12-17.19-7.42-26.87-6.68-14.55-6.33-27.68-14.93-40-24.88-6.34-5.12-11.38-11.81-18.89-15.49Z"/><path class="cls-5" d="M2402.06,2255.84c1.71,1.95,1.43,4.34,1.47,6.65,1.27,74.47,15.33,146.89,34.99,218.41,2.74,9.95,5.37,19.93,8,29.91,2.73,10.35,5.48,20.67,14.6,27.56-3.16,4.64-7.26,6.19-11.09,8.06-11.96,5.84-23.67,12.22-36.22,16.84-4.67,1.72-9.03,4.25-13.57,6.33-2.24,1.03-4.39,2.18-3.7,5.08.6,2.51,2.72,3.75,5.12,4.2,1.61.3,3.33.38,4.94.16,20.79-2.81,39.78-10.66,57.77-21.1,5.89-3.42,8.95-8.93,9.27-15.68.44-9.31,1.01-18.63-2.5-27.65-1.18-3.03-1.56-6.38-2.24-9.29,2.44-2.59,4.76-1.37,6.85-.69,5.38,1.75,10.96,3.19,15.98,5.7,27.07,13.52,31.31,34.21,11.43,57.05-7.05,8.1-16.43,13.7-26.18,18.07-57.84,25.9-117.76,44.16-181.34,48.94-72.54,5.46-143.61-2.39-213.37-22.9-15.97-4.7-32.18-8.54-48.18-13.15-18.11-5.22-31.51-16.88-41.57-32.42-6.38-9.85-6.18-20.85-3.87-31.9,1.4-6.68,6.24-10.72,11.48-14.5,15.11-10.89,32.51-14.88,50.55-17,3.31-.39,6.63-.65,9.95-.93,8.69-.73,9.34-.05,6.41,8.61-3.1,9.14-6.32,18.2-8.24,27.72-1.88,9.3.5,17.1,6.51,24.07,5.26,6.1,11.27,11.27,18.27,15.34,20.7,12.02,43.2,19.1,66.39,24.16,7.52,1.64,15.26,2.06,22.36-2.15,2.67-1.58,4.92-3.59,4.3-7.17-.56-3.21-3.33-3.37-5.73-4.57-23.31-11.68-49.6-15.32-72.81-27.24-6.24-3.2-12.3-6.63-18.21-10.37-2.86-1.81-3.24-3.96-1.41-6.66,13.98-20.49,17.55-44.42,21.75-67.95,6.32-35.4,13.86-70.58,18.21-106.34,4.83-39.76,6.96-79.62,6.4-119.65-.05-3.7-2.14-8.11,2.27-11,2.45,3.33,6.06,5.17,9.46,7.22,25.96,15.6,55.03,21.63,84.32,26.35,30.35,4.89,60.93,4.48,91.64,2.66,30.93-1.84,60.62-8.08,89.54-18.77ZM2264.86,2602.86c15.02.53,29.96-.82,44.89-2.1,15.94-1.36,31.61-4.62,47.32-7.54,4.89-.91,9.8-2.33,13.03-6.7,2.72-3.68,1.81-7.15-2.51-8.65-4.52-1.57-9.18-1.06-13.84-.39-28.99,4.23-58.04,7.65-87.37,8.67-12.61.44-25.16,2.46-37.74,3.8-2.77.3-5.52,1.16-5.94,4.33-.5,3.73,2.22,5.34,5.33,6.02,2.92.64,5.91,1.07,8.89,1.24,9.31.52,18.62.88,27.93,1.3Z"/><path class="cls-2" d="M2575.99,2771.93c-2.86,5.47-7.53,9.22-12.4,12.69-22.59,16.07-46.47,29.91-72.37,39.91-17.39,6.72-35.51,11.24-53.51,16-30.54,8.07-61.23,15.53-92.55,20.12-25.43,3.72-50.98,5.1-76.62,4.04-35.89-1.48-71.79-3.05-107.56-6.59-17.92-1.78-35.54-5.42-52.9-10.01-38.98-10.31-77-23.49-113.51-40.68-11.07-5.21-21.86-11.17-30.96-19.64,1.3-10.94,4.85-21.37,8.19-31.73,5.74-17.78,9-36.03,11.96-54.35,3.5-21.68,5.47-43.59,3.79-65.5-1.02-13.28-1.5-26.52-1.56-39.8,0-2.22,0-4.45,0-7.9,23.72,18.75,51.25,25.71,77.5,35.57,27.11,10.19,54.91,17.93,83.39,22.96,18.9,3.34,37.97,5.51,57.11,7.43,18.88,1.89,37.92-.55,56.6,3.3,34.06-2.05,68.05-3.96,101.57-11.66,42.62-9.78,83.69-23.61,123.33-41.94,11.51-5.32,21.31-13.13,32.68-22.75,0,6.46.05,10.92,0,15.39-.36,29.33,3.09,58.15,9.7,86.79,5.9,25.58,18.51,47.44,33.28,68.54,4.75,6.78,11.97,11.68,14.86,19.81Z"/><path class="cls-12" d="M1941.78,1702.05c3.87,3.64,4.59,8.75,5.92,13.45,7.12,25.22,20.3,46.7,38.19,65.82,29.69,31.72,65.21,54.47,104.84,71.51,25.76,11.08,51.93,20.93,79.5,26.27,24.51,4.75,49.26,8.19,74.12,10.58,17.23,1.65,34.5,3.02,51.78,4.02,32.51,1.88,64.33-3.41,96.2-9.08,28.92-5.15,55.98-14.52,80.96-29.95,15.96-9.86,30.57-21.34,43.01-35.47,1.08-1.23,2.01-2.68,3.84-2.95-.71,8.55-5.39,15.69-9.05,22.97-6.71,13.35-14.48,26.18-22.14,39.03-22.02,36.95-50.24,67.3-89.15,87.45-20.13,10.43-41.19,16.43-63.1,20.35-15.15,2.71-29.42,8.14-43.94,12.87-1.74.57-4.28,1.12-3.7,3.8.47,2.2,2.56,2.83,4.63,3.06,10.71,1.19,21.24-.82,31.72-2.32,12.45-1.77,24.95-3.14,37.38-5.22,19.81-3.32,37.51-11.05,53.93-22.22,1.37-.93,2.4-2.42,3.85-3.17,18.48-9.52,34.16-22.88,49.69-36.4,2.55-2.22,4.87-3.02,8.09-1.42,9.4,4.69,18.83,9.31,27.36,15.53-.53.79-1.46,1.55-1.54,2.38-1.02,11.72-6.97,20.61-15.79,27.88-13.1,10.8-26.51,21.18-40.28,31.11-8.4,6.06-17.3,11.2-26.88,15.19-39.54,16.47-80.45,27.74-123.05,32.81-19.51,2.33-39.05,4.65-58.7,3.82-16.28-.69-32.57-2.05-48.75-3.98-24.8-2.95-49.31-7.81-73.09-15.51-19.38-6.27-37.3-16.06-55.07-25.84-19.88-10.94-38.8-23.42-54.06-40.59-6.14-6.91-12.52-13.77-14.63-23.26,3.41-10.69,12.28-14.9,21.83-18.2,2.54-.88,4.42.65,6.2,2.29,24.14,22.15,54.07,33.3,84.1,44.28,21.54,7.88,43.07,15.82,65.29,21.57,11.86,3.06,23.9,5.4,36.29,5.51,6.19.06,12.25,2.78,18.61.08,2.73-1.16,5.59-2.08,8.24-3.46,1.48-.77,3.12-1.59,3.14-3.51.02-1.99-1.7-2.44-3.22-3.21-8.12-4.11-16.82-6.9-25.72-7.39-19.08-1.07-37.31-6.06-55.61-10.68-18.32-4.62-36.74-8.7-54.37-16.08-15.94-6.67-29.59-16.5-42.82-27-23.83-18.9-44.37-41.08-61.91-65.93-13.08-18.54-23.48-38.59-31.93-59.64-9.83-24.47-15.52-50.04-19.62-75.96-1.5-9.47-1.65-19.16-2.3-28.76-.15-2.26-.49-4.73,1.72-6.43ZM2281.01,2003.54c-10.66-5.3-19.34-4.43-28.62-.23,7.82,6.27,17.3,6.58,28.62.23Z"/><path class="cls-8" d="M2509.81,3195.86c.56,3.27,2.75,4.03,5.76,4.17,6.72.33,13.26-.49,19.71-2.29,26.22-7.31,52.78-13.52,78.2-23.46,28.46-11.13,56.81-22.56,85.25-33.76,20.83-8.21,39.93-19.72,59.25-30.79,8.1-4.64,15.58-10.4,21.91-17.14,6.96-7.41,15.75-12.13,23.54-18.29.98-.78,2.34-1.31,4.9-.15-1.17,13.28-1.58,27.15-3.8,40.71-2.32,14.17-14.18,22.02-23.98,30.89-7.89,7.15-17.32,11.96-26.5,17.31-41.52,24.18-84.89,44.16-130.6,58.87-40.44,13.01-81.2,24.82-123.06,32.69-17.89,3.36-35.52,8.3-53.58,10.72-12.79,1.72-25.66,2.91-38.46,4.7-15.73,2.2-31.52,4.08-47.32,5.71-8.9.92-17.86,1.16-26.79,1.91-13.87,1.18-27.89,1.74-41.72,2.95-25.31,2.22-50.56,1.41-75.81,1.15-22.52-.23-44.95-2.94-67.41-5.1-32.06-3.1-63.51-9.67-95.23-14.72-36.35-5.79-72.2-14.11-107.96-22.75-37.6-9.08-73.92-21.71-108.48-39.23-32.68-16.56-61.59-38.1-86.11-65.36-7.26-8.07-12.22-17.46-11.48-28.83.78-12.03-2.44-23.78-2.17-35.76.07-2.9-.8-5.96,1.06-8.77,3.23-.98,3.74,2.1,5.1,3.6,23.25,25.58,50.64,46,79.98,63.92,29.08,17.76,60.69,30.18,92.13,42.91,8.31,3.37,16.65,6.69,24.87,10.27,19.32,8.4,40.17,11.56,60.1,17.87,17.11,5.42,34.7,8.76,52.4,11.47,12.44,1.9,25.02,2.91,37.49,4.63,19.68,2.71,39.45,4.76,59.15,7.34,18.32,2.41,36.8,4.4,55.54,1.14,10.36-1.8,21.27-.53,31.93-.5,4.2.01,8.12-.07,9.47-5.13,62.48.7,124.98,2.88,187.24-5.15,25.82-3.33,50.73-10.06,75.48-17.75Z"/><path class="cls-9" d="M2509.81,3195.86c-24.74,7.69-49.65,14.42-75.48,17.75-62.26,8.04-124.76,5.85-187.24,5.15-7.99-5.84-17.7-5.49-26.69-6.36-45.39-4.38-90.56-10.37-135.69-16.73-22.1-3.11-43.82-8.2-64.71-16.36-32.3-12.61-65.36-22.73-99.46-29.13-26.83-5.04-51.66-15.1-75.16-28.67-30.67-17.71-59.59-37.89-84.47-63.26-15.49-15.8-24.42-34.75-22.94-57.55.67-10.35,5.83-18.6,12.65-26.76,4.69,26.26,13.99,49.34,37.36,64.08,2.55,1.66,5.09,3.23,7.36-.38,0,0,.31-.41.3-.41,3.92-1.83,6.33,1.51,9.36,2.72l.06.61.53-.15c1.61,1.55,2.38,3.49,2.62,5.67.07,7.35,6.17,9.96,11.03,12.83,17.48,10.3,35.16,20.28,53.76,28.53,41.73,18.52,84.53,34.16,128.37,46.77,29.41,8.45,59.16,15.98,89.65,19.27,35.04,3.78,69.91,8.89,105.14,11.34,26.58,1.84,53.08,3.51,79.71,3.12,5.72-.08,11.21-1.02,16.39-3.54,23.21.65,46.23-2.02,69.3-3.83,3.46,2.71,7.56,1.63,11.39,1.79,9.26.39,18.44-.88,27.59-2.08,19.29-2.53,38.54-5.34,57.29-10.78,2.31.88,4.59.27,6.88-.14,15.07-2.66,30.14-5.33,45.22-7.96,3.16-.55,6.4-2.41,9.48.28-2.09.51-4.09,1.51-3.61,3.92.51,2.55,3.04,2.3,4.92,2.01,12.82-1.98,25.62-4.11,38.43-6.15,32.15-5.12,62.06-17.51,92.44-28.39,27.36-9.79,53.49-22.48,78.62-36.77,17.74-10.09,35.35-21.32,47.69-38.61,3.7-5.18,4.94-10.6,4.55-16.88-.44-7.27-.1-14.58-.1-22.94,8.41,3.54,15.64,7.81,18.93,16.4,4.13,10.76,4.24,21.31-2.45,31.5-4.85,7.39-11.41,12.86-17.92,18.6-37.29,32.89-81.45,53.92-126.57,73.11-20.53,8.73-40.45,18.79-61.29,26.81-25.13,9.68-50.06,19.9-75.07,29.88-2.8.02-5.82-1.04-8.1,1.6l-.09.09Z"/><path class="cls-2" d="M2402.06,2255.84c-28.92,10.69-58.61,16.93-89.54,18.77-30.72,1.82-61.29,2.23-91.64-2.66-29.28-4.72-58.35-10.74-84.32-26.35-3.41-2.05-7.01-3.88-9.46-7.22-2.33-5.93-3.39-12.1-3.07-18.42,1.02-19.99-1.69-39.84-2.52-59.75-.54-12.79-1.59-25.79-4.6-38.43-1.17-4.93.25-6.54,4.86-5.48,15.84,3.65,31.9,6.03,47.94,8.39,14.07,2.07,28.3,3.08,42.35,5.27,14.14,2.21,28.44,2.21,42.62,3.18,19.49,1.33,39.2,2.01,58.77-.65,4.27-.58,8.63-.57,12.95-.61,18.61-.17,37.01-2.35,55.33-5.5,5.54-.95,11.25-.31,16.78-2.06,3.58-1.13,5.66.93,5.59,4.81-.03,1.66.04,3.33.04,5-.04,22.99.97,46.04-.46,68.94-1.1,17.61-1.2,35.18-1.62,52.78Z"/><path class="cls-1" d="M2519.42,3141.69c-3.08-2.69-6.32-.83-9.48-.28-15.08,2.63-30.15,5.3-45.22,7.96-2.29.4-4.57,1.01-6.88.14-.13-2.81-.51-5.53-4.22-5.48-5.99.08-12.09-.41-17.93.59-20.57,3.53-41.03,7.57-61.82,9.83-4.28.47-10.57-.55-12.29,6.13-23.07,1.8-46.1,4.47-69.3,3.83-.68-3.56-1.68-6.58-6.46-5.28-1.54.42-3.36.63-4.86.23-16.83-4.48-34.24-3.61-51.33-4.85-25.45-1.84-50.9-3.32-76.26-6.24-21.7-2.5-43.38-4.97-65.03-7.98-31.62-4.39-62.51-12.09-92.99-21.08-34.38-10.14-68.14-22.32-101.51-35.49-15.76-6.22-31.7-12.2-46.52-20.37-12.59-6.94-25.75-12.21-39.09-17.26-.25-2.18-1.01-4.12-2.62-5.66,0,0-.6-.47-.6-.47-3.03-1.21-5.44-4.56-9.36-2.72.94-4.35-1.29-7.55-3.57-10.94-17.24-25.67-22.14-54.23-19.73-85.72,5.28,3.64,6.96,8.92,9.4,13.15,9.9,17.16,22.67,31.49,37.34,44.87,19.65,17.92,42.13,31.1,64.82,44.29,23.99,13.94,50.1,22.99,75.75,33.04,10.21,4,20.68,7.36,30.7,11.84,18.61,8.31,38.54,12.29,58,17.8,16.58,4.69,33.1,9.46,50.44,11.21,10.87,1.09,21.82,2.09,32.66,2.8,57.86,3.78,115.84,3.02,173.75,1.8,24.76-.52,49.64-2.59,74.43-4.81,17.81-1.59,35.55-4.26,53.49-5.04,13.81-.6,27.66-2.73,41.46-4.61,16.13-2.2,32.06-5.18,47.91-8.73,32.16-7.2,63.62-16.92,94.41-28.48,33.41-12.54,65.17-28.53,93.24-51.03,1.04-.83,2.06-1.7,3.17-2.42,13.98-8.98,27.81-18.17,40.36-29.14,1.42-1.24,2.72-3.3,5.04-2.06,1.74.92,1.41,2.85,1.42,4.46.04,12.33.03,24.66.06,36.99,0,2.41-.41,4.7-2.19,6.44-5.93,5.79-11.1,12.27-18.5,16.6-37.99,22.25-77.64,40.89-118.69,56.82-24.49,9.5-48.89,19.12-74.31,25.83-9.3,2.46-17.52,7.9-27.1,9.5Z"/><path class="cls-6" d="M1993.86,1954.56c2.11,9.49,8.49,16.36,14.63,23.26,15.26,17.17,34.18,29.64,54.06,40.59,17.78,9.78,35.7,19.57,55.07,25.84,23.78,7.7,48.29,12.56,73.09,15.51,16.18,1.93,32.47,3.29,48.75,3.98,19.65.83,39.19-1.5,58.7-3.82,42.59-5.08,83.5-16.34,123.05-32.81,9.58-3.99,18.47-9.13,26.88-15.19,13.77-9.93,27.18-20.32,40.28-31.11,8.81-7.27,14.77-16.16,15.79-27.88.07-.83,1-1.59,1.54-2.38,9.88,5.82,18.02,13.42,24.01,23.27,7.85,12.9,7.82,25.75,0,38.64-6.74,11.1-16.44,19.1-27.15,26.02-19.77,12.77-41.58,20.9-64.02,27.38-42.38,12.22-85.71,18.42-129.74,21.02-44.71,2.64-89.15.82-133.44-5.17-42.65-5.77-84.55-14.81-124.38-31.71-19.07-8.09-37.15-17.96-52.73-31.88-9.4-8.39-16.81-18.06-18.94-30.86-2.15-12.92,3.13-23.32,11.7-32.41.5-.53,1.89-.21,2.86-.29Z"/><path class="cls-10" d="M1917.11,2881.71c7.51,3.68,12.55,10.38,18.89,15.49,12.32,9.94,25.45,18.54,40,24.88-.87,5.22,2.25,7.96,6.27,10.22,25.91,14.58,52.99,26.45,81.87,33.72,25.44,6.41,51.15,11.2,77.5,12.36,24.45,1.07,48.82,5.31,73.35,1.65,11.46-1.71,22.83-4,34.29-5.7,4.02-.6,4.88-2.76,4.65-6.15,3.85,4.47,8.32,5.9,14.43,4.95,7.19-1.11,14.62-.88,21.95-.92,43.89-.25,86.89-7.14,129.34-17.66,26.81-6.65,53.74-13.04,79.67-22.85,3.75-1.42,7.65-2.34,12.05-.88-.46,4.78-4.47,6.11-7.76,8.05-17.94,10.57-37.4,17.49-57.3,23.09-43.67,12.29-88.34,20.05-133.08,26.82-28.92,4.38-58.29,6.13-87.6,7.3-13.65.54-27.31,1.23-40.96,1.2-45.24-.1-89.43-7.33-133.22-18.54-27.38-7.01-53.1-17.59-77.66-31.12-22.65-12.48-42.39-28.86-59.23-48.53-3.74-4.36-8.84-8.42-7.79-15.37,3.77,1.02,7.04-.57,10.33-2.02Z"/><path class="cls-13" d="M1962.81,1993.91c2.59,1.03,2.61,3.54,3.41,5.6,4.81,12.34,12.92,22.26,22.71,30.97,27.89,24.8,62.13,36.63,96.85,47.42,26.04,8.1,52.75,13.25,79.65,17.29,15.72,2.36,31.68,3.08,47.5,4.88,27.88,3.16,55.85,1.49,83.78,1.97,25.64.45,50.98-2.5,76.39-5.57,19.82-2.39,39.33-5.88,58.67-10.55,26.68-6.45,52.23-16.07,75.78-30.12,18.12-10.81,34.19-24.24,41.75-45.7,3.78,6.98,3.98,17.07.63,24.12-5.11,10.77-12.98,19.19-22.52,26.2-25.45,18.71-55.04,27.52-84.94,35.63-22.76,6.17-45.91,10.43-69.24,13.52-10.81,1.43-21.85,1.86-32.71,2.9-34.6,3.3-69.22,1.62-103.81,1.37-25.17-.18-50.22-3.32-75.17-7.23-21.32-3.34-42.47-7.34-63.37-12.58-29.76-7.46-58.48-17.92-85.83-31.89-13.41-6.85-25.53-15.71-35.84-26.67-11.25-11.96-17.35-26.33-13.69-41.56Z"/><path class="cls-10" d="M1795.34,3037.65c-2.28,3.6-4.82,2.04-7.36.38,2.45-.13,4.91-.25,7.36-.38Z"/><path class="cls-10" d="M2509.9,3195.77c2.28-2.64,5.3-1.58,8.1-1.6-2.29,2.59-5.24,1.9-8.1,1.6Z"/><path class="cls-11" d="M2253.94,2968.2c.22,3.39-.63,5.55-4.65,6.15-11.46,1.7-22.83,3.99-34.29,5.7-24.53,3.66-48.9-.58-73.35-1.65-26.35-1.15-52.07-5.95-77.5-12.36-28.88-7.27-55.95-19.14-81.87-33.72-4.02-2.26-7.14-5-6.27-10.22,9.68-.74,18.23,3.56,26.87,6.68,18.76,6.78,37.26,14.25,56.55,19.51,28.31,7.73,57.11,12.58,86.33,15.06,16.88,1.43,33.87,1.36,50.58,4.9,9.1,1.93,18.48,2.2,27.82,1.8,7.33.16,14.75,1.54,21.86-1.54.76-.12,1.53-.23,2.29-.35,1.81,0,3.63-.02,5.44-.02l.19.07Z"/><path class="cls-10" d="M2246.01,2968.5c-7.1,3.09-14.52,1.7-21.86,1.54,7.17-2.18,14.52-1.78,21.86-1.54Z"/><path class="cls-10" d="M2253.74,2968.13c-1.81,0-3.63.01-5.44.02,1.81-1.58,3.62-1.87,5.44-.02Z"/><path class="cls-3" d="M2264.86,2602.86c-9.31-.42-18.63-.78-27.93-1.3-2.98-.17-5.98-.6-8.89-1.24-3.11-.69-5.83-2.3-5.33-6.02.42-3.17,3.16-4.03,5.94-4.33,12.57-1.34,25.13-3.37,37.74-3.8,29.33-1.01,58.38-4.44,87.37-8.67,4.66-.68,9.32-1.19,13.84.39,4.32,1.5,5.23,4.97,2.51,8.65-3.22,4.36-8.14,5.79-13.03,6.7-15.7,2.92-31.38,6.18-47.32,7.54-14.93,1.28-29.86,2.63-44.89,2.1Z"/><path class="cls-4" d="M2281.01,2003.54c-11.31,6.35-20.79,6.04-28.62-.23,9.28-4.2,17.95-5.07,28.62.23Z"/><path class="cls-3" d="M1808.22,3046.09c13.34,5.05,26.5,10.33,39.09,17.26,14.82,8.17,30.77,14.15,46.52,20.37,33.37,13.17,67.13,25.35,101.51,35.49,30.48,8.99,61.36,16.69,92.99,21.08,21.64,3,43.33,5.48,65.03,7.98,25.37,2.92,50.82,4.4,76.26,6.24,17.09,1.24,34.5.37,51.33,4.85,1.5.4,3.32.19,4.86-.23,4.78-1.31,5.78,1.72,6.46,5.28-5.17,2.53-10.67,3.46-16.39,3.54-26.63.39-53.14-1.27-79.71-3.12-35.23-2.44-70.1-7.55-105.14-11.34-30.49-3.29-60.25-10.82-89.65-19.27-43.84-12.6-86.64-28.24-128.37-46.77-18.6-8.25-36.27-18.23-53.76-28.53-4.86-2.87-10.96-5.48-11.03-12.83Z"/><path class="cls-3" d="M2361.57,3160.57c1.73-6.68,8.02-5.66,12.29-6.13,20.79-2.26,41.25-6.3,61.82-9.83,5.84-1,11.95-.51,17.93-.59,3.71-.05,4.08,2.67,4.22,5.48-18.75,5.44-38,8.25-57.29,10.78-9.15,1.2-18.33,2.46-27.59,2.08-3.83-.16-7.93.92-11.39-1.79Z"/><path class="cls-10" d="M1805,3039.96s.6.47.6.47c0,0-.53.14-.53.14l-.06-.61Z"/></svg>