<?xml version="1.0" encoding="UTF-8"?><svg id="Capa_1" xmlns="http://www.w3.org/2000/svg" width="191.21mm" height="191.21mm" viewBox="0 0 542 542"><defs><style>.cls-1{fill:#cdb97d;}.cls-1,.cls-2,.cls-3,.cls-4,.cls-5,.cls-6,.cls-7,.cls-8,.cls-9,.cls-10,.cls-11,.cls-12,.cls-13,.cls-14,.cls-15{stroke-width:0px;}.cls-2{fill:#1e1d1b;}.cls-3{fill:#383529;}.cls-4{fill:#e4ce8b;}.cls-5{fill:#f6de95;}.cls-6{fill:#24221c;}.cls-7{fill:#f7df96;}.cls-8{fill:#534e3d;}.cls-9{fill:#524d3c;}.cls-10{fill:#56503e;}.cls-11{fill:#f4dc94;}.cls-12{fill:#f2db93;}.cls-13{fill:#4d4939;}.cls-14{fill:#f5dd94;}.cls-15{fill:#f3db93;}</style></defs><path class="cls-2" d="M421.2,141.22c15.71,15.17,31.1,30.36,46.93,45.09,4.28,3.98,4.45,7.63,2.42,12.33-2.25,5.21-6.07,8.12-11.07,7.52-8.09-.97-16.19-2.05-24.18-3.63-8.18-1.62-16.46-2.18-24.7-3.16-1.29-.15-1.66.35-2.36,1.12-10.04,11.1-20.05,22.24-30.27,33.18-2.87,3.07-3.03,7.16-5.05,10.56-3.35,5.62-7.68,9.94-13.15,13.36-3.86,2.41-7.7,3.2-11.6.4-1.78-1.28-2.77-.81-4.1.66-5.9,6.55-11.7,13.2-18.25,19.13-1.1,1-2.49,1.95-.54,3.49,8.29,6.55,14.2,15.41,21.81,22.65,7.19,6.84,15.08,12.92,23.71,17.37,21.6,11.16,38.84,27.41,55.98,44.16,17.16,16.76,34.61,33.23,51.36,50.4,5.22,5.35,10.1,11.03,13.17,18.05,2.18,4.99,2.06,9.7-.76,14.31-1.76,2.88-2.59,5.81-2.72,9.32-.49,13.56-13.93,25.78-27.4,25.11-1.89-.09-3.28.38-4.59,1.32-5.33,3.8-10.62,2.87-15.9.03-11.31-6.09-20.27-15.14-29.32-23.93-22.95-22.28-45.48-45.01-68.45-67.27-3.8-3.68-4.18-8.43-6.41-12.54-8.21-15.16-20.14-27.21-32.84-38.54-5.35-4.77-10.86-9.36-15.66-14.69-1.59-1.77-2.58-2.17-4.2-.19-1.04,1.27-2.47,2.22-3.7,3.35-4.65,4.28-9.73,5.96-15.96,3.47-4.16-1.67-8.62-2.4-13.05-3.21-4.38-.8-7.96.49-11,3.24-7.41,6.71-14.67,13.58-21.9,20.48-2.03,1.93-3.84,3.96-3.01,7.37.53,2.2-1.3,4.07-2.66,5.71-16.61,19.99-31.4,41.37-47.33,61.88-11.88,15.3-27.3,26.15-44.32,34.99-7.08,3.68-13.9,7.82-21.92,9.39-1.62.32-2.91,2.15-4.42,3.18-6.36,4.34-13.13,4.14-19.46-.25-4.68-3.25-8.96-6.7-12.1-11.66-2.85-4.51-3.85-9.51-1.82-13.81,3.43-7.25,4.36-15.02,6.7-22.46,1.44-4.57,3.55-8.95,6.39-12.93,17.13-23.97,36.27-46,60.32-63.42,11.05-8,19.01-19.08,28.12-29,2.31-2.51,4.55-4.8,8.11-5.34,2.03-.31,3.63-1.53,4.95-3.04,5.05-5.76,10.02-11.59,15.08-17.34,1.58-1.79,2.8-3.8,3.38-6.05,1.87-7.19,5.85-12.89,11.41-17.73,4.64-4.04,8.99-8.42,13.46-12.67,3.64-3.46,7.25-3.56,10.99-.1,1.01.94,1.9,2.95,3.88.67,1.68-1.94,2.39-3.42.21-5.35-3.81-3.38-5.46-8.94-11.71-9.96-2.73-.45-2.62-4.5-1.36-6.5,2.48-3.93.18-6.07-2.15-8.37-20.94-20.76-41.8-41.58-62.89-62.19-12.62-12.33-25.58-24.33-38.44-36.42-1.93-1.82-3.94-3.81-6.29-4.87-8.42-3.77-13.82-10.82-19.53-17.5-3.67-4.29-6.8-9.05-10.21-13.56-2.4-3.17-3.69-6.33-.7-9.91,4.63-5.53,9.22-7.51,13.72-4.94,8.12,4.63,14.93,11.1,22.33,16.73,8.93,6.79,14.36,16.51,21.65,24.65,10.88,12.15,22.58,23.57,33.94,35.29,19.97,20.58,41.18,39.84,62.58,58.91,2.06,1.84,3.56,2.81,6.31.86,2.66-1.88,4.83-1.39,6.46,2.37,2.37,5.45,7.82,8.27,12.47,11.61,1.21.87,1.99-.78,2.77-1.5,8.15-7.63,16.11-15.45,23.62-23.72,1.46-1.61,1.88-2.83,1.05-5.17-1.85-5.19-.34-10.23,2.95-14.43,3.17-4.05,7.01-7.57,10.29-11.55,2.38-2.89,4.83-3.54,7.51-.9,2.96,2.92,5.11,1.7,7.4-.78,5.64-6.12,11.08-12.41,17.17-18.12,4.39-4.11,9.16-7.73,13.67-11.67,1.25-1.09,2.3-1.6.84-3.83-2.54-3.87-.88-13.29,2.28-16.64,7.17-7.59,13.9-15.62,22.52-21.75,3.01-2.14,4.7-.45,6.32,1.41,3,3.43,5,3.02,8.2-.3,5.16-5.36,8.03-12.25,13.04-17.62,1.37-1.47.67-2.4-.39-3.79-2.92-3.8-4.08-7.94-1.27-12.45.78-1.26,1.46-2.67,1.79-4.1,3.09-13.27,12.62-21.46,22.82-29.14,5.55-4.18,8.03-3.94,14-.36,7.7,4.61,13.71,10.98,19.8,17.35,8.86,9.27,17.76,18.51,26.55,27.85,4.89,5.2,7.43,11.28,8.83,18.5,1.51,7.81,3.51,15.65,6,23.35,3.06,9.45,7.39,18.49,9.36,28.29.94,4.68.35,9.38-1.2,13.78-2.26,6.4-7.83,7.57-13.32,2.62-16.43-14.83-34.48-27.74-50.62-42.9-2.09-1.96-3.09-2.57-5.31.06-4.82,5.72-10.15,11.01-15.13,16.31ZM433.99,121.99c.12-.04.27-.06.37-.13.06-.04.06-.17.09-.27-.15.14-.29.28-.44.42-.33.33-.67.67-1,1-.27.36-.54.73-.8,1.09.14.08.27.17.41.25.13-.45.26-.9.38-1.36.33-.33.67-.67,1-1ZM436.91,109.1c.18.12.36.24.54.36-.12-.18-.24-.36-.36-.54-.34-.33-.67-.66-1.01-1-.34-.33-.67-.66-1.01-.99-.34-.33-.68-.65-1.02-.98-.34-.33-.67-.66-1.01-1-.34-.33-.67-.66-1.01-1-.33-.33-.67-.66-1-1-.16-.13-.32-.26-.48-.4.14.16.28.31.41.47.33.34.66.67,1,1,.33.34.66.67,1,1.01.33.34.66.67.99,1.01.32.34.65.69.97,1.03.33.34.66.68.99,1.01.33.34.66.67,1,1.01ZM424,97c.05.12.07.26.14.36.05.06.18.06.27.08-.14-.15-.28-.3-.41-.44-.33-.34-.66-.67-.99-1.01l-1-1c-.33-.34-.66-.67-.99-1.01-.34-.33-.68-.66-1.02-.99-.04-.13-.07-.27-.14-.37-.05-.06-.18-.06-.27-.09.14.16.27.31.41.47.33.34.66.68.98,1.02.34.33.67.66,1.01.99.33.33.67.66,1,1,.34.33.67.66,1.01.99ZM413.99,85.01c.05.13.07.27.16.37.05.06.18.06.28.08-.14-.16-.28-.31-.42-.47-.34-.33-.67-.66-1.01-.99-.05-.13-.07-.27-.15-.37-.05-.06-.18-.06-.27-.09.14.15.28.31.42.46.33.34.66.67.99,1.01ZM417.98,90.03c.15.15.29.3.44.44-.13-.16-.26-.33-.39-.49-.32-.35-.63-.69-.95-1.04-.16-.75-.25-1.57-1.32-1.52-.11,0-.3.2-.31.32-.07,1.05.7,1.21,1.49,1.33.35.32.7.63,1.04.95ZM421.99,134.99l-1,1.01c-.82.43-1.03,1.16-.99,2.01-.12.04-.27.06-.37.13-.06.04-.06.18-.09.27.15-.14.3-.27.44-.41.83-.42,1.04-1.14,1.01-1.99.34-.33.67-.66,1.01-1,.33-.33.67-.66,1-.99.34-.32.68-.65,1.02-.97.33-.33.67-.67,1-1,.34-.33.67-.66,1.01-.99.34-.33.68-.67,1.01-1,.13-.18.26-.36.39-.54-.17.14-.35.28-.52.42-.33.34-.66.68-.99,1.03-.33.34-.66.67-.98,1.01-.33.33-.66.67-.99,1.01-.32.34-.65.68-.97,1.02-.33.33-.66.67-.99,1ZM397.99,182.01c.14.14.28.28.42.42-.13-.15-.26-.29-.4-.44-.36-.26-.73-.51-1.09-.77-.09.13-.17.26-.26.39.44.13.88.27,1.33.4ZM390.06,174.93c-.17-.13-.33-.26-.5-.38.12.17.25.34.38.51.51.84.98,1.74,2.17,1.66.11,0,.32-.28.29-.37-.37-1.12-1.32-1.33-2.34-1.42ZM272.64,283.1v.16c-.83.49-1.67.97-2.51,1.46-2.61.93.35,4.07-2.03,5.1-.14-.56-.19-1.47-.94-1.17-.6.24-.97,1.09-1.44,1.66.73.42,1.46.83,2.19,1.25l-.16.38c1.38,3.9,5.84,5.03,7.69,8.58.71,1.37,2.3.73,3.56.43.94,4.11,4.37,6.33,6.99,9.16,3.48.17,3.58,6.31,8.19,4.63-.52-1.09-2.85-1.12-1.81-2.94.58-1.01,1.48-.4,2.1.13,2.84,2.44,5.32,3.86,5.68-1.75.02-.24.54-.69.6-.66,3.73,2.2,3.29-3.38,6.17-3.32,1.11.02,1.57-2.12.41-3.29-1.58-1.6-2.67-3.95-5.43-3.94-.52-4.18-4.54-5.36-6.87-7.99-4.07-4.58-7.64-9.63-12.4-13.56-1.14-.94-2.4-3.47-3.86-1.81-1.1,1.27-4.48,2.54-1.97,5.7,1.11,1.39-.43,1.87-1.77,1.73l-.35-.19c-.42-.51-.52-1.54-1.43-1.26-.32.1-.4.97-.59,1.49ZM236.02,227c-3.66.57-4.88,3.61-6.78,5.98,1.81.81,1.97-2.58,3.87-.84-1.29,3.06-5.23,4.79-4.49,8.88-2.52.46-2.56-1.69-3.5-4.36-.52,3.22-2.81,5.63.09,7.14,3.66,1.91,6.04,5.03,8.86,7.72,4.62,4.42,4.54,4.51,8.97-.42,4.12-4.5,8.18-9.07,12.41-13.46,1.5-1.55,1.48-2.39-.11-3.89-3.94-3.72-8.34-7-11.19-11.78-1.27-2.12-2.44.4-3.7.33.52.31,1.03.61,1.55.92,0,.33,0,.65.02.98-.21.71-.6,1.15-1.42.94-.67-.41-1.33-.81-2-1.22-.04.12-.13.26-.1.35.36,1.01,1.26.86,2.05.94-.56,1.72-1.91,2.46-3.54,2.85-.33-.35-.66-.7-.98-1.05ZM405.11,187.86c-.4-.23-.79-.46-1.19-.66-.04-.02-.2.22-.3.34.41.21.82.42,1.23.64,1.45,3.23,1.92,7.64,6.55,7.76,15.63.41,30.68,4.58,46.03,6.74,1.45.2,3.18.86,3.45-1.45.26-2.28-1.6-1.85-2.99-2.27-6.99-2.09-14.29-2.5-21.39-3.98-10.51-2.19-20.68-5.81-31.37-7.12ZM65.96,448.86c-2.86,3.31-3.85,7.48-1.92,11.05,3.81,7.01,9.35,12.63,16.82,16,4.45,1.72,7.9-.92,11.58-2.62,2.43-1.12,2.33-2.28.47-3.95-7.98-7.22-15.92-14.48-23.83-21.77-2.15-1.98-2.75-.72-3.14,1.3ZM130,140.01c-.04-.13-.06-.27-.14-.37-.05-.06-.18-.06-.28-.08.14.15.28.3.43.45,1.2,1.37,2.31,2.83,3.61,4.09,11.28,10.83,23.16,21.01,34.21,32.11,11.27,11.33,22.38,22.82,34.18,33.64,6.71,6.15,12.18,13.65,19.49,19.25,1.34,1.03,2.36,3.24,4.47,1.1,2.35-.84,3.18-3.38,5.09-4.63,3.64-2.4,2.63-3.97-.19-6.48-30.69-27.41-60.97-55.25-88.52-85.9-1.06-1.18-1.86-2.96-4.18-1.83.83,1.41,1.64,2.78,2.44,4.16.42.73.93,1.6.1,2.23-1.12.84-1.83-.16-2.38-.95-2.58-3.66-5.67-7.1-6.57-11.64-.84-4.22-2.97-7.68-5.31-11.17-3.32-4.95-8.02-8.45-12.45-12.19-6.86-5.8-14.01-11.25-21.05-16.84-3.52-2.8-6.01-.39-8.07,1.99-1.77,2.05-4.98,4.08-1.94,7.58,11,12.66,21.07,26.18,36.45,34.36,5.11,2.72,10.82,5.39,13.76,11.12-1.05.01-2.1.02-3.15.03ZM189.93,334.94c1,.69,2.01,1.37,3.01,2.06,2.57,3.31,5.45,6.3,8.96,8.63,1.94,3.59,5.39,5.81,8,8.8,1.12,1.29,1.87,1.26,3.09-.2,6.82-8.19,14.83-15.24,22.25-22.86,4.69-4.82,10.28-6.43,16.82-4.77,4.11,1.04,8.24,2.02,12.37,3.02l.28-1.25c-10.1-4.59-19.95-10.13-31.91-7.56-1.49.32-3.5.93-3.77-1.75,4.44-2.81,9.23-3.17,14.32-2.45,5.82.82,11.15,3,16.43,5.38,1.68.76,3.26,1.64,5.18,1.18,5.95,7.89,10.97,8.06,16.66.46,1.38-1.84,2.39-3.95,3.56-5.95.64-1.09.9-2.23-.2-3.14-2.62-2.18-4.22-5.6-7.85-6.57-1.16-1.34-1.73-2.99-3.22-4.25-15.3-12.94-30.91-25.53-45.33-39.47-2.22-2.15-4.65-2.96-6.99-.64-6.71,6.63-14.06,12.63-19.89,20.12-1.42.86-1.86,2.35-2.16,3.78-1.6,7.67-5.97,13.52-11.72,18.6-3.73,3.3-7.31,6.79-10.75,10.39-1.32,1.39-3.16,3.06-.72,5.33,4.6,4.29,9.06,8.73,13.58,13.11ZM401.01,91.92c-1.92-.14-2.5,1.52-3.29,2.67-3.03,4.41-6.43,8.52-10.46,12-2.53,2.18-2.14,3.63.19,5.37,9.33,6.98,16.48,16.46,26.33,22.87,1.34.87,2.09,1.85,3.64.21,4.45-4.7,9.42-8.89,13.42-14.02,1.87-.9,2.89-2.68,4.32-4.04,1.78-1.69,1.62-2.93-.14-4.43-9.19-7.86-17.74-16.37-25.55-25.61-.32-.38-.71-.7-1.08-1.03-.85-.76-1.83-1-2.63-.08-1.69,1.94-4.46,3.06-4.76,6.09ZM368.99,226.91c2.39,5.82,4.03,6.14,7.96,1.57,1.84-2.14,3.6-4.36,5.57-6.37,6.65-6.77,13.41-13.44,20.08-20.19,1.23-1.24,3.35-2.56,2.03-4.57-2.35-3.58-3.17-8.11-6.73-10.9-7.63-5.97-13.99-13.27-20.92-19.98-1.07-1.03-1.71-2.91-4-2.59.36,3.09-.55,5.96-1.04,8.89-2.65,4.04-3.41,9.56-8.92,11.35-.15-3.45,2.67-5.54,3.83-8.39,2.38-5.82,5.24-12.28,1.94-17.89-3.35-5.7-8.91-10.1-13.53-15.04-.75-.8-1.87-2.13-2.71-.49-1.21,2.36-4.15,3.4-4.54,6.29-1.36-.37-2.13.54-3.01,1.32-10.12,8.93-19.62,18.46-28.58,28.56-1.96,2.21-.82,3.08.65,4.25,5.48,4.33,11,8.63,16.51,12.92.9.7,1.77,1.16,3.13,1.05,7.22-.61,14.26-1.5,19.16-7.77,1.76-.33,3.52-.65,5.27-.98-3.95,9.33-12.62,10.86-21.8,12.41,9.47,9.1,18.41,17.68,27.34,26.28.72.7,1.5.5,2.31.29ZM364.98,230c-1.52-1.73-2.93-3.57-4.58-5.17-16.77-16.37-35.89-30.11-52.48-46.68-1.85-1.85-3.38-1.57-5.02.26-3.11,3.46-6.22,6.92-9.47,10.24-4.39,4.49-4.52,6.45,0,10.64,17.46,16.14,36.09,30.96,53.27,47.41.33.31.89.37,1.35.55,8.01,9.68,8.62,9.72,17.27,1.03.23-.23.47-.47.7-.7,7.89-8.06,7.74-10.63-1.04-17.58ZM309.01,223.88c-4.11,1.95-6.09,7.51-11.86,7.12,2.04-2.83,3.92-5.43,5.81-8.03,5.27-2.32,6.1-5.95,2.04-9.42-2.76-2.36-6-4.23-8.48-6.84-3.21-3.38-5.08-3-6.51,1.26-.56.31-1.24.51-1.66.95-17.31,18.01-34.57,36.07-51.93,54.04-2.05,2.12-1.95,3.07.59,4.67,2.64,1.66,4.91,3.98,7.16,6.19,8.25,8.13,9.83,7.87,14.9-2.92.77-1.65,1.36-3.41,1.81-5.17.45-1.76.75-3.37,3.2-2.47,2.01.74,2.23,2.02,1.65,3.94-1.29,4.31-4.34,7.46-7,10.83-4.07,5.16-4,4.94.67,9.18,2.09,1.9,2.94,1.64,4.4-.51,3.29-4.84,7.62-8.8,11.8-12.86,1.19-1.15,2.85-2.91,4.27-1.67,4.54,3.98,6.59-.13,8.59-2.63,8.11-10.15,16.18-20.28,26.06-28.86,2.03-1.76,4.35-3.69,4.93-6.69,4.49-2.87,4.61-3.93.82-7.09-2.03-1.69-4.01-3.45-6.05-5.13-1.11-.91-1.98-2.9-3.53-2.26-1.58.66-1.7,2.67-1.68,4.37ZM204.01,368.95c.88-.74,1.84-1.4,2.62-2.23,5.05-5.35,4.64-5.01-.09-10.42-9.88-11.3-22.35-19.88-32.09-31.3-4.43-5.2-4.56-4.98-9.34-.03-10.62,10.99-19.85,23.33-31.82,33.01-13.74,11.11-26.71,23-37.81,36.82-8.93,11.13-18.64,21.69-24.53,34.99-.93,2.1-1.05,3.62.04,5.49,2.93,4.99,7.11,8.68,11.99,11.65,6.57,5.83,13.15,11.64,19.69,17.52,3.11,2.8,5.81,3.18,8.92-.27,1.47-1.63,3.97-2.34,5.99-3.48,11.88-6.68,23.53-13.55,33.08-23.65,6.76-7.16,12.4-15.13,18.6-22.69,12.09-14.76,23.1-30.33,34.75-45.41ZM467.03,467.07c10.53-6.43,16.91-16.06,20.96-27.43.97-2.73,0-5.06-1.79-7.35-3.81-4.85-7.7-9.63-12.1-13.95-14.73-14.46-29.07-29.36-44.41-43.15-15.12-13.59-27.21-30.62-45.79-40.44-3.7-1.96-6.96-5.39-10.68-7.65-13-7.87-25.46-16.36-35.93-27.51-1.56-1.66-2.83-3.75-5.16-4.58-2.39-4.06-5.82-7.21-9.09-10.52-1.24-1.25-2.61-1.91-3.71-.18-2.65,4.17-7.2,6.31-10.31,10-1.45,1.72-2.17,2.78-.59,5.03,4.24,6.02,4.07,6.12-1.13,11.85-2.34,2.58-4.57,5.26-6.92,7.82-2.53,2.76-5.34,3.94-8.68,1.18-.92-.76-1.94-1.53-3.01-.27-1.08,1.25-.73,2.48.34,3.54,1.18,1.17,2.4,2.3,3.65,3.39,6.38,5.55,13.11,10.74,19.09,16.7,9.15,9.11,18.57,18.09,24.45,29.93,1.8,3.63,3.93,4.73,7.65,1.5,3.57-3.09,7.31-6.23,11.92-7.89.12.97.23,1.94.35,2.91-5.11,1.87-7.59,7.39-12.68,9.23-4.31,1.56-3.34,4.25-1.63,6.98.86,1.38,2.22,2.47,3.4,3.63,21.11,20.75,42.21,41.52,63.36,62.22,6.29,6.16,12.6,12.32,19.2,18.13,4.95,4.37,9.85,9.01,16.26,11.31,1.97.71,4.19,2.46,6.15,1.19,6.5-4.19,13.07-8.42,16.82-15.61ZM457.98,195.64c5.55.42,8.7-1.79,10.12-4.83.89-1.9-2.82-3.04-4.42-4.56-1.44-1.38-3.08-2.55-4.54-3.91-22.14-20.61-44.23-41.28-66.41-61.84-5.35-4.96-11.02-9.57-16.47-14.42-1.29-1.14-2.13-1.62-3.74-.26-7.9,6.67-14.59,14.54-21.78,21.91-1.64,1.68-1,2.68.49,4,17.67,15.47,33.9,32.42,50.62,48.87,1.95,1.92,4.12,3.43,6.72,4.13,7.68,2.08,15.35,4.28,23.12,5.96,9.22,2,18.55,3.51,26.28,4.94ZM491.18,111.7c-3.51-10.04-4.67-21.21-13.07-29.44-11.88-11.66-23.25-23.81-34.52-36.07-3.17-3.44-7.79-5.57-11.8-8.21-2.37-1.56-4.48-.49-6.35,1.1-3.92,3.34-7.72,6.84-11.7,10.1-7.99,6.53-8.95,17.41-2.35,25.68,12.83,16.08,26.9,30.93,42.27,44.66,13.63,12.18,26.24,25.49,40.41,37.11,1.91,1.56,3.84,3.01,6.25,2.21,2.52-.84,2.71-3.66,2.32-5.54-1.98-9.55-3.29-19.58-9.43-27.46-2.47-3.17-1.28-7.44-4.61-9.9-.71-.53.3-.94.94-.97,2.25-.13,1.16-1.93,1.64-3.25ZM441.43,113.19c-.98,3.7.09,5.88,2.31,8.15,12,12.3,26.13,22.1,38.93,33.45,3.97,3.52,8.35,6.58,12.61,9.76.82.61,1.97,1.81,3.01.4,1.15-1.54-.59-1.88-1.37-2.57-.5-.44-1.03-.85-1.58-1.23-11.19-7.6-20.57-17.35-30.59-26.29-7.76-6.93-14.8-14.68-23.33-21.67ZM327.69,233.4c-2-.2-2.8,1.06-3.52,2.06-2.75,3.81-6.21,6.82-9.79,9.83-10.35,8.7-18.43,19.51-27.03,29.83-.52.63-1.24,1.24-.47,2.1.89.98,1.77.59,2.56-.18.72-.69,1.38-1.44,2.11-2.12,5.87-5.42,10.35-12.2,16.11-17.58,6.47-6.04,12.13-12.67,17.85-19.32,1.07-1.24,2.22-2.46,2.17-4.63ZM306.48,291.82c2.23-1.61,2.46-3.63,2.15-5.92-.65-4.71-2.09-9.09-5.4-12.62-1-1.07-1.71-4.19-3.88-1.64-1.5,1.77-5.57,2.83-2.64,6.65,3.32,4.33,6.41,8.84,9.78,13.52ZM307.68,263.07c-5.03,4.78-4.97,4.74-1.16,9.74,2,2.62,3.7,5.46,5.63,8.13.72,1,.84,3.14,2.37,2.73,1.86-.5,1.74-2.6,1.56-4.22-.72-6.52-4.04-11.69-8.4-16.38ZM326.79,270.17c.39-6.84.2-13.48-4.51-18.93-.78-.9-1.54-3.51-3.13-1.18-1.23,1.8-5.44,2.89-2.67,6.14,3.75,4.4,7.37,8.86,10.31,13.98ZM334.05,264.16c.89-7.4-1.22-13.98-5.93-19.8-.85-1.05-1.67-2.42-2.96-.62-.92,1.27-3.44,2.12-1.37,4.41,4.28,4.74,6.78,10.55,10.27,16.02ZM340.55,256.51c2.13-.93,3.2-2.75,2.19-4.77-2.42-4.86-4.36-10.15-9.39-13.16-1.01-.61-1.88-2.29-3.3-.56-1.15,1.39-.99,2.6.28,3.93,3.49,3.62,5.98,7.94,8.31,12.36.45.86.71,1.91,1.91,2.22ZM321.62,276.35c1.02-6.72-2.56-11.79-6.26-16.75-.74-1-1.16-3.66-3.51-1.47-1.61,1.51-2.59,2.73-.63,4.84,3.82,4.09,7.21,8.53,10.39,13.38ZM75.63,447.44c3.48,7.1,21.26,22.2,25.71,21.54-9.64-6.48-16.06-15.83-25.71-21.54ZM411.6,81.35c-5.27-3.88-7.42-9.28-7.79-16.38-5.67,11.27-3.92,14.8,7.79,16.38ZM481.58,461.83c-4.73,4.17-8.53,9.17-13.04,13.54,6.96-1.99,11.28-6.54,13.04-13.54ZM299.14,290.74c.3-5-1.49-8.07-3.84-10.91-.97-1.17-1.96-1.55-3.29-.27-1.21,1.17-1.37,2.08-.18,3.32,2.25,2.35,4.44,4.76,7.3,7.85ZM348.74,133.68c.69,3.02-.65,5.2,1.44,6.58.97.64,1.84-.56,2.27-1.35,1.5-2.82-1.24-3.09-3.7-5.22ZM464.05,201.06c2.67-.89,3.89-1.97,3.76-4.96-1.73,1.48-3.35,2.14-3.76,4.96ZM437.34,119.07c-.08-.27-.15-.52-.22-.77-.27.12-.65.17-.76.38-.1.19.11.53.18.81.26-.14.53-.27.79-.41ZM68.45,441.4c.12-.07.31-.11.35-.2.05-.12-.04-.29-.06-.44-.18.09-.36.19-.54.28.08.12.17.24.25.36ZM295.33,316.67c-.05.13-.17.29-.14.4.13.46.36.48.57.05.05-.1-.01-.3-.09-.4-.05-.06-.22-.03-.34-.04ZM266.95,330.19c-.12.08-.29.13-.33.23-.03.07.12.22.19.33.18-.13.35-.26.53-.39-.13-.06-.26-.12-.38-.17Z"/><path class="cls-5" d="M356.14,369.98c-.12-.97-.23-1.94-.35-2.91.28-3.67-2.78-4.52-5.09-6,5.95-7.71,15-12.76,19.72-22.16-3.28-.49-4.52,1.46-5.96,2.9-5.18,5.17-10.26,10.43-15.46,15.57-1.08,1.07-1.81,3-3.96,2.39-8.29-10.65-19.11-18.8-28.2-28.68-5.19-5.65-4.88-5.04-1.51-11.97,4.38-8.99,8.49-17.95,16.8-24.11,2.33.83,3.6,2.92,5.16,4.58,10.47,11.15,22.94,19.64,35.93,27.51,3.72,2.26,6.98,5.69,10.68,7.65,18.58,9.83,30.66,26.85,45.79,40.44,15.34,13.79,29.68,28.69,44.41,43.15,4.4,4.32,8.28,9.1,12.1,13.95,1.8,2.29,2.76,4.62,1.79,7.35-4.05,11.37-10.43,20.99-20.96,27.43-8.79-.69-16.14-4.49-22.97-9.92-12.85-10.21-23.79-22.34-35-34.19-17.16-18.14-34.41-36.18-52.91-52.97ZM358.84,362.45c2.44.99,3.4-.11,4.41-.91,7.22-5.71,12.95-12.88,19.17-19.58.55-.6.96-1.37,1.29-2.12.41-.94.58-2.02-.51-2.61-.83-.45-1.62.05-2.2.69-7.34,8.11-14.67,16.24-22.15,24.53Z"/><path class="cls-7" d="M82.99,446.94c-4.88-2.98-9.06-6.66-11.99-11.65-1.1-1.87-.97-3.39-.04-5.49,5.89-13.3,15.6-23.86,24.53-34.99,11.09-13.82,24.06-25.71,37.81-36.82,11.97-9.68,21.2-22.02,31.82-33.01,4.78-4.94,4.91-5.16,9.34.03,9.73,11.42,22.21,20,32.09,31.3,4.72,5.4,5.14,5.06.09,10.42-.78.83-1.75,1.49-2.62,2.23-2.92-2.01-5.08-.08-7.03,1.61-3.77,3.26-7.06,6.99-10.33,10.77-7.61,8.77-13.47,18.89-21.89,27.07-19.33,18.79-39.51,35.29-69,32.81-4.79-.4-9.36,1.94-12.78,5.74Z"/><path class="cls-14" d="M457.98,195.64c-7.73-1.43-17.06-2.94-26.28-4.94-7.77-1.68-15.44-3.88-23.12-5.96-2.6-.7-4.77-2.21-6.72-4.13-16.72-16.45-32.95-33.41-50.62-48.87-1.5-1.31-2.13-2.32-.49-4,7.19-7.37,13.88-15.23,21.78-21.91,1.61-1.36,2.45-.89,3.74.26,5.46,4.85,11.12,9.46,16.47,14.42,22.18,20.57,44.27,41.23,66.41,61.84,1.46,1.36,3.09,2.54,4.54,3.91,1.6,1.52,5.31,2.66,4.42,4.56-1.42,3.03-4.58,5.25-10.12,4.83Z"/><path class="cls-15" d="M491.18,111.7c-.49,1.33.6,3.12-1.64,3.25-.64.04-1.65.45-.94.97,3.33,2.46,2.14,6.73,4.61,9.9,6.13,7.88,7.44,17.91,9.43,27.46.39,1.89.2,4.7-2.32,5.54-2.4.8-4.34-.64-6.25-2.21-14.17-11.62-26.78-24.93-40.41-37.11-15.36-13.73-29.43-28.58-42.27-44.66-6.6-8.27-5.64-19.14,2.35-25.68,3.99-3.26,7.78-6.76,11.7-10.1,1.87-1.59,3.97-2.66,6.35-1.1,4.02,2.64,8.64,4.76,11.8,8.21,11.27,12.26,22.64,24.42,34.52,36.07,8.39,8.24,9.55,19.4,13.07,29.44ZM485.94,133.15c-1.11-1.01-2.64-2.2-2.3-3.59.57-2.32-.58-2.19-1.99-1.93-1.64.3-2.3,1.54-1.61,2.93,1.01,2.03,2.21,4.08,4.81,4.53,2.19,2.02,4.2,4.33,7.91,4.92-1.19-3.88-5.21-4.18-6.82-6.86ZM448.95,80.01c.05-1.78-.01-3.57.19-5.33.26-2.36,1.4-4.82-1.22-6.63.29-2.26-.19-3.84-2.85-2.46-2.74,1.42-5.34,3.11-8.01,4.68-.35-.09-.7-.17-1.05-.26,1.17-3.13,1.35-6.4,1.29-9.69-.02-1.25.45-2.87-1.16-3.44-1.55-.55-2.48.76-3.13,1.85-3.01,5.08-5.92,10.23-6.64,16.25-.55,9.29,5.54,14.44,12.39,18.54,5.81,3.48,8.61,2.41,13.17-2.88.85-.98,1.98-1.76,3.07-2.47,2.34-1.53,4.38-3.26,5.07-6.14-.71-2.94-3-2.33-5.1-2.36-2.02-.03-3.93,1.67-6.01.36ZM461.9,110.02c.4-1.42,3.3-3.27.01-4.15-3.12-.83-4.4-3.51-6.66-5.15-.73-.53-.6-2.54-2.14-1.05-.78.75-1.72,1.41-.77,3.23,1.96,3.74,5.97,4.53,8.67,7.1.28.76.54,1.54.84,2.29.57,1.42,1.29,2.71,3.1,2.56.36-.03.9-.52.98-.88.39-1.82-1.06-2.58-2.23-3.4-.49-.34-1.2-.37-1.81-.54ZM472.03,119.39c-1.45-2.52-2.16-4.71-4.9-5.34-.84,3.77.79,5.18,4.9,5.34Z"/><path class="cls-8" d="M356.14,369.98c18.51,16.79,35.75,34.83,52.91,52.97,11.21,11.85,22.15,23.98,35,34.19,6.83,5.43,14.18,9.24,22.97,9.92-3.75,7.19-10.32,11.43-16.82,15.61-1.96,1.26-4.18-.49-6.15-1.19-6.41-2.3-11.3-6.94-16.26-11.31-6.6-5.82-12.91-11.98-19.2-18.13-21.16-20.71-42.25-41.47-63.36-62.22-1.19-1.16-2.54-2.25-3.4-3.63-1.71-2.73-2.68-5.42,1.63-6.98,5.08-1.84,7.56-7.36,12.68-9.23Z"/><path class="cls-11" d="M302.95,222.97c-1.88,2.6-3.76,5.21-5.81,8.03,5.77.38,7.76-5.17,11.86-7.12,3.11,3.75,6.46,7.26,10.44,10.11-.59,3-2.91,4.94-4.93,6.69-9.88,8.57-17.96,18.7-26.06,28.86-2,2.51-4.05,6.61-8.59,2.63-1.41-1.24-3.08.52-4.27,1.67-4.19,4.06-8.51,8.01-11.8,12.86-1.46,2.15-2.31,2.4-4.4.51-4.67-4.24-4.74-4.02-.67-9.18,2.67-3.38,5.71-6.52,7-10.83.57-1.91.36-3.2-1.65-3.94-2.45-.9-2.75.71-3.2,2.47-.45,1.76-1.03,3.52-1.81,5.17-5.07,10.79-6.65,11.05-14.9,2.92-2.25-2.22-4.52-4.53-7.16-6.19-2.54-1.6-2.64-2.54-.59-4.67,17.36-17.97,34.62-36.03,51.93-54.04.42-.44,1.1-.64,1.66-.95,2.91,3.66,7.04,5.91,10.47,8.97,1.9,1.7,2.98,3.48,2.48,6.03ZM270.93,257.73c1.55,1.73,3.65,2.27,4.97.87,5.24-5.53,10.42-11.16,14.33-17.79.69-1.16.26-1.86-.7-2.41-1-.57-1.94-.4-2.54.64-.41.71-.56,1.6-1.05,2.24-4.4,5.83-7.29,13.06-15.01,16.45Z"/><path class="cls-14" d="M201.7,283.72c5.83-7.5,13.18-13.49,19.89-20.12,2.35-2.32,4.77-1.51,6.99.64,14.43,13.94,30.04,26.53,45.33,39.47,1.48,1.26,2.05,2.91,3.22,4.25-2.39,6.4-6.27,11.62-12.18,15.2-1.92.46-3.5-.42-5.18-1.18-5.28-2.38-10.6-4.56-16.43-5.38-5.1-.72-9.89-.36-14.32,2.45-1.65.7-3.64,1.03-4.9,2.16-8.22,7.38-15.96,15.23-22.23,24.4-3.51-2.33-6.39-5.32-8.96-8.63,7.7-7.91,15.4-15.83,23.1-23.74,2.19-.5,2.61-2.17,2.92-4.1,1.41-8.9-4.5-19.44-13.75-24.34-.8-1.3-2.14-.36-3.16-.76l-.34-.33Z"/><path class="cls-12" d="M133.15,139.98c-2.94-5.72-8.65-8.4-13.76-11.12-15.38-8.18-25.45-21.7-36.45-34.36-3.04-3.5.17-5.53,1.94-7.58,2.06-2.38,4.55-4.79,8.07-1.99,7.04,5.59,14.19,11.05,21.05,16.84,4.43,3.74,9.13,7.24,12.45,12.19,2.34,3.49,4.47,6.95,5.31,11.17.9,4.55,3.99,7.98,6.57,11.64.55.79,1.26,1.79,2.38.95.83-.63.33-1.5-.1-2.23-.8-1.38-1.61-2.75-2.44-4.16,2.32-1.13,3.13.66,4.18,1.83,27.55,30.65,57.83,58.49,88.52,85.9,2.81,2.51,3.83,4.09.19,6.48-1.91,1.25-2.74,3.79-5.09,4.63-.65-.75-1.26-1.54-1.96-2.23-26.5-26.23-53.76-51.69-79.17-79.02.11-.64-.23-.93-.82-1.01l.13-.02c-1.15-2.02-2.93-3.26-5.04-4.09l-.03.15c-.31-1.01-1.29-1.04-2.05-1.4-1.18-1.04-2.24-2.25-3.89-2.59Z"/><path class="cls-14" d="M348.05,247.25c-.45-.18-1.02-.24-1.35-.55-17.18-16.45-35.82-31.27-53.27-47.41-4.53-4.19-4.4-6.15,0-10.64,3.25-3.32,6.36-6.78,9.47-10.24,1.65-1.83,3.17-2.11,5.02-.26,16.6,16.57,35.71,30.3,52.48,46.68,1.64,1.6,3.06,3.44,4.58,5.17-2.67,2.79-5.34,5.59-8.01,8.38-3.85,1.27-7.93,2.31-7.84,7.64-.36.41-.72.82-1.08,1.23Z"/><path class="cls-8" d="M82.99,446.95c3.42-3.8,7.98-6.14,12.78-5.74,29.49,2.48,49.67-14.02,69-32.81,8.41-8.18,14.28-18.3,21.89-27.07,3.27-3.77,6.56-7.51,10.33-10.77,1.95-1.69,4.11-3.62,7.03-1.61-11.65,15.08-22.66,30.66-34.75,45.41-6.2,7.56-11.83,15.53-18.6,22.69-9.55,10.1-21.2,16.97-33.08,23.65-2.02,1.14-4.52,1.85-5.99,3.48-3.11,3.45-5.81,3.07-8.92.27-6.53-5.87-13.12-11.68-19.69-17.52Z"/><path class="cls-8" d="M350.7,361.07c2.31,1.48,5.37,2.33,5.09,6-4.61,1.66-8.35,4.8-11.92,7.89-3.73,3.23-5.85,2.12-7.65-1.5-5.88-11.84-15.3-20.82-24.45-29.93-5.98-5.95-12.71-11.15-19.09-16.7-1.25-1.09-2.47-2.22-3.65-3.39-1.07-1.05-1.42-2.28-.34-3.54,1.08-1.25,2.1-.48,3.01.27,3.33,2.76,6.14,1.58,8.68-1.18,2.35-2.56,4.58-5.25,6.92-7.82,5.2-5.73,5.37-5.83,1.13-11.85-1.59-2.25-.86-3.31.59-5.03,3.11-3.68,7.66-5.83,10.31-10,1.1-1.72,2.47-1.07,3.71.18,3.27,3.3,6.7,6.46,9.09,10.52-8.31,6.16-12.42,15.11-16.8,24.11-3.38,6.93-3.69,6.33,1.51,11.97,9.09,9.88,19.91,18.04,28.2,28.68-.13,3.61-4.48,5.09-4.73,9.66,3.86-3.1,7.13-5.73,10.4-8.36Z"/><path class="cls-14" d="M355.87,188.92c-4.9,6.28-11.94,7.17-19.16,7.77-1.36.11-2.23-.34-3.13-1.05-5.51-4.29-11.03-8.59-16.51-12.92-1.47-1.16-2.61-2.03-.65-4.25,8.96-10.1,18.47-19.63,28.58-28.56.88-.78,1.65-1.69,3.01-1.32,2.95,4.73,7.84,7.45,11.7,11.24,2.17,2.13,3.07,4.25,2.76,7.42-.75,7.71-4.48,14.42-6.6,21.66Z"/><path class="cls-11" d="M363.01,184.12c5.51-1.79,6.27-7.31,8.92-11.35,7.72,7.35,15.27,14.84,20.45,24.32.5,3.66-2.92,4.77-4.62,6.98-1.44,1.88-3.98,3.01-3.78,5.93-.76,1.8-2.67,2.43-3.87,3.79-3.67,2.33-8.41,3.64-8.81,9.13-.77,1.33-1.54,2.66-2.32,3.99-.81.21-1.59.41-2.31-.29-8.93-8.6-17.87-17.18-27.34-26.28,9.18-1.55,17.85-3.07,21.8-12.41.62-1.27,1.25-2.54,1.87-3.81Z"/><path class="cls-15" d="M430.85,121.02c-4,5.13-8.98,9.32-13.42,14.02-1.55,1.64-2.3.66-3.64-.21-9.85-6.41-17-15.89-26.33-22.87-2.33-1.75-2.72-3.19-.19-5.37,4.03-3.48,7.43-7.59,10.46-12,.79-1.15,1.37-2.8,3.29-2.67.42,1.56,1.84,2.29,2.84,3.35,8.57,9.03,17.46,17.73,27,25.75Z"/><path class="cls-9" d="M201.9,345.62c6.27-9.17,14.01-17.02,22.23-24.4,1.26-1.13,3.25-1.46,4.9-2.16.28,2.68,2.28,2.07,3.77,1.75,11.97-2.58,21.81,2.97,31.91,7.56l-.28,1.25c-4.12-1.01-8.25-1.98-12.37-3.02-6.54-1.65-12.13-.04-16.82,4.77-7.42,7.62-15.43,14.67-22.25,22.86-1.22,1.46-1.97,1.49-3.09.2-2.61-2.98-6.06-5.2-8-8.8Z"/><path class="cls-12" d="M189.93,334.94c-4.52-4.38-8.98-8.82-13.58-13.11-2.43-2.27-.6-3.94.72-5.33,3.44-3.6,7.02-7.09,10.75-10.39,5.75-5.08,10.12-10.93,11.72-18.6.3-1.43.74-2.92,2.16-3.78,0,0,.34.33.34.33-1.53,4.68,1.87,8.52,2.19,12.96,1.08,14.93-5.39,26.85-14.31,37.92Z"/><path class="cls-9" d="M380.11,213.79c1.2-1.35,3.1-1.99,3.87-3.79,7.43-2.33,11.02-8.98,15.88-14.18.51-.55.37-1.74-.38-2.25-.81-.55-1.53.11-2.16.65-1.47,1.26-2.55,3.19-4.94,2.87-5.17-9.49-12.72-16.98-20.45-24.32.49-2.93,1.4-5.8,1.04-8.89,2.3-.32,2.94,1.56,4,2.59,6.93,6.71,13.29,14,20.92,19.98,3.56,2.79,4.38,7.32,6.73,10.9,1.32,2-.8,3.32-2.03,4.57-6.67,6.75-13.42,13.42-20.08,20.19-1.97,2.01-3.74,4.23-5.57,6.37-3.92,4.57-5.56,4.25-7.96-1.57.77-1.33,1.54-2.66,2.32-3.99,5.64-.43,7.75-4.27,8.81-9.13Z"/><path class="cls-10" d="M189.93,334.94c8.92-11.07,15.39-23,14.31-37.92-.32-4.43-3.72-8.28-2.19-12.96,1.02.4,2.36-.54,3.16.76-1.53,1.7.46,2.33,1.14,3.05,6.7,7.16,11.13,15.14,9.7,25.38-7.7,7.91-15.4,15.83-23.1,23.74-1-.69-2.01-1.37-3.01-2.06Z"/><path class="cls-12" d="M240.59,225.12c.82.22,1.21-.23,1.42-.94.25-.2.49-.4.74-.6l-.76-.37c-.52-.31-1.03-.61-1.55-.92,1.26.07,2.43-2.45,3.7-.33,2.86,4.78,7.26,8.06,11.19,11.78,1.59,1.5,1.61,2.34.11,3.89-4.23,4.4-8.28,8.96-12.41,13.46-1.98.1-2.72-1.69-4.01-2.64-3.44-2.53-6.07-6.17-10.4-7.44-.74-4.09,3.2-5.82,4.49-8.88.98-1.18,1.97-2.37,2.95-3.55.31-.18.63-.36.94-.54,1.63-.39,2.98-1.14,3.54-2.85,0,0,.05-.07.05-.07Z"/><path class="cls-8" d="M430.85,121.02c-9.53-8.02-18.42-16.72-27-25.75-1.01-1.06-2.42-1.79-2.84-3.35.3-3.03,3.07-4.15,4.76-6.09.8-.92,1.78-.68,2.63.08.37.33.76.65,1.08,1.03,7.81,9.24,16.36,17.75,25.55,25.61,1.76,1.5,1.92,2.74.14,4.43-1.43,1.36-2.46,3.14-4.32,4.04Z"/><path class="cls-10" d="M363.01,184.12c-.62,1.27-1.25,2.54-1.87,3.81-1.76.33-3.52.65-5.27.98,2.12-7.24,5.85-13.95,6.6-21.66.31-3.17-.59-5.3-2.76-7.42-3.86-3.79-8.75-6.51-11.7-11.24.39-2.89,3.33-3.93,4.54-6.29.84-1.63,1.96-.3,2.71.49,4.62,4.94,10.18,9.34,13.53,15.04,3.3,5.62.44,12.07-1.94,17.89-1.16,2.85-3.99,4.94-3.83,8.39Z"/><path class="cls-10" d="M133.15,139.98c1.65.34,2.71,1.54,3.89,2.59.27,1.07,1.01,1.45,2.05,1.39,0,0,.03-.15.03-.15.19,3.2,2.01,4.39,5.04,4.09,0,0-.13.02-.13.02.27.34.54.67.82,1.01,25.4,27.33,52.67,52.79,79.17,79.02.7.7,1.31,1.49,1.96,2.23-2.11,2.15-3.14-.07-4.47-1.1-7.31-5.6-12.78-13.1-19.49-19.25-11.8-10.82-22.91-22.31-34.18-33.64-11.04-11.1-22.92-21.28-34.21-32.11-1.31-1.25-2.41-2.72-3.61-4.09h0c1.05,0,2.1-.01,3.15-.02Z"/><path class="cls-4" d="M270.12,284.72c.84-.49,1.68-.97,2.52-1.46.19,2.61.89,5.01,3.02,6.88,1.13-2.51-.92-4.7-.66-7.08,1.34.14,2.88-.34,1.77-1.73-2.51-3.15.87-4.43,1.97-5.7,1.45-1.67,2.72.87,3.86,1.81,4.76,3.93,8.33,8.98,12.4,13.56-.34.96-.69,1.92-1.03,2.89-.95.37-1.9.73-2.85,1.1-.28-.39-.57-.79-.85-1.18-.59-1.29.44-2.98-1.31-4.38-1.49,2.88-7.08,1.32-6.56,6.57.03.27-.97.63-1.49.95-.65,1.35-1.31,2.69-1.96,4.04l.02-.03c-1.25.3-2.84.93-3.56-.43-1.85-3.55-6.31-4.68-7.68-8.58,2.02.26,4.77-2.96,6.28,1.55-1.78-3-2.29-6.11-3.9-8.76Z"/><path class="cls-9" d="M356.97,238.38c2.67-2.79,5.34-5.59,8.01-8.38,8.78,6.95,8.93,9.52,1.04,17.58-.23.24-.47.47-.7.7-8.64,8.69-9.26,8.65-17.27-1.03.36-.41.72-.82,1.08-1.23,3.62-1.52,6.11-4.18,7.84-7.64Z"/><path class="cls-13" d="M441.43,113.19c8.54,6.99,15.57,14.74,23.33,21.67,10.02,8.94,19.4,18.69,30.59,26.29.55.37,1.08.79,1.58,1.23.77.69,2.51,1.02,1.37,2.57-1.05,1.41-2.19.21-3.01-.4-4.26-3.18-8.64-6.24-12.61-9.76-12.8-11.35-26.93-21.15-38.93-33.45-2.22-2.27-3.29-4.45-2.31-8.15Z"/><path class="cls-10" d="M65.96,448.86c.39-2.02.99-3.28,3.14-1.3,7.91,7.29,15.85,14.55,23.83,21.77,1.86,1.68,1.95,2.84-.47,3.95-3.69,1.7-7.13,4.34-11.58,2.62-.6-3.91-5.47-6.24-4.49-10.48,1.15-4.95-1.48-7.64-4.61-10.47-2.07-1.88-3.88-4.05-5.81-6.1Z"/><path class="cls-13" d="M301.88,298.98c2.77-.02,3.86,2.34,5.43,3.94,1.16,1.18.7,3.32-.41,3.29-2.88-.06-2.44,5.52-6.17,3.32-.06-.03-.58.41-.6.66-.37,5.61-2.84,4.19-5.68,1.75-.62-.53-1.53-1.14-2.1-.13-1.04,1.82,1.29,1.85,1.81,2.94-4.61,1.68-4.7-4.47-8.19-4.64-.02-3.22.95-6.37-1.64-9.46-1.18-1.41-.98-4.78,2.87-5.73-1.47,2.65-1.47,4.62,1.07,5.94l1.18.14c1.54.6,2.84.41,3.76-1.1.74-.42.84-1.1.77-1.85l.33-.38c2.49.65,5.19.08,7.58,1.31ZM301.72,304.46c-1-.18-1.43.24-1.28.72.17.56.6,1.23,1.1,1.45.69.31,1.35-.19,1.14-.98-.15-.54-.76-.96-.96-1.19Z"/><path class="cls-13" d="M405.11,187.86c10.69,1.32,20.86,4.94,31.37,7.13,7.11,1.48,14.41,1.9,21.39,3.98,1.4.42,3.26-.01,2.99,2.27-.27,2.31-2,1.65-3.45,1.45-15.35-2.16-30.4-6.33-46.03-6.74-4.63-.12-5.1-4.54-6.55-7.76l.27-.32Z"/><path class="cls-9" d="M264.96,323.17c5.91-3.59,9.78-8.8,12.18-15.2,3.63.98,5.22,4.39,7.85,6.57,1.1.91.83,2.06.2,3.14-1.17,1.99-2.19,4.11-3.56,5.95-5.68,7.6-10.71,7.43-16.66-.46Z"/><path class="cls-13" d="M327.69,233.4c.06,2.17-1.1,3.39-2.17,4.63-5.72,6.65-11.38,13.28-17.85,19.32-5.76,5.37-10.24,12.16-16.11,17.58-.73.68-1.4,1.43-2.11,2.12-.79.77-1.68,1.16-2.56.18-.78-.86-.06-1.47.47-2.1,8.6-10.32,16.68-21.13,27.03-29.83,3.58-3.01,7.04-6.02,9.79-9.83.72-.99,1.52-2.26,3.52-2.06Z"/><path class="cls-12" d="M65.96,448.86c1.93,2.04,3.74,4.22,5.81,6.1,3.13,2.84,5.76,5.53,4.61,10.47-.98,4.24,3.88,6.57,4.49,10.48-7.47-3.37-13.02-8.98-16.82-16-1.94-3.57-.94-7.74,1.92-11.05Z"/><path class="cls-4" d="M306.48,291.82c-3.37-4.68-6.46-9.19-9.78-13.52-2.93-3.82,1.15-4.88,2.64-6.65,2.17-2.56,2.88.57,3.88,1.64,3.32,3.52,4.75,7.9,5.4,12.62.32,2.29.08,4.31-2.15,5.92Z"/><path class="cls-4" d="M307.68,263.07c4.35,4.69,7.68,9.87,8.4,16.38.18,1.62.3,3.72-1.56,4.22-1.53.41-1.65-1.73-2.37-2.73-1.93-2.68-3.63-5.51-5.63-8.13-3.81-5-3.87-4.96,1.16-9.74Z"/><path class="cls-9" d="M302.95,222.97c.5-2.56-.58-4.34-2.48-6.03-3.43-3.06-7.56-5.31-10.47-8.97,1.43-4.26,3.3-4.64,6.51-1.26,2.48,2.61,5.72,4.47,8.48,6.84,4.06,3.48,3.23,7.1-2.04,9.42Z"/><path class="cls-4" d="M326.79,270.17c-2.95-5.11-6.56-9.57-10.31-13.98-2.77-3.25,1.44-4.34,2.67-6.14,1.59-2.33,2.35.28,3.13,1.18,4.71,5.45,4.9,12.09,4.51,18.93Z"/><path class="cls-10" d="M288.26,300.85c-2.54-1.32-2.54-3.29-1.07-5.94-3.84.95-4.05,4.32-2.87,5.73,2.59,3.1,1.62,6.24,1.64,9.46-2.62-2.83-6.05-5.04-6.99-9.16,0,0-.02.03-.02.03,1.01.5,2.46,1.58,3.11.61,1.09-1.6.04-3.28-1.15-4.65.52-.32,1.51-.69,1.49-.95-.52-5.25,5.07-3.7,6.56-6.57,1.76,1.4.73,3.08,1.31,4.38-.2.21-.41.42-.61.62.49.19.97.37,1.46.56.95-.37,1.9-.73,2.85-1.1,2,1.1-.08,2.55.32,3.79,0,0-.33.38-.33.38-.52,0-1.04,0-1.56,0-.36.02-.72.04-1.09.06-2.14-.32-3.57.13-3.06,2.75Z"/><path class="cls-9" d="M228.62,241.02c4.34,1.27,6.97,4.91,10.4,7.44,1.29.95,2.04,2.73,4.01,2.64-4.43,4.93-4.35,4.85-8.97.42-2.82-2.7-5.19-5.82-8.86-7.72-2.9-1.51-.61-3.92-.09-7.14.94,2.67.98,4.82,3.5,4.36Z"/><path class="cls-4" d="M334.05,264.16c-3.49-5.47-5.99-11.28-10.27-16.02-2.07-2.29.45-3.14,1.37-4.41,1.3-1.8,2.12-.42,2.96.62,4.71,5.83,6.82,12.4,5.93,19.8Z"/><path class="cls-13" d="M340.55,256.51c-1.2-.32-1.46-1.36-1.91-2.22-2.33-4.42-4.82-8.73-8.31-12.36-1.27-1.32-1.43-2.53-.28-3.93,1.42-1.73,2.29-.04,3.3.56,5.03,3.02,6.97,8.31,9.39,13.16,1.01,2.02-.05,3.85-2.19,4.77Z"/><path class="cls-10" d="M319.45,233.99c-3.98-2.85-7.33-6.36-10.44-10.11-.02-1.7.1-3.71,1.68-4.37,1.55-.64,2.42,1.35,3.53,2.26,2.04,1.68,4.02,3.43,6.05,5.13,3.79,3.16,3.67,4.22-.82,7.09Z"/><path class="cls-4" d="M321.62,276.35c-3.17-4.85-6.57-9.29-10.39-13.38-1.97-2.11-.99-3.34.63-4.84,2.34-2.19,2.76.47,3.51,1.47,3.69,4.97,7.28,10.04,6.26,16.75Z"/><path class="cls-13" d="M75.63,447.44c9.64,5.71,16.07,15.06,25.71,21.54-4.45.67-22.23-14.44-25.71-21.54Z"/><path class="cls-13" d="M411.6,81.35c-11.71-1.58-13.46-5.11-7.79-16.38.37,7.1,2.53,12.5,7.79,16.38Z"/><path class="cls-13" d="M481.58,461.83c-1.76,7-6.08,11.54-13.04,13.54,4.51-4.36,8.32-9.37,13.04-13.54Z"/><path class="cls-4" d="M299.14,290.74c-2.86-3.09-5.05-5.51-7.3-7.85-1.19-1.24-1.03-2.16.18-3.32,1.33-1.29,2.32-.9,3.29.27,2.35,2.84,4.13,5.91,3.84,10.91Z"/><path class="cls-1" d="M294.3,297.67c-.4-1.24,1.68-2.69-.32-3.79.34-.96.69-1.92,1.03-2.89,2.33,2.63,6.35,3.81,6.87,7.99-2.39-1.23-5.09-.66-7.58-1.31Z"/><path class="cls-1" d="M270.12,284.72c1.61,2.65,2.11,5.76,3.9,8.76-1.5-4.5-4.26-1.29-6.28-1.55,0,0,.16-.38.16-.38.06-.58.13-1.16.19-1.74,2.37-1.03-.59-4.17,2.03-5.1Z"/><path class="cls-13" d="M348.74,133.68c2.46,2.14,5.2,2.4,3.7,5.22-.42.79-1.3,1.99-2.27,1.35-2.08-1.37-.75-3.55-1.44-6.58Z"/><path class="cls-13" d="M236.06,228.59c-.98,1.18-1.97,2.37-2.95,3.55-1.9-1.74-2.06,1.65-3.87.84,1.9-2.36,3.12-5.41,6.78-5.98.01.53.03,1.06.04,1.59Z"/><path class="cls-1" d="M275.01,283.05c-.27,2.38,1.79,4.58.66,7.08-2.13-1.87-2.83-4.26-3.02-6.88,0,0,0-.16,0-.16.68-.08,1.35-.15,2.02-.23l.35.19Z"/><path class="cls-13" d="M464.05,201.06c.4-2.82,2.02-3.48,3.76-4.96.13,2.99-1.09,4.07-3.76,4.96Z"/><path class="cls-4" d="M268.1,289.82c-.06.58-.13,1.16-.19,1.74-.73-.41-1.46-.83-2.19-1.25.47-.58.83-1.43,1.44-1.66.75-.3.8.62.94,1.17Z"/><path class="cls-13" d="M416.93,89.08c-.78-.13-1.55-.28-1.49-1.34,0-.12.2-.32.31-.32,1.06-.05,1.16.76,1.32,1.52,0,0-.14.14-.14.14Z"/><path class="cls-3" d="M390.06,174.92c1.01.09,1.96.31,2.33,1.42.03.09-.18.36-.29.37-1.19.07-1.66-.83-2.17-1.66l.12-.13Z"/><path class="cls-13" d="M437.34,119.07c-.26.14-.53.27-.79.41-.07-.27-.28-.62-.18-.81.11-.2.5-.26.76-.38.07.25.14.51.22.77Z"/><path class="cls-6" d="M240.59,225.12s-.05.08-.05.07c-.79-.09-1.69.07-2.05-.94-.03-.09.06-.23.1-.35.67.41,1.33.81,2,1.22Z"/><path class="cls-3" d="M397.99,182.01c-.44-.13-.88-.27-1.33-.4.09-.13.17-.26.26-.39.36.26.73.51,1.09.77,0,0-.02.02-.02.02Z"/><path class="cls-13" d="M404.84,188.18c-.41-.21-.82-.42-1.23-.64.1-.12.26-.36.3-.34.41.2.8.43,1.2.66,0,0-.27.32-.27.32Z"/><path class="cls-4" d="M274.66,282.86c-.67.08-1.35.15-2.02.23.19-.52.27-1.39.59-1.49.91-.28,1.01.74,1.43,1.26Z"/><path class="cls-13" d="M432.99,122.99l-.38,1.36c-.14-.08-.27-.17-.41-.25.27-.36.54-.73.8-1.09h-.01Z"/><path class="cls-13" d="M68.45,441.4c-.08-.12-.17-.24-.25-.36.18-.09.36-.19.54-.28.03.15.11.32.06.44-.04.1-.23.14-.35.2Z"/><path class="cls-13" d="M421,136c.03.85-.18,1.58-1.01,1.99h.01c-.04-.84.17-1.57.99-2,0,0,0,0,0,0Z"/><path class="cls-13" d="M295.33,316.67c.12.01.29-.02.34.04.08.1.14.3.09.4-.2.43-.43.41-.57-.05-.03-.11.09-.26.14-.4Z"/><path class="cls-9" d="M266.95,330.19c.13.06.26.12.38.17-.18.13-.35.26-.53.39-.07-.11-.22-.26-.19-.33.04-.11.22-.16.33-.23Z"/><path class="cls-13" d="M425.94,130.95c.33-.34.66-.68.99-1.03,0,0,.13.13.13.13l-1.02,1s-.11-.11-.11-.11Z"/><path class="cls-13" d="M426.04,131.05c-.34.33-.67.66-1.01.99l-.08-.08c.33-.34.66-.67.99-1.01,0,0,.11.1.11.1Z"/><path class="cls-13" d="M425.04,132.05c-.33.33-.67.67-1,1l-.08-.08c.33-.33.66-.67.99-1,0,0,.08.08.08.08Z"/><path class="cls-13" d="M424.04,133.04c-.34.32-.68.65-1.02.97,0,0-.03-.03-.03-.03.32-.34.65-.68.97-1.02,0,0,.08.08.08.08Z"/><path class="cls-13" d="M422.01,135.01c-.34.33-.67.66-1.01,1,0,0,0,0,0,0,.33-.34.66-.67,1-1.01h.01Z"/><path class="cls-13" d="M420,137.99c-.15.14-.3.27-.44.41.03-.09.03-.22.09-.27.1-.07.24-.09.37-.13,0,0-.01-.01-.01-.01Z"/><path class="cls-10" d="M130,140c-.14-.15-.28-.3-.43-.45.1.02.23.02.28.08.08.1.09.25.14.37,0,0,0,0,0,0Z"/><path class="cls-13" d="M417.98,90.03c-.35-.32-.7-.63-1.05-.95,0,0,.14-.14.14-.14.32.35.64.69.95,1.04l-.05.05Z"/><path class="cls-13" d="M413,84l-.42-.46c.09.03.22.02.27.09.08.1.1.25.15.37h0Z"/><path class="cls-13" d="M413,84c.34.33.67.66,1.01.99,0,0-.02.02-.02.02-.33-.34-.66-.67-.99-1.01,0,0,0,0,0,0Z"/><path class="cls-3" d="M398.01,181.99c.13.15.26.29.4.44-.14-.14-.28-.28-.42-.42,0,0,.02-.02.02-.02Z"/><path class="cls-13" d="M414.01,84.99c.14.16.28.31.42.47-.1-.03-.23-.02-.28-.08-.08-.1-.11-.25-.16-.37,0,0,.02-.02.02-.02Z"/><path class="cls-13" d="M418.02,89.98c.13.16.26.33.39.49-.15-.15-.29-.3-.44-.44,0,0,.05-.05.05-.05Z"/><path class="cls-13" d="M420,93c-.14-.16-.27-.31-.41-.47.09.03.22.03.27.09.08.1.1.24.14.37h0Z"/><path class="cls-13" d="M420,93c.34.33.68.66,1.02.99,0,0-.04.04-.04.04-.33-.34-.66-.68-.98-1.02,0,0,0,0,0,0Z"/><path class="cls-13" d="M421.99,95.01c-.34-.33-.67-.66-1.01-.99,0,0,.04-.04.04-.04.33.34.66.67.99,1.01,0,0-.02.02-.02.02Z"/><path class="cls-13" d="M422.01,94.99c.33.33.67.67,1,1,0,0-.02.02-.02.02-.33-.33-.67-.66-1-1,0,0,.02-.02.02-.02Z"/><path class="cls-13" d="M424,97c-.34-.33-.67-.66-1.01-.99,0,0,.02-.02.02-.02.33.34.66.67.99,1.01h0Z"/><path class="cls-13" d="M421.99,134.99c.33-.33.66-.67.99-1,0,0,.02.02.03.03-.33.33-.67.66-1,.99,0,0-.01-.01-.01-.01Z"/><path class="cls-13" d="M424,97c.14.15.28.3.41.44-.09-.03-.22-.02-.27-.08-.08-.1-.1-.24-.14-.36,0,0,0,0,0,0Z"/><path class="cls-3" d="M430.97,103.04c-.14-.16-.28-.31-.41-.47.16.13.32.26.48.4,0,0-.07.07-.07.07Z"/><path class="cls-6" d="M241.99,223.21l.76.37c-.25.2-.49.4-.74.6-.02-.32-.02-.65-.02-.98Z"/><path class="cls-3" d="M431.04,102.97c.33.33.67.66,1,1,0,0-.08.08-.08.08-.33-.34-.66-.67-1-1,0,0,.07-.07.07-.07Z"/><path class="cls-3" d="M389.94,175.05c-.12-.17-.25-.34-.38-.51.17.13.33.26.5.38,0,0-.12.12-.12.12Z"/><path class="cls-6" d="M236.06,228.59c-.01-.53-.03-1.06-.04-1.59.33.35.66.7.98,1.05-.31.18-.63.36-.94.54Z"/><path class="cls-3" d="M432.04,103.97c.34.33.67.66,1.01,1,0,0-.09.09-.09.09-.33-.34-.66-.67-.99-1.01,0,0,.08-.08.08-.08Z"/><path class="cls-3" d="M433.95,106.06c-.33-.34-.66-.67-.99-1.01,0,0,.09-.09.09-.09.34.33.67.66,1.01,1,0,0-.1.1-.1.1Z"/><path class="cls-3" d="M434.05,105.96c.34.33.68.65,1.02.98l-.15.15c-.32-.34-.65-.69-.97-1.03,0,0,.1-.1.1-.1Z"/><path class="cls-3" d="M435.08,106.94c.34.33.67.66,1.01.99l-.17.17c-.33-.34-.66-.68-.99-1.01,0,0,.15-.15.15-.15Z"/><path class="cls-3" d="M436.09,107.93c.34.33.67.66,1.01,1,0,0-.18.19-.18.19-.33-.34-.66-.67-.99-1.01,0,0,.17-.17.17-.17Z"/><path class="cls-3" d="M437.09,108.92c.12.18.24.36.36.54-.18-.12-.36-.24-.54-.36,0,0,.18-.18.18-.18Z"/><path class="cls-13" d="M434.01,122.01c.15-.14.29-.28.44-.42-.03.09-.03.22-.09.27-.1.07-.24.09-.37.14,0,0,.02.02.02.02Z"/><path class="cls-13" d="M433,123.01c.33-.33.67-.67,1-1,0,0-.02-.02-.02-.02-.33.33-.67.67-1,1,0,0,.01.01.01.01Z"/><path class="cls-13" d="M426.93,129.92c.17-.14.35-.28.52-.42-.13.18-.26.36-.39.55,0,0-.13-.13-.13-.13Z"/><path class="cls-2" d="M350.7,361.07c-3.27,2.63-6.54,5.25-10.4,8.36.25-4.58,4.6-6.05,4.73-9.66,2.16.62,2.88-1.32,3.96-2.39,5.21-5.14,10.29-10.4,15.46-15.57,1.44-1.44,2.67-3.39,5.96-2.9-4.72,9.4-13.77,14.45-19.72,22.16Z"/><path class="cls-6" d="M358.84,362.45c7.49-8.29,14.81-16.42,22.15-24.53.58-.64,1.37-1.14,2.2-.69,1.1.59.92,1.67.51,2.61-.33.75-.74,1.52-1.29,2.12-6.21,6.7-11.95,13.87-19.17,19.58-1.02.8-1.97,1.9-4.41.91Z"/><path class="cls-3" d="M460.06,82.01c-.69,2.88-2.73,4.61-5.07,6.14-1.1.72-2.23,1.49-3.07,2.47-4.56,5.29-7.36,6.35-13.17,2.88-6.85-4.1-12.94-9.24-12.39-18.54,1.14-.66,2.28-1.32,3.42-1.99-.87,3.66-.73,6.97,2.36,9.78,3.43,3.12,6.61,6.52,9.9,9.8.44.44,1.1,1.22,1.52.54,2.85-4.67,8.81-5.03,12.39-9.09-1.77-.36-3.36-.68-4.96-1,2.84-2,6.05-.53,9.06-.98Z"/><path class="cls-3" d="M437.05,70.26c2.66-1.57,5.26-3.26,8.01-4.68,2.66-1.38,3.14.2,2.85,2.46-.64,3.03-1.38,6.04-1.86,9.09-.24,1.58-.41,3.43,1.84,4,.03.63.07,1.26.1,1.89-8.69-2.03-1.21-8.2-3.24-12.08-2.74,0-4.21,4.53-7.72,2.55,0-1.08.01-2.16.02-3.24Z"/><path class="cls-6" d="M429.78,72.97c-1.14.66-2.28,1.32-3.42,1.99.73-6.02,3.64-11.17,6.64-16.25.65-1.1,1.57-2.4,3.13-1.85,1.61.57,1.13,2.19,1.16,3.44.06,3.29-.12,6.56-1.29,9.69-.16.05-.32.15-.47.14-.13-.01-.34-.15-.35-.25-.17-2.36-.32-4.72-.53-8-1.71,2.03-2.61,3.42-2.52,5.32-.78,1.92-1.56,3.84-2.35,5.76Z"/><path class="cls-3" d="M461.02,109.99c-2.7-2.56-6.72-3.36-8.67-7.1-.95-1.81,0-2.47.77-3.23,1.54-1.49,1.41.52,2.14,1.05,2.26,1.64,3.53,4.32,6.66,5.15,3.29.88.38,2.73-.01,4.15-.29-.11-.58-.12-.88-.03Z"/><path class="cls-6" d="M447.9,81.13c-2.25-.57-2.09-2.42-1.84-4,.47-3.05,1.22-6.06,1.86-9.09,2.63,1.81,1.48,4.27,1.22,6.63-.2,1.76-.13,3.55-.19,5.33,0,0,.08-.05.08-.05-.9-.17-.94.51-1.09,1.09l-.05.09Z"/><path class="cls-3" d="M484.85,135.09c-2.59-.45-3.79-2.49-4.81-4.53-.7-1.39-.03-2.63,1.61-2.93,1.42-.26,2.56-.39,1.99,1.93-.34,1.39,1.19,2.59,2.3,3.59,0,.85-.24,1.57-1.09,1.94Z"/><path class="cls-10" d="M432.13,67.21c-.09-1.9.81-3.29,2.52-5.32.21,3.28.36,5.64.53,8,0,.1.22.23.35.25.15.01.31-.09.47-.14.35.09.7.17,1.05.26,0,1.08-.01,2.16-.02,3.24-5.33.79-2.51-4.78-4.9-6.28Z"/><path class="cls-6" d="M448,83.02c-.03-.63-.07-1.26-.1-1.89,0,0,.05-.09.05-.09.6-.12,1.62.17,1.09-1.09,0,0-.08.05-.08.05,2.08,1.32,3.99-.38,6.01-.36,2.1.03,4.39-.58,5.1,2.36-3.01.45-6.22-1.02-9.06.98-1,0-2,.02-3,.03Z"/><path class="cls-13" d="M484.85,135.09c.85-.37,1.09-1.09,1.09-1.94,1.6,2.68,5.63,2.98,6.82,6.86-3.71-.59-5.72-2.9-7.91-4.92Z"/><path class="cls-13" d="M472.03,119.39c-4.11-.16-5.75-1.57-4.9-5.34,2.75.63,3.45,2.82,4.9,5.34Z"/><path class="cls-10" d="M461.02,109.99c.3-.1.59-.09.88.03.61.17,1.32.2,1.81.54,1.17.82,2.63,1.58,2.23,3.4-.08.36-.62.85-.98.88-1.81.16-2.54-1.14-3.1-2.56-.3-.76-.56-1.53-.84-2.29Z"/><path class="cls-3" d="M270.93,257.73c7.72-3.38,10.61-10.62,15.01-16.45.49-.64.64-1.53,1.05-2.24.6-1.04,1.54-1.21,2.54-.64.96.55,1.39,1.25.7,2.41-3.91,6.63-9.08,12.26-14.33,17.79-1.32,1.39-3.41.86-4.97-.87Z"/><path class="cls-2" d="M216.04,313.25c1.43-10.25-3-18.22-9.7-25.38-.68-.72-2.66-1.35-1.14-3.05,9.25,4.9,15.16,15.43,13.75,24.34-.31,1.93-.72,3.6-2.92,4.1Z"/><path class="cls-6" d="M144.15,147.9c-3.03.3-4.85-.89-5.04-4.09,2.11.83,3.89,2.07,5.04,4.09Z"/><path class="cls-6" d="M139.08,143.96c-1.04.06-1.78-.32-2.05-1.39.76.35,1.74.39,2.05,1.39Z"/><path class="cls-6" d="M144.84,148.93c-.27-.34-.54-.67-.82-1.01.58.09.92.37.82,1.01Z"/><path class="cls-2" d="M356.97,238.38c-1.73,3.46-4.22,6.12-7.84,7.64-.09-5.33,3.99-6.37,7.84-7.64Z"/><path class="cls-6" d="M392.38,197.1c2.39.32,3.47-1.61,4.94-2.87.63-.54,1.35-1.2,2.16-.65.75.51.89,1.7.38,2.25-4.86,5.2-8.45,11.86-15.88,14.18-.19-2.92,2.34-4.05,3.78-5.93,1.69-2.21,5.11-3.32,4.62-6.98Z"/><path class="cls-6" d="M380.11,213.79c-1.05,4.86-3.16,8.69-8.81,9.13.4-5.49,5.13-6.8,8.81-9.13Z"/><path class="cls-2" d="M280.92,296.94c1.19,1.37,2.24,3.05,1.15,4.65-.66.96-2.1-.11-3.11-.61.65-1.35,1.31-2.69,1.96-4.04Z"/><path class="cls-3" d="M291.13,294.97c-.49-.19-.97-.37-1.46-.56.2-.21.41-.42.61-.62.28.39.57.79.85,1.18Z"/><path class="cls-3" d="M288.26,300.85c-.51-2.62.93-3.08,3.06-2.75-.17,1.26-.92,2.15-1.88,2.89l-1.18-.14Z"/><path class="cls-1" d="M289.45,300.99c.96-.75,1.71-1.63,1.88-2.89.36-.02.73-.04,1.09-.06.26.62.53,1.24.79,1.85-.92,1.51-2.22,1.7-3.76,1.1Z"/><path class="cls-2" d="M301.72,304.46c.2.24.82.65.96,1.19.21.79-.45,1.28-1.14.98-.5-.22-.93-.89-1.1-1.45-.15-.48.28-.9,1.28-.72Z"/><path class="cls-6" d="M293.21,299.9c-.26-.62-.53-1.24-.79-1.85.52,0,1.04,0,1.56,0,.07.75-.03,1.43-.77,1.85Z"/><path class="cls-15" d="M448,83.02c1,0,2-.02,3-.03,1.59.32,3.19.64,4.96,1-3.58,4.07-9.55,4.42-12.39,9.09-.42.69-1.08-.09-1.52-.54-3.28-3.28-6.47-6.67-9.9-9.8-3.09-2.81-3.24-6.12-2.36-9.78.78-1.92,1.56-3.84,2.35-5.76,2.4,1.5-.43,7.07,4.9,6.28,3.5,1.98,4.98-2.56,7.72-2.55,2.04,3.87-5.45,10.04,3.24,12.08Z"/><path class="cls-15" d="M449.03,79.96c.54,1.26-.48.97-1.09,1.09.14-.58.19-1.26,1.09-1.09Z"/></svg>